<svg width="78" height="117" viewBox="0 0 78 117" fill="none" xmlns="http://www.w3.org/2000/svg">
<path d="M46.4585 30.1954L47.9785 31.4154C48.9285 32.1754 49.4485 32.9654 50.0085 34.0354C50.5585 34.6354 52.2485 35.1454 53.0285 35.5754C56.0385 37.2254 56.4485 42.9254 55.1885 45.4054C54.4185 46.9254 53.0185 48.1454 51.6785 48.6654L49.3885 49.5654C48.7585 49.8154 48.2685 50.3554 48.2385 51.0554C48.2185 51.5354 49.0485 52.2454 49.6585 52.2354L52.7485 52.1854C54.2285 52.1654 56.2385 52.3254 57.0085 53.7354C57.3485 54.3454 56.8885 55.8954 56.2585 56.0754C53.8885 56.7654 52.2285 54.8354 51.2285 56.9554C51.0385 57.3654 51.1985 58.3154 51.4985 58.5954C52.2685 58.8054 53.1585 59.0454 53.7885 59.3554L55.8485 60.3854C56.7085 60.8154 57.5685 61.2954 57.7285 62.5854C57.8785 63.7654 58.0385 65.3254 57.9785 66.5154C57.8485 69.0154 55.3285 71.6454 55.1685 71.5854C54.1685 71.2354 54.8185 68.9154 53.0185 66.0454C52.2385 64.8054 50.7285 63.5054 49.2385 63.4454L45.8485 63.3154C44.3085 63.2554 42.1985 63.1854 40.9285 62.7254C40.7285 62.6554 40.3485 61.9754 40.1785 62.0254L39.2685 62.3354C38.1185 61.5854 36.5985 60.8154 35.6685 59.8254C34.5885 58.6754 33.9685 56.8754 32.6685 55.9254C32.0985 55.5154 30.3285 55.5954 29.8985 56.1654C28.8685 57.5054 28.8585 59.5154 28.3185 61.0954C27.6985 62.9154 25.5585 64.1154 23.6485 64.2554C22.4985 64.3454 18.8685 61.0754 19.4185 59.3954C19.8285 58.1354 21.7685 58.9954 23.1885 57.5954C24.3685 56.4354 23.6985 53.5754 22.3585 51.9854C22.9485 51.3154 23.7485 50.3854 23.7285 49.5154C23.7085 48.5754 23.2385 47.4754 22.3485 47.0954C21.9985 46.9454 21.0485 47.1954 20.7485 47.4354C20.4785 47.6554 20.4085 48.4954 20.6985 48.5654C21.4485 48.3754 22.0685 48.1454 22.3685 48.3954C22.6985 48.6654 22.7385 49.5954 22.5085 49.9654C22.0485 50.7354 21.4485 51.2954 20.6285 51.2754C16.2785 51.2154 17.0885 50.6854 14.1685 53.2354C12.6785 54.5254 11.2185 57.5354 10.8685 59.6654L10.0585 64.7354C9.99852 65.1254 9.52852 65.9354 9.52852 66.1954L10.2185 65.4954C9.97853 67.1254 9.87852 68.8154 9.49852 70.3654C9.06852 71.9654 6.27853 70.8054 5.36853 70.1154C1.97853 67.5554 3.44853 67.4554 1.87853 66.3854C1.70853 66.2654 1.43852 67.1254 1.56852 67.3054L3.92852 70.7854L6.44853 71.6654C7.14853 71.9054 8.23853 71.7854 9.47853 71.8654L9.58853 77.0554C9.58853 76.7354 10.1485 83.4654 10.0785 83.1154C11.4385 90.2954 11.0785 87.6254 13.2885 92.1254C13.5185 92.5954 14.1285 93.4754 14.4685 93.8654L16.8085 96.5154C20.0685 100.215 19.5485 99.6254 23.9185 102.325C26.7485 103.615 30.7685 104.505 33.4385 104.945C33.6685 104.985 33.9785 105.675 34.1285 105.615C34.3085 105.535 34.6785 105.335 34.8985 105.355L38.4685 105.795C40.5785 106.055 42.8585 107.205 42.7285 109.715C42.6985 110.415 41.3785 111.435 42.1885 112.385C42.8085 113.115 44.1585 112.545 45.0485 112.295C49.6485 110.995 47.5285 107.555 49.4785 107.385C55.1485 106.895 55.6385 105.895 60.3785 107.235C63.3585 108.075 65.5385 109.025 68.1585 110.885L69.1885 111.615C69.4085 111.775 69.0285 112.495 68.8885 112.485C68.3585 112.205 67.7285 111.855 67.3685 111.835C65.7585 111.715 64.5585 111.085 63.0885 110.625L58.3185 109.125C57.0885 108.735 55.4885 108.905 54.1185 108.825C53.1885 108.765 51.9985 108.485 51.1885 108.905C50.4685 109.275 50.6785 110.865 50.2985 111.405C48.4085 114.035 47.2485 114.525 44.4285 115.555L38.3185 113.605L39.5985 110.375C39.3585 109.895 38.6385 108.705 38.0785 108.525C32.0885 106.635 36.3585 108.675 31.5885 107.605L27.7485 106.745C26.8185 106.535 25.7485 105.995 24.7585 105.915C22.9685 105.775 21.4585 105.205 19.8785 104.605C15.8685 103.085 14.9885 102.075 12.6385 100.145L9.89853 97.8954C9.17853 95.1254 8.11853 95.9954 7.54853 92.4954L8.52852 92.8854C7.12852 91.4954 6.63853 90.0654 6.47853 88.1254L6.09852 83.5454L5.88852 80.4754L5.60852 76.1854C5.57852 75.6654 5.48853 74.6954 5.19853 74.4054C4.40853 73.6354 1.60852 74.1954 0.778523 69.4554L0.0685239 65.3654C-0.0814761 64.4954 0.0485236 63.6554 0.138524 62.8054C0.358524 60.5454 0.158525 58.2154 0.788525 55.9454C1.20853 54.4554 0.648526 52.2954 1.64853 50.9154C2.13853 50.2454 2.36853 49.9654 2.32853 49.3054C2.18853 47.0554 3.96852 44.8554 6.31852 44.4654C7.11852 44.3254 8.15852 44.7754 8.80852 45.3954L6.51853 47.5154C4.35853 49.5154 5.34852 53.3154 3.84852 54.8254C3.78852 58.2654 2.87853 63.9154 5.53853 66.5354C6.74853 66.9754 7.55852 65.1854 7.42852 64.0454C7.25852 62.4854 7.70853 61.0054 7.86853 59.5854C8.79853 51.3654 8.35853 51.7854 13.7885 45.8054L14.6685 46.1254C15.4885 45.5354 16.7585 44.7354 17.8085 44.6754L22.4485 44.4254C23.1885 44.3854 23.8985 44.4554 24.6985 44.3654C26.7285 44.1454 28.8685 44.5154 30.9585 44.7054L37.0385 45.2554C39.3985 45.4654 42.3785 45.4454 44.4885 46.5354C46.9485 47.8054 48.9385 48.2454 51.6885 46.8354C51.9485 46.1654 52.3785 45.0654 52.6885 44.0654C53.3885 41.7854 52.1785 39.3254 49.9085 38.7454C49.1585 39.1954 48.4585 40.2854 47.9085 40.8854C45.8085 42.1954 42.6985 42.4054 40.5585 40.9954C39.3985 40.2354 38.8685 38.5154 38.2185 37.2554L33.4585 36.8554C32.5585 36.7854 31.1085 36.9654 30.2885 37.2554C29.7285 38.4654 29.0685 39.2854 28.1485 39.9754C27.7285 38.9154 27.6385 39.4554 27.5485 40.3254C24.6585 41.6054 20.4185 41.0954 18.4085 38.1154C17.8085 37.2254 18.0185 35.6454 15.9685 35.5654C14.4885 35.5054 8.16853 34.7554 6.71853 33.6554C6.54853 33.3154 7.37853 32.6954 7.75853 32.7054L18.8285 33.0654C18.8785 31.3454 20.1485 29.7454 21.5285 28.6354C22.9085 27.5254 24.2385 27.4354 25.8985 28.0254C27.5585 28.6154 29.5085 29.5954 30.1385 31.4554L30.8985 33.6654C31.8785 33.5554 32.6885 33.4754 33.4985 33.5854L36.7785 34.0454C37.8485 34.1954 38.6085 33.7154 39.0685 32.7254C40.2985 30.0554 44.1285 28.2954 46.4785 30.1754L46.4585 30.1954ZM30.2985 49.2354C29.9485 49.7654 30.0785 51.3054 30.2885 51.9454C31.2585 53.0554 32.9685 53.4154 34.3585 53.8654C35.6185 54.2754 36.1785 56.1554 36.9985 56.8854L39.2885 58.9454L41.3185 59.3154C42.6185 59.5554 43.3985 59.0154 44.4085 58.2854C45.3385 57.6154 46.4485 58.9854 47.1785 59.3054C50.1885 60.6054 53.6085 61.9654 54.7485 64.8754L53.9085 64.3554C53.8285 64.3054 53.9085 64.8254 53.9885 64.8654C54.6185 65.1554 55.3885 66.2154 55.6285 67.1354C57.4485 67.6054 55.0285 62.7154 54.6785 62.2154C52.0985 58.5754 46.1785 58.5454 45.6285 56.6654C45.5085 56.2754 46.2085 54.0254 45.6785 51.8054C45.2885 50.1754 43.2885 48.8354 41.7085 48.8554L39.0985 48.8854L36.5785 50.3654C36.0785 52.0754 34.9285 52.4154 33.3685 52.2454C32.1585 52.1154 31.0085 51.3054 31.2385 50.0854C31.3185 49.6554 32.2485 49.0554 32.5885 49.2354L33.7785 49.8954C34.0285 49.9754 34.3185 49.0154 34.0985 48.7754C33.8785 48.5354 33.2685 48.1854 32.7785 48.0254C32.1785 47.8254 30.7785 48.5254 30.3085 49.2354H30.2985ZM40.1985 38.3254C42.2485 40.0154 45.4285 40.1154 46.7985 38.2754C48.1685 36.4354 47.2585 33.4254 46.3385 32.5854C45.7885 32.0754 44.5785 31.8054 43.7285 31.7854C41.9885 31.7354 41.0485 33.0954 39.9185 34.3954L40.1985 38.3354V38.3254ZM20.6985 33.3154C19.8585 35.4754 21.0185 37.9254 23.1485 38.3354C25.4885 38.7754 27.0485 37.4654 27.5585 35.1554C27.7285 34.3954 27.7685 33.7154 27.6485 32.8754C27.4085 31.1654 26.3385 30.3754 24.4885 30.3654C22.6385 30.3554 21.3585 31.6454 20.7085 33.3154H20.6985Z" fill="black"/>
<path d="M59.0186 78.6054L59.4486 78.9854C59.5586 79.0754 59.3386 79.2754 59.1286 79.4754L56.1086 81.9254C54.6186 83.1354 51.7886 83.4354 50.0386 83.1754L48.1886 83.7954C46.4586 84.3754 41.0086 82.9054 39.1386 82.2754C38.1086 81.9254 37.3986 81.3854 36.6186 80.8354C35.5586 80.0854 34.4986 79.3154 33.9786 77.9754C33.4286 76.5354 32.1786 73.6854 34.1286 73.3854L33.3986 71.7354C33.1586 71.1954 32.5886 70.3954 32.2186 69.7754L29.7586 71.4454L27.9886 72.6454C27.8386 72.7454 27.4686 73.1354 27.3886 73.2654C27.2886 73.4254 27.5786 73.5654 27.7986 73.7654C26.7286 76.2554 26.8386 79.4254 27.5886 81.8754C27.6386 82.0554 28.0586 82.4654 27.9986 82.5854L27.6986 83.1554L28.8586 84.4354C28.8586 84.4354 29.1586 84.2454 29.2686 84.3154L29.9686 84.7454L33.7286 87.1254C35.2086 88.0654 39.1386 89.2254 41.2486 89.6654C47.4386 90.9554 44.8586 87.9154 49.3686 86.7254C51.7686 86.0954 53.9286 87.4154 55.0686 89.5254C55.8086 90.9054 56.9886 90.9754 58.3386 90.6954C60.0886 90.3254 61.7486 90.2954 63.4686 90.1454C63.9486 90.1054 64.7786 89.8454 65.4886 89.7454C66.2986 89.6254 67.2886 88.9454 67.9986 88.4754L69.2786 89.0754L68.4186 87.8654C68.2086 87.5754 68.8386 86.7054 68.8486 86.3354L68.9286 82.7854L66.4086 81.3854C66.2886 81.3154 65.9586 80.9054 65.8886 80.7954C65.7886 80.6554 66.1886 80.4654 66.5486 80.1854C65.3686 79.6254 64.9786 78.2154 65.4986 76.8654L66.4586 74.4054C67.1286 72.6854 69.1886 71.5454 70.6186 70.6854L70.8786 66.4854L71.0986 63.0854L71.7386 49.9654C71.8186 48.2754 72.7186 45.5454 71.3886 45.4754C68.9986 45.3454 65.2986 42.7154 66.6686 40.4754C65.7186 38.4754 67.4386 35.4054 68.1086 33.8554C69.0086 31.7754 68.1086 29.0854 67.9986 26.8454C67.9186 25.1654 67.9986 23.4854 67.5386 21.9854L66.7086 19.2754L65.7986 16.2954L66.2786 16.2554C66.3586 16.2554 66.4686 16.1554 66.5486 16.1254C66.6686 16.0754 65.9186 15.8454 65.8386 15.7454L63.4586 12.8754C63.0986 12.4454 62.4286 11.5154 62.0086 11.2354C56.8886 7.75538 56.4086 9.68539 54.0586 8.63539C52.9386 8.13539 52.1186 8.69539 51.3586 9.42539L50.0986 10.6454C48.3086 12.3654 44.6986 12.5354 42.1986 10.6754C40.9286 9.73539 40.0786 8.77539 40.0186 6.89539C39.1886 6.42539 38.0086 6.78538 37.0086 6.87538C31.1286 7.42538 29.9286 5.78539 29.2186 8.25539C28.5086 10.7254 26.3486 12.1754 24.0586 11.8554C23.5186 11.7754 22.7886 11.7354 22.2286 11.6854L20.1786 10.3154C19.3286 9.74539 19.0386 8.08538 18.7186 6.94538C16.2786 7.48538 13.8086 7.50539 11.3286 6.99539C9.24862 6.57539 6.75862 6.71538 5.33862 4.37538C9.57862 4.55538 13.7086 4.68538 17.6986 4.48538C18.3286 3.32538 18.9086 2.48538 19.7386 1.69538C22.2686 -0.684617 26.0186 -0.574616 28.1886 2.12538C28.7886 2.87538 29.2686 3.53539 29.8786 4.53539L39.5586 4.46539C41.3086 -0.144613 43.0286 1.21538 42.9986 1.23538L43.9186 0.765383C46.8086 -0.704617 50.8686 2.09538 52.1286 5.55538C53.5186 5.69538 54.8486 5.59539 56.1486 5.83539C60.8886 6.71539 67.2986 9.83538 67.8786 14.8054C67.9786 15.6254 67.8886 15.8754 68.4586 16.4654C69.2386 17.2754 69.2186 18.8154 69.0686 19.7254C69.7586 20.4254 70.3986 24.7654 70.5586 25.8754L71.2386 30.8554C71.2986 31.3054 71.2286 31.8654 71.0886 32.2654C71.4686 33.2354 72.5886 34.0254 73.7186 34.3354C74.1286 34.4454 74.5486 35.2754 74.9386 35.5554C76.7486 36.8654 77.7086 39.1654 76.9186 41.6354C76.3786 43.3154 75.6486 45.0654 73.5586 45.4754C73.9886 47.1954 73.7786 48.5954 73.7086 50.2854L73.4786 56.0054C73.2986 60.3754 73.2186 64.7654 72.6686 69.0854C72.6286 69.3754 72.0186 69.9354 72.1286 70.1854C72.9186 71.8854 75.9086 71.9754 76.7186 74.4854C77.3086 76.3154 77.2086 78.1554 76.1086 79.6354L74.5386 81.7454C73.8386 82.6854 72.3486 83.0054 71.0386 83.2654C72.3386 88.0054 69.0886 91.9154 64.8086 92.7954C59.0386 93.9754 60.5586 92.5254 55.4986 93.3354C54.9786 96.1554 54.1386 97.7954 51.4786 98.4454C49.7386 98.8754 47.2886 97.7754 46.2586 96.2854C45.6086 95.3554 45.0986 93.5954 44.0786 93.2754L38.3986 92.0954C36.6286 91.7254 32.3986 90.4954 31.7486 88.8954L31.1486 89.0954C30.9886 89.1454 30.6086 88.4654 30.3786 88.3754C26.1886 86.7854 23.3086 80.2454 23.2786 75.8854C23.2586 73.4654 24.5086 71.2254 26.1086 69.2454C28.1986 66.6554 40.7286 65.6454 44.5286 70.8754C44.7086 71.1254 45.0386 71.7754 44.9486 72.0554C44.7786 72.5854 42.2986 74.2954 40.9186 73.5554C40.5086 73.3354 40.5186 72.2454 40.4486 71.8354C40.3186 71.1454 38.7786 70.4954 37.9286 70.7454C37.2886 70.9354 36.1186 72.1554 36.1486 72.8554C36.2086 74.1354 36.4586 75.9254 37.1686 76.9354C37.8286 77.8854 38.8886 79.0854 39.8686 79.6454C41.0986 80.3554 42.8986 81.0254 44.2386 81.1454L48.8186 81.5454C49.4486 81.5954 50.9186 81.3054 51.5486 81.1254L55.6286 79.9654C55.8886 79.8954 56.0986 79.6654 56.4186 79.3854C58.4986 77.6254 60.1986 74.7454 60.2986 72.1054C60.4386 71.9354 60.8386 71.4954 60.9686 71.3554C61.1286 71.1754 60.5486 70.5154 60.5686 70.2454L60.8586 66.3354L61.0686 56.9954L60.8586 48.5254L60.6786 40.5654C60.6786 40.4054 61.1286 39.9154 61.0186 39.8254C59.7186 38.8154 60.2786 37.6654 59.9386 35.8254L59.1086 31.3954C58.9286 30.4354 58.7786 29.0454 58.3886 28.2254L57.1186 25.5654C56.8786 25.0654 55.9886 24.2054 55.5286 23.7554C54.8686 23.1254 52.6486 23.1054 51.9186 23.6754C49.3586 26.7454 45.7986 29.4054 42.0786 26.4254C39.6386 24.4654 39.6786 23.5354 39.0486 20.8154C35.9086 20.3854 36.6786 21.6554 33.8586 21.0954C29.1486 20.1454 31.2686 23.8654 26.2286 26.1054C23.5986 27.2754 20.6386 24.8454 20.6186 24.8254L18.6886 22.0254C14.7386 22.4554 14.5386 22.5254 11.0486 22.1154C9.60862 21.9454 8.32862 22.0354 6.94862 21.3454C11.1186 19.2754 14.4786 19.8954 18.8186 18.7554C20.1286 16.0754 22.3086 14.7254 25.0386 14.2654C26.8386 13.9554 28.0386 14.9754 29.4186 16.0454C31.7986 17.8854 30.0686 18.3054 31.0586 19.1154C31.6686 19.6154 33.9486 19.0754 34.6886 19.0154C36.2286 18.8954 38.6786 19.7354 39.8686 18.2254C40.3686 17.5954 40.8786 16.6854 41.5386 16.2054C44.7486 13.8754 48.7386 15.3054 50.2986 17.7654L51.7286 20.0354L55.0586 20.8954C56.0586 21.8354 57.3686 23.1154 58.2386 24.0854L60.6686 31.5954C61.7186 34.8454 62.3486 38.2454 61.9286 41.7754C61.9086 41.9154 62.1086 42.3754 61.9986 42.4554L61.1286 43.0654L62.6386 43.3954L63.1786 51.8254C63.3086 53.8854 63.3586 55.8354 63.3586 57.8954V62.1754C63.3586 63.8954 63.4386 65.5154 63.2086 67.1554L62.4986 72.2854L61.6386 72.2054C61.4986 72.1954 61.2586 72.6454 61.3386 72.7654C61.4186 72.8854 62.0086 73.2654 62.0186 73.4054C62.0986 74.5054 60.8486 78.5454 58.9686 78.6054H59.0186ZM67.5886 40.7854C67.5486 41.4554 68.4886 42.7054 68.8286 43.2154L72.9686 43.3354L75.2786 41.4054C74.1786 40.7154 76.7686 38.2754 73.4186 35.5654C70.5986 33.2854 69.2786 36.2554 67.8586 35.8054L67.5886 40.7854ZM68.1786 74.2754C68.2186 76.0454 67.2886 77.8754 68.0686 79.4154C68.8486 80.9554 70.8786 81.3054 72.5486 80.5154C74.3386 79.6654 75.2486 76.3054 73.7986 74.5954C72.9686 73.6154 70.9886 73.0354 69.9686 73.0954L68.1786 74.2754ZM47.1686 93.1554C47.9186 95.1854 49.7886 96.2254 51.4586 95.4754C51.7586 95.3354 52.1586 95.1354 52.3186 95.2454L52.8186 95.5954C53.8786 93.4854 54.1586 90.7054 52.6386 88.7154C51.4686 88.1654 49.0686 88.3254 48.1286 89.3754C47.3386 90.2554 46.8286 92.2254 47.1786 93.1654L47.1686 93.1554ZM43.1786 24.5554C44.4886 25.6354 47.0886 25.6354 48.0386 24.7254C48.7286 24.0654 49.2886 23.3254 49.8686 22.6554C49.3286 21.5354 49.4786 20.7654 50.6086 20.1154L49.4886 19.9654C48.9086 19.8854 49.2486 17.9454 48.4586 17.7954C47.4886 17.6154 45.6886 17.0954 44.7186 17.4454C41.9286 18.4654 40.8986 22.6954 43.1686 24.5654L43.1786 24.5554ZM42.6886 5.39539C41.8186 7.20539 43.3386 9.49539 44.9286 9.99539C46.9786 10.6454 49.2186 9.38538 49.5386 7.37538C49.7186 6.25538 49.6786 5.14539 49.1686 4.49539C48.5186 3.67539 47.6186 3.30538 46.5786 3.19538C44.8586 3.01538 43.5386 3.63539 42.6886 5.39539ZM21.2786 20.8754L22.0886 22.9354L21.5086 23.1554C21.4286 23.1854 21.5086 23.5754 21.5886 23.5954L22.1486 23.7054C23.3986 23.9454 24.8186 24.2354 25.8986 23.9654C28.9586 23.1954 27.4186 21.5454 29.2286 20.0154C28.7386 19.2654 28.2686 18.4554 27.9086 17.6954C26.6986 15.1654 26.0986 17.0354 24.1086 15.4454L23.8586 15.9454C23.8186 16.0254 23.7486 16.0454 23.6886 15.9754L23.3386 15.6054L22.0686 17.8054C21.6086 18.5954 21.5286 19.8254 21.2886 20.8754H21.2786ZM21.1586 6.69538C21.1586 8.35538 21.7886 9.93538 23.6086 10.0954C25.1286 10.2354 26.2186 9.84539 27.2386 8.68539C28.0786 7.72539 28.4486 6.33539 28.0086 4.89539C27.7486 4.04539 26.6586 3.02539 25.6086 2.67539C24.2486 2.22539 23.4686 2.65539 22.5286 3.45539C21.4286 4.38539 21.1586 5.24538 21.1586 6.69538Z" fill="black"/>
<path d="M11.9784 87.1854C10.4284 84.0454 10.1084 74.6954 10.5184 70.9554L10.8884 67.5654C11.4284 62.6654 10.5284 61.3954 13.1784 56.6454C14.1084 54.9954 14.9784 53.7754 16.7684 52.8454C17.2384 52.6054 18.1084 52.1254 18.5784 52.1154C19.0484 52.1054 20.0284 52.8654 20.1084 53.0754C19.0184 53.4954 18.2284 53.7754 17.5984 54.1854C17.0984 54.5154 17.3784 55.9554 17.2784 56.5454L14.4084 60.8754C12.1384 64.2954 13.3884 66.2754 12.5984 68.4454L13.2184 69.0754C13.3584 69.2154 12.5584 69.5954 12.5484 69.5854C14.2184 73.0354 12.8584 76.5654 14.7684 80.1754C15.9884 79.2754 14.8184 78.3154 14.7184 77.4254L14.0184 71.3654C13.9484 70.7154 13.8784 69.1954 14.4984 68.9354C15.1184 68.6754 16.3084 69.2754 16.5484 69.7854C16.8784 70.4654 16.8184 71.5454 16.7584 72.3854C16.6284 74.2054 16.9084 75.9154 17.1084 77.6754C17.6684 77.3854 18.0384 76.9654 17.9884 76.6554C17.6284 74.4654 17.5384 72.7454 17.6084 70.6054C17.6384 69.8054 17.2284 68.2054 16.4884 68.0054L14.1284 67.3754C12.8184 64.5754 15.6384 60.3754 17.7984 58.4554C19.1984 60.7654 18.2484 62.3154 20.5184 63.8054C20.8384 64.0154 21.3584 64.7354 21.2984 65.0854C21.2384 65.4354 20.8584 65.8954 20.4384 66.3354C19.1784 67.6654 20.0884 68.3154 18.7584 69.6954L18.8684 74.4254C18.9084 76.1254 19.2584 78.2054 19.9684 79.8354L21.2884 82.8654C21.6284 83.6354 21.9584 85.0754 22.4184 85.6754L26.1684 90.5254C27.1984 91.8554 31.1084 93.5354 33.2284 95.3454L35.6884 96.4454C39.7184 98.2454 34.5884 96.8754 41.9584 99.0554C42.6084 99.2454 43.5184 99.7354 44.0884 99.8354L50.1884 100.955C51.8184 101.255 53.9584 99.9454 55.6384 100.965L58.5484 99.7554C58.6684 99.7054 59.1084 100.395 59.1484 100.265C59.1884 100.135 59.4984 99.6054 59.6184 99.5554L63.8384 97.7554C66.0984 96.7954 67.7384 94.9054 70.2085 93.6954C73.0485 100.275 66.7884 100.765 69.6284 103.065C70.7785 103.995 72.5785 106.975 73.0385 108.255C72.5785 108.455 72.3184 108.555 72.4984 108.485C73.3884 109.245 73.6984 109.725 73.8084 110.725L74.3384 115.145C74.3584 115.355 74.1484 115.975 74.0584 116.125C73.9684 116.275 73.4685 115.925 73.3185 115.805L69.3984 112.695L71.3984 111.885C68.8584 108.935 69.1284 106.465 66.9484 104.065C66.2884 103.515 65.2784 102.895 65.2484 102.305L66.9884 99.7654L67.6684 98.8554C67.8384 98.6254 67.5384 97.7754 67.2484 97.7954C65.0284 97.9754 62.6485 101.135 58.5385 101.535C58.2385 101.925 57.6784 102.535 57.3684 102.445L55.9084 102.045L55.0685 102.925C54.8785 103.125 54.0984 102.635 53.8084 102.665C48.0584 103.395 50.0784 102.495 47.4684 102.515C44.3084 102.545 39.0084 100.695 35.9584 99.2054C35.4784 98.9654 34.9884 98.5654 34.5184 98.4454C32.0484 97.8154 30.1484 96.2554 28.3084 94.6454L24.4284 91.2554C23.3284 90.2854 22.5884 88.9454 23.4384 87.4354L22.5284 87.3954C22.1484 87.3754 21.9284 85.0054 19.6984 84.4754C18.7584 84.2554 17.4384 84.7154 16.9684 85.6754C16.1584 87.3354 17.0384 89.7354 18.7284 90.5054C19.3984 90.2954 19.0084 87.3854 17.5584 86.9854C17.6484 86.6754 18.1284 85.9654 18.4484 85.7054C20.2184 84.2954 22.0784 89.4954 22.6084 90.3154C23.4184 91.5754 24.1384 92.6354 24.8484 93.8854C24.8684 93.7354 24.9584 93.1354 24.9584 93.1554C28.0084 96.1554 30.2684 97.9954 34.0984 99.5954C36.2484 100.495 38.2984 101.825 40.5884 102.415C43.0284 103.045 46.0084 103.485 48.4484 103.885C49.4784 104.055 55.3884 103.805 57.0484 103.665C58.9984 103.495 63.8685 100.915 63.4884 101.685L63.1184 102.435L65.9984 105.115C66.8784 105.935 67.5384 106.885 67.3784 107.965L68.1684 108.155C68.3584 108.195 68.0284 109.005 67.7684 108.885C62.5984 106.535 60.5284 105.435 54.4484 105.665C52.7584 105.735 50.7384 106.475 49.1284 105.855C48.7284 105.725 47.8184 105.945 47.3284 106.045C47.4484 107.405 47.4284 108.325 46.8984 109.345C46.3684 110.365 45.3184 110.795 43.9984 110.985C44.3984 108.855 43.5784 107.085 42.1384 105.905C38.9184 103.275 37.2984 105.165 31.0384 103.255C29.7484 102.865 28.2084 102.835 27.0284 102.335L24.1784 101.115C22.4884 100.385 19.6884 98.1154 18.2384 96.7054C16.1484 94.6654 14.4084 92.1354 13.1284 89.5554L11.9484 87.1654L11.9784 87.1854Z" fill="black"/>
<path d="M18.4885 55.3554C18.6585 54.9354 19.9085 54.7354 20.3685 54.5154C20.7585 54.3254 20.5385 53.4354 20.4985 52.3554C21.2785 52.5454 22.2285 53.2854 22.6085 53.9754C23.0585 54.8054 23.1585 55.9954 22.4685 56.8054C21.9685 57.3954 20.5885 57.6354 19.7485 57.4754C19.1285 57.3554 18.1885 56.0554 18.4885 55.3454V55.3554Z" fill="black"/>
<path d="M38.0084 56.2854C36.9384 55.6254 36.5584 54.0354 36.7384 52.6954C36.8184 52.0854 37.7184 51.6254 38.2484 51.5454L38.4784 50.9254C38.2684 51.4754 40.7284 48.4654 43.0584 50.6754C43.5584 51.1454 44.9684 51.8354 44.7884 54.2354C44.7484 54.7554 43.9584 55.3854 43.3884 55.7554L44.2584 56.4554C43.7784 57.0654 42.8384 58.0154 42.2084 58.0054L40.7284 57.9854L37.9884 56.2954L38.0084 56.2854ZM38.4684 54.5254C38.3084 55.3354 39.3884 56.2454 39.9784 56.2254L40.2684 57.3654L40.4684 56.4854C40.4984 56.3554 41.0684 56.2854 41.2484 56.2654C42.7784 56.0254 43.2984 54.3354 42.8384 53.0154L42.2684 51.3754C42.1084 51.6054 41.9384 51.9754 41.7684 51.9354L41.0584 51.7954L39.0684 51.5454L38.4784 54.5154L38.4684 54.5254Z" fill="black"/>
<path d="M41.2584 36.9354C41.2084 36.4154 41.3484 35.3054 41.4784 34.7954C41.7584 33.6954 43.2184 32.7654 44.3784 33.1854C45.4684 33.5854 46.6484 34.2954 46.4384 35.8954C46.2784 37.0854 45.7284 37.7854 44.2884 38.3954C43.3684 38.7854 41.4184 38.3954 41.2684 36.9354H41.2584Z" fill="black"/>
<path d="M25.6785 36.4754C24.5785 37.6454 22.7385 37.3254 21.9385 36.2954C20.9485 35.0154 21.3385 33.4754 22.4885 32.4054C23.4385 31.5254 24.6885 31.0054 25.8085 31.7654C26.7385 32.3954 27.1285 33.7254 26.6585 34.9954C26.4685 35.5054 26.0985 36.0154 25.6685 36.4654L25.6785 36.4754Z" fill="black"/>
<path d="M69.1985 38.4354C68.4185 37.0354 70.4485 35.8454 71.2985 36.0754C71.4385 36.1154 71.7985 36.5954 71.9085 36.6854C72.0485 36.8154 72.3285 36.6654 72.6685 36.5454C74.1985 37.6154 74.6085 40.3054 72.8885 41.7054C72.1985 42.2654 70.3485 42.3154 69.6785 41.8554C68.4685 41.0354 68.2885 39.3554 69.1985 38.4354Z" fill="black"/>
<path d="M43.0086 20.8454L44.1386 19.2254C44.7286 18.3754 46.0986 18.2354 47.1186 18.6254C47.9886 18.9654 48.5886 19.8854 48.6186 21.1554C48.6686 22.7854 47.0486 24.4354 45.2686 24.3054C43.7086 24.1854 42.5786 22.3154 43.0086 20.8454Z" fill="black"/>
<path d="M22.9986 18.6754C23.2286 18.2654 23.5186 17.2854 24.0286 17.1454C25.5286 16.7254 26.6186 17.5954 27.2886 18.9854C27.7386 19.9054 27.6786 20.9754 26.9386 22.0154C26.4786 22.6554 25.2286 23.1754 24.1686 23.0254C23.3586 22.9154 22.4886 22.1654 22.2586 21.5554C21.8586 20.4954 22.3986 19.7154 22.9986 18.6754Z" fill="black"/>
<path d="M68.7985 77.6454C68.1885 76.2754 69.7185 74.3754 71.1085 74.4554C72.6385 74.5454 73.5985 76.3054 73.2585 77.4854C72.8585 78.8554 71.5985 79.9554 69.9985 79.5454C69.6285 79.0554 69.0785 78.2554 68.8085 77.6454H68.7985Z" fill="black"/>
<path d="M50.2786 94.5554C48.7786 93.7454 47.8286 92.1054 48.6986 90.5954C49.2186 89.6854 51.2186 89.3054 52.0186 90.1954C52.5786 90.8254 52.8586 92.3654 52.5486 93.2154C52.3186 93.8454 51.0786 94.2954 50.2786 94.5554Z" fill="black"/>
<path d="M43.7886 5.7754C44.5586 4.6154 45.0486 4.22541 46.2586 4.31541C47.5986 4.40541 49.0386 5.33541 48.6186 6.97541C48.4086 7.79541 47.5386 8.6954 46.8886 8.8454C45.9086 9.0754 44.6986 8.71541 44.0186 8.00541C43.3386 7.29541 43.2986 6.54541 43.7886 5.78541V5.7754Z" fill="black"/>
<path d="M23.3585 4.40538C23.4385 4.36538 24.0985 4.47538 24.0985 4.56538C24.0985 4.69538 24.0986 3.92538 24.0886 3.79538C24.8386 3.29538 26.2985 3.94538 26.8585 4.83538C27.5085 5.85538 27.3785 7.11538 26.4185 7.97538C25.4585 8.83538 23.9585 9.49538 22.8085 8.66538C21.2585 7.54538 22.2585 4.95538 23.3585 4.40538Z" fill="black"/>
<path d="M40.4985 55.0754C41.0784 55.0754 41.5485 54.6053 41.5485 54.0254C41.5485 53.4455 41.0784 52.9754 40.4985 52.9754C39.9186 52.9754 39.4485 53.4455 39.4485 54.0254C39.4485 54.6053 39.9186 55.0754 40.4985 55.0754Z" fill="black"/>
</svg>
