<svg width="88" height="88" viewBox="0 0 88 88" fill="none" xmlns="http://www.w3.org/2000/svg">
<path d="M49.8499 76.72C48.6199 76.8 47.4299 76.9601 46.3299 77.1701C45.1499 78.1501 45.4999 80.21 46.0399 80.96C46.3999 81.45 46.8599 81.7901 47.2199 82.3801C45.7299 83.3001 41.7899 82.7001 40.9399 81.4201L40.2799 80.4301C39.4199 79.1301 40.4199 77.3101 39.9199 76.5001C38.0499 76.2601 35.8699 75.3501 34.5499 74.1201C33.2999 72.9601 32.6799 72.2501 32.2799 70.3901C31.8799 68.5301 32.1999 66.8601 32.5599 65.0801C32.6499 64.6401 32.6999 64.3201 32.9499 63.9501L34.6199 65.2001C36.1199 66.3201 38.7299 66.3801 40.4399 68.73C41.3799 70.0201 41.6499 72.11 43.0399 71.79C41.6199 68.26 42.3799 67.24 42.4799 63.84L40.7099 63.4501C36.4199 62.5001 33.4299 60.21 30.5999 56.96C29.7999 56.03 29.1599 55.0901 28.5699 53.9901C28.4199 53.7201 27.9799 53.32 27.8199 52.98C26.9699 51.2001 26.2699 49.4601 25.5799 47.6301C24.5499 44.8701 24.3399 42.13 24.4199 39.23C24.4799 37.22 24.7199 35.3201 25.3399 33.3901L25.9699 31.46C26.1399 30.95 26.4899 30.4 26.5899 30.02C27.1199 27.99 29.3399 24.9101 30.7899 23.1901C32.3799 21.2901 34.3299 19.9001 36.3399 18.4201L38.2399 17.0101C38.3499 16.9301 38.8099 16.92 38.8799 17.03C39.1699 17.55 35.1799 20.3701 34.3799 25.6301C34.0099 28.0501 34.5099 31.25 35.9999 33.23C37.9899 35.88 39.5399 37.2601 42.7699 38.1801C44.9799 38.8101 47.1899 38.3301 49.2099 37.4401C51.1099 36.6001 52.5399 35.4301 53.6299 33.5601C54.1599 32.6601 54.4399 30.9101 54.5099 29.8301C54.5399 29.3301 53.3299 25.9801 52.0899 25.0801C50.1899 23.7001 48.1199 23.2601 45.7899 23.7601C44.7299 23.9901 43.4499 24.3401 42.4899 24.8301C42.3199 24.9201 41.8499 24.73 41.8599 24.59C41.8699 24.45 41.9899 24.2301 42.1099 24.1101L42.8299 23.4401C43.1599 23.1301 43.5399 22.87 43.9199 22.6C47.4499 20.06 52.2099 19.4301 56.1999 21.3801C58.6799 22.5901 59.7799 23.9401 61.1299 26.3001C61.8199 26.2501 62.6999 26.1201 63.4399 25.9801C62.8599 23.2301 61.0399 21.2501 58.8099 19.8001C56.8799 18.5501 54.9299 17.9201 52.5699 18.0501L51.0599 18.1301C48.9199 18.2501 47.3099 18.6001 45.3899 19.5601C44.1299 20.1901 42.9799 20.8501 42.0099 21.8601C40.2699 23.6701 39.4699 26.17 40.5899 28.59C40.8899 29.23 41.7599 30 42.3499 30.41C42.5799 30.57 43.2099 30.6601 43.4799 30.7501C45.8299 31.6101 47.8199 28.99 47.0899 28.66C46.4599 28.38 45.0099 29.1501 44.0999 28.2301C43.7899 27.9101 43.4799 27.6001 43.4299 27.3201C43.3499 26.8701 43.6099 26.41 43.8199 26.09C44.4299 25.19 45.2899 24.94 46.2799 24.77C47.4199 24.57 48.2299 24.85 49.1099 25.6C50.4199 26.71 51.0999 28.5601 50.4299 30.2501C49.3599 32.9301 46.6899 34.42 43.8199 34.41C42.1699 34.41 39.5699 33.3 38.4499 31.78C37.0499 29.9 36.3799 27.55 36.7599 25.21C36.8099 24.89 36.8899 24.57 36.9199 24.27C37.2099 21.68 39.2799 19.1201 41.3799 17.6401C42.4199 16.9101 43.4699 16.09 44.6699 15.66L45.5799 15.34C47.8099 14.55 50.1099 14.2701 52.4699 14.0801C53.7499 13.9801 55.0299 14.3601 56.2499 14.6301C58.8799 15.2101 62.4599 17.4001 64.1999 19.3801C66.3199 21.7901 66.6699 22.9 67.1099 26.16C67.2099 26.9 67.0599 27.92 67.2299 28.52L68.5999 30.28C68.6699 30.38 68.9399 30.53 69.0299 30.46L69.4299 30.1301C70.8399 28.9901 72.4599 27.13 72.5299 25.29C72.5599 24.25 72.5999 23.1901 72.5299 22.1301C72.4499 20.9101 72.1699 19.73 72.2699 18.41C73.4299 18.61 73.8899 19.5601 74.5699 20.3001C74.9099 20.6701 75.3399 21.05 75.5799 21.53C76.7299 23.78 76.6899 24.33 76.6499 26.91L76.1299 27.9801C77.2899 28.8 78.4099 28.72 79.1499 30.22L79.9499 31.84C80.9499 33.87 81.6699 35.9401 81.9099 38.2001L82.3499 42.27L82.52 43.8201C82.7799 46.1801 82.5199 48.4201 82.1799 50.7401C81.3299 56.4301 77.9199 64.5401 74.3599 69.0101L73.1499 70.52C72.2199 71.68 71.2899 72.61 70.1399 73.46C69.5299 73.91 68.9699 74.5101 68.3399 74.9201C67.6099 75.4001 66.9599 75.86 66.2399 76.4C65.9299 76.3 65.6199 75.74 65.5299 75.35C64.9199 72.64 63.7899 70.29 62.1099 68.1C60.7399 66.32 58.8199 65.28 60.0899 64.73C62.5599 63.64 65.4499 61.4901 67.4099 59.6301C68.7399 58.3701 70.4899 56.04 71.2399 54.4C72.2699 52.15 73.5999 48.7501 74.0399 46.4401L74.9999 41.35C75.2199 40.17 75.4099 39.1301 75.2799 37.9201C75.0999 36.2301 75.1199 34.6101 74.2499 33.0001L71.4099 34.4301C70.9699 34.6501 70.4199 35.21 69.9999 35.54C70.0199 37.33 69.9699 39.0101 69.8999 40.8001L69.7799 44.0501C69.6499 47.6101 67.8299 51.5401 65.9599 54.5101C64.8299 56.3001 63.5499 57.73 61.7999 58.9L58.8399 60.8801C58.6599 61.0001 58.1999 61.0701 58.0299 61.1301C55.9999 62.2101 53.9899 62.8901 51.5499 63.2401C51.0399 63.3101 50.4299 63.54 49.8099 63.71C48.7499 64.01 47.9199 69.39 50.8499 70.41C51.7599 70.73 52.7599 70.5601 53.4699 69.8901L53.7299 68.7401L53.1499 67.8601C52.9599 67.5701 52.5899 67.4401 52.1799 67.4901L50.3299 67.7001C50.1299 67.7201 49.6999 67.45 49.6799 67.28C49.5299 66.12 55.3899 64.6901 57.2499 66.5601C58.4799 67.8001 58.5799 69.0401 59.3199 68.8301C60.0599 68.6201 60.8299 68.7401 61.4899 69.2601C62.8399 70.3101 63.1499 72.0601 63.1399 73.7401C63.1399 75.0901 63.1899 77.35 62.1699 78.29C60.9599 79.4 59.2299 79.9401 57.7599 80.4901C57.6599 80.5301 57.3799 80.4501 57.2999 80.4201C57.1899 80.3801 57.2999 80.03 57.3899 79.96L58.4399 79.0701C59.0799 77.8101 58.7199 76.21 58.4099 74.96L57.3699 75.0801C56.7299 75.1601 55.9099 75.2901 55.4099 75.7001L55.2899 79.1301C55.2699 79.7301 54.6599 80.4801 54.1699 80.9401C53.5299 81.5401 52.4499 81.8901 51.5899 81.9301L49.4099 82.04C49.7399 79.76 50.0999 81.28 50.2199 78.66C50.2499 78.04 50.2099 77.4001 49.8399 76.7601L49.8499 76.72ZM57.6199 30.1301C59.1099 29.5801 56.7799 24.8901 55.6699 24.4201L56.9199 26.66C57.4899 27.68 57.4199 28.9401 57.6199 30.1301ZM55.4199 38.02C54.7699 37.02 53.1299 37.4301 52.3799 38.4301C52.9599 38.2501 53.5599 37.9101 54.1499 37.9301C54.4799 37.9401 55.0999 38.47 55.2299 38.78C55.6299 39.69 55.3399 40.8401 54.6299 41.6201C53.6799 42.6401 52.2999 43.0801 50.9599 43.5501C50.1899 43.8201 49.2299 44.07 48.4399 43.6C48.0099 43.35 48.0599 42.4001 48.2699 42.0101C48.9999 40.6601 50.5499 41.48 50.6599 40.79L48.0699 41.1101L47.7199 42.0101C47.7199 42.8101 47.6799 43.7601 46.8999 44.1201C46.5199 44.3001 45.6299 44.4401 45.2999 44.2401C43.7999 43.3501 45.2599 41.5601 43.2699 40.9401L40.1399 39.98C40.4599 40.2701 40.8399 40.57 41.0699 40.72C42.1799 40.79 43.3299 41.2301 43.9199 42.2001C44.1299 42.5501 44.0299 43.4501 43.9199 43.8301C43.2399 44.3701 42.4799 44.0701 41.7799 43.6701C41.3699 43.4401 40.6699 43.33 40.3099 43.09C40.0599 42.77 39.7399 42.77 39.4799 42.6C38.3599 41.89 37.1499 41.11 36.3399 40.1L35.5499 39.1301C34.9599 38.4101 34.4399 37.6601 33.9399 36.8801L32.7099 34.9901C32.5499 34.7501 32.3399 34.18 32.2499 33.9L31.4199 31.15C31.2299 30.51 31.1099 29.9201 30.9399 29.1101C29.6699 31.1501 29.1199 33.3601 28.3399 35.5801C28.0999 36.2601 28.0699 37.1001 28.0099 37.8701L27.8899 39.4501C27.8499 39.9901 27.8599 40.67 27.8999 41.21L28.0399 42.8101C28.0899 43.3501 28.1499 43.9601 28.2399 44.5001C28.6499 46.9101 30.4599 50.6801 32.1099 52.6801L33.6099 54.4901C33.6099 54.4901 36.4999 57.3401 36.6499 56.7501C34.9399 55.3901 32.7599 53.3801 31.7399 51.7401C30.5499 49.8501 29.5499 47.9101 28.9699 45.7501C28.1599 42.7001 28.0499 42.0701 28.3999 38.9901L28.7799 35.6401C28.9199 34.4201 29.3899 33.2801 30.0199 32.2401C30.2899 31.8001 30.0199 30.9601 30.9199 30.6301C31.9399 34.0801 32.1299 34.4401 33.7999 37.4401C34.0499 37.9001 34.4299 38.3301 34.7599 38.7501C35.6599 39.8801 36.5699 41.0001 37.7699 41.8201C38.9699 42.6401 40.2499 43.4801 41.6699 44.0101C44.2799 44.9901 44.3099 44.73 47.0799 44.59C47.4799 44.57 47.9899 44.4 48.3999 44.34C49.8799 44.14 51.2499 43.9901 52.6399 43.3101C53.6299 42.8301 54.6899 42.0801 55.4199 41.1901C56.0899 40.3701 55.9799 38.88 55.3999 37.98L55.4199 38.02ZM75.6799 53.2501C76.0099 52.5901 76.4199 52.0001 76.5299 51.1301L75.5099 52.8701C73.9799 55.5001 71.5699 59.67 69.0699 61.48C68.3699 61.99 67.7099 62.6101 66.9799 63.0601C66.5799 63.3001 66.3999 63.4401 66.0499 63.7501C65.0799 64.6201 64.3399 64.51 63.8599 65.21C63.7999 65.3 64.1199 65.5101 64.1799 65.6201L66.8099 69.85C67.2299 70.53 67.5599 71.14 68.1599 71.72C70.3599 69.97 71.6299 68.0001 73.1399 65.8901L74.3099 64.2601L75.5399 61.98L76.6499 60.03C76.8399 59.69 77.0199 59.35 77.1599 58.97C78.1099 56.46 78.9599 53.9801 79.3399 51.3301L79.9199 47.2501C80.1999 45.2601 79.3799 37.08 78.5799 35.35C77.6999 33.44 78.4599 34.32 77.9299 33.21C77.4399 32.19 77.0599 31.09 76.1999 30.35C75.3399 29.61 74.1799 30.13 73.4899 30.78L74.7399 30.46C75.6299 30.24 76.0799 30.91 76.3099 31.54C77.2199 32.22 77.8799 34.92 78.2499 36.22C78.9699 38.78 79.3599 41.4801 78.7599 44.1201C78.4499 45.4801 77.9799 46.76 77.5899 48.09C77.2799 49.14 76.8099 50.03 76.5799 51.15C77.0699 50.32 77.3999 49.5 77.7799 48.6L78.8499 46.1L79.0199 44.9301C79.0399 44.7901 79.6499 44.83 79.6499 44.97V45.5501C79.6499 47.1801 79.4999 48.74 79.2399 50.34C79.1499 50.87 79.1199 51.4701 78.9999 52.0001C77.9199 56.8001 77.7399 56.6401 75.6899 60.8701C74.9499 62.4001 74.0299 63.7601 73.1199 65.1801C72.2099 66.6001 69.8899 70.4501 68.0199 70.2601C66.5299 68.7201 66.0899 67.5701 64.8699 65.6401C64.7399 65.4401 64.9199 64.9501 65.1299 64.8301C67.0499 63.7801 68.6499 62.5201 70.2799 61.0601C71.5599 59.9101 73.7799 57.0501 74.4799 55.6401L75.6599 53.2601L75.6799 53.2501ZM59.9599 36.2601C61.5199 37.1301 63.6199 36.5301 64.3799 34.9301C65.0099 33.6001 64.4199 32.2301 63.2899 31.3101C62.6699 30.8001 61.5899 30.6901 60.7199 30.7601C59.1299 31.3901 59.1599 31.45 58.2399 32.9C57.7899 34.35 58.6799 35.55 59.9599 36.27V36.2601ZM69.8599 33.15C70.9399 32.58 71.7599 32.0301 72.5799 31.3201C72.5399 30.9801 70.7999 32.4401 70.8299 32.0101L70.8099 32.3101C70.4399 32.5501 69.9799 32.71 69.8599 33.15ZM63.6499 40.73C64.3999 40.6 65.0899 40.0701 65.7699 39.8101L67.0399 39.3201C67.3799 39.1901 67.6799 39.1101 67.9399 38.8301L68.2699 38.46C68.3299 38.39 68.0099 38.19 67.8999 38.09C67.0199 38.81 65.9799 39.31 64.8099 39.65L63.2099 40.1201C62.3699 40.3701 61.0999 40.5601 60.2699 40.7401C60.1899 40.8201 60.2299 41.0901 60.3299 41.1201C60.3999 41.1401 60.7299 41.23 60.8299 41.21L63.6399 40.72L63.6499 40.73ZM35.0499 47.3701C34.1699 44.4301 33.3299 41.8501 32.2899 39.0501C32.2399 40.1701 32.6699 41.12 32.9999 42.15L34.1499 45.6901C34.3499 46.3001 34.6199 46.9801 35.0499 47.3801V47.3701ZM67.8999 42.28C68.1299 42.3 68.3399 42.3701 68.3399 42.2501V41.8101C68.2999 41.1001 66.0099 43.79 63.1799 43.6C62.3599 43.55 61.6699 43.57 60.8499 43.65C62.3699 44.58 66.7899 43.53 67.8999 42.28ZM34.0599 41.9501C34.2599 43.3701 34.7499 44.4701 35.1499 45.7001C35.4899 46.7401 35.6899 47.77 36.2999 48.71C36.1599 47.04 34.8399 42.8801 34.0599 41.9501ZM56.9399 42.71C57.1499 43.92 57.3699 44.9501 57.8299 46.1101C58.3899 45.8601 57.8699 42.47 56.9399 42.71ZM57.3399 46.8001L57.0999 45.3601C56.9499 44.4801 56.7399 43.5901 56.3399 42.8101C55.8299 42.9101 55.6599 43.5001 55.7799 43.8801L56.5199 46.3701L56.7899 47.3101L57.1799 47.23C57.2599 47.21 57.3599 46.88 57.3499 46.79L57.3399 46.8001ZM56.3599 47.4301L55.2899 43.53C55.1199 43.52 54.7099 43.7301 54.6599 43.8901C54.6199 44.0301 54.6199 44.3301 54.6599 44.4901L55.7099 48.5001C56.1899 48.4601 56.4999 47.9901 56.3499 47.4301H56.3599ZM37.7399 49.5801L36.7399 45.6701C36.5499 44.9201 36.2399 44.1701 35.5399 43.8101L36.8399 48.47C36.9799 48.98 37.2099 49.3901 37.7399 49.5701V49.5801ZM55.3499 49.2601C55.3699 48.5201 55.3499 48.3901 55.2199 47.9201L54.3099 44.47C54.2699 44.33 53.8099 44.3301 53.7499 44.4401C53.7099 44.5201 53.5499 44.7901 53.5799 44.8901L54.2299 47.7501C54.4099 48.5301 54.4899 49.1601 55.3399 49.2601H55.3499ZM54.0799 48.5101L53.7499 47.22C53.5699 46.52 53.3399 45.8401 53.0799 45.2001C51.8299 45.0601 53.4299 49.4901 53.5999 50.0101C54.2399 49.6001 54.2199 49.1201 54.0699 48.5101H54.0799ZM38.0999 46.22C38.0199 45.99 37.5299 45.68 37.2999 45.54L37.9699 48.34C38.1399 49.05 38.2699 49.7701 39.0299 50.3301C39.3799 50.1101 38.2599 46.64 38.0999 46.21V46.22ZM66.5299 45.8901C63.9499 46.5501 63.5999 46.18 61.3999 46.47C61.8099 47.12 66.3699 46.5901 66.5299 45.8901ZM53.0199 49.65L52.2099 46.7501C52.2699 46.5501 52.3299 46.31 52.2099 46.22C52.0599 46.11 51.5899 46.2001 51.5599 46.3601C51.4499 46.9401 51.5799 47.4701 51.7199 48.0101L52.2099 49.9401C52.2699 50.1901 52.5399 50.4301 52.7099 50.3201C52.9299 50.1801 53.0799 49.87 53.0199 49.65ZM39.2399 46.6201C39.2099 46.5401 38.8199 46.6601 38.8099 46.7401C38.8099 46.8001 38.8099 46.9701 38.8199 47.0501L39.2399 48.78C39.4299 49.56 39.5099 50.4801 40.4799 50.8801C40.2199 49.2001 39.8499 48.0701 39.2399 46.6101V46.6201ZM49.9699 50.46C50.0299 50.72 50.0899 50.9501 50.2099 50.98C50.3299 51.01 50.6999 50.9801 50.7099 50.8601L50.7299 50.41C50.7299 50.33 50.8499 50.1501 50.8999 50.0701C51.0099 49.8901 51.1499 50.77 51.4799 50.72C51.6099 50.7 51.8499 50.57 51.9699 50.48C52.0699 50.4 51.8499 50.11 51.8099 49.96L50.9799 46.8301C49.3099 46.8301 51.0299 49.0501 50.9499 50.1101C50.1699 50.0401 50.4299 48.43 49.7399 47.4201C49.6799 47.3201 49.2499 47.5501 49.2799 47.6701L49.9599 50.4901L49.9699 50.46ZM41.6099 50.6201C41.3599 49.6501 40.9499 47.78 40.3999 47.28C40.3499 47.23 40.0799 47.3801 40.0999 47.4501L40.4699 49.0001C41.1999 52.0101 41.7499 51.1201 41.7499 51.1401L41.6099 50.6101V50.6201ZM49.5999 50.5801L48.7299 47.73C48.6899 47.6101 48.2199 47.4501 48.1799 47.5501C48.1399 47.6501 48.0699 47.9401 48.0999 48.0601L48.8799 50.9301C48.9199 51.0901 49.2899 51.2801 49.4299 51.2401C49.5699 51.2001 49.6799 50.8701 49.5999 50.5801ZM42.8899 51.4901L42.1899 48.6101C42.0799 48.1501 41.8299 47.7501 41.2799 47.7601L42.1099 50.9401C42.1499 51.0901 42.2799 51.3501 42.3599 51.4401C42.4399 51.5301 42.7299 51.5101 42.8999 51.4901H42.8899ZM47.4299 50.8901L46.5199 47.91L45.7699 47.97L46.1399 49.6401C46.1799 49.8001 46.7399 52.38 47.2699 51.53C47.3399 51.42 47.4699 51.03 47.4299 50.9V50.8901ZM48.3199 50.4L47.7399 48.1C47.7099 47.98 47.2899 47.7601 47.2399 47.8601C47.1999 47.9401 47.0499 48.19 47.0699 48.28L47.3999 49.66C47.5299 50.21 47.7299 51.0501 48.0599 51.3901C48.1799 51.5101 48.6299 51.17 48.5699 51.03C48.5199 50.92 48.3899 50.61 48.3299 50.41L48.3199 50.4ZM43.9399 51.2601L43.1099 48.3801C43.0699 48.2501 42.8499 48.0601 42.7699 48.0101C42.6899 47.9601 42.4899 48.3201 42.5299 48.4501L43.4599 51.5601C43.4899 51.6501 43.9299 51.8601 43.9499 51.7601C43.9699 51.6601 43.9899 51.4701 43.9299 51.2601H43.9399ZM45.1299 51.59L44.2699 48.6801C44.1999 48.4301 44.1299 48.25 44.0599 48.1C44.0099 47.99 43.5699 48.2501 43.6099 48.3901L44.4299 51.46C44.4599 51.57 44.6799 51.8101 44.7499 51.8901C44.7999 51.9501 45.1599 51.71 45.1299 51.59ZM45.1299 47.91C44.0299 47.21 45.6899 51.8401 45.6199 51.7401L46.2899 51.6201C46.1999 50.8401 45.6099 48.51 45.1299 47.91ZM46.6299 55.6701L47.9099 55.54C49.1999 55.41 49.7099 57.11 49.8499 58.16C48.6599 58.64 47.6299 58.8 46.4199 58.84L45.0199 58.8801C41.6699 58.9901 41.2199 58.2301 38.0499 57.5601C39.1999 58.5201 41.9799 59.04 43.5499 59.15C48.7299 59.5 53.3599 58.2501 57.7899 55.6401L59.4199 54.6801C59.6499 54.5501 59.8399 54.4301 59.9799 54.3001L61.4499 53.02C61.9099 52.62 62.3699 52.2501 62.8099 51.8001C63.4699 51.1301 64.0399 50.3101 64.7399 49.7001C65.2999 49.2101 66.2899 49.4 66.6999 48.53C65.3599 49.12 64.0399 49.1201 62.5999 48.9401L60.7599 48.71C61.5599 49.18 62.6499 49.1201 63.3199 49.8701C63.7199 50.3101 62.8199 50.8401 62.5399 51.0701C62.4899 51.2801 62.4499 51.6101 62.3099 51.6801L61.8399 51.9C60.8799 52.9 59.4899 54.1 58.1999 54.79C57.2399 55.3 54.3699 57.07 53.6899 56.27C53.2699 55.48 53.3399 54.3 53.9599 53.54C54.3199 53.1 55.0299 52.8701 55.5799 52.5701C55.4299 52.0801 53.3499 53.11 53.0899 53.53C52.1699 55.02 53.8099 56.67 53.0899 57.22C52.5599 57.63 51.6199 57.8401 51.0199 57.6901C50.0499 57.4501 49.9899 56.38 49.4399 55.79C48.7899 55.09 47.4199 55.13 46.6199 55.65L46.6299 55.6701ZM72.9699 62.6L74.2799 60.5701C74.6999 59.9101 76.4099 56.2101 76.5699 55.3001C75.2999 57.5401 73.8299 59.7 71.9299 61.6C70.4499 63.07 69.0199 64.4501 67.3599 65.7401C67.3599 66.1301 68.3499 67.9501 68.7299 67.9901C70.2899 66.4601 71.8399 64.3801 72.9799 62.6101L72.9699 62.6ZM45.7799 67.77C46.5899 68.02 47.0999 68.4601 47.6699 67.8001L46.5799 67.6C44.7399 66.49 46.2699 64.27 45.3499 63.77L45.3099 67.2001C45.2499 71.9901 47.4799 73.1201 46.1399 70.1901C45.7899 69.4201 45.5199 68.61 45.7799 67.77ZM59.0199 72.0001L56.8099 72.53C56.3699 70.5 57.3499 70.48 56.2899 68.29C56.1099 67.92 56.2299 67.49 55.4899 67.54L56.0799 68.84C56.4199 69.59 56.3599 70.77 56.1899 71.66C56.0799 72.22 55.2399 73.0001 54.6999 73.1701C53.2599 73.6201 51.9399 73.83 50.5199 73.98L46.6799 74.3901C45.0699 74.5601 39.5699 73.6001 38.0899 72.3001C38.0199 71.4401 38.8599 70.68 39.7099 70.48C38.3199 69.7001 38.2599 71.3 37.2699 71.91C36.5299 71.42 35.8999 70.8601 35.4499 70.1401L33.8799 67.59C34.0699 68.26 34.1899 69.0601 34.5099 69.4901L35.8299 71.2401C36.0899 71.5901 36.8399 72.03 37.2599 72.34C38.7699 73.43 41.0399 73.7901 42.8199 75.0701C42.5799 77.2101 41.4199 79.4301 43.4299 81.1701C42.7099 79.73 42.7599 78.2601 43.1999 76.7001C43.3599 76.1301 43.4999 75.14 44.1399 74.91C45.0899 74.57 46.1299 74.7401 47.0999 74.7401C49.1399 74.7401 51.1499 74.45 53.1399 73.91L57.2899 72.8001C58.2399 72.5401 59.7399 72 60.5399 73.1C61.2999 74.13 61.0799 75.77 61.6099 77.03C61.7699 75.79 61.6999 73.2601 60.8399 72.3601C60.3599 71.8601 59.4999 71.9 58.9899 72.03L59.0199 72.0001ZM52.0999 80.34C52.3999 80.21 52.8399 79.9801 52.9099 79.8001L53.3999 78.5801L52.9099 75.22C52.8999 75.12 53.0299 74.74 52.9599 74.78C52.8899 74.82 52.5499 74.9 52.5299 74.97C52.0999 76.99 53.4899 78 52.0899 80.34H52.0999Z" fill="black"/>
<path d="M28.9901 72.1599C29.4501 73.7099 31.0101 74.8699 32.4201 75.5999L35.6301 77.2499C36.6001 77.7499 37.8301 77.7399 39.0001 77.8499C39.1901 78.6799 38.6301 79.2599 38.1701 79.8399C37.1901 81.0699 36.7201 81.6199 35.2201 81.7999C34.0301 81.9399 33.0601 81.6599 31.9601 81.2599C29.6301 80.3999 27.5201 79.2499 25.4201 77.9199L23.9401 76.9899C23.0701 76.4399 22.2001 75.9199 21.3901 75.1999L18.8401 72.9099C18.6201 72.7099 18.4001 72.5399 18.1301 72.3299C17.3501 71.7299 16.6801 71.0099 15.9601 70.3499L15.2801 69.7299L13.4601 67.8199L12.4201 66.6099C10.0201 63.8199 7.18009 60.0499 6.33009 56.4799C6.20009 56.2699 5.9101 55.8499 5.8401 55.6199L4.8701 52.2199C3.9001 48.8299 3.62011 42.4499 4.28011 39.0699C5.01011 35.3399 5.99009 31.6699 7.64009 28.2599L8.32012 26.8499C9.63012 24.1399 10.5101 22.7199 12.4801 20.5199C13.7201 19.1299 15.0601 17.9999 16.4501 16.7599L17.5601 15.7799C18.2401 15.1799 19.0401 14.7999 19.7501 14.2299C21.6201 12.7299 23.5101 11.4 25.6901 10.33L26.8801 9.74993C30.6801 7.88993 29.7701 8.2999 33.8801 7.0899L36.5101 6.31994C37.4101 6.04994 38.2901 5.66992 39.2501 5.54992L42.9201 5.0899L45.5101 4.86993C46.7401 4.76993 47.9901 4.91991 49.2301 4.97991C52.1501 5.12991 52.9801 5.53992 55.6501 6.29992L57.2901 6.75994C58.3301 7.04994 59.3501 7.46993 60.2601 7.99993L63.7301 10.0299C64.3301 10.3799 64.9001 10.8999 65.4301 11.4099C67.7001 13.5899 70.0001 15.9399 71.1001 19.0199C71.8101 21.0099 71.3601 23.2599 70.6501 25.1599C69.8801 24.8499 69.9001 24.0799 69.6401 23.5399L68.0101 20.1499C67.6201 19.3399 65.4001 16.9199 64.6801 16.2899C62.3601 14.2599 61.1001 13.1999 58.1701 12.2299C57.6601 12.0599 56.9301 11.9999 56.3801 11.8899C53.3501 11.2999 50.4201 11.7799 47.4301 12.2599C45.3801 12.5899 43.4501 12.8899 41.4601 13.5699C40.2101 13.9899 39.1201 14.6199 37.9101 15.1899C32.0701 17.9399 30.3201 19.3499 26.1601 24.1899C25.7301 24.6899 25.3401 25.4099 24.9301 25.9799C24.0801 27.1699 23.4001 28.3499 22.7401 29.6499C21.8101 31.4799 21.3501 33.4499 20.7601 35.4099C20.6601 35.7399 20.5401 35.9199 20.5501 36.2699C20.5501 37.1799 20.4401 38.0099 20.3501 38.8899C20.0401 41.6699 20.3001 44.4299 20.9901 47.1699C21.3001 48.4099 21.7101 49.5899 22.1201 50.8599C22.3801 51.6699 22.9401 52.5899 23.2901 53.4499C23.4901 53.9299 24.2401 54.6399 24.3201 55.1399C24.3401 55.25 24.6001 55.3599 24.6601 55.4199C25.1201 56.0099 25.7401 56.8299 26.3101 57.3999L30.6501 61.7299C30.6001 62.1099 30.5601 62.52 30.4901 62.8899L29.4401 68.4699C29.2901 69.2499 29.2501 70.0399 29.0801 70.7999C29.0101 71.1199 28.9101 71.8399 29.0001 72.1499L28.9901 72.1599ZM9.7701 32.6299C10.2701 31.3499 10.5901 29.8299 11.3501 28.6799L14.9201 23.2699C15.9501 21.6999 16.5401 21.3999 17.1901 20.5399C18.3301 19.0299 21.2901 16.5499 22.9701 15.5699C24.9301 14.4199 26.9001 13.2899 29.0701 12.3999C30.2801 11.8999 31.4501 11.6199 32.6901 11.1999L35.5601 10.2299C36.0401 10.0699 44.4001 8.74993 44.9301 9.55993C44.2301 10.0599 43.7201 10.1399 42.9901 10.2899C41.9201 10.5099 40.8901 10.9299 39.8601 11.3099L36.7701 12.4499C35.9501 12.7499 35.1401 13.1599 34.3701 13.5699L33.1001 14.2599L30.2101 15.9999C29.4101 16.4799 28.7601 17.2799 28.0501 17.8399L27.0701 18.6299C25.9901 19.4899 25.1101 20.4899 24.1901 21.5499C23.2201 22.6699 22.5001 23.8899 21.6601 25.1399C20.0501 27.5199 18.7701 30.0499 18.1701 32.9299L17.6301 35.5499C17.4701 36.3399 17.3901 37.3599 17.3901 38.1999V42.5599C17.3901 43.3299 17.6001 44.1499 17.6801 44.9699C18.1501 49.9099 20.1801 53.9499 23.1801 57.7399L25.8001 61.0499C25.8701 61.1299 25.8801 61.4599 25.9401 61.4599H26.2601C27.1401 62.3099 27.3501 63.4899 27.2501 64.6699C27.7101 64.0599 27.8801 62.7799 27.4901 62.1899C24.4201 59.2399 21.0901 55.1099 19.6001 51.2099C19.1901 50.1299 18.7501 49.0499 18.5601 47.8899L17.9601 44.3099C17.6901 42.7099 17.6601 37.8799 17.8601 36.2899C18.3301 32.4999 18.4801 33.1899 19.5001 30.1499C19.8801 29.0299 20.3401 28.0399 21.0001 27.0499L23.2801 23.6499C25.1501 20.8499 28.5401 17.7299 31.4301 15.7699C34.1701 13.9099 37.1701 12.6399 40.2601 11.5099L42.4501 10.7099C42.8701 10.5599 43.4701 10.3599 44.2001 10.1599C47.4701 9.26991 50.1201 9.29995 51.5801 9.32995C55.9701 9.41995 59.6701 10.52 61.8901 11.33C59.9501 9.98995 58.1801 9.19992 56.8901 8.73992C54.9901 8.04992 53.3501 7.75989 51.6701 7.45989C50.3001 7.21989 49.1401 7.07992 48.2901 6.98992C47.3201 6.98992 46.3501 6.98991 45.3801 6.97991C44.6101 6.91991 43.7401 6.90992 42.7901 6.98992C40.6801 7.16992 38.9401 7.73989 37.7001 8.26989C36.8501 8.51989 35.9901 8.76989 35.1401 9.01989C33.0401 9.87989 31.2801 10.6399 29.9701 11.2199C26.0401 12.9599 24.0201 13.8599 21.6101 15.3699C19.9601 16.3899 18.7501 17.1499 17.2701 18.4999C14.8101 20.7299 13.4501 22.9199 12.0501 25.1599C11.7401 25.6599 11.6901 25.8999 10.5501 28.1599C9.3501 30.5299 9.20009 30.7799 8.92009 31.3799C7.99009 33.3899 7.63011 35.0399 7.28011 36.6299C6.81011 38.7599 5.88011 43.1599 6.75011 48.7099C7.05011 50.6299 7.49009 52.1899 7.83009 53.2499C8.03009 53.9999 8.3401 55.0699 8.7701 56.3399C9.3701 58.1499 9.6801 59.0699 10.2101 59.8999C10.6501 60.5999 11.4501 61.63 12.9001 62.58C13.5501 63.63 13.8801 64.1599 13.8801 64.1599L15.6901 66.4399C16.7201 67.7399 17.7501 69.0699 19.0301 70.1199L20.9201 71.6699C21.2301 71.9199 21.4901 72.1299 21.8201 72.3599C23.0301 73.1699 23.9301 73.9399 24.7301 74.4699L27.8101 76.4899L29.8401 77.7299C31.0701 78.4799 33.2301 79.2999 34.7301 79.5299C33.9201 79.0399 33.1501 78.7799 32.1901 78.3899C31.9601 78.2999 27.7801 76.4099 28.5201 76.2699C27.6601 76.4299 26.3801 74.7399 26.2501 74.2299C26.0301 73.3799 26.1801 72.5899 26.1501 71.6699C26.0201 71.9399 25.8401 72.3699 25.8001 72.6199L25.5301 74.1599C24.3901 74.0199 22.4101 72.4699 21.6401 71.7499L20.8901 71.0599C20.1601 70.7499 18.7501 69.4999 18.2101 68.8899L17.2901 67.8699C16.8801 67.4199 16.4701 66.9699 16.1001 66.4899L14.6301 64.58C14.1001 63.89 13.5301 63.1999 13.1101 62.4399L12.2901 60.9599C11.6601 59.8099 9.48012 56.9599 10.7901 55.9299C11.3101 55.5199 12.0701 56.0899 12.4601 56.4599C12.2001 54.2399 10.3801 55.7999 9.4901 54.7699C9.2401 54.4799 8.96009 53.5699 9.17009 53.2599C10.1501 51.7699 10.9001 52.8399 9.5501 48.9499C9.1201 49.4399 10.6101 51.2699 9.67009 51.8699C9.47009 51.9999 8.98011 52.0399 8.66011 52.0199C7.25011 48.9999 7.5501 46.7099 7.7401 43.4999C7.9801 39.5999 8.3601 36.3799 9.8001 32.6499L9.7701 32.6299ZM24.1701 69.4399L24.6301 66.5099C24.7901 65.5099 24.8901 64.5299 24.9101 63.4899L20.2701 58.7799C19.8401 58.3399 19.5801 57.6599 19.2501 57.1899L18.6501 56.3399C17.9701 55.3699 17.4801 54.3899 16.9301 53.3499C16.2201 51.9999 15.6301 50.7199 15.3001 49.2199C14.9701 47.7199 14.6101 46.1099 14.4301 44.5099C14.3801 44.0399 14.3801 43.6399 14.2901 43.1999C14.0001 41.7999 14.2601 40.4099 14.3101 39.0299C14.4201 36.1299 14.8401 33.3499 16.0301 30.6999L16.7701 29.0399C18.2401 25.7599 21.3901 21.1799 23.9401 18.3499C23.4001 18.3199 23.0501 18.7299 22.6501 19.0899C19.6701 21.7499 18.1201 23.09 16.1201 26.58L15.4201 27.7999C14.7201 29.0099 14.1701 30.2399 13.6701 31.5499C13.3101 32.4899 12.8201 33.3899 12.5301 34.3399C12.2301 35.3399 11.8701 36.3799 11.7401 37.4099C11.4201 40.0699 11.6501 42.6199 11.8701 45.2599C12.0901 47.8999 12.4801 50.3299 13.4801 52.6999C14.7001 55.5799 16.3701 58.6999 18.5701 60.9699C22.4201 64.9499 19.0001 64.0099 19.9801 68.0599C20.6201 68.7099 21.5101 69.3799 22.2501 69.9199L23.5901 70.8999C23.9001 70.4299 24.0901 69.9599 24.1701 69.4299V69.4399ZM26.2401 70.5899C26.5501 70.1399 26.6501 69.6299 26.7601 69.0999L26.9001 67.6899C26.7401 67.9299 26.6001 68.2399 26.5601 68.4899L26.2401 70.5899Z" fill="black"/>
<path d="M63.7101 35.2799L62.3001 36.2199C61.3001 36.2999 60.0901 36.21 59.3401 35.44C58.6801 34.76 58.5701 33.4099 59.0101 32.5499C59.5501 31.4999 60.7601 30.8999 61.9801 31.2199C62.4901 31.4099 63.2301 31.8499 63.5301 32.2099C64.2701 33.0999 64.0901 34.2399 63.7101 35.2799Z" fill="black"/>
<path d="M43.61 87.22C19.56 87.22 0 67.65 0 43.61C0 19.57 19.57 0 43.61 0C67.65 0 87.22 19.57 87.22 43.61C87.22 67.65 67.65 87.22 43.61 87.22ZM43.61 1.95996C20.65 1.95996 1.97 20.64 1.97 43.6C1.97 66.56 20.65 85.24 43.61 85.24C66.57 85.24 85.25 66.56 85.25 43.6C85.25 20.64 66.57 1.95996 43.61 1.95996Z" fill="black"/>
</svg>
