<svg width="186" height="87" viewBox="0 0 186 87" fill="none" xmlns="http://www.w3.org/2000/svg">
<path d="M44.012 77.87C43.492 78.44 42.212 78.58 41.322 78.65L38.042 82.7C37.832 82.95 37.152 83.28 36.892 83.49C35.302 84.74 31.512 85.17 29.792 83.97L32.352 82.77L34.622 79.59C34.552 79.01 33.692 78.4 33.122 78.36L31.332 78.23C30.872 78.97 30.562 79.37 29.762 79.47C29.282 79.53 29.042 80.04 28.662 80.37C27.762 81.16 26.002 81.59 24.692 81.5C22.902 81.37 18.872 79.93 17.752 78.29C23.042 78.52 20.712 78.25 24.522 76.8C24.902 75.75 24.312 75.03 23.282 74.17L21.942 73.03C21.712 72.84 21.422 72.61 21.222 72.5C21.002 72.38 20.682 73.14 20.462 73.28C17.062 75.46 10.632 73.05 9.14198 68.98L11.632 69.33C12.562 69.46 15.912 69.16 16.412 68.61C16.992 67.97 15.282 65.8 14.642 65.19C11.842 65.09 7.09201 65.88 5.49201 62.94C4.87201 61.79 4.45197 60.75 4.07197 59.58C3.85197 58.9 3.38199 58.23 3.71199 57.43L4.852 58.61C6.552 60.37 8.47198 60.49 10.832 60.03C10.752 59.14 10.692 58.26 10.422 57.82C9.53201 56.58 8.94199 55.08 8.28199 53.74L5.042 52.89C2.632 52.26 1.28201 47.88 1.30201 47.29L1.39198 45.27L3.34199 47.8C3.67199 48.22 4.79196 48.46 5.25196 48.32C5.79196 48.16 5.542 47.36 5.47199 46.93L4.52198 40.88C2.21198 41.93 -0.428034 37.12 0.691966 35.51C1.43197 36.21 1.99201 36.95 2.74201 37.41L4.45198 38.48C4.69198 36.59 4.692 34.73 4.232 32.86L2.12196 31.34C0.171958 29.94 -0.508022 27.16 0.391978 24.86L1.17201 22.86C2.16201 24.98 3.11199 26.74 4.53199 28.6C5.39199 27.8 4.84198 27.08 4.77198 26.25C4.53198 23.71 5.11201 21.26 5.67201 18.8C5.89201 17.81 5.89197 16.64 6.26197 15.75C6.68197 14.76 7.16199 11.67 8.40199 10.04C8.91199 11.34 9.10197 12.27 9.38197 13.4L9.99201 15.92L10.712 18.73C10.952 19.66 11.152 20.48 11.352 21.48C11.492 22.17 11.932 22.92 12.192 23.58C12.622 24.68 12.942 25.84 13.502 26.92L15.752 31.23C17.372 30.45 17.502 29.02 17.732 27.66L18.092 25.5C18.952 26.59 19.612 27.82 20.122 29.13L19.392 30.1C20.222 30.31 20.442 31.24 20.202 32.13C19.982 32.97 19.912 34.04 19.562 34.8C19.122 35.74 18.562 36.87 18.242 37.74L20.002 40.62C19.682 41.08 19.702 41.01 19.802 41.06C19.942 41.12 20.382 41.31 20.452 41.39L22.152 43.17C24.542 40.32 23.412 40.07 23.712 36.69C26.612 37.71 29.162 44.24 26.542 46.35C26.932 46.99 26.442 47.55 25.882 48.22C26.062 49.11 27.912 50.78 29.102 50.78C29.572 50.78 30.182 50.28 30.502 49.79C31.802 47.82 30.682 47.77 31.222 44.75C32.272 45.19 33.072 45.83 33.302 46.67C34.092 49.57 35.162 47.84 34.702 51.93L34.472 54.01C34.452 54.22 34.532 54.74 34.702 54.77L35.392 54.92C36.002 55.3 36.712 55.64 37.422 55.59C39.602 55.44 39.692 51.66 40.042 49.83C42.422 51.17 41.942 52.5 41.832 52.42C43.412 53.61 42.972 55.89 42.172 57.55C43.202 58.13 44.242 58.51 45.312 58.78C47.522 59.34 48.112 61.81 47.532 63.88C47.242 64.92 47.052 65.59 46.092 66.14C44.992 66.77 44.162 66.52 43.052 66.05C42.212 65.69 41.552 65.37 41.312 64.29C41.192 63.72 41.022 62.92 41.382 62.38C41.662 61.96 42.372 61.54 43.062 61.57L42.652 62.07L43.772 62.32C44.002 62.37 43.942 63 44.042 63.38C44.082 63.45 44.622 63.4 44.632 63.24C44.652 63.01 44.692 61.62 44.482 61.5C43.442 60.95 41.522 60.45 40.692 62.12C39.782 63.95 40.822 65.99 42.822 66.81L40.932 68.39C39.962 69.2 39.602 71.27 39.982 72.44C40.622 74.41 44.232 74.07 44.082 73.85C43.562 73.08 41.932 73.93 41.042 72.88C39.802 71.4 40.472 69.66 41.662 68.57C42.932 67.39 44.922 67.29 45.882 68.78C45.242 68.95 45.092 69.03 45.652 69.01C48.982 70.61 46.872 76.57 44.382 77.85L44.362 77.45C44.362 77.38 44.322 77.14 44.292 77.2L44.022 77.84L44.012 77.87ZM37.802 60.22C37.372 59.56 36.842 59.39 36.242 59.69L37.502 61.12C38.202 62.88 37.022 64.93 35.182 65.23C34.522 65.33 34.042 64.95 33.902 64.37C33.372 65.33 31.992 63.96 31.092 63.52C29.352 62.65 28.382 61.56 27.592 59.86C27.222 59.05 26.592 58.15 26.742 57.36C26.942 56.29 27.622 55.57 28.532 55.1L29.692 55.48C30.162 55.81 30.552 55.96 31.072 55.93C30.562 54.7 29.502 54.5 28.312 54.59L26.892 54.7C26.772 55.54 26.402 56.57 25.712 57.29C24.382 56.45 23.292 55.15 22.992 53.91C22.932 53.67 22.662 53.54 22.232 53.31L21.082 51.86C21.142 51.94 18.122 46.85 18.152 46.93L14.722 39.33L12.622 34.13C12.442 33.69 12.372 32.77 12.222 32.34L10.822 28.2L10.232 26.55C9.122 23.43 9.97198 24.43 8.46198 21.77C7.88198 21.85 7.60199 22.61 7.65199 23.1L7.88197 25.34C8.02197 26.67 8.08198 27.9 8.14198 29.23C8.16198 29.74 8.45197 30.6 8.51197 31.15C8.92197 34.87 9.61201 38.4 10.552 41.98L10.282 42.38C10.232 42.45 10.632 42.65 10.662 42.73L11.412 45.24C11.442 45.33 11.042 45.72 11.132 45.76C12.192 46.33 12.262 48.7 12.792 50.13L13.702 52.59C14.292 54.17 16.652 59.28 17.472 60.7L18.962 63.31L20.072 65.14C20.322 65.55 20.702 66.19 20.982 66.55L23.402 69.67C23.902 70.32 24.822 71.15 25.392 71.71C26.412 72.7 27.312 72.52 27.942 73.74C30.642 74.23 32.072 73.86 34.662 72.68L35.932 71.54L36.092 70.49C36.192 69.83 36.092 68.43 35.812 67.82L34.912 65.85C36.282 65.69 37.132 65.28 37.902 64.23C38.672 63.18 38.552 61.37 37.792 60.21L37.802 60.22Z" fill="black"/>
<path d="M155.362 85.79C154.252 86.65 150.442 86.03 151.042 85.72C150.912 85.78 150.662 85.92 150.492 86.01C148.572 85.4 146.722 84.13 145.762 82.27C145.092 80.99 145.172 81.35 144.192 79.89C144.182 79.87 141.472 79.22 141.492 79.23C138.882 78.17 137.582 74.96 138.142 72.22C138.452 70.71 139.782 69.33 141.182 68.94C142.492 68.58 143.512 69.42 144.062 70.06C144.942 71.08 145.122 72.38 144.662 73.52L143.442 74.48L141.282 74.87C142.262 75.66 143.662 75.25 144.572 74.53C146.252 73.2 145.672 70.43 144.112 69.1L142.712 67.91C144.082 66.95 145.392 66.06 145.352 64.33C145.332 63.46 144.232 62.48 143.552 61.9C142.412 62.13 140.562 62.62 140.742 63.98C140.762 64.11 140.992 64.45 141.072 64.55C141.152 64.65 141.622 64.6 141.642 64.47L141.732 63.66C141.872 63.39 142.852 62.85 143.272 62.95C143.912 63.11 144.552 64.16 144.422 64.71C144.232 65.5 144.002 66.01 143.422 66.55C142.242 67.64 141.012 67.9 139.542 67.17C138.902 66.85 138.432 66.34 138.272 65.6L137.752 63.27C137.532 62.28 138.622 60.68 139.592 60.09C140.612 59.46 141.982 59.35 143.212 58.89L143.002 55.97C142.842 53.78 144.102 51.88 146.072 50.99C145.912 52.92 146.162 54.5 146.922 55.94C147.182 56.43 148.062 57.43 148.682 57.12L151.452 55.76L151.142 52.77C150.882 50.31 152.652 47.66 154.522 46.35C155.332 46.8 154.552 47.57 154.592 47.96L154.832 50.38L155.532 51.73C155.702 52.05 156.572 52.28 157.052 52.46L159.472 50.81C159.652 50.69 160.002 50.24 160.012 50.04C160.062 49.06 156.612 45.62 159.602 40.86C160.262 39.82 160.982 38.74 162.242 38.41C162.432 42.43 161.772 40.98 163.012 44.22C163.092 44.42 163.632 44.7 163.842 44.66C164.412 44.54 166.032 42.29 166.442 41.58C166.932 40.72 167.052 39.95 168.092 39.35C166.752 38.63 166.922 37.18 166.472 36.15C166.182 35.48 165.872 35.05 165.892 34.28C165.962 31.87 166.332 28.74 168.112 27.19C168.602 26.76 167.792 31.6 170.162 33.37L171.622 30.94C171.942 30.41 172.372 29.85 172.592 29.28L174.162 25.31C175.192 22.69 175.472 20.85 176.472 17.75C176.972 16.21 177.132 13.29 177.832 12.16C179.332 13.74 178.502 13.87 179.682 16.56C180.282 17.93 181.312 25.32 181.252 26.91C181.202 28.29 181.132 29.45 181.152 30.88C183.342 29.35 182.512 29.59 183.742 27.48L185.102 25.13C186.072 27.37 185.942 27.52 185.932 30.14C185.932 32.39 183.002 34.22 182.002 35.08C181.092 35.87 181.182 39.75 181.462 40.01C182.092 40.59 183.542 38.93 183.862 39.53C184.152 38.94 184.552 38.39 185.422 37.94C185.502 41.47 184.072 42.17 181.392 43.83C179.822 47.32 181.162 44.7 180.472 48.03C180.192 49.39 179.772 50.15 180.442 50.55C183.152 50.26 182.522 49.84 184.402 47.91C184.402 51.62 183.562 52.96 180.542 55.13C179.442 55.44 177.972 55.63 177.142 56.2C176.342 57.83 175.712 59.18 174.842 60.74C174.622 61.13 174.512 61.8 174.382 62.34L176.482 62.4C179.522 62.49 179.012 62.12 181.862 59.71C182.382 61.21 181.052 62.23 180.752 63.23C180.352 64.57 179.722 65.94 178.272 66.56C174.652 68.11 172.682 66.09 170.702 67.1C170.272 67.32 169.762 68.28 169.412 68.64C169.062 69 168.792 69.31 168.782 69.67C168.762 70.15 169.052 70.64 169.402 71.03L169.832 71.51C169.922 71.61 170.312 71.45 170.412 71.4C169.922 71.07 169.882 71.02 170.242 71.19L172.042 71.39C173.442 71.55 174.402 71.42 176.092 71.02C176.052 71.62 173.992 74.2 173.832 74.09C173.702 74 173.522 73.85 173.332 73.69C173.302 74.97 172.032 74.98 171.252 75.33C170.072 75.86 169.002 76.15 167.712 75.98C163.762 75.46 164.272 73.87 162.112 75.84C161.542 76.36 160.362 76.84 160.672 77.95L161.942 79.37C162.582 79.46 163.052 79.62 163.692 79.91C164.822 80.43 166.222 79.92 167.712 80.14C166.192 81.5 164.272 82.79 162.262 82.94L159.832 83.13C158.282 83.25 156.812 82.46 155.712 81.46L154.022 79.91C153.342 79.46 151.412 79.74 150.892 80.38C150.162 81.28 151.362 82.35 151.772 82.93C152.232 83.57 152.622 84.31 153.182 84.61L155.422 85.81L155.362 85.79ZM147.562 65.44C148.312 66.5 149.382 66.91 150.572 67.24C149.332 69.11 148.812 71.46 150.012 73.42L151.432 74.6C152.702 75.65 156.432 75.79 157.742 74.67L158.072 75.07C158.112 75.12 158.242 75.01 158.242 74.94V74.51C161.402 72.29 164.012 69.49 165.772 65.96C167.062 63.37 166.662 65.74 168.722 61.29L170.982 56.4L171.772 54.59C172.202 53.6 172.712 52.52 173.042 51.52L174.332 47.52L175.792 42.06L176.792 38.72C176.902 38.34 176.962 37.61 177.012 37.23L177.332 34.43L178.062 29.6C178.142 29.04 178.202 28.65 178.222 28.1L178.352 24.35C178.352 24.11 177.502 24.12 177.402 24.31C177.362 24.38 174.982 30.57 174.962 30.64L173.842 34.3L171.012 41.53C170.492 42.85 169.252 45.47 168.432 46.39C168.422 46.63 168.482 47.31 168.302 47.5L167.742 48.08C167.152 49.97 165.152 52.67 163.902 54.27L162.212 56.44C161.562 57.28 160.892 58.11 159.902 58.67C159.072 56.34 157.302 55.48 155.092 56.02L154.652 57.63C155.372 57.3 156.022 56.71 156.702 56.64C157.722 56.54 158.582 57.67 158.782 58.36C159.082 59.39 158.742 60.4 158.162 61.18C157.582 61.96 157.182 62.78 156.562 63.44C155.082 65.03 152.482 65.81 152.712 65.96L152.192 65.62C151.762 66.27 151.032 66.49 150.222 66.38C148.892 66.21 147.612 63.85 148.032 62.72C148.292 62.01 149.012 61.48 149.832 61.08C149.972 61.12 149.522 60.54 149.362 60.6L147.862 61.2C147.182 62.44 146.692 64.18 147.572 65.42L147.562 65.44Z" fill="black"/>
<path d="M123.902 73.96C123.972 74.4 124.202 75.3 124.422 75.71C125.382 77.51 128.002 78 129.672 77C129.812 77.18 130.042 77.45 130.042 77.45C130.232 76.75 130.412 76.1301 130.742 75.8601C131.342 76.2401 131.852 76.6701 132.052 77.0401C132.272 77.4501 132.082 78.7501 131.672 78.9801C130.762 79.4801 129.402 79.53 128.382 79.78C127.622 79.96 127.082 79.97 126.472 79.7C126.442 79.83 126.412 80.1 126.312 80.1H125.572L122.742 80.08L123.552 79.78C123.692 79.73 123.572 79.61 123.382 79.25L121.452 80.2301C121.082 81.6301 120.352 82.98 119.242 83.6C118.712 83.9 117.242 84.0601 117.242 83.2901C117.242 82.32 117.522 81.5101 117.062 80.6701C115.952 78.6401 112.942 79.24 110.772 79.21C110.802 80.62 110.302 81.56 109.092 81.85C108.002 82.12 106.822 81.8 106.362 80.5L106.862 78.82C105.352 78.56 103.962 79.12 103.072 80.26L102.082 81.52C100.502 80.68 99.812 78.67 100.692 76.93C100.982 76.35 101.402 75.95 101.912 75.6L102.492 74.9201C102.652 74.7301 103.442 74.9401 103.642 75.0401C104.592 74.71 105.592 74.75 106.722 75.18C106.802 74.93 106.922 74.27 106.852 73.95C106.552 72.49 107.452 71.2501 109.012 70.8601C109.962 70.6201 110.962 70.38 111.702 71.24L111.362 73.06C111.212 73.9 111.062 74.23 111.662 74.94C112.262 75.65 112.852 76.05 113.892 76.15C115.842 76.32 115.602 75.33 117.072 75.09C117.712 72.2 118.222 73.73 118.372 70.25L116.142 69.47C113.702 68.62 111.622 67.34 109.532 65.95C107.942 64.89 106.842 63.52 105.842 61.8C105.522 61.25 105.092 60.5 104.922 59.99C104.502 58.75 103.912 59 102.892 58.96L98.532 58.7901C98.272 58.7801 97.772 58.24 97.562 58.31C97.052 58.47 96.072 60.88 95.522 59.82C95.202 59.21 94.852 58.09 94.762 57.44C95.022 54.68 97.432 53.07 100.072 53.24C100.792 53.28 101.622 53.15 102.252 52.96L102.302 50.13L99.812 49.91C98.622 49.81 97.622 50.02 96.472 50.4C96.302 49.97 95.902 48.82 96.042 48.34C98.792 42.9 100.272 47.41 103.052 44.8L103.102 42.33C98.772 39.14 99.682 35.62 99.182 32.3C98.882 30.33 98.642 28.57 98.792 26.53C98.842 25.83 98.412 24.87 97.792 24.56C97.362 24.35 96.532 24.35 96.212 24.59C94.632 25.76 97.112 26.98 95.802 27.78C95.142 27.97 94.242 26.97 93.882 26.45C93.402 25.76 93.552 24.23 94.082 23.8C94.142 23.75 94.572 23.6301 94.642 23.6101C94.712 23.5901 94.702 23.54 94.602 23.47L94.212 23.21C95.492 21.9 98.352 21.32 100.152 22.77C102.072 24.31 102.552 27.39 102.412 29.8C102.272 32.34 102.642 34.6 103.222 37.07C103.342 37.59 104.182 38.0601 104.612 38.1701C105.042 38.2801 106.202 37.98 106.372 37.56C107.392 34.97 106.672 32.4 107.332 29.01C107.392 28.69 107.812 28.09 107.922 27.8C108.882 25.31 108.862 27.18 109.402 25.65C110.662 24.11 115.982 24.85 117.812 25.16L117.952 25.99C117.982 26.17 118.532 25.88 118.702 25.8L119.432 25.44C119.582 25.37 119.772 25.7501 119.882 25.9801C120.932 25.4301 121.552 26.42 122.372 26.88C122.832 27.14 123.322 27.28 123.682 27.82C123.822 28.03 124.332 28.31 124.572 28.28C124.812 28.25 125.292 27.94 125.432 27.69C125.892 26.84 127.262 26.15 128.002 26.96C128.202 26.77 130.782 26 131.492 27.16L134.512 27.21L133.732 26.85C136.682 25.04 136.272 34.9 133.452 36.01L133.122 32.89C133.022 31.94 128.802 31.5 127.902 31.47L127.312 36.63L125.692 38.52L122.352 38.9801L121.402 35.27C120.912 34.82 120.022 34.03 119.452 33.8C117.652 33.07 115.382 33.51 114.472 35.13C114.122 35.75 114.692 36.85 113.672 37.14L114.402 37.4801C114.572 37.5601 114.322 38.29 114.172 38.21C113.432 37.9 112.052 37.52 111.302 37.78C110.182 38.18 109.452 39.44 109.522 40.63C109.632 42.68 111.342 44.61 111.402 44.21L111.322 44.75L115.682 44.88C115.972 45.33 115.772 46.31 115.782 46.9L115.822 49.05C115.842 50.16 115.782 51.16 115.682 52.38C116.182 55.19 117.322 58.25 120.072 59.43L122.862 60.62C124.302 61.23 126.112 61.12 127.692 61.31C129.152 61.49 130.572 61.7 132.032 61.7H136.792L136.862 63.01L137.362 65.7301C137.552 66.7701 139.042 67.57 139.972 68.22C139.392 68.91 138.592 69.71 138.102 70.47C137.652 71.17 137.712 72.11 136.952 72.56C136.272 72.97 135.592 73.03 134.692 72.97L131.952 72.8L127.682 72.08C127.312 72.02 126.652 71.79 126.392 71.7C125.412 72.79 125.132 71.33 123.922 73.96H123.902ZM120.402 31.05C121.442 31.41 122.652 31.15 123.382 30.45C122.622 29.95 122.152 29.62 121.782 29.33C121.582 29.4 121.042 29.42 120.792 29.26C119.112 28.13 117.232 27.62 115.282 27.64C112.402 27.67 109.682 30.4301 109.682 30.8601C109.682 31.0101 109.792 31.4401 109.942 31.4201C110.092 31.4001 110.552 31.2301 110.712 31.2301C111.622 31.2701 113.322 31.21 114.102 31.56C117.102 32.88 117.702 31.71 120.392 31.06L120.402 31.05ZM111.202 48.01L112.092 46.76C110.692 46.86 109.472 46.72 108.802 45.79C108.652 45.58 107.992 45.24 107.822 45.4L107.042 46.09C105.612 47.34 104.352 44.28 104.242 46.99L106.242 47.13L107.782 46.78C107.942 46.74 111.222 47.38 111.202 48.02V48.01ZM111.262 55L111.542 54.6101C111.672 54.4301 112.482 55.05 112.602 54.75L112.822 54.2301C112.992 53.8101 111.052 54.07 110.462 53.45C108.392 51.26 109.052 54.4 106.282 54.18C106.882 53.75 106.632 53.86 106.132 54.01L105.542 54.1C105.422 54.12 105.272 54.42 105.362 54.49C107.192 55.83 108.832 53.34 109.312 53.72C110.962 55.01 109.872 53.2 111.252 55H111.262ZM111.772 63.27L112.242 60.62L113.552 60.89C114.072 60.55 114.462 60.33 114.962 60.12L115.832 59.76C115.972 59.7 115.922 59.2 115.852 59.13C112.712 60.67 114.282 60.12 110.832 59.76C111.942 61.63 110.202 64.25 111.182 63.9C111.342 63.84 111.722 63.51 111.762 63.27H111.772ZM116.892 68.1C118.722 67.08 117.202 65.8 119.472 64.44C120.212 64 120.512 63.2001 120.142 62.4201C118.942 62.1801 120.282 64.08 117.922 64.3C117.132 64.38 117.412 65.4101 117.382 65.9801C117.342 66.7001 116.222 67.16 116.882 68.1H116.892ZM124.842 69.88L125.242 68.4801C124.092 66.6901 126.942 64.7 124.882 63.97C124.882 64.67 124.952 65.7201 124.592 66.0401C122.452 67.93 124.972 66.95 124.222 69.27C124.132 69.55 124.062 69.87 124.222 69.95C124.342 70.01 124.812 70.01 124.852 69.87L124.842 69.88ZM129.962 69.12L130.642 70.89C131.342 69.91 131.052 69 130.592 68.06C132.292 66.5 131.372 63.79 131.042 64.08C130.252 64.77 131.882 66.14 130.092 67.13L130.032 66.82C130.022 66.75 129.772 66.65 129.762 66.72L129.662 67.21C129.532 67.85 129.692 68.42 129.962 69.12Z" fill="black"/>
<path d="M54.502 74.98C56.822 77.7 58.192 76.3 60.922 76.17V75.14C61.162 74.4 61.582 72.9399 60.962 72.2399C60.632 71.8799 59.632 71.31 59.112 71.2L52.132 72.15C50.882 72.32 49.692 72.31 48.352 72.15L47.542 69.77C47.272 68.97 46.212 68.21 45.542 67.41L47.612 65.67C49.222 62.63 48.402 62.02 48.472 61.17C48.492 60.96 49.082 60.7399 49.312 60.7499L52.552 60.8099H56.702L59.412 60.48L59.652 60.92C59.822 61.23 60.2819 60.19 61.3719 60.72L63.212 59.9399C64.282 59.4899 65.592 58.96 66.642 58.36C67.292 57.98 68.372 56.7699 68.732 56.0599C69.202 55.1399 69.882 53.73 70.052 52.77C70.262 51.56 70.252 50.07 70.162 48.86L70.012 46.9L70.112 44.66C71.232 44.59 72.122 44.6999 73.092 44.4999C75.522 44.0099 76.962 41.38 76.282 39.08L74.862 37.42C73.842 36.98 72.712 37.2899 71.662 37.7999C71.852 36.3399 71.952 35.1599 71.282 34.0599L71.3719 33.79C71.4219 33.62 71.492 33.44 71.402 33.48C71.312 33.52 70.812 33.68 70.722 33.65L67.8719 32.73C67.7019 32.98 67.322 33.41 67.202 33.29L66.712 32.78C66.202 33.56 64.962 34.5399 64.662 35.4899L63.702 38.47L61.342 38.2L60.862 37.4299L60.422 37.78C60.302 37.88 60.122 37.25 60.042 37.11C59.422 36.81 58.672 36.0799 58.592 35.1299L58.282 31.2599C58.272 31.0899 58.742 30.5 58.572 30.47C58.402 30.44 57.912 30.4 57.762 30.47C55.282 31.63 55.822 30.74 53.482 31.52C53.342 31.89 52.972 32.5799 52.952 32.8799L52.792 35.0499C51.532 34.7099 51.412 33.67 51.082 32.72C50.512 31.1 50.152 29.35 50.472 27.53C50.612 26.7 52.022 25.45 52.922 25.53L59.972 26.16L62.072 27.77C63.732 25.53 66.112 24.99 68.722 24.71C69.192 24.66 70.092 24.2299 70.502 24.4999C72.492 25.8199 71.342 23.2799 76.192 24.8699C76.472 24.9599 79.312 27.6299 78.292 28.5499C79.942 29.5999 78.632 33.1199 79.422 36.9399C79.662 38.1099 82.202 38.32 82.6219 37.48C84.5019 32.82 82.782 27.32 85.132 23.61C86.002 22.24 87.372 21.92 88.772 22.03C89.792 22.11 90.902 22.26 91.652 22.95C92.552 23.77 92.862 24.4599 92.582 25.6899C92.472 26.1899 92.232 26.98 91.942 27.33C91.652 27.68 90.622 28.0899 90.232 27.8199C89.722 27.4599 90.062 26.5999 90.362 26.1299C90.722 25.5799 90.192 24.3899 89.502 24.2599C88.502 24.0699 87.492 25.1 87.462 26.08C87.392 28.81 87.352 31.4099 86.882 34.0699L86.272 37.5599C85.972 39.2499 84.932 40.5399 83.592 41.6299C82.602 42.4299 82.832 43.3699 82.842 45.1899L86.232 45.5099C86.842 45.5699 87.952 45.94 88.402 46.29C89.762 47.65 90.442 48.98 89.172 50.41C89.042 50.56 88.502 49.9899 88.262 49.9899L83.8719 49.97C83.3619 49.97 82.722 50.5899 82.712 50.9299L83.272 51.16C83.402 51.21 83.342 51.6799 83.362 51.8699L83.462 52.8699C83.492 53.1299 84.232 53.0299 84.552 53.0599C85.442 53.1399 86.232 53.3199 87.042 53.4899C88.062 53.6999 88.532 52.9899 90.202 55.5599C91.142 56.9999 91.332 58.66 90.032 60.08L88.012 59.04C86.672 58.35 82.502 58.5099 80.952 59.2499L80.1219 61.04C79.4319 62.53 78.482 63.6599 77.282 64.7399C76.182 65.7299 74.882 66.2699 73.692 66.9899C71.692 68.2099 69.702 69.1099 67.382 69.6199C67.242 71.1999 67.652 72.6199 68.362 74.0699C68.852 75.0599 70.002 75.5199 71.062 75.5599C72.122 75.5999 73.462 75.1599 73.952 73.9999C74.312 73.1499 73.752 71.68 73.902 70.89C74.132 69.71 75.472 70.3999 76.112 70.4899C77.102 70.6199 77.622 71.1099 78.092 71.8699C78.482 72.4899 78.732 73.01 78.502 73.84L78.322 74.4999C78.122 75.2199 80.812 74.11 82.452 74.77C83.872 75.34 84.642 76.5599 84.952 77.9999C85.262 79.4399 84.2219 80.67 83.1219 81.46C81.6219 80.27 82.732 80.28 80.892 78.97C80.152 78.44 79.172 78.2 78.452 78.83L78.652 80.5099C78.712 80.9899 77.842 81.5099 77.382 81.6199C76.652 81.7899 75.722 81.59 75.242 81.04C73.942 79.57 74.932 79.88 74.332 78.23C74.292 78.13 74.082 78.5499 73.942 78.8099C72.042 78.3699 69.722 78.59 68.192 79.92L67.952 81.89L68.052 82.61C68.082 82.81 67.522 83.29 67.322 83.28C66.962 83.26 66.132 83.2 65.842 83.02C64.092 81.91 63.882 79.4899 64.112 79.5599C62.612 79.1199 63.192 79.76 60.412 79.47L56.182 79.03L56.072 78.29C56.052 78.15 55.672 78.13 55.222 78.02L55.272 78.7C54.242 78.7 53.532 78.22 53.302 77.21C53.122 76.39 53.422 75.43 54.582 75.02L54.502 74.98ZM76.382 30.66L75.632 29.61L76.132 29.3799C74.962 28.9799 74.162 28.55 73.332 27.89C70.432 26.59 67.242 27.76 64.522 29.09L63.092 29.79C63.662 30.59 64.222 30.79 64.962 30.72C67.922 30.42 67.962 32.14 69.962 31.7C72.172 31.21 73.942 30.99 76.382 30.67V30.66ZM80.702 46.83C80.982 46.69 81.302 46.08 81.332 45.79L78.972 46.17C79.282 45.83 79.492 45.6 79.422 45.67L77.932 45.29C77.812 45.26 75.442 45.97 75.492 46.22L73.652 46.48C74.492 47.48 75.632 47.2599 76.602 46.7999C78.992 45.6899 78.912 47.6999 80.712 46.8099L80.702 46.83ZM78.512 54.7399C79.262 55.1099 80.092 54.76 80.322 53.97C76.652 54.52 77.412 51.32 75.482 52.71C74.702 53.27 73.882 53.4899 72.772 53.8099C73.762 54.6699 74.942 54.2299 75.842 53.4899C76.552 52.8999 77.022 53.9999 78.522 54.7499L78.512 54.7399ZM74.582 61.41C74.612 60.76 74.7819 60.12 75.062 59.4C73.042 59.06 72.372 60.77 70.322 58.85C70.122 58.8 69.662 58.5999 69.692 58.7599C70.042 60.3099 70.822 59.95 73.222 60.29L73.822 63.1899C73.862 63.3899 74.132 63.7 74.302 63.65C74.422 63.61 74.502 63.36 74.502 63.22L74.582 61.4V61.41ZM68.082 64.09C66.702 64.08 66.222 63.01 65.612 61.72C64.972 63.09 65.992 64.12 67.102 64.72L67.822 67.2499C67.862 67.3999 68.222 67.8499 68.332 67.7599L68.772 67.4C69.012 67.21 67.702 66.35 68.072 64.09H68.082ZM61.442 67.0499L62.182 66.1C61.722 65.91 60.852 65.58 60.822 65.22L60.672 63.11C59.452 64.13 60.312 65.2799 60.572 66.4399C60.512 67.2099 60.422 68.15 60.402 69.1C60.402 69.54 61.592 69.5299 61.772 69.1299C61.102 68.4799 60.872 67.7999 61.452 67.0499H61.442ZM54.992 70.03C55.002 67.9 56.7119 67.14 55.6219 66.66C53.5719 65.75 55.452 63.62 54.352 63.36C53.242 64.51 53.662 66.04 54.932 66.92L54.3719 69.21C54.2919 69.54 54.682 70.15 54.992 70.04V70.03Z" fill="black"/>
<path d="M35.672 42.41C32.982 41.07 30.582 38.62 28.962 36.33C28.172 35.22 27.932 32.97 28.002 32.52C28.052 32.24 28.992 32.28 29.162 32.55L30.112 33.98C31.202 34.08 31.912 35.3 32.752 35.79C33.852 36.43 34.932 37.05 36.062 37.62L39.402 39.31C39.632 39.43 40.182 39.55 40.432 39.57C40.672 39.58 41.002 39.06 40.932 38.84C39.642 36.69 37.502 34.18 35.772 32.29C33.942 30.28 33.0619 29.54 30.8719 27.93C30.5719 27.71 30.262 27.25 30.132 26.96L29.742 27.22C29.612 27.31 29.272 26.97 29.142 26.85L27.912 25.75L27.532 25.99C27.392 26.08 27.052 25.89 26.852 25.78L23.382 23.99C22.652 23.61 22.022 23.13 21.322 22.53C22.482 21.26 23.502 21.46 24.782 21.98L26.422 22.29C28.462 22.68 30.312 23.22 31.772 24.8C32.252 24.44 32.822 23.83 32.822 23.4C32.802 22.22 31.902 21.5 31.062 20.85L29.572 19.7C28.842 19.14 28.2919 18.75 27.3719 18.49C26.1019 18.14 24.822 17.61 23.542 17.45C21.942 17.25 20.602 17.12 19.022 16.51C19.232 15.73 19.972 15.05 20.452 14.9C20.512 14.88 20.892 15.11 20.862 15.17C20.812 15.25 20.962 14.99 21.102 14.74C22.012 13.64 25.602 14.53 26.962 14.8C28.172 15.04 29.472 15.32 30.222 16.37L30.422 16C30.652 15.56 31.992 17.03 32.592 16.7C32.912 12.94 30.862 14.06 30.202 11.67C29.182 11.74 27.2219 9.99001 26.1219 9.59001L21.132 7.79997C20.492 7.56997 19.632 8.06002 19.492 6.91002C19.432 6.40002 19.792 5.69002 20.652 5.54002C21.012 5.48002 21.642 5.91003 21.982 5.98003C22.612 6.11003 23.652 6.08999 24.242 6.31999C27.262 7.52999 28.412 7.70003 31.012 9.61003L33.002 11.07C33.452 11.4 33.732 11.89 34.082 12.37C36.092 15.1 38.032 15.86 38.682 19.99C39.722 20.57 39.312 21.52 39.912 23.42C40.202 24.35 40.462 25.24 40.682 26.25L41.082 28.16C41.772 31.44 43.782 35.68 46.632 37.58C52.722 41.65 47.972 38.24 53.152 41.03C57.172 43.19 64.262 43.67 64.522 51.6C64.622 54.8 63.032 57.62 60.112 58.91C58.652 59.56 57.332 59.7 55.952 58.7C54.942 57.98 53.952 57.45 53.782 55.88C53.582 54.02 55.162 52.41 56.412 52.26C58.152 52.06 58.552 53.74 58.592 53.67L58.212 54.43C58.082 54.68 57.892 55.22 57.982 55.46C58.272 56.22 60.802 55.42 60.962 55.03C62.312 51.08 58.212 49.11 55.222 47.91C54.482 47.61 54.052 47.41 53.512 46.86C53.512 46.82 53.472 47.4 53.382 47.32L52.812 46.86C51.8419 46.98 50.492 46.9 49.482 46.56L48.3719 46.19C48.1219 46.11 48.132 45.7 48.032 45.25L47.592 45.96C47.482 46.14 46.932 45.89 46.702 45.88L44.512 45.73C43.092 45.63 41.132 45.15 39.752 44.46L35.632 42.4L35.672 42.41Z" fill="black"/>
<path d="M149.942 43.32C149.652 43.92 149.132 44.32 148.422 44.56L147.872 44.75C147.742 44.79 147.652 44.47 147.502 44.21C146.972 45.64 145.972 45.7 143.662 46.45C140.722 47.4 138.962 46.83 136.592 47.28L131.822 48.18C129.892 48.55 128.102 49.72 126.422 50.73C125.502 51.28 125.082 52.16 124.642 53.09C124.052 54.31 124.172 55.81 125.682 56.34C126.252 56.54 127.302 56.43 127.842 56.22C127.492 55.29 127.172 54.35 127.182 53.49C128.022 52.94 129.212 52.86 130.212 53.02L131.722 55.15C132.102 55.69 131.682 56.48 131.522 57.05C131.202 58.2 130.752 59.11 129.432 59.56C128.262 59.96 126.572 60.41 125.672 59.42C125.102 58.8 124.432 58.58 123.522 58.16C122.792 57.82 121.252 55.55 121.852 54.2C121.372 55.28 120.182 48.42 124.292 46.03C127.382 44.23 123.042 45.48 128.622 43.62C129.892 43.2 131.112 42.57 132.412 41.97L138.242 39.31C138.772 39.07 139.502 38.57 140.012 38.21L141.002 37.52L142.542 35.53C143.402 34.41 144.212 32.93 144.592 31.34L145.842 26.15C146.202 24.65 146.512 23.08 147.142 21.69L148.062 19.67C148.362 19.02 148.702 18.18 149.062 17.64L149.952 16.33C151.632 13.87 154.992 11.04 157.552 9.66002C159.332 8.70002 161.452 8.22002 163.382 7.54002C163.902 7.67002 164.052 7.7 163.392 7.89L163.822 8.11003C163.952 8.18003 164.062 7.86003 164.232 7.61003C164.942 7.17003 166.022 7.33 166.772 7.71L166.062 7.92003L167.022 8.49998C165.802 10.42 166.052 8.53998 161.822 10.62C157.592 12.7 160.372 10.46 155.972 13.79C155.442 14.19 154.812 14.97 154.292 15.45C153.632 16.07 153.422 16.55 153.682 17.03C154.342 18.23 154.932 17.81 155.792 17.46C158.492 16.37 165.372 14.37 167.312 17.92C166.162 19.11 164.492 18.69 163.182 18.96L159.552 19.69C158.142 19.98 156.942 20.98 155.852 21.88L154.772 21.9C154.982 22.32 154.862 22.72 154.602 22.82L153.442 23.23C153.402 23.18 153.612 23.47 153.672 23.56C153.732 23.65 153.582 23.86 153.452 24.04C153.182 24.44 153.342 25.26 153.902 25.46C155.922 26.18 155.892 23.8 159.052 24.61L159.842 23.78L163.282 23.24C163.632 23.19 164.392 23.71 164.672 23.89C163.832 25.34 162.592 25.58 161.292 26.18L156.992 28.18C156.552 28.39 155.982 28.81 155.522 29.11H154.622C154.412 29.13 154.352 29.94 154.132 30.12C152.312 31.59 148.842 34.8 147.482 36.66L145.762 39.03C145.392 39.54 144.852 39.8 145.132 40.57C148.232 40.07 149.972 38.95 152.812 37.39C155.732 35.79 156.012 34.31 157.982 33.85C158.422 36.21 157.152 38.24 155.282 39.44C155.112 39.76 154.782 40.25 154.492 40.51L152.802 42.04C152.802 42.04 149.792 44.43 149.932 43.3L149.942 43.32Z" fill="black"/>
<path d="M57.8419 16.49L54.8119 16.73C53.6219 16.82 52.6319 16.63 51.4519 16.37C49.9419 16.05 48.4719 15.86 47.2519 14.94C51.4619 14.72 54.5219 15.81 58.4919 13.91C59.7619 13.3 59.0819 10.18 63.4019 9.51001L68.0419 8.79004C68.3719 8.74004 69.0219 9.14005 69.4219 9.36005C69.9119 9.46005 70.8119 9.33003 71.3319 9.22003L70.3119 8.87H73.0919L73.1619 9.17999C73.1819 9.25999 73.5219 9.37999 73.5419 9.29999L73.6619 8.83002L78.6519 9.26001L80.8119 9.65002C81.6419 9.80002 82.1219 10.16 82.5819 10.73C83.5519 11.94 83.7419 13.07 83.9419 14.57C84.0919 15.7 84.1019 16.58 83.9419 17.78C83.8019 18.85 84.0719 21.29 83.4219 21.31L79.2619 21.44C78.4919 21.46 77.6819 21.61 76.8819 21.7L75.8919 21.08C74.6319 21.47 72.8619 20.86 72.1219 19.71C72.0119 19.53 71.6019 19.19 71.4719 19.03C71.0319 18.5 72.2519 17.93 71.7519 17.36C72.9419 16.8 74.4019 16.29 75.7719 15.91L75.8119 13.78L70.9419 13.52C69.6319 13.45 68.3719 13.74 67.0119 13.9L65.6119 13.84L64.8119 14.33C64.6319 14.44 64.4619 13.98 64.2819 13.84C63.9619 14.85 63.5119 15.84 63.5219 16.64C63.5219 17.65 63.6519 18.61 62.4619 18.9C60.8619 19.29 59.1019 19.52 57.4319 19.64L51.2319 20.06C49.1519 20.2 46.3419 19.96 44.8719 18.59L42.1119 16.02C41.8619 15.79 41.8519 15.04 41.6819 14.78C41.1619 13.98 39.7319 12.51 40.0019 12.01C40.6019 11.27 41.6919 11.21 42.4619 11.42C45.2719 12.17 48.8819 13.02 51.7119 13.28L53.4819 13.45C54.1719 13.51 55.6519 13.14 56.1619 12.66L57.5919 11.33C57.0919 9.88002 57.2819 8.23005 58.6519 7.36005L59.7719 6.65002L61.4019 6.73999C62.4219 6.78999 63.4519 6.88 64.4619 6.87L64.4419 4.56C62.6719 2.34 62.8819 4.16004 60.8719 3.35004C61.0119 2.02004 62.1819 1.74 63.2419 1.44C65.3019 0.870002 67.6819 0.710042 69.3819 2.23004C69.3719 2.92004 69.2819 4.11004 69.7919 4.60004C70.5819 5.35004 71.8219 4.94002 72.4319 4.40002L72.3819 2.32001C72.3719 1.86001 73.5019 1.54004 73.9619 1.48004L79.7119 0.75C80.0019 1.4 80.2219 2.01003 80.4619 2.84003C79.0819 3.47003 76.1619 3.15003 76.2919 5.34003C76.3919 7.01003 81.2519 6.10003 82.6319 6.03003C83.4719 5.13003 83.1619 3.74004 83.2219 2.67004C83.2719 1.67004 83.2919 1.18 83.2719 0L85.0219 0.179993C87.9819 0.489993 87.5619 6.36004 87.5919 8.42004C88.1219 8.57004 89.3319 8.71999 89.8719 8.48999C90.9219 7.44999 91.4219 6.05003 91.5619 4.53003C92.6219 5.75003 92.7519 8.25002 92.4419 9.96002C92.0319 12.23 90.3019 12.23 87.6419 12.61C87.1319 12.68 87.4219 14.43 88.0719 14.25C89.1219 13.96 89.6019 14.66 90.1419 14.75C90.9819 14.88 92.1219 15.37 92.4219 16.33L92.8419 17.69C92.4219 17.74 91.0519 17.34 90.4319 17.43L89.0619 17.65C88.6419 17.72 87.6319 17.63 87.5419 18.01L87.0619 20.78C86.9619 21.33 85.1219 21.59 84.9319 21.06C84.4119 19.57 84.8119 17.7 85.2919 16.33C85.2119 15.79 85.1319 15.09 85.1719 14.73C84.7019 15.28 84.3919 11.53 83.8919 10.21C82.7219 9.40002 81.3919 9 79.9019 8.63L78.5319 7.90002L78.0719 8.45001C77.9719 8.57001 77.5519 8.47001 77.3319 8.45001L74.4719 8.26001C73.4919 8.20001 72.4619 8.15001 71.6819 7.95001C71.9719 8.32001 67.3719 8.26001 66.6919 8.32001C65.2319 8.45001 63.8219 8.73001 62.3819 9.01001C60.7019 9.33001 59.1419 10.43 58.6519 12.11C58.0419 14.22 54.6819 14.15 53.8219 14.21C50.2819 14.48 52.0819 14.37 48.8919 14.04C47.1619 13.86 45.6919 13.68 43.8819 13.76L44.4919 15.42C45.1119 14.86 46.0319 15.39 46.6719 16.24L46.9019 15.91C46.9619 15.82 47.2719 15.93 47.4219 15.97L50.0719 16.77C52.5419 17.52 59.0219 17.92 61.0919 15.99C60.9319 14.51 62.1819 13.04 63.5319 12.94C63.7819 12.92 64.3919 12.49 64.6519 12.48H68.8519L71.0819 12.2H74.9419C75.8519 12.21 77.0319 12.02 77.8919 12.38C77.9419 13.4 77.5619 14.73 78.0519 15.45C78.5819 16.24 80.0019 16.5 80.5819 15.67L78.9319 15.2C78.4819 15.07 78.3119 13.9 78.6219 13.42C78.9019 12.99 79.8619 12.65 80.4219 12.79L81.2619 14.31L81.2219 16.8C81.1719 19.79 75.6219 18.63 73.4919 18.91C73.7619 19.96 74.5019 19.4 75.1119 19.44C77.2419 19.59 79.5819 19.8 81.5619 18.79C82.4819 18.32 82.2419 16.85 82.1019 16.01C81.9119 14.86 82.0919 13.42 81.4919 12.53C80.4119 10.92 75.7319 11.52 73.9019 11.56L67.7119 11.67C67.3419 11.67 66.7919 11.72 66.4819 11.75L63.2419 12.08C61.9319 12.21 60.9719 13.49 60.6819 14.59C60.3219 15.99 59.2519 16.38 57.8619 16.48L57.8419 16.49Z" fill="black"/>
<path d="M122.862 16.6299C122.782 14.7799 121.062 14.9999 119.572 13.3799C121.362 12.7599 124.612 13.2299 124.932 15.0199C125.032 15.5999 125.102 16.9 125.622 17.11C128.512 18.28 129.082 17.4399 129.952 18.6499C130.012 18.7399 130.132 18.3599 130.192 18.2599H132.202C132.912 18.2599 133.622 18.26 134.282 18.11L137.922 17.3399C140.052 16.8899 140.962 16.4199 142.862 15.4599C141.972 14.4199 141.012 14.7399 139.932 14.8299L137.442 15.03C135.262 15.21 133.482 15.5599 130.732 14.8099C126.422 13.6199 128.952 13.23 126.982 11.29C123.522 7.88996 118.522 9.40991 113.972 8.48991C111.162 7.91991 113.292 9.15991 111.312 8.23991C111.182 8.17991 110.852 8.55993 110.702 8.62993L105.372 8.94993C103.152 9.07993 101.822 11.5199 101.562 13.7999C101.062 18.3499 101.642 17.4699 101.332 21.4499L99.2621 21.1299L99.6121 20.7699C99.6121 20.7699 99.8221 20.5099 99.7621 20.5099L99.2521 20.4599C99.0721 19.8199 98.7821 18.7099 98.3821 18.1199C97.9821 17.5299 94.4621 17.69 93.5621 17.85C93.3421 15.59 95.8021 14.2499 98.1621 14.3199C98.8121 14.3399 99.0821 12.7399 98.5121 12.5799C96.7721 12.4499 94.5221 11.9999 94.0221 10.0599C93.5221 8.11992 93.7821 6.05994 95.0821 4.32994L95.6621 7.55992C95.8921 7.92992 96.5321 8.41992 96.9121 8.55992C97.3921 8.74992 98.5221 8.41992 98.5821 7.93992L98.9621 4.90996L99.0221 3.32994C99.0621 2.23994 99.6121 1.27992 100.512 0.619916C101.172 0.139916 102.372 0.0599138 103.362 0.179914L103.172 4.02995C103.142 4.65995 103.112 5.12991 103.312 5.48991C103.632 6.06991 104.382 6.21993 104.942 6.31993L107.572 6.79991C108.042 6.88991 108.962 6.70992 109.582 6.61992C110.202 6.52992 110.442 4.59993 109.882 4.31993C107.532 3.15993 105.642 3.70991 106.142 1.98991C106.232 1.69991 106.732 1.05997 107.062 1.10997L112.302 1.81993C112.912 1.89993 113.582 2.04996 113.922 2.47996C114.752 3.49996 113.662 4.77993 114.552 5.31993C115.072 5.63993 116.312 5.61993 116.752 5.00993C117.132 4.47993 117.242 3.37993 117.322 2.75993C118.922 0.769931 121.152 1.77993 123.712 2.19993C124.542 2.33993 125.012 2.51995 125.492 3.27995L125.802 3.76994C126.372 4.65994 122.932 3.56994 122.192 4.76994L121.752 7.07994C123.042 8.68994 125.402 6.17996 127.712 7.72996C128.682 8.37996 129.342 10.82 128.992 11.04L128.532 11.3299C128.852 11.5899 129.252 12.0199 129.452 12.4399C130.402 14.4899 131.522 13.2199 132.082 14.5099C133.462 13.7799 135.192 14.1699 136.472 13.9899L138.822 13.66C141.622 13.27 144.462 12.13 146.622 12.98C146.532 13.42 146.292 13.8599 146.072 14.2099C144.112 17.2099 141.652 20.9399 137.632 20.9399H135.222L132.962 20.8999C132.242 20.8899 127.162 20.6299 127.522 19.8799L127.332 20.2699L124.052 19.54C122.952 19.29 122.902 17.49 122.862 16.67V16.6299Z" fill="black"/>
<path d="M105.052 18.19C104.982 16.66 104.732 12.54 106.732 12.97C107.602 13.16 107.752 14.5 107.712 15.13C107.672 15.8 105.952 15.36 105.992 15.82C106.012 16 106.302 16.54 106.482 16.54C107.092 16.52 108.192 15.97 108.452 15.43C108.852 14.58 108.812 13.64 108.332 12.5C109.432 12.5 110.622 12.53 111.692 12.61L114.372 12.81L116.682 12.97C117.412 13.02 118.592 12.48 119.152 13.17C119.272 13.32 119.312 13.84 119.482 13.92L120.322 14.35C121.012 14.74 115.602 13.51 116.632 14.12C116.432 14 116.132 13.78 115.882 13.6C115.452 13.71 114.772 13.85 114.242 13.87L111.792 13.98C111.162 14.01 110.612 14.67 110.572 15.2C110.452 16.99 113.102 16.46 114.342 17.9C115.082 18.75 114.542 20.4 113.652 20.77L112.242 21.35C110.482 22.07 108.602 21.88 106.712 21.79C105.302 21.73 103.852 21.96 102.532 21.38C102.242 19.98 102.142 18.53 102.032 17.06C101.962 16.17 102.282 15.14 102.452 14.18C102.692 12.81 103.042 11.47 104.052 10.48C104.162 10.38 104.572 10.08 104.702 10.15L105.202 10.39C105.942 9.36999 107.252 9.47998 108.412 9.43998L111.012 9.34001H112.692C116.762 9.31001 121.772 9.13997 125.672 11.18C126.632 11.68 127.062 14.36 128.102 14.89C131.072 16.39 132.502 15.53 135.882 16C136.912 16.14 137.932 15.99 139.172 15.98C136.482 17.57 128.252 18.47 125.892 16.14C125.942 14.32 124.672 12.87 122.762 12.68L117.352 12.15L111.192 11.86L107.812 11.75C107.202 11.73 106.022 11.99 105.472 12.19C103.952 12.76 104.352 14.58 104.182 15.75C104.032 16.83 103.762 18.06 104.712 19.08C105.412 19.82 111.772 20.36 112.802 19.48C109.792 18.22 109.882 20.51 105.022 18.24L105.052 18.19Z" fill="black"/>
<path d="M112.602 38.34C113.392 38.67 114.302 39.57 114.192 40.52C114.102 41.25 112.972 41.21 112.072 41.39C112.122 41.61 112.722 42.08 113.022 42.09C113.802 42.12 114.982 41.41 114.952 40.15L114.922 38.82L116.752 39.14C117.112 39.2 117.862 39 118.112 38.8C118.462 38.51 118.662 37.91 118.512 37.38C117.672 38.38 117.162 38.77 115.952 38.48C115.352 38.34 114.812 37.17 114.882 36.38C114.972 35.45 116.472 34.02 117.672 34.1C119.612 34.23 120.532 35.46 120.992 37.21C121.202 38.02 121.502 38.88 120.982 39.61C120.322 40.53 119.702 41.29 118.872 42.07L118.472 42.44C118.372 42.53 118.042 42.06 118.092 42.13C117.982 43.43 115.382 44.47 113.832 44.37C112.282 44.27 111.332 43.75 110.662 42.39C110.052 41.13 109.862 40.05 110.982 38.9C111.362 38.51 111.892 38.06 112.582 38.36L112.602 38.34Z" fill="black"/>
<path d="M72.742 38.73L72.812 38.36C72.842 38.21 73.332 37.94 73.492 37.94C74.192 37.94 75.192 38.45 75.462 39.13C75.912 40.26 75.632 42.03 74.682 42.79C74.362 43.04 73.652 43.63 73.282 43.77C69.532 45.12 64.792 40.5 64.772 37.65C64.772 36.49 65.5119 35.44 66.3719 34.53L66.912 33.97C67.022 33.86 67.352 34.33 67.362 34.31C67.722 33.77 68.202 33.57 68.782 33.68C69.682 33.84 71.572 35.12 70.952 37.11C70.712 37.88 69.562 38.45 68.602 38.11L67.742 37.03C67.462 37.24 67.332 37.32 67.262 37.42C66.622 38.36 69.732 39.26 71.092 38.63C70.532 40.07 71.202 41.06 72.402 41.78C72.892 42.07 73.252 42.25 73.682 42.01C72.832 40.51 71.322 40.86 71.752 39.43C71.852 39.09 72.312 38.85 72.742 38.73Z" fill="black"/>
<path d="M31.1821 67.4301L32.3921 65.9401C33.5721 66.0001 34.5421 66.7601 35.0321 67.6901C35.5721 68.7301 35.3921 69.8701 34.9121 70.9101C34.2721 72.3101 33.0921 72.9101 31.7321 72.9201C31.2421 72.9201 30.3121 73.5501 29.8121 73.3601C26.3421 72.0001 23.9821 69.4801 21.9421 66.5701C21.4921 65.9301 21.0021 65.3001 20.5921 64.5801L18.3821 60.7901L17.7521 59.7101C17.0721 58.5501 16.4421 57.3201 15.9421 56.0601L15.4821 54.9001L14.8121 53.2901C14.2821 52.0001 13.8021 50.7301 13.3721 49.4001L12.5121 46.7301C11.9421 44.9701 11.5621 43.2401 11.1321 41.4301L10.6221 39.3201C10.2921 37.9501 10.0521 36.65 9.8421 35.3L9.40209 32.4501L9.00207 29.8401C8.91207 29.2501 9.07207 28.5301 9.19207 27.9801C9.28207 27.5601 8.24207 26.8301 9.25207 26.3101C9.96207 27.7601 10.3021 29.3101 10.8121 30.7501L13.2221 37.5401C13.4121 38.0901 13.5121 39.0401 13.7321 39.4601L14.8121 41.4301C15.5121 42.7101 16.0721 43.9901 16.5821 45.3601C16.9021 46.2201 17.7621 47.0401 17.6821 48.1501L18.2621 48.6501C18.5421 49.4701 18.8921 50.0601 19.3521 50.7101L20.7021 52.6001L20.5721 52.8101C20.5421 52.8601 20.3021 53.0201 20.3721 53.0101C21.7821 52.8901 21.9121 54.4201 22.8821 55.5301L24.0521 56.8601C24.7621 57.6701 25.7621 58.4501 26.2621 59.3901C28.3921 63.3801 28.9721 62.6601 31.8621 65.1201C31.4421 65.9601 30.9321 66.4201 30.4021 66.7001C30.6621 67.6201 29.9121 68.7201 31.0721 69.4001L31.1721 67.4501L31.1821 67.4301Z" fill="black"/>
<path d="M154.262 70.15L154.282 70.7C154.292 71.08 156.402 70.1099 153.712 66.4899C156.202 64.4699 156.952 64.97 158.462 62.41L159.462 60.72C160.152 59.54 161.502 58.64 162.362 57.54L166.242 52.59L167.632 50.47C167.632 50.47 169.782 45.9099 170.542 44.5499C171.072 43.6099 171.482 42.39 171.882 41.35C172.512 39.7 173.212 38.18 173.952 36.54C175.072 34.07 175.432 31.13 176.742 28.48C177.952 29.4 177.022 30.6399 176.912 31.5499L176.462 35.16C176.362 35.98 176.212 36.8 176.022 37.6L174.632 43.4399C173.742 47.1899 172.682 50.77 171.082 54.28L168.742 59.42C168.462 60.03 168.172 60.6999 167.842 61.3099L166.422 63.9299C165.822 65.0499 164.752 65.9599 164.312 66.7399C163.672 67.8699 162.842 69.35 161.832 70.35C160.062 72.1 158.042 74.27 155.462 74.73C153.632 75.05 151.592 74.12 150.602 72.59C149.482 70.85 150.392 68.4199 152.192 67.5099C152.662 67.2799 153.602 67.8699 153.852 68.2499C154.202 68.7899 154.292 69.44 154.252 70.15H154.262Z" fill="black"/>
<path d="M115.372 31.12C115.052 31 114.692 30.06 114.832 29.76C114.972 29.46 115.312 29.14 115.782 28.74C116.302 28.3 117.262 28.73 117.622 29.2C118.062 29.78 118.112 30.84 117.392 31.21C116.982 31.42 115.972 31.34 115.382 31.11L115.372 31.12Z" fill="black"/>
<path d="M112.732 30.5401L112.282 30.4601C112.162 30.4401 111.862 30.3301 111.922 30.2201C112.512 29.2501 113.692 28.7701 114.042 29.4001C114.182 29.6401 114.012 30.4801 113.792 30.6101C113.572 30.7401 113.212 30.6301 112.732 30.5401Z" fill="black"/>
<path d="M120.822 30.32L119.552 30.56C119.442 30.58 119.202 30.59 119.102 30.59C118.952 30.59 118.952 29.93 119.062 29.82C119.382 29.5 120.402 29.61 120.822 30.32Z" fill="black"/>
<path d="M70.9519 29.9201C70.6619 30.2301 69.9019 30.7 69.4619 30.95C68.7819 31.35 68.0519 30.0201 68.1219 29.4201C68.2319 28.5101 69.1619 27.97 69.9019 28.02C70.7219 28.07 71.6819 29.1301 70.9619 29.9201H70.9519Z" fill="black"/>
<path d="M74.3319 30.1799H72.2919C72.0819 29.9699 71.982 29.09 72.052 28.73C73.042 28.8 73.9919 29.0099 74.3219 30.1799H74.3319Z" fill="black"/>
<path d="M67.1319 29.7599C66.7619 30.3099 65.8819 30.3399 65.2219 29.8099C65.5919 29.5399 66.3819 29.0499 66.7419 28.8799C66.9219 28.7999 67.2519 29.5899 67.1319 29.7599Z" fill="black"/>
</svg>
