<svg width="175" height="57" viewBox="0 0 175 57" fill="none" xmlns="http://www.w3.org/2000/svg">
<path d="M60.76 54.1366L63.18 52.0266C63.84 51.4466 64.44 51.1266 64.26 50.4066C64.03 49.5266 63.56 49.0766 62.65 48.9766C59.46 48.6066 58.98 49.3866 55.37 49.1366L55.2 52.1566C53.14 56.5266 45.08 54.9066 45.93 53.7966C46.05 53.6366 46.23 53.4066 46.47 53.2066L48.66 51.4566C49.98 50.3966 49.62 47.8466 48.31 47.0566C47.59 46.6266 47.08 46.4166 46.58 45.7766C46.51 45.8066 46.38 46.1266 46.25 46.0766L45.47 45.7666C45.07 45.6066 44.74 45.1166 44.58 44.6166C44.88 46.4466 38.36 39.9266 38.9 39.8666L36.58 38.5466C36.61 38.3566 36.66 37.9266 36.66 37.9766C35.86 38.0266 35.34 37.9866 34.63 37.8166C33.01 37.4266 31.39 37.3866 29.69 37.3866C27.41 37.3766 25.12 38.4266 24.41 40.8866C24.26 41.4066 24.12 41.9966 24.27 42.5066L24.83 44.4366C25.16 45.5866 26.53 46.5666 27.72 46.9466C29.62 47.5566 31.63 45.9666 31.99 44.1066C32.19 43.0466 32.14 42.2566 31.89 41.3966C33.14 41.2666 33.99 41.5466 34.8 42.3266C35.54 43.0566 36.47 43.6866 36.86 44.6266C37.8 46.8666 38.45 48.6266 36.78 50.4566C35.86 51.4666 34.51 52.6866 33.27 52.5866C32.9 52.9866 32.38 53.2166 31.8 53.3966C29.35 54.1166 27.14 54.1766 24.75 53.3966C23.32 52.9366 22.28 52.2766 21.26 51.1666C20.5 50.3366 19.94 49.5766 19.6 48.5066C18.88 46.2866 18.56 44.7166 18.67 42.2866L18.77 40.0566C18.89 37.3666 18.96 38.2266 19.6 35.8166L20.06 34.0566C20.74 32.8166 22.1 32.9566 23.18 32.6066C24.81 32.0866 26.26 31.8966 27.98 32.0866L31.05 32.4366L31.82 32.5066C32.5 32.5666 31.05 30.4766 31.27 29.9066L30.62 29.5766C30.44 29.4866 30.35 28.9866 30.26 28.6866L26.58 28.6366L22.47 28.7966L17.87 29.0566L15.89 29.0766L15.43 29.0566C15.32 29.0566 15.19 29.2166 15 29.3566C14.41 29.8066 14.5 30.2266 14.56 30.9466L14.79 34.0566C14.89 35.4466 15.05 36.9066 15.13 38.4666L15.44 44.9166C15.54 47.1066 15.63 49.8166 14.94 51.9666L14.03 53.2966C13.84 53.6466 12.91 55.2866 10.85 55.9366C8.98998 56.5266 7.43997 55.9166 7.02997 55.7466C6.63997 55.5066 6.25999 55.2766 5.87 55.0366C3.92 51.0766 1.96001 47.1266 0.0100098 43.1666C2.90001 45.9766 5.77998 48.7766 8.66998 51.5866C9.82998 51.4166 11.62 49.6866 11.98 49.1266C12.65 48.0866 12.6 43.6366 12.31 42.3366C12.09 41.3366 11.96 40.3966 11.75 39.3066L11.23 36.5466L10.76 33.5566L10.68 31.5666C10.63 30.2066 10.17 29.0466 11.05 27.9066C11.89 26.8266 12.8 26.7466 14.04 26.6466C14.67 26.5866 19.36 25.9466 19.44 26.9466L20.43 26.2766C21.3 26.1766 22.47 26.0766 23.42 26.0566L28.73 25.9566C27.9 25.1366 26.85 25.6666 25.9 25.6766L24.12 25.6966C22.49 25.7166 21.03 25.6766 19.4 25.9666C18.63 26.1066 17.69 25.8966 17.05 25.9666L13.13 26.4566C12.06 26.5866 10.85 26.6166 10.32 27.8966C10.02 28.6266 9.71 29.9666 9.75 30.8966C9.8 32.0366 10.55 33.2266 9.95996 34.4466C9.61996 35.1566 8.75001 35.9066 8.01001 36.2666C7.26001 36.6266 6.19997 36.0466 5.83997 35.4766C5.72997 35.3166 5.03996 35.3266 5.07996 35.5366C5.20996 36.1366 5.81996 36.8066 6.26996 36.9766C6.81996 37.1866 7.83996 37.1066 8.32996 36.8166L10.52 35.5166L10.92 38.3066L11.32 40.6066C11.53 41.8066 11.79 42.9766 11.84 44.2366L11.92 46.2766C11.96 47.3566 11.68 48.0766 11 48.9066C10.52 49.5066 9.9 50.3066 9.31 50.5166C9.19 50.4466 8.78996 50.0966 8.76996 50.1966L8.64001 50.8466C8.15001 51.0866 7.22001 51.0866 6.51001 50.9366L0 43.1566C2.51 43.8766 5.01997 44.6066 7.52997 45.3266C7.68997 43.9266 7.85001 42.5166 8.01001 41.1166C8.00001 40.3966 7.82 39.2666 7.31 38.8666C4.89 38.8166 2.62996 35.4066 3.76996 33.5766C4.78996 33.8666 6.15001 34.2466 6.89001 33.2766C7.18001 32.7466 7.46997 31.7066 7.58997 31.2066C6.90997 29.5766 6.07001 23.6166 8.89001 24.1066L9.13 24.7066C9.45 25.5066 9.86001 23.9466 10.32 24.0166C10.52 24.0466 10.81 24.3566 10.93 24.5066C11.11 24.3166 11.66 23.9366 11.97 23.9366L19.59 23.8266L24.77 23.7566L27.03 23.8066C27.3 23.8066 27.87 23.6066 27.98 23.3866C28.09 23.1666 27.98 22.6866 27.89 22.3666C27.18 20.0866 25.02 20.3466 24.1 20.1966L21.88 19.8266L18.73 19.7766C14.59 19.7166 11.09 19.3366 7.52997 16.9866C6.38997 16.2366 4.47999 13.7666 3.92999 12.5666L3.32996 11.2566C3.02996 10.6066 2.88998 9.8966 3.22998 9.2266C3.88998 7.9166 7.21997 7.94664 7.71997 8.70664L9.63 11.5866C10.99 13.6366 12.38 13.9166 14.65 14.0766C15.42 14.1266 16.29 13.9266 16.97 14.0966L15.42 14.4766C16.6 14.5866 17.65 14.5966 19 14.4466L17.14 14.1266C17.77 13.8566 19.46 13.7966 19.96 14.7166C20.01 14.8066 20.17 14.0966 20.27 14.0966L23.88 13.8566C24.11 13.8366 24.5 13.3566 24.32 13.2666C23.82 13.0066 23.69 12.2966 23.43 11.9766C22.59 10.9266 21.37 9.78661 20.4 8.86661C20.24 8.71661 19.64 8.51661 19.46 8.36661C16.41 5.98661 14.07 5.80659 10.73 4.21659C10.85 3.96659 11.11 3.56659 11.26 3.65659L11.92 4.05661C11.94 3.89661 12.39 3.48661 12.64 3.48661L17.41 3.53659C18.37 3.54659 19.42 3.90658 20.34 4.08658C23.78 4.73658 26.93 5.85658 29.85 7.64658C32.49 9.27658 32.41 9.97661 34.57 11.4866C34.93 11.7466 35.38 12.6766 35.81 12.9266C37.29 13.8066 38.28 15.1266 39.42 16.5166L41.01 18.4666L42.49 20.6166C42.81 21.0766 43.44 21.6166 43.84 22.0866L45.72 24.3466C47.41 26.3866 47.72 25.7066 49.24 27.4766C49.51 27.6966 50.08 28.0966 50.47 28.3066L53.64 29.9366C53.75 29.9866 53.87 30.5166 53.83 30.4366C55.14 29.8166 55.98 30.9666 58.75 30.2766C62.64 29.3066 63.1 25.8466 62.6 22.4666L62.31 20.5566L61.37 18.4966C60.83 17.3166 60.31 16.1266 59.88 14.8966C58.81 11.7966 60.4 9.04662 63.18 7.62662C63.34 6.10662 61.68 5.1266 60.38 4.7266C58.31 4.0866 58.33 3.97662 56.16 5.18662L54.79 6.59659C55 7.19659 54.46 8.04662 54.4 8.68662C54.27 10.0866 54.42 11.4966 54 12.7766C53.78 13.4566 53.65 13.9766 53.5 14.6666C53.06 16.6966 51.36 18.5266 49.37 19.1366C48.06 19.5366 46.7 19.1366 45.53 18.6966C44.59 18.3366 44.09 17.5966 43.51 16.8366C42.11 15.0266 41.29 13.3066 41.88 11.0066C42.02 10.4566 42.34 9.52659 42.76 9.15659C42.93 9.00659 43.6 9.4566 43.6 9.6666C43.6 9.8766 43.5 10.1266 43.38 10.4766L44.56 12.4966C44.95 13.1566 45.51 13.9566 46 14.6166C48.99 15.2866 48.66 14.1166 50.16 14.5966L50.34 8.70664C50.39 7.20664 50.78 5.92658 51.28 4.58658C52.21 2.07658 53.15 1.35659 55.6 0.656589C57.71 0.046589 59.65 -0.0233817 61.72 0.936618C62.16 1.13662 63.05 1.34659 63.25 1.71659L63.51 2.18662C63.51 2.18662 63.56 2.18659 63.59 2.09659L63.73 1.64658C64.28 2.06658 65.14 2.67658 65.56 3.27658L66.84 5.12662C67.58 6.19662 68.31 6.60659 69.58 6.78659C70.56 6.92659 71.67 7.12659 72.53 7.09659C72.32 5.58659 73.91 3.54659 74.73 3.28659C76.61 2.68659 78.37 2.59658 80.34 2.33658C82.21 2.09658 83.14 2.10659 83.52 3.40659C83.54 3.47659 83.67 3.44663 83.7 3.38663L83.9 2.96659C84.68 3.37659 85.37 3.99658 85.86 4.77658L86.42 5.65659C87.09 6.01659 87.41 6.8866 86.96 7.4766C86.62 7.3566 86.13 7.05662 85.84 6.81662C84.96 7.55662 84.91 6.11659 83.5 6.71659C83.37 6.76659 82.88 6.80662 82.84 6.68662L82.67 6.14658C81.98 6.59658 81.39 6.72658 80.56 6.77658C79.15 6.86658 77.75 7.88659 77.04 9.15659C76.23 10.5966 76.45 12.4266 76.78 14.0266L77.66 18.2866C77.98 19.8366 77.17 20.5266 76.05 21.1766C74.38 23.3366 75.36 24.3966 76.15 26.5066C77.29 27.1666 78.07 27.9266 78.97 28.8166C79.2 29.0466 79.77 29.4066 79.89 29.7066L80.76 31.9166C81.1 32.7866 81.23 34.0466 80.88 34.9666C79.76 37.9166 80.46 37.5966 79.2 39.0866C77.61 40.9866 77.36 41.2666 75.51 42.2766C74.6 42.7766 73.44 43.2766 72.46 43.1066C70.55 42.7666 69.26 41.6766 67.98 40.3666C67.1 39.4666 67.1 38.3966 66.88 37.3166C66.57 35.7966 66.57 34.6066 67.92 33.5766C68.87 32.8566 69.92 32.1066 71.18 32.3566C72.43 32.6066 73.21 33.1066 73.64 34.3566C74.07 35.5766 74.14 37.3466 72.8 37.9266C72.05 38.2466 71.22 38.1966 70.44 38.0566C70.83 38.8966 72.33 39.3966 73.14 38.8266C73.77 38.3866 74.47 37.2966 74.58 36.5866C74.92 34.2166 73.55 32.1766 71.33 31.6066L72.42 29.7666C73.2 28.4466 72.9 27.4866 72.7 25.8866C72.67 25.6266 72.33 25.3266 72.14 25.0866C71.01 23.7366 69.79 23.2966 68.04 23.7166C67.21 23.9166 66.55 24.3066 66.14 25.1966C65.88 25.7566 66.07 26.7866 66.68 27.2466C67.77 28.0866 69.48 27.7666 70 26.8966C70.1 26.7266 69.64 26.2866 69.53 26.3966L68.86 27.0666C68.41 27.5166 67.52 27.1566 67.15 26.7166C66.64 26.1266 66.82 25.2566 67.32 24.8466C68.52 23.8566 69.95 23.9566 71.02 25.0566C72.14 26.2166 72.81 28.1366 71.57 28.8466L71.76 29.1866C71.68 29.0366 70.92 31.2566 69.65 31.5866L69.05 31.1366L68.7 31.8366C68.7 31.8366 67.06 32.4266 66.16 31.7966C65.62 31.4166 65.2 30.6966 65.38 29.9966C65.51 29.4966 66.12 29.0166 66.5 28.9266C67.04 28.7966 67.89 28.9266 68.12 29.3366L68.45 29.9366C68.51 30.0366 68.95 29.8266 68.95 29.7166C68.95 29.3466 68.62 28.6566 68.3 28.4966C67.26 27.9666 65.57 28.4366 65.04 29.1366C63.93 30.5766 65.84 31.7066 64.22 32.4466L60.52 34.1366C59.97 34.3866 58.67 34.2966 58.06 34.4366C57.69 35.0266 57.88 34.9866 58.31 34.7366C61.87 34.8166 62.91 33.1266 65.96 32.3766C65 32.4666 69.76 33.4766 67.42 33.2666L66.89 33.2166L66.33 34.7666C65.34 37.4966 67.26 41.7166 70.13 42.8666C68.88 43.8766 67.26 43.7766 65.74 44.0666L63.46 44.4966C61.63 44.8466 59.43 44.8666 57.54 44.6266L54.08 44.1766C53.96 44.1566 53.66 43.5366 53.64 43.4866L53.11 43.9166C52.97 44.0266 52.53 43.8366 52.35 43.7366L50.84 42.8766L49.36 42.4066C47.19 41.7166 45.25 39.7166 43.5 38.2966C42.11 37.1666 41.43 35.5566 40.37 34.3666C39.72 33.6266 39.22 33.0566 38.68 32.1666L37.68 30.5366L36.01 27.6966C35.55 26.9166 35.14 26.2366 34.76 25.3466L31.51 17.6866C30.64 15.6266 29.98 15.7366 29.82 13.8366C31.29 13.9066 36.93 20.3066 36.64 21.1666L37.42 21.5266C37.63 21.6266 37.59 22.1566 37.72 22.3466C38.88 23.5166 39.63 25.0566 40.81 26.2766L43.5 29.0266C45.84 31.4166 45.19 30.0966 47.45 32.3166C47.64 32.5066 48.3 32.5766 48.5 32.6866C48.7 32.7966 48.79 33.1766 48.94 33.6066L49.28 33.2966C49.53 33.0666 49.52 33.5066 51.26 33.8466C51.87 33.9666 52.07 34.3466 52.18 35.0966L52.83 34.5066C54.32 34.9066 56.02 35.2066 57.43 34.6766C55.51 34.2066 53.41 34.8766 52.27 33.4866C51.05 33.4166 49.47 32.6666 47.95 31.7366C46.78 31.0166 44.86 30.1366 44.83 29.0666C44.85 29.7166 42.1 26.8166 42 26.7066C41.22 25.8766 40.74 25.0166 40 24.1766L38.26 22.1766L37.05 20.4766L35.65 18.1966C35.18 17.4366 32.02 14.3466 31.07 13.6966C31.07 13.5866 31.1 13.1466 31.11 13.1566C31.11 13.1666 30.93 13.0566 30.84 12.9966C30.75 12.9466 30.75 13.2066 30.68 13.4666L29.85 12.6766L28.22 12.0866C28.05 12.0266 27.75 12.0366 27.6 12.0866C27.45 12.1366 27.64 12.6666 27.76 12.7866C28.75 13.7266 29.47 15.0366 29.99 16.3266C30.33 17.1566 31.08 18.0266 31.17 18.8466C31.23 19.4766 31.37 19.7166 31.63 20.2466L34.2 25.5066L36.5 29.7366L38.06 32.2366C38.53 32.9966 39.27 33.7666 39.79 34.5266L41.76 37.4066C42.19 38.0366 42.43 38.5666 43.25 38.9166C43.66 39.0866 44.12 39.7166 44.44 39.9266L46.08 41.0266C50.21 43.7966 51.13 42.5966 51.61 45.4766C51.91 47.2866 53.13 51.5766 51.42 52.3866L49.56 53.2566C47.29 54.3266 51.22 53.9366 51.48 54.1066C51.01 52.5566 53.77 53.2766 52.96 49.4166L52.05 45.0866C52.02 44.9366 51.98 44.4566 52.13 44.4266C52.32 44.3866 52.68 44.5166 52.89 44.5466L56.3 45.0666C56.93 45.1666 57.84 45.4266 58.41 45.5766C59.32 45.4166 60.2 45.3666 61.11 45.2866L65.38 44.9366L65.6 46.4566C65.66 46.9066 65.65 47.5266 65.6 47.8766C67.09 48.7566 65.7 50.1566 68.61 51.7966C69.92 52.5366 71.05 52.7066 72.55 52.4566C74.1 52.1966 75.6 52.0866 77.15 51.5366C76.35 50.8966 75.54 51.5366 74.72 51.6266L71.36 51.9666C70.8 52.0266 69.6 51.6066 69.06 51.3466C67.48 50.5866 66.95 48.8866 66.62 47.2466C66.45 46.4066 65.9 45.1266 66.92 44.5366C67.64 44.1166 69.11 44.2566 69.88 43.8666C70.97 43.3166 72.12 43.3866 73.18 43.7966C73.61 43.6666 74.38 43.5266 74.75 43.3366C77.9 41.7466 77.85 41.9266 80.28 38.8266C80.62 38.3966 80.9 37.2766 81.07 36.7666L81.56 35.2366C82.06 33.6666 81.4 32.0566 81.24 30.4666C81.16 29.6266 80.54 29.0166 79.8 28.4966C79.46 28.2566 79.05 27.8566 78.69 27.6366C77.04 26.6366 75.54 25.0166 75.82 23.0366C75.94 22.1566 76.87 21.0666 77.69 21.1066C79.74 21.2066 81.3 22.7466 82.64 24.1166L82.68 24.7466C82.69 24.9266 83.4 25.0366 83.52 25.1766C84.23 26.0266 86.88 30.6666 85.92 31.4766C87.15 33.7166 86.1 36.8766 84.75 38.8366C83.69 40.3666 82.84 41.9266 81.28 43.0066C74.97 47.3966 72.71 46.4066 70.62 47.7966C70.33 47.9966 70.19 48.9266 70.38 49.2166C71.41 50.8566 73.83 50.0766 76.03 49.6366C76.66 49.5166 77.53 49.5866 78.18 49.5666C79.61 49.5366 80.58 50.0066 81.37 51.2366C81.76 51.8366 81.82 52.3866 81.52 52.9466C80.66 54.5366 79.13 52.8266 76.91 53.2366L74.66 53.6466C74.47 53.5966 74.07 53.3366 73.9 53.3766C73.72 53.4166 73.68 53.8666 73.71 54.2466C68.31 56.3266 68.06 53.3566 66.19 53.5366C64.89 53.6666 64.58 55.5066 63.67 54.3466V55.0666C62.75 55.6166 61.46 55.2466 60.8 54.1366H60.76ZM73.72 16.2066L73.84 13.7966C73.88 12.9066 73.28 11.6366 72.94 10.7166C73.52 8.45659 76.37 6.01663 78.35 5.32663C78.5 5.27663 78.78 5.1366 78.82 5.2266L78.99 5.57663C79.62 4.85663 80.27 4.95661 81.05 5.11661C82.5 5.41661 83.79 5.6966 85.27 6.1066L85.31 5.30661C82.26 4.99661 83.6 4.59661 79.95 4.17661C79.3 4.10661 78.73 4.33659 78.08 4.65659L76.28 5.55661L75.98 5.09659C75.81 5.56659 75.62 6.13663 75.36 6.19663L74.46 6.40659C73.79 8.28659 73.87 7.06661 72.72 9.36661C72.61 9.57661 72.34 9.97661 72.13 9.99662C71.56 10.0666 69.1 8.24662 66.51 9.43662C65.37 9.95662 64.22 10.5466 63.54 11.6166C61.65 14.5966 62.69 17.8966 65.72 19.5666C65.69 19.8266 65.63 19.9966 65.72 20.0066C65.82 20.0066 66.09 20.0266 66.09 20.0266C66.09 20.0266 66.11 19.7666 66.12 19.7266C70.05 20.1266 71.62 19.5866 73.72 16.2066Z" fill="black"/>
<path d="M120.52 49.8966C120.52 49.7566 120.77 49.3367 120.85 49.2467C120.95 49.1267 120.58 48.7966 120.42 48.7966C118.33 48.7766 116.1 48.6967 114.13 48.5167C114.03 48.1867 113.92 47.8567 113.96 47.9567C112.81 49.3967 112.16 48.2366 111.51 49.5266C110.97 50.5866 112.46 51.6967 113.29 52.3867C113.79 52.8067 114.97 53.0366 114.91 53.9266C114.78 55.5766 111.29 54.7266 110.65 53.6566C110.18 52.8666 108.86 53.1967 108.16 53.7567C107.41 54.3567 106.65 54.5367 105.66 54.4967C104.71 54.4566 103.54 54.6067 102.69 54.2067C96.0501 51.1367 97.7301 54.2466 94.4401 52.8566C94.8401 52.6066 95.0001 52.5066 94.8701 52.5866L94.2701 52.2067C93.7401 51.8667 95.1801 49.5067 96.1001 49.4567L98.5101 49.3267C100.51 49.2167 103.45 50.1267 105 49.4367C105.38 49.2667 105.44 48.1367 105.24 47.7567C105.05 47.3867 104.43 46.8966 103.92 46.7766C97.8601 45.4366 93.7401 43.4066 90.4701 37.7166C89.7501 36.4666 89.3001 35.0566 89.3001 33.5966C89.3101 31.0066 89.8401 28.6667 91.1701 26.5067C91.8501 25.3967 92.3901 24.4667 93.4801 23.5767C94.3801 22.8367 94.7101 21.6967 96.7701 21.2667C96.9201 21.1367 97.2401 20.8366 97.4201 20.8566C97.6001 20.8866 98.0001 21.0866 98.1701 21.0366C98.7901 20.8666 99.6501 21.6667 99.9001 22.2467C100.28 23.1567 100.02 23.7466 99.6201 24.5866C98.8901 26.1266 97.6501 27.2766 96.0901 27.8666C94.2001 30.6066 94.8701 28.1067 94.1401 32.2667C94.0201 32.9767 93.9801 33.7266 93.9301 34.3966C94.8701 35.4266 94.7801 36.7167 95.1101 37.9467C95.2901 38.6367 96.3501 39.4167 96.7401 39.9367C98.7201 42.6567 101.53 43.1267 104.58 43.2667C105.86 43.3267 107.54 43.7866 108.76 44.1766C110.31 44.6666 108.84 49.9266 106.62 51.0866C105.99 51.4166 104.61 51.7067 103.92 51.6267L98.5601 50.9467C99.0001 52.0367 100.05 51.6066 101.01 51.7766L104.25 52.3767C105.09 52.5367 108.68 51.2766 109.28 49.2866L110.04 46.7766C110.23 46.1366 109.77 44.9967 110.62 44.5167L111.54 44.8267L114.63 44.9567C115.57 44.9967 116.61 45.0566 117.52 44.9666L119.47 44.7766L121.84 44.5466C122.27 44.5066 123.05 43.3666 123.48 44.2766C123.88 44.3266 122.74 48.8966 122.46 49.1666C123.02 50.2366 122.06 51.5567 124.3 53.0767C125.08 53.6067 126.07 53.9266 126.88 53.3566C127.76 52.7366 122.65 53.2267 123.43 48.9367L123.79 46.9367L124.39 43.8366C124.43 43.6366 125.05 43.4266 125.18 43.4166C125.44 42.8766 126.24 42.8067 126.74 42.4967L128.4 41.4467C128.96 41.0967 129.63 40.7366 130.1 40.2866C132.53 37.9766 131.55 39.7967 133.64 37.5667C134.53 35.7367 137.37 32.2966 137.97 31.2266L140.29 27.0866C141.01 25.7966 142.78 22.7767 143.27 21.3767L144.2 18.7266C144.83 16.9166 145.87 15.2567 146.87 13.6967L148.02 11.9066C147.37 11.7866 146.87 11.8566 146.39 12.1566L144.66 13.2366C143.11 14.2066 140.26 17.1567 139.29 18.7067L138.33 20.2366C137.71 21.2266 137.01 22.0167 136.26 22.9367C135.71 23.6067 135.3 24.4867 134.67 25.1267L133.14 26.6867C132.35 27.4967 131.55 28.5167 130.68 29.2067L129.4 30.2067C126.54 32.4567 121.24 34.7866 117.57 34.0866L115.32 33.6566C114.44 33.4866 111.8 32.4167 110.83 31.7567C110.84 31.1867 110.88 30.4466 110.93 29.9866C111.07 28.7366 110.55 28.2966 109.44 27.9066C108.93 27.7266 108.51 27.6867 107.96 27.9367C107.31 28.2267 106.77 28.7167 106.91 29.3767L108.75 28.4567L109.18 29.0167C109.26 29.1167 109.56 28.6766 109.67 28.7366C109.99 28.8866 110.5 29.5167 110.46 29.8767C110.36 30.7367 109.26 31.8567 108.47 31.9367C107.95 31.9867 107.4 31.6567 107.12 31.1967L106.81 31.5167C106.38 31.9567 102.6 29.2566 103.82 26.1566C104.38 24.7366 105.5 23.5366 107.1 23.8066C107.85 23.9266 108.59 24.2666 108.78 24.8066C109.05 25.5466 109.03 26.6066 108.06 26.8666C107.4 27.0466 106.41 26.4467 105.77 26.0167C105.63 26.8267 106.37 27.3167 106.97 27.4967C107.69 27.7066 108.77 27.4066 109.25 26.7966C109.59 26.3666 109.58 25.0367 109.26 24.5667C108.4 23.3167 106.8 23.0567 105.31 23.4367C103.77 23.8267 103.41 26.0966 102.65 26.6466C102.79 26.8366 102.96 27.0366 102.86 27.0566C102.76 27.0766 102.28 27.2366 102.35 27.2966L102.8 27.7366C102.88 27.8166 102.74 28.0067 102.65 28.1867L104.51 31.3666C102.5 31.6866 101.54 33.1167 101.2 34.9567C100.89 36.6667 101.65 38.2067 103.43 38.7567C103.89 38.8967 104.71 38.4367 105.13 38.0167L103.33 37.8867C102.88 37.8567 102.51 37.1766 102.29 36.7966C101.29 35.0666 102.15 33.1566 103.51 32.4166C104.44 31.9066 105.96 31.7066 106.82 32.6066C108.82 34.7066 108.89 33.0766 109.05 36.2366C109.17 38.6466 107.76 40.2266 106.09 41.6566C104.44 43.0666 102.8 43.0267 100.97 42.3867C99.3201 41.8067 98.4101 40.8466 97.3501 39.5966C95.7301 37.6966 95.0201 36.0666 94.8301 33.5866C94.5001 29.2166 97.7601 28.0766 99.4001 26.1666C99.6701 25.8466 100.01 25.1167 100.3 24.6367C100.75 23.8667 100.7 21.9366 100.08 21.2966C99.4601 20.6566 98.1801 20.4067 98.2401 19.2467C98.3101 17.7567 97.8501 17.7466 98.5001 15.6066C98.8401 14.4966 99.3501 12.4767 99.1601 11.3867C98.4101 7.09667 98.3901 9.67662 97.1401 6.71662L96.7401 6.98664C96.3701 7.23664 96.9401 6.23665 94.5301 6.36665L90.7701 6.57667C91.1201 4.83667 95.4301 4.52665 96.4101 4.80665C98.9501 5.54665 98.6801 5.54662 100.54 7.33662C102.07 8.80662 102.68 9.18664 102.48 11.2966C101.64 13.4066 101.58 15.8667 103.13 17.7567C103.81 18.2867 104.92 18.9166 105.73 19.2966L107.24 20.0067C108.02 18.6367 109.23 20.6467 112.02 17.5167C112.57 16.8967 112.93 16.5966 112.93 15.6766C112.93 12.6666 112.66 10.8167 109.63 9.38667C108.45 8.82667 107.46 8.54663 106.05 8.84663C105.42 8.97663 104.82 9.11665 104.27 9.55665C102.66 10.8466 103.35 8.11663 100.7 6.22663C100.28 5.92663 99.8201 5.53662 99.4201 5.33662L97.8001 4.50666C96.5701 3.87666 94.7401 3.94662 93.4201 4.27662L90.1001 5.10664C90.0801 5.26664 89.9501 5.74664 90.0801 5.79664L90.8301 6.07667C90.3001 6.75667 89.4701 7.18665 88.5801 7.24665L88.8901 6.66663C88.9501 6.54663 88.8201 6.42667 88.6401 6.13667C91.9701 0.386666 94.0801 2.23664 97.4101 2.42664C101.54 2.66664 101.95 3.18662 103.46 6.77662C104.24 6.77662 105.43 6.64666 106.37 6.56666C107.1 6.50666 107.43 6.43663 107.93 5.78663L109.55 3.69666C110 3.10666 110.59 2.37664 111.1 1.79664L111.58 2.09663C111.74 1.75663 112.12 1.22667 112.42 1.13667C115.67 0.126666 117.33 -0.593346 120.97 0.686654L120.26 1.03663C120.36 1.05663 121.05 0.966632 121.35 0.976632C122 1.00663 123.19 1.88666 123.45 2.50666L124.46 4.94666C124.92 6.03666 125.13 7.38663 125.16 8.66663L125.25 12.4266C125.28 13.4666 125.55 14.0767 126.61 14.4367C127.55 14.7467 128.4 14.7366 129.35 14.2266C130.76 13.4466 130.94 12.6766 131.62 11.0466C132.26 9.51664 131.65 8.60662 132.77 9.08662C133.87 9.56662 133.59 10.7167 133.68 11.4567C134.02 14.0967 133.37 13.2866 132.33 16.4766C131.74 16.3666 131.56 16.3466 132.09 16.9066C130.84 18.2066 127.59 19.8466 125.78 18.7866C124.54 18.0666 123.01 17.0066 122.56 15.6066L121.9 13.5466C121.63 12.7166 121.69 11.7666 121.36 10.8966C121.17 10.3966 121.27 9.67664 121.19 9.17664C120.97 7.91664 120.6 6.57665 120.23 5.43665L118.77 4.54664C116.36 3.07664 112.63 5.46662 112.45 6.77662C112.42 7.00662 112.74 7.50661 112.95 7.64661C114.94 8.96661 116.44 11.1467 115.95 13.6267C115.46 16.0967 114.11 18.4867 113.87 19.3167L112.85 22.7966L112.9 25.2366C112.93 26.4666 113.32 27.3767 114.06 28.2667L114.95 29.3366C115.38 29.4266 115.71 29.7066 116.15 30.1766L116.33 29.8666C116.38 29.7766 116.67 29.9267 116.83 29.9967C117.51 30.2767 117.99 30.1967 118.68 30.2067L120.86 30.2567C124.72 28.2267 126.48 27.5566 129.53 24.2966C130.82 22.9066 132.02 21.6266 133.21 20.0866L136.93 15.2667C137.03 15.1367 137.59 15.0866 137.6 14.9866L137.64 14.5067C138.09 14.2467 138.4 13.9467 138.74 13.5667C141.03 10.9867 145.67 6.65663 148.93 5.72663C147.88 6.02663 150.67 5.50664 150.31 5.29664L150.67 5.50666C151.2 4.59666 153.64 4.17662 154.73 4.02662C158.87 3.43662 155.86 3.27665 160.98 3.36665C161.93 3.38665 163.62 3.29662 164.41 3.58662C164.58 3.64662 164.44 4.33664 164.29 4.29664L163.54 4.10664C163.36 4.39664 162.73 4.95666 162.25 5.06666L159.99 5.57667C158.92 6.61667 157.8 7.08667 156.49 7.63667L155.11 8.79664C154.88 8.73664 154.59 8.66663 154.61 8.66663C154.19 9.15663 153.8 9.47662 153.58 9.77662L151.51 12.6566C151.39 12.8266 151.24 13.0966 151.18 13.2266C151.1 13.3966 151.62 13.8267 151.82 13.8167C155.47 13.7267 159.41 14.3866 163.02 13.5366C165.37 12.9866 166.71 10.3666 167.61 8.30665C168.91 7.85665 170.82 7.92663 171.99 8.78663C173.37 12.1366 167.41 17.6067 167.32 16.6267L167.37 17.1267C165.57 18.1867 161.82 19.1967 159.79 19.2667L156.84 19.3767L151.06 19.8267C149.47 19.9467 148.22 20.6466 147.74 22.0566C147.6 22.4666 147.48 23.4766 147.87 23.4866H151.18L155.25 23.5866L163.66 23.7067C164.77 23.7267 166.14 23.7867 167.14 23.9967C168.64 24.3167 168.34 26.0667 168.29 27.0667L168.12 30.8566C168.06 32.0866 168.38 33.3067 169.72 33.7067L171.43 33.3666C172.16 33.9966 171.98 34.8267 171.61 35.6267C171.33 36.2467 169.99 38.8467 169.19 37.7067C169.15 37.6467 169.16 37.6467 169.13 37.7067C168.68 38.8567 167.31 37.8266 167.27 40.3566L167.22 43.5667L168.3 44.4066C170.47 44.6866 172.64 44.9566 174.82 45.2366C172.85 46.9666 170.88 48.7067 168.9 50.4367C168.86 50.6467 168.01 50.8767 167.96 50.6967L167.7 49.7366L166.61 50.2766C162.74 47.6266 163.46 46.1267 163.79 42.4567C163.94 40.7467 164.25 39.0366 164.62 37.3566C165.06 35.3566 164.39 36.2166 165.02 35.4066C165.55 34.7166 166.01 36.5266 168.39 36.6466C169.16 36.6866 169.54 36.4166 169.99 35.8466L170.48 35.2266C170.59 35.0966 170.13 34.6467 169.99 34.7467L168.93 35.4467C168.65 35.6267 168.31 35.8566 168.07 35.9066C168.17 35.8866 164.92 35.4767 165.34 32.1267L165.65 29.6666C165.77 28.6966 165.09 26.9866 164.35 26.4766C163.05 26.3066 161.9 26.0566 160.73 25.7766C160.2 25.6466 159.46 25.6766 158.88 25.3366C156.32 25.8766 158.28 25.4766 155.57 25.4166L149.72 25.2766C148.77 25.2566 147.91 25.2467 146.94 25.3767C147.2 25.9667 147.73 25.7567 148.24 25.7667L151.73 25.8366L157.57 26.0966C158.51 26.1366 159.15 25.9466 159.81 26.9666L160 26.4766C160.15 26.0766 161.04 26.7066 162.45 26.5566C163.74 26.4166 163.92 27.3466 164.41 28.0266C165.04 28.8966 165.01 29.8366 164.88 30.9166L164.37 35.1267L163.96 36.9866C163.83 37.5866 163.87 38.2767 163.75 38.9567L163.07 42.7067C162.85 41.9067 162.85 41.9567 162.63 42.7067L163.1 43.1867C162.96 43.9367 162.91 44.6266 162.97 45.4166L163.15 47.9467C163.99 49.4167 165.37 50.7566 166.96 51.2467C167.65 51.4566 168.08 51.5467 168.5 52.0067C170.6 49.7567 172.7 47.4967 174.8 45.2467C173.51 48.1467 172.22 51.0567 170.94 53.9567C170.54 54.4467 169.7 55.3167 168.35 55.8267C167.94 55.9767 167.32 56.3667 166.58 56.1967C164.28 55.6967 162.67 54.1867 161.36 52.3867C161.01 51.9067 160.57 51.5367 160.41 50.8267C160.1 49.4367 159.92 48.1767 159.95 46.7567L160.02 43.3767L160.34 40.9866V38.7067L160.49 35.5366C160.64 32.5366 161 34.7867 160.99 30.0667C160.99 29.3267 159.75 28.7966 159.04 28.7866C155.7 28.7066 152.54 28.5166 149.12 28.2266C147.94 28.1266 146.55 28.5866 145.3 28.0266L143.76 31.1066C143.65 31.3266 143.51 31.8167 143.6 32.0167C143.77 32.4267 146.06 32.0167 146.7 31.8867C148.78 31.4467 150.85 31.9766 152.83 32.2966C154.58 32.5766 155.49 33.3867 155.95 35.0767C157.18 39.5967 157.19 43.4966 155.95 47.9866C155.71 48.8566 155.38 49.5066 154.67 50.1466C154.31 50.4766 153.97 51.0166 153.69 51.3666C153.16 52.0366 150.9 52.9866 150.08 53.1566C146.88 53.8166 140.63 53.3366 139.25 50.0866C137.01 49.0366 137.74 46.7467 138.49 44.6967C138.72 44.0767 139.21 43.5766 139.57 43.1066C140.25 42.2466 140.74 41.7467 141.76 41.3767C142.45 41.1267 143.09 40.8766 143.78 41.0366C143.21 42.6066 143.58 43.7166 144.14 45.1566C144.6 46.3566 146.63 46.6966 147.72 46.5366C147.88 46.5166 148.19 46.7966 148.24 46.9066C148.31 47.0266 148.48 46.5066 148.51 46.3066L150.67 44.6766C150.8 43.0866 151.61 41.3666 150.87 39.8366C149.53 37.0366 145 36.5066 142.31 37.0466C140.97 37.3166 139.77 38.1266 138.3 38.0566C137.17 39.2166 135.92 40.6766 134.48 41.9766L133.16 43.1666C131.93 44.2766 130.76 45.1166 129.19 45.7266C128.01 46.1866 126.54 46.9467 126.41 48.3767L126.22 50.3466L128.5 52.4066C128.9 52.7666 129.62 53.1367 129.89 53.6367C127.68 55.6067 121.93 54.7966 120.52 51.8666L120.5 49.8966H120.52Z" fill="black"/>
<path d="M109.13 43.6766C107.84 43.4966 106.87 43.3266 105.66 42.7466L107.85 40.9467C109.26 38.2967 109.94 37.9467 109.52 34.7667C109.41 33.9467 108.62 33.4366 108.04 32.6166L109.41 32.2466C110.02 32.0766 110.42 32.0966 111.03 32.4066L113.26 33.5667C115.54 34.7467 117.09 34.4366 119.26 34.6266C121.66 34.8366 121.28 33.8166 122.55 34.4866C124.15 33.2966 123.5 34.1366 125.97 33.0566C126.78 32.6966 127.56 32.4966 128.44 32.2366C128.17 31.8866 127.93 31.6066 128.48 31.9066L130.72 29.9467L132.39 28.4666C132.81 28.0966 133.2 27.6566 133.59 27.2266L135.61 24.9766C136.27 24.2366 136.84 23.2966 137.65 22.6666L138.3 21.2166L140.73 18.1266L143.56 15.2766C144.19 14.6366 144.61 13.8866 145.56 13.6666C145.98 14.4566 145.2 15.2567 144.61 15.5767V16.1967C144.6 16.3467 144.23 16.5166 144.09 16.6166C144.13 16.7066 144.2 16.8466 144.25 16.9266C144.31 17.0266 143.89 17.2866 143.87 17.4066C143.5 19.5166 142.14 22.0066 141.19 24.0466L140.42 25.7067C140.26 26.0567 140.01 26.4767 139.82 26.8267L138.44 29.3867C138.14 29.9467 137.67 30.4066 137.15 30.7866C137.16 30.8666 137.25 31.5566 137.12 31.7166L135.99 33.1666L134.37 35.1866L132.89 37.0866C132.39 37.7266 130.7 37.9967 131.74 38.0067H132.22C131.08 38.9567 129.73 39.7766 128.44 40.6866C127.63 41.2566 126.91 41.9266 125.91 42.2166C122.04 43.3266 124.93 43.1966 122.34 43.6266L119.75 44.0566C117.93 44.3566 115.75 44.7067 113.73 44.3867L111.65 44.0566L109.13 43.7067V43.6766Z" fill="black"/>
<path d="M70.9699 18.3666C69.3699 19.4666 68.4399 20.0166 66.1099 19.0766C64.9899 18.6266 63.8199 17.3666 63.4499 16.1566C63.0799 14.9466 63.3499 13.1766 63.9399 12.0866C64.7299 10.6466 66.2499 10.0466 67.7099 9.59659L67.4799 10.1766C68.3099 9.62661 68.8999 9.25663 69.5499 9.44663C70.3899 9.68663 71.0099 10.2766 71.2399 11.1066L71.5399 10.8666C71.5399 10.8666 73.8099 13.0766 72.5899 16.1666C72.2399 17.0566 71.8199 17.7766 70.9599 18.3666H70.9699ZM68.7699 17.7366C68.8799 17.9466 69.0199 18.2166 69.0199 18.1966C69.0199 18.1866 69.3199 18.0966 69.3499 18.0866C69.3299 16.7266 71.5299 16.6466 71.1499 13.9466C70.8799 12.0266 68.6199 11.0266 68.5999 11.0266C68.4199 11.0866 68.1199 11.4166 67.9299 11.5066C67.1299 11.9166 66.1399 12.1966 65.6199 13.0866C64.9499 14.2366 65.2699 16.1266 66.2399 17.1366C66.8499 17.7666 67.9699 17.7066 68.7799 17.7266L68.7699 17.7366Z" fill="black"/>
<path d="M108.74 18.9267C108.69 18.9167 108.34 18.5166 108.29 18.4866C108.24 18.4466 108.19 18.4567 108.18 18.5067C107.6 20.3367 104.58 18.1967 104.66 18.0167L104.87 17.5667L103.75 17.2667C102.99 16.2667 102.7 15.0367 102.58 13.7067C102.46 12.3767 103.35 11.3267 104.22 10.3767C105.38 9.12666 107.18 8.58668 108.55 9.76668C111.3 9.73668 113.34 14.0067 111.78 16.5167L111.14 17.5567C110.69 18.2767 109.44 19.0766 108.74 18.9166V18.9267ZM110.15 15.6466C110.45 14.4166 110.34 12.8566 109.38 11.9866L108.25 11.3566C107.66 11.2566 106.55 11.2866 105.88 11.5266C104.94 11.8666 104.39 13.3267 104.43 14.1767C104.47 15.0267 104.84 16.5367 105.7 16.8267L107.85 17.5667C108.66 17.3967 109.88 16.7666 110.16 15.6466H110.15Z" fill="black"/>
<path d="M70.5701 14.6266C70.5101 15.7766 69.18 17.1066 68.12 17.1266C66.99 17.1466 65.78 15.7166 65.91 14.6466C66.02 13.7166 66.92 12.8867 67.52 12.1967L69.27 12.3766C69.75 12.9266 70.6201 13.6666 70.5701 14.6266Z" fill="black"/>
<path d="M109.3 15.7867C108.84 16.4567 108.47 16.8567 107.65 16.9567C106.79 17.0667 105.23 15.1067 105.13 14.5967C104.96 13.6867 105.91 12.2067 106.4 11.9367C107.03 11.5867 108.61 11.7267 109.45 13.6767C109.77 14.4167 109.84 15.0067 109.3 15.7767V15.7867Z" fill="black"/>
</svg>
