<svg width="174" height="72" viewBox="0 0 174 72" fill="none" xmlns="http://www.w3.org/2000/svg">
<path d="M109.203 67.111C108.023 67.391 108.463 66.541 106.863 66.011C106.653 65.941 106.383 66.491 106.143 66.651L103.283 68.521C103.203 68.571 102.833 68.291 102.763 68.231C103.163 68.541 98.683 71.281 94.653 67.541C93.863 66.811 93.323 66.431 92.803 65.391C92.183 64.151 91.913 63.151 92.033 61.741C92.213 59.671 92.6529 58.971 94.3229 58.111C95.1129 57.951 96.353 57.951 97.363 57.9109L97.153 56.621C97.073 56.091 96.7729 55.611 96.5029 54.981C95.9729 53.781 95.713 51.801 96.093 50.521L96.8729 47.921C97.3529 46.321 99.6529 43.2409 101.443 42.9709L101.713 43.371C101.743 43.421 102.193 43.041 101.763 42.691C99.843 41.121 95.403 36.291 93.833 34.071C93.383 33.431 93.113 32.8609 92.413 32.2809C91.513 31.5409 91.053 30.2609 90.463 29.2209C90.173 28.7109 90.053 28.051 89.853 27.581C89.543 26.821 89.093 26.081 88.913 25.241L87.783 20.041C87.643 19.401 87.623 18.921 87.663 18.151L89.843 20.241C90.373 20.751 91.023 21.401 91.553 21.821L93.093 23.051L94.933 24.601C95.073 24.641 95.293 24.7309 95.423 24.7809C95.553 24.8309 95.6229 25.331 95.6929 25.491C97.6129 25.791 98.983 27.1409 100.283 27.7809L102.733 28.981C106.793 30.971 114.423 33.691 118.813 34.701L122.583 35.571C122.883 35.641 123.343 35.741 123.623 35.771L127.213 36.071L129.763 36.141C130.153 36.041 130.753 35.811 131.403 35.711C131.683 35.671 132.263 36.021 132.413 36.201C133.273 35.241 135.193 35.471 138.073 34.381C138.223 34.321 138.593 33.931 138.723 34.011L139.213 34.3409C139.393 32.9509 142.253 32.671 142.993 30.791L144.143 27.8409C144.993 25.6509 144.453 21.7509 144.143 19.4709C144.103 19.1409 143.953 15.3609 143.793 15.5309L144.223 15.061C143.533 13.781 144.723 10.761 145.793 9.25098C146.023 8.93098 145.873 8.15096 145.563 8.05096L144.193 7.59094C143.283 8.16094 141.393 7.24096 140.103 8.61096C139.023 9.75096 139.193 11.381 139.223 12.831C139.283 15.221 139.303 17.421 138.973 19.821C138.903 20.331 138.383 21.221 138.263 21.741C137.983 22.901 137.553 23.571 136.633 24.501C134.803 26.341 133.363 26.501 130.913 26.681C129.843 26.761 128.453 27.6409 127.313 26.9109C126.523 26.4009 126.053 26.911 125.273 27.121C123.163 27.681 120.683 27.591 118.583 27.231C118.243 26.911 117.773 26.541 117.383 26.391L118.103 27.231C115.883 27.091 113.803 26.231 112.163 24.951C112.253 24.611 112.293 24.451 112.163 24.351C111.943 24.181 111.423 24.0309 111.373 24.4709C109.033 22.7109 107.613 20.071 106.043 17.491C105.583 16.731 105.223 15.761 104.953 15.121C104.663 14.431 103.963 13.551 103.683 12.481C102.883 9.38096 101.773 10.1709 101.563 9.22095C101.553 9.15095 101.643 8.761 101.633 8.771C101.633 8.771 101.393 8.67097 101.373 8.68097C101.353 8.69097 101.183 8.93096 101.103 9.05096L99.143 8.25098C98.963 7.88098 99.473 6.97095 99.843 6.79095L101.603 5.92096L102.793 5.32098C104.463 4.47098 106.963 4.32095 108.853 4.85095C109.623 5.07095 110.443 5.42099 111.163 5.70099C111.543 5.85099 112.303 6.51098 112.653 6.32098C115.243 4.87098 113.543 4.64095 119.013 4.10095C120.303 3.97095 121.223 4.82095 122.103 5.47095C122.723 5.92095 122.963 6.30099 123.323 6.83099C123.683 7.36099 124.813 8.24095 124.263 8.97095C121.943 8.45095 119.113 10.711 119.293 13.041C119.393 14.291 120.053 15.401 120.843 16.271C122.423 18.001 123.813 18.201 126.343 18.051C127.143 18.001 128.453 17.021 129.123 16.491C131.043 12.871 129.943 8.72094 130.583 5.34094C130.733 4.55094 131.563 3.63096 131.913 2.98096C132.543 1.81096 133.363 1.85095 134.413 1.60095C135.403 1.37095 136.433 0.980967 137.503 0.990967C138.573 1.00097 139.673 0.930996 140.753 0.770996L142.123 0.990967C145.433 0.830967 148.563 0.800964 151.863 1.30096C152.893 1.46096 155.083 3.21095 154.813 5.04095L158.243 6.271C158.983 6.531 159.933 7.26098 159.783 7.94098L161.003 9.08099C162.753 8.61099 165.143 9.15097 167.013 9.81097C168.643 10.391 170.143 11.7609 171.043 13.0909C172.033 14.5509 173.133 16.031 173.603 17.771C173.683 18.071 173.563 18.761 173.573 19.041C173.613 20.321 173.703 21.881 172.663 22.931C171.763 22.711 171.803 21.521 171.463 20.991C171.203 20.591 170.623 19.661 170.223 19.391L167.403 17.421C166.713 16.941 164.603 17.8909 163.403 17.7209C161.183 19.2909 160.533 22.0409 160.593 24.5909C160.643 26.5909 160.633 28.571 162.373 29.941C164.383 31.521 165.753 32.671 166.733 35.251L168.103 38.881C168.153 39.001 169.023 39.011 168.993 38.881L168.883 38.291C170.533 36.051 170.673 34.7209 170.513 31.7209C171.693 31.0409 173.333 33.371 173.593 34.801C174.143 37.831 174.373 37.451 172.033 40.931L173.523 42.7209C173.923 46.1209 174.793 49.751 171.653 51.891C170.233 48.001 170.533 49.191 168.723 46.441L168.523 46.851C168.473 46.961 168.073 46.751 167.933 46.751L166.973 46.7209C166.733 46.7209 166.583 47.281 166.403 47.491L164.593 49.601C163.873 50.431 162.853 51.2009 161.913 51.7209C161.583 51.9009 161.063 52.541 160.733 52.691C159.193 53.401 154.263 55.331 152.823 55.151C152.533 55.321 151.913 55.681 151.563 55.751L149.143 56.2809C148.403 56.4409 147.603 56.8909 147.393 57.5309C146.773 59.4709 149.523 60.681 151.223 61.261C152.073 61.551 153.333 61.281 154.253 61.351C155.913 61.481 157.433 61.191 158.343 59.691L157.983 58.111C159.843 57.091 161.873 57.911 162.953 59.731L162.713 62.501L163.693 62.651C163.933 62.691 164.123 63.191 164.253 63.511L164.593 63.1609C164.733 63.0109 168.133 64.961 168.143 67.671C168.143 69.771 166.173 71.231 164.093 71.481C163.623 69.921 163.123 68.0609 161.853 67.0309C160.113 65.6209 158.263 64.981 156.323 65.701C156.313 66.351 156.163 67.331 156.403 67.711L157.773 69.831C156.203 71.511 153.773 71.521 152.083 70.081L150.893 69.061C149.303 67.711 149.653 66.741 149.013 66.301C148.603 66.021 147.933 66.261 147.393 66.321L141.873 66.961C141.353 67.021 140.723 66.931 140.223 66.931H137.263C135.403 66.931 133.753 66.361 132.003 65.751C130.283 65.151 126.913 62.3709 127.623 60.7209C129.913 61.9309 133.533 63.381 135.593 62.001C134.213 60.721 132.663 59.171 133.863 57.521C132.763 57.201 131.783 56.8709 130.853 56.6609L127.643 55.951C127.213 55.851 126.533 55.391 126.173 55.141C124.613 54.971 121.543 53.891 120.673 52.881C119.223 53.241 118.063 52.151 116.713 51.701C114.343 50.921 111.263 50.8509 108.853 51.7809C107.303 52.3809 107.043 55.271 107.473 56.561L108.853 58.461C109.623 59.521 110.983 60.441 112.103 61.081L114.333 60.821L115.023 58.981L114.013 56.2809C117.443 55.6509 120.863 57.611 122.083 60.861C122.513 62.021 122.813 63.141 122.183 64.271C121.743 65.061 120.163 67.341 119.613 66.7209L119.993 67.1609C119.283 67.8709 118.133 68.001 117.133 68.371C116.133 68.741 114.753 69.3909 113.653 68.4709L113.293 68.171C113.223 68.111 113.223 68.451 113.183 68.681L110.413 67.641L110.093 67.0909C110.003 66.9309 109.593 67.0109 109.213 67.0909L109.203 67.111ZM108.993 12.501C111.013 16.681 113.483 20.481 118.443 21.921L122.373 23.061C125.423 23.951 126.223 22.811 128.873 23.061C130.703 22.021 131.173 22.361 132.833 20.4109C134.373 18.611 135.003 14.861 134.963 12.641L134.913 9.48096C134.903 8.70096 135.253 7.56099 135.633 6.76099C135.943 6.11099 136.883 5.53097 137.523 5.12097C138.303 4.61097 139.163 4.591 140.013 4.461L144.043 3.83099C144.193 4.53099 144.293 4.791 144.393 3.901L145.663 4.06097C146.563 4.17097 147.843 3.791 148.863 4.271C149.453 4.551 149.803 5.161 149.653 5.771C149.563 6.131 148.853 6.49096 148.393 6.42096C148.023 6.36096 147.733 5.84097 147.383 5.24097C147.263 5.21097 146.743 5.59097 146.773 5.81097C146.793 5.99097 147.003 6.40094 147.143 6.53094C147.983 7.33095 149.673 7.49094 150.203 6.28094C150.383 5.88094 150.493 5.04098 150.563 4.50098C150.243 4.10098 149.433 3.24098 148.893 3.19098C146.923 3.03098 143.963 3.12094 142.053 3.28094C140.473 3.41094 142.953 2.55098 139.963 3.57098C139.813 3.62098 139.663 3.161 139.563 3.021C139.363 3.221 138.993 3.61099 138.793 3.70099L137.283 4.35095C133.583 5.95095 135.083 8.07096 133.653 9.11096C134.683 11.291 134.243 15.071 133.523 16.881L132.723 18.891C132.303 19.951 131.503 21.121 130.243 21.511C125.053 23.121 124.693 22.9209 119.833 21.4709C119.583 21.4009 119.293 20.591 119.073 20.6609L118.153 20.931L116.033 20.041C114.193 14.831 113.943 15.831 115.093 11.181C115.423 9.85097 116.313 9.54097 117.193 8.99097C117.993 8.49097 119.163 7.881 120.033 8.021C120.243 8.051 120.493 7.55098 120.293 7.44098C119.443 6.97098 117.793 7.77099 116.893 8.20099C115.563 8.85099 114.963 9.16095 114.433 10.541C114.063 11.511 113.583 12.531 113.693 13.631C113.773 14.411 113.703 15.381 113.833 16.061C113.993 16.931 114.453 17.741 114.393 18.751C113.473 18.251 113.153 17.741 112.863 16.981C112.633 16.381 111.863 15.8509 111.453 15.2809C109.743 12.8709 110.383 12.821 109.233 10.981C106.943 7.32096 105.083 8.14096 105.373 8.48096C106.583 9.90096 106.953 8.30098 108.983 12.501H108.993ZM171.523 18.991C171.993 18.621 172.303 17.221 171.133 15.941C170.083 14.811 169.133 13.961 167.633 13.691C163.923 13.021 162.643 12.921 158.873 12.981C158.733 12.981 158.363 12.581 158.243 12.651L157.633 13.001L157.003 11.6609C156.573 11.1409 156.373 10.801 156.013 10.101L155.863 10.681C154.173 9.67097 152.213 10.201 150.603 10.901C149.643 11.321 149.093 11.631 148.673 12.691C148.393 13.401 147.923 14.231 148.163 14.981L148.933 17.371L150.183 18.421L152.063 19.931C154.613 20.441 157.293 18.8209 158.113 16.2809L158.133 14.011C160.763 13.331 163.263 13.671 165.863 14.041C171.813 14.871 170.483 19.811 171.523 18.991ZM158.123 23.0309C157.463 22.3309 155.863 25.471 153.473 23.641C153.443 23.391 153.583 22.791 153.383 22.821C153.183 22.851 152.643 22.981 152.483 23.151C151.453 24.301 148.863 24.871 147.683 23.111C147.493 23.311 147.283 23.681 147.363 23.861C147.433 24.011 147.713 24.291 147.863 24.371C150.763 26.051 151.603 23.761 153.653 24.791C155.153 25.551 157.743 24.391 158.113 23.021L158.123 23.0309ZM145.593 48.131L146.263 47.981C146.383 47.951 146.173 47.641 146.053 47.601L145.543 47.441C145.103 47.301 144.513 46.881 144.423 46.501C144.323 46.081 144.463 45.361 144.753 45.191C145.913 44.531 147.573 45.521 147.743 46.491C148.083 48.431 145.353 49.681 143.753 49.651L142.663 48.0909C142.153 47.3609 140.913 47.061 140.823 45.671C140.083 45.451 139.043 45.311 138.093 45.381L134.953 45.611C133.363 45.731 131.923 45.281 130.033 45.191L131.223 49.011C127.693 48.561 130.513 48.401 127.983 48.261C127.473 48.231 127.223 46.8209 127.663 46.5909C127.373 46.4409 126.943 46.291 126.913 46.111L126.793 45.451C126.763 45.301 126.213 45.411 126.203 45.571C126.193 45.731 126.193 46.1209 126.223 46.2809L126.403 47.2809C126.443 47.4809 125.933 47.871 125.723 47.791L123.403 46.9109C123.163 45.6709 123.083 44.591 123.093 43.261C119.553 43.761 116.673 42.591 112.553 41.811C112.003 41.711 111.363 41.311 110.883 40.991C110.833 42.031 107.593 40.211 107.093 39.761C106.443 39.181 105.973 39.071 105.383 38.641L99.8829 34.581C99.1429 34.031 98.6029 33.4509 98.0029 32.8409C97.2529 32.0709 96.203 31.401 96.103 30.211C94.933 30.481 92.423 26.7709 91.953 26.0309C91.813 25.8009 91.053 25.791 91.023 26.001C91.003 26.161 91.023 26.601 91.153 26.741L96.663 32.9109C97.173 33.491 97.653 34.111 98.023 34.681L98.263 35.041C98.613 35.571 98.213 34.381 98.583 34.671C101.823 37.211 104.873 39.661 108.613 41.751L112.813 44.101L114.643 45.101L115.133 45.361C115.213 45.401 115.483 45.221 115.583 45.261L118.903 46.321L121.143 47.041L124.213 48.151C125.023 48.441 126.263 48.131 126.403 49.381C126.613 49.161 126.853 48.841 126.893 48.951L127.143 49.541C127.453 48.721 129.753 49.701 131.403 49.921L134.423 50.3409C135.353 50.4709 136.383 50.521 137.313 50.581L139.833 50.761C142.573 50.951 145.123 50.201 147.763 49.381L149.143 47.951C149.623 48.411 155.033 48.481 155.013 47.891C154.513 47.261 149.913 48.101 149.103 46.741C148.233 45.611 147.553 44.1609 145.853 44.1609C145.123 44.1609 144.253 44.391 143.873 44.901C142.843 46.251 144.353 46.981 144.433 48.611L144.853 48.051C144.943 47.931 145.463 48.1909 145.603 48.1609L145.593 48.131ZM152.363 28.461C153.973 29.671 156.413 30.151 157.723 28.451L155.063 28.991L152.363 27.421C148.283 29.851 150.353 26.9509 147.693 28.0909C149.133 29.3709 150.813 29.351 152.373 28.461H152.363ZM114.493 46.081C112.073 45.501 109.813 44.451 107.593 42.981C107.103 42.661 106.943 42.461 106.703 41.851L105.903 42.871C109.353 45.661 112.833 45.901 115.853 47.9109C116.113 47.8509 116.753 47.901 117.123 48.061L119.813 49.251C122.643 50.501 124.133 49.8409 125.383 51.5309C125.933 50.9609 127.943 51.631 129.443 51.9109L133.853 52.7209C137.203 53.3309 140.793 53.241 144.283 53.071L146.763 52.951C147.423 52.921 148.123 52.891 148.573 52.951C149.163 52.541 150.083 52.531 150.923 52.491L153.383 51.771C154.883 51.331 158.073 49.851 159.093 49.141L160.463 48.191C160.853 47.161 161.763 45.5509 162.773 44.6609C163.893 41.6609 163.843 38.471 161.773 35.751C160.333 33.861 156.973 32.991 154.463 33.711C153.453 34.001 152.703 34.941 151.513 34.791C151.603 34.961 151.793 35.161 151.703 35.291L151.193 35.991L150.483 37.651C149.203 36.531 146.313 36.711 144.853 37.451C144.163 35.761 142.903 35.221 141.233 35.651C140.663 35.801 139.923 36.201 139.703 36.671C139.443 37.211 139.623 38.141 139.953 38.581L141.093 40.131L142.313 39.321L140.413 37.951C140.633 37.221 141.353 36.141 142.123 36.171C142.983 36.211 143.803 36.971 144.033 37.551C144.353 38.331 144.513 39.431 144.033 39.951C143.013 41.071 142.103 41.331 140.803 41.361C139.923 41.381 138.423 42.251 137.733 41.361C137.433 40.341 137.143 39.391 136.233 38.891C136.103 38.731 135.953 38.531 136.003 38.611C136.443 39.211 129.603 37.8209 127.253 38.8409C126.373 39.2209 126.723 40.311 126.663 40.801C126.523 41.711 125.203 41.091 124.733 40.821C124.433 40.721 123.433 40.751 123.403 40.401L123.133 37.461C121.913 37.591 123.003 39.751 121.813 40.151C121.393 40.291 120.423 40.061 120.423 39.671C120.423 38.861 120.403 37.631 119.903 37.041C117.853 36.101 116.103 36.521 114.193 35.851L112.603 35.301L108.673 34.611C108.253 34.541 107.623 34.121 107.303 33.891C106.033 34.071 102.193 32.011 102.503 33.021C102.553 33.181 102.793 33.7309 102.953 33.7809L105.263 34.611L105.193 35.101C105.183 35.181 105.163 35.4109 105.163 35.3409C105.163 35.2709 105.713 35.011 105.783 35.051L108.323 36.291C108.713 36.481 109.383 36.661 109.853 36.851L113.623 38.3409C114.403 38.6509 115.273 39.081 116.053 39.301C117.223 39.631 118.513 39.941 119.453 40.651C119.903 40.541 120.693 40.411 121.193 40.611C123.963 41.731 127.403 42.211 130.393 42.371L132.303 42.4709C135.563 42.6409 141.603 42.761 144.193 41.231L146.133 38.021C146.453 37.491 147.983 37.451 148.343 37.891C148.843 38.481 149.313 38.681 149.933 39.001C150.693 39.391 150.263 40.6909 149.403 40.9109C147.643 41.3509 147.053 39.081 146.923 40.171L146.803 41.171C148.703 41.381 149.373 42.931 150.433 41.441C150.553 41.271 151.093 40.971 151.223 41.131C152.043 42.101 151.663 43.151 153.633 43.761C156.523 44.651 156.443 44.9409 159.433 42.4709C160.393 41.6809 160.803 40.3809 160.323 39.2809C159.843 38.1809 159.163 37.261 158.173 36.851C157.183 36.441 156.083 36.571 154.963 37.021L153.493 37.601C154.223 38.731 152.453 39.541 154.143 40.831C155.093 41.551 156.593 41.9909 157.443 40.7809C156.103 41.0009 154.473 40.811 154.343 39.511C154.193 38.011 155.723 37.421 156.913 37.521C157.703 37.591 158.173 37.6809 158.653 38.2209C159.133 38.7609 159.623 39.4109 159.573 40.0309C159.453 41.7409 157.153 43.731 155.403 43.461C153.743 43.211 152.873 42.161 152.103 40.921C151.383 39.761 151.213 38.8109 151.553 37.5309C151.993 35.8809 152.983 35.081 154.663 34.671C155.693 34.421 156.803 34.061 157.883 34.291L158.573 35.271C160.123 34.981 160.973 36.041 161.633 37.171C163.223 39.901 163.133 42.701 161.193 45.241C160.263 46.461 159.423 48.141 157.913 48.801L156.393 49.461C156.283 49.411 156.003 49.101 155.953 49.231C155.913 49.321 155.743 49.911 155.663 49.961C154.823 50.471 150.423 52.031 149.523 51.541C149.153 51.691 148.323 52.1809 147.793 52.2209C142.273 52.5509 140.983 52.921 135.333 52.121L133.773 51.901C131.993 51.651 129.353 51.371 127.593 50.801L123.433 49.461L121.473 48.861C119.073 48.131 116.783 47.3009 114.503 46.0909L114.493 46.081ZM120.563 62.491C120.383 62.121 120.333 61.651 120.283 61.061C120.163 59.651 117.273 57.371 117.763 58.891C118.003 59.651 119.833 61.241 119.123 62.711C118.663 63.671 117.263 64.4909 116.153 64.7809C114.413 65.2309 112.683 64.471 110.993 63.931C109.303 63.391 107.723 62.751 106.343 61.561C105.063 60.451 102.273 57.811 101.693 56.321L100.683 53.741C99.873 51.681 99.233 49.5809 100.463 47.5909L101.583 46.861C102.173 45.591 103.433 45.351 104.703 45.831C105.263 46.041 105.913 46.331 106.113 46.791C106.313 47.251 106.293 47.871 106.003 48.361L104.293 47.1609C103.873 47.2109 103.803 48.4709 104.213 48.7809C104.773 49.2009 105.583 49.401 106.133 49.241C106.563 49.111 107.413 48.401 107.423 47.921C107.433 47.281 107.003 46.141 106.463 45.811C104.543 44.621 101.733 44.581 100.363 46.061C98.473 48.111 98.783 50.391 99.223 53.201C99.763 56.621 99.2229 55.0509 99.6229 56.9709C99.9429 58.4909 99.813 60.241 99.453 61.761C99.043 63.491 97.423 64.121 95.853 63.621C95.393 63.471 94.843 63.281 94.643 63.011C94.443 62.741 94.443 61.851 94.543 61.621L95.803 61.171C95.323 60.551 94.793 60.451 94.303 60.651C93.693 60.901 93.403 61.441 93.423 62.121C93.473 63.821 95.173 64.911 96.953 64.631C97.523 64.541 98.563 64.561 98.913 64.231C100.563 62.671 100.003 62.621 100.733 60.861C100.443 59.591 100.323 58.2609 100.663 56.7209C102.483 59.9109 105.313 61.941 108.403 63.791C108.513 64.111 108.693 64.601 108.833 64.821C108.973 65.041 109.803 64.611 110.053 64.671L112.563 65.251C116.813 66.231 118.413 65.691 120.553 62.501L120.563 62.491ZM163.853 64.8409L161.743 63.521C161.613 63.441 160.913 63.711 160.893 63.561C160.643 62.221 162.193 60.911 159.563 58.621C159.213 60.021 160.713 60.681 160.363 61.271L159.853 62.141C159.833 62.401 159.803 62.731 159.693 62.961C159.533 63.281 158.853 63.301 158.553 63.291L155.003 63.171L152.933 63.101C150.163 63.011 147.273 63.381 144.533 62.6609L141.353 61.811C141.203 61.771 140.703 61.571 140.683 61.421L140.633 60.761C139.743 60.561 139.313 59.751 139.503 59.051C139.743 58.161 140.533 57.6409 141.463 58.0909C142.173 58.4409 142.443 59.431 142.803 60.391C143.373 59.981 143.453 58.791 143.133 58.231C142.713 57.511 141.883 57.211 141.053 57.261L139.423 57.3409C138.833 58.0309 138.313 58.961 138.423 59.791C138.653 61.541 140.513 62.581 142.193 62.881L145.363 63.441C148.823 64.061 148.943 63.4409 152.203 63.9709C151.703 66.4709 152.143 67.611 153.563 69.251C153.713 69.421 154.333 69.271 154.583 69.151L153.403 67.371C152.693 66.311 153.103 65.301 153.343 64.451C153.613 63.501 158.223 63.921 159.273 64.271C159.823 64.461 160.063 64.561 160.813 64.611C163.043 64.771 164.953 67.121 164.863 69.271C164.843 69.711 164.833 69.981 164.863 70.191C164.883 70.361 165.603 70.161 165.683 70.001C166.243 68.961 165.833 66.051 163.893 64.831L163.853 64.8409Z" fill="black"/>
<path d="M56.5431 67.501C55.5831 67.191 54.9431 67.011 54.1531 66.281C52.1031 64.371 50.7531 61.741 52.4931 59.181C56.3831 54.471 55.4431 57.071 57.2931 55.851C57.9631 55.411 59.2131 55.321 60.0531 55.711C60.3031 56.401 59.4331 57.311 58.9731 57.751C59.0131 58.461 59.5831 59.821 60.2931 60.091C62.2931 60.861 65.0731 58.411 65.7831 57.531C67.1131 55.871 67.0931 53.721 66.1831 52.141C66.6431 51.801 66.7331 51.691 66.2031 51.851C63.5331 50.371 62.0631 50.271 59.1531 50.511L58.4931 50.141C58.3531 50.061 58.0331 50.481 57.9131 50.641C57.4231 51.301 56.5731 51.321 55.9931 51.601C52.8231 53.141 52.6731 53.071 49.4331 54.041L46.1731 55.021C45.5531 55.211 44.8731 55.391 44.1731 55.561L41.3731 56.231C41.1731 56.281 40.5231 56.361 40.5331 56.561L40.6131 57.621L40.6731 58.381C40.6831 58.581 40.1831 58.531 39.7331 58.631L40.5231 58.901C40.2331 59.381 39.4831 59.831 39.0331 59.861L38.6731 61.341C39.6331 61.271 41.1931 61.631 42.1131 61.301L46.6931 59.661C46.7931 61.051 45.8131 61.971 44.9031 62.971C43.7631 64.211 42.2431 65.101 40.4631 64.371L39.6031 65.511C38.5131 65.621 37.3331 65.651 36.1831 65.671L33.9131 65.701C32.9231 65.711 31.9831 65.661 30.9731 65.511L28.1831 65.091C27.0231 64.911 25.8831 64.831 25.0231 64.441C24.7831 65.591 24.2931 67.001 23.4131 67.641L21.5631 68.991C21.0631 69.351 19.7431 69.531 19.1831 69.391C17.5631 68.991 16.6531 69.031 16.4831 68.441C16.2631 67.711 19.0331 65.901 17.4231 64.221C16.2031 62.951 11.3131 64.351 10.3531 69.031C10.2831 69.371 9.58308 69.851 9.32308 69.741C8.48308 69.391 6.6031 68.151 6.1531 66.901C5.8131 65.961 5.81311 64.731 6.60311 63.881C7.29311 63.141 8.16308 62.241 9.01309 61.751L11.6131 60.241C11.2531 59.351 10.9731 58.571 11.2531 57.901C11.8231 56.511 14.9831 55.651 16.2131 56.541L15.5831 57.651L16.3431 58.931C16.6331 59.131 17.4931 59.671 17.9031 59.681L21.2931 59.791L20.5131 60.161C21.1231 60.191 24.3831 59.421 25.2431 58.841L25.9331 59.151C26.1231 58.521 26.3131 58.091 26.8031 57.511C27.1131 57.141 26.9131 56.341 26.5931 55.931L25.8231 54.951C24.7631 54.881 23.8331 54.631 22.8331 54.211C21.4331 53.621 20.8431 54.291 17.7731 53.041L15.3031 52.031C11.9631 50.671 9.36311 48.411 7.35311 45.481C6.39311 44.701 4.9131 45.621 4.2131 46.231C3.5131 46.841 3.48309 47.131 3.20309 47.831L2.33309 50.031C0.593093 48.921 -0.106914 46.661 0.0130857 44.561C0.133086 42.461 0.013088 40.921 2.20309 39.821C1.80309 39.091 1.28312 38.281 0.803125 37.541C-0.606875 35.401 0.643095 30.261 3.5231 30.431C3.2231 32.441 4.06311 36.721 5.85311 37.161C6.75311 37.061 6.66309 35.831 6.89309 35.201C7.31309 34.061 7.9831 32.481 8.7731 31.661L10.6131 29.751C11.5431 28.781 13.0231 28.121 13.3931 26.621C13.8831 24.621 13.5831 22.581 13.4431 20.521C13.3431 19.011 12.2531 17.341 10.6431 16.771C8.83309 16.131 7.67313 16.391 5.99313 16.941C3.50313 17.761 4.65311 18.371 2.47311 19.661C2.70311 19.711 3.06307 19.781 3.06307 19.781L2.05312 20.951L1.35311 20.821C1.15311 20.781 1.04308 20.201 0.943078 19.961C-0.00692165 17.581 0.703117 15.921 1.98312 13.951L3.16311 12.131C3.43311 11.711 3.56311 11.151 4.03311 10.751C6.60311 8.571 8.20311 7.96099 11.5431 7.68099L13.8431 7.48098C13.9831 7.47098 14.4331 7.29098 14.5431 7.23098C14.6531 7.17098 14.4231 6.91102 14.3331 6.71102C16.6131 3.67102 19.9231 5.27101 20.2231 2.26101C20.3631 0.821012 21.8831 0.950997 22.7631 0.620997C23.4031 0.380997 24.0831 0.0609898 24.8531 0.0509898L28.9431 0.0210216L31.9331 0.00100205C33.9231 -0.00899795 35.8831 0.0510265 37.8431 0.401026L40.2731 0.840968C43.3531 1.40097 43.8931 4.211 44.2431 6.501L44.4431 7.76101C44.5931 8.68101 43.9131 10.261 44.1131 11.231L44.5131 13.151C44.9331 15.191 46.0231 17.351 48.2131 17.471C51.3831 17.651 52.6731 17.251 54.4831 14.981C56.0431 13.021 55.3431 11.031 53.7131 9.40103C52.2531 7.93103 49.2531 8.96102 50.1331 7.77102L50.6131 7.121L51.6431 5.72097C53.1031 3.74097 54.9331 3.781 56.9631 3.871C58.3431 3.931 59.2831 4.06101 60.4131 4.88101L61.9231 5.98098L63.9631 5.57101C63.8831 4.55101 65.2731 4.61102 66.0231 4.46102C69.4731 3.77102 72.9731 4.93102 75.3431 7.46102C75.0931 8.99102 73.3131 7.741 71.8031 10.311C71.3231 11.121 70.9631 11.951 70.5331 12.841L69.2231 15.541C68.1731 17.721 68.7931 16.031 67.1531 19.071C63.2831 26.281 56.2931 27.871 48.5031 26.751C45.7831 26.361 41.9931 26.481 39.5731 25.071C39.4331 24.991 39.2831 24.571 39.2031 24.491C39.0931 24.391 38.8031 24.421 38.5831 24.421C36.8131 23.191 35.8631 21.371 35.5431 19.271C35.3631 18.081 34.8731 16.681 35.3431 15.561L35.9131 14.201C35.3931 14.621 35.1831 14.731 35.2731 14.301C35.3031 12.411 35.8231 8.90098 34.4131 7.73098C32.7931 6.38098 30.2731 6.34099 28.4931 7.49099C30.3031 10.551 30.6731 11.591 30.5631 15.381L30.4731 18.471L29.8031 22.141L29.9231 25.221C29.9731 26.461 30.9931 27.631 30.5831 28.971L31.4931 29.401C31.9131 31.451 36.1031 33.521 37.7031 33.991L41.4431 35.071C41.7631 35.101 42.4131 35.101 42.7731 35.111L44.0931 35.151C45.8231 35.201 49.0131 35.411 50.6331 35.111L53.0131 34.671L53.9231 34.991C54.6631 34.581 55.3531 34.231 56.1331 34.021L61.2531 32.641C61.6031 32.551 65.9631 31.151 66.1131 31.091L68.0531 30.291C68.9331 29.931 69.8631 29.511 70.7231 29.101L73.0231 27.991C73.7131 27.661 74.6831 27.271 75.2431 26.911L77.4331 25.491L79.2731 24.221L81.1131 22.901C82.0731 22.211 83.5231 20.371 84.3331 20.781L84.0031 20.451C84.0031 20.451 83.9731 20.291 84.0331 20.281C84.1031 20.271 84.4731 20.291 84.5231 20.241L86.7231 18.131C86.8131 18.521 86.8031 19.201 86.6731 19.761L86.1031 22.311L85.3631 25.371C85.0931 26.491 84.5831 27.211 84.0431 28.211C83.5031 29.211 83.1531 30.381 82.3631 31.361L79.3431 35.081L78.4131 36.101L77.7831 37.191L74.6831 40.241C74.6031 40.321 74.0631 40.411 73.9631 40.461C73.8331 40.521 73.9231 40.791 73.9531 41.091L72.4331 42.151L73.4331 43.251C73.6731 42.331 75.7131 44.891 75.8831 45.101C76.3931 45.681 76.6931 46.201 76.9631 46.971C78.1631 50.261 78.6931 51.771 77.4231 55.461C77.1631 56.231 76.8431 56.841 76.7931 57.601L80.1631 57.791L80.3031 58.451C80.3331 58.601 80.2331 58.691 80.6831 58.431C81.4731 58.881 81.7231 59.871 81.9731 60.811C82.3131 62.051 82.3631 63.061 81.7131 64.271C80.5431 66.471 79.5031 67.471 77.2631 68.621C77.1631 68.671 76.7931 68.041 76.7831 68.151C76.5531 69.631 73.0031 69.161 71.5031 68.081C70.5431 67.391 68.8931 67.361 67.9931 66.191C67.7931 65.931 67.5231 65.661 67.3431 65.521C67.1631 65.381 66.4131 65.611 66.2731 65.821C65.5031 66.941 63.6131 66.971 62.6131 67.321C59.8031 68.281 59.3531 68.381 56.5731 67.481L56.5431 67.501ZM64.5031 12.031L64.0031 13.161C63.6831 13.891 63.2331 14.791 62.7431 15.391L60.8831 17.691C60.7731 17.831 60.3631 18.021 60.2531 17.891C59.7431 17.291 60.5231 17.411 60.6631 14.661C60.7731 12.391 60.6231 9.601 58.5431 8.18099C58.0031 7.811 57.2931 7.50097 56.6731 7.03097C56.1431 6.62097 54.9231 6.66099 54.4031 6.93099C54.2631 7.01099 54.4031 7.65103 54.5631 7.65103H55.1031C55.8431 7.67103 56.4631 7.94097 57.1331 8.28097C58.5031 8.98097 59.0531 9.87097 59.4931 11.281C59.6531 11.791 59.8931 12.401 59.9331 13.011C60.1531 17.091 59.7731 14.201 59.2131 17.011C58.7231 19.531 58.7831 19.731 55.9831 20.681C52.3231 21.921 48.7731 22.551 45.0531 21.361C42.7331 20.621 41.7631 18.611 40.9531 16.451L40.3031 14.711C39.7231 13.171 41.2531 10.541 40.1431 6.45101C39.6131 4.51101 37.3731 3.03101 35.4931 2.82101C33.8131 2.63101 32.5331 2.51102 30.9431 2.14102C30.4531 2.03102 29.6631 2.12102 29.1931 2.14102C28.1131 1.67102 25.1931 2.46102 24.7531 2.83102C24.4031 3.13102 24.2731 3.99097 24.2631 4.47097C24.2631 5.54097 24.8631 5.861 25.7731 6.001C26.8031 6.161 27.8031 5.50098 27.9931 4.67098C28.0531 4.38098 27.4731 3.96102 27.3031 4.14102C27.1031 4.36102 26.9731 4.62098 26.8431 5.04098C26.7431 5.37098 25.9631 5.48097 25.5931 5.28097C24.8931 4.89097 25.1631 3.411 25.2931 3.371L26.1631 3.061C27.0931 2.731 28.0031 2.97101 28.9631 2.95101C29.9231 2.93101 30.7531 2.871 31.6531 3.001L35.8231 3.63101C37.1131 3.82101 38.5731 5.15097 39.0731 6.34097C40.8431 10.591 38.3331 13.141 40.9031 18.861C41.7931 20.851 44.2731 21.901 46.4031 22.331C51.1931 23.281 46.9031 23.181 51.9631 22.391C53.1831 22.201 54.1831 21.881 55.4731 21.571L54.9131 22.261C57.6331 20.351 57.7431 21.141 60.6131 19.031C61.9831 18.021 63.6031 15.571 64.4831 14.011L65.9431 11.431C66.5231 10.401 67.1231 9.28101 68.6631 8.57101C70.3831 7.78101 66.9331 6.551 64.5331 12.001L64.5031 12.031ZM12.3831 12.611L14.2931 12.731C14.9131 12.771 15.7631 12.721 16.3431 12.941C16.2531 14.521 16.1931 15.991 17.1831 17.201L18.7531 18.261C20.1631 19.211 22.1031 19.271 23.4431 18.131L23.7531 18.751C23.8731 18.291 23.8931 17.591 24.1831 17.501L25.2831 17.171C25.2331 17.121 24.9331 16.881 25.0031 16.781C25.0531 16.711 26.5631 14.381 26.2431 14.431C26.5631 12.141 24.9731 10.281 23.1531 9.58102C22.8931 9.48102 22.5431 8.93102 22.3231 8.96102C22.1331 8.99102 21.6631 9.22098 21.4331 9.16098C19.6631 8.70098 17.5031 9.681 16.8231 11.751C16.2931 12.301 14.8931 11.761 14.2531 11.801C13.3031 11.861 12.5031 11.881 11.8031 11.701C8.90312 12.341 6.31307 11.881 3.56307 14.321C2.01307 15.701 2.3531 17.631 2.3431 17.631C3.9631 17.791 2.54309 14.871 6.58309 13.491C8.51309 12.831 10.3931 12.471 12.3731 12.591L12.3831 12.611ZM27.6031 23.051L26.9931 22.351C26.5231 21.811 24.7631 24.611 22.3731 22.621C22.0831 22.381 21.6131 22.111 21.2831 21.941C20.4831 23.311 19.0731 23.631 17.8731 22.731L16.5231 21.711C16.2131 23.011 17.3431 23.351 18.1631 23.731C19.2331 24.221 20.1731 24.291 21.1431 23.321L23.5231 24.061C24.6731 24.421 26.3831 23.361 27.5831 23.061L27.6031 23.051ZM30.6831 44.231C30.0731 42.431 26.6931 43.061 26.0431 43.451C25.9231 44.211 25.6831 44.861 25.4331 45.451C22.2131 47.301 20.5031 45.661 18.5531 46.781L21.4131 46.901C21.6631 46.911 22.2931 47.221 22.4531 47.271L25.2131 46.631C27.0631 50.051 35.7631 49.621 38.9831 49.441L41.5031 49.301C42.0631 49.271 43.0331 48.671 43.5831 48.891C43.2431 49.261 43.0431 49.471 42.9531 49.671L44.5131 48.551C46.2831 48.331 47.8631 47.851 49.5631 47.381L52.2131 46.641L53.9631 46.151L56.7231 45.271L60.1831 44.141C61.6031 43.681 62.9331 42.671 64.3331 42.131C64.8631 41.931 65.1931 41.951 65.5631 41.501C66.0131 40.961 66.6331 40.731 67.1931 40.371L68.2231 39.701L69.7831 38.611C74.9131 35.041 76.9231 33.871 81.0131 28.851L82.9631 26.471C83.1531 26.241 82.8131 25.461 82.5831 25.471C81.8831 26.381 81.3531 27.101 80.6631 27.851L78.4331 30.301L77.6631 30.441C77.5531 30.461 77.9031 30.771 78.0131 30.891C75.7831 33.261 75.0731 33.911 72.3431 35.811C71.4631 36.421 70.5131 36.981 69.6931 37.621C69.5031 37.771 67.3231 39.881 67.3131 38.551C66.5131 40.871 64.0131 40.671 62.7731 40.951C61.6931 41.191 60.5631 41.611 59.3631 41.821L51.1931 43.221C51.1531 44.201 51.1031 44.721 50.9131 45.581C50.6031 47.051 49.8031 46.171 48.0031 46.911C47.4431 46.211 48.6731 45.271 48.1131 44.741C48.0031 44.641 47.5631 44.581 47.4831 44.711C47.4031 44.841 47.3031 45.111 47.2831 45.281C47.0631 47.051 45.7431 48.011 44.0131 47.801C43.8931 47.181 43.8231 47.171 43.7431 47.701L43.1231 48.081C43.0331 48.141 42.9531 47.631 43.0031 47.511L44.1331 45.131C45.1131 43.071 40.6931 45.711 36.9231 44.481C34.1631 43.581 33.7731 44.901 31.6331 47.121C31.2331 47.541 30.6631 48.761 29.9531 48.491L27.5231 47.561C27.0831 47.391 26.4731 46.731 26.4131 46.301C26.2631 45.201 27.2231 43.831 28.5031 43.781C28.8731 43.771 29.6531 44.061 29.7031 44.421C29.7631 44.841 29.6531 45.981 29.2931 46.101L27.7631 46.621C28.0531 46.801 28.6331 47.041 29.0331 47.081C29.4831 47.121 31.1231 45.611 30.6631 44.231H30.6831ZM21.9731 27.441C23.7331 28.721 26.9031 27.451 26.9031 27.241V26.741C24.8431 26.891 23.5831 28.091 22.4231 26.761C22.2831 26.601 21.7431 26.331 21.6031 26.461L20.9831 27.071C19.2531 28.761 16.7531 26.851 16.5831 27.671C18.3431 28.661 20.2931 28.471 21.9731 27.441ZM20.5131 39.131C20.9131 38.471 20.6131 36.971 20.1531 36.491L18.9231 35.201C18.6531 35.401 18.1731 35.521 17.7331 35.441C15.9131 35.121 14.3531 36.291 13.8931 38.071C13.5431 39.411 14.1431 41.401 15.6931 42.071C16.6431 42.481 17.9331 43.021 18.8931 43.061C19.5531 42.861 20.9231 42.411 21.4131 41.911L23.3231 39.951C23.6631 40.431 23.7931 40.791 23.9931 40.781L24.8131 40.741C26.9631 40.631 27.6531 39.481 27.5031 39.241C26.9731 38.361 26.2031 40.001 25.0031 40.061C24.3931 40.091 23.8531 38.971 23.9131 38.451C24.0531 37.141 25.8531 36.211 27.3331 36.541C29.2531 36.981 28.6731 39.761 31.0931 40.591L32.7031 41.151C34.2731 41.691 36.1931 41.601 37.8931 41.661L41.4331 41.781L44.8031 41.441C48.3631 41.081 52.0331 40.851 55.5431 39.541C55.7831 39.451 56.4031 39.521 56.7131 39.571C57.1831 38.851 58.1131 38.601 59.0931 38.531L60.2031 38.451C60.6131 38.111 61.2231 37.731 61.7731 37.491L63.8931 36.561C64.4331 36.321 65.3931 36.161 65.8831 35.921L71.0731 33.371C71.2631 33.281 71.5131 33.031 71.6131 32.891C71.6831 32.781 71.3531 32.401 71.2531 32.421L68.8331 33.191C67.4631 33.631 65.5231 34.201 64.1631 34.461L60.5431 35.171L58.5631 35.611C57.1231 35.931 55.8131 36.111 54.2731 36.381L53.8231 38.991C53.7331 39.481 52.5131 39.611 52.1131 39.321C51.0231 38.521 52.8931 36.841 51.1931 37.071C50.2431 37.201 51.6131 39.221 50.8231 39.911C50.0331 40.601 48.1931 40.701 47.7931 40.471C47.2431 40.141 47.8831 38.081 46.0531 37.831L42.2731 37.331C42.0631 37.301 41.5831 37.381 41.4331 37.411C41.3431 37.431 41.4931 37.691 41.5731 37.741L41.9031 37.961C40.4931 38.011 39.2131 38.041 37.8131 38.211C36.8331 38.331 36.6631 39.731 36.4331 40.811C35.6231 40.711 32.0231 40.701 31.9731 39.821C31.9731 39.911 31.6031 40.191 31.5331 40.141C30.3931 39.321 29.2931 37.961 30.3431 36.361C30.9031 35.511 31.5731 35.151 32.7231 35.431C33.2831 35.571 33.8231 36.591 33.6431 37.141C33.6031 37.261 32.9931 37.101 33.0231 37.221L33.1631 37.781L31.9731 38.281C32.6331 38.931 34.0331 38.581 34.4631 37.851C34.8031 37.251 34.5131 35.841 34.2831 35.181C32.4231 33.981 30.3131 34.701 29.0631 36.381C27.7731 35.881 26.0531 35.451 24.7631 36.121C24.5031 36.261 23.9131 36.611 23.7831 36.411C23.2931 35.471 22.4731 34.211 21.7831 33.441L21.1031 32.691C20.9831 32.551 20.3931 32.881 20.1831 32.821C18.7131 32.391 16.6331 31.871 15.0731 32.651C11.9931 34.191 11.2831 35.741 10.5331 38.741C9.8931 41.311 12.2631 44.761 13.8531 46.561C14.9831 47.831 16.1031 48.531 17.5931 49.171C19.6531 50.061 21.5831 50.721 23.8331 51.141L26.2131 51.581C27.9731 51.911 32.7831 52.161 34.5231 52.081L39.7131 51.841C40.3731 51.811 41.0431 51.321 41.5231 52.011C41.7231 51.721 41.9831 51.321 42.2731 51.321L43.3431 51.341L42.6131 51.851C43.3331 51.691 43.6331 51.511 44.2231 51.161C44.9531 50.721 46.2331 50.821 47.0931 50.631L48.6831 50.281C49.1931 50.171 49.5931 50.051 50.0931 49.901L53.1431 48.981L55.5031 48.191L58.2631 47.161C59.2931 46.781 60.3931 45.921 61.4331 45.811C62.1931 45.731 62.2831 45.631 62.8831 45.351L65.0631 44.311C65.8131 43.951 66.5431 43.531 67.2331 43.371L67.9331 42.631C68.1031 42.451 68.2231 41.791 68.0531 41.711L64.5131 43.791C63.7131 44.261 62.8731 44.551 61.8631 44.981L61.8031 44.501C60.6331 45.571 58.0731 46.371 56.6531 46.841L52.6331 48.201L50.1331 49.031L48.3031 49.421C45.4131 50.041 41.0331 51.171 38.0131 51.291L34.5631 51.421C31.7331 51.531 27.3131 51.291 24.6631 50.551L21.4931 49.671C19.3431 49.081 18.8231 48.771 16.9631 47.921C15.3431 47.171 14.5831 46.191 13.6831 44.811C12.9531 43.691 11.6031 42.221 11.5931 40.671C11.5931 40.351 11.2131 39.671 11.3531 39.481L11.8731 38.781C11.4831 36.461 13.2331 34.131 15.3931 33.651C15.8531 33.551 16.4731 33.171 17.1131 33.031C17.7931 32.891 18.4731 33.241 18.9931 33.331C20.4931 33.601 21.3931 34.311 22.2131 35.611C23.4331 37.541 22.7731 38.931 21.2831 40.781C20.1531 42.181 18.5331 42.681 16.8231 41.681C15.6531 40.991 13.7731 39.111 14.9831 37.591C15.1331 37.591 15.3831 37.641 15.4131 37.561L15.5631 37.011C15.7631 36.261 18.8731 35.571 19.6531 37.311C20.0631 38.231 19.7631 39.561 18.6831 39.591L16.7131 39.651C17.6331 41.011 19.6231 40.591 20.5031 39.151L20.5131 39.131ZM57.4231 64.851C58.8531 65.061 60.4931 65.021 61.8131 64.601L65.2631 63.491C65.6231 63.371 66.0331 63.281 66.2831 63.291C66.5331 63.021 67.0531 62.461 67.5031 62.151C69.1531 61.021 72.4931 58.361 73.4231 56.431C73.6831 58.231 73.6731 60.121 73.6131 61.911C74.0231 62.711 75.1031 64.021 75.9331 64.231C77.1431 64.541 78.5831 64.291 79.7931 63.851C80.3831 63.381 81.3531 60.821 79.7031 60.141C79.4031 60.021 78.8631 60.221 78.6331 60.581L79.9031 61.941C79.4631 62.901 78.6631 63.291 77.6231 63.481C76.9731 63.601 75.8731 63.201 75.5031 62.581C74.6131 61.101 74.4231 62.291 74.3131 59.321C74.2531 57.651 74.5631 54.901 74.8231 53.231L75.3031 50.151C75.4231 49.371 75.0631 47.971 74.6831 47.171C73.8131 45.331 71.1431 44.031 69.8231 44.511L67.1231 45.501C66.9631 46.061 66.8031 47.301 66.9831 47.861L67.4131 49.151L69.0531 48.681C69.4331 48.571 69.9431 48.261 70.0831 47.981C70.2031 47.731 69.9831 46.931 69.7831 46.911C69.3231 47.261 68.7831 47.781 68.4631 47.881C67.8331 47.841 67.6131 46.891 67.9531 46.421C68.2731 45.981 68.7731 45.761 69.2831 45.901L69.3731 45.391C69.3731 45.391 71.0431 44.771 72.7031 46.301C73.1131 46.681 73.7631 47.241 73.9731 47.651C74.8931 49.371 74.2931 51.111 73.7531 52.711C72.8431 55.411 71.1931 57.601 69.0731 59.691L67.7731 60.971C66.8531 61.881 65.5431 62.301 64.3531 62.911C62.9531 63.631 61.1431 63.961 59.6031 64.211C56.5031 64.711 54.7531 62.131 54.8431 60.601C54.9131 59.491 56.7031 58.551 56.4631 58.211L55.9831 57.531C55.9331 57.471 56.1831 57.111 56.2531 57.151C55.1331 56.631 56.4731 58.011 54.6031 58.761C53.7631 59.531 53.6631 61.591 54.2931 62.611C54.9531 63.681 56.2031 64.701 57.4131 64.871L57.4231 64.851ZM8.05312 67.781C8.03312 68.031 8.70313 68.381 8.93313 68.261C9.15313 68.151 9.21312 67.771 9.17312 67.301C9.10312 66.451 9.7331 64.971 10.4031 64.601C10.4731 64.561 10.8631 64.531 10.9431 64.511C10.1031 64.701 11.1731 62.381 16.5331 62.311C18.5931 62.291 21.0531 61.721 21.1331 64.021C21.1831 65.391 20.9131 66.481 19.6331 67.201C19.7431 67.501 19.8031 67.661 19.9031 67.791C20.0031 67.921 20.6131 67.661 20.7231 67.521L22.6131 65.091L22.0831 63.921C22.6731 63.821 22.6931 63.901 22.7131 63.761C22.7431 63.581 22.8431 63.041 22.8331 63.071L22.5031 63.621C22.4531 63.711 22.1531 63.491 22.1331 63.381C22.1131 63.271 22.1631 62.911 22.2531 62.771C22.7531 61.981 24.3431 62.281 25.4031 62.431C26.0131 62.521 27.1831 62.211 27.8831 62.171L30.6731 62.021C30.7331 62.021 33.8531 61.131 34.8731 60.231C36.0531 59.191 36.1131 57.801 35.3231 56.651C35.2831 56.411 35.3331 56.111 35.1931 56.091L34.4831 56.031C33.2131 55.921 31.8331 55.811 31.0331 57.081C30.7831 57.481 30.9831 58.381 31.3631 59.031C31.6831 58.491 31.8031 58.151 31.9331 57.591C32.0931 56.911 33.0631 56.601 33.7531 56.831C34.1931 56.981 34.7631 57.651 34.6831 58.361C34.6331 58.801 34.2931 59.221 33.8131 59.711C32.8631 60.691 31.4231 60.741 30.1731 61.081C28.2331 61.611 26.2631 61.701 24.1331 61.671L19.7731 61.611C19.2031 61.611 18.3731 61.301 17.8531 61.101C17.8131 61.141 17.2731 61.611 17.0731 61.611L14.6631 61.691C14.3731 61.051 14.0331 60.241 13.8331 59.561C13.6731 59.011 14.5631 58.061 14.8931 57.601C14.7331 57.521 14.0631 57.391 13.9431 57.561L13.4631 58.231C12.1031 60.151 13.9031 60.931 13.0931 61.761C12.7931 62.061 11.8831 61.591 10.2331 63.181L9.72311 62.971C9.60311 62.921 9.60307 63.481 9.62307 63.651L8.43313 65.271C8.21313 65.831 8.14309 67.011 8.08309 67.751L8.05312 67.781Z" fill="black"/>
<path d="M136.313 40.1809C136.583 40.4009 136.793 41.2009 136.683 41.4909C136.553 41.8209 135.823 41.831 135.353 41.831C132.763 41.851 130.123 42.011 127.703 40.951C127.263 40.761 127.693 39.251 128.213 39.211C130.153 39.071 131.893 39.251 133.803 39.381C134.703 39.441 135.493 39.5209 136.323 40.1809H136.313Z" fill="black"/>
<path d="M119.263 39.5711L116.043 38.411C115.523 38.221 114.543 38.1411 114.023 37.8811L110.883 36.301C111.153 35.971 111.553 35.891 111.913 35.981L114.863 36.741C115.413 36.881 116.113 37.3111 116.483 37.5711C117.073 37.2911 117.853 37.281 118.493 37.491C119.133 37.701 119.363 38.3811 119.273 39.5711H119.263Z" fill="black"/>
<path d="M142.503 49.3911C141.603 50.7811 132.803 49.5011 132.743 49.3911L132.253 48.501C131.913 47.871 131.593 47.0111 131.313 46.2111H137.903H139.583L142.513 49.4011L142.503 49.3911Z" fill="black"/>
<path d="M122.503 46.231C122.823 47.231 116.333 44.531 116.233 44.481C115.443 44.091 114.833 43.821 114.043 43.561L112.263 42.981C113.373 42.231 114.193 43.051 115.123 43.191L120.313 43.971C121.433 44.141 122.583 44.611 122.503 46.241V46.231Z" fill="black"/>
<path d="M152.093 18.841L150.553 17.571C150.123 17.211 149.513 16.141 149.243 15.601C148.503 14.091 149.823 12.601 151.003 11.841C152.183 11.081 153.693 10.501 155.043 11.221C156.923 12.221 157.513 14.401 157.033 16.441C156.693 17.861 155.283 18.441 154.013 18.951C153.363 19.211 152.733 19.361 152.103 18.841H152.093ZM155.183 16.2111C155.363 15.2311 155.353 14.3211 155.243 13.4611L153.283 12.381C152.023 12.611 150.783 13.181 150.633 14.511C150.433 16.211 152.223 17.141 153.813 17.031C154.343 16.991 155.073 16.9011 155.193 16.2111H155.183Z" fill="black"/>
<path d="M46.1331 40.611L43.7631 40.831C42.3731 40.961 40.9731 41.411 39.6731 40.971C38.9831 40.741 38.4831 40.701 37.6831 40.721C37.5831 40.371 37.9131 39.061 38.4431 38.851C39.7731 38.321 41.2631 38.521 42.6431 38.491C43.8131 38.461 45.2131 38.421 46.4131 38.621C46.7731 39.031 46.5631 40.341 46.1331 40.621V40.611Z" fill="black"/>
<path d="M60.1429 36.961C58.2429 37.891 58.7329 38.161 55.1329 38.811C54.9729 38.601 54.9729 37.781 55.1329 37.481C55.5929 36.681 59.253 36.441 58.993 36.511L61.653 35.761L63.8129 35.381C64.2129 35.721 61.113 36.981 61.163 36.451L60.1429 36.951V36.961Z" fill="black"/>
<path d="M42.663 45.251C43.233 45.551 41.743 48.711 40.793 48.741L34.443 48.931C33.443 48.961 32.693 48.951 31.613 48.761C32.233 47.851 32.543 47.361 33.073 46.761L34.533 45.131C35.853 44.721 37.323 45.431 38.493 45.381L41.203 45.271C41.453 45.261 41.893 45.691 42.053 45.901C42.053 45.791 42.473 45.141 42.673 45.251H42.663Z" fill="black"/>
<path d="M56.6431 44.451C54.2631 45.061 54.7531 45.151 51.9131 45.831C51.8531 45.271 51.8931 44.431 52.1531 44.041C52.4631 43.581 53.543 43.741 54.063 43.621L56.2031 43.101L60.1631 42.441L61.9431 42.141C61.4031 42.761 60.8231 42.821 60.1331 43.081C59.0031 43.511 57.7931 44.161 56.6331 44.451H56.6431Z" fill="black"/>
<path d="M24.4732 15.941L22.6232 17.731C20.9332 19.371 17.9132 17.061 17.0432 15.331L17.6332 12.511C17.8532 11.461 18.3632 10.801 19.2732 10.231C19.9732 9.79098 20.5432 9.901 21.2932 10.001C24.4732 10.431 25.9432 13.301 25.3032 14.631C25.1532 14.941 24.7532 15.671 24.4832 15.931L24.4732 15.941ZM21.3732 16.141C22.1932 15.871 23.0332 15.401 23.4232 15.011C23.8832 14.241 24.0132 13.251 23.4732 12.671C22.3032 11.421 20.2732 11.251 19.2232 12.671L18.9432 14.911C19.4032 15.491 20.5332 16.421 21.3732 16.141Z" fill="black"/>
<path d="M154.033 16.0809C152.903 16.6109 151.633 15.7509 151.643 14.6209C151.643 14.1009 152.493 13.2909 153.083 13.2809C153.573 13.2809 154.223 13.8409 154.423 14.2109C154.633 14.6209 154.473 15.8709 154.043 16.0809H154.033Z" fill="black"/>
<path d="M22.5232 13.1509C22.6932 13.4709 22.9132 14.0009 22.7832 14.1809C22.3732 14.7209 21.6032 15.5409 20.7132 15.2809C20.2432 15.1509 19.7932 14.5509 19.7432 14.1609C19.6632 13.5309 20.0832 12.9609 20.6532 12.6509C21.3332 12.2809 22.1132 12.3709 22.5232 13.1409V13.1509Z" fill="black"/>
</svg>
