<svg width="86" height="128" viewBox="0 0 86 128" fill="none" xmlns="http://www.w3.org/2000/svg">
<path d="M66.4825 80.3299C65.6825 79.3399 64.7025 79.0099 63.5325 78.9299C61.2625 78.7699 59.3925 79.5399 57.9225 81.2499C56.9525 82.3699 55.9525 83.8099 55.6325 85.2499C55.6125 85.3499 55.2725 85.6299 55.2525 85.5799C54.7725 84.6599 54.3425 83.7299 53.7525 82.8999C52.6525 81.3299 50.8125 80.3899 48.8825 80.5999C46.8525 80.8199 45.3625 82.3699 44.9325 84.3299C44.6625 85.5399 44.4925 87.0599 45.3625 88.0499L47.7525 90.7699C47.7525 91.2099 47.4225 91.7899 47.1325 92.1199C45.5925 93.8899 44.5325 95.8299 44.0825 98.1299C43.8125 99.5299 43.9625 100.85 44.3125 102.21C44.7225 103.85 44.9425 105.5 45.1525 107.23C42.9625 106.58 40.7425 107.82 40.3525 110.02C40.1325 111.31 41.0025 112.46 41.9025 113.11C43.0025 113.9 44.3425 113.87 45.5825 113.3C45.7725 114.29 45.3425 115.38 44.4225 115.77C43.6425 116.1 42.6925 116.44 41.7825 116.42C39.7725 116.37 37.8125 114.85 37.3425 112.84C36.7125 110.12 37.5125 107.04 39.4625 105.08C40.3625 104.18 41.0325 103.59 41.0925 102.21C41.3025 97.0899 38.6725 95.8599 36.0625 91.2299C35.0725 89.4699 35.1025 87.59 36.0025 85.84L36.9425 84.0099C35.3725 83.6199 33.7225 83.6199 32.0825 83.81C28.7625 84.18 24.6925 84.9799 24.8325 89.1299C24.8625 90.0899 24.4325 91.0199 23.7325 91.5699C21.2325 93.5499 20.2825 89.51 17.8825 89.03L11.6025 87.7499C9.80254 87.3899 8.09255 87.7499 6.15254 88.1299C6.84255 85.8899 8.88254 84.5099 11.2325 84.3899C10.5825 82.2299 5.77254 83.0399 4.10254 83.4299C3.82254 82.8899 4.13254 82.3699 4.54254 81.9699C6.45254 80.1199 9.05254 79.65 11.5025 80.78C13.2625 81.6 14.8425 82.6899 16.3125 84.0499C18.0025 85.6199 20.6525 85.8799 22.1925 83.9399C23.4225 82.3899 22.3425 79.5799 24.9425 77.9999L26.4625 77.0699L25.2425 75.0799C24.5425 73.9299 24.1825 72.6 23.7425 71.31C23.5125 70.63 23.2625 69.9499 23.1825 69.2299L22.5425 63.4399C22.2725 61.0099 23.3525 56.1799 23.9825 53.6699C24.3825 52.0599 24.9925 50.4599 26.0325 49.1699C29.1825 45.2899 31.6825 43.7099 35.0425 39.0499C36.2825 37.3299 36.7925 35.5999 36.8925 33.4599C36.9525 32.2299 37.4525 29.1599 36.7625 28.2399C36.6925 28.1399 36.2525 28.3199 36.1525 28.4499C34.4825 30.4399 32.0525 32.1499 29.4325 32.7699C24.4225 33.9699 22.8325 31.6899 20.3625 34.5699C18.1225 37.1799 15.0125 38.7699 11.5325 38.5999C10.9825 38.5699 10.4725 38.4 10.1025 38.09C11.2925 35.27 14.4025 36.8399 16.2825 32.7699C17.2025 30.7899 18.5025 29.2099 20.1525 27.7599L18.3225 25.1999C17.3825 23.8799 16.0625 22.9499 14.4825 22.4499C13.7725 22.2299 12.9625 22.6799 12.3025 22.6899C9.23254 22.7299 9.52254 23.8199 6.56254 25.1199C7.08254 20.3999 12.0425 17.1599 16.4825 18.1499L20.9125 19.1399C22.5425 19.4999 23.2725 17.7899 24.5725 17.1099C26.1425 16.2999 27.7325 15.8299 29.4325 15.3499C32.2125 11.3899 38.7325 8.30994 43.4025 7.72994L47.5625 7.20995C49.5525 6.95995 51.6425 6.86995 53.6125 7.20995L59.9825 8.32994L62.8025 8.70995C63.8225 8.84995 65.7625 10.3999 65.4625 11.4399C65.3925 11.6899 64.8025 11.9899 64.5225 11.9199L58.6325 10.5199C56.3625 9.97995 54.1725 9.74994 51.8425 9.71994L50.5125 9.69994C50.1325 9.69994 48.2125 9.52994 48.0225 10.0599C50.9525 9.75994 54.3425 10.0299 57.1525 10.6799L62.7925 11.9799C63.7825 12.2099 64.5725 13.2999 64.2325 14.2699C63.4325 16.5699 59.4625 14.5399 57.9125 13.9499C56.3625 13.3599 54.5525 13.1999 52.8525 12.8599C50.4925 12.3899 48.3125 12.4299 45.9425 12.7599C42.9525 13.1799 40.1425 13.8699 37.4625 15.2899C36.4025 15.8499 35.4225 16.4699 34.7925 17.4799L37.3325 18.3199C39.2325 18.9399 40.8925 19.8099 42.3625 21.2199L45.5525 24.2999C46.7925 25.4899 47.3825 27.3699 47.8625 29.0099C48.4025 30.8699 48.1225 32.7299 48.1125 34.5999C48.1125 36.3599 47.7125 37.7999 47.0325 39.3899C45.0825 43.9399 42.6525 48.07 39.4425 51.84C37.5525 54.06 36.6625 56.81 36.9725 59.68C37.2825 62.5499 39.9925 63.8399 42.4425 63.2499C46.8625 62.1899 44.2625 62.7299 47.7825 60.9199L47.5225 62.9599C47.4825 63.29 47.8325 63.7699 48.2025 63.7199C50.7725 63.4199 49.8725 61.4899 51.8125 61.2399L55.8925 60.7199C58.2925 60.4099 60.5125 59.5399 62.4225 58.0199C65.1625 55.8499 67.2525 52.8999 68.1625 49.5099C68.5525 48.0599 68.7525 45.2199 69.3725 44.7099C72.8725 47.82 74.9025 50.8899 72.8925 55.5099C71.6925 58.2499 69.6125 60.2599 67.2225 61.9899C66.2525 62.6899 65.6625 63.8799 66.0825 64.9899C66.4225 65.8899 67.3225 66.21 68.1025 66.62L73.8425 69.6099C75.0925 70.2599 76.4925 70.84 77.5425 71.84C82.2125 76.2299 83.2825 77.8299 84.8025 84.2699C86.1925 90.1399 86.2425 97.0299 84.2025 102.68L81.9625 108.87C80.5825 112.68 78.5425 116.06 76.0425 119.22L72.3325 123.9C71.0725 125.49 69.4125 126.62 67.6925 127.75C66.7825 127.11 66.0825 126.51 65.5025 125.73C65.4225 125.4 65.8125 124.78 65.9625 124.47C66.8725 122.59 67.7425 120.81 68.7425 118.99C69.3525 117.87 69.8125 116.77 70.2925 115.59L74.1225 106.14L76.6425 98.5799C77.2525 96.7599 77.7425 94.99 77.6025 93.03L76.4725 97.6299C75.6625 100.9 73.5425 105.49 71.7425 108.38C69.4825 111.99 66.9226 115.31 64.3125 118.67C63.4825 119.73 62.3925 120.48 61.4925 121.45C61.2225 121.75 60.9125 122.15 60.6325 122.2C60.2625 122.26 59.7725 122 59.4725 121.78C57.3825 120.24 55.4525 118.8 53.4425 117.08C53.7525 116.68 53.9825 116.38 54.3025 116.07C57.0325 113.46 59.7925 110.99 62.2725 108.12C63.5325 106.66 64.3625 104.94 65.3825 103.31C67.4525 100.01 68.4625 96.42 68.9925 92.59C69.2825 90.49 69.5025 88.5699 69.1525 86.4499C68.7825 84.1899 67.9725 82.14 66.4925 80.31L66.4825 80.3299ZM31.4225 16.5899L33.0525 15.2099C34.8225 13.7199 36.7225 12.3199 39.0125 11.7999L47.2925 9.92994C45.7325 9.87994 44.2025 10.0499 42.7425 10.4499L38.2525 11.6799C37.0925 11.9999 36.0725 12.4399 35.1125 13.1699L31.7625 15.7299C31.5125 15.9199 31.3325 16.1899 31.4125 16.5799L31.4225 16.5899ZM40.2725 24.3499C38.3125 22.7699 35.7725 22.4099 33.1725 22.6999C33.0925 21.6399 32.6225 20.7499 31.5825 20.2799C29.3325 19.2699 26.4425 20.0199 24.9925 22.0799C24.0225 23.4699 24.3525 25.1699 25.2625 26.3899C27.0725 28.8499 30.8325 27.6499 31.5725 26.7299C32.1825 25.9799 32.5625 25.1499 32.9325 24.2499C34.1825 21.2399 38.3425 24.0499 40.2625 24.3499H40.2725ZM41.5825 75.4299C40.4725 75.1699 39.8725 74.3199 39.1125 73.5199L37.9825 72.34C37.8125 72.16 37.7625 71.5499 37.8625 71.3299C38.2425 70.4399 39.6125 70.8299 40.0725 70.9099L39.7925 70.2999C39.7425 70.1899 40.1925 69.95 40.3125 69.93L43.8225 69.28C44.0025 69.25 44.5025 68.8899 44.6225 69.0199L45.1025 69.5499L45.8925 68.8499C46.6825 69.6799 48.2425 68.4799 48.6625 70.4399C48.7425 70.7999 48.9625 71.4299 49.2125 71.6299C49.3225 71.7199 49.7625 71.4 49.6825 71.28L49.3925 70.81C49.2925 70.65 49.1425 70.3199 49.1225 70.1599C49.1025 70.0299 49.5025 69.9099 49.6425 69.8299C48.5725 68.8599 47.1225 68.7599 45.7125 68.6099C40.8725 68.1199 39.7825 70.07 37.2025 70.81C35.7525 71.23 34.3225 70.2299 33.3825 69.2699C32.0625 67.9199 31.3525 66.3499 30.4825 64.7099C29.9225 63.66 29.4425 62.6699 29.3425 61.4499C29.1125 58.7299 29.6425 56.1599 30.2625 53.5499C30.7825 51.3599 31.8425 49.72 33.0025 47.87C34.5925 45.33 36.0225 42.8199 38.0325 40.5499C39.2325 39.1799 40.3225 37.7999 41.2925 36.2599C42.0125 35.1199 42.3125 33.7899 42.6325 32.4899C43.0425 30.8199 43.3025 29.1999 42.8625 27.5399C42.5625 26.3899 42.0825 25.2799 40.8425 24.7399C41.4125 26.7299 42.6125 25.8999 42.6525 29.2199C42.6725 30.9999 42.5025 32.6399 41.7625 34.2699C41.0725 35.7899 40.2925 37.1799 39.2425 38.5099C36.9725 41.3999 34.8025 44.2399 32.8025 47.3299C31.0925 49.9699 29.9225 52.71 29.4225 55.81C28.3925 62.24 28.9225 62.3299 31.4925 67.3599C33.3625 71.0299 35.9625 70.7499 37.2325 72.1799C38.4025 73.5099 39.5325 74.9399 41.1525 75.7899C42.5925 76.5499 44.4625 76.7799 46.0925 76.6999C49.0925 76.5399 51.7025 75 53.7825 72.84C52.8425 71.45 51.6125 70.5699 50.0725 70.0199C51.0925 72.6899 52.0825 70.5699 52.8425 72.6699L51.9725 72.4699L52.1225 73.7199L50.5725 74.5099C50.3625 74.6199 50.1625 75.1799 49.9325 75.1499L48.8425 75.0099C48.8425 75.1199 48.7125 75.7999 48.5025 75.8999C48.1025 76.0799 47.2125 76.1 46.8225 76.06C46.8825 75.64 46.9025 75.4799 46.7125 75.8599C45.1025 76.5799 43.9025 75.6799 44.1725 75.5199L43.8625 75.7099C43.4525 75.9699 42.8825 76.2599 42.3925 75.81L42.6925 74.5199C42.5725 74.5299 42.1125 74.6099 41.9125 74.6699C41.7425 74.7199 41.6725 75.1899 41.6225 75.4299H41.5825ZM77.4925 88.4999C77.5425 88.8399 77.3725 89.3199 77.7925 89.5199C77.6125 86.8899 77.0825 84.3999 76.1525 81.9299C75.5625 80.34 74.6825 78.9699 73.7125 77.6199C72.8925 76.4799 71.6625 75.9299 70.6825 75.0199C68.8225 73.2899 66.6425 70.3999 63.7125 69.9699C60.0625 69.4299 60.4725 69.31 56.5325 70.65C56.2925 70.73 56.2525 71.3199 56.4525 71.4999C63.9525 78.3099 69.0625 74.6499 69.9025 75.1499C71.2825 75.9799 72.5425 76.8699 73.5825 78.0699C74.8525 79.5399 75.6825 81.3299 76.1625 83.2199L77.4925 88.5099V88.4999ZM50.0525 74.3199C50.1225 74.3399 50.0525 74.1799 50.0025 74.0399C49.8225 73.8199 49.5225 73.4599 49.5425 73.2499C49.5625 73.0699 49.7625 72.8299 49.9625 72.5199L48.3925 72.03L47.9125 70.5199L47.3725 71.3699C47.1925 71.1899 46.8525 70.86 46.6725 70.93C46.4925 71 46.1625 71.2299 46.0525 71.1299L45.6925 70.7999L44.6225 70.65C44.1425 70.58 43.8525 70.5699 43.3825 70.1899L43.1325 70.7899C43.0825 70.9099 42.6425 70.4999 42.5025 70.5499C41.7925 70.8899 40.7225 71.7599 39.8925 72.4099C41.8725 72.2799 41.3025 73.2499 43.3425 73.6399L44.0325 74.3799L44.2825 73.7999C44.3225 73.7199 44.5925 73.7099 44.6925 73.7199C47.3425 73.9899 46.1425 73.4299 47.8425 73.8499C49.4425 73.3799 48.6925 74.0399 50.0425 74.3299L50.0525 74.3199Z" fill="black"/>
<path d="M15.0325 45.21C16.3325 45.89 16.8925 47.4 16.7825 48.81C16.5725 51.48 14.2825 54.56 12.3425 56.18C9.76249 58.34 4.97249 58.56 2.36249 56.13C0.652491 54.55 -0.0475096 52.27 0.00249045 49.94C0.10249 45.27 0.00248945 45.41 1.71249 40.94C2.01249 40.16 2.49249 39.45 3.05249 38.83C4.85249 36.82 6.72249 34.98 8.32249 32.79C9.41249 31.31 10.0025 29.37 10.3625 27.58C10.6325 26.26 10.0325 25.11 9.82249 23.81C10.7025 23.46 11.5725 23.12 12.4825 22.99C12.9125 22.93 13.1925 23.77 13.2825 24.15C13.7525 25.99 14.1825 27.92 13.7825 29.84C13.0625 33.26 11.1325 36.14 8.52249 38.42C6.40249 40.27 4.72248 42.49 4.08248 45.3C3.60248 47.41 3.44249 49.86 4.24249 51.92C5.04249 53.98 7.86249 54.88 9.84249 54.21C11.1325 53.77 12.1225 53.03 12.9425 52.03C13.8025 50.98 14.0025 49.39 13.0725 48.34C12.8125 48.04 12.0325 48.16 11.6925 48.3L9.52249 49.17C8.79249 47.84 9.42249 46.58 10.5225 45.8C11.8025 44.89 13.4525 44.37 15.0125 45.19L15.0325 45.21Z" fill="black"/>
<path d="M9.50254 15.36L10.3625 18.51L8.74254 19.84C8.57254 19.98 8.05253 20.11 7.87253 20.02C7.15253 19.66 5.81254 16.22 5.96254 14.39C6.32254 10.13 8.92253 6.66 12.6625 4.73L16.2525 2.88L16.5325 0C19.3325 1.02 20.0925 2.22 22.3225 4.11C22.4125 4.18 22.5725 4.39 22.6225 4.48C22.6725 4.57 22.5325 4.87 22.4525 4.95L17.0825 9.78C16.9925 9.86 16.6625 9.97999 16.5425 9.92999C16.4025 9.87999 16.2025 9.57 16.1725 9.42L15.6525 7.10001C11.7625 7.13001 8.61254 12.09 9.50254 15.36ZM18.3425 6.28999C18.9425 6.35999 19.4225 5.97 19.6325 5.66C19.9025 5.26 20.0225 4.61 19.6925 4.23C19.0725 3.53 17.6225 3.57 17.1825 4.42C16.8125 5.14 17.5125 6.18999 18.3425 6.28999Z" fill="black"/>
<path d="M63.0224 121.9L62.4124 121.37L63.7824 120.44L63.6824 119.89C63.6524 119.74 64.2124 119.53 64.3024 119.65L65.3524 121.02L65.1824 120.02L65.8524 119.81L64.7324 119.44C64.9724 118.74 65.2024 118.26 65.6424 117.71C66.0824 117.16 66.7524 116.18 67.0824 115.66C67.1324 115.58 67.5624 115.47 67.6424 115.42C67.7524 115.35 67.7124 115.21 67.7424 114.96L69.7624 112.51C70.1024 112.63 70.6024 113.05 70.6924 113.36C70.4924 114.2 70.1124 115.1 69.6724 115.85L68.4424 115.8L69.4724 116.61L66.7424 121.51C66.6324 121.7 66.3324 121.98 66.1524 121.97L65.0524 121.92L66.2424 122.65L64.9324 125.06C63.5524 124.64 62.4524 123.64 61.7424 122.31L63.0124 121.9H63.0224Z" fill="black"/>
<path d="M71.7725 110.91C71.6525 111.5 71.0925 111.77 70.5425 111.45L71.2725 110.56C71.3225 110.5 71.5625 110.49 71.6325 110.48C71.7025 110.47 71.7825 110.81 71.7625 110.91H71.7725Z" fill="black"/>
<path d="M67.7926 75.16C65.4626 74.36 67.6526 75.55 64.1426 74.56C63.9826 74.16 64.6426 73.68 65.1326 73.79L66.0726 74V72.53C65.6526 72.58 65.0726 72.49 64.7826 72.05C64.5526 71.69 64.3326 71.23 64.6426 70.76C65.1326 71.4 65.4826 71.95 66.2426 71.89C67.1726 71.81 66.1326 72.42 67.9426 72.9L67.8026 75.16H67.7926Z" fill="black"/>
<path d="M61.9724 71.3101L58.7624 71.1501L59.6024 72.08L59.1124 72.5C58.7924 72.09 58.6424 72.02 57.9524 71.94C57.9524 71.69 58.1724 71.04 58.4224 70.76C59.0724 70.02 60.2224 70.8 61.9624 70.7C62.1224 70.7 62.5024 70.33 62.6024 70.42L63.0424 70.83L63.6924 70.3L63.7424 71.58C63.1224 71.46 62.6124 71.33 61.9824 71.3L61.9724 71.3101Z" fill="black"/>
<path d="M63.4425 73.69C63.5125 73.65 63.6325 74.12 63.6025 74.29C63.5725 74.46 63.2125 74.82 63.0325 74.75L61.1525 74.01C60.8925 73.91 60.7325 73.21 60.7725 72.97L62.4025 73.84C62.6225 73.96 62.9425 73.88 63.4525 73.68L63.4425 73.69Z" fill="black"/>
<path d="M64.4626 72.77C63.4126 73.03 62.1726 72.96 61.1326 72.15C62.2626 71.73 63.3726 71.91 64.4626 72.77Z" fill="black"/>
<path d="M29.5024 26.3L29.5424 25.83C29.5824 25.36 29.8224 26.37 30.7624 24.59C31.3424 23.51 30.5424 21.85 29.7224 21.91C29.5824 21.91 29.2424 22.14 29.1324 22.06L28.5624 21.65L26.9924 23.18L27.1624 25.37L25.7024 25.32C25.5824 25.32 25.1624 25.08 25.2124 24.98L25.4124 24.55L25.7724 22.02H26.3624C26.4124 21.48 26.4924 21.14 26.6924 20.92C27.0424 20.53 27.7424 20.75 28.0524 20.62C28.8524 20.28 29.3624 20.08 30.1824 20.43C30.6024 20.66 31.7924 20.43 32.0024 21.3C32.0424 21.46 31.8524 21.64 31.6824 21.86L32.4124 22.08C32.9524 23.12 32.4824 23.99 32.1324 24.94C31.7824 25.89 31.1024 26.59 30.2524 26.84C30.0324 26.9 29.6924 27.34 29.5224 27.27C29.2924 27.17 28.9724 26.99 28.6524 26.81L28.5824 27.42C27.9024 27.37 27.3824 27.05 27.1824 26.31L25.8424 26.14C27.0024 25.28 28.3624 25.67 29.4824 26.31L29.5024 26.3Z" fill="black"/>
<path d="M30.2726 23.92C30.1426 24.42 29.6526 24.9 29.2826 25C28.8126 25.14 28.0226 25.06 27.7826 24.68C27.3126 23.94 27.7526 23.16 28.3526 22.66C28.7026 22.37 29.2826 22.37 29.7026 22.62C30.0426 22.82 30.4026 23.4 30.2726 23.91V23.92Z" fill="black"/>
<path d="M48.0825 72.53C48.0225 73.89 42.3925 73.2099 41.3125 71.8799C43.6025 71.0499 46.0525 71.37 48.0825 72.53Z" fill="black"/>
</svg>
