<svg width="82" height="163" viewBox="0 0 82 163" fill="none" xmlns="http://www.w3.org/2000/svg">
<path d="M47.21 153.62C48.03 158.02 50.59 159.65 54.6 161.08C52.54 162.13 49.23 161.9 47.24 161.01C45.25 160.12 43.18 160.77 41.33 162.09C41 161.28 41.53 160.49 42.2 160.11L44.98 158.53C45.83 158.05 45.15 154.56 44.91 153.57L44.16 150.49L43.66 148.43L42.83 143.58C42.7 142.82 41.92 141.62 41.44 141.02C40.72 140.12 39.83 139.45 39.55 138.32C39.32 137.38 39.96 136.53 40.45 135.82C41.01 134.99 42.63 131.47 42.22 130.56L37.6 131.18L33.73 131.54L30.33 131.75C29.38 131.81 28.4 131.78 27.42 131.95C25.95 132.2 25.83 138.13 25.63 138.8L23.14 147.11C22.69 148.61 22.75 150.2 23.47 151.51C24.12 152.68 26.22 157.29 25.8 158.3C25.74 158.45 25.23 158.28 25.08 158.1C22.8 155.26 18.89 150.31 15.4 148.92C15.76 147.43 17.88 148.57 19.2 147.98C20.27 147.5 20.18 145.22 20.52 143.59L21.23 140.21C21.46 139.1 21.6 137.99 21.77 136.87C22.06 134.9 22.76 133.02 22.31 130.97C22.2 130.49 21.24 129.87 20.8 129.64L16.44 127.43C14.38 126.39 10.28 122.77 9.90998 120.57L16.63 120.44L23.17 120.16C24.6 120.1 25.98 119.75 27.41 119.61L32.21 119.13C35.35 118.82 38.83 117.65 41.36 115.92C41.69 115.69 42 114.78 41.71 114.65C40.77 114.21 38.07 115.02 37.78 115.7L34.72 116.63C30.23 117.99 27.91 117.49 23.49 118.65C22.54 118.9 21.26 118.71 20.25 118.84C19.09 118.99 17.96 119.11 16.81 119.15L14.78 119.22C12.11 119.31 7.72998 119.43 5.11998 118.37C6.13998 117.05 7.36998 116.62 8.72998 116.05C9.58998 115.69 10.52 115.92 11.46 115.96C19.3 116.34 27.66 115.39 35.19 113.03C37.11 112.43 39.11 111.54 40.98 110.83C41.16 110.76 41.46 110.29 41.47 110.1C41.5 109.16 39.34 109.5 38.37 109.88C29.33 113.46 18.96 115.59 9.30998 114.34C8.13998 114.19 6.80998 114.28 5.82998 113.53C5.50998 113.28 6.32998 112.7 6.65998 112.72C8.36998 112.86 9.93998 112.96 11.64 112.76C14.29 112.45 16.85 112.16 19.49 111.67C25.48 110.56 32.77 108.54 38.41 106.39C39.01 106.16 39.49 104.9 38.86 104.58C38 104.14 36.84 104.57 35.93 104.93C31.87 106.54 27.88 107.96 23.59 108.85L19.65 109.67L17.74 110.04C15.44 110.49 13.23 110.93 10.86 111.15C6.22998 111.57 5.01998 112.04 1.22998 108.69C2.00998 108.21 2.69998 108.19 3.54998 108.21C4.69998 108.23 5.77998 108.09 6.91998 107.98L10.5 107.65L14.44 107.13C18.5 106.59 22.58 105.59 26.41 104.11C27.01 103.88 27.63 103.65 28.18 103.32C29.45 102.55 30.66 101.92 31.96 101.26L35.41 99.5199C37.52 98.4499 41.61 97.0099 43.97 97.59C46.71 98.2599 46.25 101.6 47.94 101.61C48.91 101.61 49.46 100.05 49.62 99.2399C49.94 97.5899 49.88 96.0899 49.6 94.4499C49.46 93.6399 49.41 92.5999 49.18 91.8799C47.95 87.9399 45.53 83.42 42.53 80.72C40.91 79.26 38.46 78.78 36.38 78.72L28.2 78.5099L25.88 78.2399C25.73 78.2199 25.36 77.9599 25.25 77.8799C25.11 77.7699 25.58 77.3299 25.76 77.2699C28.64 76.2999 28.58 76.1099 31.72 75.9199C33.31 75.8299 34.83 75.8399 36.44 75.8999C37.55 75.9399 39.12 76.4899 40.06 75.7999C40.63 74.7299 39.57 73.3799 38.47 72.9899C35.26 71.8499 28.04 71.56 24.41 72.84C23.51 71.14 27.4 68.7899 28.94 68.8999C30.91 70.9899 32.86 71.5999 35.75 70.9599C36.05 69.3099 32.74 71.0199 29.99 68.4499C29.27 67.7799 28.93 66.0699 29.7 65.5799C30.47 65.0899 31.15 67.02 32.15 67.44C33.33 67.94 34.68 68.4199 35.97 68.2299C36.74 68.1199 38.05 67.3899 38.51 66.8499C41.05 63.8799 43.77 65.1499 46.11 65.8299C48.45 66.5099 50.51 66.9699 52.24 68.8299C53.66 70.3599 54.99 67.41 57.42 66.34C60.02 65.19 63.07 65.7399 65.2 67.5399C68.22 70.0799 68.57 73.4899 69.73 76.6599L71.61 81.7699C72.59 84.4399 73.66 86.9799 74.89 89.5799C75.74 91.3799 77.01 92.7999 78.14 94.4099L79.2 95.9099C79.83 96.7999 80.56 98.0599 80.06 99.0099C79.18 100.7 76.24 96.8199 75.62 95.9799C74.49 96.5099 75.57 96.4599 74.43 99.1199C74.14 99.7899 73.77 100.64 73.26 101.08C72.99 101.31 72.12 101.28 71.87 101.08C70.9 100.29 71.39 98.0699 72.13 96.6399C73.23 94.5299 73.03 92.0699 72.44 89.8199C70.98 84.2199 69.56 80.9099 67.41 75.5799C66.55 73.4599 62.83 67.1 59.9 67.19C58.82 67.22 53.85 68.5399 54.59 70.3599C55.02 71.4299 58.69 67.2899 62.73 71.3299C61.11 73.2799 59.52 75.6599 57.08 75.9099C56.83 75.9399 56.43 76.62 56.57 76.81C57.12 77.52 61.37 80.2799 63.73 83.7999L64.74 85.31C66.8 88.39 68.02 91.94 68.51 95.69C68.81 98.01 68.7 100.43 68.55 102.81C68.45 104.34 67.12 110.01 66.39 111.38C66.2 111.74 65.98 112.12 65.88 112.36C65.78 112.6 66.4 113.15 66.67 113.18C69.6 113.52 71.06 113.14 73.7 112.49C74.97 112.17 76.26 111.98 77.6 111.75C79.32 111.45 81.13 112.49 81.4 114.33C81.57 115.45 81.65 116.99 81.29 118.01L80.48 120.35C80.09 121.46 79.32 122.34 78.92 123.44L78.25 125.29C77.81 126.51 77.18 127.54 76.69 128.74L74.69 133.7L74.03 135.56C73 138.47 72.19 141.32 71.53 144.32C70.7 148.12 70.31 148.18 68.11 150.99C67.91 151.25 67.2 151.5 66.98 151.47L67.14 149.42C67.2 148.65 67.32 147.91 67.49 147.16L68.89 140.89L69.72 137.49L71.62 130.71C71.98 129.41 72.45 128.07 72.93 126.81C73.41 125.55 74.23 124.08 72.82 122.83C72.04 123 71.23 125.6 71.02 126.36L69.68 131.2L68.23 137.15L67.83 138.79C67.51 140.12 67.25 141.41 67.03 142.75L66.58 145.43L65.88 148.77L65.22 151.92C63.89 151.6 64.58 148.4 64.79 147.24L65.2 144.96L65.92 140.87L66.35 137.72C66.67 135.34 67.97 130.02 68.69 127.64L69.65 124.45C69.89 123.66 70.48 122.82 70.41 121.94C70.07 121.56 68.98 122.03 68.8 122.56L67.24 127.19C66.77 128.59 66.62 130.24 66.15 132.33L64.74 138.63L64.26 141.04C64.03 142.22 64.01 143.49 63.84 144.71L63.24 149.02L62.07 146.76C61.09 144.86 62.1 143.16 62.43 141.22L63.28 136.23L63.78 133.61L64.5 129.99C64.71 128.95 64.8 127.93 65.05 126.89L66.26 122.03C66.48 121.13 66.61 120.18 66.93 119.33C67 119.16 66.93 118.74 66.86 118.58C65.88 116.5 63.47 127.93 63.58 127.5L63.01 129.63L61.95 135.41C61.31 138.89 61.42 139.95 60.72 143.43C60.08 142.23 59.67 141.17 59.4 139.9L59.8 137.7C60.05 136.31 59.91 135.01 60.41 133.69C61.13 127.55 62.14 121.59 65.22 115.71C64.56 115.01 62.18 118.83 61.8 119.41C59.91 122.25 60.6 122.82 60.01 126.21C59.83 127.24 59.66 128.34 59.43 129.3C59.15 130.48 58.97 131.35 58.95 132.55L58.9 137.4C58.11 137.4 57.63 132.84 57.63 132.54L57.61 125.84C56.25 125.76 55.93 127.03 55.12 127.57C53.86 128.42 52.37 129.1 51.04 129.79C47.55 135.93 47.39 137.78 46.41 144.37C46.05 146.79 46.75 151.17 47.22 153.66L47.21 153.62ZM43 73.2699C44.48 72.6499 45.1 71.65 44.72 70.06C44.37 68.59 42.59 68.03 41.17 68.5C39.58 69.02 38.82 70.3699 39.33 71.9899C39.77 73.3599 41.56 73.8799 43 73.2699ZM54.15 72.1099C54.17 72.4099 54.63 73.0999 54.93 73.1099C57.06 73.1999 58.13 72.9899 60.1 72.1799C60.51 72.0099 60.94 71.52 60.89 71.12C60.72 69.74 57.9 71.1899 57.25 71.5199C55.92 72.1999 55.62 70.99 54.66 71.31C54.45 71.38 54.14 71.8899 54.16 72.1099H54.15ZM60.43 101.07C61.54 98.0699 61.25 94.78 60.28 91.78C59.67 89.89 58.96 88.0999 57.92 86.4499C56.37 84.0099 54.57 81.2299 52.13 79.7299C51.06 79.0699 49.27 79.0399 48.85 80.5099C48.57 81.4899 51.08 82.5899 52.14 85.8199C53.42 89.6999 54.42 94.88 52.09 98.44L49.16 102.93C48.68 103.66 48.14 104.81 48.31 105.66C48.7 107.61 50.54 108.7 52.18 109.02C56.54 109.87 59.15 104.52 60.43 101.08V101.07Z" fill="black"/>
<path d="M13.7301 97.23C13.8701 99.36 14.3401 101.31 14.6801 103.28C14.7301 103.56 14.9201 104.28 14.6601 104.42C13.7601 104.89 12.2901 104.82 11.5401 104.27C8.9701 98.34 9.5901 88.97 11.1101 82.85C13.1901 74.49 17.4701 65.95 21.4001 58.23C22.4001 56.26 23.2001 54.44 23.9301 52.38C25.1101 49.03 24.7901 43.91 24.2101 40.34L23.8801 38.31L23.5401 36.32C23.1201 33.81 22.8401 31.42 22.8201 28.88C22.8101 26.9 23.2901 25.39 24.1901 23.66L26.8201 18.6C27.8501 16.61 28.2701 14.85 28.6901 12.36L30.0301 14.56C32.6201 18.8 33.8301 22.49 35.0501 27.27C36.4301 32.71 35.1301 39.24 32.6801 44.33L31.8301 46.1L29.6501 50.9L26.4901 58.61L22.4201 67.91L20.8501 71.22L18.3201 76.12L16.5901 79.14C13.5501 84.44 13.3201 91.01 13.7301 97.23ZM31.2901 34.8L32.5101 31.92C34.1901 27.93 32.7901 25.13 29.4601 22.62C28.1601 23.99 27.2001 25.24 26.3701 26.77C25.8101 27.82 25.8101 29.02 25.8701 30.21C26.0201 33.63 27.2001 33.32 28.0601 37.46C28.5501 39.79 30.3901 35.43 31.2901 34.81V34.8Z" fill="black"/>
<path d="M30.82 58.74L34.98 51.73C36.6 49 38.42 46.49 39.53 43.48C39.93 42.39 40.88 38.04 40.86 36.89L40.71 30.2C40.71 29.82 40.4 29.02 40.34 28.61L39.78 25.25C39.26 22.12 38.9 22.74 38.65 18.96C38.5 16.79 39.04 13.74 39.48 11.48C39.76 10.02 40.26 8.68999 40.74 7.29999L42.07 3.51999L43.21 0C47.16 4.63 50.37 9.51999 51.79 15.4C52.86 19.8 52.82 25.73 51.6 30.09C51 32.23 50.35 34.16 49.4 36.22C47.1 41.18 44.69 46.01 41.58 50.5L40.56 51.98C38.09 55.56 35.51 58.95 32.47 62.05C30.01 64.56 29.68 63.49 28.15 65.5C27.8 65.96 27.68 66.44 27.68 67.18C27.06 67.55 26.22 67.97 25.24 68.29L30.82 58.74ZM45.94 27.56L47.31 24.88C47.7 24.12 48 23.3 48.34 22.49C49.43 19.93 49.92 17.19 49.02 14.48C48.45 12.76 47.11 10.96 45.17 10.8C43.8 10.68 41.4 14.37 41.24 15.54C40.94 17.73 41.86 19.58 43.05 21.3C43.8 22.39 44.16 23.66 44.41 24.92L44.9 27.39C44.94 27.6 45.14 28.09 45.33 28.07C45.52 28.05 45.85 27.75 45.95 27.57L45.94 27.56Z" fill="black"/>
<path d="M45.2101 61.2801C44.5901 61.5901 44.1201 62.04 43.3401 61.91C45.6001 59.46 48.3401 56.2201 49.5501 53.1901C51.6801 47.8601 50.5101 46.7901 51.9201 43.4601C54.0401 38.4501 55.5301 36.72 57.7501 32.13C57.9201 31.78 57.7701 31.14 58.3201 31.04C59.2601 32.71 60.3401 34.3301 60.8001 36.1201C61.0301 37.0101 61.3701 37.98 61.4901 38.85C62.0701 42.92 61.5501 45.26 60.3001 48.88C58.3201 54.6 50.3701 58.7 45.2201 61.29L45.2101 61.2801ZM60.4601 44.57C61.2701 41.37 60.5701 39.57 59.3901 36.73C59.2701 36.43 58.8201 35.93 58.5301 35.88C56.8301 35.6 51.9301 40.33 53.5701 45.04C54.4401 47.55 54.6901 49.08 53.3801 51.89C53.2501 52.17 53.4501 53.0601 53.6901 52.9301C57.4001 50.8701 59.4301 48.64 60.4601 44.57Z" fill="black"/>
<path d="M20.76 90.6L21.11 94.63C21.33 97.18 22.03 99.4201 22.52 101.9C22.65 103 20.18 103.86 19.45 103.02C18.34 101.74 18.26 99.8101 17.71 98.2201C16.66 95.1901 16.77 91.4201 16.96 88.0801C17.41 80.1301 22.79 71.2801 22.88 72.8601L22.91 73.3701C22.99 73.6101 23.18 74.0901 23.3 74.3301C23.68 75.1301 25.47 73.6001 26.1 74.2301C25 75.8401 23.45 78.1401 22.94 79.6201C22.23 81.6701 21.35 83.6701 21.17 85.8301L20.76 90.6Z" fill="black"/>
<path d="M29.48 96.8001C29.46 97.8401 30.03 99.3001 29.5 100.12C28.3 102 24.19 102.88 24.18 100.95C24.16 98.1101 24.03 95.43 24.28 92.66C24.69 88.16 24.98 84.7101 27.26 80.7001C27.72 79.8901 31.53 80.0001 32.51 80.2801C32.21 81.1001 31.73 81.66 31.56 82.32C30.82 85.25 29.58 90.0401 29.54 92.7701L29.48 96.79V96.8001Z" fill="black"/>
<path d="M35.77 94.77L35.4 98.03C33.26 98.47 33.63 98.94 31.55 99.54C31.38 97.69 31.48 96.32 31.61 94.65C31.8 92.32 32.14 90.07 33.55 88.17C35.41 85.65 38.84 86.45 41.13 87.93C42.25 88.65 43.04 90.31 42.22 91.49C41.45 92.6 39.75 92.16 38.76 91.65C37.65 91.08 36.48 91.67 36.13 92.81C35.96 93.36 35.83 94.07 35.75 94.77H35.77Z" fill="black"/>
<path d="M9.26009 139.68C8.36009 140.3 7.07009 139.1 6.49009 138.59C5.02009 137.3 4.31009 134.78 4.59009 133.12C9.61009 133.72 10.6601 133.45 14.4001 130.55C14.6601 130.35 14.9401 130.11 15.1301 130.03C15.3601 129.93 15.8501 130.35 15.9901 130.58L17.2101 132.53C17.6901 133.31 17.8101 134.36 17.3701 135.18C16.9701 135.93 16.0201 136.23 15.1601 136.46C12.9101 137.05 11.2201 138.34 9.27009 139.68H9.26009Z" fill="black"/>
<path d="M11.18 128.05C11.89 128.78 11.41 129.8 11.06 130.5C9.99001 132.67 4.77 132.04 2.4 129.56C0.590002 127.67 0.27 123.56 0 120.9C0.81 121.4 0.940006 122.04 1.35001 122.71C3.59001 126.42 5.74 126.49 9.71 127.06C10.09 127.24 10.83 127.7 11.18 128.05Z" fill="black"/>
<path d="M76.63 107.48C75.57 106.9 74.46 106.01 73.98 104.89C72.88 102.3 75.16 101.92 76.43 99.78C77.51 100.47 79 101.35 79.38 102.83C79.63 103.77 78.86 105.13 78.24 105.78L76.62 107.48H76.63Z" fill="black"/>
<path d="M35.58 67.26C35.44 67.13 35.31 66.64 35.37 66.45C35.44 66.22 35.87 65.79 36.14 65.74L38.03 65.4C37.99 66.86 36.54 67.16 35.58 67.26Z" fill="black"/>
<path d="M29.5799 33.3499C29.3099 33.8499 29.0099 34.33 28.5999 34.26C27.8999 32.21 26.0599 29.17 27.9199 27.86C28.7099 27.31 30.4299 27.22 30.7799 28.3C31.3499 30.06 30.4199 31.7699 29.5899 33.3499H29.5799Z" fill="black"/>
<path d="M45.33 21.96C44.07 19.27 42.79 17.78 43.36 15.22C43.53 14.48 44.52 14.12 45.13 14.08C45.85 14.04 46.91 14.31 47.14 15.12C47.69 17.09 46.84 20.13 45.33 21.96Z" fill="black"/>
<path d="M58.9401 44.77C58.5001 45.9 57.4001 46.7 56.3201 46.3C54.0801 45.48 54.3901 40.36 56.2101 40.01L59.1201 41.35C59.9101 42.15 59.3601 43.7 58.9501 44.76L58.9401 44.77Z" fill="black"/>
</svg>
