<svg width="80" height="173" viewBox="0 0 80 173" fill="none" xmlns="http://www.w3.org/2000/svg">
<path d="M30.0021 96.97C32.3921 99.6 33.5821 103.15 33.0421 106.63C32.7721 108.33 32.4821 109.96 31.6521 111.4C30.3221 113.71 27.9121 112.03 27.3521 111.95C26.2821 111.8 28.3921 113.27 27.8321 114.83C26.7321 117.91 20.4321 118.44 17.1521 117.43C16.6221 117.27 16.0221 116.96 15.4521 116.87C14.6821 116.75 14.3321 116.21 14.2921 115.54C13.3121 115.78 12.6721 115.2 11.9621 114.5C9.03212 111.65 6.47212 108.49 4.67212 104.76C7.66212 106.16 11.0321 105.79 13.0221 103.41C14.5421 101.59 14.9621 99.18 14.1021 96.92C13.2821 94.78 12.6021 92.66 12.3021 90.41C12.1321 89.14 11.9321 88 11.9221 86.67C11.8321 75.47 18.1921 65.18 28.6821 60.72L30.2021 64.27C22.6621 67.59 17.5021 74.38 16.1821 82.2C14.7821 90.54 17.8521 98.76 24.1221 104.28C25.8421 105.79 25.9921 108.29 24.3421 109.69C23.3121 110.56 22.1321 110.77 21.0221 109.95C20.5621 109.61 20.0421 109 19.9321 108.56C19.7821 107.95 20.0921 106.93 20.6221 106.69C20.6821 107.71 20.8121 108.62 21.7321 108.91C22.4521 109.13 23.5321 108.69 23.7721 108.09C24.2221 107 23.7021 106.2 22.7021 105.67C21.8721 105.23 20.8421 105.38 20.1221 105.96C19.4621 106.49 19.0521 107.52 19.1521 108.5C19.3021 109.86 20.5021 110.78 21.5121 111.02C22.8821 111.35 24.2221 111.05 25.1221 110.02C26.8721 108.01 26.3321 105.32 24.3821 103.52C18.4021 97.99 15.4621 90.2 17.0221 81.82C18.3521 74.72 23.3521 68.01 30.5021 65.05L31.9421 68.65C22.3521 72.95 18.0921 83.83 21.9921 93.44C22.4321 94.52 23.4521 95.31 24.4521 95.3C25.5721 95.3 26.5121 94.69 27.2021 93.68C28.1521 94.84 29.0221 95.9 29.9921 96.97H30.0021Z" fill="black"/>
<path d="M60.1923 64.56C60.3623 63.42 59.7723 62.43 59.0123 61.87C58.2523 61.31 57.1523 61.12 56.1323 61.28C54.5323 61.52 53.5323 63.14 53.2723 64.41C52.9023 66.19 53.5923 67.55 54.9123 68.75C60.9423 74.29 63.9223 82.04 62.3823 90.46C61.0823 97.59 56.1923 104.23 48.8923 107.33L47.4323 103.78C57.1223 99.28 61.4923 88.19 57.2023 78.45C56.7923 77.53 55.5223 77.02 54.6923 77.05C53.7423 77.09 52.8523 77.75 52.2623 78.69L49.1223 75.07C47.6223 73.34 46.7623 71.14 46.3323 68.88C45.8123 66.14 46.5623 63.31 47.8123 60.92C48.9923 58.66 51.5823 60.33 52.1223 60.42C52.9723 60.57 49.9823 57.62 52.6123 56.09C56.7223 53.7 62.1823 53.8 66.1523 56.76C69.7523 59.44 72.1723 63.13 74.5723 67.21C74.2523 67.32 73.6023 67.18 73.3523 67.02C73.2923 66.98 73.4223 66.67 73.4123 66.6C73.4023 66.5 73.2123 66.21 73.1723 66.31C73.1323 66.41 72.8023 66.87 72.6823 66.84C71.0523 66.44 67.9523 66.97 66.4923 68.82C65.1623 70.5 64.2423 72.9 65.2323 75.24C71.1923 89.31 64.8223 105.57 50.6623 111.68L49.2023 108.05C56.6523 104.86 61.6723 98.17 63.0923 90.66C64.6723 82.29 61.8123 74.07 55.6623 68.48C54.0423 67.01 53.2123 64.87 54.6723 63.1C55.5523 62.04 56.7923 61.6 58.0923 62.19C58.6923 62.46 59.2823 63.07 59.4023 63.6C59.5823 64.42 59.3523 65.27 58.8223 65.69C58.7323 64.94 58.6123 64.1 58.0823 63.67C57.6823 63.35 56.6623 63.17 56.2823 63.5C55.8223 63.9 55.3823 64.88 55.5523 65.46C55.9023 66.69 57.1323 67.09 58.1323 66.92C59.1323 66.75 60.0023 65.9 60.2023 64.54L60.1923 64.56Z" fill="black"/>
<path d="M37.3722 142.42C36.7422 141.44 36.3722 140.22 37.1322 139.42L40.2522 136.15C39.7422 134.21 40.4122 132.51 41.8122 131.3L47.1922 125.98C47.7922 128.32 48.1822 130.21 49.8922 132.11L18.9622 163.07C18.0222 162.26 18.5822 161.23 19.3422 160.48L37.3722 142.42Z" fill="black"/>
<path d="M73.0222 165.6L59.9521 134.13C61.2521 133.33 62.0122 132.76 63.2222 131.76L75.2422 160.9C75.9522 162.62 74.7322 164.88 73.0222 165.61V165.6Z" fill="black"/>
<path d="M30.2222 135.23L12.0222 153.41C11.3322 154.1 10.4022 154.44 9.46216 153.7L15.8822 147.32C16.0922 147.2 16.6522 146.95 16.8522 146.86C17.4222 145.76 18.1422 145 19.0722 144.07L40.5022 122.66C42.2422 124.3 44.0622 124.87 46.5522 125.4L40.0922 131.91C38.9722 132.46 37.9022 132.56 36.5222 132.48C33.6822 133.96 33.6122 137.27 30.2222 135.21V135.23Z" fill="black"/>
<path d="M15.7822 31.05C16.4322 31.39 16.9722 32.0701 17.2922 32.9001L19.3522 38.2401L16.1622 40.6L4.2122 11.72C3.4422 9.86003 4.5322 7.74006 6.3422 6.69006L14.2922 25.84C14.5222 26.4 13.6622 28.08 15.0522 27.85L16.1222 30.2601L15.7922 31.05H15.7822Z" fill="black"/>
<path d="M32.8323 46.96L38.5623 41.11C39.8223 39.82 41.4923 39.75 43.2123 39.9C44.9723 38.24 46.4823 35.01 49.1323 37.17L66.0723 20.26C66.9723 19.36 67.5223 18.48 68.9023 18.22L68.7923 19.66L64.5323 24.08L63.8623 24.21C63.7023 24.24 63.6223 24.75 63.5623 25.02L38.9623 49.63C37.0923 48.2 35.5423 47.54 32.8223 46.97L32.8323 46.96Z" fill="black"/>
<path d="M39.2923 36.12C39.4523 37.86 39.2723 39.35 38.0023 40.62L32.2223 46.4C31.6923 43.93 30.9123 42.1 29.5723 40.17L42.0623 27.7L58.7923 10.91C59.4123 10.84 60.0923 10.98 60.6923 11.25L41.9823 29.97C42.9023 31.19 42.9723 32.65 41.7623 33.54L40.6923 34.33L39.3023 36.11L39.2923 36.12Z" fill="black"/>
<path d="M39.1221 29.46L35.6021 33.02C35.2921 31.54 35.4121 30.41 35.4121 29.04L35.3721 19.71L35.4821 3.42999C35.4921 1.48999 37.6621 0.1 39.3321 0L39.3721 18.13L39.3221 28.04C39.3221 28.34 39.3221 29.24 39.1221 29.45V29.46Z" fill="black"/>
<path d="M40.0322 165.43L39.9521 161.37L40.5422 162.14L41.2922 160.5L40.5621 160.65C40.4121 160.68 39.9821 160.52 40.1021 160.43L40.6422 159.98C40.7222 159.91 40.1822 159.68 40.0122 159.57V143.13L43.8821 139.29C44.1021 141.03 44.0322 142.37 44.0322 144.05L44.0122 168.07C44.0122 170.23 42.4522 172.14 40.3622 172.32C39.8022 171.83 40.0221 170.7 40.5221 170.19L40.0621 169.99C39.9621 169.95 40.0022 169.58 40.0022 169.39L40.0322 165.43Z" fill="black"/>
<path d="M47.1823 102.99L45.5623 99.4601C52.7923 96.0201 56.0023 88.01 53.0223 80.54C52.5723 79.42 53.2123 78.3101 54.2423 77.9501C55.3723 77.5501 56.3123 78.2 56.7823 79.41C60.3323 88.48 56.3323 98.8101 47.1723 102.99H47.1823Z" fill="black"/>
<path d="M13.6421 46.7L10.4221 39.05L4.4121 24.43C4.3021 24.15 4.5921 23.53 4.5121 23.51L3.9921 23.4C2.8121 21.31 3.0821 18.49 5.6221 17.14L15.6621 41.43C14.4521 43.16 14.0521 44.66 13.6521 46.7H13.6421Z" fill="black"/>
<path d="M26.3622 91.99C26.7822 93.13 26.0422 94.27 25.0622 94.5C24.3022 94.68 23.2022 94.35 22.7922 93.39C18.7822 84.06 23.0822 73.41 32.3122 69.34L33.7622 72.89C26.4422 76.56 23.4322 84.04 26.3622 91.98V91.99Z" fill="black"/>
<path d="M73.9422 155.2C73.3022 154.13 72.8822 153.1 72.4122 151.95L63.7722 131.12C64.7622 129.37 65.2922 127.76 65.8222 125.82L75.7922 149.84C76.5922 151.77 75.9122 153.92 73.9422 155.2Z" fill="black"/>
<path d="M48.7021 158.75C48.7021 161.1 46.9521 162.93 44.7021 163L44.7421 138.43L48.6422 134.63L48.7021 158.74V158.75Z" fill="black"/>
<path d="M18.7622 48.87L24.2122 62.04L21.0522 64.48L15.0122 49.87C13.3022 45.75 15.6022 41.04 19.6122 39.11C20.2322 40.16 20.7222 41.24 21.2522 42.53C19.1422 43.86 17.7722 46.44 18.7722 48.87H18.7622Z" fill="black"/>
<path d="M34.6721 33.94C33.3321 35.33 32.3121 36.41 30.6821 37.69L30.7621 12.94C30.7621 10.91 32.9321 9.39001 34.6421 9.39001L34.6621 33.93L34.6721 33.94Z" fill="black"/>
<path d="M59.8021 133.32C59.0121 132.16 58.5921 131.03 58.1821 129.74C61.1621 128.08 61.3421 125.04 60.1721 122.26L55.1521 110.27L58.2921 107.94C59.0221 109.48 59.6121 110.64 60.1921 112.09L64.4921 122.97C66.0621 126.93 63.5521 131.35 59.8021 133.32Z" fill="black"/>
<path d="M74.5022 144.76L65.0222 121.88C66.2322 121.12 67.2622 120.39 68.3122 119.56L76.3222 138.81C77.2422 141.02 76.9922 143.48 74.5022 144.77V144.76Z" fill="black"/>
<path d="M14.3323 50.4401L11.0223 52.79L3.28229 34.1201C2.31229 31.7801 2.12229 29.2 4.79229 27.67L6.27229 30.92L14.3323 50.4401Z" fill="black"/>
<path d="M69.8022 108.85L68.3322 105.26C70.7022 103.82 71.7622 101.13 70.6422 98.51L67.7422 91.75C68.2922 88.7 68.1222 85.87 68.1922 82.49L74.3622 97.37C76.1322 101.65 74.0722 106.79 69.7922 108.84L69.8022 108.85Z" fill="black"/>
<path d="M11.0123 89.19L5.4323 75.96C4.6423 74.09 4.1923 72.28 4.5423 70.31C5.2523 70.29 5.1823 70.23 4.6423 69.94C5.0723 67.08 6.9823 64.93 9.5023 63.51L11.1423 67.05C5.3023 70.77 10.3923 76.04 11.5623 80.79L11.0123 89.2V89.19Z" fill="black"/>
<path d="M29.9722 38.53C28.6822 39.93 27.6522 41.07 26.0322 42.41L26.0622 22.47C26.0622 20.35 28.1822 18.74 29.9622 18.82L29.9822 38.53H29.9722Z" fill="black"/>
<path d="M49.4821 153.66L49.4321 133.87C50.6821 132.43 51.7621 131.28 53.3921 129.98L53.4321 148.96C53.2821 151.15 52.3621 153.31 49.4821 153.66Z" fill="black"/>
<path d="M13.6323 60.8L16.9023 68.95L14.3023 72.82L10.1723 62.99C8.29229 58.51 10.1723 53.32 14.6923 51.34L16.0823 54.83C14.1623 56.22 12.6923 58.48 13.6323 60.82V60.8Z" fill="black"/>
<path d="M63.3122 117.53C65.2922 116.12 66.6722 113.88 65.8222 111.72L62.5022 103.39L65.0822 99.58L68.8722 108.5C70.9022 113.29 69.6422 118.66 64.7922 121.12C64.2122 119.93 63.7822 118.91 63.3122 117.53Z" fill="black"/>
<path d="M53.1621 128.86L50.5921 131.4C48.4221 129.85 48.2121 127 47.9221 124.67C45.4121 124.38 42.8121 124.09 41.1321 122.04L43.8321 119.39C46.2521 121.36 49.6421 120.73 51.3721 118.41C51.5621 118.16 52.2021 117.91 52.4521 117.93L53.8621 121.46C51.7421 123.7 51.3921 126.08 53.1821 128.86H53.1621Z" fill="black"/>
<path d="M35.5523 52.95C31.6523 50.6 30.0523 52.03 27.0823 54.63C26.4423 53.29 25.9823 52.08 25.5923 50.76C27.6523 48.72 28.0623 46.03 26.1823 43.65L28.9223 40.86C30.7823 42.77 31.3623 45.02 31.3123 47.69C33.8823 47.85 36.2223 48.26 38.3223 50.2L35.5423 52.95H35.5523Z" fill="black"/>
<path d="M8.61224 58.58C8.57224 58.76 8.39224 58.4599 8.41224 58.2999C8.44224 57.9599 7.97224 57.5099 7.85224 57.2299L2.19224 43.6199C1.32224 41.5299 2.01224 39.18 4.15224 38.08L9.69224 51.4699C9.97224 52.1599 10.5222 53.15 10.4322 53.77C9.52224 55.36 8.97224 56.82 8.61224 58.58Z" fill="black"/>
<path d="M73.0223 128.66C72.5623 127.15 71.5123 125.43 70.7523 123.5L68.8223 118.6C70.0523 116.98 70.3723 115.42 70.8823 113.48L77.4223 129.35C78.1323 131.07 77.0823 133.21 75.4023 134.26C74.4123 132.44 73.6123 130.6 73.0223 128.66Z" fill="black"/>
<path d="M28.3821 59.8801L24.9321 61.72L19.8021 49.4901C18.8621 47.2401 19.0521 44.5601 21.5921 43.4401L24.5321 50.54L26.3221 54.86L28.3821 59.8701V59.8801Z" fill="black"/>
<path d="M60.0022 123.96C60.4422 125.03 59.7322 128.4 57.8722 128.94L54.3722 120.65L51.0222 112.5L54.4722 110.6L60.0022 123.97V123.96Z" fill="black"/>
<path d="M23.2522 45.2399C21.0622 40.3799 21.3122 41.7799 21.2622 36.6099L21.2322 32.9799C21.2122 30.5999 22.5722 28.3099 25.2422 28.0499L25.2722 43.0999C24.8322 43.8599 24.1522 44.4999 23.2522 45.2399Z" fill="black"/>
<path d="M58.0321 140.43C57.9421 142.48 56.1121 144.08 54.1721 144.22L54.1321 129.06L56.0521 127.11C56.7421 128.65 57.7221 130.02 57.9221 131.58C58.3121 134.51 58.1621 137.46 58.0221 140.42L58.0321 140.43Z" fill="black"/>
<path d="M6.01225 65.0999L2.40225 56.4999C1.47225 54.2899 1.91224 51.8099 4.23224 50.5599L9.25225 62.71L6.01225 65.0999Z" fill="black"/>
<path d="M76.4721 120.91L75.2121 121.75L73.4821 117.63L70.1321 109.72L73.3721 107.31L77.2321 116.49C77.4121 116.93 78.0021 120.23 76.2321 120.19C76.1121 120.19 76.2521 120.44 76.4621 120.9L76.4721 120.91Z" fill="black"/>
<path d="M74.3523 78.9401C74.3123 79.5801 73.2723 80.7301 72.6623 80.8001C70.5123 81.0201 70.5123 79.3701 68.5123 81.2401L65.6123 74.0101C66.1923 73.3701 66.8323 72.6 67.4523 72.34C68.0723 72.08 69.6323 72.5301 70.0323 73.0101L70.9723 75.8001L73.6723 76.6101C74.0623 76.9901 74.3923 78.2001 74.3523 78.9501V78.9401Z" fill="black"/>
<path d="M11.8921 100.06C11.3021 100.42 9.84212 99.7901 9.29212 99.4601L8.59212 96.7701L5.74212 95.79C5.36212 95.25 5.03212 94.0301 4.92212 93.2001L6.69212 91.4401L8.71212 91.98C9.52212 92.2 10.0821 91.9201 10.8721 91.1801L12.9021 95.9301C13.2421 96.7401 13.4821 97.6 13.7121 98.55C13.2221 99.03 12.5421 99.6801 11.9021 100.07L11.8921 100.06Z" fill="black"/>
<path d="M64.9622 111.49C65.7722 113.6 64.8222 115.75 62.8922 116.66L58.9622 107.25L61.8822 104.2C63.0022 106.64 63.9622 108.9 64.9522 111.49H64.9622Z" fill="black"/>
<path d="M20.4022 65.0701L17.4422 68.2001L14.4222 60.8201C13.6422 58.9101 14.4622 56.6 16.4622 55.66L20.4022 65.0601V65.0701Z" fill="black"/>
<path d="M74.0222 83.92C73.5422 83.41 73.2322 82.07 73.3222 81.48L75.2422 79.47C75.3122 77.39 73.7522 76.93 75.7222 75.1C76.1622 74.69 77.5122 74.15 77.8422 75.17C78.5622 77.42 78.9322 80 79.2322 82.36L76.6122 84.52C76.1022 84.9 74.5922 84.54 74.0222 83.93V83.92Z" fill="black"/>
<path d="M4.20215 92.82C4.04215 95.3 5.51215 95.5399 3.90215 97.0499C3.46215 97.4599 2.31215 98.2099 1.74215 97.5399C0.832149 95.2099 0.402148 92.5699 0.202148 90.0999L2.86215 87.69C3.53215 87.64 4.80215 87.99 5.51215 88.37L6.12215 90.8399L4.20215 92.82Z" fill="black"/>
<path d="M39.3122 62.26C36.3322 62.43 33.9122 62.9099 31.0822 63.8699C30.4422 62.8699 29.8922 61.6799 29.5222 60.3799C32.7522 59.0499 35.9322 58.3199 39.3622 58.4699L39.3122 62.2499V62.26Z" fill="black"/>
<path d="M49.9523 111.98C46.6523 113.47 43.4223 113.86 40.0723 113.96V110.12C43.0923 109.97 45.6223 109.36 48.4423 108.52L49.9523 111.98Z" fill="black"/>
<path d="M76.8722 88.11L75.0722 90.01L71.7822 89.0899L69.0822 82.61C68.9422 82.28 69.2422 81.49 69.5122 81.36C70.2822 81 72.3222 81.25 72.6922 82.57L73.3022 84.74L76.1422 85.63C76.4522 86.11 76.7422 87.3399 76.8622 88.0999L76.8722 88.11Z" fill="black"/>
<path d="M7.06209 90.4099L5.9621 87.5399L3.24209 86.7799C2.87209 86.2299 2.52209 84.92 2.55209 84.2L4.3521 82.3199L7.7221 83.39L10.1721 89.45C10.4021 90.03 10.4121 90.5299 9.99209 90.9399C8.87209 92.0099 8.49209 90.2099 7.05209 90.4099H7.06209Z" fill="black"/>
<path d="M68.1121 104.43C67.1921 102.46 65.9321 100.4 65.6421 98.2999L67.4921 93.0599L70.0121 99.1099C70.8121 101.04 70.1321 103.31 68.1121 104.43Z" fill="black"/>
<path d="M7.03226 104.7C4.64226 104.25 3.26226 102.4 2.58226 100.3L2.06226 98.68C4.55226 98.37 3.48226 97.89 5.53226 96.52L7.71226 97.3C8.21226 97.63 8.47226 99.12 8.50226 99.76L6.49226 101.93L7.03226 104.71V104.7Z" fill="black"/>
<path d="M48.1922 107.67C45.4422 108.73 42.9622 109.2 40.0622 109.28L39.9622 105.45C42.4422 105.2 44.2422 104.88 46.6422 104.12L48.1922 107.67Z" fill="black"/>
<path d="M13.7821 74.04L11.9422 79.1401C11.1022 77.9301 10.8121 76.2001 10.0621 74.9001C8.66215 72.4901 8.54215 69.44 11.4221 67.91C12.1921 69.97 13.3622 71.91 13.7922 74.03L13.7821 74.04Z" fill="black"/>
<path d="M39.3722 66.89C36.9722 67.19 35.1222 67.57 32.7122 68.19L31.2322 64.66C34.0022 63.63 36.3622 63.15 39.2822 63.1L39.3622 66.89H39.3722Z" fill="black"/>
<path d="M77.3323 73.6501C74.3423 73.8201 75.6723 76.3501 72.5123 75.4501C71.6823 75.2101 71.3523 74.8601 71.0923 73.9901C70.2923 71.3501 72.5623 72.2501 73.0523 69.6801L72.2723 67.6801L74.5123 68.34L74.1123 68.8701C75.1223 69.4201 74.3623 70.7901 75.3423 70.6901C75.5423 70.6701 75.6023 70.3401 75.7823 69.8901C76.3723 70.9201 76.8523 72.1301 77.3323 73.6501Z" fill="black"/>
<path d="M48.8422 119.46C47.2622 120.31 45.5322 119.8 44.4722 118.73L50.2422 112.9L51.9222 116.7C51.0022 117.74 50.1022 118.77 48.8322 119.45L48.8422 119.46Z" fill="black"/>
<path d="M29.1522 59.4L27.5222 55.71C28.1022 54.63 29.3822 53.4499 30.4822 52.9699C32.0922 52.2499 33.7022 52.3299 34.8822 53.6599L29.1522 59.4Z" fill="black"/>
<path d="M78.5322 94.56L77.4222 98.65C77.0322 98.9 75.6922 98.71 75.5122 98.26L72.2822 90.12C73.3122 90.27 74.2622 90.56 74.8922 90.93L75.8422 93.76L78.5422 94.56H78.5322Z" fill="black"/>
<path d="M46.3822 103.28C44.1822 104.17 42.4222 104.57 40.0822 104.59L40.0422 100.75C41.8822 100.52 43.0422 100.28 44.8722 99.76L46.3822 103.29V103.28Z" fill="black"/>
<path d="M42.0823 79.5101L40.1623 83.79C39.9623 81.99 39.9923 80.51 40.0023 78.78L40.0423 74.93C40.0423 74.51 40.7123 73.8 41.0323 73.62C41.7423 73.21 42.8123 73.78 43.3923 74.19C43.5423 74.3 43.1923 74.7301 43.1323 74.8301L43.6523 75.16C43.8223 75.27 42.3923 78.8101 42.0823 79.5101Z" fill="black"/>
<path d="M4.66227 81.71L3.66227 78.6899L0.832275 77.8699L2.05227 73.5899C2.51227 73.5399 3.69227 73.7699 3.86227 74.1799L7.11227 82.1199L4.67227 81.71H4.66227Z" fill="black"/>
<path d="M39.2321 83.7101C37.9721 81.2301 37.0721 78.8501 36.0021 76.2501C35.7221 75.5601 35.7021 74.7001 36.0321 74.2501C36.5521 73.5201 37.4321 73.2301 38.2121 73.5201C38.8621 73.7701 39.3321 74.6501 39.3221 75.4101C39.3021 78.1701 39.5121 80.5901 39.2321 83.7101Z" fill="black"/>
<path d="M37.3122 86.67C34.5022 87.97 31.8722 89.04 29.0322 90.13C27.9322 90.55 26.9622 89.18 26.9522 88.39C26.9322 87.1 27.9922 86.53 29.1822 86.53C31.9222 86.54 34.4022 86.46 37.3122 86.67Z" fill="black"/>
<path d="M43.3922 96C43.7222 96.77 43.7522 97.66 43.3422 98.14C42.8522 98.72 41.9722 99.04 41.2822 98.78C40.6722 98.55 40.0022 97.68 39.9922 96.93C39.9522 94.01 39.9922 91.4 40.1322 88.49L43.3922 96Z" fill="black"/>
<path d="M1.74219 83.97L2.22219 86.56C2.40219 87.55 1.12219 88.52 0.122186 88.75C-0.157814 85.3 0.0521871 82.23 0.662187 78.81C1.48219 78.78 2.37219 78.96 3.12219 79.3L3.68219 81.83L1.73219 83.96L1.74219 83.97Z" fill="black"/>
<path d="M39.3422 71.59L34.4722 72.5101L33.0322 69.04C35.1222 68.23 36.9222 67.8801 39.3322 67.6901V71.59H39.3422Z" fill="black"/>
<path d="M44.5621 85.7901C43.6621 85.7901 42.8921 85.8601 41.9221 85.6301L49.9121 82.34C50.8921 81.94 51.9321 82.3501 52.2921 83.2201C52.6121 83.9801 52.3521 85.5201 51.1721 85.7001C49.0621 86.0201 46.7921 85.78 44.5621 85.78V85.7901Z" fill="black"/>
<path d="M76.3021 93.1201L75.6421 90.55L77.7521 88.28L77.0621 85.6901C77.3121 84.7201 78.1221 83.9901 79.2321 83.4601C79.4421 84.8901 79.3321 86.08 79.3021 87.36C79.2421 89.57 79.1421 91.4901 78.6521 93.7101L76.3021 93.1301V93.1201Z" fill="black"/>
<path d="M49.9623 90.0399L42.3323 86.7399C45.4923 86.4199 48.2223 86.43 51.0923 86.62C52.1323 86.69 52.6423 88.2 52.3523 88.9C52.0623 89.6 51.0223 90.4999 49.9623 90.0399Z" fill="black"/>
<path d="M37.4822 85.7401L28.9722 85.8201C28.3322 85.8201 27.4722 85.4001 27.1922 84.9401C26.8422 84.3601 26.9822 83.3801 27.3322 82.9001C27.8022 82.2701 28.7422 81.9801 29.4822 82.3001L37.4822 85.7401Z" fill="black"/>
<path d="M47.0821 94.1C47.6521 94.67 47.8321 95.5 47.5121 96.21C47.2621 96.77 46.4921 97.27 45.7221 97.24C45.0621 97.22 44.3921 96.57 44.1021 95.86L40.9421 88.14C43.2121 90.16 44.9721 91.99 47.0821 94.1Z" fill="black"/>
<path d="M35.4621 57.91L35.3821 54.29L39.2821 50.51L39.4021 57.59L35.4621 57.91Z" fill="black"/>
<path d="M38.5123 97.6099C38.4423 97.8199 38.2223 98.4599 38.0323 98.6599C37.6623 99.0599 36.4423 98.6699 36.0823 98.1799C35.6923 97.6499 35.6423 96.8599 35.9623 96.1099L39.2223 88.5399C39.3923 89.6499 39.6423 98.4699 38.9823 97.9699L38.5123 97.6099Z" fill="black"/>
<path d="M31.5521 93.7799C30.6421 94.6999 29.1321 94.0099 28.7921 93.1899C28.2821 91.9799 28.8721 90.9999 29.9921 90.5699C32.6021 89.5699 34.9121 88.4299 37.7521 87.5499L31.5621 93.77L31.5521 93.7799Z" fill="black"/>
<path d="M37.6021 84.71C34.5521 83.7 31.8221 82.63 29.1321 81.22C28.2721 80.77 28.6521 79.06 29.1721 78.62C29.8921 78.01 31.0721 78.06 31.7921 78.8L37.6021 84.72V84.71Z" fill="black"/>
<path d="M35.1823 96.1C34.6823 97.33 33.2423 97.5401 32.4423 96.8901C31.5923 96.2001 31.4723 94.95 32.3023 94.11C34.3123 92.07 36.1623 90.17 38.4223 88.16L35.1723 96.1H35.1823Z" fill="black"/>
<path d="M41.8423 84.76C43.9223 82.32 45.9623 80.3799 48.2023 78.3399C48.9823 77.6199 50.2423 78.52 50.5523 79.19C50.9523 80.06 50.6223 81.2999 49.5123 81.7299L41.8423 84.75V84.76Z" fill="black"/>
<path d="M41.0823 84.1501C41.9523 81.5301 42.9723 79.2401 43.9923 76.7401C44.3423 75.8801 44.7023 75.3001 45.6523 75.1001C46.4423 74.9301 47.1523 75.4001 47.4423 76.0601C47.8823 77.0501 47.6123 77.7001 46.9523 78.3601C45.0023 80.3301 43.2723 82.1801 41.0723 84.1401L41.0823 84.1501Z" fill="black"/>
<path d="M49.3321 90.52C49.8621 90.73 50.4021 91.18 50.6421 91.61C50.9321 92.14 50.2521 93.92 49.4321 94.12C49.0621 94.21 48.1521 94.08 47.8321 93.75L41.6921 87.63C42.9321 87.85 44.0021 88.38 45.1721 88.85L49.3321 90.51V90.52Z" fill="black"/>
<path d="M38.3323 84.12C36.1623 82.18 34.3023 80.25 32.3123 78.25C31.4223 77.35 31.6823 76.09 32.4423 75.45C33.1023 74.89 34.5823 74.91 35.0623 76.02C36.2023 78.69 37.3123 81.12 38.3423 84.12H38.3323Z" fill="black"/>
<path d="M43.9522 118.16L40.1122 121.94L40.0222 114.8L43.9622 114.45L43.9522 118.16Z" fill="black"/>
<path d="M7.60214 101.87L9.10214 100.4L11.8821 100.97C12.3621 101.07 13.1421 100.08 13.6321 99.67C13.8521 102.59 10.6521 104.81 8.51215 104.78C8.20215 104.78 7.64214 104.24 7.74214 104.09L8.11214 103.48L7.36214 102.84C7.19214 102.69 7.43214 102.04 7.60214 101.87Z" fill="black"/>
<path d="M71.3922 70.97C69.5022 73.16 68.1922 70.66 67.1222 71.45L65.7222 72.49C65.9522 69.56 68.3522 67.61 71.2022 67.48C72.2822 69.63 72.3122 69.91 71.3922 70.97Z" fill="black"/>
<path d="M51.7022 55.5201L50.5522 58.2701L45.7322 53.2001C48.0022 53.7501 49.8322 54.5901 51.6922 55.5201H51.7022Z" fill="black"/>
<path d="M33.6822 119.1C31.4022 118.75 29.4822 117.83 27.7322 116.73L28.8822 114.19L33.6822 119.09V119.1Z" fill="black"/>
<path d="M34.2623 118.34L29.3223 113.61L31.9023 112.53C33.0123 114.13 33.9723 116.03 34.2623 118.33V118.34Z" fill="black"/>
<path d="M49.9723 58.72L47.4123 59.8801C46.3623 58.1101 45.4523 56.21 45.0723 53.92L49.9723 58.72Z" fill="black"/>
<path d="M55.8321 126.11L53.8721 128.1C52.2721 126.6 52.3721 124.21 54.1321 122.37L55.8321 126.11Z" fill="black"/>
<path d="M25.2023 50.0299L23.5923 46.1299L25.5023 44.2899C27.0623 45.7499 27.0223 48.2299 25.1923 50.0299H25.2023Z" fill="black"/>
<path d="M45.0322 117.07C44.5222 116.47 44.5222 114.81 45.0822 114.26L48.5222 113.44C47.3922 114.77 46.4822 115.68 45.0422 117.08L45.0322 117.07Z" fill="black"/>
<path d="M34.6723 58.07L30.8623 58.89L34.5423 55.15L34.6723 58.07Z" fill="black"/>
<path d="M76.4423 99.4601C77.4923 99.4501 75.9323 102.45 75.6123 102.85L75.7823 99.8101C75.7823 99.6401 76.2823 99.4701 76.4423 99.4701V99.4601Z" fill="black"/>
<path d="M3.65218 72.59C3.65218 72.8 3.05218 72.95 2.92218 72.83C2.27218 72.21 3.20218 70.32 3.74218 69.6L3.64218 72.6L3.65218 72.59Z" fill="black"/>
</svg>
