<svg width="73" height="152" viewBox="0 0 73 152" fill="none" xmlns="http://www.w3.org/2000/svg">
<path d="M9.75278 37.4605C10.8728 36.8705 12.3428 36.5905 13.3928 37.2905C14.9028 38.3005 16.3428 41.8305 14.2928 43.3805C13.5128 43.9705 12.4428 44.2305 11.5528 43.7805C10.4528 43.2205 10.7028 41.7705 10.2028 40.9105C10.1328 40.7905 9.74278 41.1205 9.70278 41.3005C9.43278 42.5805 10.1828 44.1505 11.5828 44.4805C13.4328 44.9205 15.5128 43.9105 16.0128 42.0605C16.7228 39.4705 14.4228 37.7505 14.7528 36.8505C15.0228 36.1205 17.1228 37.1005 18.6128 34.2105C19.6028 32.2905 19.4328 29.7905 17.6228 28.3605C16.5628 27.5305 14.6928 27.9105 13.8628 28.8905C13.2828 29.5705 12.9228 30.2405 12.7728 31.2305C14.0528 30.1505 14.4928 28.1305 16.4328 28.5905C16.9428 28.7105 17.6328 29.1805 17.9828 29.7605C18.7128 30.9805 18.5828 32.4005 17.9528 33.7005C17.4328 34.7505 16.3428 35.6805 14.9528 35.9005C12.7428 36.2605 10.4328 35.0905 9.56278 32.9705C7.32278 27.5005 10.2028 23.7605 8.27278 18.0705C7.14278 14.7305 5.94278 11.5605 4.99278 8.14047C3.95278 4.41047 6.23278 -0.429511 6.61278 0.0304891C7.22278 0.780489 6.81278 3.00052 9.10278 5.25052C10.9328 7.05052 12.6128 8.87051 14.3028 10.8005C15.2728 11.9105 15.9828 12.9705 16.0628 14.6005C16.7428 14.5205 16.8328 14.0705 17.1828 13.6705L20.2028 10.2205C20.4628 9.92049 21.0528 9.90053 21.2828 10.2605L26.1428 17.9005C26.6228 18.6605 26.5328 19.3205 26.0128 20.0705C24.5828 22.1405 23.4628 24.4005 23.2328 26.9705C22.8228 31.5605 24.3128 35.9405 27.0828 39.5505C27.4028 39.9605 27.7128 40.7905 27.3328 41.1905L19.5528 49.5505C18.0328 51.1905 16.9428 49.3305 14.4428 48.9105C12.8728 48.6505 11.1528 48.8905 9.68278 49.4705C8.21278 50.0505 6.27278 51.8705 5.81278 51.3005C4.19278 49.2605 4.00278 46.6805 4.65278 44.2205C5.41278 41.3405 6.98278 38.8605 9.71278 37.4405L9.75278 37.4605ZM12.3328 25.1405C12.2328 18.6105 11.2328 16.3905 8.39278 10.8205C6.94278 7.98053 7.46278 6.70053 6.91278 5.82053C6.43278 5.05053 6.59278 9.05048 8.82278 13.1505C9.80278 14.9705 10.5128 16.6405 11.1228 18.5505C11.4628 19.6105 11.5028 20.7805 11.5828 21.9105L11.8928 26.4205C11.9128 26.6905 12.3728 27.1105 12.5728 26.9605C12.5328 26.3905 12.3528 25.7505 12.3428 25.1305L12.3328 25.1405ZM13.5028 15.8305L11.1228 10.7505L10.9528 10.5605C10.9528 10.5605 10.6928 10.5205 10.6928 10.5805C10.6928 10.6405 10.7228 10.9005 10.7928 11.0605C11.9428 13.7905 13.3828 17.0505 14.3728 19.9405C14.8028 21.2005 14.6728 22.3605 14.9228 23.7005C16.3728 23.1705 14.0528 16.9805 13.5128 15.8305H13.5028Z" fill="black"/>
<path d="M64.3229 86.6905C62.9129 85.8205 60.7429 85.8504 59.3329 86.5204C57.5729 87.3604 57.3529 89.5105 57.8429 91.1205C59.2029 95.5805 61.6729 94.0405 60.4529 96.0005C59.5529 97.4305 58.6629 98.7705 57.4829 99.9705C57.1529 100.31 56.5429 100.31 56.2329 99.9205L50.9529 93.4005C49.3829 91.4605 51.7229 89.8405 51.6029 86.5305C51.4829 83.2205 50.7029 80.0305 49.4629 77.0405C49.1029 76.1605 49.1229 75.6305 49.9029 75.0005L51.6929 73.5505C52.1029 73.2205 52.7829 73.1605 53.1429 73.7405L56.4029 78.9604C56.4929 79.1004 57.0229 79.2004 57.0829 79.0804C57.1429 78.9604 57.2129 78.6205 57.1129 78.4905L53.6629 73.4705C52.7329 72.1205 54.2329 71.6805 56.1029 70.1005C56.3629 69.8805 56.8529 69.9405 57.0529 70.2505L59.6329 74.2805C60.4229 75.5105 61.9029 75.7905 63.1829 75.1105C64.9229 74.1805 66.2229 72.6505 67.0429 70.8205C68.1229 68.4105 68.7629 65.9105 69.2329 63.2905C69.3129 62.8305 69.4629 62.4704 69.8329 61.9604C70.8429 63.7204 71.3629 65.4305 71.8529 67.3105C72.1729 68.5405 72.0629 69.6804 71.3229 70.7704C68.9529 74.3004 66.1629 77.3305 62.6929 79.9105C63.0329 80.1605 63.4929 80.0805 63.7329 79.8505L67.4529 76.4305C68.8429 75.1505 70.0229 73.7904 71.0429 72.2004C71.3429 71.7404 71.6729 71.4405 72.2829 71.1005C72.6329 73.7005 73.2029 74.4204 71.4929 76.3304C69.4029 78.6804 67.0529 80.7905 64.4829 82.5905C64.3729 82.6705 64.1429 83.0505 64.2229 83.1505C64.3029 83.2505 64.4829 83.3005 64.7429 83.4005C65.4029 82.8805 66.0129 82.4205 66.6329 81.8605L72.5129 76.5505C73.3029 79.1405 72.0229 81.3405 70.1029 82.7505C68.6629 83.8105 67.4229 84.9905 66.1129 86.1905C68.5629 85.6705 69.8329 83.5104 72.2429 82.3904C71.5129 86.9204 69.9729 91.4205 65.9229 93.8105C63.2329 95.4005 59.6629 94.0905 58.6129 91.1905C57.9329 89.3105 58.9329 87.3805 60.6829 86.6805C61.6529 86.2905 62.7429 86.3804 63.5129 87.0204C64.2829 87.6604 64.7429 88.7504 64.4329 89.7704C64.2929 90.2304 64.2729 90.6505 64.3229 91.1305C65.9829 90.7105 65.5529 87.4504 64.3329 86.7104L64.3229 86.6905Z" fill="black"/>
<path d="M50.7729 119.62L50.4329 125.31C48.5229 124.7 46.9029 123.92 45.1429 123.02C42.3629 121.61 39.6929 120.16 37.2629 118.21C34.8329 116.26 33.0229 113.7 33.8129 110.39C34.6729 106.79 37.1029 106.42 39.4129 104.68C40.4029 103.93 41.3029 103.15 42.5129 102.77L48.6929 100.78C49.0429 100.67 49.8229 100.86 50.0229 101.09L51.8129 103.12C51.9929 103.32 52.3229 104 52.1129 104.17C49.1929 106.48 46.9729 106.67 43.7529 108.58C46.2929 108.65 48.7829 108.2 51.1329 107.22C54.7629 105.71 58.0929 103.79 61.3429 101.62C63.2229 100.36 64.7429 98.8305 66.0229 97.0105C67.2929 98.7405 68.4329 100.27 69.7429 101.87C69.9229 102.09 69.8429 102.54 69.6529 102.82C66.1629 104.58 62.9829 106.7 59.3029 108.1C56.6329 109.12 53.9329 109.99 51.1429 110.64C48.3529 111.29 45.2429 111 42.3229 111.13C41.7429 111.16 41.1629 110.4 40.5329 111.04C40.4829 111.09 40.9129 111.51 41.1229 111.55L47.9429 112.71C49.0329 112.89 48.7929 115.45 48.8429 116.43C45.5829 115.99 41.8329 115.2 38.8129 114.4C38.6029 114.35 38.2729 114.46 38.1729 114.47C38.0529 114.49 38.3629 114.97 38.5329 115.03L44.4129 116.92C46.2929 117.52 47.8929 118.09 49.7629 118.61C50.1829 118.72 50.7929 119.12 50.7629 119.64L50.7729 119.62Z" fill="black"/>
<path d="M25.1128 109.931C26.6528 107.781 27.5528 108.611 28.6928 107.421C25.8328 106.621 23.9228 110.051 23.2128 112.431C22.2128 112.351 21.1728 112.071 20.2328 111.571L14.8328 108.711C14.6528 108.621 14.4327 108.301 14.4227 108.161C14.3827 107.511 17.4628 105.601 18.3228 104.631L21.1128 101.491C21.7728 100.751 22.7928 102.561 26.8228 101.671C28.0528 101.401 29.4728 101.351 30.5428 100.661C33.5328 98.7405 35.5427 95.8905 37.0728 92.6605C38.4527 94.5305 39.6628 96.4705 40.5528 98.5305C41.5728 100.891 40.6927 103.431 38.4227 104.551C37.5027 105.041 36.6228 105.471 35.7728 106.081C32.9428 108.111 31.9128 112.001 33.6528 115.021C34.1128 115.811 34.0228 116.281 33.5928 117.131C33.2428 117.821 33.7028 119.181 34.4128 119.691L40.8828 124.301C41.3428 124.631 41.5628 125.251 41.3828 125.761L40.2427 128.911C39.1427 128.131 38.2527 127.391 37.3127 126.481L27.5328 117.151C26.5227 116.191 25.7128 115.131 24.9328 114.021C24.0528 112.761 24.2127 111.191 25.1027 109.941L25.1128 109.931Z" fill="black"/>
<path d="M60.0029 39.7505C58.9829 36.9005 58.1629 34.2705 57.3329 31.4105C57.2229 31.0405 57.6029 30.3104 57.8729 30.0204L61.2229 26.4005C63.7229 23.6905 65.8429 20.7105 67.9429 17.6805C68.5529 16.8005 68.9529 16.0505 69.8129 15.2405C70.1229 15.7605 70.323 16.2905 70.353 16.9005C70.513 20.4105 71.0129 23.7105 71.6929 27.1505C71.8729 28.0605 71.9829 29.2105 71.6529 30.0705C68.5229 33.6805 65.1929 36.8605 61.6929 40.0905C61.5329 40.2405 61.0429 40.3804 60.8429 40.3904C60.6029 40.4104 60.1329 40.0605 60.0229 39.7605L60.0029 39.7505Z" fill="black"/>
<path d="M8.37286 139.911C8.45286 139.731 8.49286 139.291 8.41286 139.161C8.33286 139.031 7.89286 138.981 7.72286 139.011C3.77286 139.661 1.86286 145.121 0.232859 144.511C-0.967142 144.071 2.59285 138.681 8.10285 136.851C9.79285 136.291 11.2329 135.781 13.0429 135.851C14.8829 134.081 17.0829 133.291 19.5729 132.791C22.8629 132.141 26.0729 131.811 29.4529 131.921C29.5929 131.921 29.9229 131.791 30.0329 131.711C30.1429 131.631 30.1629 131.171 30.0729 131.041L28.5429 128.851C27.6529 127.571 26.7229 126.421 26.1329 124.981C24.4229 120.831 24.1429 119.291 23.7229 114.661C23.8429 114.581 24.3429 114.681 24.4729 114.821L28.7329 119.431C29.3429 120.091 29.5329 120.761 29.4629 121.681C29.3129 123.781 29.9829 125.741 30.4829 127.751C30.9829 129.761 31.6329 131.321 32.8829 132.871C33.1529 133.211 33.4529 133.831 33.3729 134.171C33.2629 134.641 32.9828 135.121 32.5629 135.421C28.8229 134.061 24.8429 133.941 20.9629 134.721C19.5429 135.011 18.1029 135.121 16.8329 135.791C14.6229 136.951 12.8329 138.531 11.1629 140.411L7.89285 144.121C7.75285 144.281 7.15285 144.251 6.99285 144.211C6.79285 144.161 6.67286 143.661 6.75286 143.471L8.37286 139.921V139.911Z" fill="black"/>
<path d="M19.4128 81.2006C12.3228 84.6006 15.9228 86.5906 12.9328 86.4606C11.8428 86.4106 10.5928 86.6506 9.54283 86.3606C8.11283 85.9606 4.14283 84.8306 4.21283 83.0306C4.30283 80.4906 5.73283 78.2906 7.36283 76.4806C8.99283 74.6706 9.53283 73.2606 12.7728 73.0906C14.6428 73.0006 15.0128 74.8406 18.0028 74.6906C19.7828 74.6006 21.6328 75.1606 22.8828 76.4006C22.3328 76.4206 15.3228 77.9606 17.1728 78.7306L20.8528 80.2706C20.3228 80.7206 19.9328 80.9506 19.4228 81.2006H19.4128ZM14.0428 76.2706C11.2528 75.2106 7.37283 78.3206 7.42283 81.1806C10.2628 80.2906 13.1028 79.5606 14.0428 76.2706Z" fill="black"/>
<path d="M32.6129 15.5206C28.5329 16.7006 27.7429 19.2205 26.6229 17.4505L21.8629 9.8806C21.7329 9.6806 21.6729 9.15055 21.7629 8.95055C21.8529 8.75055 22.1829 8.46059 22.4329 8.31059C27.8829 5.23059 28.1029 5.49055 34.3229 4.70055C34.7629 4.64055 35.4129 4.99057 35.4529 5.47057L36.2329 14.4606L32.6029 15.5106L32.6129 15.5206Z" fill="black"/>
<path d="M20.3428 68.1705L15.5628 72.7105C15.4128 72.8505 14.9628 72.8105 14.9328 72.6705C14.9028 72.5305 14.7928 72.0505 14.9028 71.8805C15.9728 70.1905 17.5328 67.9605 19.0028 66.4205C19.7428 65.6405 20.5428 65.1505 21.3128 64.4905C22.7828 63.2205 24.1728 61.9005 25.8128 60.8305C27.5928 59.6805 29.3828 58.7205 31.2528 57.7405C32.6528 57.0105 34.1128 56.6705 35.6428 56.2605C38.8428 55.4105 41.9028 54.5105 45.1928 54.0005C48.4428 53.5005 51.6228 53.3305 54.9028 53.3605C55.1828 54.7605 55.0528 56.0605 54.5128 57.2205C52.9528 57.0105 51.6328 57.1505 50.1428 57.1705L45.6028 57.2305C42.9228 57.2705 37.7328 58.7705 35.0528 59.6305C32.7328 60.3805 30.6728 61.5305 28.4728 62.5905C25.4528 64.0405 22.8428 65.8005 20.3428 68.1705Z" fill="black"/>
<path d="M66.0427 138.691L64.6827 148.811L55.1127 141.711C54.4027 141.181 53.9727 140.481 54.0527 139.561L54.3727 135.311C54.4427 134.331 54.7227 133.371 55.3027 132.531C56.1227 132.701 56.9227 133.031 57.6527 133.371C59.9727 134.441 62.2227 135.391 64.6327 136.141C65.6827 136.541 66.1727 137.541 66.0227 138.681L66.0427 138.691Z" fill="black"/>
<path d="M48.0929 17.4606C48.0529 18.2006 46.9829 17.6406 46.5929 17.4906L39.0329 14.5906C38.4529 14.3706 37.5729 14.8306 37.0729 14.2206C36.7929 12.9906 35.8029 5.50057 36.3229 4.91057C36.4329 4.78057 36.9029 4.69059 37.0829 4.74059L47.1629 7.52056C47.5029 7.61056 48.1929 8.01061 48.3229 8.32061C48.5729 10.3306 48.3529 12.4106 48.2429 14.4506L48.0829 17.4706L48.0929 17.4606Z" fill="black"/>
<path d="M18.803 65.5805C16.693 67.2905 15.433 69.6105 13.993 71.8105C13.523 72.5305 11.873 72.7405 11.613 72.1505C11.563 72.0305 11.593 71.6405 11.663 71.5005C13.173 68.6405 15.033 65.8405 17.413 63.6005C24.513 56.9305 26.943 55.4205 34.803 50.0605C35.963 49.2705 36.813 48.4305 37.443 49.4005C37.963 50.2005 38.603 51.0205 39.253 51.7405C39.403 51.9005 39.573 52.2405 39.573 52.4205C39.573 52.6005 39.313 52.9205 39.143 53.0005C37.303 53.9705 35.613 54.9605 33.843 56.0805C29.843 57.5305 26.173 59.5705 22.873 62.2505L18.783 65.5705L18.803 65.5805Z" fill="black"/>
<path d="M8.74296 88.4505C8.52296 89.1005 8.67296 89.6905 8.81296 90.3105L10.083 95.6805C10.163 96.0105 9.89296 96.4605 9.56296 96.5405L5.56296 97.4505C5.02296 97.5705 4.55296 97.1705 4.41296 96.6805L3.57296 93.8305C2.55296 90.3305 3.20296 87.8405 3.53296 84.1405C4.83296 85.0905 5.96296 85.7606 7.38296 86.2606C8.49296 86.6506 9.63296 87.2105 10.843 87.2005C11.763 87.2005 12.653 87.1205 13.563 87.3405C13.843 87.4105 13.933 88.1705 13.873 88.4705C13.033 92.7205 15.373 93.8605 13.773 94.6605L10.853 96.1205L8.73296 88.4406L8.74296 88.4505Z" fill="black"/>
<path d="M43.0329 68.0005C42.7229 67.6505 42.6829 67.1705 42.9229 66.8605L44.6729 64.6105C44.8229 64.4205 45.0429 64.1905 45.2029 64.1205C45.4029 64.0405 45.9329 64.1906 46.1229 64.3806L50.0129 68.3305C50.1229 68.4405 50.5629 68.4705 50.6829 68.4805C51.8929 68.5705 46.9829 64.2005 46.8929 64.1205C46.4629 63.7205 46.1329 63.0906 46.5529 62.6306C47.3629 61.7406 48.1929 60.9705 49.1129 60.1605C49.7829 60.7705 50.4729 61.2305 51.0129 61.8705C52.6529 63.7805 54.0529 65.7505 55.5029 67.8305C55.7429 68.1705 55.8629 68.9405 55.5829 69.2205C53.6529 71.1305 51.6329 72.6605 49.5029 74.2905C49.3029 74.4405 48.9829 74.6806 48.8029 74.7606C48.5929 74.8506 48.2129 74.4205 48.0829 74.2005C47.5329 73.2305 46.9329 72.3805 46.2029 71.5605L43.0329 68.0005Z" fill="black"/>
<path d="M51.3429 46.6705C50.9629 46.9105 50.4929 47.0805 50.2629 46.6505C49.2129 44.6505 48.3729 42.7305 47.6829 40.5805C48.8229 39.3505 49.8529 38.3205 51.0029 37.2105L56.4629 31.9305C56.7729 32.5205 57.0529 32.9905 57.2029 33.4705L59.7729 41.2905L51.3429 46.6705Z" fill="black"/>
<path d="M16.3429 104.551C16.5129 104.741 16.3829 105.281 16.2129 105.441L14.1629 107.231C13.7629 107.581 13.3529 107.601 12.9729 107.231L8.59293 102.931C7.17293 101.531 6.12293 100.001 5.00293 98.2805C6.08293 97.8605 6.91293 97.6705 7.90293 97.4805C10.1929 97.0405 12.2729 96.2905 14.3729 95.2705C14.6529 95.1305 15.1829 95.2405 15.3229 95.5205C16.4429 97.8505 18.0729 99.6006 20.1829 101.131C19.4929 102.341 18.6229 103.341 17.6229 104.121C17.2629 104.101 16.7029 103.831 16.4929 103.581L12.9229 99.4605C12.7529 99.2705 12.2329 99.3505 12.0729 99.5805C13.4829 101.351 14.8529 102.911 16.3729 104.561L16.3429 104.551Z" fill="black"/>
<path d="M53.3629 138.031C53.2729 138.641 53.1529 139.111 52.9229 139.661C50.8829 138.111 49.1129 136.631 47.2229 134.991L42.0129 130.491C41.5029 130.051 41.1129 129.761 41.3229 128.981L41.9729 126.551C42.0229 126.341 42.1929 126.021 42.3329 125.901C42.5029 125.761 43.0729 125.801 43.2629 125.931L45.1029 127.221L53.5529 131.661C53.9829 131.881 54.1929 132.291 54.1229 132.771L53.3629 138.041V138.031Z" fill="black"/>
<path d="M42.5229 65.9906C42.0629 66.5006 41.4929 66.5506 41.0229 66.1606C39.9229 65.2406 38.7929 64.4406 37.5529 63.7106L33.1929 61.1606C36.7829 59.4906 40.3929 58.4306 44.2329 57.9406C45.6129 57.7606 47.0829 58.1006 47.9929 59.1906C48.2629 59.5106 47.7829 60.2106 47.5229 60.4906L42.5229 65.9906Z" fill="black"/>
<path d="M41.6729 51.8505C40.7829 52.2305 39.6729 51.1805 39.2629 50.6005L37.9829 48.8105C37.8429 48.6205 37.783 48.0605 38.023 47.8905L45.2629 42.5805L46.8129 41.3206C47.1429 41.3506 47.6129 41.8205 47.7329 42.1805L49.2329 46.6005C49.4029 47.1105 49.743 47.7605 49.023 48.1505C46.643 49.4605 44.2129 50.7505 41.6729 51.8505Z" fill="black"/>
<path d="M60.8129 128.94C57.9529 128.17 55.4529 127.26 52.7829 126.32C52.1329 126.09 51.6229 125.66 51.5929 124.93L51.4329 121.12C51.4029 120.5 51.5129 119.81 51.6829 119.25L58.8629 120.96C59.2129 121.05 59.9929 121.46 60.0429 121.84L60.8229 128.94H60.8129Z" fill="black"/>
<path d="M30.4728 52.1705C29.6328 52.7405 27.7928 50.3605 27.2428 49.6805L24.6328 46.4005C24.1928 45.8405 24.4528 45.0905 24.8928 44.6805L27.9528 41.7805C28.2228 41.7005 28.6628 41.7905 28.7928 42.0105C29.5928 43.3805 30.5928 44.3405 31.7528 45.3505L34.9228 48.1105C35.1128 48.2805 35.1628 48.9705 34.9528 49.1105L30.4628 52.1705H30.4728Z" fill="black"/>
<path d="M68.4129 151.211C67.6729 151.561 67.1829 150.931 66.7729 150.541C66.2429 150.041 65.5129 149.401 65.6229 148.601L66.7429 140.221L66.8029 137.121C67.9829 137.211 69.2729 137.521 70.2029 138.101C70.5729 138.331 71.0529 139.281 70.9929 139.711C70.5329 143.151 69.9829 146.351 69.3229 149.721C69.2229 150.211 68.8129 151.031 68.4129 151.211Z" fill="black"/>
<path d="M54.0929 12.9005C54.1429 14.0005 54.2129 20.1205 53.4729 20.7605L49.3729 18.6905C48.6529 17.1705 48.9629 11.8005 49.0529 9.77048C49.0529 9.54048 49.2729 9.09051 49.4429 8.99051C49.6429 8.87051 50.1629 8.98051 50.3729 9.12051L53.0629 10.8805C53.6529 11.2705 54.0629 12.1705 54.0929 12.9105V12.9005Z" fill="black"/>
<path d="M25.7429 55.6705C25.1729 56.0505 24.5029 56.1005 24.0429 55.6705L19.2729 51.0205C20.4729 49.3905 21.7629 47.8805 23.3629 46.4005C25.2929 48.3105 26.9129 50.2506 28.5229 52.4406C28.6729 52.6506 28.5729 53.3005 28.3729 53.4705L25.7429 55.6605V55.6705Z" fill="black"/>
<path d="M53.8229 102.961C53.4829 103.261 52.8529 103.061 52.5629 102.731L48.5129 97.9305C47.9929 97.3105 46.8429 96.8305 46.9429 95.8105C47.0329 95.2605 48.8029 93.4205 49.3729 93.2705C49.5829 93.2205 50.0129 93.4705 50.1629 93.6705C51.8229 95.8305 53.4529 97.8405 55.2229 99.8905C55.7229 100.461 55.6929 101.311 55.1229 101.821L53.8329 102.961H53.8229Z" fill="black"/>
<path d="M58.7229 117.041C56.0229 117.111 53.6129 116.861 50.9929 116.651C50.3529 116.601 49.6829 116.311 49.6329 115.581L49.4329 112.771L57.1029 113.061C57.6029 113.081 58.4729 112.791 58.6129 113.571C58.8029 114.641 58.7729 115.731 58.7329 117.041H58.7229Z" fill="black"/>
<path d="M48.5129 99.0905C49.5529 100.241 42.5129 102.051 41.8029 102.061L41.6329 99.2005C41.6129 98.8405 41.9429 98.1506 42.2629 97.9906L45.3429 96.4806C45.6729 96.3206 46.2829 96.6306 46.5429 96.9206L48.5029 99.0905H48.5129Z" fill="black"/>
<path d="M12.5029 77.0105C13.3629 77.6905 9.7829 80.4205 8.7229 79.8205C8.9129 78.5105 11.5829 76.2805 12.5029 77.0105Z" fill="black"/>
</svg>
