<svg width="49" height="160" viewBox="0 0 49 160" fill="none" xmlns="http://www.w3.org/2000/svg">
<path d="M34.3506 147.028C32.2906 148.458 30.7306 145.238 30.4406 144.918C30.1006 144.548 29.6106 145.718 28.6806 146.328L26.4606 147.788C22.1906 150.588 20.8206 148.258 19.5506 150.938C19.1906 151.708 19.3406 152.828 19.7506 153.598C20.5806 155.178 23.2106 154.808 22.9106 154.118C22.6306 153.478 21.4706 153.818 21.0306 153.008C20.8006 152.578 20.8806 151.798 21.2106 151.378C21.9906 150.388 23.8406 150.378 24.6506 151.448C25.5106 152.578 25.6306 154.238 24.9606 155.658C24.4906 156.658 23.2806 157.878 21.8306 158.008C21.0706 158.078 19.8706 158.188 19.2206 157.988L15.5406 156.798C13.7606 156.218 12.1006 156.148 10.2406 156.288C8.09059 156.448 6.43059 157.548 4.87059 159.068C5.67059 156.098 7.11059 153.458 9.27059 151.348C10.0906 150.548 11.7106 150.708 12.4506 151.398C12.7106 151.638 12.7706 152.518 12.7006 152.808L11.4906 153.608C10.7806 153.568 10.2106 152.888 9.60059 152.328C9.17059 152.458 8.9306 153.058 9.0406 153.548C9.1206 153.898 9.5206 154.308 9.9306 154.558C11.2206 155.358 12.6806 154.938 13.6506 153.728C14.5006 152.678 14.1206 151.138 13.1806 150.108C12.2406 149.078 10.8506 148.658 9.62059 148.068C5.66059 146.158 3.3906 142.278 2.6106 138.138C2.3306 136.628 2.35059 135.608 2.69059 134.168C3.48059 130.858 6.1206 128.538 9.6806 128.518C12.8506 128.498 15.7806 130.108 16.8306 133.178C17.4106 134.878 17.0906 137.148 15.7606 138.398C14.4006 139.658 12.4306 139.988 11.0306 139.018C10.0006 138.298 9.21059 137.288 9.24059 136.078C9.24059 135.788 9.79059 135.308 10.0106 135.428C11.1806 136.038 9.85059 136.528 10.5906 137.878C11.2006 138.988 13.5706 139.088 14.8506 138.128C15.1906 137.868 15.4906 137.088 15.7006 136.688C16.8006 134.568 15.7006 131.698 13.5606 130.408C10.7606 128.718 7.2506 129.078 5.1106 131.528C4.2506 132.518 3.83059 133.398 3.70059 134.708C3.64059 135.348 3.4706 135.958 3.6106 136.618C3.9806 138.348 4.31059 140.108 5.24059 141.678C6.57059 143.928 8.7706 145.418 11.0006 146.738C11.9006 147.278 12.8706 147.798 13.9506 147.838C16.1706 147.928 19.8506 147.958 21.7306 147.048L24.2806 145.828C26.8906 144.578 28.8506 142.728 30.1506 140.098C30.5706 139.248 31.0806 138.238 31.3206 137.258C31.7406 135.598 31.9906 133.778 32.0406 132.028L32.1906 127.368C32.2506 125.438 31.9006 123.408 31.4406 121.568L30.6206 118.208C30.4506 117.508 30.2306 116.838 29.9506 116.198L28.9806 113.888C28.0906 111.778 27.0806 109.858 25.7306 108.028C25.2706 107.408 24.8706 106.798 24.3606 106.258C23.1206 104.958 21.1606 103.858 19.4606 105.088C18.7406 105.598 18.0106 106.288 17.8906 107.258C17.7706 108.288 18.7206 110.528 19.7806 109.978C20.6606 109.528 18.3706 108.528 19.4206 106.948C19.7806 106.398 20.1306 105.918 20.6906 105.828C22.8306 105.458 24.0306 108.328 24.1206 109.728C24.2306 111.418 23.9706 113.008 23.2106 114.428L22.0606 116.578C21.4906 117.648 20.8706 118.668 19.9406 119.538C19.8406 117.398 19.9306 115.558 19.2906 113.668C17.9606 109.688 14.4906 107.708 12.9706 104.568C11.4506 101.428 11.9506 100.528 11.9606 97.3684C10.0306 96.8984 7.85059 99.3484 7.40059 100.528L6.59059 102.658C6.20059 103.678 5.53059 104.298 4.58059 104.718C3.50059 105.198 2.63059 105.248 1.74059 104.598C0.960593 104.018 0.670595 102.588 1.1806 101.788C1.8506 100.758 3.6706 101.098 4.1106 99.2183C3.0006 98.6683 1.3406 100.348 0.110596 98.5084C1.3206 95.5484 3.25059 98.2284 4.31059 96.9984C4.17059 95.2384 1.89059 96.1884 1.39059 94.8284C1.24059 94.4184 2.0006 93.4184 2.4306 93.5084C4.5306 93.9884 4.84059 95.2684 6.69059 94.3084C7.55059 93.8584 8.20059 93.1484 8.60059 92.2384C10.0406 92.2884 11.2506 91.5584 12.1806 90.4484L13.3206 89.0983L13.6206 88.7284C13.9406 88.3384 14.7006 90.5084 15.6506 91.3584C17.5806 93.0884 19.6906 94.1884 22.0106 95.1384C24.3706 96.1084 27.1006 95.6884 29.4006 95.0584C33.1406 94.0284 35.8806 91.1384 36.7106 87.3084C37.0306 85.8384 37.5806 84.3183 37.1906 82.7883C36.6806 80.8383 35.8806 79.2384 34.1206 78.1484C33.4606 77.7384 32.5706 77.6484 31.7806 77.4784C30.1506 77.1284 28.1706 77.3284 27.0506 78.5484C26.1506 79.5384 25.9706 80.7284 25.9906 81.8984C26.0406 85.2884 28.0006 84.7784 27.2606 86.2084C24.6606 85.1084 23.2506 82.3883 23.6006 79.6583L22.5106 78.7384C19.8006 76.4384 20.3406 72.0284 23.0906 69.8284C23.7106 69.3384 24.4606 68.7884 25.1906 68.5184C27.4706 67.7084 29.9206 67.8684 32.2806 68.4584C35.1406 69.1784 37.0006 69.5584 40.0506 68.4984C42.6806 67.5884 44.0806 65.9784 45.4306 63.6984C45.8106 63.0484 45.8606 62.2584 45.8806 61.3784C45.9406 58.7984 46.2106 58.7284 44.7806 56.1784C44.1806 55.0984 42.7506 54.1484 41.5406 53.9184C40.6506 53.7484 39.9006 53.9184 38.8106 53.9184L39.6306 53.0883C42.8206 53.0183 42.3706 52.9684 45.1806 54.3084C48.2906 57.8384 48.9106 62.0184 46.7706 66.3284C45.7006 68.4884 43.6406 69.8383 41.4606 70.7783L38.4106 72.0784C40.5006 74.0484 42.5306 75.8684 43.5706 78.4984L44.3406 80.4484C44.8106 81.6384 44.9406 82.9084 45.1806 84.1684C45.4206 85.4284 45.7106 86.5784 45.6006 87.9184C45.3306 91.1084 44.1206 94.2183 41.9606 96.5383C39.5206 99.1583 38.3106 100.148 34.9406 101.398L32.8506 102.178C31.3106 102.748 29.6206 103.368 29.4006 105.198C29.3206 105.858 29.2206 106.708 29.3606 107.438C29.5606 108.458 30.7206 109.578 31.7606 109.788C33.1606 110.078 34.7506 108.868 34.9406 107.488C34.0006 107.818 33.2806 108.288 32.4606 108.388L30.9806 107.538C30.3706 106.358 30.8506 104.958 32.0606 104.178C33.8906 102.998 36.3706 103.868 37.6806 105.708C41.0506 110.458 37.6806 114.098 38.7906 117.678C39.9006 121.258 38.8306 118.828 40.9106 121.888C38.9506 121.698 36.3106 119.138 35.8306 117.448L35.3006 115.558C35.2006 115.218 34.4306 115.188 34.0906 115.318C32.7206 115.838 34.2206 119.168 34.4406 120.108C34.8006 121.708 35.1406 123.388 35.2106 125.028L35.4206 130.238C35.4706 131.458 35.0606 134.628 34.6706 135.908L33.4306 139.978L35.1406 140.208C35.9906 140.988 37.5306 141.948 36.5306 143.108C36.4206 143.238 36.2306 143.728 36.3506 143.828L36.8806 144.258C37.4306 144.708 37.5706 145.608 37.2806 146.158C36.4406 147.768 35.0006 146.558 34.3506 147.008V147.028ZM28.0406 72.4584C27.2006 71.4484 25.9406 71.3184 25.0706 71.9584C23.9906 72.7584 23.3406 74.2884 23.9806 75.4884C24.3806 76.2484 25.2706 76.7284 26.0006 76.6784C26.7306 76.6284 27.4306 76.2583 27.9206 75.5283C28.4706 74.7283 28.6806 73.2084 28.0506 72.4584H28.0406ZM41.7406 90.6984C42.8306 90.0384 43.3106 88.7584 42.8106 87.6384C42.5206 86.9884 41.7006 86.4983 41.0906 86.4683C39.6306 86.3983 38.3806 87.6684 38.4706 88.7584C38.5206 89.3284 40.0106 91.7584 41.7406 90.7084V90.6984Z" fill="black"/>
<path d="M20.6906 7.06839C24.1306 8.82839 24.4806 8.29836 27.4806 9.59836C29.8806 10.6384 31.6806 12.1284 31.7006 14.9984C31.7006 16.0384 31.4706 16.8884 30.5806 17.2884C29.6906 17.6884 28.8506 17.5984 28.0406 16.8884C27.0306 15.9984 27.4506 15.2884 26.8006 14.7684C26.3406 14.3984 26.0206 16.4184 26.2406 16.9384C26.8306 18.3384 28.1006 19.1784 29.3406 19.9284C29.5806 20.4684 29.9206 21.1784 30.1306 21.7184L31.1706 24.4284C31.4806 25.2284 31.6906 26.0884 31.9506 26.9284C32.5406 28.8484 32.9206 30.7084 32.9606 32.7284C32.9706 33.2784 33.0606 33.9784 33.0306 34.5084C32.9306 36.1984 32.7606 37.7184 32.8006 39.5584C33.9106 38.3484 34.5906 37.5184 35.8406 36.8884C36.7506 36.4384 37.6506 35.8184 38.8206 36.2684L37.1306 39.3984C36.8906 39.8384 36.6706 40.6884 36.5206 41.2284C35.3306 45.4084 37.1506 50.8184 32.7306 54.3784C31.3906 55.4584 28.9806 55.4884 27.7206 54.3184C26.8406 53.5084 27.0106 52.1184 27.7906 51.5484C28.3106 51.1684 28.6706 50.8684 29.1306 50.4184C28.1406 49.9984 27.0306 49.8984 26.3206 50.3584C24.9706 51.2384 24.7706 53.8884 25.6806 55.3984C27.8106 58.9284 31.7706 55.6584 30.2906 57.8584C28.8106 60.0584 26.6406 61.5384 23.9106 61.6684C21.1806 61.7984 19.7206 61.2584 17.3306 62.8284C15.3406 64.1384 14.3406 66.1184 13.5306 68.2384C12.4506 71.0884 11.9806 72.7484 11.8206 75.7684C11.6706 78.6184 11.8606 81.9184 12.5206 84.6084C12.8106 85.8084 13.4106 86.7883 12.5006 87.8383C11.2306 89.2983 9.76058 90.5884 7.72058 90.8684C7.19058 90.9384 6.58058 90.3084 6.34058 89.9284C5.97058 89.3384 6.11058 88.6884 6.31058 88.0084C6.65058 86.8384 6.09058 85.7584 5.78058 84.6484L4.92058 81.5584C4.21058 78.9884 3.44058 75.5484 4.13058 72.9184L6.04058 72.3284C7.55058 70.8984 7.84058 68.5984 6.72058 66.8984C6.09058 65.9484 5.24058 65.6984 4.27058 66.0384C3.49058 66.3184 5.46058 67.1384 5.41058 68.7184C5.38058 69.5984 5.11058 70.2984 4.53058 70.7184C3.95058 71.1384 2.90058 71.3384 2.31058 70.8584C1.96058 70.5784 1.44058 70.0584 1.15058 69.7284C-0.159424 65.5284 -0.0394248 66.4284 0.970575 62.3284C1.58058 59.8684 3.13058 57.6283 5.06058 56.0883C5.83058 55.4783 9.76058 53.2384 11.1706 53.2384C10.6906 55.1784 8.90058 54.6384 9.78058 58.0084L10.9306 58.9284C11.6306 59.4884 12.6106 59.0884 13.2806 58.7184C14.5806 57.9984 17.1706 56.3884 18.2806 55.5384L19.5406 54.5784C22.0006 52.6984 22.6406 51.2284 24.5806 48.8584C26.7606 46.1884 26.8506 45.2384 27.8506 41.9884C28.0906 41.1984 28.4506 40.4084 28.5106 39.5784L28.6806 37.4084C28.8306 35.4584 28.8106 33.5884 28.7006 31.6384C28.5306 28.5384 28.6106 28.6884 27.8106 25.7084C27.4806 24.4884 27.3206 23.1684 26.8206 22.0284C25.2506 18.4284 25.6806 18.7284 23.2106 15.3884C22.3906 14.2784 21.3506 13.4484 20.2906 12.5984C16.8706 9.86836 12.7106 9.16837 8.83058 11.4184C7.86058 11.9784 7.39058 12.6484 6.88058 13.6284C6.32058 14.6884 6.27058 15.8784 6.24058 17.1184C6.20058 18.6084 6.48058 19.7984 7.16058 21.0784C7.69058 22.0684 8.22058 22.9184 9.16058 23.6184C10.2606 24.4384 12.5706 24.4484 13.4406 23.6884C14.3806 22.8684 14.3606 20.7984 13.5606 20.0284C13.2906 19.7684 12.7806 19.9184 12.2506 20.0684C11.8806 20.1684 11.3406 19.5184 11.1306 19.0384C12.3706 17.7984 14.5106 19.3584 14.8606 20.0784C15.4106 21.2084 15.4606 22.4984 14.8306 23.5384C12.9906 24.9184 11.1806 25.7784 8.99058 24.1184C7.35058 22.8784 6.36058 21.0984 5.75058 19.0984C5.14058 17.0984 5.46058 14.9784 6.15058 13.0484C7.00058 10.6984 10.3906 8.88835 12.8406 8.52835C15.9606 8.06835 15.6306 8.6584 18.7506 8.5784L16.4406 5.52835C15.2506 3.94835 14.7806 2.06839 15.1106 0.128387C15.2306 0.0583874 15.3806 -0.041598 15.4306 0.018402C15.8706 0.508402 16.3506 4.84836 20.6606 7.03836L20.6906 7.06839Z" fill="black"/>
<path d="M4.1405 90.1884L6.09049 92.2084C6.22049 92.3484 6.34049 92.7784 6.27049 92.9284C5.99049 93.4684 4.11049 93.2984 3.65049 92.9884C2.80049 92.4184 2.15049 92.1284 1.17049 92.4984C0.920494 91.7684 1.47049 91.3584 1.78049 90.8484C2.86049 89.0784 2.12049 87.0284 1.23049 85.3684C-0.279508 82.5484 -0.30951 81.5284 0.65049 78.6484C0.85049 78.0484 1.0405 77.5884 1.6105 77.1184L2.1405 79.7184L3.1805 83.0084C3.5305 84.1084 4.58049 85.1884 4.83049 86.2884L4.13049 90.1784L4.1405 90.1884Z" fill="black"/>
<path d="M25.7904 73.4083C26.0604 73.2583 26.5804 73.3384 26.7404 73.5084C26.9004 73.6784 26.9404 74.2684 26.8104 74.4784C26.6704 74.7084 26.2804 75.1483 26.0504 75.0983C25.7804 75.0483 25.2904 74.6884 25.2204 74.4384C25.1504 74.1884 25.4604 73.5983 25.8004 73.4083H25.7904Z" fill="black"/>
<path d="M41.2605 87.8183C41.5605 87.9383 41.7005 88.6383 41.5605 88.8883C41.4305 89.1183 41.0605 89.3383 40.7205 89.4183C40.4305 89.4783 39.9005 89.0383 39.8905 88.7183C39.8705 88.1183 40.6505 87.5883 41.2605 87.8183Z" fill="black"/>
</svg>
