<svg width="153" height="103" viewBox="0 0 153 103" fill="none" xmlns="http://www.w3.org/2000/svg">
<path d="M79.6 30.1654C80.55 30.6054 79.98 32.3253 79.32 32.8453C77.8 34.0553 76.96 33.2754 76.53 33.9654C75.78 35.1354 75.8 37.5254 77.33 38.9154C79.92 41.2654 80.86 40.4254 84.54 41.7754C85.75 42.2254 87.4 42.6054 88.06 43.8254L89.46 46.4053C89.76 46.9653 90.08 47.2254 90.64 47.6254C91.58 48.3054 92.54 49.4554 92.96 50.6354C93.04 50.8654 93.92 54.6254 92.72 53.9654C91.95 53.5354 92.52 53.1754 90.83 50.9654C90.47 50.4854 90.29 49.8754 89.41 50.2554L90.17 52.4354C90.39 53.0554 90.41 54.0254 90 54.4854C88.6 53.5554 87.79 51.5154 86.16 51.6154L82.8 51.8254C81.15 51.9254 79.98 53.0854 78.93 54.2954C76.54 57.0254 75.45 60.4954 77.58 63.7354C78.19 64.6654 78.63 65.8954 79.69 66.4454C80.26 66.7454 81.11 67.1854 81.71 67.3354C83.62 67.8154 85.61 67.8454 87.54 67.6954L90.34 67.4854C93.35 67.2554 96.3 67.5254 99.05 68.6654L101.78 69.7954L106.14 71.6854C108.46 72.6954 110.73 73.4554 113.33 73.6354C113.59 73.6554 114.18 73.8654 114.35 73.6954C115.08 72.9754 114.33 73.1054 115.37 71.2654C116.17 69.8554 117.3 69.1454 119.01 69.0554C120.15 68.9954 121.56 68.6954 122.45 69.8054C122.69 70.1054 121.98 70.7954 121.48 70.9654L116.47 72.6054C116.34 72.6454 116.24 73.1854 116.34 73.2254C118.8 74.2254 122.57 72.0754 124.38 70.2754C126.47 68.2054 127.9 66.0154 129.06 63.3554C129.25 62.9154 129.81 62.3054 129.93 61.7854C130.24 60.3853 130.89 59.2454 131.25 57.8954L132.4 53.5254C133.73 48.4954 134 41.9354 132.54 36.9154C131.5 33.3354 130.65 30.5054 128.73 27.2454C126.27 23.0654 125.84 22.5854 122.57 18.9754C121.76 18.0854 120.82 17.1954 119.87 16.4654L117.4 14.5554C114.39 12.2154 111.15 10.5954 107.62 9.26536C104.68 8.15536 98.57 6.77539 95.43 6.57539C86.25 5.99539 78.57 7.21536 70.23 11.0454C64.19 13.8254 57.85 18.8654 54.42 24.5254L52.66 27.4254C51.69 29.0254 50.29 32.1454 49.62 34.0254L48.53 37.0953L47.27 40.9954C46.81 42.4054 46.55 43.8454 46.21 45.2654C45.87 46.6854 45.37 47.9554 45.18 49.3854C44.93 51.1754 45.04 53.1654 44.32 54.8354C44.14 55.2554 43.54 56.0953 43.2 56.4053C42.09 57.4053 40.43 59.7554 41.89 60.7954C42.37 61.1354 41.56 59.2554 42.53 58.5354C44.56 57.0354 46.32 59.5053 47.51 60.8453C48.03 61.4353 48.93 61.5354 49.82 61.8854L47.94 63.6854C47.29 64.3054 46.69 65.1654 46.02 65.6454C43.82 67.2154 41.24 66.4053 40.94 65.3454C40.87 65.1153 41.15 64.5754 41.34 64.4254L42.57 63.4754C41.64 63.4254 40.26 63.5954 39.89 64.6654C39.62 65.4354 40.01 66.7754 40.4 67.4854C40.79 68.1954 41.49 68.9454 41.31 69.8554C41.21 70.3754 39.46 72.6354 38.33 72.6354C37.75 72.6354 36.56 72.2954 36.59 71.5554C36.64 70.4154 38.21 69.5754 37.74 68.5954C37.48 68.0453 34.89 67.9454 34.53 69.5654C34.21 71.0554 34.89 72.5254 35.83 73.6954L38.66 77.1954C39.02 77.6354 39.22 78.5154 38.68 78.9354C38.14 79.3554 36.87 79.3654 36.36 78.8854C35.81 78.3654 35.18 77.6954 34.85 77.1054L32.68 73.2354C32.27 72.5154 29.54 70.3954 27.02 71.5654C26.13 71.9754 25.29 72.5754 25.23 73.6454C25.2 74.3354 25.48 75.0554 25.97 75.3754C26.52 75.7354 27.26 75.5154 27.74 75.1854C29.17 74.2254 26.95 72.4154 28.18 71.8654C28.74 71.6254 29.2 71.8454 29.62 72.2254C30.97 73.4354 31.69 75.4454 30.44 76.9554C29.31 78.3154 27.41 78.4154 25.8 77.9354C23.75 77.3154 22.46 75.9154 21.4 74.0854C20.9 73.5754 19.1 74.2754 18.9 74.9654C18.27 77.1454 20.67 81.0454 22.22 82.5454L21.93 82.8354C19 82.1754 9.82 76.8254 11.89 73.1954C12.29 72.4954 13.23 72.2754 14.08 72.3954C14.65 72.4654 15.39 73.0654 15.86 73.6454L16.19 74.0654C16.5 74.4454 16.99 72.9554 15.99 71.8754C14.69 70.4754 12.8 70.4554 11.02 71.2354C11.28 69.8354 11.4 68.5654 10.71 67.5254C10.16 66.6954 9.28 66.4554 8.34 66.5354C7.66 66.5954 6.86001 66.9354 7.15001 67.7754L9.53 67.8254C10.44 68.3954 10.14 69.5954 9.55 70.2754C8.02 72.0354 5.73001 72.3054 3.60001 71.7454L0 70.7854C2.85 67.4454 0.470008 64.6353 3.18001 62.8453C3.90001 62.3653 4.8 61.8253 5.63 62.3453C6.46 62.8653 6.74 63.5854 7.33 64.6854C7.73 64.1154 8.1 63.3954 8.2 62.7854C8.36 61.8254 5.91001 61.3253 6.54001 60.0953C8.15001 59.8953 9.41001 58.4854 9.07001 56.8054C8.12001 57.7354 7.44 58.3454 6.39 59.1154C5.92 58.1054 5.45 57.2354 5.33 56.2454C5.12 54.5554 6.43 53.3154 7.92 52.7254C10 51.8854 14.81 51.3454 17.22 51.5754L15.34 52.7954C14.87 53.0954 14.05 53.4754 13.71 53.8254L12.51 55.0454C11.99 55.5754 11.26 56.4654 11.01 57.1354C10.24 59.2354 10.16 61.5754 11.23 63.3954C12.93 66.2754 14.4 67.2553 17.35 68.6553C22.85 71.2654 29 70.3254 33.79 66.6854C38.39 63.1854 39.27 56.5854 37.47 51.1954C37 49.7954 37.14 48.2554 38.69 47.4854C39.62 47.0254 40.88 47.4654 41.67 48.3754L40.62 49.0454C40.39 49.1854 40.09 49.6854 40.07 49.9454C40.03 50.6054 41.92 51.2454 42.4 50.9854C43.68 50.3154 43.69 47.7054 42.52 47.0154C42.03 46.7254 41.45 46.3854 41.05 46.0254C41.27 45.1354 41.48 44.3154 41.75 43.4854L42.79 40.3254L44.44 35.6754C45.82 31.7854 48.15 27.3754 50.56 24.0154C51.29 23.0054 52.1 22.0654 52.88 21.0954C55.07 18.3654 57.44 16.0254 60.26 13.8654L61.57 12.8554L64.34 11.0254C68.51 8.27537 74.69 6.12536 79.63 5.01536C82.83 4.29536 85.86 3.66539 89.13 3.66539H98.63C98.9 3.66539 99.31 3.66538 99.52 3.65538C99.76 3.64538 99.57 2.90539 99.61 2.66539C100 0.685388 102.14 -0.36463 104.15 0.11537C106.05 0.56537 107.96 1.00538 109.91 0.845381C110.22 0.815381 110.62 0.785372 110.83 0.805372C111.63 0.845372 109.8 3.05537 111.17 3.83537C112.26 4.45537 111.08 1.84538 111.55 1.75538C112.41 0.975384 113.85 0.795392 115.02 1.07539L119.61 2.15538C120.18 2.28538 120.79 2.66538 121.31 2.93538C122.63 3.61538 125.1 4.68538 124.9 6.50538C123 6.37538 121.26 5.89536 119.6 6.48536L115.14 8.06538C114.19 8.40538 112.93 8.06537 111.92 8.08537C113.51 9.46537 115.53 9.50538 117.41 8.90538L119.44 8.26536C120.14 9.02536 120.63 9.48536 121.34 10.0454C122.14 10.6654 122.75 11.3854 123.46 12.1054L126.33 15.0654L127.66 16.6654L128.95 18.2854C129.6 19.1054 130.19 19.8654 130.76 20.7354L131.56 21.9654L132.54 23.4854C132.94 24.1054 133.31 24.8354 133.69 25.5354C136.23 30.2654 136.23 30.9454 137.85 35.9854C138.73 38.7254 138.87 41.5754 139.15 44.4554C139.47 47.6854 139.15 50.8354 138.78 54.0654L138.1 59.8654L137.7 62.6254L137.44 64.3154C134.76 63.5554 133.94 63.4354 131.69 64.8354C131.1 65.2054 131.16 66.2454 131.47 66.8254C131.68 67.2054 132.63 67.3654 132.7 66.9454C132.9 65.7954 133.54 64.5754 134.93 64.9154C135.49 65.0554 136.21 65.8254 136.52 66.3454C137.01 67.1553 136.8 68.2254 135.93 68.6154C133.42 69.7454 135.21 72.3154 134.77 72.5654L133.8 73.1354C134.45 74.6554 137.73 74.9354 139.53 74.3554C141.17 73.8254 142.9 73.2554 144.63 73.8054C148.91 75.1654 148.43 75.9554 152.21 76.7454L150.62 77.6854C147.72 79.4054 144.95 79.7454 141.53 79.3854C140 79.2254 141.71 78.3954 141.95 77.4854C142.05 77.1054 141.77 76.3054 141.4 76.2154C137.44 75.2954 136.15 81.6554 134.43 78.5354L133.28 76.4554C132.6 75.2254 129.9 75.1154 128.76 75.8554C128.6 75.9554 128.86 76.6154 129.06 76.6254L131.2 76.7354L132.34 77.7154C132.49 77.8454 132.73 78.2054 132.75 78.3954C132.77 78.5854 132.54 78.9954 132.39 79.1354C129.87 81.5254 127.57 81.6154 126.59 83.4554C126.53 83.5754 126.25 83.0654 126.1 82.9654L122.81 80.7454C122.22 80.3454 121.87 79.5154 121.84 79.0254C121.79 78.1754 122.26 77.6854 122.81 77.0554C124.19 75.4354 125.65 77.7554 126.59 77.4254C126.84 77.3354 126.71 76.5854 126.47 76.3754C125.32 75.3754 123.6 75.6354 122.48 76.7554C121.95 77.2854 121.31 77.7154 120.74 78.1754L118.41 80.0054C116.53 81.4854 114.51 82.4254 112.2 83.2154C111.14 83.5754 109.51 83.6954 108.39 83.2954L106.31 82.5554C105 82.0954 103.97 82.6754 103.27 83.7554C102.95 84.2554 102.62 84.9454 102.87 85.5754C102.97 85.8254 103.9 85.9154 103.95 85.6553L104.24 84.2654C104.33 83.8354 104.39 83.5154 104.56 83.3254C105.67 82.0454 109.5 85.3854 109.59 87.9454C107.91 87.5354 106.24 87.0354 104.77 87.8954C103.3 88.7554 102.72 91.0254 102.68 92.3454C102.67 92.8154 106.55 91.7254 107.96 92.5554C108.3 95.2454 104.4 97.3054 102.96 96.3554C102.61 96.1254 102.13 95.5154 101.74 95.5654C100.48 95.7354 100.97 97.3054 99.75 98.6854C99.59 98.8654 99.36 99.4854 99.52 99.6254L100.21 100.255C101.4 101.345 101.97 99.2154 103.92 100.765L104.56 99.8654C108.87 98.9054 110.82 99.2954 114.28 95.7854C114.28 96.7854 113.54 97.2554 112.89 97.8654C110.48 100.105 107.06 101.225 104.06 101.865C103.84 101.915 103.13 101.475 103.02 101.655L102.47 102.555L100.34 101.475C99.94 101.275 98.97 101.085 98.52 101.125C95.75 101.335 94.33 101.025 92.56 101.555C89.84 100.985 87.89 99.6154 84.75 101.105L82.42 102.215C80.46 101.115 78.46 100.835 76.32 101.165C75.79 101.245 75.07 101.305 74.68 101.495C73.95 101.845 73.51 102.125 72.68 101.685C74.12 99.9754 74.51 100.765 74.83 99.0554C75.97 98.8254 77.2 99.0154 78.43 99.3054C79.08 99.3254 79.66 98.3454 80.04 97.8454C81.77 95.5654 82.91 93.0753 82.88 90.1553C82.88 89.3953 82.58 88.8554 82.3 88.2054L80.44 83.7654C78.79 79.8454 77.35 79.5854 74.71 77.1454L72.96 75.5254C71.62 74.2954 71.15 73.3254 70.13 71.6254C69.02 69.7754 68.94 67.2854 69.31 65.1154L70.2 59.9554C70.41 58.7254 70.32 57.0154 68.99 56.4654C66 55.8454 64.81 57.9854 62.55 59.6054C62.66 58.5454 63.19 57.7254 63.66 56.8154C64.94 54.2754 66.9 50.9054 70.3 51.4954C71.16 51.6454 71.93 52.3553 72.44 53.0953L71.46 54.1254C71.31 54.2854 71.29 54.8454 71.4 55.0354C71.88 55.8654 73.88 54.2754 73.65 53.6054L72.86 51.2754C73.23 50.4854 75.79 50.9554 76.27 49.5654C76.75 48.1754 76.85 46.9654 75.74 45.9654C74.59 45.6054 73.31 46.0254 72.13 46.1454C70.81 46.2854 69.52 46.2454 68.16 46.2454C67.55 46.2454 66.81 46.0254 66.23 45.9554C61.3 45.3754 58.05 41.1954 58.89 36.7354C59.2 35.0654 62.41 34.4354 63.33 35.0154C64.38 37.3954 62.58 37.6954 61.11 39.1754C60.27 41.6154 63.59 43.6754 65.51 44.3654C68.03 45.2654 68.88 45.3954 71.51 45.3054C73.53 45.2354 75.35 45.1454 77.03 43.5754C76.42 42.9954 75.63 42.6353 74.76 42.2854C72.7 41.4753 70.67 40.2254 69.36 38.3954C68.05 36.5654 68.03 35.7053 68.17 33.4053C68.21 32.7353 69.13 31.6454 69.7 31.3554C70.6 30.9054 71.88 30.7854 72.6 31.3454C72.88 31.8053 72.57 33.1154 72.13 33.4254L70.27 34.6954C68.32 37.3854 72.61 40.2154 74.67 41.4854C75.59 42.0554 79.34 42.8054 79.45 41.7254C79.55 40.7354 77.16 41.6354 75.38 37.5754C74.67 35.9554 74.71 34.1854 75.38 32.5154C76.05 30.8454 77.63 29.2954 79.62 30.2154L79.6 30.1654ZM104.62 2.28538C104.56 1.79538 103.51 1.37538 103.03 1.43538C102.6 1.48538 101.78 1.93537 101.73 2.39537C101.65 3.08537 102.47 3.38537 103.07 3.42537C103.79 3.47537 104.72 3.11538 104.62 2.28538ZM109.44 4.48536C109.15 4.16536 108.57 3.84537 108.22 3.92537C107.94 3.99537 107.52 4.35538 107.3 4.65538C106.79 5.32538 107.21 5.99536 107.75 6.29536C108.44 6.69536 109.02 6.45536 109.54 5.79536C109.83 5.42536 109.79 4.88537 109.44 4.48536ZM79 31.2154C78.67 30.8454 77.94 30.9154 77.56 31.2154C77.28 31.4454 76.91 31.9854 76.93 32.2854C77.76 32.7453 78.72 32.0854 79 31.2154ZM71.16 32.9254C71.28 32.8154 71.27 32.2454 71.11 32.2054C70.5 32.0354 69.33 32.6954 69.5 33.3654C69.56 33.6154 70.26 33.7653 70.44 33.5953L71.16 32.9254ZM62.49 36.2454C62.62 35.4854 60.81 35.9054 60.46 36.4654C60.32 36.6954 60.3 37.3354 60.43 37.5454C61.25 37.6954 62.35 37.0554 62.49 36.2554V36.2454ZM84.2 48.7954C85.14 48.3554 85.7 47.5854 85.77 46.7254C85.84 45.7854 85.41 45.1954 84.59 44.4954C84.05 44.0354 82.63 43.9254 81.89 44.2854C81.33 44.5554 80.62 45.3354 80.34 46.0854C80 47.0054 80.69 48.1454 81.32 48.5854C82.19 49.1954 83.19 49.2654 84.2 48.7954ZM132.69 69.1553C131.82 68.8454 130.53 69.0254 129.86 69.5854C129.64 69.7654 129.47 70.4654 129.49 70.7354C129.51 71.0054 129.98 71.4854 130.29 71.4954C131.48 71.5354 133.24 69.3553 132.7 69.1553H132.69ZM80.35 99.8354C80.95 100.355 81.61 100.805 82.13 101.065C83.11 100.275 83.87 100.045 85.03 99.9254L84.96 98.7754L87.95 98.3954L89.39 96.1054L90.89 93.9854C91.19 93.5654 91.76 92.9854 91.78 92.4454L91.89 89.2354C90.94 88.4254 87.47 87.2454 86.53 88.4354C85.81 89.3554 84.44 92.7654 85.16 93.1354L86.77 91.5654L90.7 91.6454C89.83 92.9054 88.27 94.7654 87.39 95.3054C86.26 96.0054 85.17 95.9854 84.18 94.8554L82.76 96.3854C81.85 97.3654 80.79 98.2954 80.35 99.8154V99.8354ZM91.74 95.6254C90.72 96.6354 90.1 97.9654 89.67 99.1754C90.82 99.4254 91.49 99.6254 92.45 99.9053C93.05 100.075 96.55 99.8754 96.44 99.4454C96.31 98.9554 95.13 98.6254 95.61 98.5154C95.71 98.4954 95.93 98.4454 96.04 98.4454L97.77 98.4154C98.48 97.5354 98.94 96.5054 99.25 95.4354C100.65 90.6154 99.2 92.2154 98.83 89.5554C98.7 88.6354 97.87 88.5654 97.12 88.7354C96.37 88.9054 95.67 89.1954 95.35 89.8654C94.34 91.9354 93 93.5354 93.36 94.6854C93.47 95.0354 94.07 95.6454 94.43 95.5754C94.84 95.4954 95.09 95.4354 95.25 95.3754C95.41 95.3154 95.43 94.7554 95.27 94.7054L94.51 94.4954C94.3 94.4354 93.92 94.2954 93.74 94.2054C93.53 94.0954 95.2 92.0454 96.64 93.1654L98.27 92.4654C98.57 93.2754 98.18 93.7954 97.72 94.3854C97.05 95.2354 96.5 96.2254 95.35 96.5854C93.52 97.1754 92.8 95.3454 91.76 95.6254H91.74ZM87.04 93.6854L85.2 93.7654C85.73 94.4554 85.88 94.5254 86.59 94.8754L87.04 93.6954V93.6854Z" fill="black"/>
<path d="M138.67 71.6053C138 72.6253 137.01 72.7854 136.08 72.2054C135.41 71.7754 135.14 70.2553 135.94 69.7453C136.14 69.6153 136.64 69.4454 136.84 69.4454C137.23 69.4454 137.9 70.5753 138.12 70.2853L138.58 69.6954C139.03 69.1154 140.12 69.4553 140.79 69.8653C141.17 69.2853 141.57 68.2354 142.33 68.1954C142.64 68.1754 143.28 68.4953 143.52 68.6553C143.79 68.8353 143.92 69.6154 143.73 69.9654C143.57 70.2654 142.82 70.6854 142.48 70.6454C142.14 70.6054 141.65 70.3153 141.14 70.0553L140.54 71.3553L138.67 71.6153V71.6053Z" fill="black"/>
<path d="M147.37 67.0754C145.09 67.7554 146.63 68.9954 144.99 69.2454C144.3 69.3554 143.8 68.7254 143.91 67.8354C143.98 67.2654 145.25 67.1354 145.83 67.0854L146.11 65.9754C146.18 65.7154 146.8 65.8254 147.17 65.8254L148.45 62.0054L148.02 60.4754C147.98 60.3454 148.11 59.9254 148.18 59.8154C148.26 59.6654 148.76 59.9554 148.86 60.1554C149.45 61.3954 149.66 65.3454 147.94 65.7854L147.38 67.0854L147.37 67.0754Z" fill="black"/>
<path d="M45.7201 71.8454C46.2401 72.1554 45.7201 73.9455 45.0101 74.4555C44.6701 74.6955 43.7601 74.5754 43.7401 74.2455C43.7201 73.7754 43.6901 73.1754 43.6601 73.0354C43.0501 73.3754 42.5401 73.8955 42.0201 73.8255C41.5001 73.7555 40.9401 72.9255 41.0201 72.5055C41.1801 71.6355 42.1901 70.2454 42.7601 70.0354C43.2101 69.8754 43.9801 70.2155 43.9701 70.6855C43.9501 71.5155 43.9501 72.2355 44.0301 72.8755C44.6601 72.1555 45.0601 71.4554 45.7101 71.8554L45.7201 71.8454Z" fill="black"/>
<path d="M56.22 75.3553L56.82 75.4053C56.98 75.4153 56.78 76.1153 56.62 76.1253L53.43 76.3553L52.68 75.4853C52.12 75.5653 51.35 75.6453 50.86 75.5853C50.56 75.5453 50.6 74.7153 50.79 74.5053C51.03 74.2453 51.66 74.2053 51.94 74.5453C52.36 75.0653 52.85 74.7453 53.29 74.8353C54.28 75.0353 55.22 75.2653 56.23 75.3453L56.22 75.3553Z" fill="black"/>
<path d="M46.8701 75.0753L45.6201 74.2453L46.9701 72.7853C47.0901 72.6553 47.7801 72.7053 47.9301 72.7953C48.1001 72.9053 48.1601 74.8353 46.8601 75.0653L46.8701 75.0753Z" fill="black"/>
<path d="M49.4899 73.3354C50.0899 73.0854 50.1499 74.1854 49.8399 75.0754C49.7499 75.3354 48.9999 75.5554 48.7699 75.3954C48.5399 75.2354 48.4399 74.4654 48.5399 74.2054C48.6599 73.9054 49.1599 73.4754 49.4799 73.3354H49.4899Z" fill="black"/>
<path d="M84.31 47.7053C83.73 48.2253 83.14 48.1853 82.51 47.7053C82.2 47.4653 81.76 47.0353 81.76 46.7353C81.76 46.3053 82.11 45.7553 82.48 45.5053C83.16 45.0353 84.03 45.0753 84.56 45.6053C85.13 46.1853 84.98 47.1153 84.33 47.7053H84.31Z" fill="black"/>
</svg>
