<svg width="130" height="83" viewBox="0 0 130 83" fill="none" xmlns="http://www.w3.org/2000/svg">
<path d="M112.453 73.4334C110.183 67.1534 111.413 62.5534 109.543 60.4234C108.013 58.6834 105.443 58.3234 103.213 58.1134C98.4029 57.6634 93.6629 57.7034 88.8629 57.9534C86.9329 58.0534 85.2729 59.0334 84.2929 60.6034C85.8529 60.9634 87.3129 61.2934 88.7929 61.4234L94.8129 61.9434C96.9229 62.1234 102.433 62.3234 104.203 63.1734C106.273 64.1634 106.083 66.8734 105.773 68.8834C105.323 71.7534 105.733 75.3934 103.583 77.6734C101.433 79.9634 97.2729 80.0034 94.3529 79.7534C91.7629 79.5334 89.1329 79.9934 86.7129 78.9134C85.0229 78.1534 84.7429 75.4934 84.8129 73.8834L86.0929 72.3634C86.6829 71.6634 88.1929 71.1234 88.9429 71.6034C89.3129 73.0734 90.2829 74.6134 91.9129 74.6534C93.7029 74.6934 95.7429 74.3134 96.8929 73.0134C97.3929 72.4434 97.7229 70.6134 97.2129 70.1334C96.7029 69.6534 95.8829 68.9234 95.5029 68.5934C94.3629 68.7234 93.6929 68.5634 92.6729 68.4634L84.6429 67.6434L81.4129 67.2034C78.0029 66.7434 72.0829 66.2234 69.5329 68.1834C68.7329 68.8034 68.4929 71.1534 69.1629 71.7834C69.7629 72.3434 70.5829 73.0034 71.2329 73.5034C72.6729 73.2834 74.5129 73.5034 75.7129 72.9634L79.4829 71.2834C80.5329 72.2534 81.9429 73.7134 82.0029 75.1334C82.0829 77.2134 80.0529 78.3034 78.2929 78.5934C72.2329 79.5634 71.8929 78.4434 68.8329 79.1434C67.5129 79.4434 66.1229 79.0534 64.8729 79.0134C62.3329 78.9234 60.4529 78.4834 59.3329 75.8934L58.1229 73.0934C57.6629 72.3234 55.5329 72.5534 54.6029 72.3734C51.8629 71.8534 47.2729 72.0634 43.3829 71.6734C41.9929 71.5334 40.6329 71.3834 39.2829 71.3534C36.8329 71.2934 35.4029 72.8934 34.8429 75.2334C34.4929 76.6634 32.4829 77.7934 30.9329 77.9034C24.4529 78.3334 21.4529 76.9834 15.3429 77.9934C13.2729 78.3334 7.79293 78.3434 6.43293 76.6934C4.93293 74.8834 5.55293 72.3934 6.79293 70.6234C7.76293 69.2434 9.54292 68.8734 11.1729 69.2934L14.3629 70.1334C16.4229 70.6734 18.5229 71.2634 20.6529 70.5434C21.4029 70.2934 22.2329 69.2934 22.2229 68.6834C22.1729 65.3734 18.3129 66.4334 14.5629 65.7734C12.0329 65.3334 11.4729 64.9634 9.51293 64.0034C6.91293 62.7434 5.56293 60.8934 4.32293 58.3234C3.81293 57.2634 3.44291 56.3934 3.34291 55.1934C3.07291 51.9434 2.90292 48.6634 4.45292 45.7034C7.05292 40.7734 8.38292 40.1134 14.1329 38.0034C16.3829 37.1734 11.0629 37.1634 9.46292 29.6234C7.99292 22.6834 12.5529 18.6734 10.1429 14.2934C9.43292 13.0034 5.24292 12.3534 3.38292 12.7234C2.45292 12.9134 0.562918 12.9434 0.142918 12.2034C-0.557082 9.87338 1.47293 8.47336 2.79293 7.11336C6.08293 3.72336 8.59292 5.21338 12.1929 5.32338C16.0829 6.68338 18.3929 11.4834 20.8829 8.57338C21.7329 7.58338 21.6329 6.81336 21.0629 5.74336L20.0929 3.9134L15.3029 2.00337C17.9629 -2.37663 24.5429 1.44339 26.5829 3.83339C27.1529 4.50339 27.4829 5.08337 28.3429 4.75337L30.3729 3.9734C38.8129 0.723403 45.4029 4.85336 49.3429 12.1134C51.7729 16.5934 51.4229 22.0334 55.9029 26.5434C57.8729 28.5334 61.1229 28.6634 63.6329 27.9734C65.0729 27.5834 65.6229 26.3934 65.8629 25.1234L66.4729 25.0934C66.6329 25.0934 66.3629 24.6834 66.2129 24.5134L64.1229 22.2434C62.1929 21.1034 59.4329 22.2934 58.6329 21.2334C57.7729 20.0934 60.2029 17.8634 61.4229 17.6334C65.4829 16.8434 68.7929 18.2134 71.2429 21.3834L71.6829 24.0834C73.3029 27.8634 70.2729 32.6634 66.2529 34.2934C63.3729 35.4634 59.8329 35.8234 56.7029 34.6834C54.5529 33.8934 51.9729 32.3334 50.8029 30.4134L49.0029 27.4634C46.8329 23.9134 46.9729 20.6834 44.5529 16.4734L42.5529 12.9934C41.7829 11.6634 38.6329 9.2834 36.5729 9.2834C35.0429 9.2834 33.1129 10.2234 32.8229 11.6934C32.3629 14.1034 33.5829 16.5134 34.7629 18.5734C36.9529 22.4034 36.8029 24.7634 35.3029 28.8934L33.6929 33.3034C33.0229 35.1534 33.6929 37.6234 35.2429 38.8834C36.6729 40.0434 40.5729 42.0334 41.3329 42.1934L48.9429 43.8534C52.5929 44.6434 56.1829 45.4934 59.9129 45.5334L63.8629 45.5634C65.8629 45.5834 67.7029 45.8734 69.6329 45.5934C74.3629 44.9034 74.1029 45.1934 79.1529 43.4434L84.4229 41.6234C85.0729 41.3934 86.2529 40.7034 86.9829 40.3134C93.5429 36.8134 103.513 34.4834 111.013 35.6434C112.013 35.7934 112.923 35.5934 113.943 36.2234L104.253 39.6534C102.093 40.4234 100.383 41.8234 98.4629 43.0634L94.7829 45.4434C93.7829 46.0934 92.8129 47.0334 93.1329 48.2934L94.6629 49.9934C99.1029 50.4334 99.3029 49.8434 104.493 50.3134L111.893 50.9834C112.903 51.0734 114.643 51.7134 115.413 52.2334C120.623 55.7834 116.513 62.2834 120.763 63.9134C122.333 64.5134 123.933 63.1534 124.583 62.1234C125.623 60.4734 124.783 59.2434 123.893 57.2634C125.363 57.3434 126.463 57.9734 127.463 58.8334C129.733 60.7934 130.293 64.1034 128.993 66.7234C128.413 67.9034 126.393 69.4134 124.843 69.4334L119.363 69.5234C117.973 70.5534 119.303 72.4934 120.093 73.0934C120.453 73.3834 120.513 74.5934 120.663 75.0034C121.913 78.4134 125.683 80.4334 128.873 80.9234C129.223 80.9734 129.743 81.3934 129.913 81.5334C130.123 81.7134 129.963 82.6534 129.683 82.6634C128.063 82.7234 125.483 82.5034 123.843 82.2634C120.923 81.8234 120.833 81.9934 117.813 80.6234C113.753 78.7834 113.643 76.5634 112.503 73.4134L112.453 73.4334ZM27.2929 29.7134C31.2629 27.5734 31.0429 22.3134 29.7729 18.7334C29.4029 17.6834 29.1629 16.6034 27.8029 16.6834C24.6729 14.2534 20.5929 14.8034 17.7029 17.3734C16.1029 18.7934 15.3329 20.6434 15.1829 22.8934C14.9929 25.6534 14.3229 27.2234 18.4829 29.4134C21.3429 30.9134 24.2329 31.3634 27.2929 29.7034V29.7134ZM75.2329 53.5334C69.0229 57.9034 57.4729 60.8834 50.8029 61.8134C49.2129 62.0334 47.7729 62.1134 46.1929 62.1534C44.7229 62.1934 43.1929 61.8334 41.7329 61.7534C35.3229 61.4034 29.3829 60.2534 23.2629 57.8034C26.2729 60.4834 29.7829 60.4634 33.7629 61.5834C35.2429 62.0034 36.6529 62.1734 38.2429 62.2434C44.1029 62.5034 50.0129 63.0234 55.7629 61.6634L59.5429 60.7634L66.0829 58.8334C66.2929 58.7734 66.9029 59.0534 67.0329 58.8834C67.1229 58.7634 67.4529 58.2334 67.6129 58.1734C70.4429 57.1534 81.1129 52.2834 82.0429 48.9634L78.9729 50.4934C72.8029 53.5734 66.2929 55.4134 59.3129 56.0234C57.5929 56.1734 55.7429 56.8334 54.1229 55.9134L51.0229 54.1434C49.9029 55.2534 44.9729 56.4734 44.6129 56.0334C43.4929 54.6534 45.7729 53.6134 42.5729 50.5034C42.2329 50.1734 40.9829 50.1334 40.6729 50.4734C39.0729 52.2734 41.2429 53.4634 35.6729 55.0834C32.4029 56.0434 29.0429 55.9734 26.2729 53.7434C25.8329 53.1134 25.0129 51.7934 24.7729 51.0834C24.1229 49.1934 25.7729 47.2434 27.2129 46.6434C27.4629 46.5334 28.2729 46.7034 28.3229 46.9334C28.5529 48.0434 26.7629 49.5934 28.0029 52.0034C28.8829 52.3134 30.8529 52.3834 31.6329 51.9834C34.1029 50.7234 34.6229 46.9734 34.2829 45.2334C33.9429 43.4934 32.5929 41.9634 31.4529 40.7234C29.0829 39.7034 25.5429 40.7534 24.2129 41.8034L22.0829 43.4934C20.3629 44.8634 19.8529 47.0334 19.2729 49.0934C15.7029 48.5534 15.9029 45.3034 14.7729 45.2634C12.0429 45.1634 11.8429 54.5134 16.6229 55.8134L20.3029 56.8134C21.0829 57.3534 21.9229 58.0534 22.7929 57.6834L20.4129 55.4234C19.8229 56.3934 16.7229 55.5334 15.0129 53.7234C13.8729 52.5134 13.2629 47.9634 14.4329 46.4934C15.6129 48.9234 17.3429 49.8434 19.5729 50.1934C20.6129 50.3534 19.6729 43.5534 26.8629 41.5634C28.3629 41.1534 29.1929 41.0934 30.5829 41.7534C31.5929 42.2334 32.2929 42.7634 32.8029 43.9734C33.5829 45.8334 33.7529 47.3734 32.9029 49.2734C32.2329 50.7634 30.5329 52.3834 28.7429 51.2234C27.2729 50.2634 29.6829 47.4234 29.0329 46.5734C28.6429 46.0734 27.3829 45.1434 27.1429 45.3234C25.2529 46.7234 22.4329 49.0434 24.1129 52.0334C25.5229 54.5434 24.4729 53.5734 27.3329 55.3934C28.6129 56.2034 30.3229 56.1134 31.8629 56.3534C34.9829 56.8334 40.0229 54.8434 41.4829 51.1834C45.0729 53.1634 42.3329 55.3134 43.8829 56.7734C45.1829 57.9934 47.8029 57.0434 49.3829 55.9034C52.7429 53.4734 51.3229 58.0934 58.0629 57.0734C59.3929 56.8734 60.9129 56.9034 62.0829 56.6134L69.7429 54.7234C71.6329 54.2534 73.3629 53.4634 75.1929 53.5434L75.2329 53.5334Z" fill="black"/>
<path d="M29.203 26.2533C27.603 28.9033 26.893 29.0833 24.073 29.7433C21.593 30.3233 18.323 29.0533 16.853 27.2433C15.493 25.5633 15.843 23.5833 16.353 21.8833C16.663 18.2033 21.393 14.6333 25.353 16.1733L26.773 17.3234C30.283 18.2034 30.123 24.7233 29.203 26.2433V26.2533ZM24.953 25.7433L26.313 23.6133C26.723 22.9733 26.433 21.2333 25.833 20.7433C24.013 19.2533 21.253 19.3934 19.843 21.1534C19.463 21.6334 19.013 23.0233 19.053 23.6233C20.233 27.0833 22.663 25.5533 24.953 25.7433Z" fill="black"/>
<path d="M24.293 24.7234C22.743 25.6534 20.753 25.6534 20.013 24.0834C19.413 22.8134 20.363 21.6234 21.373 20.8834C22.253 20.2334 23.663 20.3534 24.863 21.0434C25.323 21.3034 25.643 22.4534 25.573 22.9834C25.503 23.5134 24.893 24.3734 24.303 24.7334L24.293 24.7234Z" fill="black"/>
</svg>
