<svg width="169" height="91" viewBox="0 0 169 91" fill="none" xmlns="http://www.w3.org/2000/svg">
<path d="M74.1341 90.9994C73.5641 90.4594 73.0241 89.4294 72.4441 89.3494C71.0941 89.1594 69.5141 89.0294 68.4141 89.6094L65.7641 91.0094C65.8941 89.6594 66.0441 88.3493 66.6741 87.4294C67.6541 85.9994 69.6141 86.2194 71.0741 86.7294C72.2741 87.1394 73.6341 87.6094 74.7341 87.0294C75.9541 86.3794 75.8541 84.8494 75.7841 83.6994C75.6441 81.3494 74.6941 79.2994 72.6641 78.0094C70.6341 76.7194 68.5741 75.4394 66.6641 73.9594C65.9341 73.3994 65.3641 72.5794 64.4541 72.4694C64.4941 73.2494 64.5541 73.9394 64.4141 74.4794C64.0141 75.9794 61.6341 75.2194 61.4341 77.4094C61.2141 79.8194 59.6141 81.6694 57.2041 82.0194C55.9141 82.2094 55.5841 82.8794 55.0241 83.9094C53.2441 87.1994 49.7341 89.2694 46.1341 90.0194C44.2141 90.4194 40.9541 89.4394 39.4141 87.9394C36.9641 85.5594 36.5741 81.8894 38.7441 79.2394C39.0741 78.8294 40.2241 78.6494 40.1741 79.0794C39.9741 79.9594 39.7841 80.6894 39.7241 81.4694C39.4741 84.5794 41.9241 86.8794 44.8841 86.8494C47.0441 86.8194 48.6441 86.1294 50.1341 84.6594C52.2641 82.5594 53.6241 79.8794 53.9741 76.7894C54.2041 74.7594 54.0541 72.6794 53.9841 70.6194L53.7741 64.3394C53.7241 62.7394 53.5441 61.1894 53.7241 59.6494C54.1341 56.0994 56.6741 53.6894 60.3141 53.5494C62.2641 51.8694 61.1241 51.0194 63.5541 48.1494C65.0641 46.3694 66.5941 44.8194 68.3741 43.3094C70.3341 41.6394 63.9041 41.5594 63.2941 41.5194C59.3341 41.2794 54.6241 39.2794 53.6341 34.9094C54.1641 34.1594 55.5141 36.9593 56.8541 37.4293C60.2841 38.6193 63.7341 37.9494 67.1341 37.1394C72.4441 35.8794 73.2641 35.3894 78.8041 35.7394C79.5441 35.7894 80.5341 36.1094 81.2341 36.2394C83.3241 36.6394 84.3341 38.2294 84.7741 40.0694C85.2941 42.2394 85.7241 44.2794 84.7441 46.4694L86.1641 48.8894C87.1141 50.5094 85.7541 52.4494 84.3241 53.2594C82.8941 54.0694 81.3141 54.5294 79.6441 54.8094C78.9441 54.9294 78.4841 55.3093 77.6841 54.6194L79.9941 52.8494C80.7741 52.2494 81.8941 51.2994 81.7441 50.1694C81.5641 48.8894 80.1441 48.0894 79.0141 47.8694L76.8141 47.4494C72.9741 46.7094 71.7641 49.8094 70.6541 52.7094C69.6541 55.3094 71.0141 59.3694 72.8641 61.1094C74.9241 63.0494 77.6241 63.7394 80.4341 63.9694C87.4941 64.5294 91.7341 60.3494 93.1041 53.8594C93.3841 52.5594 93.4741 51.2194 93.5441 49.8594L93.7841 45.0694C94.0741 39.2194 92.8141 34.1394 91.0941 28.6594C90.8041 27.7494 90.1741 26.7994 89.7841 25.8994C87.9141 21.4894 84.8441 17.3394 81.1041 14.3694C75.2441 9.71935 73.8541 8.60938 66.3741 6.08938C63.3741 5.07938 60.5941 3.80937 57.3841 3.50937L53.9941 3.19937C51.8541 3.00937 49.6741 2.99935 47.5241 3.17935L44.0041 3.45938C38.4641 3.89938 32.7641 6.40939 28.5441 9.84939L24.2441 13.3494C22.0441 15.1394 22.1141 15.3894 20.6141 17.3794C18.1041 20.7094 15.9041 24.2194 14.8441 28.3194C14.3341 30.2894 13.9041 32.1394 13.8141 34.1594C13.5641 40.0994 13.4741 42.4994 15.7541 48.0794C17.0241 51.1794 18.9241 53.8594 21.5741 55.8094C22.4241 56.4394 23.4141 56.8094 24.3241 57.2194C28.6141 59.1394 34.4041 58.6494 38.2041 55.8094C39.1141 55.1294 39.6741 54.3294 40.2341 53.4094C41.9041 50.6394 42.0641 47.7294 40.6441 44.8094C39.7941 43.0594 38.4541 41.3694 36.5041 40.9194C33.6141 40.2394 31.5141 40.7694 29.4741 42.6394C28.2341 43.7794 27.7141 45.0394 28.0641 46.7294C28.7141 49.9194 30.7941 49.3194 30.2041 50.7994C28.6941 50.7394 27.0641 49.7294 26.3541 48.3394C25.5441 46.7694 25.7141 44.7494 26.3041 43.1194C27.7541 39.1293 32.3941 36.9594 36.3341 38.1194C38.0141 38.6194 39.6241 39.2994 40.8241 40.7494C42.1141 42.3094 43.1841 44.3994 43.6241 46.4794C44.2541 49.4894 43.4141 53.8194 41.3841 56.1694C39.7641 58.0394 38.6841 59.3094 36.5441 60.1994C29.4141 63.1694 21.2741 60.0394 16.4041 54.3094C15.4041 53.1394 14.5941 51.6994 13.8341 50.2994C12.5841 47.9994 11.8941 45.4894 11.4641 42.8094C11.2641 41.5594 11.0741 35.1094 10.6341 35.3794C10.5141 35.4494 10.2241 35.6494 10.1341 35.8394C8.48413 39.2894 5.58412 42.1094 1.29412 41.2494C0.464119 41.0794 -0.485875 39.7494 0.284125 39.1494C1.40412 38.2694 3.05412 37.9294 3.56412 36.4094C5.79412 29.6594 3.09413 18.6994 9.69413 15.3594C11.0041 14.6994 12.4441 15.3194 13.3141 16.0994C15.5141 18.0694 13.6441 20.5694 14.5941 20.9594C15.6041 20.0794 15.8341 18.7594 16.5641 17.7794L19.1941 14.2294C20.2941 12.7394 24.2041 8.98936 25.8741 7.93936L29.7041 5.5394C33.4041 3.2094 38.1741 1.80939 42.4441 0.849393C45.7741 0.0893928 48.6241 -0.150617 52.0541 0.0893831C54.1541 0.239383 56.2841 0.0893831 58.3241 0.589383C59.1741 0.799383 59.9841 1.04938 60.8541 1.20938C63.8641 1.74938 66.6941 2.52937 69.6041 3.44937C71.3241 3.98937 72.7941 4.76938 74.4041 5.51938C76.4641 6.48938 78.4941 7.37936 80.4041 8.68936C81.2941 9.29936 82.3141 8.97937 83.0141 8.19937C85.6341 5.26937 88.7941 3.38937 92.4541 1.82937C94.3341 1.02937 96.2641 0.779395 98.1041 2.0394L97.1941 3.84939C97.9041 3.86939 98.7241 3.7894 99.3841 3.5394L102.714 2.26938C104.894 1.43938 106.684 1.62939 108.704 2.59939C110.264 3.07939 112.094 1.84936 113.654 1.81936C117.294 1.73936 120.814 1.56935 124.404 1.86935C128.814 2.22935 133.024 3.42937 136.904 5.32937C140.784 7.22937 140.854 7.44936 144.434 9.74936C146.564 11.1194 149.334 13.7894 150.974 15.7494L152.664 17.7694C155.604 21.2994 157.534 25.3394 159.124 29.6094C160.404 33.0394 159.674 35.1494 161.674 33.9594C162.784 33.2994 164.334 33.2694 165.414 34.1594C165.914 34.5694 166.474 35.6594 166.534 36.3394C166.834 39.9894 166.344 43.3894 165.804 46.9494L165.254 50.5694C164.834 53.3094 165.514 57.3994 168.834 58.5894C165.274 61.0694 161.504 56.6194 160.324 53.6694C159.464 51.5194 158.914 55.3294 157.844 57.4194C156.504 60.0194 154.494 62.0794 152.624 64.2994C152.034 64.9994 151.284 65.5494 150.584 66.1494C149.494 67.0894 148.304 67.6694 147.034 68.3594C139.314 72.4894 128.814 69.7693 126.294 61.6194C125.474 58.9594 125.884 57.5994 126.944 55.0794C127.694 53.3194 128.904 51.6394 130.764 50.9794C131.834 50.5994 133.014 50.2594 134.144 50.1894C136.854 50.0394 138.934 52.0894 139.624 54.5994C140.314 57.1094 139.074 59.2494 136.904 60.5294C136.424 60.8094 135.864 60.9393 135.324 60.6793C136.404 59.5993 136.824 58.6794 137.024 57.3494C137.224 56.0194 137.184 54.8794 136.154 54.0794C135.124 53.2794 134.034 53.3994 132.814 53.8794C130.164 54.9294 128.524 57.2294 128.544 60.0694C128.564 62.9094 130.554 65.1894 133.224 66.1594C137.304 67.6494 136.924 67.6494 140.794 67.2194C142.574 67.0294 144.224 66.8994 145.924 66.0194C149.084 64.3794 151.264 62.6594 153.224 59.5994C155.184 56.5394 156.454 54.3794 157.344 50.6994C158.454 46.0994 158.814 43.5594 158.474 38.8794C158.324 36.8794 158.184 35.2694 157.514 33.3494L156.204 29.5594C155.414 27.2694 154.454 24.8794 152.964 22.9694L149.944 19.0994C148.474 17.2194 147.004 15.5594 145.134 14.0394C144.114 13.2094 143.084 12.1894 141.984 11.4994C137.924 8.96936 134.724 7.55936 130.164 6.12936C128.674 5.65936 127.084 5.36939 125.534 5.02939C122.924 4.45939 118.174 4.2694 115.534 4.5394C107.194 5.3694 101.744 7.29938 95.0241 12.0894C93.5941 13.1094 92.5441 14.6994 91.8941 16.0794C91.1841 17.5894 91.9741 18.6194 92.8541 19.6094C93.7841 20.6594 94.4141 21.9693 95.2241 23.1793L98.0641 27.3794C98.1441 27.4994 98.4341 27.7294 98.5341 27.7694C98.6741 27.8294 99.0741 27.6794 99.1841 27.5694C101.334 25.2594 104.834 24.8594 107.304 26.9394C108.154 27.6594 108.904 28.7994 108.844 30.0694C106.784 28.5994 104.184 28.3494 102.784 30.4994C101.814 31.9894 101.634 33.9994 102.074 35.5394C103.944 42.1094 106.404 51.1094 103.934 57.5094C103.304 59.1394 102.674 60.7994 101.374 62.0594C100.444 62.9594 98.9741 63.6394 97.6941 63.7194C97.3441 63.7394 96.6541 63.6194 96.5141 63.8594C96.6141 64.7194 97.5841 65.3694 98.4741 65.6094C101.704 66.4694 105.314 66.3394 108.204 64.5194L110.844 62.8594C111.874 64.2394 112.754 65.1494 114.004 66.0694L117.964 68.9694C122.624 72.3794 128.384 76.7494 128.784 83.0594C128.884 84.5994 128.314 85.9594 127.454 87.2194C125.724 89.7294 124.064 89.1594 121.994 88.8094C121.834 88.7794 121.404 88.3094 121.534 88.2194C122.544 87.4594 123.934 88.3294 125.384 87.4194C126.354 86.8194 127.114 85.6294 127.354 84.6094C127.784 82.7294 126.934 81.1894 126.134 79.6294C125.814 79.0094 125.604 78.1794 125.134 77.6194C123.494 75.6294 121.734 73.8694 119.724 72.2094C117.714 70.5494 115.494 69.4494 113.094 68.5194C112.384 68.2494 111.494 68.2094 110.724 68.0994C107.014 67.5794 104.484 68.4194 100.894 69.2794C99.1541 69.6994 97.5341 70.2194 95.8641 70.8594L90.6941 72.8194L87.1141 74.2394C83.6641 75.6094 79.1441 73.7894 80.2141 75.6994C80.9141 76.9594 80.3341 77.9094 79.2341 78.6694C78.1341 79.4294 76.5841 84.0094 77.5141 85.3494C78.1841 86.3094 79.6141 85.5194 80.5041 85.4594C82.4241 85.3294 85.8241 86.3194 86.2041 87.8394C86.5341 89.1194 85.4141 90.1594 83.7941 90.7094C83.3541 90.2694 84.4641 88.0794 83.4041 87.7694C80.8941 87.0494 78.2741 87.5894 76.4241 89.3194C75.7741 89.9294 75.1141 90.5594 74.1841 90.9694L74.1341 90.9994Z" fill="black"/>
</svg>
