<svg width="33" height="36" viewBox="0 0 33 36" fill="none" xmlns="http://www.w3.org/2000/svg">
<path d="M23.8013 -1.88202e-08L20.3822 -1.46837e-08C20.1154 -1.4361e-08 19.9813 0.322082 20.1693 0.511377L23.5884 3.95482C23.7771 4.14484 24.1013 4.01122 24.1013 3.74344L24.1013 0.3C24.1013 0.134315 23.967 -1.90206e-08 23.8013 -1.88202e-08Z" fill="#B4B4B4"/>
<path d="M18.3067 2.55506L14.674 2.55506C14.4072 2.55506 14.2731 2.23298 14.4611 2.04368L16.2774 0.2144C16.3948 0.0962372 16.5859 0.0962374 16.7032 0.2144L18.5195 2.04368C18.7075 2.23298 18.5734 2.55506 18.3067 2.55506Z" fill="#B4B4B4"/>
<path d="M18.3067 31.2995L14.674 31.2995C14.4072 31.2995 14.2731 31.6216 14.4611 31.8109L16.2774 33.6401C16.3948 33.7583 16.5859 33.7583 16.7032 33.6401L18.5195 31.8109C18.7075 31.6216 18.5734 31.2995 18.3067 31.2995Z" fill="#B4B4B4"/>
<path d="M24.2226 31.1773L20.8036 34.6207C20.6156 34.81 20.7497 35.1321 21.0164 35.1321L24.4355 35.1321C24.6012 35.1321 24.7355 34.9978 24.7355 34.8321L24.7355 31.3886C24.7355 31.1208 24.4113 30.9872 24.2226 31.1773Z" fill="#B4B4B4"/>
<path d="M8.24511 34.8321L8.24511 31.3886C8.24511 31.1208 8.56931 30.9872 8.75799 31.1773L12.1771 34.6207C12.365 34.81 12.2309 35.1321 11.9642 35.1321L8.54511 35.1321C8.37942 35.1321 8.24511 34.9978 8.24511 34.8321Z" fill="#B4B4B4"/>
<path d="M5.70827 22.2679L5.70827 12.226C5.70827 11.9582 5.38407 11.8246 5.19539 12.0146L0.209934 17.0356C0.0937785 17.1526 0.0937782 17.3413 0.209933 17.4583L5.19539 22.4793C5.38407 22.6693 5.70827 22.5357 5.70827 22.2679Z" fill="#B4B4B4"/>
<path d="M27.2729 22.2679L27.2729 12.226C27.2729 11.9582 27.5971 11.8246 27.7858 12.0146L32.7712 17.0356C32.8874 17.1526 32.8874 17.3413 32.7712 17.4583L27.7858 22.4793C27.5971 22.6693 27.2729 22.5357 27.2729 22.2679Z" fill="#B4B4B4"/>
<path d="M12.5987 -4.49942e-09L9.17963 -3.62946e-10C9.01394 -1.62496e-10 8.87963 0.134314 8.87963 0.3L8.87963 3.74344C8.87963 4.01122 9.20383 4.14484 9.39251 3.95482L12.8116 0.511378C12.9996 0.322083 12.8655 -4.82215e-09 12.5987 -4.49942e-09Z" fill="#B4B4B4"/>
</svg>
