<svg width="281" height="281" viewBox="0 0 281 281" fill="none" xmlns="http://www.w3.org/2000/svg">
<path d="M94.2891 260.765C94.2446 260.852 94.207 260.946 94.1797 261.042L94.1523 261.156L94.1357 261.236L93.668 261.153L93.751 260.663L94.2891 260.765ZM96.0527 256.119C96.1277 256.253 96.1735 256.421 96.2002 256.669C96.2136 256.794 96.221 256.928 96.2285 257.082C96.2357 257.231 96.2433 257.404 96.2568 257.578L96.3047 258.197L96.9219 258.265C97.339 258.311 97.6295 258.278 97.8379 258.245C97.8291 258.262 97.8217 258.28 97.8125 258.298C97.7477 258.424 97.65 258.605 97.5869 258.764C97.5379 258.888 97.4071 259.231 97.5498 259.597L97.5508 259.6C97.6983 259.972 98.0148 260.155 98.1855 260.241C98.367 260.331 98.5933 260.408 98.7383 260.461C99.1046 260.596 99.2753 260.694 99.3594 260.812L96.5928 260.332L96.209 260.267L96.0645 260.411C96.0571 260.404 96.0501 260.397 96.043 260.391C95.9006 260.271 95.7444 260.211 95.6387 260.18C95.5239 260.146 95.4023 260.128 95.2861 260.125C95.2636 260.125 95.236 260.124 95.2051 260.125L95.2061 260.119L95.2705 259.55L95.3389 258.934C95.4082 258.839 95.4867 258.703 95.5186 258.528L95.5195 258.521L95.8701 256.494C95.9116 256.388 95.9656 256.245 96.0273 256.074L96.0527 256.119Z" fill="white" stroke="black" stroke-width="1.5"/>
<path d="M145.346 269.712C145.467 269.774 145.601 269.823 145.737 269.849V269.85L145.817 269.866L145.734 270.333L145.245 270.25L145.346 269.712ZM144.914 267.41L144.848 267.792L144.992 267.937C144.985 267.944 144.978 267.952 144.972 267.959C144.852 268.102 144.792 268.258 144.761 268.364C144.728 268.478 144.709 268.6 144.707 268.716C144.706 268.738 144.705 268.766 144.707 268.796H144.7L144.131 268.732L143.515 268.662C143.42 268.593 143.284 268.516 143.109 268.484L143.102 268.483L141.073 268.13C140.967 268.089 140.825 268.035 140.655 267.974L140.7 267.95L140.699 267.949C140.833 267.873 141.002 267.829 141.25 267.802C141.375 267.789 141.509 267.78 141.664 267.773C141.812 267.766 141.985 267.759 142.159 267.745L142.777 267.697L142.846 267.08C142.893 266.663 142.859 266.372 142.826 266.163C142.843 266.172 142.861 266.181 142.879 266.19C143.005 266.255 143.186 266.352 143.345 266.415C143.469 266.464 143.813 266.595 144.178 266.453L144.181 266.452C144.553 266.304 144.736 265.988 144.822 265.817C144.912 265.635 144.989 265.409 145.042 265.264C145.177 264.898 145.274 264.726 145.392 264.642L144.914 267.41Z" fill="white" stroke="black" stroke-width="1.5"/>
<path d="M103.459 210.561C103.569 210.596 103.687 210.618 103.803 210.625C103.909 210.631 104.069 210.627 104.236 210.569C104.253 210.563 104.27 210.553 104.29 210.544L104.396 210.744L104.762 210.804L107.539 211.265C107.538 211.266 107.537 211.267 107.536 211.268C107.418 211.353 107.226 211.39 106.834 211.397C106.679 211.4 106.441 211.398 106.239 211.424C106.049 211.449 105.696 211.517 105.434 211.81L105.429 211.815C105.166 212.114 105.177 212.485 105.183 212.618C105.19 212.789 105.222 212.992 105.242 213.132C105.244 213.146 105.245 213.16 105.247 213.173C105.062 213.074 104.801 212.95 104.396 212.858L103.79 212.719L103.542 213.291C103.381 213.661 103.32 213.856 103.192 214.123C103.086 214.346 102.985 214.492 102.865 214.598L102.831 214.627C102.829 214.433 102.826 214.272 102.821 214.157L103.151 212.147L103.15 212.146C103.178 211.982 103.156 211.836 103.126 211.726L103.266 211.083L103.384 210.533C103.413 210.544 103.438 210.554 103.459 210.561ZM102.744 209.125L102.733 209.213C102.716 209.343 102.718 209.482 102.734 209.617L102.19 209.536L102.272 209.048L102.744 209.125Z" fill="white" stroke="black" stroke-width="1.5"/>
<path d="M151.209 218.889L151.592 218.956L151.736 218.81C151.744 218.817 151.751 218.824 151.759 218.831C151.901 218.951 152.057 219.011 152.163 219.042C152.278 219.076 152.399 219.095 152.516 219.097C152.538 219.098 152.565 219.097 152.596 219.096V219.104L152.531 219.672L152.462 220.287C152.392 220.382 152.315 220.519 152.283 220.695L152.282 220.701L151.93 222.729C151.888 222.835 151.835 222.977 151.773 223.147L151.748 223.103C151.673 222.969 151.628 222.8 151.602 222.552C151.588 222.427 151.58 222.294 151.572 222.139C151.565 221.991 151.558 221.818 151.545 221.645L151.496 221.026L150.88 220.958L150.678 220.94C150.365 220.922 150.135 220.949 149.962 220.977C149.971 220.959 149.98 220.941 149.989 220.923C150.054 220.797 150.152 220.617 150.215 220.458C150.264 220.334 150.395 219.991 150.252 219.625L150.251 219.622L150.188 219.491C150.027 219.206 149.766 219.057 149.616 218.982C149.435 218.891 149.208 218.814 149.063 218.76C148.696 218.625 148.525 218.528 148.441 218.41L151.209 218.889ZM154.133 218.069L154.05 218.557L153.511 218.457C153.573 218.335 153.622 218.201 153.648 218.066L153.649 218.067L153.665 217.986L154.133 218.069Z" fill="white" stroke="black" stroke-width="1.5"/>
<path d="M117.543 276.005C117.587 276.136 117.648 276.264 117.721 276.375V276.376L117.768 276.448L117.378 276.72L117.091 276.315L117.543 276.005ZM115.486 271.463V271.464C115.639 271.507 115.792 271.595 115.986 271.75C116.083 271.828 116.183 271.916 116.297 272.019C116.407 272.119 116.535 272.236 116.667 272.349L117.137 272.752L117.622 272.366C117.957 272.099 118.14 271.865 118.263 271.693C118.269 271.712 118.277 271.73 118.283 271.749C118.326 271.884 118.385 272.081 118.453 272.237C118.504 272.357 118.655 272.697 119.021 272.852C119.386 273.009 119.737 272.916 119.917 272.856C120.109 272.792 120.323 272.688 120.463 272.623C120.82 272.459 121.009 272.407 121.152 272.432V272.432C121.154 272.432 121.157 272.433 121.16 272.433L118.854 274.057L118.536 274.282V274.505C118.529 274.505 118.522 274.504 118.515 274.505C118.335 274.52 118.185 274.585 118.087 274.637C117.982 274.693 117.881 274.765 117.794 274.848C117.778 274.863 117.759 274.882 117.738 274.904L117.735 274.901L117.379 274.453L116.978 273.947C116.959 273.832 116.915 273.685 116.814 273.543H116.816L115.633 271.863C115.588 271.757 115.524 271.617 115.447 271.452L115.486 271.463Z" fill="white" stroke="black" stroke-width="1.5"/>
<path d="M157.914 244.474L158.138 244.791H158.361C158.361 244.798 158.36 244.805 158.361 244.812C158.376 244.992 158.441 245.143 158.493 245.24C158.549 245.345 158.622 245.446 158.704 245.533C158.719 245.549 158.738 245.568 158.76 245.589L158.757 245.593L158.309 245.947L157.803 246.349C157.723 246.362 157.626 246.387 157.527 246.436L157.399 246.512L155.723 247.69C155.617 247.736 155.476 247.801 155.309 247.879L155.32 247.841C155.363 247.688 155.451 247.535 155.606 247.342C155.684 247.244 155.772 247.145 155.875 247.03C155.975 246.92 156.092 246.793 156.206 246.66L156.608 246.189L156.222 245.706C155.955 245.37 155.721 245.186 155.549 245.062C155.568 245.057 155.586 245.051 155.605 245.045C155.74 245.002 155.937 244.943 156.093 244.875C156.212 244.824 156.548 244.674 156.705 244.313L156.706 244.314C156.706 244.313 156.706 244.311 156.707 244.31C156.707 244.308 156.709 244.307 156.709 244.306L156.708 244.305C156.864 243.94 156.772 243.591 156.712 243.411C156.649 243.219 156.544 243.004 156.479 242.864C156.315 242.508 156.262 242.317 156.288 242.175C156.288 242.172 156.288 242.17 156.289 242.167L157.914 244.474ZM160.576 245.948L160.171 246.235L159.861 245.782C159.992 245.739 160.12 245.679 160.231 245.605L160.232 245.606L160.304 245.559L160.576 245.948Z" fill="white" stroke="black" stroke-width="1.5"/>
<path d="M92.3496 231.585L92.3486 231.588C92.3263 231.728 92.2186 231.889 91.9453 232.171C91.8378 232.283 91.6674 232.45 91.543 232.611C91.4251 232.763 91.2219 233.063 91.2471 233.459V233.462C91.274 233.857 91.5421 234.112 91.6406 234.203C91.7668 234.319 91.9339 234.44 92.0469 234.525C92.0692 234.542 92.09 234.559 92.1113 234.576C91.9091 234.635 91.63 234.732 91.2705 234.958L90.7432 235.288L90.9707 235.868C91.1191 236.245 91.2119 236.423 91.3115 236.706C91.3947 236.941 91.4262 237.114 91.417 237.267L91.415 237.307C91.2866 237.182 91.1762 237.078 91.0918 237L89.8906 235.327L89.8896 235.325L89.79 235.208C89.7101 235.129 89.6251 235.074 89.5527 235.036L89.2119 234.496L88.9062 234.013L88.9033 234.009C88.9309 233.997 88.9551 233.986 88.9746 233.976C89.0796 233.922 89.1808 233.851 89.2686 233.77C89.3496 233.695 89.4608 233.573 89.5352 233.406C89.5391 233.397 89.54 233.386 89.5439 233.376L89.7559 233.443L90.0596 233.226L92.3496 231.583V231.585ZM87.5078 233.542V233.542C87.5884 233.649 87.6882 233.748 87.7959 233.832L87.3564 234.153L87.0693 233.748L87.4531 233.471L87.5078 233.542Z" fill="white" stroke="black" stroke-width="1.5"/>
<path d="M129.47 205.003L129.825 205.451L130.226 205.956C130.246 206.073 130.29 206.224 130.394 206.368L131.568 208.036C131.614 208.142 131.678 208.283 131.756 208.45L131.715 208.439C131.564 208.396 131.411 208.308 131.219 208.154C131.122 208.076 131.022 207.988 130.908 207.885C130.798 207.785 130.67 207.668 130.538 207.555L130.067 207.153L129.583 207.538C129.248 207.805 129.063 208.038 128.94 208.21C128.934 208.192 128.928 208.174 128.922 208.155C128.879 208.02 128.82 207.824 128.752 207.667C128.701 207.548 128.551 207.212 128.191 207.055H128.192C128.19 207.054 128.188 207.053 128.187 207.053C128.186 207.052 128.184 207.051 128.183 207.051H128.182C127.818 206.895 127.468 206.988 127.289 207.048C127.096 207.112 126.882 207.217 126.742 207.281C126.385 207.446 126.195 207.497 126.052 207.472C126.05 207.471 126.047 207.471 126.044 207.471L128.351 205.847L128.668 205.622V205.398C128.675 205.398 128.682 205.4 128.689 205.399C128.87 205.384 129.02 205.319 129.118 205.268C129.223 205.212 129.324 205.14 129.411 205.058C129.427 205.042 129.445 205.022 129.466 204.999L129.47 205.003ZM130.114 203.589L129.661 203.899C129.617 203.768 129.556 203.639 129.483 203.528H129.484L129.436 203.455L129.826 203.184L130.114 203.589Z" fill="white" stroke="black" stroke-width="1.5"/>
<path d="M27.3208 190.818C27.2774 190.971 27.1899 191.124 27.0347 191.318C26.9565 191.416 26.8685 191.515 26.7651 191.63C26.6658 191.739 26.5485 191.867 26.4351 192L26.0337 192.469L26.4185 192.954C26.6848 193.288 26.9183 193.472 27.0903 193.595C27.0723 193.601 27.0542 193.609 27.0356 193.615C26.9009 193.658 26.704 193.717 26.5474 193.785C26.4276 193.837 26.0866 193.987 25.9312 194.353C25.7746 194.718 25.8686 195.069 25.9282 195.249C25.9921 195.441 26.097 195.655 26.1616 195.796C26.3241 196.148 26.3762 196.337 26.353 196.479C26.3522 196.483 26.3509 196.488 26.3501 196.492L24.7271 194.186L24.5024 193.868H24.2798C24.2794 193.861 24.2803 193.854 24.2798 193.847C24.2643 193.667 24.1998 193.517 24.1479 193.42C24.092 193.315 24.0199 193.213 23.938 193.127C23.9226 193.11 23.9023 193.091 23.8794 193.07L23.8833 193.067L24.3315 192.712L24.8364 192.31C24.9513 192.291 25.0986 192.248 25.2407 192.147L25.2417 192.148L26.9204 190.965C27.0262 190.92 27.166 190.856 27.3315 190.779L27.3208 190.818ZM22.7798 192.876C22.6864 192.906 22.5945 192.946 22.5093 192.993L22.4087 193.053L22.3354 193.1L22.064 192.711L22.4692 192.422L22.7798 192.876Z" fill="white" stroke="black" stroke-width="1.5"/>
<path d="M52.5747 235.293C52.6179 235.424 52.6792 235.552 52.7524 235.663V235.664L52.7993 235.736L52.4097 236.007L52.1226 235.603L52.5747 235.293ZM50.5171 230.751V230.752C50.6699 230.795 50.8234 230.882 51.0171 231.038C51.1146 231.116 51.2142 231.204 51.3286 231.307C51.4385 231.407 51.5661 231.524 51.6987 231.637L52.1685 232.04L52.6528 231.654C52.9879 231.387 53.1711 231.153 53.2944 230.981C53.3004 230.999 53.3079 231.018 53.314 231.037C53.3571 231.172 53.4162 231.368 53.4839 231.525C53.5356 231.645 53.6866 231.985 54.0522 232.14C54.4174 232.297 54.7681 232.204 54.9478 232.144C55.1402 232.08 55.3545 231.975 55.4946 231.911C55.8512 231.746 56.0407 231.695 56.1831 231.72V231.719C56.1857 231.72 56.1883 231.721 56.1909 231.721L53.8853 233.345L53.5669 233.57V233.793C53.56 233.793 53.5529 233.792 53.5464 233.793C53.3659 233.808 53.216 233.873 53.1187 233.924C53.0135 233.98 52.9125 234.053 52.8257 234.135C52.8096 234.151 52.79 234.169 52.769 234.192L52.7661 234.189L52.4106 233.741L52.0093 233.235C51.9898 233.12 51.946 232.973 51.8452 232.831H51.8472L50.6646 231.151C50.6188 231.045 50.5555 230.905 50.478 230.74L50.5171 230.751Z" fill="white" stroke="black" stroke-width="1.5"/>
<path d="M64.7871 163.831C64.8416 163.936 64.9124 164.037 64.9932 164.125C65.0679 164.206 65.1898 164.317 65.3574 164.391C65.3659 164.395 65.3756 164.396 65.3848 164.4L65.3193 164.612L65.5371 164.916L67.1787 167.206H67.1777L67.1748 167.205L67.1211 167.193C66.9928 167.154 66.8392 167.041 66.5918 166.801C66.4807 166.694 66.3134 166.523 66.1523 166.399C65.9998 166.281 65.6999 166.078 65.3037 166.103H65.2998C64.9054 166.13 64.6515 166.398 64.5605 166.497C64.4441 166.623 64.3233 166.79 64.2383 166.903C64.2212 166.925 64.2031 166.947 64.1865 166.968C64.127 166.766 64.031 166.486 63.8057 166.126L63.4756 165.599L62.8955 165.827C62.5178 165.975 62.3397 166.068 62.0576 166.167C61.8221 166.251 61.6487 166.282 61.4951 166.273L61.4551 166.271C61.5804 166.143 61.6841 166.032 61.7617 165.948L63.4365 164.747L63.4385 164.746C63.5823 164.642 63.671 164.512 63.7266 164.409L64.2676 164.068L64.75 163.762L64.7529 163.759C64.7651 163.787 64.777 163.811 64.7871 163.831ZM65.291 162.309L65.2207 162.364C65.113 162.444 65.0137 162.544 64.9307 162.652L64.6084 162.212L65.0137 161.925L65.291 162.309Z" fill="white" stroke="black" stroke-width="1.5"/>
<path d="M92.6396 203.491L92.8643 203.809H93.0869C93.0873 203.816 93.0864 203.823 93.0869 203.829C93.1023 204.01 93.1669 204.161 93.2188 204.258C93.2748 204.363 93.3476 204.464 93.4297 204.551C93.4448 204.567 93.4639 204.586 93.4863 204.607L93.4834 204.61L93.0352 204.965L92.5293 205.366C92.4489 205.38 92.3523 205.405 92.2529 205.453L92.125 205.529L90.4492 206.708C90.3432 206.754 90.2024 206.818 90.0352 206.897L90.0459 206.859C90.0893 206.706 90.177 206.553 90.332 206.359C90.4102 206.262 90.4982 206.162 90.6016 206.048C90.7009 205.938 90.8182 205.81 90.9316 205.678L91.334 205.207L90.9482 204.724C90.6812 204.388 90.4475 204.204 90.2754 204.08C90.2936 204.074 90.3123 204.069 90.3311 204.063C90.4658 204.019 90.6627 203.96 90.8193 203.893C90.938 203.841 91.2736 203.691 91.4307 203.331L91.4316 203.332C91.4322 203.331 91.432 203.329 91.4326 203.327C91.4332 203.326 91.435 203.325 91.4355 203.323L91.4346 203.322C91.5905 202.958 91.498 202.608 91.4385 202.429C91.3746 202.236 91.2697 202.022 91.2051 201.882C91.0407 201.525 90.9885 201.335 91.0137 201.193C91.0141 201.19 91.0142 201.187 91.0146 201.185L92.6396 203.491ZM95.3018 204.966L94.8965 205.253L94.5869 204.8C94.718 204.757 94.8462 204.696 94.957 204.623L94.958 204.624L95.0303 204.576L95.3018 204.966Z" fill="white" stroke="black" stroke-width="1.5"/>
<path d="M28.4463 220.06C28.4019 220.147 28.3643 220.241 28.3369 220.337L28.3096 220.451L28.293 220.531L27.8252 220.448L27.9082 219.958L28.4463 220.06ZM30.21 215.414C30.285 215.548 30.3307 215.716 30.3574 215.964C30.3709 216.089 30.3782 216.223 30.3857 216.377C30.393 216.526 30.4005 216.699 30.4141 216.873L30.4619 217.491L31.0791 217.56C31.4962 217.606 31.7868 217.573 31.9951 217.54C31.9863 217.557 31.9789 217.575 31.9697 217.593C31.9049 217.719 31.8072 217.9 31.7441 218.059C31.6951 218.183 31.5643 218.526 31.707 218.892L31.708 218.895C31.8555 219.267 32.172 219.45 32.3428 219.536C32.5242 219.626 32.7506 219.703 32.8955 219.756C33.2619 219.891 33.4325 219.989 33.5166 220.107L30.75 219.627L30.3662 219.561L30.2207 219.706C30.2135 219.699 30.2072 219.692 30.2002 219.686C30.0578 219.566 29.9016 219.506 29.7959 219.475C29.6811 219.441 29.5596 219.423 29.4434 219.42C29.4209 219.42 29.3932 219.419 29.3623 219.42L29.3633 219.414L29.4277 218.845L29.4961 218.229C29.5654 218.134 29.6439 217.998 29.6758 217.823L29.6768 217.816L30.0273 215.789C30.0688 215.683 30.1229 215.54 30.1846 215.369L30.21 215.414Z" fill="white" stroke="black" stroke-width="1.5"/>
<path d="M79.731 228.638C79.8522 228.7 79.9862 228.748 80.1216 228.774V228.775L80.2017 228.791L80.1187 229.259L79.6294 229.176L79.731 228.638ZM79.2983 226.335L79.2329 226.718L79.3765 226.862C79.3696 226.87 79.3631 226.877 79.3569 226.885C79.2367 227.027 79.177 227.183 79.146 227.289C79.1123 227.404 79.0939 227.525 79.0913 227.642C79.0908 227.664 79.09 227.691 79.0913 227.722H79.0845L78.5161 227.657L77.8999 227.588C77.8048 227.519 77.6683 227.441 77.4937 227.409L77.4868 227.408L75.4575 227.056C75.3517 227.014 75.2093 226.961 75.0386 226.899L75.0825 226.874L75.0835 226.875C75.2176 226.8 75.3865 226.754 75.6353 226.728C75.7602 226.714 75.8938 226.706 76.0483 226.698C76.1968 226.691 76.3697 226.684 76.5435 226.671L77.1616 226.622L77.231 226.006C77.2774 225.588 77.2442 225.297 77.2104 225.089C77.228 225.098 77.2462 225.106 77.2642 225.115C77.39 225.18 77.571 225.278 77.73 225.341C77.8537 225.39 78.1973 225.521 78.563 225.378L78.5659 225.377C78.9379 225.229 79.1212 224.913 79.2065 224.742C79.2972 224.561 79.3739 224.334 79.4272 224.189C79.5619 223.823 79.6587 223.651 79.7769 223.567L79.2983 226.335Z" fill="white" stroke="black" stroke-width="1.5"/>
<path d="M37.9575 170.183C38.0672 170.218 38.1859 170.24 38.3013 170.246C38.4072 170.252 38.5671 170.249 38.7349 170.191C38.7517 170.185 38.769 170.174 38.7886 170.166L38.895 170.365L39.2603 170.426L42.0376 170.887C42.0365 170.888 42.0358 170.889 42.0347 170.89C41.9169 170.974 41.7243 171.011 41.3325 171.019C41.1778 171.022 40.939 171.02 40.7378 171.046C40.5475 171.071 40.1945 171.138 39.9321 171.432L39.9272 171.437C39.665 171.735 39.6758 172.107 39.6812 172.239C39.6881 172.411 39.721 172.614 39.7407 172.754C39.7427 172.768 39.7438 172.782 39.7456 172.795C39.561 172.696 39.2991 172.572 38.895 172.48L38.2886 172.341L38.0405 172.912C37.8799 173.282 37.8184 173.478 37.6909 173.744C37.5841 173.967 37.4833 174.114 37.3638 174.22L37.3296 174.249C37.3276 174.055 37.3241 173.894 37.3198 173.778L37.6499 171.769L37.6489 171.768C37.6762 171.604 37.6548 171.458 37.6245 171.348L37.7642 170.704L37.8823 170.154C37.9115 170.166 37.9368 170.176 37.9575 170.183ZM37.2427 168.746L37.2319 168.835C37.2146 168.964 37.2161 169.103 37.2329 169.238L36.689 169.157L36.771 168.67L37.2427 168.746Z" fill="white" stroke="black" stroke-width="1.5"/>
<path d="M85.7144 178.106L86.0972 178.172L86.2417 178.027C86.2494 178.034 86.2567 178.041 86.2642 178.047C86.4066 178.168 86.5627 178.228 86.6685 178.259C86.7833 178.293 86.9048 178.312 87.021 178.314C87.0433 178.315 87.0705 178.314 87.1011 178.313V178.321L87.0366 178.889L86.9673 179.504C86.8978 179.599 86.8205 179.736 86.7886 179.912L86.7876 179.918L86.4351 181.946C86.3937 182.051 86.3401 182.193 86.2788 182.364L86.2534 182.32C86.1786 182.186 86.1336 182.017 86.1069 181.769C86.0935 181.644 86.0851 181.511 86.0776 181.356C86.0704 181.208 86.0638 181.035 86.0503 180.862L86.0015 180.243L85.3853 180.174L85.1831 180.157C84.8705 180.139 84.6404 180.166 84.4673 180.194C84.4762 180.176 84.4853 180.158 84.4946 180.14C84.5595 180.014 84.6571 179.833 84.7202 179.674C84.7693 179.551 84.9 179.208 84.7573 178.842L84.7563 178.839L84.6938 178.708C84.5322 178.422 84.271 178.274 84.1216 178.199C83.9401 178.108 83.7138 178.03 83.5688 177.977C83.2018 177.842 83.0306 177.745 82.9468 177.627L85.7144 178.106ZM88.6382 177.286L88.5552 177.774L88.0161 177.673C88.0805 177.547 88.1311 177.407 88.1567 177.266L88.1704 177.203L88.6382 177.286Z" fill="white" stroke="black" stroke-width="1.5"/>
<path d="M20.8896 95.1959L21.458 95.2604L22.0723 95.3287C22.1675 95.3983 22.3048 95.4765 22.4805 95.5084L22.4863 95.5094L24.5127 95.86C24.6184 95.9014 24.7611 95.9555 24.9326 96.0172L24.8887 96.0426C24.7547 96.1175 24.5861 96.1634 24.3379 96.1901C24.213 96.2035 24.0793 96.2109 23.9248 96.2184C23.7765 96.2256 23.6041 96.2332 23.4307 96.2467L22.8115 96.2946L22.7432 96.9117C22.6968 97.3294 22.729 97.6203 22.7627 97.8287C22.7451 97.8198 22.727 97.8116 22.709 97.8024C22.583 97.7375 22.4022 97.6399 22.2432 97.5768C22.1193 97.5277 21.7767 97.397 21.4111 97.5397L21.4072 97.5406C21.0354 97.6881 20.8529 98.0046 20.7676 98.1754C20.6769 98.3569 20.5992 98.5832 20.5459 98.7281C20.4111 99.0947 20.3137 99.2653 20.1953 99.3492L20.6748 96.5826L20.7412 96.1989L20.5957 96.0543C20.6025 96.0468 20.61 96.0402 20.6162 96.0328C20.7365 95.8904 20.7971 95.7343 20.8281 95.6285C20.8618 95.5137 20.8802 95.3922 20.8828 95.276C20.8833 95.2535 20.8832 95.2259 20.8818 95.1949L20.8896 95.1959ZM20.3428 93.7408L20.2422 94.2799C20.1209 94.2181 19.987 94.1686 19.8516 94.1422H19.8525L19.7715 94.1256L19.8545 93.6578L20.3428 93.7408Z" fill="white" stroke="black" stroke-width="1.5"/>
<path d="M11.2949 145.336C11.2505 145.423 11.2129 145.517 11.1855 145.614L11.1582 145.727L11.1416 145.807L10.6738 145.724L10.7568 145.235L11.2949 145.336ZM13.0586 140.69C13.1336 140.824 13.1794 140.992 13.2061 141.24C13.2195 141.365 13.2269 141.499 13.2344 141.654C13.2416 141.802 13.2492 141.975 13.2627 142.149L13.3105 142.767L13.9277 142.836C14.3448 142.883 14.6354 142.849 14.8438 142.816C14.8349 142.833 14.8275 142.852 14.8184 142.869C14.7536 142.995 14.6558 143.176 14.5928 143.335C14.5437 143.459 14.4129 143.802 14.5557 144.168L14.5566 144.171C14.7042 144.543 15.0207 144.726 15.1914 144.812C15.3728 144.902 15.5992 144.979 15.7441 145.032C16.1105 145.167 16.2812 145.265 16.3652 145.383L13.5986 144.904L13.2148 144.838L13.0703 144.982C13.0629 144.975 13.056 144.968 13.0488 144.962C12.9064 144.842 12.7503 144.782 12.6445 144.751C12.5297 144.718 12.4082 144.699 12.292 144.697C12.2695 144.696 12.2419 144.695 12.2109 144.697L12.2119 144.69L12.2764 144.121L12.3447 143.505C12.414 143.41 12.4925 143.274 12.5244 143.099L12.5254 143.092L12.876 141.065C12.9175 140.959 12.9715 140.816 13.0332 140.645L13.0586 140.69Z" fill="white" stroke="black" stroke-width="1.5"/>
<path d="M68.8481 103.139V103.14H68.8491L68.8608 103.141V103.141C69.0249 103.168 69.1705 103.146 69.2808 103.116L69.9253 103.256L70.4741 103.374C70.4627 103.403 70.4534 103.428 70.4468 103.449C70.4116 103.559 70.39 103.677 70.3833 103.793C70.3772 103.899 70.38 104.059 70.438 104.226C70.4438 104.243 70.4541 104.261 70.4624 104.28L70.2632 104.387L70.2026 104.752L69.7417 107.529L69.7378 107.523C69.6545 107.405 69.6182 107.213 69.6108 106.824C69.6079 106.669 69.6094 106.431 69.5835 106.229C69.559 106.039 69.4911 105.686 69.1978 105.424L69.1929 105.419C68.8943 105.157 68.523 105.167 68.3901 105.173C68.2188 105.18 68.0153 105.213 67.8755 105.232C67.8614 105.234 67.8473 105.235 67.8335 105.237C67.9327 105.053 68.0579 104.791 68.1499 104.387L68.2886 103.78L67.7173 103.532C67.347 103.371 67.1517 103.31 66.8853 103.182C66.662 103.076 66.515 102.975 66.4087 102.855L66.3794 102.821C66.5736 102.819 66.7343 102.816 66.8501 102.811L68.8481 103.139ZM71.9585 102.263L71.8823 102.734L71.7935 102.724C71.6642 102.706 71.5251 102.708 71.3901 102.724L71.4712 102.181L71.9585 102.263Z" fill="white" stroke="black" stroke-width="1.5"/>
<path d="M62.5508 153.502C62.6769 153.566 62.817 153.617 62.958 153.642V153.641L63.0215 153.654L62.9385 154.123L62.4492 154.04L62.5508 153.502ZM62.1182 151.199L62.0527 151.582L62.1963 151.726C62.1894 151.734 62.183 151.741 62.1768 151.749C62.0565 151.891 61.9968 152.047 61.9658 152.153C61.9322 152.268 61.9137 152.389 61.9111 152.506C61.9106 152.528 61.9098 152.555 61.9111 152.586H61.9043L61.3359 152.521L60.7197 152.452C60.6246 152.383 60.4881 152.305 60.3135 152.273L60.3066 152.272L58.2773 151.92C58.1717 151.878 58.0297 151.825 57.8594 151.763L57.9043 151.739L57.9033 151.738C58.0374 151.663 58.2066 151.618 58.4551 151.592C58.5801 151.578 58.7136 151.57 58.8682 151.562C59.0166 151.555 59.1895 151.548 59.3633 151.535L59.9814 151.486L60.0508 150.87C60.0972 150.452 60.064 150.161 60.0303 149.953C60.0478 149.962 60.066 149.97 60.084 149.979C60.2099 150.044 60.3908 150.142 60.5498 150.205C60.6735 150.254 61.0171 150.385 61.3828 150.242L61.3857 150.241C61.7577 150.093 61.9411 149.777 62.0264 149.606C62.117 149.425 62.1938 149.198 62.2471 149.053C62.3817 148.687 62.4785 148.516 62.5967 148.431L62.1182 151.199Z" fill="white" stroke="black" stroke-width="1.5"/>
<path d="M9.54443 115.476C9.50105 115.629 9.41357 115.782 9.2583 115.976C9.18013 116.073 9.09212 116.173 8.98877 116.287C8.88943 116.397 8.77209 116.525 8.65869 116.658L8.25732 117.127L8.64209 117.612C8.90844 117.946 9.14195 118.13 9.31396 118.253C9.29593 118.259 9.27784 118.267 9.25928 118.273C9.1245 118.316 8.92759 118.375 8.771 118.443C8.65128 118.495 8.31026 118.645 8.15479 119.011C7.99822 119.376 8.09224 119.727 8.15186 119.907C8.21577 120.099 8.32067 120.313 8.38525 120.453C8.54775 120.806 8.59986 120.995 8.57666 121.137C8.57588 121.141 8.5745 121.146 8.57373 121.15L6.95068 118.844L6.72607 118.526H6.50342C6.503 118.519 6.50397 118.512 6.50342 118.505C6.48797 118.325 6.42339 118.175 6.37158 118.078C6.31566 117.973 6.24355 117.871 6.16162 117.785C6.14624 117.768 6.12596 117.749 6.10303 117.728L6.10693 117.725L6.55518 117.37L7.06006 116.968C7.1749 116.949 7.32221 116.906 7.46436 116.805L7.46533 116.806L9.14404 115.623C9.24979 115.578 9.38966 115.514 9.55518 115.437L9.54443 115.476ZM5.00342 117.534C4.91007 117.564 4.81811 117.604 4.73291 117.651L4.63232 117.711L4.55908 117.758L4.2876 117.369L4.69287 117.08L5.00342 117.534Z" fill="white" stroke="black" stroke-width="1.5"/>
<path d="M35.2241 159.851C35.2673 159.982 35.3286 160.11 35.4019 160.221V160.222L35.4487 160.294L35.0591 160.566L34.772 160.162L35.2241 159.851ZM33.1665 155.309V155.31C33.3193 155.353 33.4728 155.441 33.6665 155.596C33.764 155.674 33.8637 155.762 33.978 155.866C34.088 155.965 34.2155 156.082 34.3481 156.196L34.8179 156.598L35.3022 156.212C35.6373 155.946 35.8205 155.712 35.9438 155.54C35.9499 155.558 35.9573 155.576 35.9634 155.595C36.0066 155.73 36.0656 155.927 36.1333 156.083C36.185 156.203 36.336 156.543 36.7017 156.699C37.0668 156.856 37.4175 156.762 37.5972 156.703C37.7896 156.639 38.0039 156.534 38.144 156.469C38.5006 156.305 38.6901 156.254 38.8325 156.279V156.278C38.8352 156.278 38.8377 156.279 38.8403 156.28L36.5347 157.904L36.2163 158.128V158.351C36.2094 158.351 36.2023 158.351 36.1958 158.351C36.0154 158.367 35.8654 158.431 35.7681 158.483C35.6629 158.539 35.5619 158.612 35.4751 158.694C35.459 158.709 35.4395 158.728 35.4185 158.75L35.4155 158.748L35.0601 158.299L34.6587 157.793C34.6392 157.678 34.5954 157.531 34.4946 157.389H34.4966L33.314 155.709C33.2682 155.604 33.2049 155.464 33.1274 155.298L33.1665 155.309Z" fill="white" stroke="black" stroke-width="1.5"/>
<path d="M47.0249 88.9646C47.0794 89.0696 47.1501 89.1708 47.231 89.2585C47.3056 89.3396 47.4276 89.4508 47.5952 89.5251C47.6036 89.5289 47.6134 89.5302 47.6226 89.5339L47.5571 89.7458L47.7749 90.0496L49.4165 92.3396H49.4155L49.4126 92.3386L49.3589 92.3269C49.2306 92.2875 49.077 92.1746 48.8296 91.9353C48.7185 91.8279 48.5512 91.6574 48.3901 91.533C48.2376 91.4151 47.9377 91.2119 47.5415 91.2371H47.5376C47.1432 91.2641 46.8892 91.5321 46.7983 91.6306C46.6819 91.7568 46.5611 91.9239 46.4761 92.0369C46.459 92.0595 46.4409 92.0807 46.4243 92.1023C46.3648 91.9 46.2688 91.6204 46.0435 91.2605L45.7134 90.7332L45.1333 90.9607C44.7556 91.1091 44.5775 91.2018 44.2954 91.3015C44.0599 91.3847 43.8865 91.4162 43.7329 91.407L43.6929 91.405C43.8182 91.2766 43.9219 91.1663 43.9995 91.0818L45.6743 89.8806L45.6763 89.8796C45.8201 89.7758 45.9087 89.6462 45.9644 89.5427L46.5054 89.2019L46.9878 88.8962L46.9907 88.8933C47.0029 88.921 47.0148 88.9451 47.0249 88.9646ZM47.5288 87.4431L47.4585 87.4978C47.3508 87.5785 47.2515 87.6782 47.1685 87.7859L46.8462 87.3464L47.2515 87.0593L47.5288 87.4431Z" fill="white" stroke="black" stroke-width="1.5"/>
<path d="M75.1611 128.341L75.3857 128.659H75.6084C75.6088 128.666 75.6078 128.672 75.6084 128.679C75.6238 128.86 75.6884 129.01 75.7402 129.108C75.7962 129.213 75.8691 129.314 75.9512 129.401C75.9663 129.417 75.9854 129.436 76.0078 129.456L76.0049 129.46L75.5566 129.815L75.0508 130.216C74.9704 130.23 74.8737 130.255 74.7744 130.303L74.6465 130.379L72.9707 131.558C72.8647 131.604 72.7239 131.668 72.5566 131.746L72.5674 131.708C72.6108 131.556 72.6984 131.403 72.8535 131.209C72.9317 131.112 73.0197 131.012 73.123 130.898C73.2224 130.788 73.3397 130.66 73.4531 130.528L73.8555 130.057L73.4697 129.574C73.2026 129.238 72.969 129.053 72.7969 128.93C72.8151 128.924 72.8338 128.918 72.8525 128.912C72.9873 128.869 73.1842 128.81 73.3408 128.743C73.4595 128.691 73.7951 128.541 73.9521 128.181L73.9531 128.182C73.9537 128.181 73.9535 128.178 73.9541 128.177C73.9547 128.176 73.9565 128.175 73.957 128.173L73.9561 128.172C74.112 127.808 74.0195 127.458 73.96 127.279C73.8961 127.086 73.7912 126.872 73.7266 126.732C73.5622 126.375 73.5099 126.185 73.5352 126.042C73.5356 126.04 73.5357 126.037 73.5361 126.035L75.1611 128.341ZM77.8232 129.816L77.4189 130.103L77.1084 129.65C77.2395 129.607 77.3677 129.546 77.4785 129.473L77.4795 129.474L77.5518 129.426L77.8232 129.816Z" fill="white" stroke="black" stroke-width="1.5"/>
<path d="M87.9414 23.8734L88.2959 24.3217L88.6973 24.8265C88.7169 24.9433 88.7611 25.0943 88.8652 25.2386L90.0391 26.9066C90.0848 27.0126 90.1492 27.1534 90.2275 27.3207L90.1865 27.3099C90.0349 27.2662 89.8827 27.1789 89.6904 27.0248C89.5929 26.9466 89.4933 26.8586 89.3789 26.7552C89.269 26.6559 89.1414 26.5386 89.0088 26.4252L88.5381 26.0238L88.0547 26.4086C87.7196 26.6753 87.5345 26.9084 87.4111 27.0804C87.4053 27.0626 87.3995 27.0442 87.3936 27.0258C87.3504 26.891 87.2913 26.6941 87.2236 26.5375C87.1723 26.4187 87.0226 26.0822 86.6621 25.9252H86.6631C86.6616 25.9245 86.6597 25.9239 86.6582 25.9232C86.657 25.9227 86.6555 25.9218 86.6543 25.9213H86.6533C86.2889 25.7655 85.9392 25.8588 85.7598 25.9183C85.5674 25.9822 85.3531 26.0871 85.2129 26.1517C84.8563 26.3161 84.6659 26.3674 84.5234 26.3422C84.5209 26.3417 84.5182 26.3417 84.5156 26.3412L86.8223 24.7172L87.1396 24.4926V24.2689C87.1466 24.2685 87.1536 24.2705 87.1602 24.2699C87.341 24.2545 87.4915 24.1899 87.5889 24.1381C87.6939 24.0821 87.7951 24.0101 87.8818 23.9281C87.898 23.9128 87.9164 23.8923 87.9375 23.8695L87.9414 23.8734ZM87.5898 23.0297L87.584 23.0238L87.5791 23.0179C87.5824 23.022 87.5866 23.0254 87.5898 23.0297ZM88.585 22.4594L88.1318 22.7699C88.0885 22.6385 88.0276 22.5099 87.9541 22.3988H87.9551L87.9072 22.3256L88.2969 22.0541L88.585 22.4594Z" fill="white" stroke="black" stroke-width="1.5"/>
<path d="M50.2563 50.5072C50.213 50.66 50.1255 50.8135 49.9702 51.0072C49.892 51.1047 49.804 51.2044 49.7007 51.3187C49.6013 51.4287 49.484 51.5562 49.3706 51.6888L48.9692 52.1586L49.354 52.6429C49.6204 52.9776 49.8539 53.1612 50.0259 53.2845C50.0078 53.2905 49.9898 53.2981 49.9712 53.3041C49.8364 53.3473 49.6395 53.4063 49.4829 53.474C49.3632 53.5258 49.0222 53.6765 48.8667 54.0424C48.7101 54.4074 48.8042 54.7583 48.8638 54.9379C48.9277 55.1303 49.0326 55.3446 49.0972 55.4847C49.2597 55.8373 49.3118 56.0264 49.2886 56.1683C49.2878 56.1726 49.2864 56.1768 49.2856 56.181L47.6626 53.8754L47.438 53.557H47.2153C47.2149 53.5501 47.2159 53.543 47.2153 53.5365C47.1999 53.356 47.1353 53.2061 47.0835 53.1088C47.0276 53.0038 46.9555 52.9025 46.8735 52.8158C46.8581 52.7995 46.8379 52.7804 46.8149 52.7592L46.8188 52.7562L47.2671 52.4008L47.772 51.9994C47.8868 51.98 48.0341 51.9368 48.1763 51.8363L48.1772 51.8373L49.856 50.6547C49.9617 50.609 50.1016 50.5456 50.2671 50.4681L50.2563 50.5072ZM45.7153 52.5648C45.622 52.5955 45.53 52.6352 45.4448 52.682L45.3442 52.7426L45.271 52.7894L44.9995 52.3998L45.4048 52.1117L45.7153 52.5648Z" fill="white" stroke="black" stroke-width="1.5"/>
<path d="M114.729 61.4452C114.858 61.5708 114.968 61.6751 115.052 61.7528L116.253 63.4266L116.255 63.4286C116.359 63.5719 116.487 63.661 116.59 63.7167L116.932 64.2577L117.238 64.7401L117.24 64.743C117.213 64.755 117.19 64.7673 117.17 64.7772C117.065 64.8316 116.964 64.9025 116.876 64.9833C116.795 65.058 116.683 65.1799 116.609 65.3475C116.605 65.3561 116.603 65.3656 116.599 65.3749L116.389 65.3094L116.085 65.5272L113.794 67.1688L113.795 67.1678V67.1649C113.818 67.0249 113.926 66.8645 114.2 66.5819C114.307 66.4709 114.477 66.3033 114.601 66.1425C114.719 65.9899 114.923 65.69 114.898 65.2938L114.897 65.2899C114.87 64.8954 114.602 64.6415 114.503 64.5507C114.377 64.4343 114.211 64.3133 114.098 64.2284C114.075 64.211 114.053 64.1935 114.031 64.1766C114.233 64.1172 114.513 64.0215 114.874 63.7958L115.402 63.4657L115.174 62.8856C115.026 62.5078 114.933 62.3299 114.833 62.0477C114.75 61.8128 114.718 61.6405 114.727 61.4872L114.729 61.4452ZM119.075 65.0038L118.691 65.2802L118.636 65.2108C118.555 65.1029 118.455 65.0039 118.347 64.9208L118.788 64.5985L119.075 65.0038Z" fill="white" stroke="black" stroke-width="1.5"/>
<path d="M76.2065 94.5769C76.2497 94.708 76.311 94.8361 76.3843 94.947V94.948L76.4312 95.0203L76.0415 95.2917L75.7544 94.8875L76.2065 94.5769ZM74.1489 90.0349V90.0359C74.3017 90.0793 74.4552 90.1668 74.6489 90.322C74.7465 90.4002 74.8461 90.4882 74.9604 90.5916C75.0704 90.6909 75.1979 90.8082 75.3306 90.9216L75.8003 91.324L76.2847 90.9382C76.6198 90.6715 76.8029 90.4375 76.9263 90.2654C76.9323 90.2837 76.9397 90.3022 76.9458 90.321C76.989 90.4558 77.048 90.6527 77.1157 90.8093C77.1674 90.929 77.3184 91.269 77.6841 91.4246C78.0493 91.5814 78.4 91.4881 78.5796 91.4285C78.772 91.3646 78.9864 91.2596 79.1265 91.1951C79.483 91.0307 79.6725 90.9794 79.8149 91.0046V91.0037C79.8176 91.0041 79.8201 91.0051 79.8228 91.0056L77.5171 92.6296L77.1987 92.8542V93.0769C77.1918 93.0773 77.1847 93.0763 77.1782 93.0769C76.9978 93.0923 76.8478 93.1569 76.7505 93.2087C76.6454 93.2647 76.5443 93.3376 76.4575 93.4197C76.4414 93.4349 76.4219 93.4537 76.4009 93.4763L76.3979 93.4734L76.0425 93.0251L75.6411 92.5193C75.6216 92.4043 75.5778 92.2571 75.4771 92.115H75.479L74.2964 90.4353C74.2507 90.3295 74.1873 90.1896 74.1099 90.0242L74.1489 90.0349Z" fill="white" stroke="black" stroke-width="1.5"/>
<path d="M61.5947 29.3533L62.1631 29.4177L62.7773 29.4861C62.8726 29.5556 63.0099 29.6338 63.1855 29.6658L63.1914 29.6667L65.2178 30.0173C65.3235 30.0588 65.4662 30.1128 65.6377 30.1746L65.5938 30.2C65.4598 30.2749 65.2912 30.3207 65.043 30.3474C64.918 30.3608 64.7844 30.3682 64.6299 30.3757C64.4816 30.3829 64.3092 30.3906 64.1357 30.4041L63.5166 30.4519L63.4482 31.0691C63.4018 31.4868 63.434 31.7777 63.4678 31.9861C63.4502 31.9772 63.432 31.969 63.4141 31.9597C63.2881 31.8949 63.1073 31.7972 62.9482 31.7341C62.8244 31.685 62.4818 31.5544 62.1162 31.697L62.1123 31.698C61.7405 31.8455 61.558 32.162 61.4727 32.3328C61.382 32.5142 61.3043 32.7405 61.251 32.8855C61.1161 33.252 61.0187 33.4226 60.9004 33.5066L61.3799 30.74L61.4463 30.3562L61.3008 30.2117C61.3076 30.2041 61.3151 30.1975 61.3213 30.1902C61.4416 30.0477 61.5022 29.8916 61.5332 29.7859C61.5669 29.6711 61.5853 29.5496 61.5879 29.4333C61.5884 29.4108 61.5882 29.3832 61.5869 29.3523L61.5947 29.3533ZM61.0479 27.8982L60.9473 28.4373C60.826 28.3754 60.6921 28.3259 60.5566 28.2996H60.5576L60.4766 28.283L60.5596 27.8152L61.0479 27.8982Z" fill="white" stroke="black" stroke-width="1.5"/>
<path d="M52.3623 79.7207C52.3179 79.8079 52.2803 79.9018 52.2529 79.998L52.2256 80.1113L52.209 80.1914L51.7412 80.1084L51.8242 79.6191L52.3623 79.7207ZM54.126 75.0742C54.201 75.2082 54.2467 75.3767 54.2734 75.625C54.2869 75.75 54.2942 75.8836 54.3018 76.0381C54.309 76.1866 54.3166 76.3594 54.3301 76.5332L54.3779 77.1514L54.9951 77.2207C55.4122 77.267 55.7028 77.2339 55.9111 77.2002C55.9023 77.2176 55.8949 77.2361 55.8857 77.2539C55.8209 77.3798 55.7232 77.5607 55.6602 77.7197C55.6111 77.8434 55.4803 78.187 55.623 78.5527L55.624 78.5557C55.7715 78.9277 56.0881 79.111 56.2588 79.1963C56.4402 79.2869 56.6666 79.3637 56.8115 79.417C57.1772 79.5515 57.3484 79.6487 57.4326 79.7666L54.666 79.2881L54.2822 79.2227L54.1377 79.3662C54.1303 79.3595 54.1234 79.3527 54.1162 79.3467C53.9738 79.2264 53.8177 79.1668 53.7119 79.1357C53.5971 79.1021 53.4756 79.0836 53.3594 79.0811C53.3369 79.0806 53.3092 79.0797 53.2783 79.0811L53.2793 79.0742L53.3438 78.5059L53.4121 77.8896C53.4814 77.7945 53.5599 77.6583 53.5918 77.4834L53.5928 77.4766L53.9434 75.4492C53.9848 75.3434 54.0389 75.2007 54.1006 75.0293L54.126 75.0742Z" fill="white" stroke="black" stroke-width="1.5"/>
<path d="M109.227 37.637V37.6379H109.228L109.24 37.6399V37.6389C109.404 37.6664 109.549 37.6447 109.66 37.6145L110.304 37.7542L110.853 37.8723C110.842 37.9014 110.832 37.9269 110.826 37.9475C110.79 38.0572 110.769 38.1758 110.762 38.2913C110.756 38.3971 110.759 38.5572 110.817 38.7249C110.823 38.7416 110.833 38.7591 110.841 38.7786L110.642 38.885L110.582 39.2502L110.121 42.0276L110.117 42.0217C110.033 41.9037 109.997 41.7112 109.99 41.3225C109.987 41.1678 109.988 40.929 109.962 40.7278C109.938 40.5375 109.87 40.1845 109.577 39.9221L109.572 39.9172C109.273 39.655 108.902 39.6658 108.769 39.6711C108.598 39.6781 108.394 39.711 108.254 39.7307C108.24 39.7327 108.226 39.7337 108.212 39.7356C108.312 39.551 108.437 39.2894 108.529 38.885L108.667 38.2786L108.096 38.0305C107.726 37.8699 107.531 37.8084 107.264 37.6809C107.041 37.5741 106.894 37.4734 106.788 37.3538L106.758 37.3196C106.953 37.3176 107.113 37.3141 107.229 37.3098L109.227 37.637ZM112.337 36.761L112.261 37.2327L112.172 37.2219C112.043 37.2047 111.904 37.2061 111.769 37.2229L111.85 36.679L112.337 36.761Z" fill="white" stroke="black" stroke-width="1.5"/>
<path d="M103.334 88.0072C103.46 88.0715 103.6 88.1222 103.741 88.1478V88.1469L103.805 88.1595L103.722 88.6283L103.232 88.5453L103.334 88.0072ZM102.901 85.7045L102.836 86.0873L102.979 86.2318C102.973 86.2394 102.966 86.2469 102.96 86.2543C102.84 86.3967 102.78 86.5528 102.749 86.6586C102.715 86.7734 102.697 86.8949 102.694 87.0111C102.694 87.0334 102.693 87.0606 102.694 87.0912H102.688L102.119 87.0267L101.503 86.9574C101.408 86.8882 101.271 86.8105 101.097 86.7787L101.09 86.7777L99.0605 86.4252C98.9549 86.3838 98.8129 86.3302 98.6426 86.2689L98.6875 86.2445L98.6865 86.2435C98.8206 86.1684 98.9898 86.1238 99.2383 86.097C99.3633 86.0836 99.4968 86.0753 99.6514 86.0677C99.7998 86.0605 99.9727 86.0539 100.146 86.0404L100.766 85.9916L100.834 85.3754C100.88 84.9577 100.847 84.6668 100.813 84.4584C100.831 84.4673 100.849 84.4755 100.867 84.4847C100.993 84.5495 101.174 84.6473 101.333 84.7103C101.457 84.7594 101.8 84.8902 102.166 84.7474L102.169 84.7465C102.541 84.599 102.724 84.2824 102.81 84.1117C102.9 83.9303 102.977 83.7039 103.03 83.559C103.165 83.1928 103.262 83.021 103.38 82.9369L102.901 85.7045Z" fill="white" stroke="black" stroke-width="1.5"/>
<path d="M184.425 20.6653L184.808 20.7317L184.953 20.5862C184.96 20.5932 184.968 20.6003 184.975 20.6067C185.118 20.727 185.274 20.7876 185.379 20.8186C185.494 20.8523 185.616 20.8707 185.732 20.8733C185.754 20.8738 185.781 20.8736 185.812 20.8723V20.8801L185.748 21.4485L185.678 22.0627C185.609 22.158 185.531 22.2955 185.5 22.4709L185.499 22.4768L185.146 24.5051C185.105 24.6108 185.051 24.7533 184.99 24.9241L184.964 24.8792C184.89 24.7452 184.845 24.5763 184.818 24.3284C184.804 24.2034 184.796 24.0698 184.789 23.9153C184.781 23.767 184.775 23.5946 184.761 23.4211L184.712 22.802L184.096 22.7336L183.894 22.7161C183.581 22.6978 183.351 22.7251 183.178 22.7532C183.187 22.7355 183.196 22.7176 183.206 22.6995C183.27 22.5735 183.368 22.3927 183.431 22.2336C183.48 22.1098 183.611 21.7672 183.468 21.4016L183.467 21.3977L183.405 21.2668C183.243 20.9816 182.982 20.8327 182.833 20.7581C182.651 20.6674 182.425 20.5897 182.28 20.5364C181.913 20.4014 181.742 20.3043 181.658 20.1858L184.425 20.6653ZM187.349 19.845L187.266 20.3333L186.727 20.2327C186.789 20.1113 186.838 19.9776 186.865 19.842L186.866 19.843L186.881 19.762L187.349 19.845Z" fill="white" stroke="black" stroke-width="1.5"/>
<path d="M136.319 12.202L136.887 12.2665L137.501 12.3348C137.597 12.4044 137.734 12.4826 137.91 12.5145L137.916 12.5155L139.942 12.8661C140.048 12.9075 140.19 12.9616 140.362 13.0233L140.318 13.0487C140.184 13.1236 140.015 13.1695 139.767 13.1962C139.642 13.2096 139.508 13.217 139.354 13.2245C139.206 13.2317 139.033 13.2393 138.86 13.2528L138.241 13.3007L138.172 13.9178C138.126 14.3355 138.158 14.6264 138.192 14.8348C138.174 14.826 138.156 14.8177 138.138 14.8085C138.012 14.7436 137.831 14.646 137.672 14.5829C137.549 14.5338 137.206 14.4031 136.84 14.5458L136.836 14.5468C136.465 14.6942 136.282 15.0107 136.197 15.1815C136.106 15.363 136.028 15.5893 135.975 15.7343C135.84 16.1008 135.743 16.2714 135.625 16.3553L136.104 13.5887L136.17 13.205L136.025 13.0604C136.032 13.0529 136.039 13.0463 136.045 13.0389C136.166 12.8965 136.226 12.7404 136.257 12.6346C136.291 12.5198 136.309 12.3983 136.312 12.2821C136.313 12.2596 136.312 12.232 136.311 12.201L136.319 12.202ZM135.772 10.7469L135.671 11.286C135.55 11.2242 135.416 11.1747 135.281 11.1483H135.282L135.201 11.1317L135.284 10.6639L135.772 10.7469Z" fill="white" stroke="black" stroke-width="1.5"/>
<path d="M178.826 71.4617L178.744 71.949L178.272 71.8728L178.284 71.7878C178.301 71.6574 178.3 71.517 178.283 71.3806L178.826 71.4617ZM178.185 66.3699C178.187 66.563 178.191 66.723 178.195 66.8386L177.866 68.8513C177.838 69.0151 177.86 69.161 177.89 69.2712L177.752 69.9158L177.633 70.4646C177.604 70.4532 177.579 70.4439 177.558 70.4373C177.449 70.4021 177.331 70.3805 177.215 70.3738C177.109 70.3677 176.949 70.3704 176.781 70.4285C176.764 70.4343 176.747 70.4446 176.727 70.4529L176.621 70.2537L176.256 70.1931L173.477 69.7322C173.478 69.7313 173.48 69.7311 173.481 69.7302C173.599 69.6454 173.792 69.6087 174.184 69.6013C174.339 69.5984 174.577 69.5999 174.778 69.574C174.968 69.5494 175.322 69.4819 175.584 69.1882L175.588 69.1833C175.851 68.8848 175.84 68.5135 175.834 68.3806C175.828 68.2093 175.796 68.0058 175.776 67.866C175.774 67.8522 175.772 67.8385 175.77 67.825C175.955 67.9241 176.216 68.0484 176.621 68.1404L177.227 68.2791L177.475 67.7078C177.636 67.3374 177.697 67.1422 177.825 66.8757C177.931 66.6527 178.032 66.5065 178.152 66.4001L178.151 66.3992L178.185 66.3699Z" fill="white" stroke="black" stroke-width="1.5"/>
<path d="M127.505 62.5411C127.46 62.6283 127.423 62.7222 127.396 62.8185L127.368 62.9318L127.352 63.0118L126.884 62.9288L126.967 62.4396L127.505 62.5411ZM129.269 57.8947C129.344 58.0286 129.389 58.1972 129.416 58.4454C129.429 58.5704 129.437 58.704 129.444 58.8585C129.452 59.007 129.459 59.1799 129.473 59.3536L129.521 59.9718L130.138 60.0411C130.555 60.0875 130.845 60.0543 131.054 60.0206C131.045 60.0381 131.038 60.0565 131.028 60.0743C130.964 60.2002 130.866 60.3812 130.803 60.5402C130.754 60.6639 130.623 61.0074 130.766 61.3732L130.767 61.3761C130.914 61.7481 131.231 61.9314 131.401 62.0167C131.583 62.1074 131.809 62.1841 131.954 62.2374C132.32 62.3722 132.491 62.4698 132.575 62.588L129.809 62.1085L129.425 62.0431L129.28 62.1866C129.273 62.18 129.266 62.1732 129.259 62.1671C129.116 62.0468 128.96 61.9872 128.854 61.9562C128.74 61.9225 128.618 61.9041 128.502 61.9015C128.479 61.901 128.452 61.9002 128.421 61.9015L128.422 61.8947L128.486 61.3263L128.555 60.7101C128.624 60.615 128.702 60.4788 128.734 60.3038L128.735 60.297L129.086 58.2697C129.127 58.1638 129.181 58.0212 129.243 57.8497L129.269 57.8947Z" fill="white" stroke="black" stroke-width="1.5"/>
<path d="M163.283 6.0968L163.638 6.54504L164.039 7.04993C164.059 7.16673 164.103 7.31765 164.207 7.46204L165.381 9.13C165.427 9.23596 165.491 9.37677 165.569 9.54407L165.528 9.53333C165.377 9.48961 165.224 9.40224 165.032 9.24817C164.935 9.17 164.835 9.08197 164.721 8.97864C164.611 8.87929 164.483 8.76197 164.351 8.64856L163.88 8.24719L163.396 8.63196C163.061 8.89868 162.876 9.13175 162.753 9.30383C162.747 9.28594 162.741 9.26755 162.735 9.24915C162.692 9.11437 162.633 8.9175 162.565 8.76086C162.514 8.64211 162.364 8.30555 162.004 8.14856H162.005C162.003 8.14792 162.001 8.14724 162 8.14661C161.999 8.1461 161.997 8.14515 161.996 8.14465H161.995C161.631 7.98892 161.281 8.08217 161.102 8.14172C160.909 8.20558 160.695 8.31051 160.555 8.37512C160.198 8.53951 160.008 8.59076 159.865 8.56555C159.863 8.56508 159.86 8.56504 159.857 8.56458L162.164 6.94055L162.481 6.71594V6.49231C162.488 6.49189 162.495 6.49385 162.502 6.49329C162.683 6.47787 162.833 6.41332 162.931 6.36145C163.036 6.30548 163.137 6.2335 163.224 6.15149C163.24 6.13617 163.258 6.11571 163.279 6.0929L163.283 6.0968ZM162.932 5.25305L162.926 5.24719L162.921 5.24133C162.924 5.24543 162.928 5.24882 162.932 5.25305ZM163.926 4.68274L163.474 4.99329C163.43 4.86184 163.369 4.73328 163.296 4.62219H163.297L163.249 4.54895L163.639 4.27747L163.926 4.68274Z" fill="white" stroke="black" stroke-width="1.5"/>
<path d="M125.69 33.1569C125.647 33.3096 125.56 33.4631 125.404 33.6569C125.326 33.7544 125.238 33.854 125.135 33.9684C125.035 34.0783 124.918 34.2059 124.805 34.3385L124.403 34.8082L124.788 35.2926C125.054 35.6272 125.288 35.8108 125.46 35.9342C125.442 35.9401 125.424 35.9478 125.405 35.9537C125.27 35.9969 125.074 36.056 124.917 36.1237C124.797 36.1754 124.456 36.3262 124.301 36.692C124.144 37.0571 124.238 37.408 124.298 37.5875C124.362 37.7799 124.467 37.9943 124.531 38.1344C124.694 38.4869 124.746 38.6761 124.723 38.818C124.722 38.8222 124.72 38.8265 124.72 38.8307L123.097 36.525L122.872 36.2067H122.649C122.649 36.1998 122.65 36.1927 122.649 36.1862C122.634 36.0057 122.569 35.8558 122.518 35.7584C122.462 35.6535 122.39 35.5522 122.308 35.4655C122.292 35.4492 122.272 35.43 122.249 35.4088L122.253 35.4059L122.701 35.0504L123.206 34.649C123.321 34.6297 123.468 34.5864 123.61 34.486L123.611 34.4869L125.29 33.3043C125.396 33.2586 125.536 33.1953 125.701 33.1178L125.69 33.1569ZM121.149 35.2145C121.056 35.2452 120.964 35.2848 120.879 35.3317L120.778 35.3922L120.705 35.4391L120.434 35.0494L120.839 34.7614L121.149 35.2145Z" fill="white" stroke="black" stroke-width="1.5"/>
<path d="M189.595 43.683C189.723 43.8086 189.833 43.9129 189.918 43.9906L191.119 45.6644L191.121 45.6664C191.225 45.8097 191.353 45.8988 191.456 45.9545L191.798 46.4955L192.104 46.9779L192.105 46.9808C192.078 46.9928 192.055 47.0051 192.036 47.015C191.931 47.0694 191.83 47.1403 191.742 47.2211C191.661 47.2957 191.549 47.4177 191.475 47.5853C191.471 47.5939 191.469 47.6034 191.465 47.6127L191.255 47.5472L190.951 47.765L188.66 49.4066L188.661 49.4056V49.4027C188.683 49.2627 188.792 49.1023 189.065 48.8197C189.173 48.7087 189.342 48.5411 189.467 48.3802C189.585 48.2277 189.789 47.9278 189.764 47.5316L189.763 47.5277C189.736 47.1332 189.468 46.8793 189.369 46.7885C189.243 46.6721 189.077 46.5511 188.964 46.4662C188.941 46.4488 188.918 46.4313 188.896 46.4144C189.099 46.355 189.379 46.2593 189.739 46.0336L190.268 45.7035L190.04 45.1234C189.892 44.7455 189.799 44.5677 189.699 44.2855C189.616 44.0506 189.584 43.8783 189.593 43.725L189.595 43.683ZM193.94 47.2416L193.557 47.5179L193.502 47.4486C193.421 47.3407 193.321 47.2417 193.213 47.1586L193.653 46.8363L193.94 47.2416Z" fill="white" stroke="black" stroke-width="1.5"/>
<path d="M151.356 77.0988C151.4 77.2299 151.461 77.3579 151.534 77.4689V77.4698L151.581 77.5421L151.191 77.8136L150.904 77.4093L151.356 77.0988ZM149.299 72.5568V72.5577C149.452 72.6011 149.605 72.6886 149.799 72.8439C149.896 72.9221 149.996 73.01 150.11 73.1134C150.22 73.2127 150.348 73.3301 150.48 73.4435L150.95 73.8458L151.435 73.4601C151.77 73.1934 151.953 72.9593 152.076 72.7872C152.082 72.8056 152.09 72.824 152.096 72.8429C152.139 72.9777 152.198 73.1746 152.266 73.3312C152.317 73.4508 152.468 73.7908 152.834 73.9464C153.199 74.1032 153.55 74.01 153.729 73.9503C153.922 73.8864 154.136 73.7815 154.276 73.7169C154.633 73.5526 154.822 73.5004 154.965 73.5255C154.967 73.526 154.97 73.527 154.973 73.5275L152.667 75.1515L152.349 75.3761V75.5988C152.342 75.5992 152.335 75.5982 152.328 75.5988C152.148 75.6142 151.998 75.6788 151.9 75.7306C151.795 75.7866 151.694 75.8595 151.607 75.9415C151.591 75.9568 151.572 75.9755 151.551 75.9982L151.548 75.9952L151.192 75.547L150.791 75.0411C150.772 74.9261 150.728 74.7789 150.627 74.6368H150.629L149.446 72.9572C149.401 72.8513 149.337 72.7114 149.26 72.546L149.299 72.5568Z" fill="white" stroke="black" stroke-width="1.5"/>
<path d="M256.291 86.8124L256.515 87.1298H256.738C256.738 87.1368 256.737 87.1437 256.738 87.1503C256.753 87.331 256.818 87.4816 256.87 87.579C256.926 87.6841 256.998 87.7852 257.081 87.8719C257.096 87.888 257.115 87.9068 257.137 87.9276L257.134 87.9315L256.686 88.286L256.18 88.6874C256.1 88.701 256.003 88.7258 255.904 88.7743L255.776 88.8505L254.1 90.0292C253.994 90.075 253.853 90.1394 253.686 90.2177L253.697 90.1796C253.74 90.027 253.828 89.874 253.983 89.6805C254.061 89.583 254.149 89.4834 254.252 89.369C254.352 89.2591 254.469 89.1315 254.583 88.9989L254.985 88.5282L254.599 88.0448C254.332 87.7092 254.098 87.5246 253.926 87.4012C253.944 87.3953 253.963 87.3897 253.982 87.3837C254.117 87.3405 254.314 87.2815 254.47 87.2137C254.589 87.1624 254.924 87.0125 255.082 86.6522L255.083 86.6532C255.083 86.6519 255.083 86.6496 255.083 86.6483C255.084 86.647 255.086 86.6457 255.086 86.6444L255.085 86.6434C255.241 86.2788 255.149 85.9293 255.089 85.7499C255.025 85.5575 254.921 85.3432 254.856 85.203C254.692 84.8464 254.639 84.656 254.665 84.5135C254.665 84.511 254.665 84.5083 254.666 84.5057L256.291 86.8124ZM258.953 88.287L258.548 88.5741L258.238 88.121C258.369 88.0778 258.497 88.0174 258.608 87.9442L258.609 87.9452L258.681 87.8973L258.953 88.287Z" fill="white" stroke="black" stroke-width="1.5"/>
<path d="M228.245 46.809L228.599 47.2572L229 47.7621C229.02 47.8789 229.064 48.0298 229.168 48.1742L230.342 49.8422C230.388 49.9481 230.452 50.0889 230.531 50.2562L230.49 50.2455C230.338 50.2018 230.186 50.1144 229.994 49.9603C229.896 49.8822 229.796 49.7941 229.682 49.6908C229.572 49.5915 229.445 49.4741 229.312 49.3607L228.841 48.9594L228.358 49.3441C228.023 49.6108 227.838 49.8439 227.714 50.016C227.708 49.9981 227.703 49.9797 227.697 49.9613C227.654 49.8265 227.595 49.6297 227.527 49.473C227.476 49.3543 227.326 49.0177 226.965 48.8607H226.966C226.965 48.8601 226.963 48.8594 226.961 48.8588C226.96 48.8583 226.959 48.8573 226.958 48.8568H226.957C226.592 48.7011 226.242 48.7943 226.063 48.8539C225.871 48.9177 225.656 49.0227 225.516 49.0873C225.159 49.2517 224.969 49.3029 224.827 49.2777C224.824 49.2772 224.821 49.2772 224.819 49.2767L227.125 47.6527L227.443 47.4281V47.2045C227.45 47.204 227.457 47.206 227.463 47.2054C227.644 47.19 227.795 47.1255 227.892 47.0736C227.997 47.0176 228.098 46.9457 228.185 46.8636C228.201 46.8483 228.22 46.8279 228.241 46.8051L228.245 46.809ZM227.893 45.9652L227.887 45.9594L227.882 45.9535C227.886 45.9576 227.89 45.961 227.893 45.9652ZM228.887 45.3949L228.435 45.7054C228.392 45.574 228.331 45.4454 228.257 45.3344H228.258L228.21 45.2611L228.6 44.9896L228.887 45.3949Z" fill="white" stroke="black" stroke-width="1.5"/>
<path d="M216.401 118.778L215.996 119.065L215.718 118.681L215.789 118.627C215.897 118.546 215.995 118.446 216.079 118.338L216.401 118.778ZM213.833 113.786H213.835C213.975 113.808 214.136 113.917 214.418 114.19C214.53 114.298 214.697 114.467 214.858 114.592C215.01 114.709 215.31 114.914 215.707 114.888L215.709 114.887C216.104 114.861 216.359 114.592 216.45 114.494C216.566 114.368 216.686 114.201 216.771 114.089C216.788 114.066 216.805 114.044 216.822 114.022C216.881 114.225 216.979 114.504 217.205 114.864L217.535 115.392L218.115 115.165C218.493 115.016 218.67 114.924 218.953 114.824C219.188 114.741 219.36 114.709 219.513 114.718L219.554 114.719C219.429 114.848 219.324 114.958 219.247 115.043L217.574 116.244L217.572 116.246C217.428 116.35 217.338 116.478 217.283 116.582L216.743 116.924L216.26 117.228L216.256 117.23C216.244 117.203 216.233 117.18 216.223 117.161C216.169 117.056 216.098 116.955 216.017 116.867C215.942 116.786 215.82 116.674 215.653 116.599C215.644 116.595 215.633 116.594 215.624 116.59L215.69 116.38L215.473 116.076L213.831 113.785L213.833 113.786Z" fill="white" stroke="black" stroke-width="1.5"/>
<path d="M190.972 74.1389C190.928 74.2917 190.841 74.4452 190.686 74.6389C190.607 74.7364 190.519 74.8361 190.416 74.9504C190.317 75.0604 190.199 75.1879 190.086 75.3206L189.685 75.7903L190.069 76.2747C190.336 76.6093 190.569 76.7929 190.741 76.9163C190.723 76.9222 190.705 76.9298 190.687 76.9358C190.552 76.979 190.355 77.038 190.198 77.1057C190.079 77.1575 189.738 77.3083 189.582 77.6741C189.425 78.0391 189.519 78.39 189.579 78.5696C189.643 78.762 189.748 78.9763 189.812 79.1165C189.975 79.469 190.027 79.6581 190.004 79.8C190.003 79.8043 190.002 79.8085 190.001 79.8127L188.378 77.5071L188.153 77.1887H187.931C187.93 77.1818 187.931 77.1747 187.931 77.1682C187.915 76.9878 187.851 76.8378 187.799 76.7405C187.743 76.6355 187.671 76.5342 187.589 76.4475C187.573 76.4312 187.553 76.4121 187.53 76.3909L187.534 76.3879L187.982 76.0325L188.487 75.6311C188.602 75.6118 188.749 75.5685 188.892 75.468L188.893 75.469L190.571 74.2864C190.677 74.2407 190.817 74.1774 190.982 74.0999L190.972 74.1389ZM186.431 76.1965C186.337 76.2273 186.245 76.2669 186.16 76.3137L186.06 76.3743L185.986 76.4211L185.715 76.0315L186.12 75.7434L186.431 76.1965Z" fill="white" stroke="black" stroke-width="1.5"/>
<path d="M250.268 61.3702L250.65 61.4366L250.795 61.2911C250.803 61.2982 250.81 61.3053 250.817 61.3116C250.96 61.432 251.116 61.4926 251.222 61.5236C251.336 61.5572 251.458 61.5757 251.574 61.5782C251.597 61.5787 251.624 61.5786 251.654 61.5773V61.5851L251.59 62.1534L251.521 62.7677C251.451 62.8629 251.374 63.0005 251.342 63.1759L251.341 63.1818L250.988 65.2101C250.947 65.3156 250.893 65.4576 250.832 65.6281L250.807 65.5841C250.732 65.4502 250.687 65.2813 250.66 65.0333C250.647 64.9084 250.638 64.7747 250.631 64.6202C250.624 64.472 250.617 64.2995 250.604 64.1261L250.555 63.507L249.938 63.4386L249.736 63.421C249.424 63.4028 249.194 63.4301 249.021 63.4581C249.029 63.4405 249.039 63.4225 249.048 63.4044C249.113 63.2785 249.21 63.0977 249.273 62.9386C249.323 62.8147 249.453 62.4721 249.311 62.1066L249.31 62.1027L249.247 61.9718C249.085 61.6866 248.824 61.5377 248.675 61.463C248.493 61.3724 248.267 61.2946 248.122 61.2413C247.755 61.1063 247.584 61.0093 247.5 60.8907L250.268 61.3702ZM253.191 60.5499L253.108 61.0382L252.569 60.9376C252.634 60.8115 252.684 60.6714 252.71 60.5304L252.724 60.4669L253.191 60.5499Z" fill="white" stroke="black" stroke-width="1.5"/>
<path d="M201.934 53.2693L202.502 53.3337L203.117 53.4021C203.212 53.4716 203.349 53.5498 203.525 53.5818L203.531 53.5828L205.557 53.9333C205.663 53.9748 205.806 54.0288 205.977 54.0906L205.933 54.116C205.799 54.1909 205.631 54.2368 205.382 54.2634C205.257 54.2768 205.124 54.2842 204.969 54.2917C204.821 54.299 204.649 54.3066 204.475 54.3201L203.856 54.3679L203.788 54.9851C203.741 55.4028 203.773 55.6937 203.807 55.9021C203.79 55.8932 203.771 55.885 203.753 55.8757C203.627 55.8109 203.447 55.7132 203.288 55.6501C203.164 55.601 202.821 55.4704 202.456 55.613L202.452 55.614C202.08 55.7615 201.897 56.078 201.812 56.2488C201.721 56.4302 201.644 56.6566 201.59 56.8015C201.456 57.1681 201.358 57.3386 201.24 57.4226L201.719 54.656L201.786 54.2722L201.64 54.1277C201.647 54.1201 201.654 54.1135 201.661 54.1062C201.781 53.9637 201.842 53.8076 201.873 53.7019C201.906 53.5871 201.925 53.4656 201.927 53.3494C201.928 53.3269 201.928 53.2993 201.926 53.2683L201.934 53.2693ZM201.387 51.8142L201.287 52.3533C201.165 52.2914 201.031 52.242 200.896 52.2156H200.897L200.816 52.199L200.899 51.7312L201.387 51.8142Z" fill="white" stroke="black" stroke-width="1.5"/>
<path d="M244.32 111.84L244.238 112.327L243.767 112.251L243.778 112.166C243.796 112.036 243.794 111.895 243.777 111.759L244.32 111.84ZM243.68 106.748C243.682 106.941 243.685 107.101 243.689 107.217L243.36 109.229C243.333 109.393 243.355 109.538 243.385 109.648L243.246 110.294L243.128 110.843C243.099 110.831 243.073 110.822 243.053 110.815C242.943 110.78 242.825 110.759 242.71 110.752C242.604 110.746 242.443 110.749 242.275 110.807C242.259 110.812 242.241 110.823 242.222 110.831L242.115 110.632L241.751 110.571L238.972 110.11C238.973 110.11 238.974 110.109 238.976 110.108C239.093 110.024 239.286 109.987 239.679 109.979C239.833 109.977 240.071 109.978 240.272 109.952C240.463 109.928 240.817 109.86 241.079 109.566L241.083 109.562C241.345 109.263 241.334 108.892 241.329 108.759C241.322 108.587 241.29 108.384 241.271 108.244C241.269 108.23 241.266 108.217 241.265 108.203C241.449 108.302 241.711 108.427 242.115 108.519L242.722 108.657L242.97 108.086C243.13 107.716 243.192 107.52 243.319 107.254C243.426 107.031 243.527 106.885 243.646 106.778L243.646 106.777L243.68 106.748Z" fill="white" stroke="black" stroke-width="1.5"/>
<path d="M192.999 103.324C192.955 103.412 192.917 103.505 192.89 103.602L192.862 103.715L192.846 103.795L192.378 103.712L192.461 103.223L192.999 103.324ZM194.763 98.6779C194.838 98.8118 194.883 98.9804 194.91 99.2286C194.924 99.3536 194.931 99.4872 194.938 99.6417C194.946 99.7902 194.953 99.9631 194.967 100.137L195.015 100.756L195.632 100.824C196.049 100.871 196.34 100.838 196.548 100.804C196.539 100.821 196.532 100.84 196.522 100.858C196.458 100.983 196.36 101.164 196.297 101.323C196.248 101.447 196.117 101.791 196.26 102.156L196.261 102.159C196.408 102.531 196.725 102.715 196.896 102.8C197.077 102.891 197.303 102.967 197.448 103.021C197.815 103.155 197.985 103.253 198.069 103.371L195.303 102.892L194.919 102.826L194.774 102.97C194.767 102.963 194.76 102.956 194.753 102.95C194.611 102.83 194.454 102.77 194.349 102.739C194.234 102.706 194.112 102.687 193.996 102.685C193.974 102.684 193.946 102.683 193.915 102.685L193.916 102.678L193.98 102.109L194.049 101.493C194.118 101.398 194.197 101.262 194.229 101.087L194.229 101.08L194.58 99.0529C194.622 98.947 194.676 98.8044 194.737 98.6329L194.763 98.6779Z" fill="white" stroke="black" stroke-width="1.5"/>
<path d="M260.775 186.718C260.896 186.78 261.03 186.828 261.166 186.855V186.856L261.246 186.871L261.163 187.339L260.673 187.256L260.775 186.718ZM260.342 184.415L260.277 184.798L260.42 184.943C260.414 184.95 260.407 184.958 260.401 184.965C260.281 185.108 260.221 185.264 260.19 185.369C260.156 185.484 260.138 185.606 260.135 185.722C260.135 185.744 260.134 185.771 260.135 185.802H260.128L259.56 185.738L258.944 185.668C258.849 185.599 258.712 185.521 258.538 185.49L258.531 185.489L256.501 185.136C256.396 185.095 256.253 185.041 256.083 184.98L256.126 184.954L256.127 184.955C256.262 184.88 256.43 184.835 256.679 184.808C256.804 184.794 256.938 184.786 257.092 184.779C257.241 184.771 257.414 184.765 257.587 184.751L258.207 184.702L258.275 184.086C258.321 183.668 258.288 183.378 258.254 183.169C258.272 183.178 258.29 183.186 258.308 183.196C258.434 183.26 258.615 183.358 258.774 183.421C258.898 183.47 259.241 183.601 259.607 183.458L259.61 183.457C259.982 183.31 260.165 182.993 260.25 182.823C260.341 182.641 260.418 182.415 260.471 182.27C260.606 181.904 260.703 181.732 260.821 181.648L260.342 184.415Z" fill="white" stroke="black" stroke-width="1.5"/>
<path d="M267.419 136.094L267.802 136.16L267.947 136.015C267.955 136.022 267.962 136.029 267.969 136.035C268.112 136.156 268.268 136.216 268.374 136.247C268.488 136.281 268.61 136.299 268.726 136.302C268.748 136.302 268.776 136.302 268.806 136.301V136.309L268.742 136.877L268.672 137.491C268.603 137.587 268.526 137.724 268.494 137.9L268.493 137.906L268.14 139.934C268.099 140.039 268.045 140.181 267.984 140.352L267.958 140.308C267.884 140.174 267.839 140.005 267.812 139.757C267.799 139.632 267.79 139.498 267.783 139.344C267.776 139.196 267.769 139.023 267.755 138.85L267.707 138.231L267.09 138.162L266.888 138.145C266.576 138.127 266.345 138.154 266.172 138.182C266.181 138.164 266.19 138.146 266.2 138.128C266.265 138.002 266.362 137.821 266.425 137.662C266.474 137.539 266.605 137.196 266.462 136.83L266.461 136.826L266.399 136.696C266.237 136.41 265.976 136.261 265.827 136.187C265.645 136.096 265.419 136.018 265.274 135.965C264.907 135.83 264.736 135.733 264.652 135.615L267.419 136.094ZM270.343 135.274L270.26 135.762L269.721 135.661C269.783 135.54 269.832 135.406 269.859 135.271L269.86 135.272L269.875 135.191L270.343 135.274Z" fill="white" stroke="black" stroke-width="1.5"/>
<path d="M209.22 178.273V178.274C209.35 178.292 209.49 178.29 209.626 178.273L209.545 178.816L209.058 178.734L209.134 178.262L209.22 178.273ZM211.28 173.474C211.363 173.592 211.399 173.785 211.407 174.174C211.41 174.329 211.408 174.567 211.434 174.768C211.459 174.959 211.526 175.312 211.82 175.575L211.825 175.579C212.123 175.841 212.495 175.83 212.627 175.825C212.799 175.818 213.002 175.786 213.142 175.766C213.156 175.764 213.169 175.762 213.182 175.76C213.083 175.945 212.96 176.207 212.868 176.611L212.729 177.217L213.3 177.465C213.671 177.626 213.866 177.688 214.132 177.815C214.355 177.922 214.502 178.023 214.608 178.142V178.141L214.637 178.175C214.444 178.177 214.284 178.181 214.168 178.185L212.168 177.858H212.169C212.165 177.857 212.161 177.857 212.157 177.856H212.156C211.992 177.829 211.846 177.85 211.736 177.88L211.092 177.743L210.542 177.624C210.554 177.595 210.564 177.569 210.571 177.548C210.606 177.439 210.628 177.321 210.634 177.206C210.64 177.1 210.637 176.939 210.579 176.771C210.573 176.754 210.563 176.737 210.554 176.717L210.753 176.611L210.814 176.247L211.275 173.467C211.277 173.47 211.278 173.472 211.28 173.474Z" fill="white" stroke="black" stroke-width="1.5"/>
<path d="M219.114 128.412L219.682 128.477L220.296 128.545C220.392 128.615 220.529 128.693 220.705 128.725L220.71 128.726L222.737 129.076C222.843 129.118 222.985 129.172 223.157 129.234L223.113 129.259C222.979 129.334 222.81 129.38 222.562 129.406C222.437 129.42 222.303 129.427 222.149 129.435C222.001 129.442 221.828 129.45 221.655 129.463L221.036 129.511L220.967 130.128C220.921 130.546 220.953 130.837 220.987 131.045C220.969 131.036 220.951 131.028 220.933 131.019C220.807 130.954 220.626 130.856 220.467 130.793C220.343 130.744 220.001 130.613 219.635 130.756L219.631 130.757C219.259 130.905 219.077 131.221 218.992 131.392C218.901 131.573 218.823 131.8 218.77 131.945C218.635 132.311 218.538 132.482 218.419 132.566L218.899 129.799L218.965 129.415L218.82 129.271C218.827 129.263 218.834 129.257 218.84 129.249C218.961 129.107 219.021 128.951 219.052 128.845C219.086 128.73 219.104 128.609 219.107 128.492C219.107 128.47 219.107 128.442 219.106 128.411L219.114 128.412ZM218.567 126.957L218.466 127.496C218.345 127.435 218.211 127.385 218.076 127.359H218.077L217.996 127.342L218.079 126.874L218.567 126.957Z" fill="white" stroke="black" stroke-width="1.5"/>
<path d="M274.06 162.154L274.285 162.472H274.507C274.508 162.479 274.507 162.486 274.507 162.492C274.523 162.673 274.587 162.824 274.639 162.921C274.695 163.026 274.768 163.127 274.85 163.214C274.865 163.23 274.884 163.249 274.907 163.27L274.904 163.274L274.456 163.628L273.95 164.029C273.869 164.043 273.773 164.068 273.673 164.116L273.545 164.193L271.87 165.371C271.764 165.417 271.623 165.481 271.456 165.56L271.466 165.522C271.51 165.369 271.597 165.216 271.752 165.023C271.831 164.925 271.919 164.825 272.022 164.711C272.121 164.601 272.239 164.474 272.352 164.341L272.754 163.87L272.369 163.387C272.102 163.051 271.868 162.867 271.696 162.743C271.714 162.737 271.733 162.732 271.751 162.726C271.886 162.683 272.083 162.624 272.24 162.556C272.358 162.505 272.694 162.355 272.851 161.994L272.852 161.995C272.853 161.994 272.852 161.992 272.853 161.99C272.854 161.989 272.855 161.988 272.856 161.986L272.855 161.985C273.011 161.621 272.918 161.271 272.859 161.092C272.795 160.9 272.69 160.685 272.625 160.545C272.461 160.188 272.409 159.998 272.434 159.856C272.435 159.853 272.435 159.85 272.435 159.848L274.06 162.154ZM276.722 163.629L276.317 163.916L276.007 163.463C276.138 163.42 276.267 163.359 276.377 163.286L276.378 163.287L276.451 163.239L276.722 163.629Z" fill="white" stroke="black" stroke-width="1.5"/>
<path d="M245.603 122.243L245.957 122.692L246.358 123.196C246.378 123.313 246.422 123.464 246.526 123.609L247.7 125.276C247.746 125.382 247.81 125.523 247.889 125.691L247.848 125.68C247.696 125.636 247.544 125.549 247.352 125.395C247.254 125.316 247.154 125.228 247.04 125.125C246.93 125.026 246.803 124.908 246.67 124.795L246.199 124.394L245.716 124.778C245.381 125.045 245.196 125.278 245.072 125.45C245.066 125.432 245.061 125.414 245.055 125.396C245.012 125.261 244.952 125.064 244.885 124.907C244.833 124.789 244.684 124.452 244.323 124.295H244.324C244.323 124.294 244.321 124.294 244.319 124.293C244.318 124.293 244.317 124.292 244.315 124.291H244.314C243.95 124.135 243.6 124.229 243.421 124.288C243.229 124.352 243.014 124.457 242.874 124.522C242.517 124.686 242.327 124.737 242.185 124.712C242.182 124.712 242.179 124.712 242.177 124.711L244.483 123.087L244.801 122.862V122.639C244.808 122.638 244.815 122.64 244.821 122.64C245.002 122.624 245.153 122.56 245.25 122.508C245.355 122.452 245.456 122.38 245.543 122.298C245.559 122.283 245.578 122.262 245.599 122.239L245.603 122.243ZM245.251 121.4L245.245 121.394L245.24 121.388C245.244 121.392 245.248 121.395 245.251 121.4ZM246.246 120.829L245.793 121.14C245.75 121.008 245.689 120.88 245.615 120.769H245.616L245.568 120.695L245.958 120.424L246.246 120.829Z" fill="white" stroke="black" stroke-width="1.5"/>
<path d="M234.164 193.644L233.759 193.931L233.481 193.547L233.552 193.493C233.66 193.412 233.759 193.311 233.842 193.203L234.164 193.644ZM231.596 188.652H231.599C231.739 188.674 231.899 188.783 232.182 189.056C232.293 189.163 232.46 189.333 232.621 189.457C232.774 189.575 233.074 189.779 233.47 189.754L233.473 189.753C233.867 189.726 234.122 189.458 234.213 189.36C234.329 189.234 234.449 189.067 234.534 188.954C234.551 188.932 234.568 188.91 234.585 188.888C234.644 189.09 234.742 189.369 234.968 189.73L235.298 190.258L235.878 190.031C236.256 189.882 236.434 189.79 236.716 189.69C236.951 189.607 237.123 189.574 237.276 189.583L237.317 189.585C237.192 189.714 237.087 189.824 237.01 189.909L235.337 191.11L235.335 191.112C235.191 191.215 235.102 191.343 235.046 191.447L234.506 191.788L234.023 192.094L234.02 192.096C234.008 192.069 233.996 192.046 233.986 192.027C233.932 191.922 233.861 191.82 233.78 191.733C233.706 191.652 233.584 191.54 233.416 191.465C233.407 191.461 233.397 191.459 233.387 191.455L233.453 191.245L233.236 190.942L231.594 188.651L231.596 188.652Z" fill="white" stroke="black" stroke-width="1.5"/>
<path d="M208.45 149.289C208.407 149.442 208.319 149.595 208.164 149.789C208.086 149.886 207.998 149.986 207.895 150.1C207.795 150.21 207.678 150.338 207.564 150.471L207.163 150.94L207.548 151.425C207.814 151.759 208.048 151.943 208.22 152.066C208.202 152.072 208.184 152.08 208.165 152.086C208.03 152.129 207.833 152.188 207.677 152.256C207.557 152.307 207.216 152.458 207.061 152.824C206.904 153.189 206.998 153.54 207.058 153.72C207.122 153.912 207.226 154.126 207.291 154.266C207.454 154.619 207.506 154.808 207.482 154.95C207.482 154.954 207.48 154.959 207.479 154.963L205.856 152.657L205.632 152.339H205.409C205.409 152.332 205.41 152.325 205.409 152.318C205.394 152.138 205.329 151.988 205.277 151.891C205.221 151.786 205.149 151.684 205.067 151.598C205.052 151.581 205.032 151.562 205.009 151.541L205.013 151.538L205.461 151.182L205.966 150.781C206.081 150.762 206.228 150.718 206.37 150.618L206.371 150.619L208.05 149.436C208.156 149.391 208.295 149.327 208.461 149.25L208.45 149.289ZM203.909 151.347C203.816 151.377 203.724 151.417 203.639 151.464L203.538 151.524L203.465 151.571L203.193 151.182L203.599 150.893L203.909 151.347Z" fill="white" stroke="black" stroke-width="1.5"/>
<path d="M192.885 258.228C192.928 258.359 192.99 258.487 193.063 258.598V258.599L193.11 258.672L192.72 258.943L192.433 258.539L192.885 258.228ZM190.828 253.686V253.687C190.98 253.731 191.134 253.818 191.328 253.973C191.425 254.051 191.525 254.139 191.639 254.243C191.749 254.342 191.877 254.459 192.009 254.573L192.479 254.975L192.963 254.589C193.298 254.323 193.482 254.089 193.605 253.917C193.611 253.935 193.618 253.953 193.625 253.972C193.668 254.107 193.727 254.304 193.794 254.461C193.846 254.58 193.997 254.92 194.363 255.076C194.728 255.233 195.079 255.139 195.258 255.08C195.451 255.016 195.665 254.911 195.805 254.846C196.162 254.682 196.351 254.631 196.494 254.656V254.655C196.496 254.655 196.499 254.656 196.501 254.657L194.196 256.281L193.877 256.505V256.728C193.871 256.729 193.863 256.728 193.857 256.728C193.676 256.744 193.527 256.808 193.429 256.86C193.324 256.916 193.223 256.989 193.136 257.071C193.12 257.086 193.101 257.105 193.08 257.128L193.077 257.125L192.721 256.676L192.32 256.171C192.3 256.056 192.257 255.908 192.156 255.766H192.158L190.975 254.087C190.929 253.981 190.866 253.841 190.789 253.675L190.828 253.686Z" fill="white" stroke="black" stroke-width="1.5"/>
<path d="M233.355 227.116L233.58 227.433H233.802C233.803 227.44 233.802 227.447 233.802 227.454C233.818 227.635 233.882 227.785 233.934 227.883C233.99 227.988 234.063 228.089 234.145 228.176C234.16 228.192 234.179 228.21 234.202 228.231L234.199 228.235L233.75 228.59L233.245 228.991C233.164 229.005 233.068 229.029 232.968 229.078L232.84 229.154L231.165 230.333C231.059 230.379 230.918 230.443 230.75 230.521L230.761 230.483C230.805 230.331 230.892 230.178 231.047 229.984C231.126 229.887 231.214 229.787 231.317 229.673C231.416 229.563 231.534 229.435 231.647 229.302L232.049 228.832L231.664 228.348C231.396 228.013 231.163 227.828 230.991 227.705C231.009 227.699 231.028 227.693 231.046 227.687C231.181 227.644 231.378 227.585 231.535 227.517C231.653 227.466 231.989 227.316 232.146 226.956L232.147 226.957C232.148 226.955 232.147 226.953 232.148 226.952C232.149 226.951 232.15 226.949 232.151 226.948L232.15 226.947C232.306 226.582 232.213 226.233 232.154 226.053C232.09 225.861 231.985 225.647 231.92 225.507C231.756 225.15 231.704 224.96 231.729 224.817C231.729 224.815 231.73 224.812 231.73 224.809L233.355 227.116ZM236.017 228.591L235.612 228.878L235.302 228.425C235.433 228.381 235.562 228.321 235.672 228.248L235.673 228.249L235.746 228.201L236.017 228.591Z" fill="white" stroke="black" stroke-width="1.5"/>
<path d="M167.215 213.823L167.214 213.826C167.192 213.966 167.084 214.126 166.811 214.409C166.704 214.52 166.533 214.687 166.409 214.848C166.291 215.001 166.088 215.301 166.113 215.697V215.7C166.14 216.095 166.408 216.349 166.506 216.44C166.633 216.557 166.8 216.676 166.913 216.761C166.935 216.778 166.957 216.796 166.978 216.812C166.776 216.872 166.496 216.97 166.136 217.195L165.609 217.525L165.836 218.105C165.985 218.483 166.078 218.661 166.177 218.943C166.26 219.178 166.292 219.351 166.283 219.505L166.281 219.545C166.152 219.419 166.042 219.316 165.958 219.238L164.756 217.564L164.755 217.562L164.656 217.446C164.576 217.367 164.491 217.312 164.418 217.273L164.078 216.733L163.772 216.251L163.769 216.247C163.797 216.235 163.821 216.224 163.84 216.214C163.945 216.159 164.047 216.088 164.134 216.008C164.215 215.933 164.327 215.811 164.401 215.643C164.405 215.634 164.406 215.624 164.41 215.614L164.622 215.68L164.925 215.464L167.215 213.821V213.823ZM162.374 215.78V215.779C162.454 215.887 162.554 215.986 162.662 216.069L162.222 216.39L161.935 215.985L162.319 215.709L162.374 215.78Z" fill="white" stroke="black" stroke-width="1.5"/>
<path d="M204.62 187.525L204.975 187.973L205.376 188.478C205.396 188.595 205.44 188.746 205.544 188.89L206.718 190.558C206.764 190.664 206.828 190.805 206.906 190.972L206.865 190.961C206.714 190.917 206.561 190.83 206.369 190.676C206.272 190.598 206.172 190.51 206.058 190.406C205.948 190.307 205.82 190.19 205.688 190.076L205.217 189.675L204.733 190.06C204.398 190.327 204.213 190.56 204.09 190.732C204.084 190.714 204.078 190.695 204.072 190.677C204.029 190.542 203.97 190.345 203.902 190.189C203.851 190.07 203.701 189.733 203.341 189.576H203.342C203.34 189.576 203.338 189.575 203.337 189.574C203.336 189.574 203.334 189.573 203.333 189.573H203.332C202.968 189.417 202.618 189.51 202.438 189.57C202.246 189.633 202.032 189.738 201.892 189.803C201.535 189.967 201.345 190.019 201.202 189.993C201.2 189.993 201.197 189.993 201.194 189.992L203.501 188.368L203.818 188.144V187.92C203.825 187.92 203.832 187.922 203.839 187.921C204.02 187.906 204.17 187.841 204.268 187.789C204.373 187.733 204.474 187.661 204.561 187.579C204.577 187.564 204.595 187.544 204.616 187.521L204.62 187.525ZM204.269 186.681L204.263 186.675L204.258 186.669C204.261 186.673 204.265 186.677 204.269 186.681ZM205.263 186.111L204.811 186.421C204.767 186.29 204.706 186.161 204.633 186.05H204.634L204.586 185.977L204.976 185.705L205.263 186.111Z" fill="white" stroke="black" stroke-width="1.5"/>
<path d="M220.069 252.561C220.195 252.625 220.336 252.676 220.477 252.701V252.7L220.54 252.713L220.457 253.182L219.968 253.099L220.069 252.561ZM219.637 250.258L219.57 250.641L219.715 250.785C219.708 250.793 219.702 250.801 219.695 250.808C219.575 250.95 219.515 251.106 219.484 251.212C219.451 251.327 219.432 251.448 219.43 251.565C219.429 251.587 219.428 251.614 219.43 251.645H219.423L218.854 251.58L218.238 251.511C218.143 251.442 218.007 251.364 217.832 251.332L217.825 251.331L215.796 250.979C215.69 250.937 215.548 250.884 215.378 250.823L215.423 250.798L215.422 250.797C215.556 250.722 215.725 250.677 215.974 250.651C216.099 250.637 216.232 250.629 216.387 250.621C216.535 250.614 216.708 250.608 216.882 250.594L217.5 250.545L217.569 249.929C217.616 249.511 217.583 249.22 217.549 249.012C217.566 249.021 217.585 249.029 217.603 249.038C217.728 249.103 217.909 249.201 218.068 249.264C218.192 249.313 218.536 249.444 218.901 249.301L218.904 249.3C219.276 249.153 219.46 248.836 219.545 248.665C219.636 248.484 219.712 248.258 219.766 248.113C219.9 247.746 219.997 247.575 220.115 247.49L219.637 250.258Z" fill="white" stroke="black" stroke-width="1.5"/>
<path d="M226.345 201.709L226.728 201.776L226.872 201.63C226.88 201.637 226.887 201.644 226.895 201.651C227.037 201.771 227.193 201.832 227.299 201.863C227.414 201.896 227.535 201.915 227.651 201.917C227.674 201.918 227.701 201.918 227.731 201.916V201.924L227.667 202.492L227.598 203.107C227.528 203.202 227.451 203.339 227.419 203.515L227.418 203.521L227.065 205.549C227.024 205.655 226.971 205.797 226.909 205.968L226.884 205.923C226.809 205.789 226.764 205.62 226.737 205.372C226.724 205.247 226.716 205.114 226.708 204.959C226.701 204.811 226.694 204.639 226.681 204.465L226.632 203.846L226.016 203.778L225.813 203.76C225.501 203.742 225.271 203.769 225.098 203.797C225.107 203.779 225.116 203.762 225.125 203.743C225.19 203.617 225.288 203.437 225.351 203.278C225.4 203.154 225.53 202.811 225.388 202.446L225.387 202.442L225.324 202.311C225.163 202.026 224.901 201.877 224.752 201.802C224.571 201.711 224.344 201.634 224.199 201.58C223.832 201.445 223.661 201.348 223.577 201.23L226.345 201.709ZM229.269 200.889L229.186 201.377L228.646 201.277C228.708 201.155 228.758 201.022 228.784 200.886L228.785 200.887L228.801 200.806L229.269 200.889Z" fill="white" stroke="black" stroke-width="1.5"/>
<path d="M168.842 243.768V243.769C168.972 243.786 169.112 243.785 169.248 243.768L169.167 244.311L168.68 244.229L168.756 243.757L168.842 243.768ZM170.901 238.969C170.985 239.087 171.021 239.28 171.028 239.669C171.031 239.824 171.03 240.062 171.056 240.263C171.08 240.453 171.148 240.807 171.441 241.069L171.446 241.073C171.745 241.336 172.116 241.325 172.249 241.319C172.42 241.313 172.624 241.281 172.764 241.261C172.777 241.259 172.79 241.257 172.804 241.255C172.705 241.44 172.581 241.702 172.489 242.106L172.351 242.712L172.922 242.96C173.292 243.121 173.487 243.182 173.754 243.31C173.977 243.416 174.123 243.517 174.229 243.637V243.636L174.259 243.67C174.066 243.672 173.906 243.676 173.79 243.68L171.79 243.353H171.791L171.789 243.352L171.778 243.351H171.777C171.614 243.324 171.468 243.345 171.358 243.375L170.714 243.236L170.164 243.118C170.176 243.089 170.186 243.064 170.192 243.043C170.228 242.934 170.249 242.816 170.256 242.7C170.262 242.594 170.258 242.434 170.2 242.266C170.194 242.249 170.184 242.232 170.176 242.212L170.375 242.106L170.436 241.741L170.896 238.962C170.898 238.964 170.9 238.967 170.901 238.969Z" fill="white" stroke="black" stroke-width="1.5"/>
<path d="M178.323 193.907L178.892 193.971L179.506 194.04C179.601 194.109 179.738 194.187 179.914 194.219L179.92 194.22L181.946 194.571C182.052 194.612 182.195 194.666 182.366 194.728L182.322 194.753C182.188 194.828 182.02 194.874 181.771 194.901C181.647 194.914 181.513 194.922 181.358 194.929C181.21 194.936 181.038 194.944 180.864 194.958L180.245 195.005L180.177 195.623C180.13 196.04 180.163 196.331 180.196 196.54C180.179 196.531 180.161 196.522 180.143 196.513C180.017 196.448 179.836 196.351 179.677 196.288C179.553 196.238 179.21 196.108 178.845 196.25L178.841 196.251C178.469 196.399 178.287 196.715 178.201 196.886C178.111 197.068 178.033 197.294 177.979 197.439C177.845 197.806 177.747 197.976 177.629 198.06L178.108 195.293L178.175 194.91L178.029 194.765C178.036 194.758 178.044 194.751 178.05 194.744C178.17 194.601 178.231 194.445 178.262 194.339C178.295 194.225 178.314 194.103 178.316 193.987C178.317 193.964 178.317 193.937 178.315 193.906L178.323 193.907ZM177.776 192.452L177.676 192.991C177.554 192.929 177.421 192.879 177.285 192.853H177.286L177.205 192.836L177.288 192.369L177.776 192.452Z" fill="white" stroke="black" stroke-width="1.5"/>
</svg>
