<svg width="321" height="321" viewBox="0 0 321 321" fill="none" xmlns="http://www.w3.org/2000/svg">
<g clip-path="url(#clip0_3521_478)">
<path d="M190.102 293.941C188.997 294.222 189.191 294.577 188.225 295.036C187.774 294.417 187.449 293.781 186.829 293.447L184.481 292.145L186.54 297.306C186.61 297.478 186.445 297.812 186.307 297.885C186.077 297.978 185.887 297.838 185.777 297.565C185.82 296.479 185.716 295.602 185.603 294.996C185.444 294.109 184.756 290.229 182.402 289.53C182.056 289.42 181.752 289.41 181.57 289.416C182.821 292.5 184.077 295.599 185.328 298.683C185.432 298.941 185.614 299.101 185.887 298.99L186.948 298.56L187.233 299.179L185.744 299.75L186.634 301.944L188.771 301.078L188.439 300.177C188.369 300.005 188.348 299.746 188.442 299.608C188.522 299.475 188.929 299.327 189.013 299.493L189.565 300.689C189.878 300.595 190.211 300.511 190.498 300.394L197.899 297.393C198.2 297.271 198.502 297.149 198.803 297.027C198.475 296.876 198.089 296.748 197.672 296.667C195.695 296.283 194.044 297.153 193.382 297.538C192.304 298.259 191.213 298.985 190.135 299.706C190.083 299.66 189.959 299.56 189.898 299.368C189.846 299.239 189.836 299.092 189.882 298.957L193.396 297.532C194.076 297.273 194.687 297.009 195.369 296.632C194.412 296.536 193.761 296.415 192.99 296.077C192.117 295.696 191.014 296.394 190.601 296.077C190.313 295.86 190.549 294.795 190.108 293.955L190.102 293.941Z" fill="black"/>
<path d="M234.16 275.893C234.441 276.998 234.797 276.804 235.256 277.77C234.637 278.221 234 278.546 233.667 279.166L232.364 281.514L237.526 279.455C237.698 279.385 238.032 279.551 238.104 279.688C238.197 279.918 238.057 280.108 237.785 280.219C236.698 280.175 235.822 280.28 235.216 280.392C234.329 280.551 230.449 281.239 229.75 283.593C229.64 283.939 229.63 284.244 229.636 284.425C232.72 283.174 235.818 281.918 238.902 280.667C239.16 280.563 239.321 280.381 239.21 280.108L238.78 279.047L239.399 278.762L239.969 280.251L242.164 279.362L241.298 277.224L240.397 277.556C240.224 277.626 239.966 277.647 239.827 277.553C239.695 277.473 239.546 277.066 239.713 276.982L240.909 276.43C240.815 276.117 240.73 275.784 240.614 275.497L237.613 268.096C237.491 267.795 237.369 267.493 237.246 267.192C237.096 267.521 236.968 267.906 236.887 268.323C236.502 270.3 237.372 271.951 237.758 272.613C238.478 273.691 239.205 274.782 239.926 275.86C239.88 275.912 239.78 276.036 239.588 276.097C239.459 276.149 239.312 276.159 239.177 276.113L237.752 272.599C237.493 271.919 237.228 271.308 236.852 270.626C236.756 271.583 236.635 272.234 236.297 273.005C235.916 273.878 236.613 274.981 236.296 275.394C236.079 275.682 235.015 275.446 234.175 275.887L234.16 275.893Z" fill="black"/>
<path d="M172.953 249.586C171.964 250.154 171.856 249.763 170.843 250.107C170.95 250.865 171.16 251.549 170.948 252.219L170.17 254.79L168.053 249.652C167.983 249.48 167.632 249.355 167.483 249.399C167.253 249.492 167.214 249.725 167.324 249.997C168.113 250.747 168.648 251.448 168.989 251.961C169.493 252.709 171.701 255.972 170.498 258.114C170.328 258.433 170.116 258.653 169.981 258.774C168.731 255.69 167.475 252.592 166.224 249.508C166.12 249.25 166.138 249.008 166.411 248.898L167.472 248.468L167.245 247.825L165.779 248.452L164.89 246.258L167.027 245.391L167.416 246.269C167.486 246.441 167.651 246.642 167.815 246.675C167.964 246.715 168.36 246.538 168.305 246.36L167.868 245.117C168.157 244.966 168.455 244.795 168.742 244.679L176.144 241.678C176.445 241.556 176.746 241.434 177.047 241.312C176.917 241.648 176.729 242.009 176.486 242.358C175.335 244.01 173.544 244.536 172.801 244.72C171.526 244.953 170.236 245.192 168.961 245.425C168.956 245.494 168.937 245.652 169.027 245.833C169.079 245.962 169.174 246.074 169.301 246.139L172.815 244.714C173.484 244.427 174.106 244.191 174.858 243.986C174.238 244.722 173.855 245.261 173.537 246.042C173.176 246.923 171.899 247.191 171.823 247.705C171.768 248.062 172.679 248.661 172.947 249.571L172.953 249.586Z" fill="black"/>
<path d="M216.6 231.804C217.706 231.523 217.511 231.167 218.478 230.709C218.929 231.327 219.254 231.964 219.874 232.297L222.222 233.6L220.163 228.439C220.093 228.267 220.258 227.932 220.396 227.86C220.625 227.767 220.816 227.907 220.926 228.179C220.883 229.266 220.987 230.142 221.099 230.748C221.259 231.635 221.947 235.515 224.301 236.214C224.647 236.325 224.951 236.335 225.132 236.328C223.882 233.244 222.626 230.146 221.375 227.062C221.27 226.804 221.089 226.644 220.816 226.754L219.755 227.185L219.47 226.565L220.959 225.995L220.069 223.8L217.932 224.667L218.264 225.568C218.334 225.74 218.355 225.998 218.261 226.137C218.181 226.269 217.774 226.418 217.689 226.252L217.138 225.056C216.825 225.149 216.492 225.234 216.205 225.35L208.804 228.351C208.502 228.474 208.201 228.596 207.9 228.718C208.228 228.869 208.614 228.996 209.031 229.077C211.008 229.462 212.659 228.592 213.321 228.207C214.398 227.486 215.49 226.759 216.567 226.038C216.619 226.084 216.743 226.184 216.805 226.376C216.857 226.506 216.866 226.652 216.821 226.787L213.307 228.212C212.627 228.471 212.016 228.736 211.334 229.113C212.291 229.209 212.941 229.329 213.713 229.668C214.586 230.049 215.689 229.351 216.102 229.668C216.39 229.885 216.154 230.95 216.595 231.79L216.6 231.804Z" fill="black"/>
<path d="M215.883 294.126C215.29 295.135 215.675 295.263 215.309 296.296C214.541 296.174 213.836 295.958 213.133 296.16L210.455 296.929L215.728 299.183C215.91 299.26 216.041 299.624 215.967 299.771C215.885 300.022 215.626 300.043 215.344 299.923C214.59 299.094 213.863 298.536 213.344 298.162C212.579 297.637 209.243 295.299 207.01 296.505C206.683 296.688 206.451 296.899 206.322 297.034C209.502 298.367 212.673 299.72 215.852 301.054C216.114 301.164 216.358 301.149 216.478 300.867L216.944 299.792L217.592 300.031L216.932 301.534L219.184 302.475L220.12 300.292L219.215 299.874C219.048 299.791 218.826 299.614 218.796 299.459C218.767 299.304 218.952 298.895 219.127 298.957L220.403 299.425C220.565 299.126 220.748 298.835 220.876 298.532L224.091 290.932C224.219 290.63 224.355 290.307 224.483 290.005C224.139 290.144 223.757 290.316 223.391 290.564C221.674 291.728 221.085 293.57 220.893 294.333C220.63 295.659 220.36 296.971 220.11 298.291C220.047 298.3 219.866 298.307 219.679 298.216C219.552 298.15 219.428 298.05 219.361 297.927L220.908 294.327C221.198 293.642 221.471 292.996 221.677 292.228C220.898 292.861 220.334 293.24 219.53 293.566C218.612 293.938 218.322 295.242 217.782 295.31C217.403 295.364 216.818 294.415 215.883 294.126Z" fill="black"/>
<path d="M233.825 251.259C234.834 251.852 234.962 251.466 235.995 251.832C235.872 252.6 235.657 253.305 235.859 254.009L236.627 256.687L238.882 251.413C238.959 251.232 239.323 251.101 239.47 251.175C239.72 251.257 239.742 251.516 239.622 251.798C238.792 252.552 238.235 253.279 237.861 253.798C237.336 254.562 234.998 257.899 236.204 260.132C236.387 260.459 236.597 260.691 236.733 260.819C238.066 257.64 239.419 254.469 240.752 251.29C240.863 251.028 240.848 250.783 240.566 250.664L239.491 250.198L239.73 249.55L241.233 250.209L242.174 247.957L239.991 247.022L239.573 247.927C239.49 248.094 239.313 248.316 239.158 248.345C239.003 248.375 238.594 248.19 238.656 248.014L239.124 246.739C238.825 246.576 238.533 246.394 238.231 246.266L230.631 243.051C230.328 242.923 230.006 242.786 229.703 242.659C229.843 243.003 230.014 243.384 230.263 243.751C231.427 245.467 233.269 246.056 234.032 246.248C235.358 246.512 236.67 246.782 237.99 247.031C237.999 247.095 238.006 247.276 237.915 247.463C237.849 247.59 237.749 247.714 237.626 247.78L234.026 246.234C233.34 245.944 232.695 245.671 231.927 245.465C232.56 246.244 232.939 246.808 233.265 247.611C233.637 248.529 234.941 248.819 235.009 249.359C235.063 249.738 234.114 250.324 233.825 251.259Z" fill="black"/>
<path d="M172.476 275.183C172.165 276.311 171.805 276.123 171.318 277.106C171.941 277.571 172.587 277.927 172.932 278.572L174.245 281.029L168.955 278.815C168.773 278.739 168.421 278.898 168.367 279.054C168.244 279.287 168.409 279.488 168.691 279.607C169.812 279.57 170.718 279.704 171.348 279.816C172.257 279.998 176.259 280.764 176.949 283.207C177.045 283.569 177.055 283.882 177.048 284.069C173.877 282.716 170.697 281.382 167.526 280.029C167.264 279.918 167.105 279.732 167.225 279.45L167.671 278.367L167.049 278.068L166.429 279.589L164.186 278.628L165.101 276.436L166.031 276.794C166.206 276.857 166.488 276.893 166.62 276.806C166.752 276.719 166.917 276.301 166.75 276.219L165.525 275.63C165.627 275.304 165.709 274.971 165.837 274.668L169.052 267.068C169.18 266.765 169.316 266.443 169.444 266.141C169.584 266.485 169.726 266.878 169.803 267.314C170.163 269.356 169.252 271.062 168.838 271.731C168.07 272.844 167.317 273.951 166.543 275.05C166.58 275.102 166.702 275.236 166.898 275.307C167.033 275.352 167.191 275.372 167.326 275.334L168.832 271.717C169.122 271.031 169.395 270.386 169.803 269.703C169.891 270.703 170.012 271.372 170.338 272.175C170.71 273.093 169.976 274.209 170.303 274.644C170.529 274.954 171.617 274.713 172.476 275.183Z" fill="black"/>
<path d="M191.138 232.441C191.731 231.433 191.345 231.305 191.711 230.272C192.479 230.394 193.184 230.609 193.887 230.408L196.565 229.639L191.292 227.385C191.111 227.308 190.98 226.944 191.054 226.797C191.136 226.546 191.394 226.525 191.677 226.644C192.431 227.474 193.158 228.031 193.677 228.405C194.441 228.931 197.777 231.269 200.011 230.063C200.337 229.88 200.569 229.669 200.698 229.534C197.519 228.201 194.348 226.847 191.168 225.514C190.906 225.403 190.662 225.419 190.543 225.701L190.076 226.776L189.428 226.537L190.088 225.034L187.836 224.093L186.901 226.276L187.805 226.694C187.972 226.777 188.194 226.954 188.224 227.109C188.253 227.264 188.068 227.673 187.893 227.611L186.617 227.142C186.455 227.442 186.272 227.733 186.144 228.036L182.929 235.636C182.802 235.938 182.665 236.261 182.537 236.563C182.881 236.424 183.263 236.252 183.63 236.003C185.346 234.84 185.935 232.998 186.127 232.235C186.391 230.909 186.661 229.597 186.91 228.276C186.973 228.267 187.154 228.261 187.342 228.352C187.468 228.417 187.592 228.518 187.659 228.641L186.113 232.241C185.823 232.926 185.55 233.571 185.343 234.34C186.122 233.707 186.687 233.327 187.49 233.002C188.408 232.63 188.698 231.326 189.238 231.258C189.617 231.204 190.202 232.153 191.138 232.441Z" fill="black"/>
<path d="M87.3712 275.084C86.3884 274.513 86.2752 274.893 85.2762 274.53C85.3905 273.782 85.6114 273.091 85.4071 272.423L84.6591 269.836L82.4671 274.934C82.3988 275.095 82.0344 275.227 81.8933 275.167C81.6572 275.079 81.6273 274.84 81.7467 274.558C82.5395 273.836 83.088 273.129 83.4477 272.616C83.9645 271.872 86.2171 268.654 85.0543 266.486C84.8775 266.174 84.6868 265.95 84.5453 265.807C83.249 268.872 81.9586 271.95 80.6624 275.015C80.5515 275.277 80.5814 275.515 80.8435 275.626L81.8976 276.084L81.6678 276.711L80.219 276.063L79.298 278.24L81.4062 279.156L81.8218 278.286C81.9043 278.119 82.073 277.917 82.2222 277.873C82.3715 277.829 82.7661 278.02 82.7037 278.195L82.2525 279.431C82.5464 279.579 82.8376 279.761 83.1198 279.881L90.4782 282.993C90.7806 283.121 91.083 283.249 91.3854 283.377C91.2516 283.047 91.086 282.68 90.8429 282.328C89.717 280.663 87.9352 280.099 87.1928 279.916C85.9212 279.663 84.6294 279.402 83.3578 279.149C83.3489 279.086 83.3481 278.919 83.4249 278.738C83.4904 278.611 83.576 278.493 83.6993 278.426L87.1784 279.922C87.8437 280.203 88.4687 280.468 89.2169 280.665C88.5954 279.915 88.2364 279.359 87.9281 278.599C87.5675 277.71 86.3188 277.431 86.2416 276.911C86.1939 276.546 87.1138 275.973 87.3999 275.072L87.3712 275.084Z" fill="black"/>
<path d="M131.273 293.476C130.703 294.459 131.083 294.572 130.719 295.571C129.972 295.457 129.281 295.236 128.612 295.44L126.026 296.188L131.124 298.38C131.285 298.448 131.416 298.813 131.356 298.954C131.268 299.19 131.03 299.22 130.748 299.1C130.025 298.308 129.318 297.759 128.805 297.399C128.061 296.883 124.843 294.63 122.675 295.793C122.363 295.97 122.14 296.16 121.997 296.302C125.061 297.598 128.14 298.889 131.204 300.185C131.466 300.296 131.704 300.266 131.815 300.004L132.273 298.95L132.901 299.179L132.252 300.628L134.43 301.549L135.345 299.441L134.475 299.025C134.308 298.943 134.106 298.774 134.062 298.625C134.018 298.476 134.209 298.081 134.385 298.143L135.62 298.595C135.768 298.301 135.951 298.01 136.07 297.727L139.183 290.369C139.31 290.067 139.438 289.764 139.566 289.462C139.236 289.596 138.869 289.761 138.517 290.004C136.852 291.13 136.289 292.912 136.105 293.654C135.853 294.926 135.591 296.218 135.339 297.489C135.276 297.498 135.109 297.499 134.927 297.422C134.801 297.357 134.682 297.271 134.616 297.148L136.111 293.669C136.393 293.003 136.657 292.378 136.855 291.63C136.104 292.252 135.549 292.611 134.788 292.919C133.899 293.28 133.62 294.528 133.101 294.606C132.736 294.653 132.162 293.733 131.261 293.447L131.273 293.476Z" fill="black"/>
<path d="M106.594 231.58C105.501 231.272 105.694 230.926 104.738 230.462C104.281 231.065 103.939 231.705 103.317 232.024L100.94 233.288L103.072 228.165C103.14 228.004 102.98 227.651 102.839 227.591C102.611 227.483 102.419 227.628 102.3 227.91C102.334 228.982 102.209 229.868 102.091 230.484C101.917 231.373 101.176 235.23 98.8111 235.905C98.4637 235.996 98.1706 236.015 97.9694 236.013C99.2656 232.949 100.576 229.878 101.872 226.814C101.983 226.552 102.175 226.407 102.437 226.518L103.5 226.956L103.79 226.354L102.316 225.766L103.237 223.589L105.362 224.464L105.027 225.368C104.965 225.544 104.937 225.805 105.01 225.943C105.082 226.081 105.494 226.231 105.577 226.064L106.149 224.88C106.46 224.988 106.794 225.069 107.076 225.189L114.434 228.301C114.736 228.429 115.039 228.557 115.341 228.685C115.011 228.819 114.633 228.956 114.21 229.027C112.232 229.378 110.586 228.492 109.938 228.087C108.871 227.35 107.784 226.605 106.717 225.869C106.665 225.906 106.545 226.022 106.468 226.203C106.423 226.339 106.398 226.482 106.436 226.617L109.932 228.073C110.597 228.354 111.222 228.618 111.885 229.018C110.914 229.094 110.265 229.224 109.505 229.532C108.615 229.892 107.546 229.19 107.119 229.497C106.824 229.717 107.053 230.776 106.606 231.609L106.594 231.58Z" fill="black"/>
<path d="M150.038 249.874C151.02 250.445 151.134 250.065 152.133 250.428C152.018 251.176 151.797 251.867 152.002 252.535L152.75 255.122L154.942 250.024C155.01 249.863 155.374 249.731 155.515 249.791C155.752 249.879 155.781 250.118 155.662 250.4C154.869 251.122 154.321 251.829 153.961 252.342C153.444 253.086 151.192 256.304 152.354 258.472C152.531 258.784 152.722 259.008 152.864 259.151C154.16 256.086 155.45 253.008 156.746 249.943C156.857 249.681 156.827 249.443 156.565 249.332L155.511 248.874L155.741 248.247L157.19 248.895L158.111 246.718L156.003 245.802L155.587 246.672C155.504 246.839 155.336 247.041 155.187 247.085C155.037 247.129 154.643 246.938 154.705 246.763L155.156 245.527C154.862 245.379 154.571 245.197 154.289 245.077L146.931 241.965C146.628 241.837 146.326 241.709 146.023 241.581C146.157 241.911 146.323 242.278 146.566 242.63C147.692 244.295 149.474 244.859 150.216 245.042C151.488 245.295 152.779 245.556 154.051 245.809C154.06 245.872 154.061 246.039 153.984 246.22C153.918 246.347 153.833 246.465 153.709 246.532L150.23 245.036C149.565 244.755 148.94 244.49 148.192 244.293C148.813 245.043 149.172 245.599 149.481 246.359C149.841 247.248 151.09 247.527 151.167 248.047C151.215 248.412 150.295 248.985 150.009 249.886L150.038 249.874Z" fill="black"/>
<path d="M105.454 293.44C104.32 293.732 104.505 294.108 103.525 294.572C103.068 293.939 102.717 293.28 102.077 292.938L99.6419 291.587L101.771 296.92C101.841 297.092 101.681 297.441 101.544 297.514C101.3 297.612 101.104 297.458 100.987 297.171C101.034 296.05 100.932 295.139 100.814 294.519C100.643 293.603 99.9372 289.597 97.5021 288.864C97.1423 288.759 96.8376 288.749 96.6364 288.747C97.9334 291.946 99.2246 295.13 100.522 298.329C100.632 298.601 100.814 298.762 101.101 298.645L102.191 298.203L102.487 298.851L100.955 299.439L101.874 301.705L104.089 300.824L103.745 299.895C103.675 299.722 103.663 299.444 103.737 299.297C103.816 299.164 104.253 299.004 104.322 299.176L104.892 300.415C105.219 300.316 105.552 300.231 105.853 300.109L113.498 297.009C113.814 296.881 114.129 296.753 114.445 296.625C114.102 296.48 113.711 296.338 113.279 296.263C111.248 295.867 109.525 296.766 108.854 297.172C107.74 297.924 106.619 298.662 105.49 299.421C105.439 299.375 105.309 299.261 105.247 299.068C105.195 298.939 105.18 298.778 105.225 298.643L108.854 297.172C109.549 296.907 110.188 296.631 110.885 296.248C109.893 296.149 109.222 296.02 108.43 295.673C107.517 295.275 106.391 295.999 105.959 295.673C105.65 295.448 105.909 294.357 105.457 293.488L105.454 293.44Z" fill="black"/>
<path d="M148.464 275.816C148.757 276.95 149.132 276.764 149.597 277.745C148.964 278.202 148.304 278.553 147.963 279.193L146.612 281.628L151.945 279.499C152.117 279.429 152.465 279.588 152.538 279.726C152.637 279.97 152.483 280.166 152.196 280.282C151.075 280.236 150.164 280.338 149.544 280.456C148.627 280.627 144.621 281.333 143.888 283.768C143.784 284.127 143.774 284.432 143.772 284.633C146.97 283.336 150.155 282.045 153.353 280.748C153.626 280.638 153.786 280.456 153.67 280.169L153.228 279.079L153.876 278.783L154.464 280.315L156.73 279.396L155.849 277.181L154.919 277.525C154.747 277.594 154.468 277.607 154.321 277.533C154.189 277.453 154.028 277.017 154.201 276.947L155.44 276.378C155.34 276.051 155.255 275.718 155.133 275.417L152.033 267.772C151.905 267.456 151.777 267.14 151.649 266.825C151.504 267.168 151.363 267.559 151.287 267.991C150.891 270.022 151.79 271.745 152.196 272.415C152.949 273.53 153.687 274.65 154.445 275.779C154.399 275.831 154.285 275.961 154.093 276.022C153.964 276.075 153.803 276.09 153.667 276.044L152.196 272.415C151.931 271.721 151.655 271.082 151.272 270.385C151.174 271.377 151.045 272.047 150.698 272.839C150.3 273.752 151.023 274.879 150.698 275.311C150.472 275.62 149.382 275.36 148.513 275.813L148.464 275.816Z" fill="black"/>
<path d="M88.1644 249.358C87.1468 249.938 87.0185 249.539 85.9911 249.889C86.104 250.661 86.3115 251.379 86.0905 252.07L85.2839 254.735L83.0975 249.425C83.0277 249.253 82.6706 249.114 82.5214 249.158C82.2775 249.256 82.2442 249.504 82.3605 249.791C83.1747 250.563 83.7357 251.287 84.0831 251.815C84.5984 252.591 86.882 255.958 85.6451 258.18C85.4598 258.505 85.2481 258.725 85.1051 258.866C83.8081 255.667 82.5169 252.483 81.2199 249.284C81.1094 249.012 81.1284 248.77 81.4153 248.654L82.5054 248.212L82.2666 247.541L80.7578 248.186L79.8388 245.919L82.042 245.009L82.4429 245.916C82.5127 246.088 82.6976 246.297 82.8531 246.351C83.0027 246.39 83.4272 246.202 83.3574 246.029L82.903 244.744C83.2069 244.587 83.505 244.416 83.8062 244.294L91.4515 241.194C91.767 241.066 92.0826 240.938 92.3982 240.81C92.2532 241.153 92.071 241.528 91.814 241.882C90.6321 243.581 88.7693 244.136 88.0056 244.312C86.6817 244.548 85.3636 244.798 84.0253 245.04C84.0199 245.109 84.0063 245.282 84.0963 245.463C84.1486 245.592 84.2498 245.718 84.3766 245.783L88.0056 244.312C88.6883 244.018 89.3396 243.771 90.106 243.56C89.4629 244.322 89.0717 244.882 88.745 245.682C88.367 246.604 87.0548 246.868 86.971 247.403C86.9067 247.78 87.8523 248.382 88.1327 249.321L88.1644 249.358Z" fill="black"/>
<path d="M131.58 232.322C132.714 232.029 132.528 231.654 133.509 231.189C133.966 231.822 134.317 232.482 134.956 232.824L137.391 234.175L135.262 228.841C135.193 228.669 135.352 228.321 135.49 228.248C135.733 228.149 135.93 228.304 136.046 228.591C135.999 229.712 136.101 230.622 136.219 231.243C136.39 232.159 137.096 236.165 139.531 236.898C139.891 237.003 140.196 237.013 140.397 237.015C139.1 233.816 137.809 230.632 136.512 227.433C136.401 227.16 136.219 227 135.933 227.117L134.842 227.559L134.546 226.91L136.078 226.323L135.159 224.056L132.945 224.938L133.288 225.867C133.358 226.039 133.371 226.318 133.297 226.465C133.217 226.598 132.781 226.758 132.711 226.586L132.142 225.347C131.815 225.446 131.482 225.531 131.18 225.653L123.535 228.753C123.22 228.881 122.904 229.009 122.588 229.137C122.931 229.282 123.323 229.424 123.754 229.499C125.785 229.895 127.508 228.996 128.179 228.59C129.294 227.838 130.414 227.1 131.543 226.341C131.595 226.387 131.725 226.501 131.786 226.694C131.838 226.823 131.853 226.984 131.808 227.119L128.179 228.59C127.485 228.855 126.845 229.131 126.148 229.514C127.141 229.613 127.811 229.742 128.603 230.089C129.516 230.487 130.642 229.763 131.075 230.088C131.383 230.314 131.124 231.405 131.577 232.273L131.58 232.322Z" fill="black"/>
<path d="M28.0568 189.101C27.7756 187.996 27.4201 188.19 26.9615 187.224C27.5802 186.772 28.2167 186.448 28.5501 185.828L29.8525 183.479L24.6915 185.539C24.5194 185.608 24.1852 185.443 24.1127 185.306C24.0196 185.076 24.1596 184.886 24.4321 184.775C25.5188 184.819 26.3949 184.714 27.0008 184.602C27.8882 184.443 31.7681 183.755 32.4669 181.4C32.5774 181.055 32.5875 180.75 32.5809 180.569C29.497 181.82 26.3987 183.076 23.3148 184.326C23.0566 184.431 22.8965 184.613 23.007 184.886L23.4374 185.947L22.8179 186.232L22.2475 184.743L20.0529 185.632L20.9195 187.77L21.8205 187.438C21.9926 187.368 22.2512 187.347 22.3896 187.441C22.5222 187.521 22.6707 187.928 22.5044 188.012L21.3084 188.564C21.4018 188.877 21.4868 189.21 21.6031 189.497L24.6042 196.898C24.7263 197.199 24.8484 197.5 24.9706 197.802C25.1214 197.473 25.2489 197.088 25.3303 196.67C25.7147 194.694 24.8447 193.043 24.4593 192.38C23.7385 191.303 23.012 190.211 22.2912 189.134C22.3369 189.082 22.437 188.958 22.6292 188.897C22.7583 188.845 22.9049 188.835 23.0402 188.881L24.4651 192.395C24.7241 193.075 24.9886 193.686 25.3654 194.368C25.4615 193.41 25.582 192.76 25.9204 191.988C26.3015 191.116 25.6036 190.012 25.9207 189.6C26.1378 189.311 27.2023 189.548 28.0424 189.107L28.0568 189.101Z" fill="black"/>
<path d="M46.1049 233.159C44.9996 233.44 45.1939 233.795 44.2274 234.254C43.7761 233.635 43.4512 232.999 42.8317 232.665L40.483 231.363L42.5423 236.524C42.6121 236.696 42.447 237.03 42.3093 237.103C42.0798 237.196 41.8895 237.056 41.779 236.783C41.8227 235.697 41.718 234.821 41.6059 234.215C41.4465 233.327 40.7585 229.447 38.4041 228.749C38.0587 228.638 37.754 228.628 37.5729 228.635C38.8234 231.719 40.0797 234.817 41.3301 237.901C41.4348 238.159 41.6166 238.319 41.8892 238.209L42.9506 237.778L43.2352 238.398L41.7461 238.968L42.636 241.163L44.7732 240.296L44.4413 239.395C44.3715 239.223 44.3502 238.964 44.4444 238.826C44.5242 238.693 44.9317 238.545 45.0158 238.711L45.5676 239.907C45.8804 239.814 46.2134 239.729 46.5003 239.612L53.9017 236.611C54.2029 236.489 54.5041 236.367 54.8054 236.245C54.477 236.094 54.0912 235.967 53.6741 235.885C51.6977 235.501 50.0462 236.371 49.3841 236.756C48.3068 237.477 47.2151 238.204 46.1378 238.924C46.0858 238.879 45.9618 238.779 45.9005 238.586C45.8482 238.457 45.8388 238.311 45.8842 238.175L49.3984 236.75C50.0784 236.491 50.6894 236.227 51.3717 235.85C50.4141 235.754 49.7639 235.634 48.992 235.295C48.1194 234.914 47.0161 235.612 46.6036 235.295C46.3151 235.078 46.5515 234.013 46.1107 233.173L46.1049 233.159Z" fill="black"/>
<path d="M72.4268 171.946C71.8588 170.957 72.2492 170.849 71.9052 169.836C71.147 169.943 70.4639 170.153 69.7932 169.94L67.2228 169.162L72.3606 167.045C72.5327 166.976 72.6575 166.624 72.6137 166.475C72.5207 166.246 72.2877 166.207 72.0151 166.317C71.2658 167.105 70.5641 167.64 70.0513 167.982C69.3035 168.485 66.0401 170.694 63.8989 169.491C63.579 169.32 63.3596 169.108 63.2382 168.974C66.3222 167.723 69.4204 166.467 72.5043 165.217C72.7625 165.112 73.004 165.131 73.1145 165.404L73.5449 166.465L74.1877 166.238L73.56 164.772L75.7546 163.882L76.6211 166.019L75.7435 166.409C75.5713 166.478 75.3709 166.643 75.3372 166.807C75.2977 166.957 75.4749 167.353 75.6528 167.297L76.8953 166.86C77.0461 167.15 77.2171 167.448 77.3334 167.735L80.3345 175.136C80.4566 175.437 80.5788 175.739 80.7009 176.04C80.364 175.909 80.0038 175.721 79.6549 175.479C78.0026 174.328 77.4768 172.537 77.2922 171.793C77.0591 170.518 76.8202 169.229 76.5871 167.954C76.5181 167.949 76.36 167.929 76.1793 168.019C76.0502 168.071 75.9386 168.167 75.8731 168.294L77.298 171.808C77.5857 172.476 77.8214 173.099 78.0262 173.851C77.2903 173.231 76.751 172.848 75.9706 172.53C75.0894 172.169 74.8218 170.891 74.307 170.816C73.9503 170.76 73.351 171.671 72.4411 171.94L72.4268 171.946Z" fill="black"/>
<path d="M90.2081 215.593C90.4892 216.699 90.8447 216.504 91.3034 217.471C90.6847 217.922 90.0482 218.247 89.7148 218.867L88.4123 221.215L93.5734 219.156C93.7455 219.086 94.0797 219.251 94.1522 219.389C94.2452 219.618 94.1053 219.809 93.8328 219.919C92.7461 219.876 91.87 219.98 91.264 220.092C90.3766 220.252 86.4968 220.94 85.7979 223.294C85.6875 223.64 85.6774 223.944 85.684 224.125C88.7679 222.875 91.8662 221.619 94.9501 220.368C95.2083 220.264 95.3684 220.082 95.2579 219.809L94.8275 218.748L95.447 218.463L96.0174 219.952L98.212 219.062L97.3454 216.925L96.4444 217.257C96.2723 217.327 96.0137 217.348 95.8753 217.254C95.7427 217.174 95.5942 216.767 95.7605 216.683L96.9565 216.131C96.863 215.818 96.7781 215.485 96.6618 215.198L93.6607 207.797C93.5386 207.495 93.4164 207.194 93.2943 206.893C93.1435 207.221 93.016 207.607 92.9346 208.024C92.5501 210.001 93.4202 211.652 93.8056 212.314C94.5263 213.392 95.2529 214.483 95.9737 215.561C95.9279 215.612 95.8279 215.737 95.6356 215.798C95.5065 215.85 95.36 215.859 95.2247 215.814L93.7998 212.3C93.5407 211.62 93.2763 211.009 92.8994 210.327C92.8034 211.284 92.6828 211.934 92.3444 212.706C91.9634 213.579 92.6613 214.682 92.3442 215.095C92.1271 215.383 91.0625 215.147 90.2224 215.588L90.2081 215.593Z" fill="black"/>
<path d="M27.8706 214.881C26.8619 214.288 26.7343 214.674 25.7008 214.308C25.8236 213.54 26.0387 212.835 25.8371 212.131L25.0686 209.453L22.8141 214.727C22.7374 214.908 22.373 215.039 22.226 214.965C21.9756 214.883 21.9543 214.624 22.0736 214.342C22.9036 213.588 23.4607 212.861 23.8347 212.342C24.36 211.578 26.6983 208.241 25.4921 206.008C25.3095 205.681 25.0986 205.449 24.9629 205.321C23.6298 208.5 22.2766 211.671 20.9436 214.851C20.8327 215.113 20.8482 215.357 21.1305 215.476L22.2048 215.943L21.9664 216.59L20.4629 215.931L19.5163 218.168L21.6994 219.104L22.1177 218.199C22.2002 218.032 22.3774 217.81 22.5325 217.781C22.6875 217.751 23.0966 217.936 23.0341 218.112L22.5659 219.387C22.8656 219.549 23.1568 219.732 23.4592 219.86L31.0594 223.075C31.3618 223.203 31.6844 223.339 31.9868 223.467C31.8472 223.123 31.6758 222.741 31.4269 222.375C30.2634 220.659 28.4211 220.069 27.6585 219.878C26.3322 219.614 25.0203 219.344 23.6999 219.094C23.6909 219.031 23.6843 218.85 23.7754 218.663C23.8409 218.536 23.9409 218.412 24.0642 218.345L27.6643 219.892C28.3497 220.182 28.9949 220.455 29.7633 220.661C29.1301 219.882 28.7509 219.318 28.4252 218.514C28.053 217.596 26.7496 217.307 26.681 216.766C26.6274 216.387 27.5761 215.802 27.8648 214.867L27.8706 214.881Z" fill="black"/>
<path d="M70.7386 232.824C70.1455 233.833 70.5313 233.961 70.1654 234.994C69.3974 234.871 68.6922 234.656 67.9889 234.858L65.3109 235.626L70.5843 237.881C70.7657 237.958 70.8968 238.322 70.8227 238.469C70.7405 238.719 70.482 238.741 70.1997 238.621C69.4456 237.791 68.7187 237.234 68.1996 236.86C67.4354 236.335 64.0989 233.997 61.8656 235.203C61.5388 235.386 61.3069 235.596 61.1782 235.732C64.3577 237.065 67.5286 238.418 70.708 239.751C70.9701 239.862 71.2144 239.847 71.3337 239.565L71.8001 238.49L72.4479 238.729L71.7881 240.232L74.0402 241.173L74.9756 238.99L74.0711 238.572C73.904 238.489 73.6818 238.312 73.6524 238.157C73.6229 238.002 73.8078 237.593 73.9834 237.655L75.2589 238.123C75.4213 237.824 75.6039 237.532 75.7318 237.23L78.9468 229.63C79.0747 229.327 79.2111 229.005 79.3391 228.702C78.9948 228.842 78.6133 229.013 78.2466 229.262C76.5304 230.426 75.9413 232.268 75.7494 233.031C75.4855 234.357 75.2157 235.669 74.9661 236.989C74.903 236.998 74.7219 237.005 74.5347 236.914C74.4079 236.848 74.2838 236.748 74.2171 236.625L75.7638 233.025C76.0537 232.339 76.3266 231.694 76.5328 230.926C75.754 231.559 75.1895 231.938 74.3863 232.264C73.4683 232.636 73.1784 233.94 72.6383 234.008C72.2592 234.062 71.6741 233.113 70.7386 232.824Z" fill="black"/>
<path d="M46.8151 171.474C45.687 171.163 45.875 170.803 44.8925 170.316C44.427 170.939 44.0707 171.585 43.4257 171.93L40.9686 173.244L43.1827 167.953C43.2595 167.772 43.0997 167.419 42.9443 167.365C42.7109 167.243 42.5105 167.407 42.3911 167.69C42.428 168.81 42.2943 169.716 42.1823 170.346C41.9997 171.255 41.2339 175.257 38.7912 175.947C38.4295 176.044 38.1163 176.054 37.9294 176.046C39.2826 172.875 40.6156 169.696 41.9688 166.525C42.0797 166.263 42.2658 166.104 42.548 166.223L43.6308 166.669L43.9297 166.047L42.4092 165.427L43.3701 163.184L45.5617 164.099L45.2039 165.029C45.1415 165.205 45.1055 165.487 45.1923 165.618C45.2792 165.75 45.6967 165.915 45.7793 165.748L46.3685 164.524C46.6938 164.625 47.0275 164.707 47.3299 164.835L54.9302 168.05C55.2326 168.178 55.5552 168.314 55.8576 168.442C55.5133 168.582 55.1202 168.725 54.6837 168.801C52.6418 169.162 50.936 168.25 50.2672 167.836C49.1541 167.068 48.0469 166.315 46.9481 165.541C46.8966 165.579 46.762 165.7 46.6911 165.896C46.6458 166.031 46.6264 166.189 46.6644 166.324L50.2815 167.831C50.967 168.121 51.6121 168.393 52.2952 168.801C51.2954 168.889 50.6262 169.01 49.823 169.336C48.905 169.708 47.7892 168.975 47.3539 169.302C47.0445 169.527 47.2853 170.615 46.8151 171.474Z" fill="black"/>
<path d="M89.5564 190.137C90.5651 190.73 90.6927 190.344 91.7262 190.71C91.6034 191.478 91.3883 192.183 91.5899 192.886L92.3584 195.564L94.6129 190.291C94.6896 190.109 95.054 189.978 95.201 190.052C95.4514 190.135 95.4728 190.393 95.3534 190.675C94.5234 191.43 93.9663 192.156 93.5923 192.676C93.067 193.44 90.7287 196.776 91.9349 199.01C92.1175 199.336 92.3285 199.568 92.4641 199.697C93.7972 196.517 95.1504 193.347 96.4834 190.167C96.5943 189.905 96.5788 189.661 96.2965 189.541L95.2222 189.075L95.4606 188.427L96.9641 189.087L97.9048 186.835L95.7218 185.9L95.3035 186.804C95.221 186.971 95.0438 187.193 94.8887 187.223C94.7336 187.252 94.3246 187.067 94.387 186.892L94.8553 185.616C94.5556 185.454 94.2644 185.271 93.962 185.143L86.3618 181.928C86.0594 181.8 85.7368 181.664 85.4344 181.536C85.574 181.88 85.7454 182.262 85.9943 182.629C87.1578 184.345 89.0001 184.934 89.7627 185.126C91.089 185.39 92.4009 185.659 93.7213 185.909C93.7303 185.972 93.7369 186.153 93.6458 186.341C93.5803 186.467 93.4802 186.591 93.357 186.658L89.7569 185.111C89.0715 184.821 88.4263 184.549 87.6579 184.342C88.2911 185.121 88.6703 185.686 88.996 186.489C89.3682 187.407 90.6716 187.697 90.7402 188.237C90.7937 188.616 89.8451 189.201 89.5564 190.137Z" fill="black"/>
<path d="M46.9139 86.3706C47.4841 85.3878 47.1042 85.2747 47.4674 84.2756C48.2152 84.3899 48.9061 84.6108 49.5748 84.4065L52.161 83.6585L47.0633 81.4665C46.902 81.3983 46.7709 81.0338 46.8306 80.8927C46.9186 80.6566 47.157 80.6268 47.4393 80.7461C48.1616 81.5389 48.8683 82.0874 49.3817 82.4472C50.1256 82.9639 53.3439 85.2165 55.5114 84.0537C55.8238 83.8769 56.0471 83.6862 56.1901 83.5447C53.1259 82.2485 50.0472 80.9581 46.9829 79.6618C46.7208 79.551 46.4824 79.5808 46.3716 79.8429L45.9138 80.8971L45.2861 80.6672L45.9346 79.2184L43.7573 78.2974L42.8418 80.4057L43.7117 80.8212C43.8788 80.9038 44.0808 81.0724 44.1246 81.2216C44.1685 81.3709 43.9777 81.7656 43.8021 81.7032L42.567 81.252C42.4189 81.5458 42.2363 81.837 42.1169 82.1192L39.0043 89.4776C38.8764 89.78 38.7485 90.0824 38.6205 90.3848C38.9504 90.251 39.3176 90.0854 39.67 89.8424C41.3346 88.7164 41.8982 86.9346 42.0815 86.1922C42.3342 84.9206 42.5954 83.6288 42.8481 82.3572C42.9113 82.3483 43.078 82.3475 43.2594 82.4243C43.3862 82.4898 43.5044 82.5755 43.5711 82.6987L42.0757 86.1779C41.7943 86.8431 41.5299 87.4681 41.3322 88.2163C42.0823 87.5948 42.6383 87.2358 43.3985 86.9276C44.2878 86.567 44.5665 85.3182 45.0863 85.241C45.4511 85.1933 46.0246 86.1133 46.9256 86.3993L46.9139 86.3706Z" fill="black"/>
<path d="M28.5216 130.272C27.5388 129.702 27.4256 130.082 26.4266 129.719C26.5409 128.971 26.7618 128.28 26.5575 127.611L25.8095 125.025L23.6174 130.123C23.5492 130.284 23.1848 130.415 23.0437 130.355C22.8076 130.267 22.7777 130.029 22.8971 129.747C23.6899 129.025 24.2384 128.318 24.5981 127.804C25.1149 127.06 27.3675 123.842 26.2047 121.675C26.0279 121.362 25.8372 121.139 25.6956 120.996C24.3994 124.06 23.109 127.139 21.8128 130.203C21.7019 130.465 21.7318 130.704 21.9939 130.815L23.048 131.272L22.8182 131.9L21.3694 131.251L20.4484 133.429L22.5566 134.344L22.9722 133.474C23.0547 133.307 23.2234 133.105 23.3726 133.061C23.5219 133.018 23.9165 133.208 23.8541 133.384L23.4029 134.619C23.6968 134.767 23.988 134.95 24.2702 135.069L31.6286 138.182C31.931 138.31 32.2334 138.438 32.5357 138.566C32.402 138.236 32.2364 137.869 31.9933 137.516C30.8674 135.851 29.0856 135.288 28.3432 135.105C27.0716 134.852 25.7798 134.591 24.5082 134.338C24.4993 134.275 24.4985 134.108 24.5752 133.927C24.6408 133.8 24.7264 133.682 24.8497 133.615L28.3288 135.11C28.9941 135.392 29.6191 135.656 30.3673 135.854C29.7458 135.104 29.3868 134.548 29.0785 133.788C28.7179 132.898 27.4692 132.62 27.392 132.1C27.3443 131.735 28.2642 131.162 28.5503 130.261L28.5216 130.272Z" fill="black"/>
<path d="M90.4235 105.607C90.7316 104.513 91.0774 104.707 91.5414 103.751C90.9386 103.294 90.2989 102.952 89.9798 102.33L88.7154 99.9528L93.8387 102.084C94 102.153 94.3528 101.993 94.4125 101.852C94.5206 101.624 94.376 101.432 94.0937 101.313C93.0218 101.347 92.136 101.221 91.5203 101.104C90.6314 100.93 86.7735 100.189 86.0984 97.8238C86.0077 97.4765 85.9891 97.1834 85.991 96.9822C89.0553 98.2784 92.1254 99.589 95.1897 100.885C95.4518 100.996 95.5964 101.188 95.4855 101.45L95.0479 102.513L95.65 102.803L96.238 101.329L98.4153 102.25L97.54 104.375L96.6359 104.04C96.4603 103.978 96.1986 103.95 96.061 104.023C95.9234 104.095 95.773 104.507 95.9401 104.589L97.1241 105.162C97.0163 105.472 96.9345 105.806 96.8152 106.089L93.7025 113.447C93.5746 113.749 93.4467 114.052 93.3188 114.354C93.185 114.024 93.0481 113.645 92.9772 113.223C92.6258 111.245 93.512 109.599 93.917 108.951C94.6536 107.884 95.3986 106.797 96.1351 105.73C96.0975 105.678 95.982 105.558 95.8006 105.481C95.6653 105.436 95.5214 105.411 95.3865 105.449L93.9314 108.945C93.65 109.61 93.3856 110.235 92.9863 110.898C92.9099 109.927 92.7804 109.278 92.4721 108.518C92.1115 107.628 92.8136 106.559 92.5069 106.132C92.2871 105.837 91.2275 106.066 90.3948 105.619L90.4235 105.607Z" fill="black"/>
<path d="M72.123 149.037C71.5528 150.02 71.9327 150.133 71.5695 151.132C70.8217 151.017 70.1308 150.797 69.4621 151.001L66.8759 151.749L71.9737 153.941C72.1349 154.009 72.266 154.374 72.2063 154.515C72.1183 154.751 71.8799 154.781 71.5977 154.661C70.8754 153.868 70.1686 153.32 69.6553 152.96C68.9113 152.443 65.693 150.191 63.5256 151.354C63.2131 151.53 62.9898 151.721 62.8468 151.863C65.9111 153.159 68.9897 154.449 72.054 155.746C72.3161 155.856 72.5545 155.827 72.6654 155.564L73.1232 154.51L73.7508 154.74L73.1023 156.189L75.2796 157.11L76.1952 155.002L75.3252 154.586C75.1581 154.504 74.9561 154.335 74.9123 154.186C74.8685 154.036 75.0592 153.642 75.2348 153.704L76.47 154.155C76.6181 153.862 76.8006 153.57 76.92 153.288L80.0327 145.93C80.1606 145.627 80.2885 145.325 80.4164 145.023C80.0865 145.156 79.7194 145.322 79.367 145.565C77.7024 146.691 77.1388 148.473 76.9555 149.215C76.7028 150.487 76.4415 151.779 76.1889 153.05C76.1257 153.059 75.959 153.06 75.7775 152.983C75.6507 152.918 75.5325 152.832 75.4658 152.709L76.9613 149.23C77.2427 148.564 77.507 147.939 77.7047 147.191C76.9546 147.813 76.3987 148.172 75.6385 148.48C74.7491 148.84 74.4705 150.089 73.9506 150.166C73.5858 150.214 73.0124 149.294 72.1114 149.008L72.123 149.037Z" fill="black"/>
<path d="M28.5581 104.453C28.2653 103.319 27.8897 103.504 27.4252 102.524C28.0582 102.067 28.7177 101.716 29.0596 101.076L30.4105 98.6409L25.0773 100.77C24.9052 100.84 24.5566 100.68 24.4841 100.543C24.3853 100.299 24.5395 100.103 24.8264 99.9865C25.9476 100.033 26.8582 99.9309 27.4785 99.813C28.3946 99.642 32.4008 98.9362 33.1338 96.5011C33.2384 96.1413 33.2485 95.8366 33.2504 95.6354C30.0518 96.9324 26.8675 98.2236 23.6688 99.5205C23.3963 99.631 23.2361 99.8129 23.3525 100.1L23.7945 101.19L23.1463 101.486L22.5585 99.954L20.2922 100.873L21.1735 103.088L22.1031 102.744C22.2753 102.674 22.554 102.662 22.7009 102.736C22.8335 102.815 22.9937 103.252 22.8215 103.321L21.5826 103.891C21.6818 104.218 21.7667 104.551 21.8889 104.852L24.9888 112.497C25.1168 112.813 25.2447 113.128 25.3727 113.444C25.5177 113.101 25.6595 112.71 25.7351 112.278C26.1308 110.247 25.2317 108.524 24.8261 107.853C24.0736 106.739 23.3354 105.618 22.577 104.489C22.6227 104.438 22.7371 104.308 22.9294 104.246C23.0585 104.194 23.2194 104.179 23.3547 104.224L24.8261 107.853C25.0909 108.548 25.367 109.187 25.7497 109.884C25.8485 108.892 25.9775 108.221 26.3245 107.429C26.7226 106.516 25.9987 105.39 26.3243 104.958C26.5499 104.649 27.6405 104.908 28.5093 104.456L28.5581 104.453Z" fill="black"/>
<path d="M46.1812 147.463C45.0473 147.756 45.233 148.132 44.2522 148.596C43.7951 147.963 43.4442 147.304 42.8045 146.962L40.3694 145.611L42.4985 150.944C42.5683 151.116 42.409 151.465 42.2713 151.537C42.0275 151.636 41.8313 151.482 41.715 151.195C41.7615 150.074 41.6594 149.163 41.5415 148.543C41.3705 147.627 40.6647 143.621 38.2296 142.888C37.8699 142.783 37.5652 142.773 37.364 142.771C38.6609 145.97 39.9521 149.154 41.2491 152.353C41.3596 152.625 41.5414 152.785 41.8283 152.669L42.9184 152.227L43.2146 152.875L41.6826 153.463L42.6015 155.729L44.8163 154.848L44.4727 153.918C44.4029 153.746 44.3901 153.467 44.4642 153.32C44.544 153.188 44.9801 153.028 45.0499 153.2L45.6191 154.439C45.9463 154.34 46.2793 154.255 46.5806 154.132L54.2258 151.033C54.5414 150.905 54.8569 150.777 55.1725 150.649C54.8298 150.504 54.4382 150.362 54.0067 150.286C51.9756 149.891 50.2524 150.79 49.5818 151.195C48.4673 151.948 47.3469 152.686 46.218 153.444C46.1661 153.399 46.0362 153.284 45.9749 153.092C45.9226 152.963 45.9075 152.802 45.9528 152.667L49.5818 151.195C50.2761 150.93 50.9158 150.654 51.6124 150.272C50.6203 150.173 49.95 150.044 49.158 149.697C48.245 149.299 47.1188 150.023 46.6861 149.697C46.3775 149.471 46.6368 148.381 46.1843 147.512L46.1812 147.463Z" fill="black"/>
<path d="M72.654 87.1577C72.0743 86.1401 72.4733 86.0117 72.1235 84.9844C71.3509 85.0973 70.6333 85.3047 69.9424 85.0838L67.2771 84.2772L72.587 82.0907C72.7591 82.021 72.8983 81.6639 72.8545 81.5146C72.7556 81.2708 72.5082 81.2375 72.2214 81.3538C71.4492 82.168 70.7246 82.729 70.1974 83.0764C69.4209 83.5916 66.0544 85.8753 63.8326 84.6383C63.5069 84.453 63.2875 84.2414 63.146 84.0983C66.3446 82.8013 69.5289 81.5102 72.7276 80.2132C73.0001 80.1027 73.2417 80.1217 73.358 80.4086L73.8 81.4987L74.4715 81.2598L73.8263 79.751L76.0926 78.8321L77.0026 81.0352L76.0962 81.4361C75.9241 81.5059 75.7152 81.6909 75.6613 81.8463C75.6217 81.996 75.8106 82.4205 75.9827 82.3507L77.2682 81.8962C77.4249 82.2002 77.5958 82.4983 77.718 82.7995L80.8179 90.4447C80.9459 90.7603 81.0738 91.0759 81.2018 91.3914C80.8591 91.2465 80.4846 91.0643 80.1298 90.8073C78.4313 89.6253 77.8764 87.7626 77.7004 86.9988C77.4642 85.6749 77.2137 84.3568 76.9717 83.0186C76.9027 83.0132 76.7302 82.9996 76.5495 83.0896C76.4204 83.1419 76.2944 83.2431 76.2289 83.3699L77.7004 86.9988C77.9939 87.6815 78.2413 88.3328 78.4518 89.0992C77.69 88.4561 77.1306 88.065 76.33 87.7382C75.4085 87.3603 75.1436 86.048 74.6086 85.9643C74.2318 85.9 73.6298 86.8456 72.6912 87.1259L72.654 87.1577Z" fill="black"/>
<path d="M89.6754 130.579C89.9682 131.713 90.3438 131.527 90.8083 132.508C90.1753 132.965 89.5159 133.316 89.174 133.956L87.823 136.391L93.1562 134.262C93.3284 134.192 93.6769 134.351 93.7494 134.489C93.8483 134.733 93.694 134.929 93.4071 135.045C92.2859 134.999 91.3753 135.101 90.755 135.219C89.8389 135.39 85.8327 136.095 85.0997 138.53C84.9951 138.89 84.985 139.195 84.9831 139.396C88.1818 138.099 91.3661 136.808 94.5647 135.511C94.8373 135.401 94.9974 135.219 94.8811 134.932L94.439 133.842L95.0872 133.545L95.675 135.078L97.9413 134.159L97.06 131.944L96.1304 132.287C95.9583 132.357 95.6795 132.37 95.5326 132.296C95.4 132.216 95.2399 131.78 95.412 131.71L96.651 131.141C96.5517 130.814 96.4668 130.481 96.3446 130.18L93.2447 122.534C93.1167 122.219 92.9888 121.903 92.8608 121.588C92.7159 121.93 92.574 122.322 92.4984 122.753C92.1027 124.784 93.0019 126.508 93.4074 127.178C94.16 128.293 94.8982 129.413 95.6565 130.542C95.6108 130.594 95.4964 130.724 95.3041 130.785C95.1751 130.838 95.0142 130.853 94.8789 130.807L93.4074 127.178C93.1426 126.484 92.8665 125.844 92.4838 125.148C92.385 126.14 92.256 126.81 91.9091 127.602C91.511 128.515 92.2348 129.641 91.9092 130.074C91.6836 130.383 90.593 130.123 89.7243 130.576L89.6754 130.579Z" fill="black"/>
<path d="M132.895 27.0555C134.001 26.7744 133.806 26.4189 134.773 25.9602C135.224 26.5789 135.549 27.2155 136.169 27.5489L138.517 28.8513L136.458 23.6903C136.388 23.5181 136.553 23.184 136.691 23.1115C136.92 23.0184 137.111 23.1583 137.221 23.4309C137.177 24.5175 137.282 25.3937 137.394 25.9996C137.554 26.887 138.242 30.7669 140.596 31.4657C140.941 31.5762 141.246 31.5862 141.427 31.5796C140.177 28.4957 138.921 25.3975 137.67 22.3135C137.565 22.0554 137.384 21.8953 137.111 22.0058L136.05 22.4362L135.765 21.8167L137.254 21.2463L136.364 19.0517L134.227 19.9183L134.559 20.8192C134.629 20.9914 134.65 21.2499 134.556 21.3883C134.476 21.5209 134.068 21.6694 133.984 21.5031L133.433 20.3072C133.12 20.4006 132.787 20.4855 132.5 20.6019L125.098 23.603C124.797 23.7251 124.496 23.8472 124.195 23.9694C124.523 24.1201 124.909 24.2477 125.326 24.3291C127.303 24.7135 128.954 23.8435 129.616 23.4581C130.693 22.7373 131.785 22.0107 132.862 21.29C132.914 21.3357 133.038 21.4357 133.1 21.628C133.152 21.7571 133.161 21.9037 133.116 22.039L129.602 23.4639C128.922 23.7229 128.311 23.9873 127.629 24.3642C128.586 24.4603 129.236 24.5808 130.008 24.9192C130.881 25.3003 131.984 24.6024 132.397 24.9195C132.685 25.1365 132.449 26.2011 132.889 27.0412L132.895 27.0555Z" fill="black"/>
<path d="M88.8522 45.0977C88.571 43.9924 88.2156 44.1867 87.7569 43.2202C88.3756 42.7689 89.0121 42.444 89.3455 41.8245L90.648 39.4758L85.4869 41.5351C85.3148 41.6049 84.9806 41.4398 84.9081 41.3022C84.815 41.0727 84.955 40.8823 85.2275 40.7718C86.3142 40.8155 87.1903 40.7108 87.7963 40.5987C88.6836 40.4393 92.5635 39.7514 93.2623 37.3969C93.3728 37.0515 93.3829 36.7468 93.3763 36.5658C90.2924 37.8162 87.1941 39.0725 84.1102 40.3229C83.852 40.4276 83.6919 40.6094 83.8024 40.882L84.2328 41.9434L83.6133 42.228L83.0429 40.739L80.8483 41.6288L81.7149 43.7661L82.6159 43.4341C82.788 43.3644 83.0466 43.343 83.185 43.4372C83.3176 43.5171 83.4661 43.9245 83.2998 44.0086L82.1038 44.5604C82.1973 44.8732 82.2822 45.2062 82.3985 45.4931L85.3996 52.8945C85.5217 53.1957 85.6439 53.497 85.766 53.7982C85.9168 53.4698 86.0443 53.0841 86.1257 52.6669C86.5102 50.6905 85.6401 49.039 85.2547 48.3769C84.534 47.2996 83.8074 46.2079 83.0866 45.1306C83.1324 45.0786 83.2324 44.9546 83.4247 44.8933C83.5538 44.841 83.7003 44.8317 83.8356 44.877L85.2605 48.3912C85.5195 49.0712 85.784 49.6822 86.1608 50.3645C86.2569 49.4069 86.3775 48.7568 86.7159 47.9849C87.0969 47.1122 86.399 46.0089 86.7161 45.5964C86.9332 45.3079 87.9978 45.5444 88.8378 45.1035L88.8522 45.0977Z" fill="black"/>
<path d="M150.051 71.4249C151.04 70.8568 151.148 71.2472 152.161 70.9033C152.054 70.145 151.844 69.4619 152.056 68.7912L152.835 66.2209L154.951 71.3586C155.021 71.5308 155.372 71.6556 155.521 71.6118C155.751 71.5187 155.79 71.2857 155.68 71.0132C154.891 70.2638 154.356 69.5622 154.015 69.0493C153.511 68.3015 151.303 65.0381 152.506 62.8969C152.677 62.5771 152.888 62.3576 153.023 62.2363C154.273 65.3202 155.529 68.4185 156.78 71.5024C156.885 71.7606 156.866 72.0021 156.593 72.1126L155.532 72.543L155.759 73.1857L157.225 72.558L158.114 74.7526L155.977 75.6192L155.588 74.7415C155.518 74.5694 155.353 74.369 155.189 74.3352C155.04 74.2957 154.644 74.4729 154.699 74.6508L155.136 75.8933C154.847 76.0442 154.549 76.2151 154.262 76.3315L146.86 79.3325C146.559 79.4547 146.258 79.5768 145.957 79.699C146.087 79.362 146.275 79.0019 146.518 78.653C147.669 77.0006 149.46 76.4748 150.203 76.2902C151.478 76.0571 152.768 75.8183 154.043 75.5852C154.048 75.5162 154.068 75.358 153.978 75.1773C153.925 75.0483 153.83 74.9366 153.703 74.8711L150.189 76.296C149.521 76.5837 148.898 76.8195 148.146 77.0242C148.766 76.2884 149.149 75.7491 149.467 74.9687C149.828 74.0874 151.106 73.8199 151.181 73.305C151.237 72.9484 150.325 72.3491 150.057 71.4392L150.051 71.4249Z" fill="black"/>
<path d="M106.403 89.2064C105.298 89.4875 105.492 89.843 104.526 90.3017C104.074 89.683 103.75 89.0464 103.13 88.7131L100.781 87.4106L102.841 92.5717C102.91 92.7438 102.745 93.078 102.608 93.1505C102.378 93.2435 102.188 93.1036 102.077 92.8311C102.121 91.7444 102.016 90.8683 101.904 90.2623C101.745 89.3749 101.057 85.4951 98.7025 84.7962C98.357 84.6858 98.0523 84.6757 97.8713 84.6823C99.1217 87.7662 100.378 90.8645 101.628 93.9484C101.733 94.2066 101.915 94.3667 102.188 94.2562L103.249 93.8258L103.534 94.4453L102.044 95.0156L102.934 97.2102L105.072 96.3436L104.74 95.4427C104.67 95.2706 104.649 95.012 104.743 94.8736C104.823 94.741 105.23 94.5925 105.314 94.7588L105.866 95.9548C106.179 95.8613 106.512 95.7764 106.799 95.6601L114.2 92.659C114.501 92.5368 114.802 92.4147 115.104 92.2926C114.775 92.1418 114.39 92.0143 113.972 91.9329C111.996 91.5484 110.345 92.4185 109.682 92.8039C108.605 93.5246 107.513 94.2512 106.436 94.972C106.384 94.9262 106.26 94.8262 106.199 94.6339C106.147 94.5048 106.137 94.3583 106.183 94.223L109.697 92.798C110.377 92.539 110.988 92.2746 111.67 91.8977C110.712 91.8016 110.062 91.6811 109.29 91.3427C108.418 90.9617 107.314 91.6596 106.902 91.3425C106.613 91.1254 106.85 90.0608 106.409 89.2207L106.403 89.2064Z" fill="black"/>
<path d="M107.13 26.8635C107.723 25.8547 107.337 25.7272 107.703 24.6936C108.471 24.8165 109.176 25.0316 109.879 24.83L112.558 24.0614L107.284 21.807C107.103 21.7302 106.972 21.3658 107.046 21.2189C107.128 20.9684 107.386 20.9471 107.669 21.0665C108.423 21.8965 109.15 22.4535 109.669 22.8276C110.433 23.3529 113.77 25.6911 116.003 24.4849C116.33 24.3023 116.561 24.0914 116.69 23.9557C113.511 22.6227 110.34 21.2695 107.16 19.9364C106.898 19.8256 106.654 19.8411 106.535 20.1233L106.068 21.1976L105.421 20.9592L106.08 19.4558L103.828 18.515L102.893 20.6981L103.797 21.1163C103.964 21.1989 104.187 21.3761 104.216 21.5311C104.246 21.6862 104.061 22.0952 103.885 22.0328L102.61 21.5646C102.447 21.8643 102.265 22.1554 102.137 22.4578L98.9217 30.0581C98.7937 30.3605 98.6573 30.683 98.5294 30.9854C98.8736 30.8459 99.2551 30.6745 99.6218 30.4256C101.338 29.262 101.927 27.4197 102.119 26.6572C102.383 25.3309 102.653 24.019 102.902 22.6985C102.965 22.6896 103.147 22.683 103.334 22.7741C103.461 22.8396 103.585 22.9396 103.651 23.0629L102.105 26.663C101.815 27.3484 101.542 27.9935 101.336 28.7619C102.114 28.1288 102.679 27.7496 103.482 27.4239C104.4 27.0517 104.69 25.7483 105.23 25.6796C105.609 25.6261 106.194 26.5747 107.13 26.8635Z" fill="black"/>
<path d="M89.1724 69.7371C88.1636 69.144 88.0361 69.5297 87.0025 69.1638C87.1254 68.3958 87.3405 67.6906 87.1389 66.9874L86.3703 64.3093L84.1159 69.5827C84.0391 69.7641 83.6747 69.8952 83.5278 69.8212C83.2773 69.739 83.256 69.4804 83.3754 69.1982C84.2054 68.4441 84.7624 67.7171 85.1365 67.198C85.6618 66.4339 88 63.0974 86.7938 60.864C86.6112 60.5372 86.4003 60.3054 86.2646 60.1767C84.9316 63.3561 83.5784 66.527 82.2453 69.7065C82.1345 69.9686 82.15 70.2128 82.4322 70.3322L83.5065 70.7985L83.2681 71.4463L81.7647 70.7866L80.8239 73.0387L83.007 73.974L83.4252 73.0695C83.5078 72.9024 83.685 72.6803 83.84 72.6508C83.9951 72.6213 84.4041 72.8062 84.3417 72.9819L83.8735 74.2574C84.1732 74.4198 84.4643 74.6024 84.7667 74.7303L92.367 77.9452C92.6694 78.0731 92.9919 78.2096 93.2943 78.3375C93.1548 77.9932 92.9834 77.6118 92.7345 77.2451C91.5709 75.5289 89.7286 74.9397 88.9661 74.7478C87.6398 74.4839 86.3279 74.2142 85.0074 73.9646C84.9985 73.9014 84.9919 73.7203 85.083 73.5331C85.1485 73.4063 85.2485 73.2823 85.3718 73.2156L88.9719 74.7622C89.6573 75.0521 90.3024 75.325 91.0708 75.5312C90.4377 74.7524 90.0585 74.188 89.7328 73.3847C89.3606 72.4667 88.0572 72.1768 87.9885 71.6368C87.935 71.2576 88.8836 70.6726 89.1724 69.7371Z" fill="black"/>
<path d="M150.522 45.8131C150.833 44.6849 151.193 44.8729 151.68 43.8905C151.057 43.4249 150.411 43.0687 150.066 42.4236L148.753 39.9666L154.043 42.1807C154.224 42.2574 154.577 42.0977 154.631 41.9422C154.754 41.7088 154.589 41.5084 154.307 41.389C153.186 41.4259 152.28 41.2922 151.65 41.1802C150.741 40.9977 146.739 40.2319 146.049 37.7891C145.953 37.4274 145.943 37.1142 145.95 36.9273C149.121 38.2805 152.301 39.6136 155.472 40.9668C155.734 41.0776 155.893 41.2637 155.773 41.546L155.327 42.6288L155.949 42.9276L156.569 41.4071L158.812 42.368L157.897 44.5596L156.967 44.2019C156.791 44.1395 156.51 44.1034 156.378 44.1903C156.246 44.2771 156.081 44.6947 156.248 44.7772L157.473 45.3664C157.371 45.6917 157.289 46.0255 157.161 46.3279L153.946 53.9282C153.818 54.2306 153.682 54.5531 153.554 54.8555C153.414 54.5113 153.271 54.1182 153.195 53.6816C152.834 51.6398 153.746 49.9339 154.16 49.2651C154.928 48.1521 155.681 47.0448 156.455 45.9461C156.417 45.8945 156.296 45.76 156.1 45.6891C155.965 45.6437 155.807 45.6243 155.672 45.6623L154.166 49.2795C153.876 49.9649 153.603 50.61 153.195 51.2931C153.107 50.2933 152.986 49.6242 152.66 48.8209C152.288 47.9029 153.021 46.7872 152.695 46.3518C152.469 46.0425 151.381 46.2833 150.522 45.8131Z" fill="black"/>
<path d="M131.86 88.5547C131.267 89.5635 131.652 89.691 131.286 90.7246C130.518 90.6017 129.813 90.3866 129.11 90.5883L126.432 91.3568L131.705 93.6112C131.887 93.688 132.018 94.0524 131.944 94.1993C131.862 94.4498 131.603 94.4711 131.321 94.3517C130.567 93.5217 129.84 92.9647 129.321 92.5906C128.557 92.0654 125.22 89.7271 122.987 90.9333C122.66 91.1159 122.428 91.3268 122.299 91.4625C125.479 92.7955 128.65 94.1487 131.829 95.4818C132.091 95.5926 132.335 95.5771 132.455 95.2949L132.921 94.2206L133.569 94.459L132.909 95.9624L135.161 96.9032L136.097 94.7201L135.192 94.3019C135.025 94.2193 134.803 94.0421 134.773 93.8871C134.744 93.732 134.929 93.323 135.105 93.3854L136.38 93.8536C136.542 93.5539 136.725 93.2628 136.853 92.9604L140.068 85.3601C140.196 85.0577 140.332 84.7352 140.46 84.4328C140.116 84.5724 139.734 84.7437 139.368 84.9927C137.652 86.1562 137.062 87.9985 136.87 88.7611C136.607 90.0873 136.337 91.3992 136.087 92.7197C136.024 92.7286 135.843 92.7352 135.656 92.6441C135.529 92.5786 135.405 92.4786 135.338 92.3553L136.885 88.7552C137.175 88.0698 137.448 87.4247 137.654 86.6563C136.875 87.2894 136.311 87.6686 135.507 87.9943C134.589 88.3665 134.299 89.6699 133.759 89.7386C133.38 89.7921 132.795 88.8435 131.86 88.5547Z" fill="black"/>
<path d="M235.626 45.9119C236.609 46.4821 236.722 46.1022 237.721 46.4654C237.607 47.2133 237.386 47.9041 237.591 48.5728L238.339 51.159L240.531 46.0613C240.599 45.9 240.963 45.7689 241.104 45.8286C241.34 45.9166 241.37 46.1551 241.251 46.4373C240.458 47.1596 239.91 47.8664 239.55 48.3797C239.033 49.1236 236.781 52.3419 237.943 54.5094C238.12 54.8218 238.311 55.0451 238.452 55.1882C239.749 52.1239 241.039 49.0452 242.335 45.9809C242.446 45.7188 242.416 45.4804 242.154 45.3696L241.1 44.9118L241.33 44.2841L242.779 44.9326L243.7 42.7553L241.591 41.8398L241.176 42.7098C241.093 42.8769 240.925 43.0788 240.775 43.1227C240.626 43.1665 240.231 42.9758 240.294 42.8001L240.745 41.565C240.451 41.4169 240.16 41.2343 239.878 41.1149L232.519 38.0023C232.217 37.8744 231.915 37.7465 231.612 37.6185C231.746 37.9484 231.912 38.3156 232.155 38.668C233.281 40.3326 235.062 40.8962 235.805 41.0795C237.076 41.3322 238.368 41.5934 239.64 41.8461C239.649 41.9093 239.65 42.076 239.573 42.2574C239.507 42.3842 239.422 42.5024 239.298 42.5691L235.819 41.0737C235.154 40.7923 234.529 40.5279 233.781 40.3302C234.402 41.0803 234.761 41.6363 235.07 42.3965C235.43 43.2858 236.679 43.5645 236.756 44.0843C236.804 44.4491 235.884 45.0226 235.598 45.9236L235.626 45.9119Z" fill="black"/>
<path d="M191.724 27.5194C192.295 26.5366 191.915 26.4235 192.278 25.4244C193.026 25.5387 193.717 25.7596 194.385 25.5553L196.972 24.8073L191.874 22.6153C191.713 22.5471 191.581 22.1827 191.641 22.0415C191.729 21.8054 191.968 21.7756 192.25 21.8949C192.972 22.6877 193.679 23.2362 194.192 23.596C194.936 24.1127 198.154 26.3653 200.322 25.2025C200.634 25.0257 200.858 24.835 201.001 24.6935C197.936 23.3973 194.858 22.1069 191.793 20.8106C191.531 20.6998 191.293 20.7297 191.182 20.9917L190.724 22.0459L190.097 21.816L190.745 20.3672L188.568 19.4462L187.652 21.5545L188.522 21.97C188.689 22.0526 188.891 22.2212 188.935 22.3704C188.979 22.5197 188.788 22.9144 188.613 22.852L187.378 22.4008C187.229 22.6947 187.047 22.9858 186.927 23.268L183.815 30.6264C183.687 30.9288 183.559 31.2312 183.431 31.5336C183.761 31.3998 184.128 31.2342 184.481 30.9911C186.145 29.8652 186.709 28.0834 186.892 27.341C187.145 26.0694 187.406 24.7776 187.659 23.506C187.722 23.4971 187.889 23.4963 188.07 23.5731C188.197 23.6386 188.315 23.7243 188.382 23.8475L186.886 27.3267C186.605 27.9919 186.34 28.6169 186.143 29.3651C186.893 28.7436 187.449 28.3846 188.209 28.0764C189.098 27.7158 189.377 26.467 189.897 26.3898C190.262 26.3421 190.835 27.2621 191.736 27.5481L191.724 27.5194Z" fill="black"/>
<path d="M216.404 89.4149C217.498 89.7231 217.304 90.0689 218.26 90.5329C218.717 89.93 219.059 89.2903 219.682 88.9712L222.058 87.7069L219.927 92.8302C219.859 92.9915 220.018 93.3443 220.159 93.404C220.387 93.5121 220.579 93.3675 220.698 93.0852C220.665 92.0133 220.79 91.1274 220.907 90.5118C221.082 89.6228 221.822 85.765 224.187 85.0899C224.535 84.9992 224.828 84.9806 225.029 84.9825C223.733 88.0468 222.422 91.1169 221.126 94.1812C221.015 94.4433 220.823 94.5879 220.561 94.477L219.498 94.0394L219.208 94.6415L220.683 95.2295L219.762 97.4068L217.636 96.5315L217.971 95.6274C218.034 95.4518 218.061 95.1901 217.989 95.0525C217.916 94.9149 217.504 94.7645 217.422 94.9316L216.85 96.1156C216.539 96.0078 216.205 95.926 215.923 95.8066L208.564 92.694C208.262 92.5661 207.959 92.4382 207.657 92.3103C207.987 92.1765 208.366 92.0396 208.788 91.9687C210.767 91.6173 212.412 92.5034 213.061 92.9085C214.128 93.6451 215.215 94.3901 216.282 95.1266C216.333 95.089 216.453 94.9735 216.53 94.7921C216.575 94.6568 216.601 94.5129 216.563 94.378L213.066 92.9229C212.401 92.6415 211.776 92.3771 211.113 91.9778C212.084 91.9014 212.733 91.7719 213.494 91.4636C214.383 91.103 215.453 91.805 215.879 91.4984C216.174 91.2785 215.945 90.219 216.393 89.3863L216.404 89.4149Z" fill="black"/>
<path d="M172.96 71.1208C171.977 70.5506 171.864 70.9305 170.865 70.5673C170.979 69.8195 171.2 69.1286 170.996 68.4599L170.248 65.8737L168.056 70.9714C167.988 71.1327 167.623 71.2638 167.482 71.2041C167.246 71.1161 167.216 70.8777 167.336 70.5954C168.128 69.8731 168.677 69.1664 169.037 68.653C169.553 67.9091 171.806 64.6908 170.643 62.5234C170.466 62.2109 170.276 61.9876 170.134 61.8446C168.838 64.9089 167.547 67.9875 166.251 71.0518C166.14 71.3139 166.17 71.5523 166.432 71.6632L167.486 72.1209L167.257 72.7486L165.808 72.1001L164.887 74.2774L166.995 75.1929L167.411 74.323C167.493 74.1559 167.662 73.9539 167.811 73.9101C167.96 73.8662 168.355 74.057 168.293 74.2326L167.841 75.4678C168.135 75.6158 168.426 75.7984 168.709 75.9178L176.067 79.0304C176.369 79.1583 176.672 79.2863 176.974 79.4142C176.84 79.0843 176.675 78.7171 176.432 78.3648C175.306 76.7001 173.524 76.1365 172.782 75.9532C171.51 75.7005 170.218 75.4393 168.947 75.1866C168.938 75.1234 168.937 74.9567 169.014 74.7753C169.079 74.6485 169.165 74.5303 169.288 74.4636L172.767 75.959C173.433 76.2405 174.058 76.5048 174.806 76.7025C174.184 75.9524 173.825 75.3964 173.517 74.6362C173.156 73.7469 171.908 73.4682 171.83 72.9484C171.783 72.5836 172.703 72.0101 172.989 71.1092L172.96 71.1208Z" fill="black"/>
<path d="M217.544 27.5559C218.678 27.2631 218.492 26.8875 219.473 26.423C219.93 27.056 220.281 27.7154 220.921 28.0573L223.356 29.4083L221.227 24.0751C221.157 23.903 221.316 23.5544 221.454 23.4819C221.698 23.3831 221.894 23.5373 222.01 23.8242C221.964 24.9454 222.066 25.856 222.184 26.4763C222.355 27.3924 223.061 31.3986 225.496 32.1316C225.855 32.2362 226.16 32.2463 226.361 32.2482C225.064 29.0496 223.773 25.8652 222.476 22.6666C222.366 22.394 222.184 22.2339 221.897 22.3503L220.807 22.7923L220.511 22.1441L222.043 21.5563L221.124 19.29L218.909 20.1713L219.252 21.1009C219.322 21.2731 219.335 21.5518 219.261 21.6987C219.181 21.8313 218.745 21.9915 218.675 21.8193L218.106 20.5803C217.779 20.6796 217.446 20.7645 217.145 20.8867L209.499 23.9866C209.184 24.1146 208.868 24.2425 208.553 24.3705C208.895 24.5155 209.287 24.6573 209.719 24.7329C211.75 25.1286 213.473 24.2295 214.143 23.8239C215.258 23.0713 216.378 22.3331 217.507 21.5748C217.559 21.6205 217.689 21.7349 217.75 21.9272C217.803 22.0563 217.818 22.2171 217.772 22.3524L214.143 23.8239C213.449 24.0887 212.809 24.3648 212.113 24.7475C213.105 24.8463 213.775 24.9753 214.567 25.3223C215.48 25.7203 216.606 24.9965 217.039 25.3221C217.348 25.5477 217.088 26.6383 217.541 27.507L217.544 27.5559Z" fill="black"/>
<path d="M174.534 45.1794C174.241 44.0454 173.865 44.2312 173.401 43.2504C174.034 42.7932 174.693 42.4424 175.035 41.8027L176.386 39.3676L171.053 41.4966C170.881 41.5664 170.532 41.4071 170.46 41.2695C170.361 41.0256 170.515 40.8295 170.802 40.7131C171.923 40.7596 172.834 40.6576 173.454 40.5397C174.37 40.3687 178.376 39.6629 179.109 37.2278C179.214 36.868 179.224 36.5633 179.226 36.3621C176.027 37.6591 172.843 38.9502 169.644 40.2472C169.372 40.3577 169.212 40.5396 169.328 40.8264L169.77 41.9166L169.122 42.2128L168.534 40.6807L166.268 41.5997L167.149 43.8144L168.079 43.4709C168.251 43.4011 168.53 43.3883 168.677 43.4623C168.809 43.5422 168.969 43.9783 168.797 44.0481L167.558 44.6173C167.657 44.9445 167.742 45.2775 167.864 45.5787L170.964 53.2239C171.092 53.5395 171.22 53.8551 171.348 54.1706C171.493 53.8279 171.635 53.4364 171.711 53.0049C172.106 50.9738 171.207 49.2506 170.802 48.5799C170.049 47.4654 169.311 46.3451 168.553 45.2162C168.598 45.1642 168.713 45.0343 168.905 44.9731C169.034 44.9207 169.195 44.9056 169.33 44.951L170.802 48.5799C171.067 49.2743 171.343 49.9139 171.725 50.6106C171.824 49.6185 171.953 48.9482 172.3 48.1561C172.698 47.2431 171.974 46.1169 172.3 45.6843C172.526 45.3757 173.616 45.635 174.485 45.1825L174.534 45.1794Z" fill="black"/>
<path d="M234.839 71.6516C235.857 71.072 235.985 71.4709 237.012 71.1212C236.9 70.3485 236.692 69.631 236.913 68.9401L237.72 66.2747L239.906 71.5847C239.976 71.7568 240.333 71.8959 240.482 71.8521C240.726 71.7533 240.759 71.5059 240.643 71.219C239.829 70.4468 239.268 69.7223 238.92 69.1951C238.405 68.4186 236.122 65.0521 237.358 62.8302C237.544 62.5046 237.755 62.2851 237.898 62.1436C239.195 65.3423 240.487 68.5266 241.784 71.7253C241.894 71.9978 241.875 72.2393 241.588 72.3557L240.498 72.7977L240.737 73.4691L242.246 72.8239L243.165 75.0903L240.962 76.0003L240.561 75.0939C240.491 74.9218 240.306 74.7128 240.15 74.6589C240.001 74.6194 239.576 74.8082 239.646 74.9804L240.101 76.2659C239.797 76.4225 239.499 76.5935 239.197 76.7156L231.552 79.8156C231.236 79.9436 230.921 80.0715 230.605 80.1995C230.75 79.8567 230.933 79.4822 231.19 79.1275C232.371 77.429 234.234 76.8741 234.998 76.6981C236.322 76.4619 237.64 76.2114 238.978 75.9694C238.984 75.9004 238.997 75.7279 238.907 75.5472C238.855 75.4181 238.754 75.2921 238.627 75.2266L234.998 76.6981C234.315 76.9916 233.664 77.239 232.898 77.4495C233.541 76.6877 233.932 76.1282 234.259 75.3277C234.636 74.4061 235.949 74.1413 236.032 73.6063C236.097 73.2294 235.151 72.6274 234.871 71.6889L234.839 71.6516Z" fill="black"/>
<path d="M191.418 88.6732C190.284 88.966 190.469 89.3416 189.489 89.8061C189.031 89.1731 188.681 88.5137 188.041 88.1718L185.606 86.8208L187.735 92.154C187.805 92.3261 187.645 92.6747 187.508 92.7472C187.264 92.8461 187.068 92.6918 186.951 92.4049C186.998 91.2837 186.896 90.3731 186.778 89.7528C186.607 88.8367 185.901 84.8305 183.466 84.0975C183.106 83.9929 182.801 83.9828 182.6 83.9809C183.897 87.1795 185.188 90.3639 186.485 93.5625C186.596 93.8351 186.778 93.9952 187.065 93.8788L188.155 93.4368L188.451 94.085L186.919 94.6728L187.838 96.9391L190.053 96.0578L189.709 95.1282C189.639 94.9561 189.626 94.6773 189.7 94.5304C189.78 94.3978 190.216 94.2377 190.286 94.4098L190.855 95.6488C191.183 95.5495 191.516 95.4646 191.817 95.3424L199.462 92.2425C199.778 92.1145 200.093 91.9866 200.409 91.8586C200.066 91.7137 199.675 91.5718 199.243 91.4962C197.212 91.1005 195.489 91.9996 194.818 92.4052C193.704 93.1578 192.583 93.896 191.454 94.6543C191.402 94.6086 191.273 94.4942 191.211 94.3019C191.159 94.1728 191.144 94.012 191.189 93.8767L194.818 92.4052C195.512 92.1404 196.152 91.8643 196.849 91.4816C195.857 91.3828 195.186 91.2538 194.394 90.9068C193.481 90.5088 192.355 91.2326 191.922 90.907C191.614 90.6814 191.873 89.5908 191.421 88.7221L191.418 88.6732Z" fill="black"/>
<path d="M294.942 131.894C295.224 132.999 295.579 132.805 296.038 133.772C295.419 134.223 294.783 134.548 294.449 135.167L293.147 137.516L298.308 135.457C298.48 135.387 298.814 135.552 298.887 135.69C298.98 135.919 298.84 136.11 298.567 136.22C297.48 136.176 296.604 136.281 295.998 136.393C295.111 136.553 291.231 137.241 290.532 139.595C290.422 139.94 290.412 140.245 290.418 140.426C293.502 139.176 296.601 137.919 299.684 136.669C299.943 136.564 300.103 136.382 299.992 136.11L299.562 135.049L300.181 134.764L300.752 136.253L302.946 135.363L302.08 133.226L301.179 133.558C301.007 133.628 300.748 133.649 300.61 133.555C300.477 133.475 300.329 133.067 300.495 132.983L301.691 132.432C301.597 132.119 301.512 131.786 301.396 131.499L298.395 124.097C298.273 123.796 298.151 123.495 298.029 123.194C297.878 123.522 297.75 123.908 297.669 124.325C297.285 126.301 298.155 127.953 298.54 128.615C299.261 129.692 299.987 130.784 300.708 131.861C300.662 131.913 300.562 132.037 300.37 132.099C300.241 132.151 300.094 132.16 299.959 132.115L298.534 128.601C298.275 127.921 298.011 127.31 297.634 126.627C297.538 127.585 297.417 128.235 297.079 129.007C296.698 129.88 297.396 130.983 297.079 131.396C296.861 131.684 295.797 131.448 294.957 131.888L294.942 131.894Z" fill="black"/>
<path d="M276.901 87.8511C278.006 87.5699 277.812 87.2145 278.778 86.7558C279.229 87.3745 279.554 88.011 280.174 88.3444L282.523 89.6469L280.463 84.4858C280.393 84.3137 280.559 83.9795 280.696 83.907C280.926 83.8139 281.116 83.9539 281.227 84.2264C281.183 85.3131 281.288 86.1892 281.4 86.7951C281.559 87.6825 282.247 91.5624 284.601 92.2612C284.947 92.3717 285.252 92.3818 285.433 92.3752C284.182 89.2913 282.926 86.193 281.675 83.1091C281.571 82.8509 281.389 82.6908 281.116 82.8013L280.055 83.2317L279.77 82.6122L281.259 82.0418L280.37 79.8472L278.232 80.7138L278.564 81.6148C278.634 81.7869 278.655 82.0455 278.561 82.1839C278.481 82.3165 278.074 82.465 277.99 82.2987L277.438 81.1027C277.125 81.1962 276.792 81.2811 276.505 81.3974L269.104 84.3985C268.803 84.5206 268.501 84.6428 268.2 84.7649C268.529 84.9157 268.914 85.0432 269.331 85.1246C271.308 85.509 272.959 84.639 273.621 84.2536C274.699 83.5329 275.79 82.8063 276.868 82.0855C276.92 82.1313 277.044 82.2313 277.105 82.4236C277.157 82.5527 277.167 82.6992 277.121 82.8345L273.607 84.2594C272.927 84.5184 272.316 84.7829 271.634 85.1597C272.591 85.2558 273.242 85.3764 274.014 85.7148C274.886 86.0958 275.989 85.3979 276.402 85.715C276.69 85.9321 276.454 86.9966 276.895 87.8367L276.901 87.8511Z" fill="black"/>
<path d="M250.588 149.044C251.156 150.033 250.766 150.141 251.11 151.154C251.868 151.047 252.551 150.837 253.222 151.049L255.792 151.827L250.654 153.944C250.482 154.014 250.357 154.365 250.401 154.514C250.494 154.744 250.727 154.783 251 154.673C251.749 153.884 252.451 153.349 252.964 153.008C253.711 152.504 256.975 150.296 259.116 151.499C259.436 151.669 259.655 151.881 259.777 152.016C256.693 153.266 253.594 154.522 250.511 155.773C250.252 155.878 250.011 155.859 249.9 155.586L249.47 154.525L248.827 154.752L249.455 156.218L247.26 157.107L246.394 154.97L247.271 154.581C247.444 154.511 247.644 154.346 247.678 154.182C247.717 154.033 247.54 153.637 247.362 153.692L246.12 154.129C245.969 153.84 245.798 153.542 245.681 153.255L242.68 145.853C242.558 145.552 242.436 145.251 242.314 144.95C242.651 145.08 243.011 145.268 243.36 145.511C245.012 146.662 245.538 148.453 245.723 149.196C245.956 150.471 246.195 151.761 246.428 153.036C246.497 153.041 246.655 153.06 246.836 152.971C246.965 152.918 247.076 152.823 247.142 152.696L245.717 149.182C245.429 148.513 245.193 147.891 244.989 147.139C245.725 147.759 246.264 148.142 247.044 148.46C247.925 148.821 248.193 150.099 248.708 150.174C249.065 150.229 249.664 149.318 250.574 149.05L250.588 149.044Z" fill="black"/>
<path d="M232.806 105.396C232.525 104.291 232.17 104.485 231.711 103.519C232.33 103.068 232.966 102.743 233.3 102.123L234.602 99.7744L229.441 101.834C229.269 101.903 228.935 101.738 228.862 101.601C228.769 101.371 228.909 101.181 229.182 101.07C230.268 101.114 231.144 101.009 231.75 100.897C232.638 100.738 236.518 100.05 237.216 97.6955C237.327 97.3501 237.337 97.0454 237.33 96.8643C234.246 98.1148 231.148 99.3711 228.064 100.622C227.806 100.726 227.646 100.908 227.757 101.181L228.187 102.242L227.567 102.527L226.997 101.038L224.802 101.927L225.669 104.065L226.57 103.733C226.742 103.663 227.001 103.642 227.139 103.736C227.272 103.816 227.42 104.223 227.254 104.307L226.058 104.859C226.151 105.172 226.236 105.505 226.353 105.792L229.354 113.193C229.476 113.494 229.598 113.796 229.72 114.097C229.871 113.768 229.998 113.383 230.08 112.965C230.464 110.989 229.594 109.338 229.209 108.675C228.488 107.598 227.761 106.507 227.041 105.429C227.086 105.377 227.186 105.253 227.379 105.192C227.508 105.14 227.654 105.13 227.79 105.176L229.215 108.69C229.474 109.37 229.738 109.981 230.115 110.663C230.211 109.705 230.332 109.055 230.67 108.283C231.051 107.411 230.353 106.307 230.67 105.895C230.887 105.607 231.952 105.843 232.792 105.402L232.806 105.396Z" fill="black"/>
<path d="M295.134 106.129C296.143 106.722 296.271 106.336 297.304 106.702C297.182 107.47 296.966 108.175 297.168 108.879L297.937 111.557L300.191 106.283C300.268 106.102 300.632 105.971 300.779 106.045C301.03 106.127 301.051 106.386 300.931 106.668C300.102 107.422 299.544 108.149 299.17 108.668C298.645 109.432 296.307 112.769 297.513 115.002C297.696 115.329 297.907 115.561 298.042 115.689C299.375 112.51 300.728 109.339 302.062 106.159C302.172 105.897 302.157 105.653 301.875 105.534L300.8 105.067L301.039 104.42L302.542 105.079L303.483 102.827L301.3 101.892L300.882 102.796C300.799 102.964 300.622 103.186 300.467 103.215C300.312 103.245 299.903 103.06 299.965 102.884L300.433 101.609C300.134 101.446 299.843 101.264 299.54 101.136L291.94 97.9207C291.638 97.7928 291.315 97.6563 291.013 97.5284C291.152 97.8727 291.324 98.2541 291.572 98.6209C292.736 100.337 294.578 100.926 295.341 101.118C296.667 101.382 297.979 101.652 299.299 101.901C299.308 101.965 299.315 102.146 299.224 102.333C299.158 102.46 299.058 102.584 298.935 102.65L295.335 101.104C294.65 100.814 294.004 100.541 293.236 100.335C293.869 101.114 294.248 101.678 294.574 102.481C294.946 103.399 296.25 103.689 296.318 104.229C296.372 104.608 295.423 105.193 295.134 106.129Z" fill="black"/>
<path d="M252.261 88.1712C252.854 87.1624 252.468 87.0349 252.834 86.0014C253.602 86.1242 254.307 86.3393 255.01 86.1377L257.688 85.3691L252.415 83.1147C252.234 83.038 252.103 82.6736 252.177 82.5266C252.259 82.2762 252.517 82.2548 252.8 82.3742C253.554 83.2042 254.281 83.7613 254.8 84.1353C255.564 84.6606 258.9 86.9989 261.134 85.7927C261.461 85.6101 261.692 85.3991 261.821 85.2635C258.642 83.9304 255.471 82.5772 252.291 81.2442C252.029 81.1333 251.785 81.1488 251.666 81.4311L251.199 82.5054L250.551 82.267L251.211 80.7635L248.959 79.8228L248.024 82.0058L248.928 82.4241C249.095 82.5066 249.317 82.6838 249.347 82.8389C249.376 82.9939 249.192 83.403 249.016 83.3405L247.74 82.8723C247.578 83.172 247.395 83.4632 247.267 83.7656L244.053 91.3658C243.925 91.6682 243.788 91.9908 243.66 92.2932C244.004 92.1536 244.386 91.9822 244.753 91.7333C246.469 90.5698 247.058 88.7275 247.25 87.9649C247.514 86.6386 247.784 85.3267 248.033 84.0063C248.096 83.9973 248.277 83.9907 248.465 84.0818C248.591 84.1473 248.715 84.2474 248.782 84.3706L247.236 87.9707C246.946 88.6562 246.673 89.3013 246.467 90.0697C247.245 89.4365 247.81 89.0574 248.613 88.7317C249.531 88.3594 249.821 87.056 250.361 86.9874C250.74 86.9339 251.325 87.8825 252.261 88.1712Z" fill="black"/>
<path d="M276.184 149.521C277.312 149.832 277.124 150.192 278.107 150.679C278.572 150.056 278.929 149.41 279.574 149.065L282.031 147.752L279.817 153.042C279.74 153.224 279.9 153.576 280.055 153.63C280.288 153.753 280.489 153.588 280.608 153.306C280.571 152.185 280.705 151.279 280.817 150.649C281 149.74 281.765 145.738 284.208 145.048C284.57 144.952 284.883 144.942 285.07 144.949C283.717 148.12 282.384 151.3 281.03 154.471C280.92 154.733 280.734 154.892 280.451 154.772L279.368 154.326L279.07 154.948L280.59 155.568L279.629 157.811L277.438 156.896L277.795 155.966C277.858 155.791 277.894 155.509 277.807 155.377C277.72 155.245 277.303 155.08 277.22 155.247L276.631 156.472C276.306 156.37 275.972 156.288 275.669 156.16L268.069 152.945C267.767 152.817 267.444 152.681 267.142 152.553C267.486 152.413 267.879 152.271 268.316 152.194C270.357 151.834 272.063 152.745 272.732 153.159C273.845 153.927 274.952 154.68 276.051 155.454C276.103 155.417 276.237 155.295 276.308 155.099C276.354 154.964 276.373 154.806 276.335 154.671L272.718 153.165C272.032 152.875 271.387 152.602 270.704 152.194C271.704 152.106 272.373 151.985 273.176 151.659C274.094 151.287 275.21 152.021 275.645 151.694C275.955 151.468 275.714 150.38 276.184 149.521Z" fill="black"/>
<path d="M233.443 130.859C232.435 130.266 232.307 130.652 231.274 130.286C231.396 129.518 231.611 128.813 231.41 128.109L230.641 125.431L228.387 130.705C228.31 130.886 227.946 131.017 227.799 130.943C227.548 130.861 227.527 130.602 227.646 130.32C228.476 129.566 229.033 128.839 229.408 128.32C229.933 127.556 232.271 124.219 231.065 121.986C230.882 121.659 230.671 121.427 230.536 121.299C229.203 124.478 227.849 127.649 226.516 130.828C226.405 131.09 226.421 131.335 226.703 131.454L227.778 131.92L227.539 132.568L226.036 131.909L225.095 134.161L227.278 135.096L227.696 134.191C227.779 134.024 227.956 133.802 228.111 133.773C228.266 133.743 228.675 133.928 228.613 134.104L228.144 135.379C228.444 135.542 228.735 135.724 229.038 135.852L236.638 139.067C236.94 139.195 237.263 139.332 237.565 139.459C237.426 139.115 237.254 138.734 237.005 138.367C235.842 136.651 234 136.062 233.237 135.87C231.911 135.606 230.599 135.336 229.278 135.087C229.269 135.023 229.263 134.842 229.354 134.655C229.42 134.528 229.52 134.404 229.643 134.338L233.243 135.884C233.928 136.174 234.573 136.447 235.342 136.653C234.709 135.874 234.33 135.31 234.004 134.507C233.632 133.589 232.328 133.299 232.26 132.759C232.206 132.38 233.155 131.795 233.443 130.859Z" fill="black"/>
<path d="M276.086 234.625C275.516 235.608 275.896 235.721 275.532 236.72C274.785 236.606 274.094 236.385 273.425 236.589L270.839 237.337L275.937 239.529C276.098 239.597 276.229 239.962 276.169 240.103C276.081 240.339 275.843 240.369 275.561 240.249C274.838 239.457 274.131 238.908 273.618 238.548C272.874 238.032 269.656 235.779 267.488 236.942C267.176 237.119 266.953 237.309 266.81 237.451C269.874 238.747 272.953 240.037 276.017 241.334C276.279 241.445 276.517 241.415 276.628 241.153L277.086 240.098L277.714 240.328L277.065 241.777L279.242 242.698L280.158 240.59L279.288 240.174C279.121 240.092 278.919 239.923 278.875 239.774C278.831 239.625 279.022 239.23 279.198 239.292L280.433 239.744C280.581 239.45 280.764 239.159 280.883 238.876L283.996 231.518C284.123 231.216 284.251 230.913 284.379 230.611C284.049 230.745 283.682 230.91 283.33 231.153C281.665 232.279 281.102 234.061 280.918 234.803C280.666 236.075 280.404 237.367 280.152 238.638C280.089 238.647 279.922 238.648 279.74 238.571C279.614 238.506 279.495 238.42 279.429 238.297L280.924 234.818C281.206 234.152 281.47 233.527 281.668 232.779C280.917 233.401 280.362 233.76 279.601 234.068C278.712 234.429 278.433 235.677 277.913 235.754C277.549 235.802 276.975 234.882 276.074 234.596L276.086 234.625Z" fill="black"/>
<path d="M294.478 190.723C295.461 191.294 295.574 190.914 296.574 191.277C296.459 192.025 296.238 192.716 296.443 193.384L297.191 195.971L299.383 190.873C299.451 190.712 299.815 190.58 299.956 190.64C300.192 190.728 300.222 190.967 300.103 191.249C299.31 191.971 298.762 192.678 298.402 193.191C297.885 193.935 295.633 197.153 296.795 199.321C296.972 199.633 297.163 199.857 297.304 200C298.601 196.935 299.891 193.857 301.187 190.792C301.298 190.53 301.268 190.292 301.006 190.181L299.952 189.723L300.182 189.096L301.631 189.744L302.552 187.567L300.443 186.651L300.028 187.521C299.945 187.688 299.777 187.89 299.627 187.934C299.478 187.978 299.084 187.787 299.146 187.612L299.597 186.376C299.303 186.228 299.012 186.046 298.73 185.926L291.372 182.814C291.069 182.686 290.767 182.558 290.464 182.43C290.598 182.76 290.764 183.127 291.007 183.479C292.133 185.144 293.915 185.708 294.657 185.891C295.929 186.144 297.22 186.405 298.492 186.658C298.501 186.721 298.502 186.888 298.425 187.069C298.359 187.196 298.274 187.314 298.15 187.381L294.671 185.885C294.006 185.604 293.381 185.339 292.633 185.142C293.254 185.892 293.613 186.448 293.922 187.208C294.282 188.097 295.531 188.376 295.608 188.896C295.656 189.261 294.736 189.834 294.45 190.735L294.478 190.723Z" fill="black"/>
<path d="M232.583 215.403C232.275 216.497 231.929 216.303 231.465 217.259C232.068 217.716 232.708 218.058 233.027 218.681L234.291 221.057L229.168 218.926C229.006 218.858 228.654 219.017 228.594 219.158C228.486 219.386 228.63 219.578 228.913 219.697C229.985 219.663 230.87 219.789 231.486 219.906C232.375 220.08 236.233 220.821 236.908 223.186C236.999 223.534 237.017 223.827 237.015 224.028C233.951 222.732 230.881 221.421 227.817 220.125C227.555 220.014 227.41 219.822 227.521 219.56L227.959 218.497L227.356 218.207L226.768 219.682L224.591 218.761L225.466 216.635L226.37 216.97C226.546 217.033 226.808 217.06 226.945 216.988C227.083 216.915 227.233 216.503 227.066 216.421L225.882 215.849C225.99 215.538 226.072 215.204 226.191 214.922L229.304 207.563C229.432 207.261 229.56 206.958 229.688 206.656C229.821 206.986 229.958 207.365 230.029 207.787C230.381 209.766 229.494 211.411 229.089 212.06C228.353 213.127 227.608 214.214 226.871 215.281C226.909 215.332 227.024 215.452 227.206 215.529C227.341 215.574 227.485 215.6 227.62 215.562L229.075 212.065C229.356 211.4 229.621 210.775 230.02 210.112C230.097 211.083 230.226 211.732 230.534 212.493C230.895 213.382 230.193 214.452 230.5 214.878C230.719 215.173 231.779 214.944 232.612 215.391L232.583 215.403Z" fill="black"/>
<path d="M250.876 171.959C251.447 170.976 251.067 170.863 251.43 169.864C252.178 169.978 252.868 170.199 253.537 169.995L256.123 169.247L251.026 167.055C250.864 166.987 250.733 166.622 250.793 166.481C250.881 166.245 251.119 166.215 251.402 166.334C252.124 167.127 252.831 167.676 253.344 168.035C254.088 168.552 257.306 170.805 259.474 169.642C259.786 169.465 260.009 169.274 260.153 169.133C257.088 167.837 254.01 166.546 250.945 165.25C250.683 165.139 250.445 165.169 250.334 165.431L249.876 166.485L249.248 166.255L249.897 164.807L247.72 163.886L246.804 165.994L247.674 166.409C247.841 166.492 248.043 166.661 248.087 166.81C248.131 166.959 247.94 167.354 247.765 167.291L246.529 166.84C246.381 167.134 246.199 167.425 246.079 167.708L242.967 175.066C242.839 175.368 242.711 175.671 242.583 175.973C242.913 175.839 243.28 175.674 243.632 175.431C245.297 174.305 245.861 172.523 246.044 171.78C246.297 170.509 246.558 169.217 246.81 167.945C246.874 167.937 247.04 167.936 247.222 168.013C247.349 168.078 247.467 168.164 247.534 168.287L246.038 171.766C245.757 172.431 245.492 173.056 245.295 173.805C246.045 173.183 246.601 172.824 247.361 172.516C248.25 172.155 248.529 170.906 249.049 170.829C249.414 170.782 249.987 171.702 250.888 171.988L250.876 171.959Z" fill="black"/>
<path d="M294.442 216.543C294.735 217.677 295.11 217.491 295.575 218.472C294.942 218.929 294.282 219.28 293.941 219.92L292.59 222.355L297.923 220.226C298.095 220.156 298.443 220.315 298.516 220.453C298.615 220.697 298.461 220.893 298.174 221.009C297.053 220.963 296.142 221.065 295.522 221.183C294.606 221.354 290.599 222.06 289.866 224.495C289.762 224.854 289.752 225.159 289.75 225.36C292.948 224.063 296.133 222.772 299.331 221.475C299.604 221.365 299.764 221.183 299.648 220.896L299.206 219.806L299.854 219.51L300.442 221.042L302.708 220.123L301.827 217.908L300.897 218.251C300.725 218.321 300.446 218.334 300.299 218.26C300.167 218.18 300.006 217.744 300.179 217.674L301.418 217.105C301.318 216.778 301.233 216.445 301.111 216.144L298.011 208.498C297.883 208.183 297.755 207.867 297.627 207.552C297.482 207.894 297.341 208.286 297.265 208.718C296.869 210.749 297.768 212.472 298.174 213.142C298.927 214.257 299.665 215.377 300.423 216.506C300.377 216.558 300.263 216.688 300.071 216.749C299.942 216.802 299.781 216.817 299.645 216.771L298.174 213.142C297.909 212.448 297.633 211.808 297.25 211.112C297.152 212.104 297.023 212.774 296.676 213.566C296.278 214.479 297.001 215.605 296.676 216.038C296.45 216.347 295.36 216.087 294.491 216.54L294.442 216.543Z" fill="black"/>
<path d="M276.818 173.533C277.952 173.24 277.767 172.864 278.747 172.4C279.205 173.033 279.555 173.692 280.195 174.034L282.63 175.385L280.501 170.052C280.431 169.88 280.591 169.531 280.728 169.459C280.972 169.36 281.168 169.514 281.285 169.801C281.238 170.922 281.34 171.833 281.458 172.453C281.629 173.369 282.335 177.375 284.77 178.108C285.13 178.213 285.434 178.223 285.636 178.225C284.339 175.026 283.048 171.842 281.751 168.643C281.64 168.371 281.458 168.211 281.171 168.327L280.081 168.769L279.785 168.121L281.317 167.533L280.398 165.267L278.183 166.148L278.527 167.078C278.597 167.25 278.61 167.528 278.535 167.675C278.456 167.808 278.019 167.968 277.95 167.796L277.381 166.557C277.053 166.656 276.72 166.741 276.419 166.863L268.774 169.963C268.458 170.091 268.143 170.219 267.827 170.347C268.17 170.492 268.561 170.634 268.993 170.71C271.024 171.105 272.747 170.206 273.418 169.801C274.532 169.048 275.653 168.31 276.782 167.551C276.834 167.597 276.963 167.712 277.025 167.904C277.077 168.033 277.092 168.194 277.047 168.329L273.418 169.801C272.724 170.065 272.084 170.341 271.387 170.724C272.379 170.823 273.05 170.952 273.842 171.299C274.755 171.697 275.881 170.973 276.314 171.299C276.622 171.524 276.363 172.615 276.815 173.484L276.818 173.533Z" fill="black"/>
<path d="M250.346 233.838C250.926 234.856 250.527 234.984 250.877 236.011C251.649 235.898 252.367 235.691 253.058 235.912L255.723 236.718L250.413 238.905C250.241 238.975 250.102 239.332 250.146 239.481C250.245 239.725 250.492 239.758 250.779 239.642C251.551 238.828 252.276 238.267 252.803 237.919C253.579 237.404 256.946 235.12 259.168 236.357C259.493 236.543 259.713 236.754 259.854 236.897C256.656 238.194 253.471 239.485 250.273 240.782C250 240.893 249.758 240.874 249.642 240.587L249.2 239.497L248.529 239.736L249.174 241.245L246.908 242.164L245.998 239.96L246.904 239.56C247.076 239.49 247.285 239.305 247.339 239.149C247.378 239 247.19 238.575 247.017 238.645L245.732 239.099C245.575 238.796 245.404 238.497 245.282 238.196L242.182 230.551C242.054 230.235 241.926 229.92 241.798 229.604C242.141 229.749 242.516 229.931 242.87 230.188C244.569 231.37 245.124 233.233 245.3 233.997C245.536 235.321 245.786 236.639 246.028 237.977C246.097 237.983 246.27 237.996 246.451 237.906C246.58 237.854 246.706 237.753 246.771 237.626L245.3 233.997C245.006 233.314 244.759 232.663 244.548 231.896C245.31 232.54 245.87 232.931 246.67 233.257C247.592 233.635 247.857 234.948 248.392 235.031C248.768 235.096 249.37 234.15 250.309 233.87L250.346 233.838Z" fill="black"/>
<path d="M233.324 190.417C233.031 189.283 232.656 189.468 232.191 188.488C232.824 188.03 233.484 187.68 233.826 187.04L235.177 184.605L229.843 186.734C229.671 186.804 229.323 186.644 229.25 186.507C229.151 186.263 229.306 186.067 229.593 185.95C230.714 185.997 231.624 185.895 232.245 185.777C233.161 185.606 237.167 184.9 237.9 182.465C238.005 182.105 238.015 181.8 238.017 181.599C234.818 182.896 231.634 184.187 228.435 185.484C228.162 185.595 228.002 185.777 228.119 186.064L228.561 187.154L227.912 187.45L227.325 185.918L225.058 186.837L225.94 189.052L226.869 188.708C227.041 188.638 227.32 188.625 227.467 188.699C227.6 188.779 227.76 189.215 227.588 189.285L226.349 189.854C226.448 190.182 226.533 190.515 226.655 190.816L229.755 198.461C229.883 198.777 230.011 199.092 230.139 199.408C230.284 199.065 230.426 198.674 230.501 198.242C230.897 196.211 229.998 194.488 229.592 193.817C228.84 192.703 228.101 191.582 227.343 190.453C227.389 190.401 227.503 190.272 227.695 190.21C227.825 190.158 227.985 190.143 228.121 190.188L229.592 193.817C229.857 194.511 230.133 195.151 230.516 195.848C230.615 194.856 230.744 194.185 231.091 193.393C231.489 192.48 230.765 191.354 231.09 190.921C231.316 190.613 232.407 190.872 233.275 190.42L233.324 190.417Z" fill="black"/>
</g>
<defs>
<clipPath id="clip0_3521_478">
<rect width="321" height="321" fill="white"/>
</clipPath>
</defs>
</svg>
