<svg width="209" height="209" viewBox="0 0 209 209" fill="none" xmlns="http://www.w3.org/2000/svg">
<path d="M99.1998 186.596L100.198 186.001C100.426 185.853 100.579 185.6 100.608 185.351C100.789 184.083 101.636 183.155 102.888 182.731L103.254 182.455C103.516 182.253 103.87 182.208 104.177 182.36L104.987 182.766C106.591 183.578 106.633 183.826 107.135 185.378C107.213 185.643 107.415 185.869 107.684 185.951C109.385 186.405 110.618 188.027 110.129 189.764C109.819 190.822 108.887 191.237 107.905 191.102C107.495 191.042 107.047 190.929 106.775 190.722C106.448 190.464 106.309 189.881 106.459 189.486C106.509 189.36 106.822 189.085 106.929 189.118C107.539 189.298 107.552 189.813 107.848 189.574C107.97 189.482 108.015 189.143 107.94 188.985C107.623 188.442 106.979 188.298 106.451 188.508C105.324 188.946 105.386 190.634 106.048 191.47C106.36 191.853 107.089 191.852 107.573 192.018C107.637 192.425 107.793 192.954 108.172 193.176C108.533 193.38 109.062 193.189 109.428 192.912C109.986 192.471 110.22 191.914 110.275 191.272C110.301 190.898 110.559 190.571 110.93 190.473C112.079 190.194 112.397 190.115 112.689 189.023C112.785 188.629 113.152 188.388 113.544 188.414C113.936 188.421 114.327 188.429 114.682 188.384C115.496 188.221 116.387 187.629 116.526 186.79C116.666 186.039 116.076 185.219 115.41 184.898C115.248 184.813 114.84 184.859 114.681 184.917C114.505 184.992 114.373 185.387 114.397 185.618L114.896 185.676C115.682 185.78 115.941 186.876 115.24 187.268L115.222 187.268C114.38 187.699 113.217 187.426 112.612 186.748C111.99 186.053 111.679 185.047 112.117 184.094C112.638 182.924 113.821 181.898 115.153 181.828C115.97 181.789 116.762 182.178 117.483 182.551C117.772 182.703 118.109 182.677 118.371 182.492C120.516 180.854 123.306 180.764 123.801 181.338C123.911 181.46 124.007 181.76 123.601 182.571C121.002 185.234 118.386 187.898 115.787 190.561C112.215 194.121 108.662 197.68 105.091 201.258C104.761 201.586 104.21 201.583 103.881 201.253L98.534 195.95C97.8225 195.257 97.2187 194.596 96.4727 193.94L86.5964 184.022C86.0486 183.467 86.4681 182.496 87.2523 182.565C88.3569 182.643 89.6096 182.949 90.2618 183.412C90.5147 183.566 90.8181 183.611 91.0642 183.498L91.872 183.104C92.8029 182.653 94.2657 182.829 95.1184 183.483C96.0248 184.153 96.7086 186.536 95.221 187.463C94.6086 187.853 93.8098 187.909 93.123 187.482C92.9061 187.345 92.7516 186.869 92.8349 186.654C92.9866 186.33 93.4099 186.194 93.8018 186.22C93.8528 186.129 93.918 185.897 93.9143 185.754C93.9111 185.63 93.6026 185.389 93.4422 185.375C93.0512 185.385 92.3673 185.759 92.1669 186.262C92.0521 186.638 92.1046 187.295 92.3994 187.696C93.0434 188.533 94.123 189.021 95.1487 188.799L95.5561 188.735C95.8914 188.638 95.5048 190.888 97.2988 190.806C97.4232 190.803 97.745 190.866 97.7833 190.972C97.9738 191.465 98.1459 193.31 99.8378 193.408C100.122 193.401 100.6 193.3 100.701 193.102C100.752 192.994 100.784 192.868 100.798 192.708C100.824 192.352 101.066 192.079 101.419 191.981C101.597 191.958 101.755 191.883 101.859 191.809C102.47 191.367 102.628 190.598 102.524 190.014C102.364 189.289 101.832 188.662 101.1 188.557C100.671 188.497 100.075 188.814 100.103 189.205C100.105 189.294 100.255 189.574 100.309 189.626C100.493 189.853 100.9 189.078 101.221 189.105C101.346 189.119 101.655 189.414 101.694 189.537C101.811 189.925 101.506 190.502 101.211 190.795C100.362 191.652 98.274 190.692 97.9567 189.42C97.6795 188.325 98.3423 187.134 99.2531 186.595L99.2541 186.63L99.1998 186.596Z" fill="black"/>
<path d="M23.3476 99.4041L23.9423 100.402C24.0905 100.63 24.3434 100.783 24.5931 100.812C25.8604 100.993 26.7892 101.841 27.2127 103.092L27.4889 103.459C27.6912 103.72 27.7359 104.075 27.5838 104.381L27.1778 105.192C26.3656 106.795 26.1177 106.837 24.5657 107.34C24.301 107.418 24.075 107.619 23.993 107.888C23.5389 109.589 21.9169 110.822 20.1793 110.334C19.1221 110.023 18.7069 109.091 18.8416 108.11C18.9022 107.699 19.0151 107.251 19.2215 106.979C19.4798 106.653 20.0631 106.513 20.4582 106.663C20.5839 106.713 20.8588 107.026 20.826 107.134C20.6461 107.743 20.1307 107.756 20.3695 108.052C20.4615 108.174 20.8006 108.219 20.9587 108.144C21.5018 107.828 21.6453 107.184 21.436 106.656C20.998 105.529 19.3102 105.59 18.4737 106.252C18.0905 106.564 18.0915 107.293 17.9261 107.777C17.5187 107.841 16.9893 107.997 16.7678 108.376C16.5638 108.737 16.7552 109.266 17.0314 109.632C17.4726 110.19 18.0299 110.424 18.6715 110.479C19.0456 110.505 19.3724 110.763 19.4709 111.134C19.7494 112.283 19.8288 112.601 20.9211 112.893C21.3148 112.99 21.5554 113.357 21.53 113.749C21.5223 114.14 21.5146 114.532 21.5593 114.886C21.7225 115.7 22.3146 116.592 23.1539 116.73C23.9045 116.871 24.7251 116.28 25.0458 115.614C25.1305 115.452 25.0844 115.044 25.027 114.886C24.9513 114.71 24.5567 114.578 24.3261 114.601L24.2678 115.101C24.1636 115.886 23.0677 116.145 22.6762 115.444C22.245 114.584 22.5352 113.42 23.1954 112.817C23.8906 112.194 24.8963 111.884 25.8501 112.321C27.0194 112.842 28.0457 114.025 28.1156 115.357C28.1545 116.174 27.7659 116.967 27.3932 117.688C27.2406 117.976 27.2494 118.314 27.4517 118.575C29.0897 120.72 29.1794 123.51 28.6053 124.005C28.4836 124.115 28.1838 124.212 27.3731 123.806C24.7098 121.207 22.046 118.59 19.3827 115.991C15.8229 112.42 12.2635 108.866 8.68598 105.295C8.35739 104.965 8.361 104.414 8.69041 104.085L13.9942 98.7383C14.6872 98.0269 15.3474 97.423 16.004 96.677L25.9213 86.8006C26.4763 86.2528 27.4474 86.6724 27.3787 87.4566C27.3005 88.5612 26.9949 89.8139 26.5315 90.466C26.378 90.7189 26.3325 91.0224 26.4455 91.2685L26.8398 92.0763C27.2906 93.0072 27.1149 94.47 26.4611 95.3226C25.791 96.2291 23.4078 96.9129 22.4803 95.4252C22.0911 94.8129 22.035 94.0141 22.4618 93.3273C22.5985 93.1104 23.0747 92.9558 23.2902 93.0392C23.6142 93.1909 23.7496 93.6142 23.7241 94.0061C23.8144 94.0571 24.0472 94.1223 24.1894 94.1186C24.3138 94.1154 24.5548 93.8069 24.5685 93.6465C24.5584 93.2555 24.1851 92.5716 23.682 92.3711C23.3056 92.2564 22.649 92.3088 22.2475 92.6037C21.4105 93.2477 20.9227 94.3273 21.1447 95.353L21.2086 95.7603C21.3061 96.0957 19.0555 95.7091 19.1373 97.5031C19.1405 97.6275 19.0777 97.9492 18.972 97.9875C18.4789 98.1781 16.6339 98.3501 16.5353 100.042C16.5426 100.326 16.6438 100.804 16.842 100.906C16.95 100.956 17.0753 100.988 17.2357 101.002C17.5921 101.028 17.8651 101.27 17.9631 101.624C17.9855 101.801 18.0607 101.959 18.1345 102.064C18.5771 102.675 19.3458 102.833 19.93 102.729C20.6549 102.568 21.2814 102.036 21.387 101.304C21.4471 100.876 21.1294 100.279 20.7389 100.307C20.6501 100.309 20.3694 100.459 20.3175 100.514C20.091 100.697 20.8662 101.104 20.8389 101.425C20.8243 101.55 20.53 101.86 20.4065 101.898C20.0183 102.015 19.4413 101.71 19.1492 101.415C18.2915 100.566 19.2514 98.4783 20.5236 98.161C21.619 97.8838 22.8098 98.5466 23.349 99.4574L23.3134 99.4584L23.3476 99.4041Z" fill="black"/>
<path d="M186.87 98.906L186.273 99.8816C186.119 100.117 185.891 100.247 185.607 100.29C184.349 100.447 183.393 101.307 182.962 102.546L182.67 102.909C182.463 103.163 182.419 103.52 182.569 103.836L182.963 104.644C183.77 106.259 184.001 106.289 185.562 106.8C185.831 106.882 186.049 107.09 186.11 107.355C186.563 109.068 188.16 110.307 189.908 109.818C190.984 109.505 191.405 108.57 191.255 107.596C191.191 107.188 191.091 106.746 190.87 106.467C190.613 106.136 190.04 105.973 189.635 106.144C189.512 106.2 189.217 106.492 189.256 106.616C189.431 107.216 189.93 107.256 189.706 107.529C189.62 107.638 189.266 107.7 189.122 107.633C188.598 107.308 188.439 106.672 188.657 106.151C189.09 105.019 190.8 105.1 191.617 105.755C191.999 106.083 191.999 106.794 192.154 107.288C192.547 107.367 193.084 107.495 193.308 107.881C193.495 108.249 193.33 108.769 193.02 109.151C192.572 109.696 192.009 109.941 191.388 109.993C190.997 110.003 190.684 110.278 190.587 110.636C190.296 111.782 190.215 112.104 189.12 112.381C188.731 112.48 188.492 112.86 188.502 113.233C188.512 113.641 188.522 114.015 188.442 114.372C188.286 115.194 187.668 116.064 186.854 116.209C186.092 116.336 185.295 115.769 184.957 115.085C184.882 114.927 184.924 114.499 185.01 114.354C185.094 114.174 185.499 114.039 185.714 114.069L185.797 114.565C185.889 115.363 186.981 115.619 187.371 114.916C187.794 114.069 187.533 112.92 186.86 112.315C186.185 111.674 185.164 111.38 184.215 111.796C183.054 112.306 181.999 113.471 181.927 114.807C181.877 115.626 182.253 116.417 182.628 117.154C182.76 117.453 182.751 117.791 182.562 118.045C180.91 120.186 180.821 122.962 181.368 123.464C181.495 123.585 181.8 123.666 182.608 123.272C185.298 120.695 187.969 118.083 190.641 115.507C194.213 111.965 197.821 108.422 201.393 104.88C201.722 104.552 201.726 104.018 201.397 103.671L196.137 98.2937C195.443 97.6002 194.787 96.9769 194.127 96.2115L184.286 86.2754C183.738 85.7204 182.771 86.1366 182.809 86.9181C182.891 88.0363 183.207 89.273 183.616 89.9382C183.782 90.1829 183.808 90.4845 183.69 90.7543L183.301 91.5468C182.845 92.4655 183.007 93.9373 183.652 94.7921C184.315 95.6997 186.681 96.4034 187.656 94.9023C188.049 94.2875 188.1 93.486 187.673 92.8034C187.543 92.5934 187.058 92.4102 186.848 92.5224C186.531 92.6728 186.382 93.0856 186.392 93.4766C186.305 93.5322 186.057 93.5919 185.95 93.5769C185.825 93.5624 185.586 93.2484 185.582 93.1063C185.59 92.7326 185.981 92.029 186.475 91.8562C186.845 91.7222 187.505 91.7941 187.922 92.1212C188.739 92.7581 189.23 93.8658 189.007 94.8675L188.928 95.2785C188.848 95.6184 191.079 95.2586 191.001 97.0389C191.004 97.1633 191.066 97.4819 191.156 97.5329C191.641 97.7338 193.513 97.9167 193.574 99.6045C193.581 99.8711 193.451 100.355 193.259 100.466C193.153 100.522 193.012 100.562 192.87 100.565C192.533 100.609 192.237 100.83 192.139 101.171C192.09 101.35 192.04 101.494 191.972 101.602C191.526 102.218 190.747 102.363 190.193 102.252C189.46 102.094 188.841 101.558 188.733 100.814C188.669 100.389 189.009 99.7756 189.383 99.8193C189.472 99.817 189.743 99.9878 189.815 100.022C190.033 100.212 189.261 100.605 189.305 100.942C189.309 101.066 189.618 101.36 189.745 101.428C190.139 101.543 190.718 101.243 191.013 100.951C191.862 100.111 190.938 98.0364 189.666 97.6958C188.574 97.4038 187.364 98.0752 186.818 98.9784L186.853 98.942L186.87 98.906Z" fill="black"/>
<path d="M99.2121 22.2079L100.188 22.8052C100.423 22.9592 100.553 23.187 100.596 23.4704C100.753 24.729 101.614 25.6849 102.852 26.1153L103.215 26.4083C103.469 26.6151 103.826 26.6593 104.142 26.5089L104.95 26.1146C106.565 25.3083 106.595 25.0764 107.106 23.516C107.188 23.2472 107.396 23.0284 107.661 22.9682C109.374 22.5151 110.613 20.9182 110.124 19.1703C109.812 18.0936 108.876 17.6731 107.902 17.8227C107.494 17.8865 107.052 17.9868 106.774 18.2074C106.442 18.4649 106.279 19.0382 106.45 19.4428C106.506 19.5658 106.798 19.8606 106.922 19.8219C107.522 19.6464 107.562 19.1474 107.835 19.3715C107.944 19.4577 108.006 19.8117 107.939 19.9557C107.615 20.4798 106.978 20.6384 106.457 20.4207C105.326 19.9875 105.406 18.2782 106.061 17.4611C106.389 17.0792 107.1 17.0787 107.594 16.9237C107.673 16.5304 107.801 15.9936 108.187 15.7703C108.555 15.5829 109.075 15.7474 109.457 16.0576C110.002 16.506 110.247 17.0687 110.299 17.6898C110.309 18.0807 110.584 18.3937 110.942 18.4912C112.088 18.7818 112.41 18.8624 112.687 19.9578C112.786 20.3465 113.166 20.5857 113.539 20.5761C113.948 20.5655 114.321 20.5559 114.679 20.6356C115.501 20.7922 116.37 21.41 116.516 22.2243C116.642 22.9857 116.076 23.7828 115.391 24.1205C115.233 24.1957 114.805 24.1534 114.66 24.0682C114.48 23.9839 114.345 23.5784 114.375 23.3642L114.871 23.2803C115.669 23.1886 115.925 22.0972 115.222 21.7064C114.375 21.2836 113.226 21.5444 112.621 22.218C111.98 22.8925 111.687 23.9137 112.102 24.8633C112.612 26.0238 113.778 27.0785 115.113 27.1508C115.933 27.2008 116.723 26.8248 117.46 26.4501C117.759 26.3179 118.097 26.327 118.351 26.5161C120.492 28.1681 123.269 28.2566 123.77 27.7101C123.891 27.5825 123.973 27.2781 123.578 26.4703L115.813 18.4368C112.271 14.8648 108.728 11.2572 105.186 7.68512C104.858 7.35571 104.324 7.35168 103.977 7.68073L98.5998 12.9409C97.9063 13.6345 97.2831 14.2908 96.5176 14.9507L86.5815 24.792C86.0266 25.3398 86.4427 26.3071 87.2242 26.2692C88.3424 26.187 89.5791 25.8706 90.2444 25.4622C90.489 25.2959 90.7907 25.2703 91.0605 25.3878L91.8529 25.7764C92.7717 26.2329 94.2434 26.0705 95.0982 25.426C96.0058 24.7624 96.7095 22.3969 95.2084 21.422C94.5936 21.0288 93.7921 20.9783 93.1096 21.4049C92.8995 21.5348 92.7164 22.0197 92.8285 22.2302C92.979 22.5464 93.3918 22.6958 93.7828 22.6858C93.8384 22.7732 93.8981 23.0207 93.8831 23.1278C93.8685 23.2526 93.5546 23.4919 93.4124 23.4955C93.0388 23.4874 92.3351 23.0965 92.1624 22.603C92.0284 22.233 92.1002 21.5732 92.4274 21.1558C93.0643 20.3391 94.172 19.8482 95.1736 20.0713L95.5846 20.1497C95.9246 20.2298 95.5647 17.9984 97.3451 18.077C97.4695 18.0738 97.788 18.0122 97.839 17.922C98.0399 17.4367 98.2229 15.5647 99.9107 15.5034C100.177 15.4966 100.661 15.6264 100.772 15.8191C100.828 15.9244 100.868 16.0656 100.871 16.2078C100.916 16.5445 101.137 16.8412 101.477 16.9391C101.656 16.9878 101.8 17.0375 101.908 17.1058C102.524 17.5523 102.669 18.331 102.559 18.8851C102.4 19.6183 101.864 20.2368 101.12 20.3449C100.695 20.4092 100.082 20.0693 100.125 19.6947C100.123 19.6059 100.294 19.3347 100.328 19.2627C100.518 19.0444 100.911 19.8168 101.248 19.7725C101.372 19.7693 101.666 19.4594 101.734 19.3332C101.849 18.939 101.549 18.3599 101.257 18.0651C100.417 17.2154 98.3426 18.1402 98.0019 19.4116C97.71 20.5039 98.3813 21.7136 99.2846 22.2594L99.2481 22.2248L99.2121 22.2079Z" fill="black"/>
<path d="M41.7972 158.396L42.9068 158.669C43.1752 158.734 43.4399 158.656 43.6491 158.49C44.6606 157.717 45.9219 157.667 47.1099 158.223L47.556 158.283C47.895 158.327 48.1676 158.552 48.2825 158.869L48.5706 159.697C49.1304 161.408 48.9932 161.607 48.2306 163.067C48.1121 163.301 48.0849 163.622 48.2335 163.867C49.1086 165.392 48.8582 167.408 47.2625 168.284C46.2806 168.825 45.3282 168.441 44.7389 167.656C44.4809 167.307 44.2581 166.939 44.2134 166.585C44.1677 166.195 44.4561 165.654 44.8612 165.501C44.9842 165.445 45.4112 165.451 45.4677 165.574C45.7662 166.118 45.4382 166.5 45.795 166.544C45.9199 166.559 46.2169 166.355 46.2661 166.194C46.4287 165.603 46.076 165.025 45.5369 164.808C44.4218 164.321 43.2627 165.578 43.1471 166.612C43.0884 167.094 43.6175 167.614 43.8427 168.07C43.6021 168.397 43.3123 168.884 43.4473 169.29C43.5644 169.696 44.0507 169.932 44.5323 169.991C45.2282 170.08 45.7913 169.852 46.2789 169.448C46.575 169.209 46.9646 169.146 47.29 169.351C48.3017 169.965 48.5911 170.153 49.5721 169.576C49.9047 169.372 50.3513 169.45 50.6079 169.745C50.8822 170.041 51.1384 170.319 51.4638 170.524C52.1519 171.004 53.1881 171.19 53.8871 170.71C54.5158 170.267 54.6861 169.285 54.4372 168.597C54.3793 168.421 54.0526 168.163 53.8908 168.096C53.7113 168.029 53.3422 168.199 53.1868 168.381L53.4995 168.782C53.9785 169.427 53.3981 170.367 52.6275 170.138C51.7307 169.841 51.1181 168.843 51.1481 167.935C51.1775 167.01 51.7047 166.072 52.6734 165.709C53.8709 165.251 55.421 165.371 56.4218 166.252C57.0225 166.788 57.3111 167.634 57.5805 168.428C57.6776 168.745 57.9324 168.97 58.2536 169.015C60.9299 169.355 62.9355 171.277 62.9192 172.024C62.9238 172.202 62.753 172.473 61.9068 172.762L50.7245 172.89C45.6737 172.878 40.6412 172.883 35.5905 172.871C35.1106 172.883 34.7274 172.502 34.7328 172.022L34.6985 164.483C34.6907 163.487 34.7388 162.597 34.6599 161.603L34.6903 147.607C34.6875 146.806 35.674 146.443 36.2049 147.034C36.9378 147.869 37.5882 148.955 37.7514 149.768C37.7943 150.052 37.9784 150.296 38.2655 150.395L39.1086 150.676C40.0774 151.007 40.9789 152.175 41.1308 153.238C41.284 154.354 40.1127 156.518 38.3602 156.137C37.6269 155.978 37.0445 155.459 36.864 154.664C36.822 154.416 37.0411 153.948 37.253 153.889C37.5875 153.756 37.9839 153.959 38.2583 154.254C38.3471 154.252 38.5745 154.104 38.6606 153.995C38.7289 153.887 38.7015 153.514 38.5917 153.392C38.3178 153.115 37.5477 152.903 37.0734 153.129C36.7399 153.298 36.3084 153.807 36.2328 154.324C36.0994 155.359 36.5375 156.486 37.3879 157.051L37.7319 157.291C38.0213 157.479 36.1701 158.79 37.4994 160C37.5901 160.069 37.7756 160.366 37.7424 160.456C37.5242 160.96 36.351 162.359 37.4507 163.629C37.6339 163.838 38.0673 164.093 38.2792 164.035C38.3858 164.032 38.5075 163.922 38.6118 163.83C38.8902 163.592 39.2456 163.583 39.5523 163.753C39.6968 163.838 39.859 163.923 39.9661 163.938C40.7162 164.061 41.3631 163.635 41.6707 163.147C42.0816 162.532 42.1494 161.712 41.7073 161.119C41.4494 160.77 40.7863 160.573 40.5449 160.864C40.4756 160.937 40.3941 161.224 40.3786 161.313C40.3504 161.598 41.1797 161.346 41.3816 161.59C41.4732 161.694 41.4659 162.103 41.3981 162.229C41.2117 162.59 40.5761 162.766 40.1673 162.777C38.9757 162.772 38.1739 160.641 38.8564 159.521C39.4358 158.545 40.76 158.173 41.7803 158.432L41.7448 158.433L41.7972 158.396Z" fill="black"/>
<path d="M158.541 165.861L158.815 164.751C158.879 164.483 158.801 164.218 158.636 164.009C157.863 162.997 157.812 161.736 158.369 160.548L158.428 160.102C158.473 159.763 158.697 159.49 159.014 159.375L159.843 159.087C161.553 158.528 161.752 158.665 163.212 159.427C163.447 159.546 163.767 159.573 164.013 159.424C165.537 158.549 167.553 158.8 168.43 160.395C168.971 161.377 168.587 162.33 167.802 162.919C167.453 163.177 167.085 163.4 166.73 163.445C166.34 163.49 165.799 163.202 165.647 162.797C165.59 162.674 165.597 162.247 165.72 162.19C166.264 161.892 166.645 162.22 166.69 161.863C166.704 161.738 166.501 161.441 166.34 161.392C165.748 161.229 165.171 161.582 164.953 162.121C164.467 163.236 165.723 164.395 166.758 164.511C167.239 164.57 167.759 164.04 168.216 163.815C168.542 164.056 169.03 164.346 169.435 164.211C169.841 164.093 170.078 163.607 170.137 163.126C170.225 162.43 169.997 161.867 169.594 161.379C169.355 161.083 169.291 160.693 169.496 160.368C170.11 159.356 170.299 159.067 169.722 158.086C169.518 157.753 169.595 157.307 169.891 157.05C170.186 156.776 170.464 156.52 170.669 156.194C171.149 155.506 171.336 154.47 170.856 153.771C170.413 153.142 169.43 152.972 168.743 153.221C168.567 153.279 168.308 153.605 168.241 153.767C168.175 153.947 168.345 154.316 168.526 154.471L168.927 154.158C169.573 153.679 170.513 154.26 170.283 155.03C169.986 155.927 168.989 156.54 168.081 156.51C167.155 156.48 166.217 155.953 165.854 154.985C165.397 153.787 165.517 152.237 166.398 151.236C166.934 150.635 167.78 150.347 168.573 150.077C168.891 149.98 169.115 149.726 169.16 149.404C169.5 146.728 171.423 144.722 172.17 144.739C172.348 144.734 172.619 144.905 172.907 145.751C172.95 149.484 172.975 153.201 173.036 156.933C173.024 161.984 173.029 167.017 173.017 172.067C173.029 172.547 172.648 172.931 172.167 172.925L164.628 172.959C163.633 172.967 162.742 172.919 161.748 172.998L147.752 172.968C146.952 172.97 146.589 171.984 147.18 171.453C148.014 170.72 149.1 170.07 149.914 169.906C150.197 169.864 150.442 169.679 150.541 169.392L150.821 168.549C151.152 167.581 152.32 166.679 153.383 166.527C154.5 166.374 156.664 167.545 156.282 169.298C156.123 170.031 155.605 170.613 154.809 170.794C154.562 170.836 154.094 170.617 154.035 170.405C153.902 170.07 154.105 169.674 154.4 169.4C154.398 169.311 154.25 169.083 154.141 168.997C154.032 168.929 153.659 168.956 153.538 169.066C153.26 169.34 153.049 170.11 153.275 170.585C153.443 170.918 153.952 171.35 154.47 171.425C155.505 171.558 156.632 171.12 157.197 170.27L157.437 169.926C157.625 169.637 158.935 171.488 160.146 170.158C160.215 170.068 160.512 169.882 160.602 169.916C161.105 170.134 162.505 171.307 163.775 170.207C163.984 170.024 164.239 169.591 164.18 169.379C164.178 169.272 164.068 169.15 163.976 169.046C163.738 168.768 163.729 168.412 163.898 168.106C163.984 167.961 164.068 167.799 164.083 167.692C164.206 166.942 163.781 166.295 163.293 165.987C162.677 165.576 161.858 165.508 161.264 165.951C160.915 166.209 160.719 166.872 161.01 167.113C161.083 167.182 161.369 167.264 161.459 167.279C161.744 167.308 161.491 166.478 161.735 166.276C161.839 166.185 162.249 166.192 162.375 166.26C162.735 166.446 162.912 167.082 162.922 167.491C162.917 168.682 160.786 169.484 159.666 168.802C158.691 168.222 158.319 166.898 158.577 165.878L158.578 165.913L158.541 165.861Z" fill="black"/>
<path d="M42.749 50.427L43.8622 50.1494C44.1274 50.0892 44.3962 50.1712 44.6141 50.3434C45.6303 51.1352 46.894 51.1738 48.0887 50.6095L48.5311 50.5269C48.8688 50.5182 49.1476 50.2977 49.2456 49.9573L49.5261 49.1142C50.1041 47.3921 49.9752 47.2176 49.2081 45.7436C49.0772 45.498 49.0695 45.1959 49.2052 44.9434C50.0904 43.409 49.8427 41.3881 48.2728 40.5039C47.2985 39.9599 46.348 40.3401 45.7457 41.1203C45.4878 41.4648 45.2664 41.844 45.2222 42.2008C45.1794 42.6109 45.4775 43.1367 45.8726 43.2866C45.9984 43.3367 46.4254 43.3435 46.4755 43.2177C46.7638 42.6768 46.4512 42.2758 46.8062 42.2489C46.9479 42.2274 47.2377 42.4334 47.2952 42.5919C47.4529 43.1925 47.0761 43.7535 46.5663 43.98C45.4581 44.4532 44.306 43.2203 44.2075 42.1558C44.1413 41.6596 44.6621 41.166 44.9172 40.7149C44.6952 40.3827 44.3981 39.8924 44.5297 39.48C44.644 39.0858 45.1357 38.842 45.6319 38.7758C46.3414 38.7042 46.8987 38.9388 47.3891 39.3352C47.6798 39.5767 48.0899 39.6194 48.4057 39.4512C49.4036 38.8387 49.7016 38.671 50.6941 39.2322C51.0373 39.4368 51.4615 39.3369 51.7389 39.063C52.0164 38.7891 52.2934 38.4974 52.5905 38.2942C53.2899 37.8316 54.3165 37.6451 55.0224 38.1248C55.6563 38.5708 55.8059 39.545 55.5572 40.245C55.4903 40.4068 55.1773 40.6816 55.0187 40.739C54.825 40.8151 54.4641 40.611 54.3178 40.4548L54.6276 40.0556C55.1092 39.4207 54.5335 38.4753 53.7566 38.6909L53.7389 38.6914C52.8221 38.9995 52.2252 39.993 52.2486 40.8993C52.2729 41.8412 52.777 42.7707 53.7645 43.1365C54.9502 43.6039 56.5127 43.5103 57.5215 42.6307C58.1475 42.081 58.4286 41.2558 58.675 40.4669C58.7739 40.1621 59.0345 39.9242 59.3534 39.8804C62.03 39.5447 64.0616 37.6428 64.0424 36.8964C64.0378 36.7187 63.8705 36.4385 63.027 36.1402L51.8542 35.948C46.8208 35.9177 41.7696 35.8878 36.7362 35.8575C36.2564 35.8699 35.8746 36.2354 35.8865 36.6974L35.8137 44.2216C35.8033 45.2 35.8271 46.1241 35.7639 47.1216L35.7157 61.1182C35.7185 61.9183 36.6883 62.2846 37.2068 61.7022C37.9325 60.8832 38.5976 59.7813 38.773 58.9943C38.8367 58.7081 39.0081 58.4547 39.2906 58.3763L40.119 58.0882C41.0886 57.7609 42.0012 56.5993 42.1696 55.5457C42.3367 54.4389 41.1599 52.2463 39.4274 52.6466C38.7025 52.8076 38.111 53.3207 37.9179 54.1082C37.871 54.3584 38.0784 54.8154 38.294 54.8987C38.6171 55.0149 39.0212 54.8266 39.2805 54.5354C39.3698 54.5509 39.5867 54.6876 39.6783 54.7919C39.7699 54.8963 39.7267 55.2886 39.6051 55.3984C39.3276 55.6723 38.5684 55.8875 38.0822 55.6511C37.7399 55.4821 37.3175 54.9595 37.2509 54.4455C37.1172 53.3997 37.5509 52.286 38.4257 51.7299L38.7756 51.5075C39.0727 51.3042 37.2257 50.0181 38.5634 48.7922C38.6677 48.7005 38.8563 48.4289 38.8007 48.3415C38.5929 47.8667 37.4175 46.421 38.541 45.165C38.731 44.9467 39.152 44.7224 39.3844 44.7698C39.5098 44.8021 39.6009 44.8887 39.7276 44.9743C40.0001 45.1985 40.3569 45.2426 40.6544 45.0571C40.8121 44.9641 40.9524 44.8894 41.0764 44.8684C41.8378 44.7421 42.4717 45.1881 42.7867 45.6779C43.2119 46.3072 43.2507 47.1242 42.786 47.723C42.5282 48.0675 41.8574 48.2627 41.6364 47.9661C41.563 47.879 41.4846 47.5965 41.4823 47.5077C41.4572 47.2238 42.2815 47.4693 42.4888 47.2327C42.575 47.1238 42.5639 46.6973 42.5079 46.5921C42.321 46.2412 41.6935 46.044 41.2665 46.0372C40.0749 46.0324 39.2582 48.1518 39.9282 49.3083C40.5052 50.307 41.8126 50.6646 42.8552 50.4065L42.8019 50.4079L42.749 50.427Z" fill="black"/>
<path d="M159.435 43.1692L159.712 44.2824C159.772 44.5476 159.69 44.8165 159.518 45.0343C158.726 46.0506 158.688 47.3142 159.252 48.5089L159.335 48.9513C159.343 49.289 159.564 49.5678 159.904 49.6658L160.747 49.9464C162.469 50.5244 162.644 50.3954 164.118 49.6283C164.363 49.4975 164.666 49.4897 164.918 49.6255C166.452 50.5106 168.473 50.2629 169.358 48.693C169.902 47.7187 169.521 46.7682 168.741 46.1659C168.397 45.908 168.018 45.6866 167.661 45.6425C167.251 45.5997 166.725 45.8978 166.575 46.2929C166.525 46.4186 166.518 46.8456 166.644 46.8957C167.185 47.1841 167.586 46.8714 167.613 47.2264C167.634 47.3681 167.428 47.658 167.27 47.7154C166.669 47.8731 166.108 47.4964 165.882 46.9865C165.408 45.8783 166.641 44.7262 167.706 44.6277C168.202 44.5615 168.696 45.0823 169.147 45.3374C169.479 45.1155 169.969 44.8183 170.382 44.9499C170.776 45.0642 171.02 45.5559 171.086 46.0521C171.157 46.7616 170.923 47.3189 170.526 47.8093C170.285 48.1 170.242 48.5101 170.41 48.8259C171.023 49.8238 171.191 50.1218 170.629 51.1143C170.425 51.4575 170.525 51.8817 170.798 52.1592C171.09 52.4184 171.364 52.7136 171.567 53.0107C172.03 53.7101 172.216 54.7367 171.737 55.4426C171.291 56.0765 170.316 56.2261 169.617 55.9774C169.455 55.9105 169.18 55.5975 169.123 55.4389C169.046 55.2452 169.251 54.8843 169.407 54.738L169.806 55.0478C170.441 55.5294 171.386 54.9537 171.171 54.1768C170.88 53.2418 169.869 52.6455 168.962 52.6688C168.02 52.6931 167.091 53.1972 166.725 54.1847C166.258 55.3705 166.351 56.933 167.231 57.9417C167.78 58.5678 168.606 58.8488 169.395 59.0952C169.699 59.1941 169.937 59.4547 169.981 59.7736C170.317 62.4503 172.219 64.4819 172.965 64.4626C173.143 64.458 173.423 64.2908 173.721 63.4473L173.914 52.2745C173.944 47.241 173.974 42.1898 174.004 37.1564C173.992 36.6766 173.626 36.2948 173.164 36.3067L165.64 36.2339C164.662 36.2235 163.737 36.2474 162.74 36.1841L148.743 36.1359C147.943 36.1387 147.577 37.1085 148.159 37.627C148.978 38.3527 150.08 39.0179 150.867 39.1932C151.153 39.257 151.407 39.4283 151.485 39.7108L151.773 40.5392C152.101 41.5088 153.262 42.4214 154.316 42.5898C155.423 42.7569 157.615 41.5801 157.215 39.8476C157.054 39.1227 156.541 38.5313 155.753 38.3382C155.503 38.2913 155.046 38.4987 154.963 38.7142C154.847 39.0373 155.035 39.4415 155.326 39.7007C155.311 39.79 155.174 40.0069 155.07 40.0985C154.965 40.1901 154.573 40.1469 154.463 40.0253C154.189 39.7478 153.974 38.9887 154.21 38.5024C154.379 38.1602 154.902 37.7377 155.416 37.6711C156.462 37.5374 157.576 37.9711 158.132 38.8459L158.354 39.1959C158.557 39.4929 159.843 37.6459 161.069 38.9836C161.161 39.0879 161.433 39.2766 161.52 39.221C161.995 39.0131 163.441 37.8377 164.697 38.9612C164.915 39.1512 165.139 39.5722 165.092 39.8047C165.059 39.93 164.973 40.0211 164.887 40.1478C164.663 40.4203 164.619 40.7771 164.804 41.0747C164.897 41.2323 164.972 41.3727 164.993 41.4966C165.119 42.258 164.673 42.8919 164.184 43.2069C163.554 43.6321 162.737 43.6709 162.139 43.2062C161.794 42.9484 161.599 42.2776 161.895 42.0566C161.983 41.9832 162.265 41.9048 162.354 41.9025C162.638 41.8774 162.392 42.7018 162.629 42.9091C162.738 42.9952 163.164 42.9842 163.269 42.9281C163.62 42.7412 163.818 42.1137 163.824 41.6868C163.829 40.4952 161.71 39.6784 160.553 40.3484C159.554 40.9255 159.197 42.2328 159.455 43.2754L159.454 43.2221L159.435 43.1692Z" fill="black"/>
</svg>
