<svg width="209" height="209" viewBox="0 0 209 209" fill="none" xmlns="http://www.w3.org/2000/svg">
<path d="M200.352 107.768L203.116 105.108L200.564 102.358L199.086 102.278L198.748 100.493L187.633 88.9342C186.961 89.6652 187.73 90.4065 187.626 91.1028C187.358 92.817 186.574 94.5644 186.965 96.3301C187.15 97.1599 187.016 97.466 186.434 98.1943C185.816 98.9237 185.712 100.207 184.715 100.752C183.701 101.297 182.19 101.289 181.109 100.824C180.695 100.641 179.944 99.8809 179.842 99.4397C179.512 97.9387 179.395 96.396 180.907 95.8354C181.435 95.642 181.949 95.6088 182.373 96.1294C183.369 97.3438 181.401 96.9049 181.178 97.7646C181.081 98.1052 181.33 98.6843 181.549 98.8911C182.191 99.5473 182.727 99.638 183.5 99.3483C185.117 98.7313 186 96.7499 184.905 95.2185C184.498 94.6797 183.969 94.1978 183.472 93.6439L184.675 91.6529L185.05 90.5398C185.361 89.6418 185.496 88.8025 185.201 87.8338C185.042 87.2875 184.933 86.5976 184.51 86.1304C183.754 85.2287 182.858 84.3668 181.744 83.9734C180.936 83.6954 179.705 83.5366 178.914 83.8446C178.264 84.0773 177.121 85.1067 176.892 85.7711C176.582 86.6868 176.545 87.8254 176.538 88.8031C176.751 89.3833 177.631 90.2813 178.19 90.549C179.128 91.0009 180.15 90.7215 180.748 89.9039C180.918 89.65 181.12 89.253 181.148 89.0211C181.276 87.9508 180.049 88.5207 179.239 87.5851C179.018 87.3073 178.961 86.5981 179.322 86.1963C179.787 85.6848 180.885 85.5631 181.467 85.9901C183.994 87.8875 183.259 88.2827 183.21 89.0306C182.963 92.0772 182.604 92.5323 179.757 93.6125C178.79 93.9791 178.306 95.0421 177.814 95.8211C177.136 96.9255 177.076 97.887 177.503 99.0829L177.93 100.314C177.431 101.431 175.445 102.184 176.451 103.735C176.861 104.398 177.52 104.414 178.458 104.298L178.945 102.737C179.026 102.468 179.411 102.296 179.68 102.377L181.421 102.929C183.663 103.627 184.228 102.899 186.386 101.946C186.966 102.924 187.695 104.129 188.912 104.412C190.344 104.76 191.695 104.738 192.838 103.762C193.493 103.067 193.988 101.772 193.837 100.906C193.423 98.3413 191.43 98.8451 191.75 97.6447C191.829 97.3402 192.582 96.9445 192.853 97.1142C194.994 98.5788 195.943 100.594 195.916 103.243L194.352 105.05C195.023 106.096 197.029 107.209 195.924 108.895C195.057 110.218 193.937 111.389 192.653 112.423C192.305 112.7 191.339 111.893 191.616 111.636L193.391 109.788C194.58 108.526 193.487 107.048 192.661 106.167C191.762 105.198 190.96 105.151 189.773 105.257C188.142 105.413 186.684 105.972 186.097 107.749L184.864 106.95C183.233 105.879 181.147 106.261 179.499 107.004C178.661 106.922 178.555 105.752 178.519 105.149C177.844 104.582 176.649 105.009 176.277 105.642C175.735 106.547 176.099 107.425 176.901 108.112C178.378 109.365 176.578 110.397 176.866 111.703C177.236 113.363 178.123 115.096 179.622 115.922C182.568 117.558 182.932 118.436 182.303 121.761C182.135 122.708 181.402 123.138 180.627 123.392C179.642 123.724 178.367 123.282 178.278 122.094C178.209 120.959 180.203 121.095 180.524 120.534C180.642 120.317 180.605 119.678 180.439 119.47C179.606 118.357 177.933 118.265 176.874 119.114C175.122 120.553 176.074 122.693 176.019 122.623C176.808 123.453 177.947 124.699 178.822 125.419C179.606 126.089 180.634 125.401 181.359 125.272C182.897 124.995 183.666 123.977 184.249 122.662C184.715 121.6 184.992 120.738 184.762 119.59C184.491 118.265 184.208 117.118 183.024 116.14C183.728 114.715 185.082 114.835 184.923 112.494C184.843 111.59 184.678 110.812 183.789 110.217C183.354 109.946 182.519 109.935 182.116 110.142C181.608 110.406 180.936 111.102 180.933 111.582L182.338 112.82C182.204 113.108 181.646 113.445 181.291 113.455C180.527 113.46 179.383 112.659 179.543 111.481C179.64 110.554 179.743 109.236 180.812 108.724C181.512 108.365 183.145 108.299 183.884 108.632C185.235 109.25 185.584 110.803 186.29 111.849C186.718 112.493 186.531 112.783 186.393 113.498C185.996 115.679 187.303 117.808 186.843 120.843L198.453 109.673C198.562 109.136 198.533 108.177 199.004 107.861C199.248 107.694 199.997 107.796 200.388 107.802L200.335 107.804L200.352 107.768ZM190.228 101.458L191.117 100.881C191.292 100.769 191.854 101.161 191.879 101.373C191.859 101.925 190.936 102.539 190.298 102.593C189.572 102.686 189.071 102.595 188.557 102.041C187.675 101.072 187.655 99.8108 188.494 98.7372C190.41 96.2273 187.665 95.3672 189.407 94.1778L191.293 96.041L190.251 96.8541C190.112 96.9649 190.358 97.4552 190.346 97.6511L189.311 99.2993C189.005 99.7883 188.775 100.399 189.001 100.837C189.228 101.31 189.899 101.735 190.264 101.475L190.229 101.476L190.228 101.458ZM189.217 115.831C187.407 114.73 189.032 114.397 188.502 112.12C187.567 110.549 187.045 107.951 189.276 107.067C189.926 106.817 191.223 107.4 191.705 108.079C191.853 108.252 191.8 108.876 191.658 108.88C190.84 108.869 189.95 107.634 189.129 108.689C187.674 110.581 190.603 110.458 189.736 112.35L191.153 113.978L189.236 115.849L189.217 115.831ZM198.035 105.171C198.236 104.774 198.725 104.475 199.153 104.515L200.828 104.679C200.988 104.674 201.411 105.141 201.29 105.251C200.53 105.985 198.936 105.588 198.034 105.153L198.052 105.153L198.035 105.171Z" fill="black"/>
<path d="M173.282 64.8174C174.168 63.5469 173.988 62.2726 173.485 60.919C173.062 59.8475 172.647 59.0245 171.668 58.3783C170.544 57.6299 169.512 57.0208 168.006 57.1724C167.482 55.6773 168.539 54.7926 166.752 53.2641C166.077 52.68 165.406 52.2379 164.347 52.4827C163.835 52.5869 163.248 53.1732 163.119 53.6213C162.958 54.1771 162.968 55.1188 163.316 55.4639L165.196 55.3367C165.313 55.6531 165.153 56.2799 164.894 56.5187C164.359 57.0679 162.998 57.304 162.259 56.3485C161.685 55.6014 160.821 54.6319 161.197 53.5187C161.458 52.7644 162.56 51.5585 163.316 51.2871C164.705 50.7658 166.045 51.6145 167.297 51.8615C168.048 52.0169 168.129 52.3521 168.537 52.9265C169.8 54.7372 172.234 55.3222 174.05 57.8096L174.369 41.6975C174.071 41.2443 173.359 40.5901 173.484 40.0354C173.546 39.7314 174.138 39.2872 174.414 39.0301L174.495 35.1887L170.74 35.0341L169.632 36.0269L168.127 35.0055L152.104 34.7015C152.151 35.6776 153.217 35.6813 153.625 36.2379C154.645 37.6649 155.32 39.4399 156.859 40.3892C157.565 40.8303 157.717 41.1457 157.798 42.0852C157.88 43.0248 158.727 44.0304 158.404 45.1064C158.082 46.218 157.011 47.263 155.904 47.7048C155.482 47.8596 154.416 47.8558 154.036 47.6184C152.749 46.7859 151.581 45.7721 152.231 44.313C152.463 43.7729 152.808 43.4072 153.486 43.4936C155.054 43.6423 153.345 44.7419 153.812 45.4922C153.981 45.7893 154.574 46.0205 154.859 46.0297C155.784 46.0555 156.219 45.7403 156.57 44.9834C157.269 43.4162 156.497 41.3598 154.64 41.0775C153.98 40.9728 153.27 41.0118 152.522 40.963L151.992 38.7038L151.463 37.6354C151.047 36.7947 150.545 36.081 149.661 35.6097C149.155 35.3404 148.574 34.9312 147.968 34.8782C146.81 34.7706 145.548 34.7904 144.497 35.3017C143.744 35.6618 142.754 36.4378 142.386 37.2131C142.085 37.8441 142.006 39.375 142.309 39.988C142.725 40.8465 143.497 41.6766 144.194 42.4023C144.752 42.6522 146.032 42.6673 146.594 42.455C147.579 42.1057 148.121 41.1832 147.949 40.2107C147.905 39.9099 147.75 39.4702 147.62 39.2963C146.973 38.4625 146.495 39.7209 145.248 39.6337C144.892 39.6088 144.362 39.1269 144.329 38.5947C144.29 37.9027 144.976 37.0469 145.702 36.9542C148.834 36.5053 148.609 37.294 149.07 37.849C151.059 40.1891 151.112 40.7562 149.861 43.5306C149.427 44.4678 149.833 45.5576 150.056 46.4752C150.36 47.728 151.004 48.4553 152.121 48.9907L153.294 49.56C153.737 50.7021 152.87 52.6474 154.641 53.0211C155.393 53.1942 155.878 52.771 156.459 52.0071L155.705 50.5367C155.573 50.3096 155.72 49.8786 155.984 49.7641L157.593 48.9163C159.694 47.8228 159.56 46.9203 160.401 44.7091C161.511 44.9959 162.854 45.3291 163.936 44.6747C165.193 43.9085 166.141 42.9205 166.275 41.4413C166.246 40.4824 165.675 39.2198 164.967 38.7077C162.86 37.1887 161.793 38.9624 161.174 37.8789C161.024 37.6168 161.266 36.792 161.584 36.7114C164.129 36.2444 166.231 36.9815 168.082 38.8814L168.26 41.2577C169.477 41.5235 171.679 40.8891 172.075 42.8501C172.389 44.4226 172.437 46.0385 172.272 47.6608C172.215 48.1068 170.974 48.215 170.962 47.842L170.886 45.285C170.87 43.5614 169.049 43.2781 167.839 43.2431C166.523 43.2112 165.916 43.727 165.162 44.6382C164.116 45.9135 163.464 47.3193 164.314 48.9824L162.883 49.2917C160.958 49.7046 159.766 51.4464 159.123 53.1185C158.481 53.6353 157.57 52.8982 157.114 52.503C156.228 52.6006 155.711 53.7357 155.874 54.4418C156.136 55.4648 157.018 55.8473 158.064 55.745C159.996 55.5629 159.451 57.5698 160.575 58.3005C162.006 59.2176 163.855 59.82 165.511 59.3263C168.753 58.3942 169.635 58.7589 171.532 61.5638C172.071 62.3476 171.846 63.1718 171.477 63.9115C171.008 64.8498 169.817 65.4363 168.923 64.6631C168.065 63.9067 169.589 62.5815 169.412 61.9826C169.334 61.7538 168.859 61.3237 168.609 61.2956C167.217 61.106 165.97 62.2096 165.851 63.564C165.633 65.8099 167.809 66.6514 167.72 66.6541C168.877 66.6907 170.567 66.7469 171.684 66.6602C172.712 66.5762 172.96 65.3602 173.369 64.7615L173.336 64.8336L173.282 64.8174ZM160.103 38.9239L160.534 40.8306C160.657 41.3956 160.941 41.9915 161.408 42.1375C161.911 42.318 162.67 42.1532 162.763 41.6883L162.981 40.6509C163.028 40.4363 163.717 40.309 163.864 40.4646C164.25 40.8797 164.033 41.9525 163.604 42.463C163.141 43.0455 162.741 43.3241 161.993 43.2931C160.677 43.2435 159.779 42.3461 159.614 41.0002C159.202 37.8844 156.646 39.2048 157.028 37.1139L159.676 37.106L159.502 38.4087C159.471 38.5873 159.992 38.7673 160.139 38.9051L160.103 38.9239ZM170.888 38.7799C170.768 38.3391 170.894 37.8022 171.206 37.5263L172.507 36.4566C172.628 36.3641 173.25 36.3633 173.256 36.5409C173.252 37.6074 171.837 38.4316 170.888 38.7799ZM166.012 46.3368C166.295 45.7063 167.631 45.1866 168.435 45.3403C168.667 45.3689 169.09 45.8362 168.951 45.947C168.346 46.516 166.846 46.2764 167.027 47.5862C167.347 49.9583 169.326 47.7842 170.024 49.754L172.179 49.8852L172.152 52.5698C170.106 53.0752 171.006 51.6975 169.014 50.4418C167.241 49.9793 165.028 48.499 165.976 46.3024L165.993 46.3018L166.012 46.3368Z" fill="black"/>
<path d="M175.422 170.54L174.394 169.451L175.379 167.911L175.185 151.885C174.21 151.968 174.242 153.033 173.704 153.458C172.313 154.513 170.558 155.24 169.645 156.814C169.222 157.538 168.924 157.689 167.986 157.805C167.047 157.922 166.078 158.787 164.985 158.499C163.857 158.213 162.777 157.179 162.318 156.073C162.145 155.651 162.114 154.586 162.351 154.188C163.147 152.884 164.106 151.683 165.599 152.278C166.14 152.511 166.523 152.837 166.471 153.496C166.376 155.081 165.224 153.391 164.475 153.893C164.178 154.08 163.965 154.673 163.973 154.957C163.965 155.881 164.316 156.315 165.072 156.63C166.673 157.294 168.692 156.451 168.921 154.578C169.008 153.918 168.95 153.191 168.964 152.462L171.203 151.862L172.253 151.315C173.076 150.882 173.771 150.364 174.224 149.444C174.475 148.938 174.866 148.34 174.901 147.735C174.973 146.56 174.918 145.317 174.372 144.285C173.994 143.532 173.184 142.579 172.391 142.229C171.743 141.946 170.214 141.921 169.601 142.241C168.761 142.675 167.95 143.481 167.261 144.213C167.028 144.771 167.049 146.05 167.279 146.612C167.645 147.578 168.603 148.101 169.575 147.912C169.875 147.849 170.297 147.695 170.47 147.547C171.285 146.865 170.011 146.441 170.063 145.196C170.087 144.839 170.551 144.292 171.065 144.241C171.756 144.185 172.629 144.835 172.757 145.559C173.295 148.689 172.506 148.464 171.952 148.96C169.685 151.019 169.101 151.089 166.294 149.929C165.34 149.531 164.268 149.954 163.352 150.212C162.118 150.551 161.409 151.212 160.892 152.365L160.359 153.554C159.218 154.032 157.274 153.22 156.936 155.007C156.799 155.775 157.239 156.224 158.003 156.788L159.436 155.999C159.664 155.868 160.094 155.997 160.226 156.242L161.126 157.832C162.29 159.895 163.192 159.744 165.419 160.512C165.167 161.622 164.87 162.982 165.559 164.045C166.378 165.283 167.383 166.195 168.861 166.275C169.819 166.211 171.062 165.605 171.556 164.879C173.003 162.721 171.213 161.726 172.278 161.072C172.54 160.904 173.364 161.129 173.444 161.446C174 163.971 173.316 166.089 171.472 168.01L169.098 168.259C168.867 169.474 169.573 171.675 167.613 172.124C166.06 172.49 164.445 172.574 162.807 172.463C162.361 172.423 162.2 171.184 162.591 171.172L165.146 171.042C166.868 170.956 167.097 169.118 167.097 167.909C167.093 166.594 166.56 166.006 165.632 165.287C164.34 164.277 162.9 163.68 161.256 164.565L160.912 163.153C160.446 161.247 158.67 160.11 156.964 159.503C156.412 158.879 157.131 157.952 157.525 157.46C157.41 156.592 156.258 156.094 155.553 156.292C154.549 156.589 154.184 157.471 154.322 158.515C154.557 160.446 152.535 159.973 151.84 161.113C150.977 162.561 150.411 164.444 150.957 166.063C151.994 169.266 151.648 170.165 148.899 172.149C148.133 172.705 147.31 172.517 146.553 172.166C145.598 171.732 144.976 170.542 145.731 169.631C146.452 168.756 147.828 170.226 148.427 170.031C148.656 169.953 149.067 169.46 149.096 169.211C149.249 167.802 148.111 166.592 146.758 166.508C144.514 166.362 143.727 168.571 143.742 168.482C143.741 169.637 143.738 171.326 143.86 172.442C143.962 173.47 145.194 173.682 145.81 174.072C147.115 174.922 148.371 174.707 149.705 174.151C150.776 173.711 151.562 173.261 152.19 172.247C152.902 171.106 153.475 170.058 153.288 168.552C154.764 167.993 155.684 169.014 157.158 167.193C157.724 166.501 158.13 165.813 157.867 164.755C157.745 164.243 157.142 163.674 156.693 163.545C156.138 163.402 155.179 163.431 154.853 163.796L155.033 165.674C154.735 165.808 154.09 165.649 153.852 165.408C153.286 164.891 153.014 163.531 153.916 162.775C154.644 162.167 155.577 161.268 156.707 161.626C157.461 161.87 158.701 162.917 158.99 163.672C159.546 165.042 158.734 166.417 158.54 167.667C158.421 168.417 158.086 168.516 157.512 168.942C155.738 170.257 155.225 172.707 152.811 174.592L168.926 174.413C169.379 174.098 170.014 173.368 170.551 173.476C170.854 173.52 171.316 174.111 171.591 174.369L175.428 174.326L175.458 170.557L175.403 170.505L175.422 170.54ZM171.218 160.108L169.331 160.591C168.766 160.733 168.189 161.034 168.043 161.501C167.88 162.003 168.081 162.761 168.527 162.837L169.563 163.019C169.778 163.048 169.923 163.737 169.767 163.902C169.37 164.287 168.281 164.124 167.771 163.713C167.171 163.268 166.893 162.868 166.888 162.122C166.902 160.806 167.763 159.874 169.108 159.674C172.221 159.172 170.813 156.637 172.902 156.966L172.981 159.611L171.698 159.49C171.519 159.477 171.357 159.998 171.219 160.126L171.218 160.108ZM157.923 172.591C157.365 170.564 158.759 171.411 159.96 169.384C160.369 167.595 161.777 165.349 164.007 166.224C164.637 166.49 165.192 167.806 165.074 168.61C165.045 168.842 164.595 169.264 164.485 169.143C163.899 168.556 164.103 167.057 162.777 167.274C160.407 167.665 162.632 169.571 160.7 170.34L160.622 172.493L157.939 172.537L157.923 172.591ZM171.664 170.866C172.086 170.729 172.64 170.837 172.934 171.148L174.038 172.412C174.148 172.533 174.149 173.155 173.989 173.16C172.924 173.192 172.047 171.796 171.681 170.865L171.664 170.866Z" fill="black"/>
<path d="M67.3697 41.2468C67.6896 40.6508 67.679 39.1048 67.4291 38.4724C67.1034 37.6823 66.1374 36.8758 65.4149 36.4886C64.4035 35.95 63.1218 35.8816 61.9681 35.9338C61.3466 35.9523 60.754 36.3433 60.2464 36.6072C59.3352 37.0432 58.8043 37.7167 58.3675 38.565L57.8122 39.6124L57.1859 41.8528C56.4401 41.875 55.7266 41.7897 55.0717 41.8803C53.1765 42.0968 52.3479 44.1122 52.9644 45.7111C53.2718 46.484 53.6903 46.8092 54.6325 46.8166C54.9166 46.8082 55.5328 46.612 55.7191 46.3043C56.1946 45.5614 54.5427 44.4021 56.1215 44.3017C56.7963 44.2816 57.1093 44.6455 57.3383 45.1719C57.9521 46.682 56.7188 47.6431 55.4087 48.4108C55.0067 48.6361 53.9396 48.6146 53.5254 48.4315C52.4268 47.9488 51.4168 46.8593 51.1343 45.7302C50.8706 44.6361 51.7309 43.6862 51.8454 42.7586C51.9599 41.831 52.1107 41.5243 52.8443 41.0937C54.4348 40.1931 55.1643 38.4295 56.2433 37.0644C56.6891 36.5179 57.7389 36.5576 57.8163 35.5778L41.7924 35.2383L40.2573 36.2083L39.1956 35.1736L35.4273 35.1616L35.3464 39.003C35.6029 39.262 36.1865 39.76 36.2305 40.0431C36.318 40.5914 35.5902 41.2174 35.2833 41.6531L34.9464 57.7658C36.8481 55.3808 39.3214 54.8804 40.6546 53.0989C41.0816 52.5174 41.1608 52.1951 41.9212 52.0658C43.1767 51.8506 44.5578 51.0807 45.926 51.6619C46.6641 51.9776 47.7138 53.2082 47.9497 53.9654C48.2855 55.0929 47.3719 56.0443 46.771 56.7554C45.9984 57.6671 44.6383 57.3522 44.1419 56.7983C43.9031 56.5388 43.7775 55.9027 43.8933 55.6149L45.748 55.8262C46.1114 55.4954 46.1538 54.5344 46.0125 53.9699C45.8928 53.5291 45.306 52.9245 44.8223 52.7968C43.7834 52.5256 43.0847 52.9375 42.3726 53.4919C40.5321 54.9509 41.5546 55.8624 40.9771 57.3548C39.4597 57.1335 38.4285 57.7152 37.2766 58.425C36.2636 59.024 35.808 59.8374 35.342 60.8999C34.7775 62.232 34.5487 63.5007 35.387 64.7909C35.7785 65.4013 35.9571 66.6223 36.9918 66.7514C38.1159 66.8956 39.7867 66.8991 40.942 66.9001C40.8532 66.9028 43.0877 66.143 42.9494 63.8899C42.8736 62.5414 41.6838 61.3861 40.2836 61.5167C40.0183 61.5602 39.5323 61.9479 39.4504 62.1814C39.2548 62.7738 40.7177 64.152 39.8328 64.8715C38.8956 65.6282 37.739 64.9873 37.3015 64.0228C36.959 63.2688 36.7926 62.4562 37.3558 61.6751C39.3717 58.949 40.2683 58.6201 43.4636 59.68C45.0793 60.2184 46.965 59.6822 48.4328 58.8386C49.6029 58.1461 49.1342 56.1339 51.061 56.3786C52.114 56.5249 52.9917 56.161 53.2822 55.1748C53.4752 54.4937 53.013 53.2989 52.1392 53.2005C51.6526 53.5705 50.7143 54.2917 50.0936 53.7415C49.5095 52.0349 48.39 50.2554 46.4913 49.7611L45.0585 49.395C45.9514 47.751 45.393 46.3103 44.3944 45.0071C43.6733 44.0688 43.1053 43.4993 41.7724 43.5035C40.5455 43.4868 38.7213 43.7011 38.6129 45.4284L38.4583 47.9924C38.4339 48.3663 37.1851 48.2081 37.1718 47.7641C37.0693 46.1143 37.1814 44.5113 37.5437 42.9542C38.0015 41.0211 40.209 41.7372 41.4284 41.5053L41.6959 39.1513C43.6323 37.334 45.7452 36.6666 48.2686 37.249C48.5909 37.3282 48.7933 38.1575 48.6237 38.4292C47.9619 39.4798 46.9662 37.6788 44.8228 39.1113C44.0908 39.5953 43.4698 40.8224 43.4096 41.7839C43.4724 43.2928 44.3904 44.2785 45.6239 45.1126C46.6756 45.8099 48.036 45.5383 49.1483 45.2918C49.9265 47.5436 49.7399 48.4378 51.783 49.6032L53.3743 50.5155C53.6094 50.6506 53.7464 51.0731 53.6107 51.2905L52.7824 52.7193C53.3207 53.4852 53.7784 53.9337 54.5571 53.8216C56.3604 53.5012 55.573 51.534 56.0552 50.4177L57.2484 49.9022C58.3888 49.4061 59.0784 48.6924 59.4153 47.4737C59.6724 46.5596 60.1028 45.4982 59.7191 44.5499C58.5861 41.7222 58.6579 41.1513 60.7242 38.9213C61.2238 38.3909 61.0224 37.5972 64.1318 38.162C64.8469 38.3006 65.4949 39.17 65.4268 39.8651C65.3888 40.3817 64.8161 40.8431 64.4615 40.8715C63.2184 40.9086 62.8069 39.6234 62.1026 40.4442C61.9476 40.6088 61.7828 41.0403 61.7207 41.3443C61.5368 42.3273 62.0448 43.2719 62.9982 43.6522C63.5555 43.8666 64.8367 43.9173 65.4158 43.669C66.142 42.9897 66.9533 42.1835 67.4079 41.3345L67.4596 41.2797L67.3697 41.2468ZM36.5174 36.5509C36.5126 36.3911 37.1524 36.3898 37.2621 36.4932L38.5218 37.6108C38.8321 37.886 38.9557 38.451 38.8086 38.882C37.873 38.5011 36.4954 37.6002 36.5351 36.5504L36.5174 36.5509ZM39.1892 49.8545C39.9844 47.9113 41.8645 50.1657 42.274 47.8074C42.5189 46.4849 40.9966 46.6903 40.4276 46.0852C40.3179 45.9818 40.7485 45.5246 40.9788 45.5C41.7936 45.4046 43.1074 45.9519 43.3756 46.6015C44.2425 48.8506 41.9904 50.2153 40.1892 50.6067C38.1444 51.7697 39.0037 53.1659 36.978 52.5865L37.0406 49.9186L39.207 49.854L39.1892 49.8545ZM49.9971 41.5696C49.7527 42.9099 48.8364 43.7726 47.5385 43.758C46.7916 43.7447 46.4103 43.4717 45.9656 42.8629C45.5585 42.3241 45.4018 41.2446 45.7986 40.8418C45.9547 40.7127 46.6332 40.8169 46.6761 41.0644L46.8495 42.1079C46.916 42.5502 47.6687 42.7588 48.1794 42.6014C48.6546 42.445 48.9573 41.8672 49.1007 41.312L49.5956 39.431C49.7339 39.3025 50.2624 39.1445 50.2393 38.9675L50.1296 37.6733L52.7819 37.8075C53.0752 39.896 50.5797 38.4597 50.0503 41.568L50.0148 41.5691L49.9971 41.5696Z" fill="black"/>
<path d="M65.7881 171.679C65.9501 170.554 65.9713 168.883 65.9902 167.727C65.9928 167.816 65.2685 165.58 63.0143 165.683C61.6653 165.741 60.4917 166.914 60.6046 168.314C60.648 168.58 61.0358 169.066 61.2521 169.166C61.8444 169.362 63.2409 167.916 63.9432 168.819C64.6821 169.757 64.0235 170.914 63.0763 171.333C62.3217 171.658 61.4913 171.825 60.7275 171.243C58.0358 169.191 57.7069 168.294 58.8206 165.115C59.3767 163.499 58.8761 161.612 58.0503 160.144C57.3755 158.973 55.3623 159.407 55.6252 157.497C55.7721 156.462 55.4432 155.565 54.4565 155.257C53.7748 155.046 52.58 155.508 52.4639 156.383C52.8339 156.869 53.5378 157.826 52.9693 158.429C51.2622 158.996 49.4467 160.098 48.934 161.98L48.5497 163.395C46.9229 162.484 45.4639 163.025 44.1424 164.007C43.1859 164.711 42.6163 165.279 42.6027 166.612C42.5683 167.84 42.7472 169.665 44.4932 169.808L47.0582 169.998C47.4327 170.04 47.2562 171.272 46.8123 171.285C45.1619 171.37 43.5584 171.24 42.018 170.842C40.0838 170.349 40.836 168.158 40.6219 166.938L38.2667 166.635C36.4839 164.662 35.8343 162.548 36.4521 160.024C36.5314 159.702 37.3785 159.499 37.6329 159.687C38.684 160.366 36.8643 161.327 38.2623 163.507C38.7468 164.257 39.9567 164.896 40.9182 164.956C42.4276 164.911 43.4316 164.01 44.2662 162.795C44.9818 161.76 44.7279 160.399 44.4987 159.269C46.7515 158.526 47.6457 158.713 48.8472 156.686L49.7778 155.112C49.9307 154.876 50.3359 154.758 50.5705 154.875L51.982 155.722C52.748 155.183 53.2147 154.743 53.1026 153.964C52.8178 152.16 50.8324 152.93 49.715 152.412L49.1995 151.219C48.7211 150.078 48.0068 149.371 46.7877 149.016C45.8736 148.759 44.8288 148.293 43.8628 148.677C41.034 149.774 40.4454 149.703 38.2321 147.601C37.7017 147.101 36.9074 147.285 37.5078 144.174C37.6464 143.459 38.5335 142.811 39.2292 142.897C39.7463 142.952 40.1894 143.508 40.2183 143.88C40.2554 145.123 38.9525 145.535 39.755 146.222C39.9196 146.377 40.3511 146.542 40.6556 146.622C41.6397 146.841 42.602 146.333 42.9824 145.379C43.2145 144.822 43.2657 143.558 43.0346 142.961C42.3553 142.235 41.5663 141.405 40.7352 140.95C40.1391 140.63 38.5926 140.623 37.9597 140.855C37.1696 141.181 36.3443 142.112 35.9576 142.852C35.4012 143.864 35.3146 145.128 35.3495 146.3C35.3681 146.922 35.759 147.515 35.9874 148.023C36.4234 148.934 37.0796 149.483 37.893 149.939L38.9232 150.513L41.1469 151.175C41.1514 151.921 41.066 152.635 41.1389 153.29C41.3376 155.186 43.3363 156.051 44.9358 155.452C45.7086 155.145 46.0521 154.743 46.0773 153.801C46.0866 153.516 45.8905 152.9 45.5828 152.713C44.8571 152.22 43.6618 153.855 43.5974 152.293C43.5773 151.618 43.9589 151.304 44.4853 151.075C45.996 150.479 46.957 151.713 47.6898 153.042C47.9151 153.444 47.8759 154.511 47.675 154.926C47.1923 156.024 46.0839 157 44.9371 157.283C43.843 157.546 42.8926 156.668 41.9644 156.536C41.0363 156.404 40.7296 156.253 40.3167 155.519C39.4339 153.928 37.687 153.162 36.3391 152.065C35.7926 151.619 35.8496 150.551 34.8698 150.474L34.3349 166.503L35.2877 168.057L34.2525 169.101L34.1867 172.853L38.0297 172.987C38.3064 172.73 38.8049 172.164 39.088 172.12C39.6363 172.033 40.2629 172.778 40.6992 173.103L56.8182 173.653C54.4498 171.715 53.985 169.241 52.2384 167.889C51.6564 167.444 51.3341 167.365 51.2226 166.604C51.0251 165.348 50.273 163.966 50.872 162.597C51.2054 161.859 52.4365 160.827 53.212 160.608C54.34 160.29 55.2915 161.204 55.9854 161.823C56.8799 162.614 56.5644 163.956 56.0105 164.453C55.751 164.691 55.1144 164.799 54.8266 164.683L55.0556 162.828C54.7248 162.465 53.7633 162.405 53.2165 162.545C52.7757 162.665 52.1529 163.235 52.0251 163.718C51.754 164.757 52.1486 165.474 52.6853 166.187C54.1093 168.046 55.0563 167.023 56.5315 167.618C56.2924 169.136 56.8564 170.168 57.5489 171.338C58.1479 172.351 58.9441 172.825 59.9888 173.292C61.3214 173.874 62.5729 174.121 63.8814 173.3C64.4918 172.908 65.7311 172.747 65.8607 171.73L65.8237 171.678L65.7881 171.679ZM37.0284 155.51C39.118 155.252 37.6634 157.731 40.755 158.296C42.077 158.523 42.9408 159.475 42.909 160.791C42.8957 161.538 42.6044 161.902 41.9956 162.347C41.4563 162.736 40.359 162.893 39.9739 162.496C39.8448 162.34 39.9668 161.661 40.2143 161.618L41.2583 161.462C41.7007 161.396 41.9098 160.661 41.7701 160.15C41.6315 159.674 41.0537 159.371 40.4979 159.21L38.6165 158.698C38.4879 158.559 38.33 158.031 38.1524 158.036L36.8577 158.128L37.0274 155.475L37.0284 155.51ZM35.5744 171.709C35.4146 171.714 35.431 171.074 35.5521 170.964L36.6704 169.722C36.9455 169.411 37.5111 169.306 37.942 169.453C37.5612 170.388 36.642 171.749 35.5922 171.709L35.5744 171.709ZM49.6898 168.249C50.8178 170.313 52.2323 169.471 51.6346 171.479L48.9657 171.381L48.9366 169.214C47.0106 168.4 49.2833 166.537 46.9417 166.092C45.6364 165.828 45.8062 167.352 45.2011 167.921C45.0978 168.031 44.6401 167.582 44.6337 167.369C44.5383 166.554 45.1034 165.24 45.7713 164.989C48.0215 164.158 49.3689 166.428 49.7426 168.23L49.7248 168.23L49.6898 168.249Z" fill="black"/>
<path d="M124.699 27.9126C124.422 26.3746 123.404 25.6052 122.089 25.0224C121.027 24.5564 120.165 24.28 119.017 24.5097C117.692 24.7803 116.545 25.0634 115.567 26.2478C114.142 25.5438 114.262 24.1895 111.921 24.3482C111.017 24.4285 110.239 24.5939 109.644 25.4825C109.372 25.9172 109.362 26.7528 109.569 27.1554C109.834 27.6808 110.529 28.3354 111.009 28.3389L112.247 26.9334C112.535 27.067 112.871 27.6257 112.882 27.9808C112.887 28.7449 112.086 29.8885 110.908 29.7282C109.981 29.6314 108.663 29.5286 108.151 28.4597C107.792 27.7594 107.726 26.1263 108.059 25.3876C108.677 24.0362 110.23 23.6877 111.276 22.9811C111.92 22.5531 112.21 22.74 112.925 22.8786C115.106 23.2757 117.235 21.968 120.27 22.4284L109.1 10.818C108.563 10.7096 107.604 10.7382 107.288 10.2678C107.121 10.0239 107.223 9.27441 107.229 8.88321L104.57 6.11883L101.82 8.67136L101.739 10.1489L99.9544 10.4866L88.3957 21.6021C89.1267 22.2734 89.868 21.5048 90.5642 21.6084C92.2785 21.8772 94.0259 22.6604 95.7915 22.2701C96.6214 22.0853 96.9275 22.2184 97.6558 22.801C98.3852 23.419 99.668 23.523 100.213 24.5198C100.759 25.5343 100.751 27.0453 100.285 28.1256C100.102 28.5399 99.3424 29.2912 98.9011 29.3932C97.4002 29.7224 95.8574 29.8395 95.2969 28.3277C95.1034 27.8003 95.0703 27.2859 95.5908 26.8616C96.8052 25.8656 96.3668 27.8515 97.2261 28.0569C97.5666 28.1534 98.1458 27.9051 98.3525 27.6856C99.0088 27.044 99.0994 26.5081 98.8098 25.7347C98.1928 24.1179 96.2113 23.2351 94.6799 24.3294C94.1411 24.7365 93.6593 25.2663 93.1053 25.7627L91.1144 24.5602L90.0012 24.1846C89.1033 23.8737 88.2639 23.7388 87.2952 24.0343C86.749 24.1928 86.0591 24.3022 85.5918 24.7249C84.6901 25.4805 83.8282 26.3772 83.4349 27.4908C83.1568 28.2989 82.9981 29.53 83.306 30.3206C83.5387 30.9713 84.5681 32.1136 85.2326 32.3426C86.1483 32.653 87.2869 32.6901 88.2646 32.6965C88.8447 32.4837 89.7427 31.6038 90.0104 31.0448C90.4623 30.1071 90.1824 29.0669 89.3653 28.4869C89.1114 28.3168 88.7144 28.1153 88.4825 28.0867C87.4123 27.9587 87.9821 29.1858 87.0465 29.9958C86.7688 30.2173 86.0595 30.274 85.6577 29.9128C85.1462 29.4482 85.0246 28.3498 85.4515 27.7684C87.349 25.2413 87.7441 25.976 88.4921 26.0247C91.5387 26.2715 91.9937 26.6312 93.0562 29.4788C93.4228 30.4454 94.4858 30.9291 95.2647 31.4213C96.3691 32.0992 97.3307 32.1594 98.5266 31.7327L99.7579 31.305C100.875 31.8049 101.627 33.7908 103.179 32.7847C103.842 32.3739 103.858 31.7159 103.741 30.7774L102.18 30.2907C101.911 30.2099 101.74 29.824 101.821 29.555L102.373 27.8145C103.07 25.572 102.343 25.0072 101.39 22.8495C102.368 22.2694 103.572 21.5403 103.856 20.3232C104.204 18.891 104.182 17.5409 103.205 16.397C102.511 15.7423 101.216 15.2477 100.35 15.398C97.785 15.8122 98.2888 17.8055 97.0884 17.4859C96.7839 17.4061 96.3882 16.6537 96.5579 16.382C98.0225 14.2411 100.038 13.2923 102.687 13.3199L104.493 14.8833C105.54 14.2123 106.653 12.2062 108.339 13.3112C109.662 14.1782 110.833 15.2985 111.867 16.5829C112.144 16.9301 111.337 17.8961 111.08 17.6194L109.232 15.8439C107.97 14.6552 106.492 15.7479 105.61 16.574C104.642 17.4738 104.595 18.275 104.701 19.4627C104.856 21.0932 105.415 22.5517 107.192 23.1385L106.394 24.3709C105.323 26.0025 105.705 28.0883 106.447 29.7369C106.366 30.5746 105.196 30.6806 104.592 30.7164C104.026 31.3909 104.453 32.5868 105.086 32.9589C105.991 33.5006 106.869 33.1368 107.556 32.3342C108.809 30.8572 109.84 32.6571 111.147 32.3693C112.807 31.9998 114.54 31.1128 115.366 29.613C117.002 26.6671 117.88 26.3032 121.204 26.9327C122.151 27.1 122.582 27.8336 122.836 28.6081C123.168 29.5935 122.726 30.8686 121.538 30.9573C120.402 31.0267 120.538 29.0321 119.978 28.7111C119.761 28.5932 119.122 28.63 118.914 28.7962C117.801 29.6292 117.709 31.3026 118.558 32.3614C119.997 34.1136 122.137 33.1611 122.067 33.2165C122.897 32.4275 124.142 31.2884 124.863 30.4138C125.533 29.6296 124.844 28.6015 124.716 27.8766L124.718 27.9299L124.699 27.9126ZM95.4857 17.978L96.2989 19.0202C96.4096 19.1591 96.9 18.9134 97.0959 18.9253L98.7441 19.9603C99.2331 20.2656 99.8442 20.4962 100.282 20.2699C100.755 20.0425 101.179 19.3722 100.92 19.0067L100.342 18.1175C100.23 17.9431 100.622 17.3805 100.835 17.3564C101.386 17.3754 102 18.2991 102.055 18.9373C102.148 19.681 102.056 20.1636 101.503 20.6778C100.534 21.5598 99.2723 21.5797 98.1986 20.7408C95.6888 18.8251 94.8286 21.5701 93.6392 19.8282L95.5025 17.942L95.5035 17.9775L95.4857 17.978ZM103.942 10.101L104.105 8.42544C104.1 8.26563 104.568 7.8429 104.677 7.94627C105.411 8.70641 105.014 10.3001 104.579 11.2017C104.182 11.0003 103.883 10.5115 103.924 10.0838L103.941 10.0832L103.942 10.101ZM106.494 19.9779C106.243 19.3278 106.827 18.0307 107.505 17.5483C107.679 17.401 108.302 17.4535 108.307 17.5955C108.296 18.4134 107.06 19.3034 108.116 20.125C110.007 21.5793 109.884 18.6504 111.777 19.5182L113.405 18.101L115.275 20.0181C114.174 21.8283 113.841 20.2031 111.564 20.7331C109.992 21.6687 107.395 22.1905 106.511 19.9596L106.494 19.9779Z" fill="black"/>
<path d="M110.698 180.541C110.201 180.556 109.527 181.216 109.258 181.721C109.039 182.119 109.064 182.954 109.361 183.389C109.957 184.295 110.744 184.45 111.652 184.529C113.986 184.691 113.855 183.308 115.292 182.608C116.251 183.788 117.415 184.073 118.738 184.318C119.882 184.55 120.762 184.257 121.815 183.8C123.13 183.209 124.138 182.433 124.412 180.896C124.533 180.182 125.213 179.148 124.55 178.368C123.814 177.519 122.589 176.383 121.729 175.573C121.802 175.624 119.641 174.693 118.218 176.442C117.378 177.48 117.464 179.166 118.609 180.003C118.827 180.156 119.45 180.191 119.678 180.078C120.22 179.777 120.071 177.773 121.21 177.828C122.402 177.881 122.832 179.166 122.524 180.17C122.263 180.96 121.841 181.701 120.904 181.872C117.582 182.522 116.7 182.157 115.049 179.22C114.222 177.717 112.472 176.845 110.809 176.503C109.502 176.204 108.473 178.03 107.22 176.557C106.539 175.76 105.657 175.395 104.749 175.955C104.121 176.329 103.694 177.515 104.265 178.191C104.888 178.226 106.047 178.351 106.125 179.167C105.41 180.823 105.028 182.896 106.107 184.535L106.926 185.754C105.166 186.358 104.606 187.814 104.458 189.436C104.351 190.612 104.393 191.411 105.379 192.306C106.276 193.15 107.765 194.225 109.009 193.015L110.839 191.236C111.116 190.979 111.927 191.933 111.653 192.278C110.625 193.571 109.449 194.672 108.143 195.565C106.488 196.68 105.343 194.671 104.293 194.009L102.492 195.591C99.8263 195.617 97.8078 194.682 96.3226 192.558C96.1365 192.279 96.541 191.538 96.8407 191.458C98.0398 191.138 97.5659 193.125 100.119 193.529C100.994 193.663 102.277 193.162 102.969 192.52C103.93 191.371 103.925 190.021 103.58 188.574C103.277 187.356 102.082 186.645 101.106 186.07C102.036 183.91 102.766 183.337 102.059 181.101L101.51 179.358C101.413 179.094 101.614 178.697 101.861 178.619L103.427 178.11C103.541 177.164 103.505 176.526 102.853 176.118C101.295 175.134 100.589 177.11 99.4495 177.624L98.2282 177.198C97.0429 176.789 96.0496 176.855 94.9682 177.544C94.1657 178.048 93.114 178.542 92.7519 179.512C91.6997 182.37 91.2486 182.739 88.1996 183.007C87.4726 183.065 87.0859 183.805 85.1623 181.285C84.7181 180.694 84.8456 179.606 85.3473 179.147C85.7284 178.815 86.4576 178.829 86.7308 179.052C87.6791 179.859 87.1119 181.102 88.1736 180.946C88.404 180.922 88.8066 180.714 89.0676 180.529C89.8853 179.936 90.1387 178.897 89.6844 177.969C89.4194 177.426 88.5217 176.528 87.9288 176.315C86.9344 176.345 85.7979 176.378 84.9013 176.707C84.2506 176.94 83.2181 178.073 82.9891 178.737C82.6927 179.528 82.8719 180.767 83.1448 181.576C83.5328 182.667 84.4128 183.565 85.324 184.319C85.7978 184.714 86.4941 184.818 87.0321 184.979C88.0005 185.27 88.8492 185.121 89.7286 184.81L90.8367 184.422L92.8083 183.19C93.3736 183.671 93.8346 184.226 94.3789 184.6C95.9228 185.709 97.9039 184.797 98.5138 183.197C98.8106 182.424 98.706 181.894 98.0471 181.256C97.8277 181.049 97.2515 180.8 96.9162 180.881C96.0702 181.12 96.5019 183.08 95.2814 182.085C94.771 181.656 94.7739 181.158 94.9711 180.619C95.5303 179.11 97.0795 179.205 98.5817 179.516C99.0288 179.609 99.7979 180.369 99.97 180.772C100.464 181.859 100.473 183.352 99.9172 184.364C99.3953 185.339 98.1022 185.485 97.3733 186.075C96.6627 186.683 96.329 186.817 95.5231 186.61C93.7518 186.219 92.0156 186.999 90.3005 187.299C89.6106 187.409 88.8415 186.649 88.1325 187.31L99.7475 198.339L101.534 198.659L101.632 200.149L104.392 202.697L107.046 199.916C107.035 199.543 106.942 198.8 107.112 198.546C107.418 198.074 108.379 198.117 108.926 197.994L120.041 186.305C117.017 186.804 114.862 185.482 112.689 185.902C111.964 186.048 111.685 186.217 111.051 185.809C109.981 185.095 108.443 184.767 107.815 183.4C107.474 182.681 107.532 181.044 107.884 180.341C108.385 179.277 109.698 179.184 110.636 179.068C111.823 178.926 112.62 180.039 112.626 180.821C112.637 181.176 112.298 181.737 112 181.871L110.767 180.468L110.734 180.54L110.698 180.541ZM96.0144 189.972L95.2277 191.009L93.3587 189.127C94.5509 187.386 95.4326 190.132 97.9163 188.192C98.9757 187.36 100.237 187.34 101.224 188.253C101.773 188.77 101.858 189.247 101.791 189.978C101.722 190.637 101.109 191.562 100.559 191.579C100.328 191.585 99.9377 191.011 100.057 190.847L100.636 189.977C100.891 189.596 100.481 188.95 99.9759 188.717C99.5434 188.516 98.9105 188.748 98.4217 189.047L96.7822 190.092C96.5868 190.097 96.1 189.863 95.9799 190.009L96.0144 189.972ZM104.5 200.97C104.397 201.079 103.94 200.666 103.918 200.507L103.744 198.842C103.696 198.417 104.001 197.945 104.386 197.738C104.822 198.632 105.225 200.219 104.501 200.987L104.5 200.97ZM111.28 188.131C113.588 188.648 113.877 187.022 114.998 188.837L113.136 190.759L111.495 189.368C109.602 190.26 109.728 187.342 107.817 188.803C106.757 189.616 107.991 190.486 108.016 191.321C108.021 191.48 107.399 191.499 107.218 191.38C106.546 190.902 105.939 189.605 106.187 188.976C107.061 186.728 109.672 187.237 111.246 188.185L111.28 188.131Z" fill="black"/>
<path d="M31.7312 120.353C30.7269 119.458 29.0567 119.473 28.1656 120.583C27.9944 120.802 27.9419 121.425 28.0548 121.635C28.3204 122.196 30.3447 122.136 30.2361 123.259C30.1295 124.453 28.8077 124.83 27.8366 124.45C27.0635 124.153 26.3389 123.695 26.2043 122.757C25.7135 119.412 26.1142 118.547 29.1256 117.018C30.6671 116.261 31.6112 114.544 32.0424 112.914C32.3949 111.624 30.6197 110.504 32.1662 109.32C32.9823 108.674 33.4008 107.808 32.8755 106.882C32.5368 106.252 31.3673 105.772 30.6718 106.29C30.601 106.896 30.4401 108.057 29.606 108.099C27.983 107.312 25.9244 106.823 24.2305 107.833L22.9732 108.581C22.4574 106.784 21.0172 106.169 19.4106 105.933C18.2328 105.772 17.4332 105.779 16.5018 106.731C15.6211 107.592 14.4732 109.031 15.6311 110.311L17.3231 112.216C17.5629 112.511 16.5902 113.269 16.2438 112.977C15.0029 111.894 13.9537 110.681 13.131 109.319C12.0847 107.609 14.1509 106.57 14.8671 105.553L13.3715 103.678C13.4702 101.027 14.4951 99.0413 16.6933 97.6605C16.9727 97.4922 17.6967 97.9327 17.7767 98.2324C18.0442 99.4508 16.0718 98.8698 15.561 101.409C15.3911 102.267 15.8215 103.587 16.4475 104.315C17.5437 105.313 18.8964 105.379 20.3457 105.105C21.5829 104.873 22.3475 103.695 22.9587 102.734C25.087 103.773 25.607 104.522 27.8818 103.921L29.6448 103.441C29.9091 103.362 30.3061 103.564 30.3673 103.829L30.8056 105.415C31.7343 105.565 32.3741 105.564 32.8173 104.929C33.8565 103.422 31.9305 102.609 31.4699 101.467L31.9493 100.262C32.4121 99.0933 32.4007 98.1161 31.7631 96.9976C31.2942 96.1762 30.8535 95.1052 29.8991 94.6894C27.0913 93.5112 26.7396 93.0418 26.6302 89.9703C26.6085 89.2423 25.8849 88.8195 28.4972 87.0176C29.107 86.6084 30.196 86.7714 30.6209 87.3097C30.935 87.7091 30.8856 88.4393 30.6622 88.6948C29.8008 89.6091 28.5915 88.9876 28.6943 90.0509C28.7012 90.2818 28.8909 90.6849 29.0592 90.9642C29.6174 91.8007 30.6396 92.1079 31.5869 91.6886C32.1488 91.4586 33.0822 90.5776 33.3144 90.0197C33.338 89.0237 33.3396 87.8862 33.0635 86.9702C32.8663 86.3185 31.7675 85.2315 31.1375 84.9659C30.3456 84.6341 29.123 84.7595 28.2947 84.9974C27.185 85.3327 26.2505 86.1782 25.4585 87.0371C25.0456 87.4938 24.9065 88.1911 24.7087 88.7124C24.3822 89.6819 24.4781 90.5144 24.7542 91.4304L25.09 92.5578L26.217 94.5859C25.7001 95.1346 25.1441 95.5599 24.7332 96.0876C23.5514 97.5803 24.3759 99.5996 25.9603 100.281C26.7345 100.613 27.2656 100.544 27.9219 99.9026C28.1463 99.6826 28.414 99.1237 28.3329 98.7884C28.1294 97.9236 26.149 98.267 27.1983 97.0982C27.6457 96.605 28.144 96.6257 28.6664 96.8589C30.1604 97.4897 29.9929 99.0232 29.5929 100.51C29.4813 100.94 28.6856 101.675 28.282 101.847C27.1754 102.289 25.6812 102.244 24.6855 101.634C23.7263 101.059 23.6521 99.7634 23.0788 99.0162C22.5055 98.2691 22.3895 97.9526 22.632 97.1456C23.1128 95.3895 22.4028 93.6333 22.1911 91.8979C22.1172 91.2069 22.9128 90.4722 22.2685 89.7272L10.7092 100.825L10.2995 102.579L8.80783 102.623L6.14897 105.244L8.80855 108.009C9.18198 108.015 9.92677 107.958 10.1807 108.128C10.6347 108.452 10.5567 109.414 10.6442 109.962L21.7978 121.609C21.4403 118.562 22.8533 116.476 22.539 114.282C22.4107 113.557 22.2601 113.277 22.7033 112.642C23.4544 111.606 23.8711 110.083 25.2586 109.526C25.9959 109.22 27.6172 109.349 28.3219 109.737C29.3693 110.292 29.3908 111.607 29.4544 112.547C29.5431 113.735 28.3928 114.498 27.6094 114.45C27.2537 114.443 26.7099 114.086 26.5943 113.788L28.0526 112.624C28.0555 112.127 27.4306 111.434 26.9238 111.13C26.5435 110.892 25.6901 110.882 25.2535 111.144C24.3283 111.705 24.1202 112.475 24.0224 113.367C23.7539 115.685 25.1385 115.626 25.769 117.1C24.5519 118.008 24.2129 119.155 23.8969 120.48C23.6112 121.626 23.8508 122.507 24.2738 123.579C24.8112 124.914 25.5355 125.958 27.0566 126.304C27.7544 126.461 28.7717 127.195 29.5882 126.566C30.4737 125.864 31.6651 124.691 32.4941 123.885C32.4252 123.958 33.4642 121.847 31.7839 120.333L31.7296 120.299L31.7312 120.353ZM20.9904 93.3555C22.6811 94.6203 19.8777 95.3794 21.7141 97.955C22.4933 99.0515 22.4422 100.315 21.5103 101.249C20.9752 101.781 20.4968 101.83 19.7651 101.728C19.1048 101.641 18.2141 100.974 18.2154 100.423C18.2268 100.21 18.82 99.8365 18.9835 99.956L19.8377 100.588C20.2013 100.862 20.8827 100.468 21.1175 99.999C21.3362 99.5837 21.139 98.9319 20.8578 98.4427L19.8836 96.7655C19.8778 96.5702 20.1298 96.0828 20.0018 95.9622L18.9992 95.1212L20.9721 93.3383L20.9904 93.3555ZM8.63289 103.908C8.52317 103.805 8.95441 103.366 9.13198 103.36L10.8179 103.274C11.2435 103.244 11.6975 103.568 11.905 103.971C10.9922 104.353 9.38534 104.703 8.65173 103.943L8.63289 103.908ZM20.2851 114.989L18.45 113.053L19.9316 111.48C19.1275 109.549 22.0498 109.8 20.6581 107.833C19.8967 106.736 18.955 107.937 18.1365 107.908C17.9767 107.913 17.9754 107.273 18.1127 107.109C18.6263 106.454 19.9433 105.917 20.5738 106.2C22.771 107.166 22.1375 109.762 21.1343 111.285C20.5091 113.56 22.12 113.939 20.2668 114.972L20.2845 114.971L20.2851 114.989Z" fill="black"/>
</svg>
