<svg width="209" height="209" viewBox="0 0 209 209" fill="none" xmlns="http://www.w3.org/2000/svg">
<path d="M118.01 188.039C117.826 186.993 117.71 185.855 116.694 185.445C115.965 185.173 114.824 185.4 114.184 185.887C113.787 189.103 114.304 187.895 113.735 191.279C113.426 193.062 112.447 194.136 111.154 195.328C110.24 196.165 109.488 197.144 108.153 197.358C107.416 197.485 106.436 197.799 105.863 198.176C106.073 198.804 106.334 199.378 106.379 199.775C106.426 200.245 105.704 201.024 105.247 201.053C104.508 201.126 103.805 200.527 103.455 199.92L104.098 198.074L101.424 196.926C97.1996 195.092 95.1833 190.558 96.1635 185.969C95.6025 185.385 94.6763 185.009 93.7978 185.14C92.5157 185.352 92.4075 187.402 91.9441 187.921L90.5617 186.922C90.0593 186.572 89.6908 185.929 89.6932 185.313C89.6807 184.806 89.9973 184.056 90.5157 183.626C92.9696 181.591 96.7884 181.986 98.7221 184.602C100.018 186.363 98.0622 189.31 99.9613 191.238L102.294 193.59C102.529 193.837 103.271 193.874 103.586 193.793C103.902 193.713 104.538 193.063 104.39 192.777C103.793 191.451 102.543 190.794 101.222 190.174C101.708 189.148 102.389 188.134 102.785 187.056C103.563 184.99 99.9209 181.728 98.7936 181.067C97.112 180.094 95.1866 179.961 93.3022 180.061C90.7134 180.198 88.5589 181.501 86.846 183.554C85.5548 182.68 84.6853 181.741 83.6861 180.552L86.0249 178.139L87.1773 179.107L89.4605 178.018C90.2447 177.637 91.2091 177.414 92.0501 177.194C95.2053 176.428 98.2892 177.058 101.014 178.875C102.503 179.871 103.664 181.201 104.966 182.527C105.811 181.746 106.581 180.803 107.481 180.092C110.941 177.38 115.679 176.43 119.876 177.885C120.961 178.256 121.843 178.996 122.914 179.513L123.985 178.617C124.882 179.211 125.785 180.076 126.481 181.128L124.246 183.447C122.99 184.728 121.907 182.273 120.508 181.329C119.253 180.491 117.701 180.474 116.271 180.419C112.705 180.253 110.59 181.03 108.356 184.129C107.708 185.032 107.436 186.144 107.021 187.205L108.745 189.173C108.909 189.369 109.064 189.945 108.946 190.165C108.61 190.861 106.483 190.407 105.929 192.975C105.866 193.266 106.359 193.942 106.659 193.953C108.107 194.062 111.013 191.762 110.935 188.594L110.861 185.589C113.006 183.199 113.885 182.344 117.211 182.787C118.591 182.971 120.163 183.801 120.377 185.318C120.568 186.636 119.293 187.845 118.011 188.075L118.01 188.039Z" fill="black"/>
<path d="M156.316 173.464C155.762 172.581 155.088 171.718 155.527 170.74C155.854 170.028 156.818 169.424 157.572 169.318C159.975 171.281 158.812 170.817 161.472 172.774C162.873 173.813 164.25 173.884 165.966 173.807C167.151 173.76 168.341 173.924 169.422 173.159C170.013 172.722 170.913 172.278 171.563 172.156C171.818 172.748 172.021 173.323 172.252 173.617C172.519 173.98 173.55 174.007 173.905 173.734C174.477 173.263 174.575 172.363 174.405 171.717L172.734 170.879L173.855 168.23C175.625 164.035 174.035 159.484 170.311 156.937C170.309 156.146 170.716 155.239 171.442 154.728C172.472 153.982 173.916 155.353 174.569 155.39L174.889 153.729C174.995 153.146 174.857 152.41 174.434 151.999C174.099 151.637 173.404 151.338 172.735 151.39C169.665 151.659 167.245 154.568 167.632 157.724C167.891 159.846 171.208 160.556 171.136 163.214L171.044 166.47C171.036 166.822 170.55 167.327 170.262 167.492C169.974 167.657 169.114 167.643 169.02 167.329C168.558 166.004 169.006 164.656 169.523 163.324C168.483 162.945 167.343 162.709 166.351 162.206C164.438 161.286 164.87 156.509 165.217 155.269C165.756 153.426 167.027 152.005 168.406 150.775C170.307 149.093 172.682 148.524 175.231 148.76C175.555 147.257 175.558 146.008 175.469 144.48L172.236 144.401L172.05 145.901L169.715 146.715C168.915 146.999 168.085 147.494 167.339 147.934C164.63 149.567 162.854 152.143 162.159 155.291C161.772 157.025 161.831 158.747 161.791 160.595C160.692 160.622 159.537 160.492 158.424 160.643C154.208 161.151 150.268 163.746 148.25 167.63C147.724 168.628 147.598 169.774 147.195 170.84L145.857 170.961C145.625 171.987 145.552 173.237 145.754 174.428L148.832 174.511C150.551 174.539 149.683 172.08 150.056 170.47C150.381 169.02 151.454 167.956 152.426 166.912C154.803 164.338 156.808 163.426 160.432 164.041C161.468 164.209 162.428 164.818 163.419 165.269L163.482 167.853C163.523 168.098 163.793 168.619 164.018 168.684C164.712 168.93 165.888 167.16 167.986 168.586C168.23 168.738 168.336 169.545 168.119 169.796C167.183 170.892 163.618 171.262 161.568 168.99L159.625 166.84C156.561 166.651 155.358 166.646 153.308 169.247C152.475 170.323 151.898 171.99 152.752 173.2C153.483 174.255 155.201 174.231 156.249 173.501L156.299 173.465L156.316 173.464Z" fill="black"/>
<path d="M55.2775 174.296C55.8743 173.429 56.5952 172.577 56.1285 171.56C55.8109 170.857 54.8234 170.207 54.0432 170.084C51.53 172.028 52.737 171.554 49.9939 173.486C48.5528 174.497 47.1057 174.551 45.3546 174.452C44.1516 174.375 42.919 174.53 41.8216 173.723C41.2101 173.276 40.2976 172.802 39.6409 172.676C39.3553 173.269 39.1398 173.842 38.8997 174.132C38.6083 174.494 37.5492 174.52 37.2059 174.209C36.6288 173.726 36.5535 172.823 36.7134 172.145L38.4422 171.339L37.3334 168.633C35.5854 164.363 37.3275 159.794 41.1877 157.32C41.1857 156.521 40.7922 155.608 40.0902 155.075C39.0291 154.303 37.5433 155.653 36.8553 155.687L36.5667 154.008C36.4635 153.407 36.6225 152.694 37.0542 152.292C37.4171 151.964 38.1334 151.645 38.8064 151.717C41.959 152.065 44.3988 155.022 43.9479 158.228C43.6469 160.348 40.2191 161.018 40.2322 163.698L40.2601 166.981C40.2684 167.318 40.7586 167.856 41.0454 168.026C41.3322 168.197 42.2157 168.211 42.3314 167.888C42.8282 166.545 42.4066 165.206 41.8959 163.834C42.9648 163.489 44.1423 163.247 45.1728 162.777C47.1642 161.876 46.833 157.039 46.4847 155.805C45.9793 153.936 44.6893 152.477 43.28 151.198C41.3647 149.453 38.9301 148.856 36.303 149.045C36.0006 147.526 36.0225 146.265 36.1253 144.701L39.4461 144.708L39.6068 146.212L41.9778 147.095C42.7977 147.394 43.6233 147.924 44.376 148.367C47.1206 150.074 48.8989 152.71 49.5605 155.907C49.9216 157.655 49.8232 159.397 49.8338 161.26C50.9658 161.321 52.164 161.203 53.2985 161.37C57.6228 161.956 61.6107 164.662 63.616 168.624C64.118 169.641 64.2523 170.791 64.6329 171.9L66.0142 172.044C66.2346 173.103 66.2828 174.344 66.0473 175.539L62.8682 175.547C61.102 175.555 62.0126 173.083 61.6895 171.44C61.3888 169.992 60.3012 168.865 59.3386 167.789C56.942 165.15 54.9047 164.188 51.191 164.723C50.1172 164.874 49.1427 165.466 48.1112 165.9L47.9813 168.512C47.9874 168.761 47.6643 169.265 47.4366 169.342C46.7181 169.573 45.5256 167.774 43.3514 169.141C43.1078 169.289 42.9867 170.109 43.187 170.352C44.1329 171.465 47.7828 171.925 49.918 169.689L51.9498 167.562C55.1083 167.431 56.3453 167.454 58.3888 170.102C59.2284 171.199 59.765 172.908 58.8936 174.101C58.107 175.149 56.3568 175.086 55.296 174.331L55.3313 174.33L55.2775 174.296Z" fill="black"/>
<path d="M55.2192 37.1286C55.7738 38.012 56.4482 38.8748 56.0083 39.8531C55.6821 40.5647 54.7173 41.1689 53.9638 41.2755C51.5608 39.3119 52.7237 39.7758 50.0632 37.8186C48.6627 36.7802 47.2861 36.7085 45.5694 36.786C44.3847 36.8328 43.1948 36.6687 42.1137 37.4341C41.523 37.8708 40.6231 38.3151 39.973 38.4367C39.7178 37.8449 39.5146 37.2695 39.2839 36.9762C39.0172 36.6134 37.9854 36.586 37.6312 36.8586C37.0585 37.33 36.9603 38.2295 37.131 38.8761L38.8015 39.7144L37.6809 42.3628C35.911 46.5575 37.5012 51.1091 41.2246 53.6557C41.227 54.4472 40.8197 55.3543 40.0932 55.8647C39.0633 56.6112 37.6202 55.2397 36.9662 55.203L36.6463 56.8643C36.5404 57.4473 36.6788 58.1827 37.1014 58.5944C37.4368 58.9555 38.1317 59.255 38.8007 59.2033C41.8704 58.9342 44.2906 56.025 43.9035 52.8685C43.6449 50.7466 40.3277 50.0368 40.3997 47.3791L40.4913 44.1228C40.4998 43.7708 40.9858 43.2663 41.2739 43.1009C41.5619 42.9355 42.4216 42.9495 42.5153 43.2638C42.9776 44.5892 42.5296 45.937 42.0125 47.269C43.053 47.6479 44.1931 47.8836 45.1851 48.3868C47.0982 49.3071 46.666 54.0844 46.3185 55.3243C45.7796 57.1668 44.5085 58.5877 43.1296 59.8178C41.229 61.5004 38.8541 62.069 36.3048 61.8329C35.9809 63.3359 35.9773 64.5849 36.0665 66.1129L39.2995 66.1915L39.4859 64.6919L41.8204 63.878C42.6211 63.5944 43.451 63.099 44.1964 62.6585C46.9059 61.0263 48.6813 58.4497 49.3771 55.3016C49.764 53.5683 49.7044 51.8461 49.7448 49.9982C50.844 49.9711 51.9987 50.1009 53.1121 49.9504C57.3273 49.4419 61.2678 46.8471 63.2859 42.9629C63.8113 41.9649 63.9377 40.8185 64.3411 39.7532L65.6786 39.6323C65.9111 38.6064 65.9834 37.3558 65.7822 36.1647L62.7038 36.0822C60.9845 36.0543 61.8529 38.513 61.4801 40.1228C61.1549 41.5731 60.0813 42.6373 59.1102 43.6814C56.7332 46.2553 54.7277 47.1666 51.1035 46.5524C50.0681 46.3844 49.1079 45.7749 48.1172 45.3244L48.0535 42.7403C48.013 42.4951 47.7424 41.9741 47.5174 41.9093C46.8239 41.6625 45.6473 43.4329 43.5498 42.0071C43.3055 41.8548 43.1997 41.0483 43.4169 40.7967C44.3523 39.7007 47.9179 39.3314 49.9675 41.6026L51.911 43.7534C54.9747 43.9417 56.1779 43.9472 58.2277 41.3462C59.0605 40.2704 59.6381 38.6027 58.7833 37.3926C58.0527 36.3376 56.3347 36.3624 55.2871 37.0918L55.2364 37.1282L55.2192 37.1286Z" fill="black"/>
<path d="M154.246 37.3164C153.648 38.1556 152.927 38.9807 153.393 39.9654C153.71 40.6447 154.697 41.2731 155.477 41.3913C157.991 39.5085 156.784 39.9677 159.529 38.0965C160.971 37.1162 162.418 37.0634 164.169 37.1576C165.372 37.2311 166.604 37.0804 167.701 37.8607C168.312 38.2922 169.224 38.7507 169.881 38.8719C170.167 38.298 170.383 37.7431 170.623 37.4623C170.915 37.1116 171.974 37.0855 172.317 37.3862C172.894 37.8529 172.968 38.7271 172.808 39.3838L171.078 40.165L172.185 42.783C173.93 46.9139 172.184 51.3371 168.322 53.734C168.323 54.5069 168.716 55.3904 169.418 55.9056C170.478 56.6524 171.965 55.3447 172.653 55.3105L172.94 56.9352C173.043 57.5167 172.883 58.2077 172.451 58.5963C172.088 58.9144 171.372 59.2241 170.699 59.1548C167.546 58.8202 165.109 55.9603 165.562 52.8572C165.865 50.8057 169.293 50.1544 169.282 47.561L169.257 44.3839C169.249 44.0577 168.759 43.5373 168.473 43.3726C168.186 43.2079 167.303 43.1953 167.187 43.5074C166.689 44.8079 167.109 46.103 167.619 47.4302C166.55 47.7657 165.372 48.0009 164.341 48.4557C162.349 49.3293 162.676 54.0105 163.024 55.2043C163.528 57.0127 164.817 58.4237 166.225 59.6601C168.139 61.3478 170.573 61.9233 173.2 61.7383C173.501 63.2081 173.478 64.4282 173.374 65.9424L170.053 65.9383L169.894 64.4822L167.524 63.6303C166.704 63.3413 165.879 62.8292 165.127 62.4011C162.383 60.7511 160.607 58.2011 159.948 55.1084C159.588 53.4168 159.688 51.731 159.679 49.9276C158.547 49.8696 157.349 49.9851 156.215 49.8241C151.891 49.2608 147.905 46.6451 145.903 42.8125C145.402 41.8286 145.268 40.7154 144.889 39.6426L143.508 39.5049C143.288 38.4797 143.241 37.2785 143.477 36.1218L146.656 36.1121C148.422 36.1029 147.51 38.4958 147.832 40.0853C148.131 41.4865 149.218 42.5762 150.18 43.6174C152.574 46.1693 154.611 47.0982 158.325 46.5772C159.399 46.4305 160.374 45.8568 161.405 45.4363L161.537 42.908C161.531 42.6677 161.855 42.1788 162.083 42.1045C162.801 41.8806 163.992 43.6205 166.168 42.2958C166.411 42.1523 166.533 41.3592 166.333 41.1237C165.388 40.0476 161.738 39.6051 159.602 41.7705L157.568 43.8304C154.41 43.9597 153.173 43.9387 151.131 41.3782C150.293 40.3167 149.757 38.6637 150.63 37.5086C151.417 36.4929 153.167 36.5528 154.227 37.2825L154.192 37.2833L154.246 37.3164Z" fill="black"/>
<path d="M188.202 117.506C187.207 117.301 186.093 117.169 185.737 116.135C185.493 115.399 185.743 114.261 186.213 113.613C189.313 113.289 188.127 113.76 191.413 113.255C193.125 112.983 194.178 112.02 195.344 110.719C196.155 109.815 197.109 109.084 197.354 107.752C197.475 107.024 197.816 106.044 198.201 105.486C198.798 105.719 199.342 105.971 199.725 106.032C200.178 106.091 200.924 105.366 200.983 104.923C201.069 104.178 200.513 103.467 199.931 103.11L198.141 103.72L197.084 101.023C195.416 96.7512 191.094 94.6833 186.654 95.5706C186.102 95.0009 185.748 94.055 185.901 93.2027C186.13 91.9065 188.09 91.8582 188.6 91.4037L187.662 89.9949C187.32 89.4907 186.72 89.0989 186.13 89.0958C185.644 89.1077 184.938 89.3726 184.5 89.8961C182.493 92.3144 182.814 96.1426 185.293 98.1144C186.94 99.435 189.827 97.5254 191.629 99.4786L193.841 101.864C194.073 102.105 194.09 102.83 193.994 103.15C193.898 103.471 193.288 104.087 192.99 103.953C191.725 103.348 191.12 102.072 190.549 100.743C189.537 101.227 188.563 101.87 187.514 102.267C185.5 103.006 182.457 99.2981 181.856 98.1638C180.946 96.4538 180.864 94.5289 180.991 92.6519C181.153 90.067 182.473 87.9484 184.463 86.273C183.649 84.9672 182.759 84.0876 181.64 83.0545L179.283 85.34L180.18 86.52L179.09 88.7743C178.71 89.5615 178.473 90.5043 178.251 91.3583C177.46 94.4891 178.005 97.6046 179.705 100.338C180.645 101.835 181.889 103.024 183.138 104.373C182.378 105.222 181.44 105.935 180.768 106.835C178.092 110.26 177.096 114.951 178.398 119.18C178.72 120.268 179.42 121.17 179.897 122.236L179.003 123.301C179.547 124.207 180.368 125.142 181.358 125.842L183.613 123.647C184.868 122.432 182.531 121.305 181.662 119.877C180.885 118.623 180.899 117.067 180.863 115.636C180.776 112.085 181.557 109.962 184.559 107.785C185.429 107.162 186.516 106.888 187.548 106.491L189.398 108.266C189.576 108.439 190.135 108.584 190.34 108.473C191.01 108.156 190.61 106.027 193.098 105.524C193.375 105.481 194.012 105.978 194.037 106.278C194.124 107.726 191.851 110.575 188.81 110.473L185.942 110.349C183.615 112.44 182.751 113.309 183.11 116.624C183.248 117.999 184.034 119.589 185.482 119.854C186.754 120.07 187.938 118.803 188.185 117.524L188.186 117.56L188.202 117.506Z" fill="black"/>
<path d="M21.3025 93.3314C22.2974 93.5421 23.4119 93.6775 23.7679 94.7366C24.0122 95.4907 23.7631 96.6552 23.2933 97.3183C20.1935 97.6481 21.3797 97.1664 18.0935 97.6818C16.3814 97.9593 15.3292 98.9444 14.164 100.276C13.3534 101.201 12.3995 101.949 12.1553 103.312C12.0348 104.057 11.6949 105.061 11.3097 105.631C10.7134 105.393 10.1689 105.135 9.78532 105.072C9.33239 105.011 8.58669 105.753 8.52843 106.207C8.44305 106.969 8.99927 107.697 9.58125 108.063L11.3716 107.44L12.4293 110.201C14.0998 114.576 18.4232 116.696 22.8631 115.79C23.4157 116.373 23.7695 117.342 23.6174 118.214C23.3897 119.541 21.4289 119.59 20.9195 120.055L21.8579 121.498C22.2005 122.014 22.8008 122.415 23.3912 122.419C23.877 122.407 24.5822 122.136 25.0204 121.601C27.0256 119.126 26.7033 115.206 24.2227 113.186C22.5746 111.833 19.6885 113.787 17.8855 111.786L15.6723 109.343C15.4405 109.095 15.4222 108.354 15.5183 108.025C15.6144 107.697 16.2239 107.067 16.5225 107.204C17.7879 107.825 18.3931 109.131 18.9649 110.492C19.977 109.997 20.9505 109.339 21.9996 108.933C24.0124 108.178 27.0577 111.976 27.6593 113.138C28.5706 114.889 28.6539 116.86 28.5276 118.781C28.3671 121.428 27.0489 123.596 25.0598 125.31C25.8741 126.647 26.7644 127.548 27.8844 128.607L30.2401 126.268L29.3422 125.06L30.4312 122.752C30.8107 121.946 31.0474 120.981 31.2689 120.107C32.0581 116.902 31.5106 113.712 29.8095 110.913C28.8688 109.379 27.6235 108.161 26.374 106.78C27.1339 105.911 28.0709 105.182 28.7427 104.261C31.417 100.756 32.4098 95.9534 31.105 91.6237C30.7824 90.5095 30.0825 89.5857 29.6041 88.4934L30.4975 87.4036C29.9537 86.4758 29.1315 85.5188 28.1415 84.8011L25.8876 87.0466C24.6334 88.2902 26.9711 89.4452 27.8405 90.9078C28.6188 92.1918 28.606 93.7848 28.6421 95.2499C28.7317 98.8855 27.9519 101.059 24.951 103.286C24.0812 103.923 22.9942 104.203 21.9625 104.609L20.1119 102.79C19.9339 102.614 19.3747 102.464 19.1691 102.578C18.5 102.902 18.901 105.082 16.4134 105.596C16.1367 105.639 15.4991 105.13 15.4741 104.823C15.3855 103.341 17.6576 100.425 20.6986 100.531L23.5667 100.66C25.8926 98.5212 26.7562 97.6311 26.3947 94.2375C26.2559 92.8292 25.4691 91.2016 24.0213 90.9296C22.7484 90.7076 21.565 92.0037 21.3194 93.3128L21.3185 93.2767L21.3025 93.3314Z" fill="black"/>
<path d="M93.5002 21.5358C93.6847 22.582 93.8009 23.7204 94.8162 24.1302C95.5459 24.402 96.6865 24.1747 97.3269 23.6879C97.7238 20.4716 97.2069 21.68 97.776 18.2964C98.0847 16.5135 99.0634 15.4386 100.357 14.2473C101.271 13.4096 102.022 12.4309 103.357 12.2169C104.095 12.09 105.075 11.776 105.647 11.3996C105.438 10.7707 105.177 10.1974 105.132 9.79996C105.085 9.33011 105.806 8.55146 106.264 8.52206C107.003 8.4495 107.705 9.04812 108.055 9.65543L107.413 11.501L110.087 12.6488C114.311 14.4831 116.327 19.0166 115.347 23.606C115.908 24.19 116.834 24.5657 117.713 24.4353C118.995 24.2226 119.103 22.1728 119.566 21.6542L120.949 22.6527C121.451 23.0026 121.82 23.6457 121.817 24.2617C121.83 24.7686 121.513 25.5192 120.995 25.9486C118.541 27.9837 114.722 27.5887 112.789 24.9734C111.493 23.2119 113.448 20.2651 111.549 18.3373L109.217 15.9854C108.981 15.7376 108.24 15.7015 107.924 15.7818C107.609 15.862 106.972 16.5118 107.12 16.798C107.717 18.1238 108.968 18.7814 110.288 19.401C109.802 20.4275 109.122 21.4406 108.725 22.5192C107.947 24.5855 111.59 27.8471 112.717 28.5077C114.399 29.4807 116.324 29.6144 118.208 29.5136C120.797 29.3774 122.952 28.0743 124.665 26.0212C125.956 26.8952 126.825 27.8339 127.825 29.023L125.486 31.4357L124.333 30.4677L122.05 31.5566C121.266 31.9382 120.302 32.1613 119.461 32.3813C116.305 33.1475 113.221 32.517 110.496 30.7001C109.008 29.7042 107.847 28.3741 106.544 27.0476C105.7 27.8293 104.929 28.7721 104.03 29.4827C100.57 32.1948 95.8319 33.1449 91.6344 31.6904C90.5495 31.3186 89.6673 30.5795 88.5965 30.0624L87.5252 30.9584C86.6288 30.3646 85.7258 29.4991 85.0298 28.4475L87.2651 26.1279C88.5208 24.847 89.6041 27.3021 91.0028 28.2459C92.2579 29.0845 93.8101 29.1006 95.2399 29.1559C98.806 29.3216 100.921 28.5449 103.154 25.4464C103.802 24.5427 104.075 23.431 104.489 22.37L102.765 20.4017C102.602 20.2064 102.447 19.6305 102.565 19.4102C102.9 18.7136 105.027 19.1684 105.581 16.6004C105.645 16.309 105.152 15.6327 104.852 15.622C103.403 15.5128 100.497 17.8127 100.575 20.981L100.65 23.9864C98.5042 26.3762 97.6259 27.2312 94.2998 26.7878C92.9198 26.6044 91.3475 25.7736 91.1337 24.2572C90.9426 22.9395 92.2177 21.7305 93.4993 21.4996L93.5002 21.5358Z" fill="black"/>
</svg>
