<svg width="209" height="209" viewBox="0 0 209 209" fill="none" xmlns="http://www.w3.org/2000/svg">
<path d="M164.744 36.5C165.316 36.5 165.902 36.5651 166.521 36.6289L166.642 39.2588C166.657 39.5966 166.879 39.8068 167.064 39.914C167.247 40.0193 167.459 40.0689 167.642 40.0908C167.831 40.1133 168.029 40.1108 168.21 40.0849C168.376 40.0611 168.589 40.0096 168.759 39.8896C169.029 39.6989 169.196 39.3855 169.295 39.123C169.373 38.9156 169.426 38.6874 169.448 38.4697L169.46 38.2568L169.527 36.5381L173.864 36.5664V41.0176L170.701 40.957L170.162 40.9473L170.192 41.4853L170.279 43.0596L170.306 43.5312H173.42C173.613 43.5312 173.686 43.5934 173.729 43.6523C173.791 43.7367 173.847 43.9003 173.847 44.168V44.1699C173.864 51.6247 173.863 59.0796 173.863 66.5351C173.588 66.3908 173.285 66.204 172.982 65.959L172.981 65.957L172.794 65.7998C171.101 64.3113 170.446 61.8868 170.309 59.3779L171.028 60.2676L171.034 58.8633L171.063 51.8291C171.359 50.4487 171.889 48.5485 172.878 46.3691L172.921 46.2764L172.923 46.1748C172.933 45.7679 172.86 45.3488 172.638 45.0205C172.425 44.7071 172.102 44.5155 171.709 44.4912H171.537C171.335 44.5025 171.149 44.5909 171.015 44.6719C170.868 44.7602 170.724 44.8756 170.598 45.0019C170.472 45.128 170.351 45.2774 170.259 45.4385C170.17 45.593 170.087 45.7958 170.087 46.0205L170.063 51.7217C170.063 51.7227 170.063 51.7236 170.062 51.7246C169.891 52.5195 169.494 54.3883 169.341 56.5908L167.005 53.7012C166.557 53.1454 166.283 52.4875 166.069 51.7344C165.846 50.9483 165.716 50.183 165.492 49.2783L165.393 48.875L164.979 48.8994C163.675 48.9739 163.018 49.2663 162.423 49.4668C161.944 49.6281 161.456 49.7511 160.499 49.6631C160.497 48.827 160.73 48.0045 160.971 47.25C161.105 46.8285 161.25 46.4008 161.327 46.042C161.399 45.7101 161.457 45.2672 161.236 44.9053H161.235C160.978 44.4834 160.522 44.2774 160.107 44.1504C159.685 44.021 159.169 43.9367 158.687 43.8457C157.731 43.6653 156.817 43.4424 156.166 42.8691L156.04 42.75C155.052 41.7367 154.089 41.0081 152.903 40.2978C154.254 40.344 155.382 40.2164 156.101 40.1035L164.83 40.1377L165.085 40.1396L165.235 39.9336C165.476 39.6054 165.641 39.1957 165.646 38.7461L165.646 38.7471C165.669 38.1392 165.44 37.7088 165.366 37.5605L165.195 37.2187L164.82 37.2939C161.878 37.8859 158.953 38.4947 156.014 39.1035C154.673 39.1035 153.386 39.1063 151.996 39.2383C150.263 39.0684 148.27 38.5584 146.39 37.3301L146.388 37.3291L146.093 37.1318C145.799 36.9283 145.525 36.7159 145.269 36.5H164.744Z" fill="black" stroke="black"/>
<path d="M40.0176 36.5L39.957 39.664L39.9473 40.2021L40.4854 40.1728L42.0596 40.0849L42.5312 40.0586V36.9443C42.5313 36.7514 42.5935 36.6788 42.6523 36.6357C42.7366 36.5741 42.9002 36.5176 43.168 36.5176H43.1699C50.6247 36.5007 58.0797 36.5 65.5352 36.5C65.3908 36.7754 65.2043 37.0793 64.959 37.3818L64.957 37.3838C63.4859 39.2152 60.9771 39.9122 58.3779 40.0547L59.2676 39.3359L57.8633 39.3301L50.834 39.3008C49.4531 39.0051 47.551 38.4765 45.3691 37.4863L45.2764 37.4443L45.1748 37.4414C44.7679 37.4312 44.3489 37.5042 44.0205 37.7265C43.7071 37.9388 43.5156 38.2625 43.4912 38.6553V38.8281C43.5027 39.0303 43.591 39.2155 43.6719 39.3496C43.7603 39.4961 43.8756 39.6402 44.002 39.7666C44.1281 39.8927 44.2774 40.0132 44.4385 40.1055C44.593 40.1939 44.7957 40.2769 45.0205 40.2773V40.2783L50.7197 40.3008C50.722 40.3012 50.7243 40.3013 50.7266 40.3017C51.5223 40.4732 53.3895 40.8695 55.5898 41.0224L52.7012 43.3594C52.1454 43.8069 51.4876 44.0809 50.7344 44.2949C49.9483 44.5182 49.183 44.6482 48.2783 44.8721L47.875 44.9717L47.8994 45.3867C47.974 46.6905 48.2663 47.3473 48.4668 47.9424C48.628 48.4209 48.751 48.909 48.6631 49.8652C47.827 49.8673 47.0044 49.6347 46.25 49.3945C45.8285 49.2603 45.4008 49.1147 45.042 49.0371C44.71 48.9653 44.2673 48.9082 43.9053 49.1289C43.4834 49.3863 43.2774 49.8419 43.1504 50.2568C43.021 50.6796 42.9367 51.1954 42.8457 51.6777C42.6535 52.6962 42.4129 53.6668 41.752 54.3223C40.7379 55.3107 40.0085 56.274 39.2979 57.4599C39.3439 56.1095 39.2164 54.9808 39.1035 54.2627L39.1377 45.5342L39.1387 45.2803L38.9336 45.1299C38.6012 44.8861 38.1851 44.7178 37.7285 44.7178C37.1305 44.7005 36.7074 44.9246 36.5605 44.998L36.2188 45.1689L36.2939 45.5439C36.8859 48.4861 37.4947 51.4112 38.1035 54.3506C38.1035 55.6912 38.1065 56.9781 38.2383 58.3672C38.0685 60.1002 37.5587 62.0935 36.3301 63.9746L36.3291 63.9765C36.0669 64.3825 35.7867 64.7548 35.5 65.0957V45.6201C35.5 45.048 35.5651 44.4622 35.6289 43.8428L38.2578 43.7226C38.5961 43.708 38.8068 43.4865 38.9141 43.3008C39.0195 43.1182 39.0689 42.9068 39.0908 42.7236C39.1134 42.5344 39.1109 42.3351 39.085 42.1543C39.0611 41.9879 39.0094 41.7763 38.8896 41.6064C38.699 41.3364 38.3855 41.1687 38.123 41.0703C37.8527 40.9689 37.5474 40.908 37.2754 40.9053H37.2764L35.5381 40.8359L35.5674 36.5H40.0176Z" fill="black" stroke="black"/>
<path d="M173.863 142.773C173.863 150.229 173.864 157.684 173.847 165.14V165.141C173.847 165.409 173.791 165.573 173.729 165.657C173.686 165.716 173.613 165.777 173.42 165.777H170.306L170.279 166.25L170.192 167.824L170.162 168.362L170.701 168.352L173.864 168.291V172.742L169.527 172.77L169.459 171.033C169.456 170.761 169.396 170.457 169.295 170.187C169.209 169.957 169.07 169.688 168.855 169.497L168.759 169.42L168.625 169.342C168.486 169.275 168.335 169.243 168.21 169.225C168.029 169.199 167.831 169.195 167.642 169.218C167.459 169.24 167.247 169.29 167.064 169.395C166.879 169.503 166.656 169.713 166.642 170.051L166.521 172.68C165.902 172.743 165.316 172.81 164.744 172.81H145.268C145.609 172.523 145.981 172.243 146.388 171.98L146.39 171.979C148.269 170.751 150.261 170.239 151.993 170.069C153.385 170.202 154.675 170.205 156.019 170.205C158.956 170.814 161.88 171.424 164.82 172.016L165.195 172.091L165.366 171.749C165.44 171.601 165.669 171.17 165.646 170.562H165.646C165.641 170.113 165.476 169.703 165.235 169.375L165.085 169.17L164.83 169.171L156.106 169.205C155.388 169.092 154.257 168.964 152.903 169.011C154.089 168.301 155.051 167.572 156.039 166.559L156.04 166.56C156.695 165.897 157.667 165.656 158.687 165.464C159.169 165.373 159.685 165.288 160.107 165.158C160.522 165.031 160.978 164.826 161.235 164.404H161.236C161.457 164.042 161.399 163.599 161.327 163.267C161.25 162.908 161.105 162.481 160.971 162.06C160.73 161.305 160.497 160.482 160.499 159.645C161.456 159.558 161.944 159.681 162.423 159.843C163.018 160.043 163.675 160.336 164.979 160.41L165.393 160.434L165.492 160.031C165.716 159.127 165.846 158.361 166.069 157.575C166.283 156.822 166.557 156.162 167.005 155.606L169.341 152.718C169.494 154.921 169.891 156.79 170.062 157.585V157.584L170.063 157.585L170.087 163.289C170.087 163.514 170.17 163.717 170.259 163.871C170.351 164.032 170.472 164.181 170.598 164.308C170.724 164.434 170.868 164.549 171.015 164.638C171.149 164.719 171.337 164.808 171.54 164.818V164.817C172.009 164.844 172.396 164.646 172.638 164.289C172.86 163.961 172.933 163.542 172.923 163.135L172.921 163.032L172.878 162.94L172.521 162.116C171.756 160.28 171.32 158.68 171.062 157.476L171.034 150.446L171.028 149.042L170.309 149.931C170.451 147.331 171.15 144.823 172.981 143.352L172.982 143.351C173.285 143.105 173.588 142.918 173.863 142.773Z" fill="black" stroke="black"/>
<path d="M35.5176 165.14C35.5007 157.684 35.5 150.229 35.5 142.773C35.7755 142.918 36.0792 143.105 36.3818 143.351L36.3838 143.352C38.2151 144.822 38.9121 147.331 39.0547 149.93L38.3359 149.042L38.3301 150.446L38.3008 157.475C38.0051 158.856 37.4767 160.758 36.4863 162.94L36.4443 163.032L36.4414 163.135C36.4313 163.541 36.5045 163.96 36.7266 164.288C36.9687 164.646 37.3559 164.844 37.8252 164.817V164.818C38.0284 164.808 38.2149 164.719 38.3496 164.638C38.4961 164.549 38.6403 164.434 38.7666 164.308C38.8927 164.181 39.0133 164.032 39.1055 163.871C39.1939 163.717 39.2777 163.514 39.2783 163.289L39.3018 157.585L39.3027 157.582L39.3018 157.581C39.4735 156.784 39.8697 154.917 40.0225 152.718L42.3594 155.607V155.606C42.8072 156.162 43.0808 156.822 43.2949 157.575C43.5182 158.361 43.6482 159.127 43.8721 160.031L43.9717 160.434L44.3867 160.41C45.6906 160.336 46.3473 160.043 46.9424 159.843C47.421 159.682 47.909 159.558 48.8652 159.645C48.8674 160.482 48.6338 161.305 48.3936 162.06C48.2594 162.481 48.1147 162.908 48.0371 163.267C47.9653 163.599 47.9081 164.042 48.1289 164.404C48.3863 164.826 48.842 165.031 49.2568 165.158C49.6797 165.288 50.1953 165.373 50.6777 165.464C51.6336 165.644 52.5477 165.866 53.1982 166.439L53.3252 166.56C54.3127 167.572 55.2752 168.301 56.46 169.011C55.106 168.965 53.9747 169.092 53.2568 169.205L44.5342 169.171L44.2803 169.17L44.1299 169.375C43.9166 169.666 43.7611 170.021 43.7256 170.411L43.7178 170.562C43.6954 171.17 43.9239 171.601 43.998 171.749L44.1689 172.091L44.5439 172.016C47.4846 171.424 50.4078 170.814 53.3457 170.205C54.6891 170.205 55.9782 170.202 57.3701 170.069C59.1024 170.239 61.0946 170.751 62.9746 171.979L62.9766 171.98C63.3831 172.243 63.7564 172.522 64.0977 172.81H44.6201C44.048 172.81 43.4622 172.743 42.8428 172.68L42.7236 170.051C42.7088 169.713 42.4864 169.503 42.3008 169.395C42.1182 169.29 41.9068 169.24 41.7236 169.218C41.5344 169.195 41.3352 169.199 41.1543 169.225C41.0295 169.242 40.8792 169.276 40.7402 169.342L40.6064 169.42C40.3363 169.611 40.1687 169.924 40.0703 170.187C39.969 170.457 39.9081 170.761 39.9053 171.033L39.8359 172.77L35.5 172.742V168.291L38.6641 168.352L39.2021 168.362L39.1719 167.824L39.085 166.25L39.0586 165.777H35.9443C35.7517 165.777 35.6788 165.716 35.6357 165.657C35.5741 165.573 35.5176 165.409 35.5176 165.141V165.14Z" fill="black" stroke="black"/>
<path d="M107.631 11.8584L105.356 14.0596L104.973 14.4306L105.367 14.789L106.521 15.8389L106.871 16.1562L107.208 15.8252L109.098 13.9717L109.101 13.9678C109.25 13.818 109.35 13.8136 109.417 13.8242C109.518 13.8403 109.671 13.9171 109.862 14.1084H109.863C112.592 16.828 115.32 19.5521 118.049 22.2764C120.596 24.8195 123.144 27.3626 125.691 29.9023C125.392 29.9948 125.038 30.0773 124.646 30.1191H124.644C122.317 30.3784 120.056 29.0991 118.119 27.3613L119.255 27.4814L118.268 26.4853L113.298 21.4775C112.537 20.2974 111.572 18.5811 110.737 16.3437L110.699 16.2412L110.622 16.165L110.513 16.0605C110.25 15.8238 109.94 15.6363 109.603 15.5742C109.187 15.4978 108.777 15.6226 108.468 15.9678C108.327 16.1192 108.257 16.3154 108.218 16.4687C108.176 16.6352 108.155 16.8184 108.155 16.9971C108.155 17.1754 108.176 17.366 108.225 17.5449C108.272 17.7171 108.357 17.9191 108.516 18.0781L112.516 22.1094C112.519 22.1149 112.523 22.1205 112.526 22.126L112.527 22.1269C112.971 22.8034 114.017 24.4096 115.47 26.0791L111.772 25.6933H111.769C111.051 25.6239 110.394 25.3564 109.714 24.9775C109.002 24.5812 108.375 24.1324 107.571 23.6465L107.217 23.4316L106.94 23.7412C106.064 24.7198 105.808 25.3933 105.53 25.957C105.308 26.4081 105.053 26.8381 104.316 27.4482C103.724 26.8523 103.308 26.1004 102.942 25.3945C102.739 25.0008 102.538 24.5966 102.338 24.2881C102.152 24.0023 101.877 23.65 101.463 23.5527C100.981 23.4393 100.513 23.6162 100.128 23.8213C99.7368 24.0298 99.3129 24.3361 98.9082 24.6133C98.0526 25.1992 97.1967 25.7154 96.2617 25.708H96.2607C94.8505 25.6953 93.6585 25.8591 92.3174 26.1924C93.3272 25.2506 94.0459 24.345 94.4756 23.7578L94.4824 23.748L94.4893 23.7373C94.4907 23.7351 94.4917 23.7326 94.4932 23.7305L100.634 17.6426L100.804 17.4736L100.778 17.2353C100.73 16.7775 100.515 16.3857 100.232 16.0791H100.233C99.8333 15.6346 99.381 15.4699 99.1475 15.418L98.8115 15.3428L98.6221 15.6308C97.7909 16.8908 96.9641 18.1509 96.1377 19.4101C95.3313 20.639 94.5239 21.8665 93.7139 23.0947L93.7021 23.1074L93.7012 23.1084C92.7326 24.0769 91.8215 25.0022 90.9189 26.0918C89.5791 27.189 87.8185 28.2284 85.625 28.6924L85.624 28.6933C85.1554 28.7938 84.6977 28.8558 84.2568 28.8935C84.4906 28.6598 84.7254 28.426 84.9629 28.1885L98.0283 15.123L98.0342 15.1162C98.4297 14.7071 98.8805 14.3585 99.3701 13.9599L101.308 15.7324V15.7314C101.559 15.9649 101.87 15.9487 102.07 15.8926C102.271 15.8363 102.455 15.7214 102.599 15.6074C102.747 15.4896 102.886 15.3469 102.995 15.2012C103.094 15.0687 103.211 14.8782 103.242 14.668V14.665C103.288 14.3431 103.188 14.011 103.071 13.7549C102.949 13.4866 102.774 13.2257 102.586 13.0264L101.397 11.7558L104.478 8.70506L107.631 11.8584Z" fill="black" stroke="black"/>
<path d="M29.9023 83.8955C29.9949 84.1953 30.0773 84.5492 30.1191 84.9424V84.9443C30.3784 87.2707 29.0988 89.5313 27.3613 91.4678L27.4814 90.333L26.4854 91.3203L21.4775 96.289C20.2974 97.0504 18.5814 98.0156 16.3438 98.8506L16.2412 98.8887L16.165 98.9658C15.8803 99.2505 15.6452 99.5999 15.5742 99.9853C15.4978 100.4 15.623 100.81 15.9678 101.119V101.12C15.971 101.123 15.9743 101.126 15.9775 101.129V101.128C16.1276 101.263 16.3185 101.332 16.4688 101.37C16.6352 101.412 16.8185 101.433 16.9971 101.433C17.1754 101.433 17.366 101.412 17.5449 101.363C17.7172 101.316 17.9191 101.23 18.0781 101.071L22.1094 97.0713C22.1147 97.0678 22.1206 97.065 22.126 97.0615H22.127C22.8035 96.6173 24.4094 95.5703 26.0791 94.1172L25.6934 97.8154V97.8193C25.6239 98.5368 25.3564 99.1938 24.9775 99.874C24.5813 100.586 24.1324 101.213 23.6465 102.017L23.4316 102.371L23.7412 102.647C24.7198 103.524 25.3933 103.78 25.957 104.058C26.408 104.28 26.8384 104.534 27.4482 105.27C26.8522 105.863 26.1006 106.28 25.3945 106.645C25.0008 106.849 24.5967 107.049 24.2881 107.25C24.0023 107.436 23.65 107.711 23.5527 108.125C23.4393 108.607 23.6162 109.075 23.8213 109.46C24.0298 109.851 24.3361 110.276 24.6133 110.681C25.1989 111.536 25.7152 112.391 25.708 113.325C25.6952 114.736 25.8591 115.928 26.1924 117.27C25.2507 116.26 24.3449 115.542 23.7578 115.112L23.748 115.105L23.7373 115.099C23.735 115.097 23.7328 115.095 23.7305 115.094L17.6426 108.955L17.4736 108.784L17.2354 108.81C16.8323 108.852 16.4801 109.023 16.1924 109.257L16.0791 109.354C15.6346 109.755 15.4699 110.207 15.418 110.44L15.3428 110.776L15.6309 110.966C16.8908 111.797 18.1509 112.624 19.4102 113.45C20.6389 114.257 21.8667 115.063 23.0947 115.873L23.1084 115.887C24.0776 116.856 25.0033 117.768 26.0938 118.671C27.1904 120.01 28.2286 121.771 28.6924 123.963L28.6934 123.964C28.7937 124.432 28.8558 124.89 28.8936 125.33L15.123 111.56L15.1162 111.554L14.9326 111.367C14.6002 111.018 14.2976 110.631 13.96 110.217L15.7324 108.28L15.7314 108.279C15.9644 108.028 15.9487 107.718 15.8926 107.518C15.8363 107.317 15.7214 107.133 15.6074 106.989C15.4896 106.841 15.3469 106.702 15.2012 106.593C15.0687 106.494 14.8782 106.377 14.668 106.346H14.665C14.3431 106.3 14.011 106.4 13.7549 106.517C13.4874 106.638 13.2275 106.812 13.0283 107L11.7559 108.189L8.70508 105.109L11.8584 101.956L14.0596 104.232L14.4307 104.615L14.7891 104.221L15.8389 103.066L16.1562 102.717L15.8252 102.38L13.9717 100.491V100.49L13.9678 100.487C13.8181 100.337 13.8136 100.238 13.8242 100.171C13.8403 100.07 13.9171 99.9169 14.1084 99.7256V99.7246C16.828 96.9962 19.5522 94.2676 22.2764 91.539C24.8197 88.9917 27.3624 86.4431 29.9023 83.8955Z" fill="black" stroke="black"/>
<path d="M188.376 91.539C191.1 94.2677 193.824 96.9962 196.544 99.7246L196.545 99.7256C196.736 99.9167 196.812 100.07 196.828 100.171C196.839 100.238 196.834 100.337 196.685 100.487L196.682 100.491L194.827 102.38L194.496 102.717L194.814 103.066L195.863 104.221L196.223 104.615L196.593 104.232L198.793 101.956L201.947 105.11L198.896 108.189L197.624 107C197.425 106.812 197.165 106.638 196.897 106.517C196.641 106.4 196.31 106.3 195.988 106.346H195.984C195.774 106.377 195.585 106.494 195.452 106.593C195.306 106.702 195.164 106.84 195.046 106.989C194.932 107.133 194.817 107.317 194.761 107.518C194.705 107.718 194.688 108.028 194.92 108.279V108.28L196.691 110.217C196.354 110.631 196.053 111.018 195.721 111.367L195.536 111.554L195.53 111.56L182.464 124.625C182.226 124.863 181.992 125.096 181.758 125.33C181.796 124.89 181.86 124.432 181.96 123.964V123.963C182.423 121.772 183.46 120.012 184.556 118.673C185.647 117.769 186.574 116.857 187.544 115.887L187.546 115.886L187.559 115.871C188.786 115.061 190.015 114.256 191.243 113.45C192.502 112.624 193.763 111.797 195.022 110.966L195.31 110.776L195.234 110.44C195.182 110.207 195.018 109.755 194.573 109.354C194.267 109.072 193.874 108.858 193.417 108.81L193.179 108.784L193.01 108.955L186.924 115.092C186.921 115.094 186.918 115.097 186.915 115.099L186.896 115.112C186.308 115.542 185.402 116.26 184.46 117.27C184.764 116.047 184.927 114.948 184.943 113.694L184.944 113.325C184.937 112.39 185.454 111.536 186.04 110.681C186.317 110.276 186.622 109.851 186.831 109.46C187.036 109.075 187.214 108.608 187.101 108.126C187.004 107.711 186.65 107.436 186.364 107.25C186.056 107.05 185.651 106.849 185.258 106.645C184.552 106.28 183.8 105.863 183.204 105.27C183.814 104.534 184.245 104.28 184.696 104.058C185.26 103.78 185.934 103.523 186.912 102.647L187.221 102.371L187.006 102.017C186.52 101.213 186.071 100.586 185.675 99.874C185.296 99.1938 185.029 98.5368 184.96 97.8193L184.959 97.8154L184.572 94.1181C186.242 95.5714 187.849 96.6173 188.525 97.0615H188.526C188.532 97.0652 188.538 97.0686 188.544 97.0723L192.575 101.073C192.734 101.231 192.936 101.316 193.107 101.363C193.286 101.412 193.477 101.433 193.655 101.433C193.834 101.433 194.018 101.412 194.185 101.37C194.334 101.332 194.524 101.262 194.674 101.128L194.675 101.129C194.677 101.127 194.678 101.125 194.68 101.123C194.681 101.122 194.683 101.121 194.685 101.12L194.684 101.119C195.029 100.81 195.156 100.401 195.079 99.9853C195.008 99.6 194.773 99.2505 194.488 98.9658L194.411 98.8887L194.31 98.8506L193.472 98.5224C191.638 97.7703 190.202 96.9517 189.174 96.2881L184.167 91.3203L183.172 90.333L183.29 91.4668C181.553 89.5306 180.274 87.2702 180.533 84.9443L180.534 84.9424C180.576 84.5494 180.656 84.1952 180.749 83.8955C183.289 86.4433 185.832 88.9914 188.376 91.539Z" fill="black" stroke="black"/>
<path d="M84.9443 180.111C87.2702 179.852 89.5306 181.131 91.4668 182.868L90.333 182.75L91.3203 183.745L96.2881 188.752C97.0496 189.932 98.0153 191.649 98.8506 193.888L98.8887 193.989L98.9658 194.066C99.2505 194.351 99.6 194.586 99.9854 194.657C100.401 194.733 100.81 194.607 101.119 194.262L101.12 194.263C101.123 194.259 101.126 194.256 101.129 194.253L101.128 194.252C101.262 194.102 101.332 193.912 101.37 193.763C101.412 193.596 101.433 193.412 101.433 193.233C101.433 193.055 101.412 192.864 101.363 192.685C101.328 192.556 101.271 192.41 101.178 192.278L101.072 192.152L97.0723 188.122C97.0686 188.116 97.0652 188.11 97.0615 188.104V188.103L96.457 187.197C95.9069 186.392 95.1067 185.286 94.1182 184.15L97.8154 184.537L97.8193 184.538C98.5368 184.607 99.1938 184.874 99.874 185.253C100.586 185.649 101.213 186.098 102.017 186.584L102.371 186.799L102.647 186.49C103.523 185.512 103.78 184.838 104.058 184.274C104.28 183.823 104.534 183.392 105.271 182.782C105.863 183.378 106.28 184.13 106.646 184.836C106.849 185.229 107.05 185.634 107.25 185.942C107.436 186.228 107.711 186.581 108.126 186.679V186.678C108.608 186.791 109.075 186.614 109.46 186.409C109.851 186.2 110.276 185.895 110.681 185.618C111.536 185.032 112.391 184.515 113.326 184.522V184.521C114.737 184.534 115.928 184.371 117.27 184.038C116.26 184.98 115.542 185.886 115.112 186.473L115.099 186.493C115.097 186.496 115.094 186.499 115.092 186.502L108.955 192.588L108.784 192.757L108.81 192.995C108.858 193.452 109.072 193.845 109.354 194.151V194.152C109.755 194.597 110.207 194.76 110.44 194.812L110.776 194.888L110.966 194.6C111.797 193.341 112.624 192.08 113.45 190.821C114.256 189.593 115.061 188.364 115.871 187.137L115.886 187.124L115.887 187.122C116.857 186.152 117.769 185.225 118.673 184.134C120.012 183.038 121.772 182.001 123.963 181.538H123.964C124.432 181.438 124.89 181.374 125.33 181.336C125.096 181.57 124.863 181.804 124.625 182.042L111.56 195.108L111.554 195.114C111.158 195.523 110.706 195.871 110.217 196.269L108.279 194.498C108.028 194.266 107.718 194.283 107.518 194.339C107.317 194.395 107.133 194.51 106.989 194.624C106.84 194.742 106.702 194.884 106.593 195.03C106.494 195.163 106.377 195.352 106.346 195.562V195.566C106.3 195.888 106.4 196.219 106.517 196.475C106.638 196.743 106.812 197.003 107 197.202V197.203L108.189 198.474L105.11 201.525L101.956 198.371L104.232 196.171L104.615 195.801L104.221 195.441L103.066 194.392L102.717 194.074L102.38 194.405L100.491 196.26L100.487 196.263C100.337 196.412 100.238 196.417 100.171 196.406C100.07 196.39 99.9167 196.314 99.7256 196.123L99.7246 196.122C96.9962 193.402 94.2677 190.678 91.5391 187.954C88.9914 185.41 86.4433 182.867 83.8955 180.327C84.1953 180.234 84.5494 180.154 84.9424 180.112L84.9443 180.111Z" fill="black" stroke="black"/>
</svg>
