<svg width="209" height="209" viewBox="0 0 209 209" fill="none" xmlns="http://www.w3.org/2000/svg">
<path d="M187.919 109.526C187.9 109.063 188.019 108.618 188.237 108.204L188.607 108.292C189.455 108.491 189.757 108.861 189.79 109.271C189.827 109.775 189.49 110.189 189.095 110.304L189.015 110.323L189.008 110.324C188.455 110.436 187.933 110.032 187.919 109.533L187.919 109.526ZM191.977 108.484C191.954 108.053 191.813 107.541 191.54 107.126C191.474 107.026 191.397 106.929 191.311 106.838C191.362 106.884 191.414 106.932 191.464 106.986L191.464 106.987C191.988 107.566 192.398 108.151 192.86 108.83L192.861 108.831C193.198 109.323 193.719 109.684 194.248 109.931C194.781 110.179 195.365 110.331 195.878 110.377L195.894 110.378L195.908 110.379C195.953 110.38 196.003 110.387 196.053 110.398C195.644 110.943 195.298 111.275 195.003 111.479C194.653 111.72 194.359 111.797 194.081 111.826C193.933 111.841 193.789 111.844 193.623 111.846C193.464 111.849 193.28 111.852 193.092 111.876C192.689 111.927 192.281 112.074 191.874 112.464L192.069 112.734L191.813 112.652C191.613 113.274 191.385 113.672 191.15 113.969C190.909 114.272 190.65 114.486 190.336 114.753C190.026 115.017 189.679 115.32 189.343 115.771C189.173 116.001 189.008 116.264 188.851 116.574C188.747 116.281 188.67 115.979 188.604 115.654L188.473 114.939C188.375 114.296 188.603 113.446 189.068 112.918L189.17 112.809L191.119 110.84C191.762 110.206 192.001 109.34 191.977 108.496L191.977 108.484Z" fill="black" stroke="black"/>
<path d="M188.863 92.3569C189.327 93.2126 189.851 93.7014 190.326 94.151C190.922 94.7147 191.429 95.2038 191.759 96.4129L191.802 96.5748L191.936 96.6776C192.322 96.9738 192.745 97.0852 193.129 97.1437C193.319 97.1725 193.512 97.1906 193.687 97.2073C193.868 97.2246 194.035 97.2411 194.198 97.2683L194.203 97.2692C194.347 97.2918 194.542 97.3726 194.774 97.522C195 97.6678 195.232 97.8599 195.444 98.0661C195.655 98.2722 195.837 98.4838 195.966 98.6622C195.98 98.6811 195.992 98.7002 196.004 98.7178C195.95 98.7303 195.884 98.7465 195.803 98.7625C195.374 98.8471 194.693 98.9572 193.964 99.2453L193.964 99.2463C193.577 99.4004 193.289 99.556 193.053 99.7454C192.815 99.9364 192.655 100.143 192.504 100.357C192.217 100.765 191.911 101.282 191.034 102.148C190.792 102.384 190.512 102.524 190.253 102.552C190.395 102.516 190.539 102.458 190.678 102.368L190.679 102.367C191.413 101.892 191.726 101.085 191.744 100.309C191.761 99.5371 191.492 98.7227 190.967 98.1416L190.966 98.1406L189.17 96.1643L189.168 96.1624C188.547 95.4864 188.356 94.7595 188.422 93.9821C188.466 93.4652 188.625 92.9213 188.863 92.3569ZM188.655 98.5506C189.181 98.5489 189.546 98.9004 189.573 99.4014L189.574 99.504C189.564 99.7944 189.448 100.023 189.257 100.187C189.061 100.355 188.756 100.48 188.341 100.492L187.949 100.503C187.821 100.183 187.738 99.8433 187.712 99.4922L187.712 99.4844L187.708 99.3966C187.714 99.1927 187.809 99.0036 187.972 98.848C188.163 98.6665 188.423 98.5588 188.655 98.5506Z" fill="black" stroke="black"/>
<path d="M186.417 113.688C186.003 115.012 186.244 116.12 186.529 116.951C186.607 117.178 186.689 117.388 186.759 117.568C186.832 117.753 186.888 117.899 186.925 118.024C186.955 118.124 186.964 118.182 186.967 118.214L180.221 124.693C180.41 124.319 180.64 123.964 180.903 123.617C181.22 123.201 181.579 122.798 181.962 122.376C182.342 121.958 182.748 121.519 183.14 121.049L183.141 121.047C183.33 120.818 183.438 120.526 183.493 120.259C183.547 119.994 183.559 119.708 183.519 119.45C183.309 117.794 183.707 116.653 184.438 115.667C184.955 114.969 185.634 114.352 186.417 113.688Z" fill="black" stroke="black"/>
<path d="M187.274 90.7731C186.384 92.0411 186.033 93.526 186.428 95.0658L185.582 94.3077L185.311 94.0515C184.01 92.7444 183.477 91.0382 183.793 89.2783L183.794 89.2695C183.932 88.4096 183.575 87.7249 183.128 87.169L183.123 87.1633L183.119 87.1575L181.594 85.37C181.203 84.9018 180.884 84.4219 180.659 83.9111L187.274 90.7731Z" fill="black" stroke="black"/>
<path d="M199.309 104.331L195.692 107.797C195.664 107.786 195.63 107.77 195.589 107.745C195.507 107.697 195.423 107.634 195.354 107.571C195.32 107.54 195.293 107.512 195.274 107.489C195.253 107.466 195.247 107.455 195.249 107.459L195.213 107.394L195.159 107.343L195.14 107.326L195.124 107.311C194.109 106.432 193.489 105.449 193.531 104.257C193.557 103.614 193.904 102.869 194.453 102.203C194.915 101.643 195.482 101.188 196.019 100.926L199.309 104.331Z" fill="black" stroke="black"/>
<path d="M173.965 44.8089C174.06 45.4738 174.049 45.9473 173.985 46.2963C173.908 46.7112 173.755 46.9733 173.579 47.1907C173.485 47.3065 173.384 47.41 173.269 47.5295C173.158 47.6436 173.03 47.776 172.914 47.9252C172.74 48.1501 172.599 48.4107 172.525 48.7401L172.125 48.7512L172.488 49.4572C172.788 50.0414 172.909 50.4853 172.953 50.8618C172.998 51.247 172.966 51.5811 172.932 51.9907C172.9 52.3953 172.868 52.8553 172.949 53.4107C172.991 53.6963 173.063 54.0013 173.174 54.3355C172.899 54.2034 172.632 54.0443 172.355 53.861L171.748 53.4441C171.2 53.0636 170.749 52.222 170.741 51.4527L170.734 48.6628L170.733 48.6501C170.708 47.7466 170.278 46.9849 169.683 46.401L169.684 46.401C169.362 46.0742 168.893 45.8071 168.403 45.7107C168.093 45.6498 167.747 45.6546 167.425 45.7789C167.645 45.6678 167.927 45.6077 168.276 45.6263L168.276 45.6273C169.06 45.6736 169.766 45.7892 170.579 45.9424L170.579 45.9434C171.169 46.0624 171.795 45.9434 172.342 45.7411C172.889 45.5384 173.402 45.2337 173.796 44.9201L173.797 44.9211C173.847 44.8833 173.905 44.8437 173.965 44.8089ZM168.083 48.2548C168.309 48.24 168.503 48.3013 168.684 48.4559L168.689 48.4597C169.101 48.8032 169.137 49.3844 168.897 49.7445C168.597 50.1914 168.005 50.2922 167.637 50.0246L167.567 49.966C167.237 49.6459 167.013 49.2422 166.876 48.7924L167.165 48.6104C167.534 48.3769 167.84 48.2706 168.083 48.2548Z" fill="black" stroke="black"/>
<path d="M160.364 41.62C160.744 41.2301 161.319 41.2391 161.699 41.6396L161.699 41.6406C161.902 41.8621 161.977 42.1041 161.956 42.3515C161.934 42.6085 161.802 42.9133 161.514 43.2254L161.256 43.5032C161.004 43.3979 160.763 43.2655 160.541 43.102L160.352 42.9519C160.177 42.7999 160.085 42.567 160.09 42.3027C160.095 42.0321 160.202 41.7802 160.357 41.627L160.364 41.62ZM164.807 36.5201C165.103 36.516 165.383 36.5354 165.603 36.5684C165.611 36.5697 165.62 36.5712 165.628 36.5726C165.606 36.6058 165.584 36.6439 165.556 36.6849C165.341 37.0035 165.009 37.4685 164.724 38.0611L164.605 38.3223C164.44 38.7068 164.346 39.0204 164.311 39.3201C164.276 39.6237 164.307 39.8825 164.351 40.1416C164.435 40.6346 164.584 41.2147 164.585 42.4563C164.578 42.6649 164.536 42.8581 164.467 43.0243C164.479 42.9852 164.49 42.9448 164.499 42.9032L164.5 42.9012C164.686 42.0457 164.339 41.2513 163.804 40.6892C163.272 40.1297 162.505 39.7441 161.721 39.7115L161.72 39.7115L159.053 39.5902C158.137 39.5379 157.486 39.1569 156.983 38.5623C156.647 38.1657 156.375 37.6687 156.144 37.1006C157.076 37.3762 157.787 37.3498 158.438 37.33C159.253 37.3053 159.956 37.2929 161.057 37.9206L161.201 38.0026L161.367 37.9824C161.851 37.9215 162.225 37.702 162.536 37.4732C162.688 37.3608 162.837 37.2379 162.971 37.128C163.109 37.0143 163.238 36.9101 163.373 36.8159L163.374 36.8149C163.486 36.737 163.678 36.6609 163.948 36.6055C164.21 36.5517 164.511 36.5242 164.807 36.5201Z" fill="black" stroke="black"/>
<path d="M169.471 53.9881C170.118 55.1742 171.054 55.7724 171.829 56.151C172.046 56.2566 172.252 56.3461 172.428 56.4235C172.61 56.5035 172.753 56.5678 172.867 56.6292C172.958 56.6779 173.006 56.7133 173.03 56.7331L172.849 66.0279C172.732 65.6485 172.651 65.256 172.595 64.847C172.525 64.3264 172.492 63.7858 172.462 63.2143C172.433 62.6485 172.407 62.049 172.349 61.4374C172.324 61.1338 172.185 60.851 172.037 60.6313C171.883 60.403 171.686 60.1956 171.49 60.0428L171.489 60.0418C170.169 59.0173 169.65 57.9292 169.473 56.7166C169.351 55.8769 169.39 54.9838 169.471 53.9881Z" fill="black" stroke="black"/>
<path d="M153.895 37.125C154.154 38.6581 154.983 39.953 156.356 40.7632L155.18 40.833C153.143 40.9378 151.426 40.1207 150.347 38.5493L150.341 38.5407L150.243 38.4144C149.745 37.8091 149.054 37.5822 148.372 37.5256L148.373 37.5255L146.039 37.3236L146.038 37.3236C145.431 37.2732 144.863 37.1602 144.337 36.9557L153.895 37.125Z" fill="black" stroke="black"/>
<path d="M171.96 38.217L171.846 43.2172C171.82 43.2276 171.786 43.2403 171.743 43.2513C171.651 43.2744 171.549 43.2887 171.456 43.2925C171.41 43.2944 171.369 43.2941 171.338 43.2918C171.309 43.2897 171.294 43.2867 171.292 43.2863L171.187 43.68L171.169 43.2692L171.15 43.2697L171.149 43.2746L171.149 43.2697C169.821 43.3571 168.661 43.0987 167.854 42.2328L167.848 42.2272C167.407 41.7677 167.127 41.0048 167.045 40.1471C166.977 39.4265 167.056 38.7031 167.246 38.1368L171.96 38.217Z" fill="black" stroke="black"/>
<path d="M43.846 166.229C43.6423 166.59 43.6146 167.001 43.6762 167.364C43.7599 167.857 44.0133 168.333 44.32 168.667C44.8745 169.287 45.6279 169.771 46.5542 169.79L49.3369 169.908L49.3418 169.908C50.0337 169.929 50.8096 170.36 51.231 170.888L51.3102 170.995C51.6485 171.515 51.9349 171.966 52.1428 172.446C51.8167 172.325 51.5178 172.243 51.2369 172.191C50.6858 172.089 50.2266 172.102 49.8213 172.119C49.4109 172.136 49.0749 172.154 48.6893 172.095C48.3123 172.037 47.8701 171.899 47.2926 171.577L47.2549 171.555L47.1967 171.5L47.0012 171.498L46.7982 171.504C46.3413 171.535 46.0007 171.692 45.713 171.898C45.5599 172.008 45.4232 172.132 45.3053 172.238C45.1817 172.349 45.0741 172.445 44.955 172.535C44.7313 172.702 44.4639 172.846 44.046 172.907C43.6941 172.958 43.2189 172.951 42.556 172.832C42.5884 172.784 42.6241 172.74 42.659 172.703L42.6732 172.688C43.008 172.303 43.3357 171.796 43.5615 171.254C43.7567 170.786 43.8908 170.254 43.8573 169.735L43.8326 169.513C43.7046 168.692 43.6164 167.99 43.5941 167.187C43.5828 166.777 43.682 166.458 43.846 166.229ZM46.8221 165.926C47.2492 166.08 47.6295 166.317 47.9306 166.652C48.2626 167.053 48.1494 167.692 47.6748 167.995L47.6729 167.997C47.312 168.23 46.7433 168.175 46.4068 167.751L46.4048 167.749L46.3201 167.622C46.15 167.305 46.1858 166.855 46.6174 166.225L46.8221 165.926Z" fill="black" stroke="black"/>
<path d="M35.5039 154.776C36.0589 155.028 36.5426 155.318 36.9256 155.664C37.5041 156.187 37.8603 156.846 37.8708 157.759L37.8924 160.437C37.8921 161.213 38.2482 161.993 38.7843 162.546C39.3217 163.1 40.0984 163.48 40.9573 163.33L40.9583 163.331C41.1326 163.302 41.2866 163.245 41.4218 163.169C41.207 163.343 40.8969 163.441 40.5459 163.432C39.3107 163.389 38.7341 163.218 38.2423 163.115C37.9845 163.062 37.7255 163.022 37.4207 163.046C37.1946 163.065 36.9605 163.117 36.6944 163.207L36.4169 163.31C35.6879 163.589 35.1175 163.97 34.7448 164.203C34.6989 164.232 34.6571 164.255 34.6208 164.277C34.6152 164.242 34.6098 164.204 34.6049 164.163C34.5788 163.943 34.5686 163.665 34.583 163.373C34.5974 163.081 34.636 162.787 34.7013 162.532C34.7684 162.27 34.8552 162.085 34.9419 161.977L34.9494 161.967C35.0483 161.838 35.1576 161.715 35.2776 161.58C35.3939 161.45 35.5238 161.305 35.643 161.156C35.884 160.853 36.1184 160.481 36.1892 159.998L36.2131 159.839L36.1388 159.696C35.5623 158.581 35.6012 157.875 35.6533 157.058C35.6945 156.41 35.7435 155.704 35.5039 154.776ZM40.5499 158.932C40.7757 158.933 40.9795 159.006 41.1325 159.155L41.195 159.223C41.4126 159.495 41.5805 159.8 41.7026 160.125L41.4145 160.375C41.1011 160.646 40.788 160.766 40.524 160.778C40.2676 160.789 40.027 160.701 39.8246 160.498L39.8186 160.494L39.7491 160.418C39.4222 160.033 39.4606 159.516 39.8458 159.186L39.8515 159.181C40.0223 159.029 40.2836 158.93 40.5499 158.932Z" fill="black" stroke="black"/>
<path d="M51.9054 168.685C52.9008 168.642 53.7912 168.637 54.6204 168.792C55.8227 169.016 56.8848 169.58 57.8523 170.943L57.8553 170.948C58.1357 171.334 58.6398 171.777 59.2173 171.866L59.229 171.867C59.8387 171.946 60.4368 171.993 60.9992 172.043C61.5675 172.094 62.104 172.148 62.6186 172.24C63.0369 172.315 63.4371 172.416 63.8222 172.557L54.4962 172.376C54.4767 172.351 54.4406 172.3 54.3906 172.197C54.333 172.078 54.2738 171.933 54.2003 171.747C54.1291 171.567 54.0469 171.358 53.949 171.139C53.608 170.374 53.0647 169.457 51.9697 168.781L52.0133 168.735L51.9054 168.685Z" fill="black" stroke="black"/>
<path d="M35.7834 142.974C35.9597 143.49 36.0521 144.042 36.0856 144.639L36.0856 144.64L36.1868 146.983C36.2078 147.686 36.4334 148.475 37.1424 148.992L37.1424 148.993C38.6669 150.135 39.4335 151.895 39.2428 153.884L39.2428 153.885L39.1359 155.029C38.3723 153.646 37.1301 152.795 35.616 152.461L35.7834 142.974Z" fill="black" stroke="black"/>
<path d="M36.1304 165.877C36.6989 165.702 37.4226 165.65 38.1403 165.747C38.9914 165.862 39.7435 166.172 40.1859 166.624L40.1859 166.625C41.0141 167.482 41.2411 168.618 41.0943 169.961L41.0319 170.531L41.071 170.529C41.0675 170.543 41.0652 170.556 41.0613 170.569C41.0473 170.615 41.0311 170.652 41.0185 170.679L36.0348 170.598L36.1304 165.877Z" fill="black" stroke="black"/>
<path d="M36.4165 43.7589L36.4236 43.7665L36.4316 43.7732C36.816 44.108 37.3231 44.4357 37.865 44.6615C38.4005 44.8845 39.0184 45.0282 39.6056 44.9326L39.6046 44.9316C40.4261 44.8035 41.1285 44.7164 41.9319 44.6941C42.3417 44.6828 42.6609 44.7822 42.8895 44.9459C42.529 44.7426 42.1184 44.7147 41.7554 44.7762C41.264 44.8596 40.7899 45.1118 40.4563 45.417C39.8371 45.9696 39.3512 46.72 39.3292 47.6434L39.2104 50.4369L39.2105 50.4418C39.1877 51.178 38.7014 52.0089 38.1279 52.4071C37.6061 52.7468 37.1538 53.0343 36.672 53.2428C36.7937 52.9166 36.876 52.6179 36.9282 52.3369C37.0307 51.7858 37.0172 51.3265 37.0003 50.9213C36.9832 50.5108 36.9649 50.1748 37.0246 49.7893C37.0829 49.4124 37.22 48.97 37.5417 48.3926L37.5612 48.3569L37.6191 48.2966L37.6215 48.1012C37.6286 47.5395 37.4564 47.1418 37.2203 46.813C37.1105 46.66 36.9877 46.5231 36.8818 46.4052C36.7707 46.2817 36.6742 46.174 36.5848 46.0549C36.4169 45.8313 36.2727 45.5639 36.2118 45.146C36.1606 44.7942 36.1672 44.3193 36.2867 43.657C36.3342 43.6894 36.3796 43.724 36.4165 43.7589ZM41.3701 47.5047C41.6902 47.2481 42.1749 47.2242 42.8941 47.7174L43.1919 47.9221C43.0374 48.3496 42.8009 48.7304 42.4656 49.0315C42.0644 49.3622 41.4256 49.2488 41.123 48.7748L41.1219 48.7728C40.8894 48.4119 40.9445 47.8433 41.3682 47.5067L41.3701 47.5047Z" fill="black" stroke="black"/>
<path d="M48.6264 40.9372C49.0166 40.5371 49.5809 40.5533 49.9333 40.9634L49.9334 40.9644L49.9394 40.9701C50.0909 41.1409 50.1903 41.4022 50.1884 41.6685C50.1865 41.9262 50.0917 42.1551 49.8975 42.3126C49.6255 42.5308 49.3194 42.6989 48.9943 42.8212L48.745 42.5331C48.4737 42.2197 48.3541 41.9067 48.3422 41.6426C48.3308 41.3862 48.4186 41.1456 48.6217 40.9432L48.6264 40.9372ZM44.9569 35.7235C45.1768 35.6974 45.4547 35.6872 45.7466 35.7016C46.039 35.716 46.3329 35.7546 46.5881 35.8199C46.8504 35.887 47.0355 35.9738 47.1429 36.0605L47.1519 36.068C47.2808 36.167 47.4053 36.2761 47.54 36.3962C47.6705 36.5125 47.8146 36.6424 47.9644 36.7616C48.2674 37.0026 48.6391 37.237 49.1216 37.3078L49.2805 37.3317L49.424 37.2574C50.5391 36.681 51.2447 36.7198 52.062 36.7719C52.7096 36.8131 53.4156 36.861 54.3429 36.6216C54.0907 37.1767 53.8026 37.6611 53.4562 38.0442C52.933 38.6229 52.2736 38.9782 51.3605 38.9885L48.6824 39.0111L48.5369 39.0151C47.8094 39.056 47.0926 39.4004 46.5745 39.9029C46.0194 40.4412 45.6367 41.2201 45.7889 42.0808C45.8185 42.2541 45.8753 42.4069 45.9512 42.5413C45.777 42.3272 45.6785 42.0185 45.6876 41.6684C45.73 40.4305 45.9021 39.8532 46.0045 39.3609C46.0582 39.1031 46.0982 38.844 46.0736 38.5393C46.0552 38.3132 46.0027 38.0791 45.9127 37.813L45.8102 37.5355C45.5308 36.8065 45.15 36.2361 44.9168 35.8634C44.888 35.8174 44.864 35.7758 44.8421 35.7394C44.8772 35.7338 44.9156 35.7284 44.9569 35.7235Z" fill="black" stroke="black"/>
<path d="M40.4324 53.0217C40.475 54.0174 40.4809 54.9081 40.3261 55.7376C40.1017 56.9399 39.538 58.002 38.1747 58.9695L38.1699 58.9725C37.7837 59.2529 37.3408 59.757 37.2523 60.3345L37.2513 60.3345L37.2497 60.3462C37.1714 60.956 37.1243 61.5541 37.0741 62.1165C37.0234 62.6848 36.9697 63.2212 36.8778 63.7358C36.803 64.1543 36.7005 64.5541 36.5595 64.9394L36.7412 55.6134C36.7654 55.594 36.8172 55.5582 36.9209 55.5078C37.0396 55.4502 37.1855 55.391 37.3709 55.3175C37.5505 55.2463 37.7597 55.1641 37.9794 55.0661C38.7434 54.7254 39.6601 54.1822 40.3356 53.0879L40.3817 53.1315L40.4324 53.0217Z" fill="black" stroke="black"/>
<path d="M66.1445 36.8835C65.6282 37.0599 65.076 37.1523 64.4785 37.1857L62.1356 37.2869C61.4322 37.3079 60.6424 37.5331 60.1253 38.2425C58.9831 39.7669 57.2245 40.5335 55.2354 40.3429L55.2334 40.3429L54.0884 40.236C55.4721 39.4725 56.323 38.2305 56.6577 36.7161L66.1445 36.8835Z" fill="black" stroke="black"/>
<path d="M43.2599 37.2477C43.435 37.8163 43.4879 38.5398 43.3909 39.2575C43.2902 40.0033 43.0394 40.6729 42.6749 41.1248L42.5128 41.3032C41.6554 42.1314 40.5195 42.3584 39.1764 42.2116L38.607 42.1492L38.6081 42.1873C38.595 42.1838 38.5815 42.1825 38.5688 42.1786C38.5219 42.1644 38.485 42.1485 38.4572 42.1358L38.5386 37.1521L43.2599 37.2477Z" fill="black" stroke="black"/>
<path d="M164.29 167.437C164.4 167.657 164.458 167.938 164.44 168.285C164.393 169.071 164.277 169.778 164.123 170.594C164.006 171.182 164.125 171.806 164.327 172.35C164.53 172.897 164.834 173.411 165.147 173.805L165.147 173.806C165.185 173.856 165.223 173.914 165.257 173.974C164.593 174.068 164.12 174.058 163.771 173.993C163.356 173.917 163.095 173.764 162.877 173.587C162.762 173.494 162.657 173.393 162.538 173.277C162.424 173.167 162.291 173.039 162.142 172.923C161.917 172.749 161.657 172.607 161.327 172.532L161.316 172.134L160.61 172.497C160.026 172.797 159.582 172.918 159.205 172.962C158.82 173.006 158.486 172.974 158.076 172.941C157.672 172.908 157.213 172.877 156.657 172.958C156.371 173 156.065 173.071 155.73 173.183C155.955 172.715 156.265 172.271 156.623 171.756L156.624 171.756C157.005 171.209 157.846 170.757 158.615 170.75L161.404 170.742L161.417 170.742C162.324 170.717 163.087 170.283 163.672 169.686C163.996 169.364 164.262 168.899 164.357 168.412C164.418 168.103 164.413 167.759 164.29 167.437ZM161.457 167.174C161.69 167.543 161.797 167.849 161.812 168.091C161.827 168.318 161.766 168.512 161.611 168.693L161.608 168.698C161.264 169.11 160.684 169.146 160.324 168.906C159.848 168.587 159.764 167.937 160.098 167.579C160.419 167.247 160.823 167.022 161.274 166.885L161.457 167.174Z" fill="black" stroke="black"/>
<path d="M172.964 156.171C172.689 157.103 172.716 157.814 172.736 158.466C172.761 159.28 172.774 159.983 172.146 161.084L172.063 161.228L172.084 161.394C172.145 161.878 172.364 162.253 172.593 162.563C172.705 162.715 172.829 162.864 172.939 162.998C173.052 163.136 173.157 163.265 173.251 163.4L173.251 163.401C173.329 163.513 173.405 163.705 173.46 163.975C173.514 164.237 173.542 164.538 173.546 164.834C173.55 165.13 173.53 165.41 173.497 165.63C173.496 165.639 173.494 165.647 173.492 165.655C173.459 165.634 173.422 165.611 173.381 165.583C173.017 165.337 172.462 164.938 171.744 164.632L171.743 164.632C171.359 164.468 171.046 164.373 170.747 164.338C170.443 164.303 170.183 164.334 169.924 164.378C169.431 164.462 168.851 164.611 167.61 164.612C167.401 164.605 167.209 164.563 167.043 164.494C167.082 164.506 167.122 164.517 167.164 164.526L167.165 164.527C168.02 164.713 168.816 164.366 169.378 163.831C169.937 163.299 170.321 162.533 170.354 161.75L170.476 159.086C170.527 158.166 170.908 157.514 171.505 157.01C171.901 156.675 172.397 156.402 172.964 156.171ZM167.763 160.117C168.034 160.122 168.286 160.229 168.439 160.384L168.446 160.391C168.837 160.773 168.826 161.35 168.421 161.729C168.201 161.929 167.961 162.004 167.715 161.983C167.458 161.961 167.153 161.83 166.84 161.541L166.562 161.284C166.697 160.959 166.88 160.652 167.112 160.38L167.113 160.381C167.265 160.205 167.498 160.112 167.763 160.117Z" fill="black" stroke="black"/>
<path d="M153.351 169.5C154.191 169.377 155.083 169.417 156.079 169.497C154.893 170.144 154.295 171.081 153.917 171.856C153.811 172.072 153.722 172.278 153.644 172.455C153.564 172.637 153.5 172.779 153.439 172.894C153.39 172.986 153.353 173.032 153.334 173.056L144.037 172.875C144.417 172.757 144.811 172.678 145.221 172.622C145.741 172.551 146.281 172.518 146.853 172.489C147.415 172.46 148.012 172.433 148.62 172.376L148.621 172.377C148.928 172.354 149.214 172.213 149.436 172.063C149.665 171.909 149.872 171.713 150.025 171.517L150.026 171.516C151.051 170.196 152.139 169.676 153.351 169.5Z" fill="black" stroke="black"/>
<path d="M172.958 153.921C171.425 154.181 170.13 155.01 169.32 156.383L169.25 155.207C169.145 153.169 169.964 151.452 171.535 150.373L171.545 150.367C172.245 149.863 172.498 149.126 172.559 148.399L172.761 146.066L172.761 146.065C172.811 145.458 172.924 144.891 173.128 144.366L172.958 153.921Z" fill="black" stroke="black"/>
<path d="M169.92 167.072C170.64 167.003 171.363 167.082 171.929 167.273L171.849 171.987L166.848 171.873C166.838 171.846 166.826 171.812 166.815 171.769C166.792 171.678 166.778 171.575 166.774 171.482C166.772 171.436 166.773 171.396 166.776 171.365C166.778 171.334 166.781 171.32 166.781 171.319L166.387 171.213L166.798 171.195L166.798 171.177L166.792 171.176L166.797 171.176C166.709 169.847 166.968 168.688 167.834 167.881L167.839 167.875C168.299 167.434 169.062 167.154 169.92 167.072Z" fill="black" stroke="black"/>
<path d="M100.051 20.597C100.284 20.6256 100.459 20.7249 100.602 20.9002C100.757 21.0895 100.89 21.3883 100.974 21.8268L101.043 22.1883C100.63 22.3829 100.192 22.4847 99.7375 22.4551C99.2569 22.4133 98.8695 21.8758 98.9897 21.3162L98.9906 21.3123C99.0722 20.92 99.4606 20.5837 99.9514 20.591L100.051 20.597ZM99.2101 14.2644C99.2238 14.3263 99.2331 14.3872 99.2345 14.4376L99.235 14.4572C99.2689 14.9685 99.393 15.5569 99.6177 16.1005C99.8398 16.6377 100.178 17.1713 100.666 17.527L100.667 17.528C101.109 17.8557 101.504 18.1578 101.89 18.4827L102.44 19.0028C102.758 19.3045 102.911 19.6178 102.942 19.9101C102.845 19.4857 102.566 19.1594 102.256 18.9376C101.852 18.6484 101.344 18.4915 100.908 18.4601L100.906 18.4602C100.056 18.403 99.2038 18.6063 98.5255 19.2336L96.4814 21.1211L96.4767 21.1261C95.9577 21.6186 95.111 21.8555 94.4595 21.7683L94.3319 21.7464C93.745 21.6223 93.2168 21.5023 92.7274 21.3113C93.0464 21.1652 93.3178 21.0108 93.5547 20.8477C94.0189 20.5283 94.3349 20.1921 94.6097 19.8923C94.888 19.5887 95.1113 19.3382 95.4242 19.1087C95.7299 18.8845 96.137 18.6701 96.7699 18.492L96.892 18.4573L96.9834 18.3698C97.3865 17.9787 97.5462 17.577 97.6117 17.1781C97.6421 16.9925 97.6523 16.8088 97.6605 16.6511C97.6692 16.4858 97.6767 16.3418 97.6977 16.1948C97.737 15.9191 97.8247 15.6282 98.0789 15.2874C98.2954 14.9973 98.6426 14.658 99.2101 14.2644Z" fill="black" stroke="black"/>
<path d="M109.881 21.1107C110.414 21.1094 110.815 21.5127 110.784 22.0723L110.784 22.0772C110.774 22.3081 110.661 22.565 110.472 22.7521C110.288 22.9337 110.06 23.0252 109.818 22.9959L109.817 22.996C109.477 22.9558 109.149 22.8607 108.84 22.7222L108.856 22.3085C108.874 21.8887 109.007 21.5959 109.178 21.4115C109.346 21.2315 109.582 21.1206 109.881 21.1107ZM110.923 14.7942C111.097 14.9328 111.302 15.1242 111.5 15.3438C111.698 15.5635 111.882 15.8011 112.019 16.0298C112.161 16.2651 112.233 16.4578 112.25 16.593L112.25 16.5949C112.27 16.7568 112.281 16.9216 112.29 17.1008C112.3 17.2745 112.309 17.4668 112.33 17.6566C112.373 18.0424 112.469 18.4666 112.749 18.8681L112.846 19.009L113.01 19.0601C114.215 19.4357 114.687 19.9609 115.226 20.5764C115.654 21.0659 116.119 21.6045 116.948 22.0956C116.38 22.308 115.835 22.4439 115.321 22.467C114.593 22.4998 113.917 22.3101 113.3 21.7611L113.178 21.6463L111.44 19.9234L111.431 19.6052L111.092 19.6146C110.557 19.1807 109.849 18.9445 109.169 18.9313C108.396 18.9164 107.571 19.1923 107.073 19.9088C106.988 20.0288 106.928 20.1523 106.886 20.2765C106.936 20.023 107.085 19.7631 107.316 19.5455L107.316 19.5445C108.223 18.6916 108.749 18.4018 109.165 18.1274C109.383 17.9835 109.593 17.8305 109.791 17.6001C109.988 17.372 110.153 17.0908 110.324 16.71L110.325 16.707C110.641 15.9878 110.771 15.3147 110.867 14.8856C110.876 14.8437 110.886 14.806 110.894 14.7715C110.904 14.7789 110.913 14.7863 110.923 14.7942Z" fill="black" stroke="black"/>
<path d="M91.0526 23.0804C91.0824 23.083 91.1444 23.093 91.2562 23.1314C91.3806 23.1741 91.5257 23.2357 91.7088 23.3152C91.8861 23.3921 92.0929 23.4831 92.3176 23.5699C93.1284 23.8829 94.2088 24.159 95.5275 23.8031C94.8374 24.5592 94.1992 25.2126 93.4866 25.7013C92.476 26.3944 91.324 26.7485 89.6794 26.4733L89.6726 26.4725L89.4786 26.4515C89.2793 26.4383 89.0685 26.4481 88.8659 26.4822C88.6002 26.527 88.309 26.6198 88.0704 26.7886L88.0627 26.7937L88.0551 26.7998C87.5706 27.1718 87.1147 27.5595 86.6814 27.9213C86.2435 28.287 85.826 28.629 85.3963 28.9291C85.0495 29.1713 84.6967 29.3811 84.3283 29.5537L91.0526 23.0804Z" fill="black" stroke="black"/>
<path d="M125.111 30.6356C124.738 30.4529 124.387 30.2216 124.048 29.948L123.71 29.6575L121.984 28.0768L121.985 28.0768C121.498 27.6161 120.844 27.2439 120.052 27.3157L119.899 27.3346C118.012 27.6136 116.241 26.9093 114.948 25.3501L114.946 25.3482L114.211 24.4689C115.735 24.9186 117.229 24.6288 118.515 23.7935L125.111 30.6356Z" fill="black" stroke="black"/>
<path d="M108.645 14.6829C108.367 15.2023 107.898 15.7486 107.326 16.1869C106.646 16.7082 105.892 17.0256 105.244 17.0224C104.064 17.0093 103.086 16.361 102.256 15.3156L102.1 15.1196L102.038 15.1213C102.031 15.1126 102.022 15.1044 102.014 15.0947C101.955 15.0213 101.894 14.9335 101.849 14.8472C101.825 14.8009 101.808 14.7618 101.797 14.7314L105.37 11.2627L108.645 14.6829Z" fill="black" stroke="black"/>
<path d="M112.747 189.084C113.308 188.567 114.239 188.319 114.897 188.457L114.898 188.458C115.494 188.582 116.019 188.701 116.506 188.892C116.188 189.039 115.918 189.194 115.682 189.357C115.221 189.676 114.906 190.012 114.632 190.311C114.355 190.614 114.13 190.865 113.816 191.095C113.508 191.319 113.097 191.533 112.459 191.712L112.513 192.074L112.281 191.834C111.878 192.226 111.717 192.628 111.652 193.028C111.621 193.214 111.612 193.398 111.604 193.557C111.595 193.723 111.588 193.867 111.567 194.015C111.527 194.292 111.44 194.584 111.186 194.923C110.971 195.21 110.628 195.541 110.07 195.927C110.051 195.855 110.036 195.781 110.025 195.712C109.988 195.214 109.861 194.64 109.64 194.108C109.416 193.57 109.078 193.031 108.598 192.675L108.115 192.313C107.648 191.958 107.223 191.612 106.789 191.201C106.467 190.897 106.312 190.575 106.284 190.275C106.283 190.265 106.283 190.254 106.282 190.243C106.373 190.685 106.658 191.026 106.976 191.257C107.376 191.548 107.879 191.712 108.32 191.744L108.322 191.744C109.167 191.801 110.044 191.6 110.709 190.964L110.708 190.963L112.747 189.084ZM109.49 187.748C109.95 187.787 110.321 188.269 110.26 188.776L110.241 188.878L110.239 188.892C110.157 189.284 109.768 189.62 109.277 189.613L109.178 189.607C108.769 189.557 108.422 189.239 108.254 188.375L108.183 188.013C108.596 187.82 109.037 187.719 109.49 187.748Z" fill="black" stroke="black"/>
<path d="M93.9499 187.711C94.7283 187.674 95.4421 187.892 96.082 188.534L96.084 188.537L97.9847 190.421L97.9857 190.422C98.5358 190.964 99.3372 191.261 100.106 191.276C100.829 191.29 101.597 191.053 102.108 190.442L102.206 190.315L102.209 190.312C102.311 190.168 102.378 190.019 102.418 189.871C102.389 190.143 102.237 190.43 101.973 190.669L101.966 190.675C101.06 191.528 100.535 191.812 100.119 192.085C99.8997 192.228 99.6894 192.382 99.4905 192.614C99.2946 192.843 99.1287 193.125 98.9594 193.508C98.6325 194.23 98.5026 194.905 98.4084 195.336C98.4013 195.369 98.3928 195.399 98.3865 195.427C98.3716 195.416 98.3554 195.404 98.3396 195.391C98.1659 195.252 97.9616 195.061 97.7635 194.841C97.5652 194.622 97.3818 194.384 97.2443 194.155C97.1029 193.92 97.0304 193.727 97.0137 193.592L97.0127 193.59L96.9882 193.342C96.9815 193.257 96.9758 193.171 96.9702 193.081C96.9594 192.906 96.9488 192.715 96.9265 192.526C96.8814 192.143 96.7869 191.723 96.5209 191.325L96.4221 191.178L96.2536 191.125L96.0357 191.053C94.9905 190.684 94.5489 190.187 94.0456 189.61C93.6174 189.119 93.1522 188.578 92.3171 188.087C92.8875 187.873 93.4348 187.736 93.9499 187.711ZM99.4698 187.224C99.8149 187.264 100.146 187.358 100.457 187.495L100.426 187.894C100.394 188.317 100.259 188.623 100.085 188.815C99.9187 189 99.6937 189.107 99.4049 189.109L99.3941 189.109C98.8708 189.124 98.4685 188.713 98.4972 188.155C98.5136 187.92 98.6323 187.663 98.8232 187.475C99.0088 187.293 99.235 187.201 99.4698 187.224Z" fill="black" stroke="black"/>
<path d="M118.199 187.116C118.168 187.112 118.106 187.102 118 187.065C117.876 187.021 117.731 186.959 117.549 186.88C117.371 186.803 117.165 186.712 116.94 186.626C116.127 186.314 115.042 186.042 113.716 186.4C114.406 185.646 115.046 184.997 115.758 184.51C116.769 183.818 117.922 183.464 119.567 183.731L119.572 183.732C119.818 183.769 120.101 183.771 120.374 183.728C120.643 183.685 120.943 183.592 121.189 183.404L121.19 183.403C121.675 183.031 122.129 182.643 122.561 182.281C122.998 181.915 123.414 181.574 123.843 181.274C124.192 181.029 124.548 180.816 124.921 180.642L118.199 187.116Z" fill="black" stroke="black"/>
<path d="M84.1495 179.547C84.6484 179.791 85.1129 180.129 85.5693 180.545L87.3006 182.131L87.3016 182.132C87.8268 182.61 88.5123 183.004 89.3755 182.868L89.3765 182.869C91.2695 182.605 93.041 183.295 94.3319 184.852L94.3329 184.854L95.0686 185.734C93.5493 185.301 92.0535 185.572 90.7643 186.408L84.1495 179.547Z" fill="black" stroke="black"/>
<path d="M104.016 193.198L104.019 193.198C105.197 193.21 106.177 193.874 107.011 194.908L107.166 195.101L107.234 195.099C107.241 195.107 107.25 195.115 107.258 195.124C107.317 195.194 107.377 195.279 107.422 195.364C107.447 195.411 107.463 195.45 107.474 195.481L103.892 198.957L100.614 195.534C100.892 195.003 101.367 194.453 101.942 194.015C102.624 193.496 103.377 193.187 104.016 193.198Z" fill="black" stroke="black"/>
<path d="M19.7833 92.2027C19.9578 92.6969 20.0577 93.225 20.1608 93.8355L20.1609 93.8364C20.267 94.5183 20.0044 95.4304 19.4659 95.9698L19.464 95.9718L17.515 97.9408C16.8608 98.5877 16.617 99.449 16.6578 100.285L16.6568 100.285C16.6693 100.734 16.8125 101.247 17.0907 101.66C17.1603 101.763 17.2412 101.863 17.3324 101.955C17.2789 101.906 17.2246 101.853 17.1716 101.795L17.0174 101.623L16.9422 101.625C16.4893 101.092 16.1145 100.573 15.7044 99.9703L15.7034 99.9694L15.5685 99.7914C15.236 99.3892 14.7796 99.0853 14.3169 98.8697C13.7843 98.6217 13.2007 98.4697 12.6886 98.4235L12.6896 98.4235C12.6403 98.4187 12.5796 98.4072 12.5167 98.3912C12.9187 97.8566 13.2621 97.5313 13.5541 97.3297C13.9027 97.0892 14.1976 97.0118 14.4774 96.9817C14.6264 96.9657 14.7718 96.9625 14.9389 96.9591C15.0984 96.9559 15.2835 96.9525 15.4714 96.9277C15.8744 96.8747 16.2834 96.727 16.6908 96.337L16.7822 96.2485L16.8208 96.1283C17.0215 95.5013 17.2505 95.1016 17.4855 94.8046C17.7261 94.5008 17.9848 94.2875 18.2981 94.022C18.6075 93.7599 18.9548 93.4576 19.2908 93.0077C19.4623 92.7782 19.6261 92.5144 19.7833 92.2027ZM19.6238 98.4566C20.1919 98.3582 20.7018 98.761 20.7156 99.2479C20.7285 99.7131 20.6041 100.159 20.385 100.573L20.0271 100.489C19.165 100.287 18.865 99.9137 18.8444 99.5187L18.8415 99.4123C18.8522 98.9387 19.1993 98.5479 19.6238 98.4566Z" fill="black" stroke="black"/>
<path d="M18.1956 106.248C18.049 106.283 17.9026 106.345 17.7594 106.44C17.0372 106.915 16.7249 107.72 16.7046 108.493C16.6844 109.264 16.9485 110.08 17.4751 110.663L17.6293 110.833L17.7338 110.831L19.3602 112.619L19.3622 112.621C19.9817 113.296 20.1689 114.022 20.1007 114.801C20.0557 115.314 19.8976 115.854 19.6649 116.414C19.2077 115.568 18.6897 115.085 18.2166 114.639C17.6207 114.077 17.11 113.588 16.7712 112.37L16.7256 112.204L16.588 112.102L16.4396 112.001C16.0924 111.784 15.7307 111.692 15.395 111.641C15.2065 111.612 15.0152 111.594 14.8413 111.577C14.662 111.56 14.4956 111.543 14.3316 111.516L14.3286 111.515C14.1908 111.493 14.0005 111.413 13.7716 111.263C13.5487 111.117 13.3193 110.925 13.1078 110.718C12.8967 110.511 12.7122 110.298 12.5782 110.117C12.5684 110.104 12.5598 110.09 12.5507 110.078C12.5855 110.071 12.6239 110.063 12.6664 110.055C13.0959 109.974 13.7648 109.863 14.495 109.557L14.496 109.558C14.8831 109.404 15.1707 109.248 15.4074 109.06C15.6462 108.869 15.8086 108.663 15.9609 108.448C16.2522 108.037 16.5581 107.52 17.4292 106.652L17.433 106.648C17.6642 106.413 17.9407 106.277 18.1956 106.248ZM20.1004 108.313L20.5113 108.301C20.6391 108.621 20.7209 108.96 20.7474 109.311C20.7807 109.803 20.3032 110.252 19.8103 110.253L19.8103 110.252L19.7986 110.253C19.2828 110.267 18.8976 109.895 18.8684 109.401L18.8676 109.301C18.8859 109.007 19.0046 108.779 19.1924 108.616C19.3865 108.449 19.6867 108.324 20.1004 108.313Z" fill="black" stroke="black"/>
<path d="M28.3322 84.1164C28.145 84.4816 27.919 84.8288 27.66 85.1696C27.3431 85.5867 26.9852 85.9915 26.6014 86.4162C26.2216 86.8367 25.8147 87.2786 25.4233 87.7532C25.23 87.9871 25.1283 88.2838 25.077 88.5463C25.0243 88.8156 25.0151 89.0993 25.0445 89.3463L25.0456 89.3531C25.2641 91.0074 24.8657 92.1425 24.1334 93.126C23.6156 93.8213 22.9365 94.4362 22.1533 95.1016C22.5697 93.7829 22.3343 92.6786 22.0493 91.8494C21.9709 91.6212 21.8881 91.4118 21.8172 91.2315C21.7441 91.0456 21.6873 90.8989 21.6482 90.7732C21.6166 90.6717 21.6061 90.6118 21.6028 90.58L28.3322 84.1164Z" fill="black" stroke="black"/>
<path d="M23.0013 114.51C24.5036 115.867 25.1443 117.666 24.7919 119.535L25.2829 119.628L24.7909 119.535L24.7893 119.546C24.6505 120.383 24.9844 121.088 25.4624 121.657L25.4654 121.66L26.9892 123.449C27.3788 123.915 27.6971 124.394 27.9225 124.903L21.3087 118.045C22.1994 116.772 22.5336 115.287 22.1547 113.751L23.0013 114.51Z" fill="black" stroke="black"/>
<path d="M12.9567 101.029C13.0413 101.078 13.1267 101.141 13.196 101.203C13.2731 101.271 13.2999 101.31 13.2976 101.306L13.3335 101.371L13.4138 101.447L13.4228 101.454C14.4374 102.332 15.0586 103.334 15.016 104.51L15.0161 104.514C14.998 105.153 14.6564 105.891 14.1076 106.554C13.6451 107.113 13.0732 107.57 12.5264 107.838L9.23726 104.433L12.8468 100.975C12.8761 100.987 12.913 101.004 12.9567 101.029Z" fill="black" stroke="black"/>
</svg>
