<svg width="209" height="209" viewBox="0 0 209 209" fill="none" xmlns="http://www.w3.org/2000/svg">
<path d="M172.396 37.6802L172.314 37.8799L172.427 38.0549C172.618 38.4061 173.019 38.6069 173.502 38.608C174.039 38.6252 174.495 38.3588 174.696 37.9581C174.93 37.5026 174.937 36.6613 174.723 36.1856C174.298 35.2699 173.456 34.7265 172.418 34.7268C172.168 34.7355 171.882 34.7454 171.634 34.8077C170.534 35.0786 170.275 35.857 170.167 36.344C169.088 35.6836 167.823 35.3159 166.588 35.3052C165.55 35.2876 164.556 35.5189 163.661 35.9974C162.395 36.6498 161.744 37.4598 161.143 38.1786C160.594 38.8419 160.147 39.3764 159.367 39.5824C159.207 39.6059 159.03 39.6478 158.868 39.6355C158.367 39.6351 157.912 39.4182 157.56 39.0726C157.041 38.5359 157.012 37.7138 157.459 37.215C157.58 37.0856 157.756 37.0079 157.936 37.0195C157.872 37.2365 157.807 37.4177 157.777 37.5977C157.716 37.904 157.798 38.1875 157.984 38.4136C158.247 38.7624 158.719 38.9429 159.059 38.9668C159.113 38.9649 159.149 38.9637 159.202 38.9618C159.847 38.9752 160.368 38.5276 160.594 37.8398C160.837 37.1155 160.506 36.3397 159.712 35.6336C159.213 35.1857 158.579 34.9572 157.935 34.9438C156.986 34.9231 156.091 35.4373 155.513 36.2806C155.479 36.3355 155.426 36.3552 155.39 36.3564C154.451 35.6017 153.58 35.2383 152.721 35.2324C152.076 35.219 151.457 35.4194 150.845 35.8165C150.6 35.9861 150.335 36.0669 150.12 36.0743C149.87 36.083 149.669 35.9647 149.483 35.7565C149.073 35.2697 148.599 35.0356 148.116 35.0345C147.669 35.05 147.281 35.2067 146.911 35.3627C146.595 35.5169 146.259 35.6359 145.884 35.6489C145.759 35.6711 145.582 35.731 145.448 35.9862C145.346 36.1507 145.233 36.4768 145.332 36.7597C145.45 37.0777 145.78 37.2988 146.052 37.3967C146.252 37.4793 146.432 37.5088 146.628 37.502C147.146 37.484 147.533 37.2737 147.847 37.0659C147.883 37.0647 147.918 37.0277 147.937 37.0628C147.972 37.0616 148.117 37.0924 148.4 37.512C148.739 38.0191 149.318 38.1959 149.788 38.3406C149.791 38.4121 149.847 38.4817 149.867 38.5526C149.966 38.8176 150.064 39.0647 150.197 39.2927C150.558 39.8886 151.468 40.3401 152.31 40.3645C152.955 40.3779 153.482 40.1269 153.77 39.6517C153.99 39.304 153.986 38.66 153.648 38.2243C153.556 38.1381 153.409 38.0179 153.14 38.0094C152.926 38.0168 152.696 38.0964 152.412 38.1778C152.323 38.1809 152.196 38.1138 152.102 37.9918C152.008 37.8698 151.969 37.7638 151.983 37.6559C152.044 37.3496 152.344 37.2318 152.611 37.2046C152.682 37.2021 152.754 37.1996 152.844 37.2323C153.766 37.4866 154.579 38.2278 155.062 39.2668C155.586 40.4296 156.365 41.2078 157.345 41.6032C157.743 41.7504 158.157 41.8255 158.57 41.8469C159.178 41.8437 159.817 41.7141 160.469 41.423L160.514 41.672C160.611 42.4202 160.781 43.6848 161.678 44.781C162.537 45.807 163.788 46.2824 164.765 46.6063C165.362 46.8003 166.072 47.1336 165.965 47.6562C165.915 47.7653 165.599 47.9374 165.442 48.0681L165.162 48.2389L165.227 48.5587C165.396 49.2865 166.123 49.6191 166.749 49.6153C166.928 49.6091 167.106 49.6029 167.283 49.543C168.097 49.2821 168.624 48.4943 168.539 47.6026C168.506 47.1742 168.365 46.7139 168.189 46.2905C168.891 45.8903 169.537 45.4384 169.92 44.6377C170.386 43.6373 170.399 42.4737 169.952 41.4514C169.505 40.429 168.655 39.6533 167.624 39.3313C167.407 39.2672 167.208 39.2204 166.976 39.2285C165.992 39.2269 164.96 39.8891 164.597 40.7785C164.4 41.2864 164.402 41.8411 164.614 42.299C164.807 42.686 165.139 42.9786 165.555 43.1073C165.736 43.1726 165.916 43.1843 166.095 43.1959C166.81 43.189 167.405 42.7925 167.651 42.1755C167.771 42.5114 167.808 43.0827 167.538 43.5395C167.233 44.0332 166.761 44.3359 166.209 44.4088C166.084 44.431 165.977 44.4169 165.869 44.4206C164.617 44.4105 163.551 43.6065 163.023 42.3185C162.532 41.0829 162.672 39.9507 163.441 38.9219C164.126 38.0392 165.165 37.5736 166.364 37.5856C167.778 37.608 169.214 38.256 170.218 39.3485C171.354 40.6153 171.937 41.9371 171.877 43.2992C171.826 44.3926 171.345 45.4829 170.618 46.1703L169.508 47.1752L170.682 48.5123C171.13 49.0336 171.677 49.8556 171.678 50.8935C171.682 51.5196 171.41 51.9406 170.813 52.2656C170.672 52.3242 170.513 52.3655 170.37 52.3705C170.12 52.3792 169.883 52.28 169.682 52.1439C170.091 52.076 170.231 51.9816 170.283 51.944C170.685 51.6616 170.749 50.9436 170.748 50.9258C170.777 50.209 170.4 49.6495 169.713 49.4586C169.533 49.4112 169.371 49.3989 169.192 49.3872C168.118 49.3709 167.2 50.2259 167.096 51.3569C166.963 52.6678 167.723 53.9477 168.997 54.5655C168.999 54.6013 168.983 54.6555 168.949 54.7104C167.943 56.6422 168.474 58.5205 170.297 59.4951C171.154 59.9485 171.49 60.3662 171.454 60.8685C171.459 60.9936 171.375 61.1576 171.292 61.3573C171.061 61.9022 170.728 62.6116 170.97 63.9095C171.038 64.3009 171.482 64.7328 171.722 64.9392C171.961 65.1277 171.928 65.2183 171.78 65.5814C171.648 65.9081 171.486 66.379 171.719 66.9077C171.933 67.3834 172.391 67.7075 172.875 67.7444L173.485 67.7947L173.375 67.1902C173.265 66.6035 173.368 66.4746 173.557 66.2712C173.782 66.0486 174.039 65.7176 174.033 65.0378C174.021 64.6982 173.776 64.331 173.299 63.9897C172.767 63.6323 172.675 63.0272 173.032 62.4958C173.729 61.4695 173.764 60.4125 173.123 59.4863C173.227 59.3754 173.349 59.2816 173.452 59.1707C173.902 58.7435 174.492 58.2219 174.421 57.2044C174.346 56.0796 173.326 55.0593 172.271 55.0602C172.146 55.0645 172.02 55.0689 171.897 55.109C171.454 55.2317 170.954 55.7859 170.972 56.3042L170.984 56.6438L171.959 56.8963C171.999 57.0023 172.021 57.1267 172.008 57.2703C172.011 57.3418 171.963 57.5046 171.822 57.581C171.717 57.6384 171.611 57.6778 171.485 57.6643C171.342 57.6693 171.161 57.604 171.016 57.5375C170.668 57.3169 170.583 56.9441 170.573 56.6581C170.545 55.8538 171.032 54.9422 171.731 54.4705C173.951 52.9797 174.528 50.5439 173.129 48.4093L172.448 47.3415C174.709 44.9724 174.144 41.6278 172.94 39.4149L172.826 39.2221C172.502 38.6607 171.775 37.3259 172.135 36.8661L172.26 36.8617C172.403 36.8568 172.548 36.9054 172.567 36.9405C172.641 37.0095 172.608 37.0823 172.476 37.409C172.426 37.5181 172.376 37.6093 172.343 37.6999L172.342 37.6641L172.396 37.6802Z" fill="black"/>
<path d="M172.252 170.986L172.174 170.792L172.275 170.61C172.477 170.262 172.864 170.07 173.347 170.071C173.885 170.088 174.34 170.323 174.552 170.745C174.783 171.22 174.776 172.044 174.559 172.499C174.127 173.426 173.286 173.939 172.23 173.922C171.98 173.93 171.71 173.886 171.439 173.824C170.338 173.54 170.095 172.743 170.006 172.245C168.92 172.891 167.662 173.239 166.409 173.229C165.371 173.212 164.379 172.978 163.467 172.49C162.227 171.818 161.572 170.999 160.975 170.286C160.432 169.59 160.002 169.068 159.207 168.845C159.044 168.797 158.882 168.767 158.721 168.772C158.22 168.772 157.761 168.949 157.38 169.302C156.844 169.822 156.802 170.664 157.248 171.15C157.36 171.271 157.541 171.354 157.703 171.366C157.642 171.154 157.599 170.958 157.557 170.781C157.511 170.478 157.572 170.19 157.779 169.95C158.07 169.582 158.512 169.441 158.851 169.412C158.905 169.41 158.94 169.409 158.994 169.407C159.639 169.42 160.154 169.85 160.376 170.558C160.598 171.266 160.268 172.065 159.45 172.737C158.947 173.184 158.311 173.403 157.667 173.408C156.718 173.387 155.824 172.899 155.276 172.041C155.256 171.988 155.184 171.973 155.166 171.974C154.225 172.704 153.344 173.075 152.484 173.051C151.84 173.038 151.225 172.844 150.637 172.417C150.381 172.247 150.128 172.167 149.913 172.156C149.662 172.165 149.45 172.244 149.279 172.447C148.848 172.927 148.391 173.157 147.89 173.157C147.443 173.172 147.079 172.97 146.697 172.805C146.37 172.655 146.061 172.523 145.667 172.501C145.54 172.469 145.376 172.385 145.243 172.157C145.166 171.981 145.046 171.645 145.145 171.391C145.26 171.101 145.591 170.857 145.874 170.758C146.068 170.679 146.264 170.655 146.443 170.648C146.961 170.63 147.346 170.903 147.657 171.107C147.693 171.106 147.712 171.141 147.73 171.14C147.766 171.139 147.908 171.116 148.198 170.713C148.557 170.217 149.106 170.055 149.619 169.912C149.653 169.857 149.668 169.767 149.701 169.694C149.8 169.44 149.898 169.186 150.051 168.948C150.423 168.345 151.339 167.919 152.198 167.925C152.842 167.939 153.37 168.189 153.637 168.68C153.847 169.049 153.852 169.693 153.49 170.099C153.405 170.21 153.229 170.305 152.961 170.314C152.747 170.322 152.511 170.223 152.239 170.125C152.149 170.128 152.009 170.204 151.923 170.315C151.838 170.425 151.788 170.534 151.792 170.641C151.838 170.944 152.147 171.094 152.415 171.085C152.487 171.082 152.558 171.08 152.629 171.042C153.568 170.794 154.384 170.068 154.867 169.049C155.416 167.885 156.213 167.124 157.202 166.767C157.591 166.628 158.017 166.542 158.447 166.545C159.055 166.542 159.686 166.699 160.323 166.999C160.338 166.926 160.353 166.836 160.35 166.747C160.467 165.991 160.655 164.732 161.566 163.663C162.443 162.648 163.697 162.175 164.688 161.89C165.29 161.708 166.012 161.379 165.904 160.846C165.847 160.74 165.536 160.536 165.372 160.453L165.097 160.265L165.175 159.941C165.346 159.219 166.069 158.907 166.713 158.903C166.892 158.897 167.089 158.926 167.235 158.992C168.049 159.25 168.561 160.073 168.467 160.971C168.41 161.403 168.283 161.855 168.102 162.29C168.778 162.696 169.438 163.157 169.806 163.967C170.271 164.989 170.258 166.134 169.775 167.171C169.31 168.189 168.46 168.953 167.397 169.258C167.185 169.319 166.97 169.326 166.756 169.352C165.772 169.35 164.747 168.67 164.411 167.769C164.214 167.257 164.213 166.702 164.448 166.265C164.649 165.864 164.979 165.584 165.404 165.462C165.581 165.42 165.777 165.395 165.956 165.389C166.671 165.382 167.258 165.791 167.495 166.427C167.627 166.101 167.661 165.545 167.393 165.053C167.108 164.562 166.649 164.238 166.074 164.168C165.966 164.154 165.859 164.158 165.715 164.145C164.463 164.135 163.363 164.907 162.817 166.196C162.288 167.431 162.417 168.554 163.186 169.583C163.844 170.473 164.88 170.956 166.097 170.967C167.511 170.99 168.956 170.349 169.973 169.258C171.146 168.018 171.726 166.692 171.696 165.315C171.694 164.241 171.208 163.131 170.486 162.44L169.413 161.422L170.619 160.091C171.084 159.592 171.627 158.75 171.663 157.729C171.677 157.102 171.412 156.682 170.81 156.363C170.665 156.296 170.52 156.247 170.377 156.252C170.127 156.261 169.879 156.341 169.687 156.473C170.101 156.548 170.248 156.651 170.303 156.702C170.706 156.975 170.732 157.707 170.751 157.725C170.776 158.457 170.384 159.008 169.692 159.175C169.514 159.199 169.337 159.241 169.175 159.229C168.101 159.212 167.212 158.349 167.102 157.243C166.984 155.923 167.781 154.66 169.048 154.062C169.046 154.008 169.045 153.972 169.007 153.92C168.027 151.968 168.606 150.104 170.434 149.182C171.296 148.758 171.656 148.334 171.622 147.852C171.599 147.728 171.557 147.55 171.462 147.375C171.247 146.845 170.917 146.123 171.176 144.826C171.252 144.429 171.684 144.021 171.946 143.815C172.189 143.627 172.151 143.557 172.03 143.168C171.911 142.814 171.733 142.355 171.984 141.845C172.219 141.389 172.672 141.069 173.154 141.035L173.762 141.014L173.639 141.591C173.517 142.185 173.646 142.306 173.796 142.516C174.002 142.759 174.281 143.071 174.252 143.77C174.247 144.128 173.972 144.46 173.483 144.799C172.959 145.157 172.854 145.752 173.177 146.277C173.857 147.309 173.859 148.383 173.228 149.282C173.321 149.386 173.433 149.507 173.544 149.611C174.006 150.042 174.562 150.577 174.489 151.582C174.403 152.695 173.348 153.715 172.327 153.697C172.202 153.702 172.058 153.671 171.949 153.639C171.534 153.528 171.012 152.938 171.031 152.436L171.018 152.079L172.012 151.847C172.012 151.847 172.075 151.612 172.052 151.47C172.05 151.398 172.009 151.239 171.88 151.154C171.771 151.104 171.663 151.072 171.538 151.076C171.395 151.081 171.235 151.123 171.077 151.2C170.708 151.391 170.614 151.77 170.607 152.075C170.563 152.864 171.043 153.813 171.74 154.29C173.94 155.824 174.473 158.275 173.043 160.365L172.329 161.428C174.56 163.837 173.943 167.169 172.696 169.36L172.578 169.561C172.258 170.127 171.481 171.442 171.837 171.895C171.837 171.895 171.892 171.929 171.962 171.891C172.105 171.886 172.247 171.845 172.281 171.808C172.35 171.734 172.33 171.663 172.193 171.328C172.135 171.223 172.096 171.117 172.057 171.029L172.126 170.955L172.252 170.986Z" fill="black"/>
<path d="M36.5716 38.1858L36.7712 38.2683L36.9462 38.1549C37.2973 37.9637 37.498 37.5631 37.4989 37.0799C37.5159 36.5424 37.2495 36.0864 36.8489 35.8856C36.3934 35.6509 35.5523 35.6443 35.0767 35.8577C34.1613 36.2832 33.6183 37.1252 33.6188 38.1631C33.6276 38.4134 33.6376 38.6993 33.6999 38.9477C33.971 40.0478 34.7494 40.307 35.2362 40.4154C34.5762 41.4941 34.209 42.7595 34.1986 43.9946C34.1812 45.0332 34.4128 46.0272 34.8914 46.9232C35.544 48.189 36.354 48.8409 37.0728 49.4422C37.7361 49.9918 38.2705 50.4385 38.4767 51.2187C38.5002 51.3789 38.5422 51.5564 38.53 51.7179C38.5296 52.219 38.3129 52.6739 37.9674 53.0259C37.431 53.5456 36.609 53.5742 36.1103 53.1262C35.9808 53.0055 35.9032 52.8292 35.9148 52.6499C36.1311 52.696 36.3301 52.7607 36.4922 52.7908C36.7984 52.8518 37.0819 52.7704 37.3079 52.5835C37.6565 52.3209 37.8368 51.8494 37.8607 51.5085C37.8588 51.4549 37.8576 51.4192 37.8557 51.3655C37.8689 50.7209 37.4213 50.1996 36.7335 49.9729C36.0094 49.7297 35.2338 50.0609 34.528 50.8549C34.0803 51.3536 33.8521 51.9878 33.8388 52.6325C33.8184 53.5817 34.3327 54.4764 35.1759 55.0556C35.2308 55.0895 35.2505 55.1424 35.2518 55.1782C34.4975 56.1171 34.1344 56.9886 34.1286 57.8478C34.1154 58.4925 34.316 59.1118 34.7131 59.7243C34.8827 59.969 34.9635 60.2346 34.971 60.4491C34.9798 60.6993 34.8616 60.9003 34.6534 61.0864C34.1668 61.497 33.9329 61.9704 33.932 62.4536C33.9476 62.9005 34.1043 63.2887 34.2604 63.6591C34.4146 63.9758 34.5337 64.3117 34.5469 64.687C34.5691 64.8115 34.6289 64.9884 34.8841 65.1227C35.0487 65.2243 35.3747 65.3383 35.6575 65.239C35.9754 65.1206 36.1964 64.7908 36.2942 64.5189C36.3767 64.3192 36.4062 64.1393 36.3993 63.9426C36.3812 63.4243 36.1709 63.0379 35.963 62.7231C35.9618 62.6873 35.9248 62.6528 35.9599 62.6337C35.9587 62.5979 35.9894 62.4537 36.4089 62.1707C36.9158 61.831 37.0924 61.2522 37.2369 60.7819C37.3084 60.7794 37.378 60.7233 37.4489 60.703C37.7138 60.6043 37.9608 60.5062 38.1887 60.373C38.7844 60.0123 39.2356 59.1019 39.2598 58.26C39.273 57.6153 39.022 57.0872 38.5467 56.7995C38.1991 56.5789 37.5552 56.5834 37.1197 56.9207C37.0335 57.0131 36.9134 57.1605 36.9049 57.4292C36.9125 57.6437 36.992 57.8735 37.0735 58.157C37.0766 58.2464 37.0096 58.374 36.8876 58.4677C36.7835 58.5608 36.6597 58.6009 36.5519 58.5867C36.2456 58.5258 36.1277 58.2257 36.1005 57.9582C36.098 57.8867 36.0955 57.8152 36.1281 57.7246C36.3821 56.8031 37.1229 55.99 38.1616 55.5066C39.324 54.983 40.1019 54.2044 40.497 53.2243C40.6441 52.8255 40.719 52.4113 40.7404 51.999C40.737 51.3907 40.6072 50.751 40.3161 50.099L40.565 50.0545C41.313 49.957 42.5773 49.7878 43.673 48.8907C44.6985 48.0319 45.1736 46.7807 45.4972 45.8031C45.691 45.2058 46.024 44.4963 46.5466 44.6034C46.6556 44.6533 46.8277 44.9695 46.9584 45.126L47.1293 45.4064L47.4491 45.3416C48.1767 45.1731 48.509 44.4458 48.505 43.8196C48.4988 43.6408 48.4925 43.4621 48.4327 43.2852C48.1716 42.4711 47.3838 41.9438 46.4923 42.0284C46.064 42.0612 45.6038 42.2025 45.1806 42.3782C44.7803 41.6764 44.3283 41.0299 43.5277 40.6462C42.5274 40.1799 41.364 40.1666 40.342 40.6137C39.32 41.0608 38.5446 41.9109 38.2229 42.9421C38.1589 43.1591 38.1122 43.3576 38.1203 43.5899C38.119 44.5742 38.7813 45.607 39.6706 45.9698C40.1785 46.1669 40.7331 46.1655 41.1908 45.9527C41.5776 45.7603 41.8702 45.4281 41.9987 45.012C42.064 44.8308 42.0756 44.6514 42.0872 44.4721C42.08 43.7565 41.6835 43.1619 41.0666 42.9149C41.4023 42.7959 41.9735 42.7581 42.4303 43.0286C42.924 43.3335 43.2268 43.8062 43.2998 44.3584C43.322 44.4829 43.3079 44.5907 43.3116 44.698C43.3018 45.9509 42.4983 47.0168 41.2107 47.5447C39.9755 48.035 38.8435 47.8954 37.8147 47.1259C36.932 46.4407 36.4662 45.4011 36.4779 44.2018C36.5 42.7873 37.1475 41.3511 38.2394 40.3468C39.5057 39.2112 40.8272 38.6284 42.189 38.6885C43.2821 38.74 44.3724 39.221 45.0598 39.9487L46.0648 41.0591L47.4013 39.8852C47.9223 39.4377 48.744 38.8901 49.7817 38.8899C50.4077 38.886 50.8287 39.1577 51.1538 39.7548C51.2124 39.896 51.2537 40.0556 51.2587 40.1986C51.2675 40.4488 51.1684 40.6849 51.0323 40.8864C50.9644 40.4772 50.87 40.3373 50.8324 40.285C50.55 39.8832 49.8321 39.8187 49.8142 39.8193C49.0976 39.7905 48.5383 40.1678 48.3476 40.8545C48.3003 41.0351 48.288 41.1966 48.2764 41.3759C48.2603 42.4502 49.1154 43.3689 50.2462 43.4727C51.5568 43.6061 52.8363 42.8459 53.4537 41.5718C53.4894 41.5705 53.5436 41.5865 53.5985 41.6204C55.5301 42.627 57.408 42.0965 58.3819 40.2731C58.8349 39.4163 59.2526 39.0797 59.7548 39.1159C59.8798 39.1116 60.0438 39.1954 60.2435 39.2779C60.7883 39.5095 61.4977 39.8427 62.7953 39.6008C63.1865 39.5335 63.6182 39.089 63.8245 38.8492C64.013 38.6101 64.1035 38.6427 64.4665 38.7911C64.7932 38.9229 65.2641 39.0855 65.7926 38.8524C66.2682 38.639 66.5921 38.1804 66.6288 37.696L66.679 37.0858L66.0746 37.1963C65.488 37.3061 65.3592 37.2033 65.1558 37.0135C64.9332 36.7886 64.6022 36.5317 63.9226 36.5374C63.583 36.5492 63.2159 36.7946 62.8748 37.2717C62.5177 37.8031 61.9126 37.8957 61.3813 37.5383C60.355 36.8403 59.2982 36.8055 58.3724 37.4461C58.2614 37.3425 58.1677 37.2205 58.0568 37.117C57.6295 36.6666 57.1079 36.0763 56.0906 36.1474C54.9661 36.2223 53.9462 37.242 53.9474 38.2977C53.9518 38.4229 53.9561 38.548 53.9963 38.6718C54.1191 39.1149 54.6734 39.6146 55.1916 39.5966L55.5311 39.5848L55.7832 38.6097C55.8891 38.5703 56.0136 38.548 56.1572 38.5609C56.2287 38.5585 56.3913 38.6065 56.4678 38.747C56.5252 38.8524 56.5647 38.9584 56.5512 39.0841C56.5562 39.2271 56.491 39.4083 56.4245 39.5538C56.2041 39.9014 55.8314 39.986 55.5455 39.9959C54.7413 40.0239 53.8297 39.5366 53.358 38.8372C51.8669 36.6163 49.4314 36.0389 47.2977 37.4372L46.2302 38.1186C43.8611 35.8566 40.5173 36.4202 38.3052 37.6245L38.1124 37.7385C37.5512 38.0623 36.2169 38.7886 35.7571 38.4288L35.7527 38.3037C35.7477 38.1607 35.7963 38.0159 35.8314 37.9968C35.9004 37.9228 35.9732 37.956 36.2998 38.0879C36.4089 38.1377 36.5001 38.1883 36.5907 38.2209L36.5549 38.2221L36.5716 38.1858Z" fill="black"/>
<path d="M37.8835 171.674L38.0776 171.596L38.26 171.697C38.6071 171.899 38.7995 172.286 38.7985 172.77C38.7815 173.307 38.547 173.762 38.125 173.974C37.65 174.205 36.8268 174.198 36.372 173.981C35.4444 173.548 34.9319 172.707 34.9487 171.651C34.9399 171.4 34.9841 171.13 35.0462 170.86C35.3297 169.758 36.1263 169.516 36.6241 169.427C35.9778 168.34 35.6297 167.082 35.6395 165.829C35.6568 164.79 35.8905 163.798 36.3774 162.886C37.0496 161.646 37.8676 160.991 38.5802 160.394C39.2768 159.851 39.7985 159.421 40.0211 158.626C40.0691 158.463 40.0992 158.301 40.0936 158.14C40.0939 157.639 39.9169 157.18 39.5636 156.799C39.0439 156.262 38.2016 156.22 37.7162 156.666C37.5949 156.777 37.5118 156.959 37.4996 157.121C37.7127 157.078 37.908 157.035 38.0855 156.993C38.388 156.947 38.6764 157.008 38.9162 157.215C39.2842 157.506 39.425 157.949 39.4547 158.288C39.4566 158.341 39.4578 158.377 39.4597 158.431C39.4465 159.075 39.0172 159.591 38.3094 159.813C37.6015 160.034 36.8028 159.704 36.1301 158.886C35.6831 158.383 35.464 157.746 35.4594 157.102C35.4798 156.153 35.9674 155.259 36.8249 154.711C36.8778 154.691 36.8932 154.619 36.8926 154.601C36.1619 153.66 35.7911 152.778 35.8147 151.918C35.828 151.274 36.0211 150.658 36.4478 150.071C36.6177 149.815 36.6983 149.561 36.7087 149.346C36.6999 149.096 36.621 148.884 36.4182 148.712C35.9379 148.281 35.7073 147.824 35.7076 147.323C35.692 146.876 35.8939 146.511 36.0595 146.13C36.209 145.802 36.3414 145.494 36.3633 145.099C36.3947 144.973 36.4784 144.809 36.7063 144.676C36.8825 144.598 37.2183 144.479 37.4722 144.577C37.7625 144.693 38.0066 145.024 38.106 145.307C38.1844 145.501 38.2091 145.697 38.2153 145.876C38.2335 146.394 37.9607 146.779 37.7569 147.091C37.7582 147.126 37.7231 147.146 37.7237 147.163C37.7249 147.199 37.7478 147.342 38.1515 147.632C38.6471 147.99 38.8095 148.539 38.9527 149.053C39.0076 149.087 39.0975 149.102 39.1702 149.135C39.4242 149.234 39.6781 149.332 39.916 149.485C40.5194 149.858 40.9451 150.774 40.9393 151.633C40.9261 152.277 40.6762 152.805 40.1846 153.073C39.8163 153.282 39.1724 153.287 38.7661 152.925C38.6558 152.84 38.5602 152.664 38.5508 152.396C38.5433 152.181 38.6424 151.945 38.7402 151.673C38.7371 151.584 38.6606 151.444 38.5503 151.358C38.44 151.272 38.3308 151.222 38.2236 151.226C37.9211 151.272 37.7709 151.582 37.7803 151.85C37.7828 151.921 37.7853 151.993 37.8235 152.063C38.0711 153.003 38.7974 153.819 39.8162 154.302C40.9804 154.852 41.7418 155.649 42.0985 156.639C42.2373 157.028 42.3238 157.454 42.3209 157.884C42.3243 158.492 42.1676 159.124 41.8678 159.761C41.9399 159.776 42.0299 159.791 42.1192 159.788C42.8747 159.905 44.1337 160.093 45.2032 161.005C46.2179 161.882 46.6911 163.136 46.9763 164.128C47.1584 164.73 47.4878 165.453 48.0208 165.345C48.1261 165.287 48.3299 164.976 48.4136 164.812L48.6008 164.537L48.9255 164.615C49.6472 164.787 49.9587 165.51 49.9634 166.154C49.9696 166.333 49.9408 166.531 49.8743 166.676C49.6166 167.49 48.7936 168.002 47.8958 167.908C47.4644 167.851 47.0127 167.724 46.5769 167.542C46.1712 168.219 45.7113 168.879 44.9012 169.247C43.8798 169.712 42.7343 169.698 41.6976 169.215C40.6795 168.749 39.9162 167.899 39.6106 166.836C39.5495 166.623 39.5421 166.409 39.5167 166.195C39.518 165.211 40.1978 164.185 41.0984 163.849C41.6104 163.653 42.1649 163.651 42.6026 163.887C43.0032 164.088 43.2831 164.418 43.4053 164.843C43.4473 165.02 43.472 165.216 43.4783 165.395C43.4854 166.111 43.0766 166.698 42.4408 166.934C42.7675 167.066 43.3233 167.101 43.8148 166.833C44.3058 166.548 44.6297 166.089 44.699 165.514C44.7131 165.406 44.7094 165.299 44.7223 165.155C44.7321 163.902 43.9601 162.802 42.6707 162.256C41.4356 161.726 40.313 161.855 39.2844 162.624C38.395 163.281 37.9124 164.318 37.9013 165.535C37.8792 166.95 38.5202 168.395 39.6114 169.413C40.8511 170.587 42.1774 171.167 43.5539 171.137C44.6273 171.135 45.7374 170.649 46.4278 169.928L47.4458 168.854L48.7761 170.061C49.2755 170.526 50.1175 171.07 51.1385 171.106C51.7652 171.12 52.1853 170.855 52.5042 170.253C52.5706 170.108 52.6192 169.963 52.6142 169.82C52.6055 169.57 52.5252 169.322 52.3933 169.13C52.3183 169.544 52.2161 169.691 52.1644 169.746C51.8922 170.149 51.1596 170.175 51.1423 170.193C50.4097 170.219 49.8593 169.826 49.6919 169.134C49.6678 168.956 49.6258 168.778 49.6381 168.617C49.6541 167.543 50.5176 166.654 51.6229 166.544C52.9427 166.426 54.2051 167.224 54.8041 168.491C54.8577 168.489 54.8934 168.488 54.9458 168.45C56.8973 167.47 58.7603 168.049 59.6831 169.878C60.1068 170.741 60.5309 171.102 61.0128 171.067C61.1372 171.045 61.3147 171.003 61.4903 170.907C62.0195 170.692 62.7414 170.363 64.0386 170.622C64.4349 170.698 64.8436 171.131 65.0495 171.392C65.237 171.636 65.3072 171.598 65.6966 171.477C66.0502 171.357 66.5092 171.18 67.0189 171.431C67.4744 171.666 67.7944 172.12 67.8291 172.602L67.8504 173.209L67.2736 173.086C66.6789 172.964 66.5582 173.093 66.3488 173.244C66.1055 173.449 65.7933 173.728 65.0945 173.699C64.7365 173.693 64.4048 173.419 64.0657 172.929C63.7074 172.405 63.1134 172.3 62.5879 172.623C61.5562 173.303 60.4828 173.304 59.5841 172.673C59.48 172.767 59.3587 172.878 59.2552 172.989C58.8241 173.451 58.2889 174.007 57.2845 173.934C56.1723 173.848 55.1513 172.792 55.1693 171.771C55.1649 171.646 55.1957 171.502 55.2276 171.393C55.3383 170.978 55.9284 170.456 56.43 170.475L56.7873 170.462L57.0189 171.456C57.0189 171.456 57.2537 171.52 57.396 171.497C57.4675 171.494 57.627 171.453 57.712 171.325C57.7619 171.216 57.7939 171.107 57.7895 170.982C57.7845 170.839 57.7431 170.68 57.666 170.521C57.4742 170.152 57.0952 170.058 56.7908 170.051C56.0021 170.006 55.0528 170.487 54.5762 171.183C53.043 173.384 50.5928 173.916 48.5032 172.486L47.4405 171.771C45.0318 174.002 41.7004 173.384 39.5098 172.136L39.3089 172.018C38.7431 171.698 37.4278 170.92 36.9751 171.276C36.9751 171.276 36.9412 171.331 36.9794 171.401C36.9844 171.544 37.0252 171.686 37.0622 171.72C37.1362 171.789 37.207 171.769 37.5421 171.632C37.6475 171.575 37.7534 171.535 37.8415 171.496L37.9155 171.565L37.8835 171.674Z" fill="black"/>
<path d="M198.485 103.858L198.292 103.954L198.227 104.153C198.115 104.515 198.255 104.958 198.571 105.304C198.961 105.702 199.449 105.847 199.891 105.688C200.386 105.528 200.992 104.952 201.154 104.463C201.514 103.52 201.284 102.562 200.56 101.8C200.374 101.609 200.172 101.455 199.934 101.302C198.965 100.71 198.227 101.075 197.807 101.358C197.514 100.134 196.883 98.9749 196.012 98.0926C195.27 97.3489 194.41 96.8062 193.434 96.5001C192.095 96.0814 191.043 96.1716 190.116 96.2575C189.26 96.341 188.564 96.4009 187.87 95.9777C187.724 95.8933 187.595 95.7904 187.483 95.6691C187.149 95.3049 186.954 94.8464 186.953 94.3275C186.946 93.5941 187.532 92.9653 188.211 92.9417C188.39 92.9355 188.553 93.0014 188.683 93.1401C188.508 93.2535 188.314 93.3318 188.174 93.4262C187.93 93.5957 187.778 93.8515 187.734 94.1393C187.66 94.5893 187.89 95.0286 188.097 95.3077C188.116 95.3429 188.171 95.3946 188.19 95.4119C188.635 95.8617 189.336 95.9447 189.985 95.6C190.653 95.2547 190.984 94.4916 190.911 93.4205C190.87 92.7599 190.616 92.1424 190.134 91.676C189.467 91.0013 188.473 90.7138 187.496 90.9088C187.424 90.9112 187.389 90.9125 187.369 90.8774C187.256 89.6824 186.885 88.8006 186.292 88.1949C185.847 87.7451 185.263 87.4254 184.561 87.2888C184.272 87.2272 184.036 87.1102 183.851 86.9555C183.666 86.783 183.605 86.5526 183.613 86.2838C183.662 85.638 183.502 85.1425 183.168 84.7962C182.853 84.4851 182.454 84.3379 182.091 84.1895C181.764 84.0576 181.438 83.9437 181.161 83.6849C181.051 83.6172 180.869 83.534 180.622 83.6142C180.444 83.6383 180.11 83.8109 179.994 84.0834C179.861 84.3743 179.911 84.7841 180.028 85.0485C180.124 85.242 180.219 85.3997 180.349 85.5205C180.701 85.884 181.17 85.993 181.531 86.0699C181.566 86.0687 181.585 86.1038 181.603 86.1032C181.603 86.1032 181.716 86.2424 181.626 86.7466C181.522 87.3586 181.79 87.8682 182.021 88.3254C181.987 88.3803 181.955 88.4709 181.921 88.5258C181.822 88.7618 181.705 89.0164 181.643 89.287C181.47 89.9551 181.79 90.9281 182.402 91.5332C182.847 92.0008 183.39 92.1788 183.94 92.0523C184.349 91.9665 184.815 91.503 184.867 90.9464C184.863 90.8213 184.856 90.6247 184.67 90.4165C184.522 90.2606 184.303 90.1429 184.048 90.0086C183.974 89.9396 183.934 89.8158 183.946 89.6543C183.941 89.5292 184.008 89.4016 184.113 89.3264C184.376 89.1562 184.666 89.2714 184.869 89.4612C184.907 89.5135 184.962 89.5653 185.018 89.6349C185.495 90.4773 185.551 91.5669 185.123 92.6375C184.664 93.8345 184.65 94.9444 185.094 95.8952C185.269 96.2828 185.496 96.6328 185.811 96.944C186.237 97.3586 186.768 97.716 187.439 97.9789C187.387 98.0344 187.336 98.1078 187.284 98.1633C186.823 98.7698 186.035 99.7814 185.923 101.181C185.791 102.528 186.353 103.743 186.832 104.657C187.138 105.219 187.378 105.944 186.941 106.245C186.834 106.249 186.475 106.208 186.276 106.143L185.951 106.065L185.764 106.358C185.357 106.981 185.634 107.74 186.097 108.189C186.227 108.328 186.374 108.43 186.52 108.515C187.267 108.918 188.209 108.725 188.792 108.024C189.084 107.674 189.285 107.273 189.485 106.855C190.261 107.061 191.036 107.213 191.884 106.915C192.926 106.539 193.756 105.722 194.167 104.67C194.56 103.654 194.519 102.475 194.021 101.526C193.907 101.333 193.793 101.14 193.626 100.985C192.922 100.276 191.732 100.031 190.869 100.401C190.358 100.615 189.978 101.022 189.816 101.493C189.67 101.91 189.702 102.338 189.913 102.724C189.99 102.901 190.12 103.039 190.251 103.178C190.751 103.679 191.454 103.816 192.071 103.562C191.903 103.89 191.542 104.314 191.028 104.439C190.461 104.584 189.92 104.478 189.478 104.117C189.387 104.049 189.312 103.962 189.22 103.894C188.349 103.011 188.141 101.677 188.686 100.387C189.197 99.1525 190.121 98.4405 191.385 98.2891C192.471 98.144 193.558 98.5357 194.394 99.4193C195.378 100.441 195.948 101.906 195.874 103.376C195.791 105.079 195.248 106.422 194.26 107.351C193.481 108.094 192.352 108.527 191.348 108.472L189.879 108.416L189.763 110.209C189.715 110.891 189.517 111.864 188.791 112.605C188.36 113.05 187.863 113.156 187.229 112.946C187.067 112.898 186.956 112.812 186.845 112.709C186.66 112.518 186.562 112.289 186.519 112.076C186.85 112.333 187.029 112.344 187.102 112.378C187.57 112.469 188.126 111.984 188.126 111.984C188.663 111.5 188.783 110.816 188.421 110.202C188.344 110.044 188.214 109.905 188.102 109.784C187.342 109.023 186.106 108.977 185.218 109.669C184.192 110.492 183.832 111.954 184.289 113.281C184.254 113.282 184.202 113.337 184.148 113.339C182.078 114.002 181.118 115.699 181.724 117.664C182.006 118.585 181.971 119.123 181.589 119.441C181.503 119.533 181.325 119.575 181.114 119.672C180.567 119.888 179.825 120.164 179.093 121.227C178.855 121.558 178.876 122.165 178.905 122.486C178.916 122.79 178.881 122.827 178.493 122.984C178.176 123.138 177.719 123.351 177.505 123.895C177.326 124.384 177.416 124.936 177.715 125.301L178.107 125.753L178.465 125.257C178.824 124.762 178.984 124.756 179.234 124.73C179.538 124.719 179.966 124.704 180.449 124.186C180.691 123.945 180.766 123.513 180.656 122.927C180.544 122.304 180.885 121.809 181.507 121.698C182.734 121.477 183.513 120.734 183.689 119.636C183.832 119.631 183.975 119.626 184.154 119.638C184.781 119.67 185.569 119.696 186.223 118.94C186.944 118.091 186.965 116.641 186.224 115.915C186.132 115.829 186.021 115.743 185.929 115.675C185.546 115.456 184.778 115.5 184.434 115.87L184.192 116.129L184.705 116.988C184.705 116.988 184.569 117.19 184.465 117.283C184.413 117.32 184.273 117.415 184.111 117.385C184.003 117.37 183.893 117.303 183.8 117.199C183.689 117.095 183.612 116.937 183.553 116.778C183.449 116.37 183.652 116.041 183.86 115.836C184.394 115.245 185.403 114.96 186.232 115.11C188.844 115.627 190.98 114.301 191.519 111.813L191.797 110.568C195.068 110.49 197.047 107.737 197.749 105.315L197.812 105.08C197.988 104.466 198.402 103.002 198.989 102.928C198.989 102.928 199.044 102.962 199.099 102.996C199.21 103.099 199.251 103.241 199.252 103.277C199.255 103.366 199.185 103.422 198.832 103.542C198.726 103.581 198.62 103.621 198.532 103.677L198.481 103.733L198.485 103.858Z" fill="black"/>
<path d="M105.211 9.51099L105.11 9.69346L104.915 9.73603C104.526 9.85694 104.109 9.71036 103.775 9.38193C103.386 8.98386 103.243 8.48773 103.407 8.05253C103.569 7.56372 104.157 6.9885 104.652 6.81025C105.606 6.47285 106.58 6.70743 107.304 7.4518C107.49 7.64221 107.658 7.85111 107.791 8.07913C108.362 9.06146 107.976 9.79071 107.704 10.1939C108.932 10.5091 110.082 11.1671 110.954 12.0495C111.696 12.7933 112.209 13.6702 112.494 14.6446C112.899 16.0085 112.775 17.0508 112.664 17.9673C112.569 18.8297 112.485 19.5126 112.904 20.2318C112.981 20.3902 113.075 20.5122 113.222 20.6323C113.557 20.9965 114.029 21.177 114.547 21.1768C115.281 21.1871 115.906 20.6286 115.936 19.9475C115.929 19.7687 115.87 19.5918 115.758 19.4705C115.639 19.6535 115.556 19.8354 115.454 19.9821C115.284 20.2386 115.038 20.3724 114.717 20.4014C114.272 20.4706 113.835 20.2531 113.577 20.0294C113.54 19.9949 113.503 19.9604 113.467 19.9438C113.021 19.494 112.944 18.8166 113.315 18.1595C113.667 17.4851 114.462 17.189 115.52 17.2775C116.185 17.3439 116.784 17.6094 117.247 18.0586C117.915 18.7333 118.182 19.7262 117.967 20.718C117.968 20.7716 117.97 20.8252 117.989 20.8425C119.193 20.9975 120.064 21.3431 120.658 21.9667C121.103 22.4165 121.393 23.0328 121.525 23.7261C121.571 24.0288 121.687 24.2574 121.853 24.4127C122.038 24.5852 122.256 24.6671 122.524 24.6578C123.149 24.6182 123.637 24.7802 124.008 25.1431C124.323 25.4543 124.462 25.8432 124.601 26.2499C124.738 26.5852 124.839 26.9038 125.1 27.199C125.175 27.3038 125.235 27.4807 125.155 27.7519C125.107 27.9325 124.957 28.2419 124.676 28.377C124.393 28.4942 123.98 28.437 123.707 28.3033C123.524 28.2022 123.36 28.1006 123.23 27.9619C122.877 27.5984 122.772 27.1546 122.687 26.7817C122.686 26.746 122.685 26.7102 122.649 26.6936C122.649 26.6936 122.501 26.5735 122.003 26.6624C121.399 26.7728 120.888 26.4864 120.432 26.2338C120.36 26.2363 120.291 26.2924 120.22 26.3306C119.956 26.4293 119.709 26.5452 119.461 26.6075C118.769 26.7748 117.809 26.4323 117.233 25.826C116.787 25.3583 116.607 24.8276 116.749 24.2679C116.86 23.8704 117.309 23.3895 117.845 23.3708C117.969 23.3486 118.185 23.3769 118.353 23.5858C118.502 23.7417 118.617 23.9525 118.733 24.2169C118.807 24.2859 118.934 24.3352 119.076 24.3123C119.219 24.2895 119.343 24.2494 119.393 24.1581C119.563 23.9017 119.463 23.6009 119.26 23.4112C119.222 23.3588 119.149 23.3076 119.094 23.2737C118.254 22.784 117.16 22.7146 116.099 23.0915C114.898 23.5269 113.788 23.5118 112.843 23.0794C112.461 22.8958 112.112 22.6574 111.815 22.3456C111.389 21.9309 111.047 21.3701 110.809 20.6983C110.74 20.7544 110.687 20.792 110.618 20.8481C110.007 21.2988 108.961 22.0689 107.569 22.171C106.23 22.2712 105.012 21.7051 104.1 21.2178C103.553 20.9147 102.809 20.6363 102.503 21.0764C102.471 21.1849 102.555 21.5399 102.58 21.7359L102.644 22.0558L102.382 22.226C101.734 22.6243 101.008 22.3274 100.563 21.8776C100.433 21.7389 100.32 21.5818 100.243 21.4413C99.8405 20.6679 100.059 19.7476 100.754 19.1686C101.084 18.8887 101.506 18.6772 101.93 18.5014C101.742 17.7384 101.589 16.9384 101.899 16.1044C102.293 15.0707 103.123 14.2544 104.165 13.8603C105.207 13.4662 106.336 13.5343 107.303 14.0555C107.485 14.1565 107.668 14.2754 107.835 14.4486C108.54 15.1578 108.761 16.3492 108.397 17.2208C108.182 17.7115 107.766 18.1017 107.307 18.2609C106.881 18.383 106.451 18.3622 106.086 18.1601C105.922 18.0585 105.775 17.9562 105.645 17.8175C105.144 17.316 105.03 16.6041 105.277 16.0049C104.961 16.1591 104.508 16.5149 104.383 17.0203C104.223 17.5806 104.35 18.131 104.688 18.5845C104.763 18.6893 104.837 18.7583 104.912 18.8452C105.783 19.7276 107.133 19.9491 108.403 19.4397C109.639 18.9494 110.376 18.0468 110.547 16.7882C110.706 15.691 110.328 14.6125 109.475 13.7652C108.491 12.7436 107.004 12.1689 105.539 12.2198C103.823 12.2794 102.499 12.7907 101.532 13.7728C100.772 14.5509 100.327 15.658 100.345 16.6774L100.397 18.161L98.5927 18.2416C97.8957 18.2658 96.9542 18.4596 96.1739 19.1668C95.7236 19.594 95.6161 20.0988 95.7994 20.7367C95.8408 20.8963 95.9166 21.019 96.0282 21.1404C96.2138 21.3308 96.4499 21.4299 96.6662 21.4761C96.4214 21.1267 96.3978 20.9665 96.3775 20.8956C96.2891 20.4155 96.7714 19.8797 96.7714 19.8797C97.2536 19.344 97.948 19.2483 98.5509 19.6031C98.6969 19.6875 98.8443 19.8077 98.9559 19.9291C99.7161 20.6901 99.7413 21.924 99.0208 22.8081C98.1796 23.8216 96.7242 24.1585 95.3837 23.6861C95.3492 23.7231 95.3505 23.7588 95.3172 23.8316C94.6201 25.8959 92.8995 26.8326 90.9624 26.1841C90.0577 25.8934 89.5037 25.9127 89.1945 26.2813C89.1083 26.3738 89.0431 26.5551 88.96 26.7369C88.7458 27.2633 88.4504 28.0252 87.3663 28.7429C87.0342 28.9692 86.4254 28.9546 86.1018 28.9122C85.7968 28.887 85.7623 28.924 85.5974 29.3234C85.43 29.6513 85.249 30.105 84.6656 30.3043C84.1887 30.4819 83.6125 30.3767 83.2617 30.0667L82.8006 29.6711L83.3075 29.3314C83.8145 28.9916 83.8268 28.8302 83.8352 28.5614C83.8597 28.2384 83.8811 27.8261 84.4009 27.3427C84.6615 27.1189 85.07 27.0331 85.6647 27.1556C86.2951 27.2769 86.8027 26.955 86.9232 26.3066C87.1672 25.0991 87.9278 24.3389 89.0135 24.1759C89.0085 24.0329 89.0035 23.8899 88.9972 23.7112C88.9747 23.0677 88.9472 22.2812 89.748 21.645C90.5992 20.9174 92.0492 20.9386 92.773 21.683C92.8655 21.7693 92.9407 21.874 93.0166 21.9967C93.2269 22.3831 93.1817 23.1363 92.8189 23.5068L92.5405 23.7312L91.6991 23.2057C91.5932 23.2452 91.4884 23.3204 91.3856 23.4492C91.3338 23.5047 91.2495 23.6508 91.2902 23.7926C91.294 23.8998 91.3698 24.0224 91.4617 24.0908C91.5727 24.1944 91.7187 24.2788 91.8636 24.3274C92.2432 24.4395 92.5937 24.2305 92.8019 24.0443C93.4099 23.522 93.715 22.5272 93.5599 21.6735C93.0915 19.0233 94.4498 16.936 96.9372 16.4379L98.1818 16.2157C98.2991 12.9188 101.094 10.9962 103.523 10.3392L103.754 10.2954C104.374 10.1128 105.845 9.72162 105.932 9.14592C105.932 9.14592 105.93 9.09229 105.857 9.04115C105.746 8.93763 105.619 8.88836 105.583 8.87173C105.493 8.87483 105.441 8.93032 105.328 9.27427C105.296 9.38276 105.246 9.49187 105.195 9.56523L105.194 9.52948L105.211 9.51099Z" fill="black"/>
<path d="M105.47 198.085L105.571 197.903L105.766 197.86C106.155 197.739 106.572 197.886 106.906 198.214C107.295 198.612 107.438 199.109 107.274 199.544C107.112 200.033 106.524 200.608 106.029 200.786C105.075 201.123 104.101 200.889 103.377 200.145C103.191 199.954 103.023 199.745 102.89 199.517C102.319 198.535 102.705 197.806 102.977 197.402C101.749 197.087 100.599 196.429 99.7271 195.547C98.9854 194.803 98.4716 193.926 98.187 192.952C97.7815 191.588 97.9061 190.546 98.0171 189.629C98.1122 188.767 98.1957 188.084 97.7769 187.365C97.6998 187.206 97.6061 187.084 97.4587 186.964C97.1239 186.6 96.6524 186.419 96.1336 186.419C95.3996 186.409 94.775 186.968 94.7452 187.649C94.7515 187.828 94.8114 188.004 94.923 188.126C95.0418 187.943 95.1249 187.761 95.2271 187.614C95.397 187.358 95.6428 187.224 95.9639 187.195C96.4087 187.126 96.8457 187.343 97.1041 187.567C97.141 187.601 97.178 187.636 97.2144 187.653C97.6595 188.102 97.7369 188.78 97.3663 189.437C97.0142 190.111 96.2194 190.407 95.1607 190.319C94.4964 190.252 93.8967 189.987 93.4336 189.538C92.7659 188.863 92.4986 187.87 92.7144 186.878C92.7125 186.825 92.7107 186.771 92.6922 186.754C91.488 186.599 90.6171 186.253 90.0227 185.63C89.5776 185.18 89.2876 184.564 89.156 183.87C89.1097 183.568 88.9943 183.339 88.8279 183.184C88.6429 183.011 88.4253 182.929 88.1573 182.939C87.5324 182.978 87.0437 182.816 86.6732 182.453C86.3582 182.142 86.2193 181.753 86.0798 181.346C85.9429 181.011 85.8423 180.692 85.5814 180.397C85.5062 180.293 85.4463 180.116 85.5263 179.844C85.5736 179.664 85.7239 179.354 86.0054 179.219C86.2876 179.102 86.7011 179.159 86.9741 179.293C87.1566 179.394 87.3212 179.496 87.4513 179.634C87.8039 179.998 87.9089 180.442 87.9935 180.815C87.9948 180.85 87.996 180.886 88.0324 180.903C88.0324 180.903 88.1797 181.023 88.6776 180.934C89.282 180.823 89.793 181.11 90.2492 181.363C90.3206 181.36 90.3902 181.304 90.4605 181.266C90.7254 181.167 90.9718 181.051 91.2201 180.989C91.912 180.822 92.8723 181.164 93.4482 181.77C93.8939 182.238 94.0735 182.769 93.9321 183.328C93.8207 183.726 93.3724 184.207 92.8363 184.225C92.7118 184.248 92.4961 184.219 92.3278 184.01C92.1792 183.855 92.0645 183.644 91.9479 183.379C91.8739 183.31 91.7469 183.261 91.6046 183.284C91.4623 183.307 91.3384 183.347 91.288 183.438C91.118 183.695 91.218 183.995 91.4214 184.185C91.4591 184.238 91.5324 184.289 91.5873 184.323C92.4274 184.812 93.5212 184.882 94.5815 184.505C95.7829 184.069 96.8928 184.085 97.8383 184.517C98.2204 184.701 98.5687 184.939 98.8659 185.251C99.2919 185.665 99.6336 186.226 99.8718 186.898L100.063 186.748C100.674 186.297 101.72 185.527 103.112 185.425C104.451 185.325 105.669 185.891 106.581 186.379C107.128 186.682 107.872 186.96 108.178 186.52C108.21 186.411 108.126 186.056 108.101 185.86L108.037 185.541L108.299 185.37C108.947 184.972 109.673 185.269 110.118 185.719C110.248 185.857 110.361 186.015 110.438 186.155C110.84 186.928 110.622 187.849 109.927 188.428C109.597 188.708 109.175 188.919 108.751 189.095C108.939 189.858 109.092 190.658 108.782 191.492C108.388 192.526 107.558 193.342 106.516 193.736C105.474 194.13 104.345 194.062 103.378 193.541C103.196 193.44 103.013 193.321 102.846 193.148C102.141 192.439 101.92 191.247 102.284 190.376C102.499 189.885 102.915 189.495 103.374 189.335C103.799 189.213 104.23 189.234 104.595 189.436C104.759 189.538 104.906 189.64 105.036 189.779C105.537 190.28 105.651 190.992 105.403 191.591C105.72 191.437 106.173 191.081 106.298 190.576C106.458 190.016 106.331 189.465 105.993 189.012C105.918 188.907 105.844 188.838 105.769 188.751C104.898 187.869 103.548 187.647 102.278 188.157C101.042 188.647 100.304 189.549 100.134 190.808C99.9754 191.905 100.353 192.984 101.206 193.831C102.19 194.853 103.677 195.427 105.142 195.377C106.858 195.317 108.182 194.806 109.149 193.823C109.909 193.045 110.354 191.938 110.336 190.919L110.284 189.435L112.088 189.355C112.785 189.331 113.727 189.137 114.507 188.43C114.957 188.002 115.065 187.497 114.882 186.86C114.84 186.7 114.764 186.577 114.653 186.456C114.467 186.266 114.231 186.166 114.015 186.12C114.26 186.47 114.283 186.63 114.303 186.701C114.392 187.181 113.91 187.717 113.91 187.717C113.427 188.252 112.733 188.348 112.13 187.993C111.984 187.909 111.837 187.789 111.725 187.667C110.965 186.906 110.94 185.672 111.66 184.788C112.501 183.775 113.957 183.438 115.297 183.91C115.332 183.873 115.33 183.837 115.364 183.765C116.061 181.7 117.781 180.764 119.719 181.412C120.623 181.703 121.177 181.684 121.486 181.315C121.573 181.223 121.638 181.041 121.721 180.859C121.935 180.333 122.231 179.571 123.315 178.853C123.647 178.627 124.256 178.642 124.579 178.684C124.884 178.709 124.919 178.672 125.084 178.273C125.251 177.945 125.432 177.491 126.015 177.292C126.492 177.114 127.069 177.22 127.419 177.53L127.88 177.925L127.373 178.265C126.866 178.605 126.854 178.766 126.846 179.035C126.821 179.358 126.8 179.77 126.28 180.254C126.02 180.477 125.611 180.563 125.016 180.441C124.386 180.319 123.878 180.641 123.758 181.29C123.514 182.497 122.753 183.257 121.667 183.42C121.672 183.563 121.677 183.706 121.684 183.885C121.706 184.529 121.734 185.315 120.933 185.951C120.082 186.679 118.632 186.658 117.908 185.913C117.815 185.827 117.74 185.722 117.664 185.6C117.454 185.213 117.499 184.46 117.862 184.09L118.14 183.865L118.982 184.391C119.088 184.351 119.193 184.276 119.295 184.147C119.347 184.092 119.431 183.946 119.391 183.804C119.387 183.697 119.311 183.574 119.219 183.505C119.108 183.402 118.962 183.318 118.817 183.269C118.438 183.157 118.087 183.366 117.879 183.552C117.271 184.074 116.966 185.069 117.121 185.923C117.59 188.573 116.231 190.66 113.744 191.158L112.499 191.381C112.382 194.678 109.586 196.6 107.158 197.257L106.927 197.301C106.307 197.484 104.836 197.875 104.749 198.45C104.749 198.45 104.751 198.504 104.824 198.555C104.935 198.659 105.062 198.708 105.098 198.725C105.188 198.721 105.239 198.666 105.353 198.322C105.385 198.214 105.435 198.104 105.486 198.031L105.487 198.067L105.47 198.085Z" fill="black"/>
<path d="M9.1427 103.294L9.33609 103.198L9.40069 102.999C9.51325 102.637 9.37258 102.194 9.05634 101.847C8.66676 101.449 8.17871 101.305 7.73704 101.464C7.24178 101.624 6.6358 102.2 6.47402 102.689C6.11346 103.632 6.34376 104.59 7.06808 105.352C7.25362 105.543 7.45578 105.697 7.69367 105.849C8.66249 106.442 9.40102 106.076 9.82045 105.793C10.1137 107.018 10.7446 108.177 11.6162 109.059C12.3578 109.803 13.2175 110.346 14.1942 110.652C15.5326 111.071 16.5849 110.98 17.5121 110.894C18.3678 110.811 19.0634 110.751 19.7579 111.174C19.904 111.259 20.0328 111.361 20.1444 111.483C20.4791 111.847 20.6741 112.305 20.6743 112.824C20.6821 113.558 20.0959 114.187 19.4169 114.21C19.2383 114.216 19.075 114.15 18.9449 114.012C19.1198 113.898 19.3139 113.82 19.4537 113.726C19.6982 113.556 19.8502 113.3 19.8938 113.013C19.9675 112.563 19.7375 112.123 19.5309 111.844C19.5118 111.809 19.4563 111.757 19.4379 111.74C18.9928 111.29 18.2922 111.207 17.6424 111.552C16.9747 111.897 16.6437 112.66 16.7169 113.731C16.7579 114.392 17.0121 115.009 17.4935 115.476C18.1611 116.151 19.155 116.438 20.132 116.243C20.2035 116.241 20.2392 116.239 20.2584 116.275C20.3717 117.469 20.7425 118.351 21.3361 118.957C21.7812 119.407 22.3647 119.726 23.0672 119.863C23.3555 119.925 23.5922 120.042 23.7765 120.196C23.9614 120.369 24.0232 120.599 24.0147 120.868C23.9657 121.514 24.1262 122.009 24.4603 122.356C24.7752 122.667 25.1739 122.814 25.5369 122.962C25.8635 123.094 26.1895 123.208 26.4669 123.467C26.5766 123.535 26.7584 123.618 27.006 123.538C27.184 123.514 27.5178 123.341 27.6335 123.069C27.7665 122.778 27.7163 122.368 27.5998 122.103C27.5036 121.91 27.4086 121.752 27.2792 121.631C26.9266 121.268 26.4577 121.159 26.0972 121.082C26.0615 121.083 26.0424 121.048 26.0245 121.049C26.0245 121.049 25.9123 120.909 26.002 120.405C26.1058 119.793 25.8375 119.284 25.6069 118.826C25.6407 118.772 25.6733 118.681 25.7072 118.626C25.8062 118.39 25.9226 118.136 25.9847 117.865C26.1581 117.197 25.8378 116.224 25.2263 115.619C24.7806 115.151 24.2377 114.973 23.6876 115.1C23.2792 115.185 22.8124 115.649 22.7603 116.205C22.7647 116.331 22.7716 116.527 22.9578 116.735C23.1063 116.891 23.3251 117.009 23.5802 117.143C23.6542 117.212 23.6943 117.336 23.6821 117.498C23.6865 117.623 23.6194 117.75 23.5147 117.826C23.2523 117.996 22.962 117.881 22.7586 117.691C22.721 117.638 22.6656 117.587 22.6095 117.517C22.1328 116.675 22.0768 115.585 22.5044 114.514C22.9634 113.317 22.9782 112.207 22.5335 111.257C22.359 110.869 22.132 110.519 21.8171 110.208C21.3911 109.793 20.8599 109.436 20.1888 109.173C20.2405 109.117 20.2916 109.044 20.3433 108.989C20.8051 108.382 21.5926 107.371 21.7046 105.971C21.8364 104.624 21.2751 103.409 20.7959 102.495C20.4901 101.933 20.25 101.208 20.6867 100.906C20.7939 100.903 21.1531 100.944 21.3521 101.009L21.6768 101.087L21.8634 100.794C22.2709 100.171 21.9939 99.4116 21.531 98.9624C21.4009 98.8238 21.2542 98.7215 21.1082 98.6371C20.3606 98.2336 19.4193 98.4274 18.8356 99.1277C18.5438 99.4778 18.3431 99.8784 18.1431 100.297C17.3667 100.091 16.5922 99.9393 15.7439 100.237C14.7017 100.613 13.8716 101.43 13.4612 102.482C13.0674 103.497 13.1086 104.677 13.6069 105.626C13.721 105.819 13.8351 106.012 14.0016 106.167C14.7061 106.876 15.8953 107.121 16.7589 106.751C17.2702 106.537 17.6495 106.13 17.8119 105.659C17.9583 105.242 17.9254 104.814 17.7152 104.427C17.6374 104.251 17.5074 104.113 17.3773 103.974C16.8768 103.472 16.1743 103.336 15.5571 103.59C15.7245 103.262 16.0854 102.838 16.5997 102.713C17.1671 102.568 17.7075 102.674 18.1494 103.035C18.2413 103.103 18.3158 103.19 18.4077 103.258C19.2793 104.141 19.487 105.475 18.9418 106.765C18.4305 107.999 17.5072 108.711 16.2425 108.863C15.1563 109.008 14.0693 108.616 13.2334 107.733C12.2496 106.711 11.6796 105.246 11.7534 103.776C11.8369 102.073 12.3802 100.73 13.3674 99.8008C14.1464 99.058 15.2761 98.6251 16.2798 98.6797L17.7486 98.736L17.8647 96.9425C17.9125 96.2609 18.1109 95.2877 18.8363 94.5467C19.268 94.1022 19.7652 93.9955 20.3986 94.2061C20.5613 94.2541 20.6716 94.3398 20.7826 94.4433C20.9681 94.6337 21.0656 94.8629 21.1088 95.0761C20.7778 94.8192 20.5985 94.8076 20.5258 94.7743C20.0575 94.6832 19.502 95.1678 19.502 95.1678C18.9644 95.6517 18.8453 96.3358 19.2066 96.9496C19.2837 97.1079 19.4138 97.2466 19.5253 97.3679C20.2854 98.1289 21.5213 98.1754 22.4094 97.4824C23.436 96.6594 23.7963 95.1975 23.3385 93.8713C23.3742 93.8701 23.4259 93.8146 23.4795 93.8127C25.5493 93.1503 26.5096 91.4528 25.9042 89.4875C25.6215 88.5669 25.6564 88.0288 26.0388 87.7113C26.125 87.6189 26.3024 87.5769 26.5137 87.4801C27.0607 87.2643 27.8023 86.988 28.5344 85.9247C28.7732 85.5943 28.752 84.9866 28.7229 84.6655C28.7122 84.3617 28.7467 84.3247 29.1348 84.168C29.4514 84.0139 29.909 83.8012 30.1225 83.2569C30.3022 82.7675 30.2114 82.216 29.9124 81.8506L29.5209 81.3989L29.1626 81.8945C28.8042 82.3901 28.6434 82.3957 28.3939 82.4223C28.0902 82.4328 27.6614 82.4477 27.1787 82.9655C26.9367 83.2066 26.8623 83.6386 26.9723 84.2253C27.0835 84.8477 26.743 85.3427 26.1208 85.4538C24.8943 85.6754 24.1153 86.4182 23.939 87.5159C23.7961 87.5209 23.6532 87.5258 23.4739 87.5142C22.8467 87.4823 22.0586 87.456 21.4053 88.2124C20.6837 89.0606 20.6629 90.5107 21.4038 91.2365C21.4963 91.3228 21.6066 91.4084 21.6984 91.4768C22.0818 91.6961 22.8494 91.6515 23.1942 91.2817L23.4356 91.0228L22.9226 90.1638C22.9226 90.1638 23.0586 89.9622 23.1627 89.8691C23.2151 89.8315 23.3548 89.7372 23.5169 89.7673C23.6247 89.7815 23.7344 89.8493 23.8275 89.9534C23.9385 90.0569 24.0156 90.2153 24.0748 90.3742C24.1785 90.7822 23.9754 91.1114 23.7679 91.3154C23.234 91.9066 22.2244 92.1922 21.3962 92.042C18.7843 91.5244 16.6483 92.8512 16.1092 95.3394L15.8308 96.5837C12.5599 96.6616 10.5812 99.4145 9.87882 101.837L9.81547 102.072C9.64019 102.686 9.22628 104.15 8.63856 104.224C8.63856 104.224 8.58371 104.19 8.52886 104.156C8.41791 104.053 8.3772 103.911 8.37594 103.875C8.37282 103.786 8.44239 103.73 8.79598 103.61C8.90193 103.571 9.0079 103.531 9.09536 103.474L9.14708 103.419L9.1427 103.294Z" fill="black"/>
</svg>
