<svg width="300" height="301" viewBox="0 0 300 301" fill="none" xmlns="http://www.w3.org/2000/svg">
<path d="M217.345 178.168L245 150.487L217.345 122.806V83.6814H178.194L150.513 56L122.832 83.6814H83.6814V122.806L56 150.487L83.6814 178.168V217.319H122.832L150.513 245L178.194 217.319H217.345V178.168Z" fill="#B4B4B4"/>
<path d="M89.738 88.7379L125.512 88.5931L89.5932 124.512L89.738 88.7379Z" fill="black"/>
<path d="M89.738 213.491L125.512 213.636L89.5932 177.717L89.738 213.491Z" fill="black"/>
<path d="M236.592 150.328L211.398 124.929V175.727L236.592 150.328Z" fill="black"/>
<path d="M64 150.328L89.194 124.929V175.727L64 150.328Z" fill="black"/>
<path d="M211.72 88.7381L175.946 88.5934L211.865 124.513L211.72 88.7381Z" fill="black"/>
<path d="M150.328 238.592L175.727 213.398H124.929L150.328 238.592Z" fill="black"/>
<path d="M151.328 64L125.929 89.194H176.727L151.328 64Z" fill="black"/>
<path d="M211.72 213.491L175.946 213.636L211.865 177.717L211.72 213.491Z" fill="black"/>
</svg>
