<svg width="300" height="301" viewBox="0 0 300 301" fill="none" xmlns="http://www.w3.org/2000/svg">
<path d="M150.276 55.0441L55.1401 150.293L150.276 245.541L245.413 150.293L150.276 55.0441Z" fill="#B4B4B4"/>
<path d="M198.27 54.2174H102.307V246.356H198.27V54.2174Z" fill="#B4B4B4"/>
<path d="M108.439 60.7378L144.213 60.593L108.294 96.5122L108.439 60.7378Z" fill="black"/>
<path d="M108.439 240.595L144.213 240.74L108.294 204.821L108.439 240.595Z" fill="black"/>
<path d="M233.925 150.344L208.731 124.945V175.743L233.925 150.344Z" fill="black"/>
<path d="M65.9644 150.344L91.1584 124.945V175.743L65.9644 150.344Z" fill="black"/>
<path d="M192.381 60.7378L156.606 60.593L192.525 96.5122L192.381 60.7378Z" fill="black"/>
<path d="M192.381 240.595L156.606 240.74L192.525 204.821L192.381 240.595Z" fill="black"/>
</svg>
