<svg width="41" height="40" viewBox="0 0 41 40" fill="none" xmlns="http://www.w3.org/2000/svg">
<path d="M22.8483 12.33C21.8483 15.08 22.0283 16.21 19.4583 17.61L17.4683 18.69C17.1683 18.85 16.9983 19.37 17.1583 19.66L18.1283 21.45C17.4283 22.4 16.8483 22.94 15.8983 22.75C13.6683 22.31 14.7083 19.9 14.1283 18.49L12.6683 17.82C11.2583 17.17 10.4283 16.28 10.0283 14.74C9.73831 13.61 9.20831 12.27 9.71831 11.09C11.2083 7.62003 11.1183 6.90001 8.60831 4.07001C8.00831 3.39001 8.27831 2.41003 4.39831 3.03003C3.50831 3.17003 2.67831 4.25999 2.74831 5.10999C2.79831 5.74999 3.46831 6.33999 3.91831 6.35999C5.46831 6.43999 6.00831 4.85001 6.84831 5.88C7.02831 6.1 7.22831 6.62 7.28831 7C7.50831 8.22 6.85831 9.39002 5.65831 9.83002C4.94831 10.09 3.37831 10.12 2.67831 9.81C1.79831 8.94 0.808306 7.93001 0.268306 6.88C-0.121694 6.12 -0.06169 4.21999 0.28831 3.42999C0.70831 2.46999 1.90831 1.49001 2.84831 1.01001C4.13831 0.35001 5.69831 0.300024 7.13831 0.400024C7.90831 0.450024 8.61831 0.95001 9.24831 1.26001C10.3783 1.82001 10.9983 2.67002 11.5383 3.71002L12.2083 5.01001L12.9383 7.79999C13.8583 7.83999 14.7483 7.75999 15.5683 7.87C17.9083 8.18999 18.9083 10.7 18.0783 12.67C17.6783 13.62 17.1383 14.02 15.9883 14.02C15.6183 14.02 14.8883 13.75 14.6683 13.38C14.0983 12.45 16.1783 11.05 14.2283 10.9C13.4083 10.84 12.9883 11.3 12.7083 11.96C11.9183 13.8 13.3983 15.04 15.0183 16.02C15.4983 16.31 16.8183 16.3 17.3383 16.08C18.7083 15.51 19.9883 14.19 20.3683 12.8C20.7283 11.47 19.6783 10.24 19.5483 9.08002C19.4183 7.92002 19.2383 7.54 18.3483 7C16.4183 5.84 15.5383 3.63998 14.2283 1.91998C13.7083 1.22998 12.3783 1.25004 12.2983 0.0400391L32.1683 0.0200195L34.0483 1.25L35.3983 0L40.0583 0.0800171V4.85004C39.7283 5.17004 38.9983 5.75999 38.9383 6.12C38.8283 6.79999 39.7083 7.61003 40.0883 8.16003L40.1083 28.14C37.7983 25.12 34.7683 24.45 33.1583 22.23C32.6283 21.5 32.5483 21.09 31.5983 20.92C30.0383 20.65 28.3683 19.63 26.6483 20.31C25.7283 20.67 24.3883 22.19 24.0883 23.12C23.6483 24.51 24.7383 25.71 25.4783 26.61C26.4183 27.75 28.1083 27.42 28.7583 26.74C29.0583 26.43 29.2383 25.64 29.0883 25.27L26.7683 25.47C26.3383 25.04 26.2883 23.87 26.4883 23.18C26.6483 22.65 27.3783 21.9 27.9983 21.75C29.3083 21.44 30.1483 21.96 31.0183 22.67C33.2583 24.51 31.9683 25.65 32.6483 27.49C34.5283 27.26 35.8083 28 37.2283 28.89C38.4583 29.66 39.0083 30.66 39.5483 31.99C40.2183 33.65 40.4683 35.21 39.3983 36.82C38.9083 37.56 38.6283 39.08 37.3583 39.22C35.9683 39.36 33.8883 39.33 32.4583 39.31C32.5683 39.31 29.8383 38.32 30.0583 35.53C30.1883 33.86 31.6983 32.45 33.4383 32.66C33.7683 32.7 34.3583 33.21 34.4583 33.5C34.6883 34.24 32.8383 35.92 33.9083 36.83C35.0383 37.79 36.5083 37.01 37.0683 35.85C37.5083 34.92 37.7483 33.9 37.0683 32.94C34.6383 29.52 33.5283 29.08 29.5483 30.32C27.5183 30.95 25.2083 30.25 23.4183 29.16C21.9883 28.29 22.6183 25.79 20.2283 26.05C18.9283 26.19 17.8383 25.75 17.4883 24.49C17.2483 23.63 17.8683 22.19 18.9683 22.07C19.5583 22.55 20.7083 23.46 21.4783 22.79C22.2483 20.68 23.6783 18.5 26.0383 17.95L27.8083 17.53C26.7283 15.48 27.4783 13.7 28.7483 12.1C29.6583 10.95 30.3883 10.28 32.0283 10.3C33.5483 10.32 35.8083 10.62 35.8983 12.76L36.0283 15.93C36.0483 16.4 37.5983 16.23 37.6483 15.68C37.8183 13.65 37.7283 11.65 37.2983 9.72003C36.7683 7.30003 34.0183 8.14002 32.5183 7.83002L32.2383 4.89001C29.8783 2.59001 27.2683 1.70999 24.1183 2.35999C23.7183 2.43999 23.4383 3.46999 23.6383 3.79999C24.4283 5.11999 25.6983 2.91999 28.3483 4.73999C29.2383 5.35999 29.9883 6.91003 30.0483 8.09003C29.9283 9.94003 28.7783 11.17 27.2383 12.15C25.9183 13 24.2383 12.61 22.8583 12.29L22.8483 12.33ZM35.7483 4.66998C36.9183 4.22998 38.6383 3.15003 38.6283 1.84003C38.6283 1.64003 37.8583 1.63001 37.7083 1.76001L36.1183 3.10999C35.7183 3.44999 35.5683 4.13998 35.7483 4.66998ZM29.9083 14.14C28.7783 16.89 31.5483 18.67 33.7683 19.18C36.2783 20.67 35.1683 22.4 37.7083 21.73L37.6883 18.41L35.0183 18.28C34.0883 15.86 31.6883 18.6 31.2383 15.66C30.9883 14.02 32.8483 14.29 33.5683 13.56C33.7083 13.42 33.1783 12.86 32.8983 12.82C31.8883 12.68 30.2383 13.33 29.9183 14.13L29.9083 14.14ZM18.4883 2.98999C18.0683 5.57999 21.2183 3.86003 21.7983 7.72003C22.0483 9.37003 23.1683 10.46 24.8083 10.49C25.7383 10.51 26.2183 10.15 26.7883 9.41998C27.2883 8.76998 27.5183 7.43 27.0483 6.94C26.8483 6.76 26.0083 6.92 25.9583 7.19L25.7283 8.48999C25.6283 9.03999 24.6983 9.28001 24.0683 9.07001C23.4983 8.88001 23.1283 8.15002 22.9583 7.46002L22.3883 5.12C22.2183 4.94 21.5683 4.73001 21.5883 4.51001L21.7583 2.90002L18.4783 3L18.4883 2.98999Z" fill="black"/>
</svg>
