<svg width="43" height="42" viewBox="0 0 43 42" fill="none" xmlns="http://www.w3.org/2000/svg">
<path d="M40.4101 17.2192C40.4201 14.8892 43.23 15.6892 42.14 10.6092C41.85 10.4592 41.3 10.7593 41 11.0193C40.08 11.7893 38.55 12.5293 37.31 12.3193C36.23 12.1293 35.2601 11.9893 34.1801 11.9493C32.7501 11.8893 31.7201 12.6492 31.5301 14.0992C31.3201 15.7792 31.58 17.6192 32.89 18.8092C33.72 19.5592 35.05 19.2792 35.64 18.3692C36.13 17.6092 36.0201 16.4893 35.2201 15.8193C34.4701 15.1993 33.5001 15.3093 32.4201 16.0093C32.2601 15.3393 32.34 14.2893 32.84 13.7493C33.58 12.9493 34.9101 13.3992 35.6001 14.0492C36.3201 14.7092 36.81 15.5592 36.83 16.5492L36.9101 20.2292C36.9401 21.4392 37.66 22.7392 38.58 23.3692C39.69 24.1192 40.6801 24.7792 42.0401 25.0292C40.0301 21.1692 42.1801 20.5493 40.4101 17.2493V17.2192Z" fill="black"/>
<path d="M31.18 0.249284C30.69 -0.080716 28.0699 -0.180709 27.0699 0.569291C26.2999 1.14929 25.6999 1.89927 24.7399 2.04927C21.5099 0.289272 20.4499 2.20928 16.8199 0.559282C17.6799 3.20928 18.9899 5.4493 21.7999 5.5193L25.3199 5.60927C26.9999 5.64927 28.7699 7.23929 28.4399 8.93929C28.2199 10.0893 26.5599 10.2893 25.6499 10.0093C26.5499 9.01929 26.6099 7.84925 25.8399 7.02925C25.0799 6.22925 23.8899 6.22927 23.1199 7.04927C22.4599 7.74927 22.3599 9.06929 23.2099 9.75929C24.7199 10.9993 26.83 11.2793 28.67 10.5693C29.5 10.2493 29.87 9.32927 29.86 8.48927C29.81 5.08927 28.97 5.20926 29.74 3.28926C30.46 1.49926 31.65 0.559274 31.18 0.239274V0.249284Z" fill="black"/>
<path d="M36.2201 22.6693C36.0401 22.2393 35.7601 21.8492 35.4101 21.4692C35.1301 25.7892 34.5401 29.2293 38.3601 32.0693C38.7801 32.3893 39.22 32.9393 39.27 33.4493C39.62 36.5993 39.3001 39.4892 41.3601 41.9692V27.0793C41.3601 25.9493 37.7801 26.2893 36.2201 22.6693Z" fill="black"/>
<path d="M15.47 1.07922H0C1.32 2.24922 2.85001 2.71922 4.54001 2.82922L7.62 3.02917C8.46 3.08917 9.23999 3.3492 9.73999 4.0592C11.34 6.2992 13.86 7.43919 16.74 7.22919L20.43 6.94922L18.6 5.91919C16.78 4.89919 15.72 3.16921 15.46 1.06921L15.47 1.07922Z" fill="black"/>
<path d="M37.91 10.0792C38.3 10.1792 39.46 9.99921 39.46 9.49921L39.49 2.07922L32.14 2.09918C31.32 3.94918 31.55 7.10919 33.01 8.60919C34.3 9.91919 36.05 10.2492 37.91 10.0892V10.0792Z" fill="black"/>
</svg>
