<svg width="321" height="321" viewBox="0 0 321 321" fill="none" xmlns="http://www.w3.org/2000/svg">
<g clip-path="url(#clip0_3269_833)">
<path d="M138.985 252.434L180.563 252.669L180.799 211.09L139.22 210.855L138.985 252.434Z" stroke="black" stroke-miterlimit="10"/>
<path d="M159.727 261.162L189.294 231.928L160.06 202.361L130.493 231.595L159.727 261.162Z" stroke="black" stroke-miterlimit="10"/>
<path d="M80.0314 210.35L109.266 239.917L138.832 210.683L109.598 181.116L80.0314 210.35Z" stroke="black" stroke-miterlimit="10"/>
<path d="M88.522 231.193L130.101 231.428L130.336 189.849L88.7571 189.614L88.522 231.193Z" stroke="black" stroke-miterlimit="10"/>
<path d="M68.0969 138.913L67.8618 180.492L109.44 180.727L109.676 139.148L68.0969 138.913Z" stroke="black" stroke-miterlimit="10"/>
<path d="M59.3634 159.658L88.5977 189.224L118.164 159.99L88.9302 130.423L59.3634 159.658Z" stroke="black" stroke-miterlimit="10"/>
<path d="M110.174 79.9603L80.6074 109.195L109.842 138.761L139.408 109.527L110.174 79.9603Z" stroke="black" stroke-miterlimit="10"/>
<path d="M89.3318 88.4541L89.0967 130.033L130.675 130.268L130.91 88.6893L89.3318 88.4541Z" stroke="black" stroke-miterlimit="10"/>
<path d="M181.621 68.0235L140.042 67.7883L139.807 109.367L181.385 109.602L181.621 68.0235Z" stroke="black" stroke-miterlimit="10"/>
<path d="M160.872 59.2931L131.305 88.5273L160.539 118.094L190.106 88.8599L160.872 59.2931Z" stroke="black" stroke-miterlimit="10"/>
<path d="M240.576 110.1L211.341 80.5332L181.775 109.767L211.009 139.334L240.576 110.1Z" stroke="black" stroke-miterlimit="10"/>
<path d="M232.076 89.2598L190.498 89.0247L190.262 130.603L231.841 130.838L232.076 89.2598Z" stroke="black" stroke-miterlimit="10"/>
<path d="M252.507 181.544L252.742 139.965L211.164 139.73L210.928 181.309L252.507 181.544Z" stroke="black" stroke-miterlimit="10"/>
<path d="M261.237 160.802L232.003 131.235L202.436 160.469L231.67 190.036L261.237 160.802Z" stroke="black" stroke-miterlimit="10"/>
<path d="M210.424 240.504L239.991 211.27L210.757 181.703L181.19 210.938L210.424 240.504Z" stroke="black" stroke-miterlimit="10"/>
<path d="M231.27 232.008L231.505 190.429L189.927 190.194L189.692 231.773L231.27 232.008Z" stroke="black" stroke-miterlimit="10"/>
<path d="M138.755 311.81L180.333 312.023L180.547 270.444L138.968 270.231L138.755 311.81Z" stroke="black" stroke-miterlimit="10"/>
<path d="M159.487 320.522L189.038 291.272L159.788 261.721L130.237 290.97L159.487 320.522Z" stroke="black" stroke-miterlimit="10"/>
<path d="M75.093 287.449L112.463 305.679L130.693 268.309L93.3227 250.079L75.093 287.449Z" stroke="black" stroke-miterlimit="10"/>
<path d="M90.0064 304.314L129.321 290.78L115.787 251.465L76.4723 264.999L90.0064 304.314Z" stroke="black" stroke-miterlimit="10"/>
<path d="M28.3546 237.892L54.1108 270.533L86.752 244.777L60.9958 212.136L28.3546 237.892Z" stroke="black" stroke-miterlimit="10"/>
<path d="M34.4758 259.537L75.769 264.405L80.6374 223.112L39.3442 218.244L34.4758 259.537Z" stroke="black" stroke-miterlimit="10"/>
<path d="M7.71313 172.94L16.7593 213.523L57.3425 204.477L48.2964 163.894L7.71313 172.94Z" stroke="black" stroke-miterlimit="10"/>
<path d="M3.83054 195.108L38.9238 217.408L61.2239 182.315L26.1306 160.015L3.83054 195.108Z" stroke="black" stroke-miterlimit="10"/>
<path d="M17.3096 105.47L7.85449 145.96L48.3444 155.415L57.7995 114.925L17.3096 105.47Z" stroke="black" stroke-miterlimit="10"/>
<path d="M4.18982 123.757L26.1348 159.074L61.4512 137.129L39.5063 101.812L4.18982 123.757Z" stroke="black" stroke-miterlimit="10"/>
<path d="M55.2242 48.8609L29.1343 81.2361L61.5094 107.326L87.5993 74.9508L55.2242 48.8609Z" stroke="black" stroke-miterlimit="10"/>
<path d="M35.4785 59.6411L39.9229 100.982L81.2639 96.5378L76.8195 55.1968L35.4785 59.6411Z" stroke="black" stroke-miterlimit="10"/>
<path d="M113.951 14.2854L76.3994 32.1372L94.2513 69.6891L131.803 51.8373L113.951 14.2854Z" stroke="black" stroke-miterlimit="10"/>
<path d="M91.472 15.4364L77.542 54.6128L116.718 68.5428L130.648 29.3665L91.472 15.4364Z" stroke="black" stroke-miterlimit="10"/>
<path d="M181.862 8.64866L140.283 8.4353L140.07 50.014L181.649 50.2274L181.862 8.64866Z" stroke="black" stroke-miterlimit="10"/>
<path d="M161.123 -0.071739L131.572 29.178L160.821 58.7294L190.373 29.4797L161.123 -0.071739Z" stroke="black" stroke-miterlimit="10"/>
<path d="M245.503 33.0012L208.133 14.7715L189.903 52.1414L227.273 70.3711L245.503 33.0012Z" stroke="black" stroke-miterlimit="10"/>
<path d="M230.586 16.147L191.271 29.6812L204.805 68.996L244.12 55.4619L230.586 16.147Z" stroke="black" stroke-miterlimit="10"/>
<path d="M292.241 82.5772L266.484 49.936L233.843 75.6923L259.599 108.334L292.241 82.5772Z" stroke="black" stroke-miterlimit="10"/>
<path d="M286.134 60.9363L244.84 56.0679L239.972 97.3611L281.265 102.229L286.134 60.9363Z" stroke="black" stroke-miterlimit="10"/>
<path d="M312.887 147.516L303.841 106.933L263.258 115.979L272.304 156.562L312.887 147.516Z" stroke="black" stroke-miterlimit="10"/>
<path d="M316.774 125.352L281.681 103.052L259.381 138.146L294.474 160.446L316.774 125.352Z" stroke="black" stroke-miterlimit="10"/>
<path d="M303.312 215.003L312.767 174.513L272.277 165.058L262.822 205.548L303.312 215.003Z" stroke="black" stroke-miterlimit="10"/>
<path d="M316.439 196.694L294.494 161.378L259.177 183.323L281.122 218.639L316.439 196.694Z" stroke="black" stroke-miterlimit="10"/>
<path d="M265.37 271.592L291.46 239.217L259.085 213.127L232.995 245.503L265.37 271.592Z" stroke="black" stroke-miterlimit="10"/>
<path d="M285.12 260.812L280.675 219.471L239.334 223.915L243.779 265.256L285.12 260.812Z" stroke="black" stroke-miterlimit="10"/>
<path d="M206.638 306.178L244.189 288.326L226.338 250.774L188.786 268.626L206.638 306.178Z" stroke="black" stroke-miterlimit="10"/>
<path d="M229.125 305.029L243.055 265.852L203.879 251.922L189.949 291.099L229.125 305.029Z" stroke="black" stroke-miterlimit="10"/>
</g>
<defs>
<clipPath id="clip0_3269_833">
<rect width="321" height="321" fill="white"/>
</clipPath>
</defs>
</svg>
