<svg width="198" height="198" viewBox="0 0 198 198" fill="none" xmlns="http://www.w3.org/2000/svg">
<path d="M63.3066 185.716L104.193 192.638L111.116 151.752L70.2294 144.829L63.3066 185.716Z" stroke="white" stroke-miterlimit="10"/>
<path d="M82.3071 197.638L116.114 173.622L92.0974 139.815L58.291 163.831L82.3071 197.638Z" stroke="white" stroke-miterlimit="10"/>
<path d="M12.4353 135.08L36.4514 168.886L70.2579 144.87L46.2417 111.064L12.4353 135.08Z" stroke="white" stroke-miterlimit="10"/>
<path d="M17.4438 156.945L58.3306 163.868L65.2534 122.982L24.3667 116.059L17.4438 156.945Z" stroke="white" stroke-miterlimit="10"/>
<path d="M12.2771 63.2969L5.35425 104.184L46.241 111.106L53.1638 70.2197L12.2771 63.2969Z" stroke="white" stroke-miterlimit="10"/>
<path d="M0.350099 82.3083L24.3662 116.115L58.1727 92.0986L34.1565 58.2922L0.350099 82.3083Z" stroke="white" stroke-miterlimit="10"/>
<path d="M62.9283 12.4366L29.1218 36.4528L53.1379 70.2592L86.9444 46.2431L62.9283 12.4366Z" stroke="white" stroke-miterlimit="10"/>
<path d="M41.0549 17.4406L34.1321 58.3273L75.0188 65.2501L81.9416 24.3634L41.0549 17.4406Z" stroke="white" stroke-miterlimit="10"/>
<path d="M134.7 12.286L93.8137 5.36321L86.8909 46.2499L127.778 53.1727L134.7 12.286Z" stroke="white" stroke-miterlimit="10"/>
<path d="M115.7 0.356634L81.8933 24.3727L105.909 58.1792L139.716 34.1631L115.7 0.356634Z" stroke="white" stroke-miterlimit="10"/>
<path d="M185.555 62.9317L161.539 29.1252L127.733 53.1413L151.749 86.9478L185.555 62.9317Z" stroke="white" stroke-miterlimit="10"/>
<path d="M180.554 41.0629L139.668 34.1401L132.745 75.0268L173.632 81.9496L180.554 41.0629Z" stroke="white" stroke-miterlimit="10"/>
<path d="M185.711 134.696L192.634 93.8097L151.747 86.8869L144.824 127.774L185.711 134.696Z" stroke="white" stroke-miterlimit="10"/>
<path d="M197.638 115.697L173.622 81.8907L139.816 105.907L163.832 139.713L197.638 115.697Z" stroke="white" stroke-miterlimit="10"/>
<path d="M135.076 185.557L168.883 161.541L144.867 127.734L111.06 151.75L135.076 185.557Z" stroke="white" stroke-miterlimit="10"/>
<path d="M156.942 180.551L163.865 139.664L122.979 132.742L116.056 173.628L156.942 180.551Z" stroke="white" stroke-miterlimit="10"/>
</svg>
