<svg width="321" height="321" viewBox="0 0 321 321" fill="none" xmlns="http://www.w3.org/2000/svg">
<g clip-path="url(#clip0_3510_2019)">
<path d="M76.2429 280.124L135.974 305.098L160.948 245.368L101.218 220.393L76.2429 280.124Z" stroke="black" stroke-width="1.5" stroke-miterlimit="10"/>
<path d="M100.932 304.969L160.828 280.393L136.252 220.497L76.3561 245.073L100.932 304.969Z" stroke="black" stroke-width="1.5" stroke-miterlimit="10"/>
<path d="M16.7739 185.145L41.3501 245.041L101.246 220.465L76.6698 160.569L16.7739 185.145Z" stroke="black" stroke-width="1.5" stroke-miterlimit="10"/>
<path d="M16.6623 220.174L76.3931 245.149L101.368 185.418L41.6371 160.443L16.6623 220.174Z" stroke="black" stroke-width="1.5" stroke-miterlimit="10"/>
<path d="M41.8986 75.9287L16.9238 135.66L76.6546 160.634L101.629 100.903L41.8986 75.9287Z" stroke="black" stroke-width="1.5" stroke-miterlimit="10"/>
<path d="M17.0429 100.625L41.6191 160.521L101.515 135.945L76.9388 76.0489L17.0429 100.625Z" stroke="black" stroke-width="1.5" stroke-miterlimit="10"/>
<path d="M136.895 16.482L76.9995 41.0582L101.576 100.954L161.472 76.3779L136.895 16.482Z" stroke="black" stroke-width="1.5" stroke-miterlimit="10"/>
<path d="M101.864 16.3626L76.8892 76.0935L136.62 101.068L161.595 41.3374L101.864 16.3626Z" stroke="black" stroke-width="1.5" stroke-miterlimit="10"/>
<path d="M246.093 41.6133L186.362 16.6385L161.388 76.3694L221.118 101.344L246.093 41.6133Z" stroke="black" stroke-width="1.5" stroke-miterlimit="10"/>
<path d="M221.414 16.7583L161.518 41.3346L186.094 101.231L245.99 76.6543L221.414 16.7583Z" stroke="black" stroke-width="1.5" stroke-miterlimit="10"/>
<path d="M305.534 136.6L280.958 76.7046L221.062 101.281L245.638 161.177L305.534 136.6Z" stroke="black" stroke-width="1.5" stroke-miterlimit="10"/>
<path d="M305.656 101.577L245.925 76.6024L220.951 136.333L280.681 161.308L305.656 101.577Z" stroke="black" stroke-width="1.5" stroke-miterlimit="10"/>
<path d="M280.412 245.789L305.387 186.058L245.656 161.083L220.682 220.814L280.412 245.789Z" stroke="black" stroke-width="1.5" stroke-miterlimit="10"/>
<path d="M305.264 221.111L280.688 161.215L220.792 185.791L245.368 245.687L305.264 221.111Z" stroke="black" stroke-width="1.5" stroke-miterlimit="10"/>
<path d="M185.44 305.242L245.336 280.665L220.76 220.769L160.864 245.346L185.44 305.242Z" stroke="black" stroke-width="1.5" stroke-miterlimit="10"/>
<path d="M220.461 305.356L245.436 245.625L185.705 220.65L160.73 280.381L220.461 305.356Z" stroke="black" stroke-width="1.5" stroke-miterlimit="10"/>
</g>
<defs>
<clipPath id="clip0_3510_2019">
<rect width="321" height="321" fill="white"/>
</clipPath>
</defs>
</svg>
