<svg width="230" height="229" viewBox="0 0 230 229" fill="none" xmlns="http://www.w3.org/2000/svg">
<path d="M89.1093 176.915L118.768 181.937L123.79 152.278L94.131 147.256L89.1093 176.915Z" stroke="white" stroke-miterlimit="10"/>
<path d="M102.892 185.56L127.415 168.139L109.994 143.616L85.4711 161.037L102.892 185.56Z" stroke="white" stroke-miterlimit="10"/>
<path d="M52.2097 140.186L69.6309 164.709L94.1539 147.288L76.7327 122.765L52.2097 140.186Z" stroke="white" stroke-miterlimit="10"/>
<path d="M55.8439 156.046L85.5029 161.068L90.5247 131.409L60.8657 126.387L55.8439 156.046Z" stroke="white" stroke-miterlimit="10"/>
<path d="M52.0962 88.1198L47.0745 117.779L76.7335 122.801L81.7553 93.1416L52.0962 88.1198Z" stroke="white" stroke-miterlimit="10"/>
<path d="M43.4463 101.904L60.8674 126.427L85.3905 109.006L67.9693 84.4826L43.4463 101.904Z" stroke="white" stroke-miterlimit="10"/>
<path d="M88.8297 51.2245L64.3066 68.6457L81.7278 93.1687L106.251 75.7475L88.8297 51.2245Z" stroke="white" stroke-miterlimit="10"/>
<path d="M72.9678 54.8552L67.946 84.5142L97.6051 89.536L102.627 59.877L72.9678 54.8552Z" stroke="white" stroke-miterlimit="10"/>
<path d="M140.896 51.1133L111.237 46.0915L106.215 75.7506L135.874 80.7724L140.896 51.1133Z" stroke="white" stroke-miterlimit="10"/>
<path d="M127.113 42.4596L102.59 59.8808L120.011 84.4038L144.534 66.9826L127.113 42.4596Z" stroke="white" stroke-miterlimit="10"/>
<path d="M177.783 87.8457L160.362 63.3227L135.839 80.7438L153.26 105.267L177.783 87.8457Z" stroke="white" stroke-miterlimit="10"/>
<path d="M174.155 71.9873L144.496 66.9655L139.474 96.6246L169.133 101.646L174.155 71.9873Z" stroke="white" stroke-miterlimit="10"/>
<path d="M177.895 139.902L182.917 110.243L153.258 105.222L148.236 134.881L177.895 139.902Z" stroke="white" stroke-miterlimit="10"/>
<path d="M186.542 126.124L169.12 101.601L144.597 119.022L162.018 143.545L186.542 126.124Z" stroke="white" stroke-miterlimit="10"/>
<path d="M141.17 176.794L165.693 159.373L148.272 134.85L123.749 152.271L141.17 176.794Z" stroke="white" stroke-miterlimit="10"/>
<path d="M157.026 173.166L162.048 143.507L132.389 138.485L127.367 168.144L157.026 173.166Z" stroke="white" stroke-miterlimit="10"/>
<path d="M70.3818 214.27L99.2817 222.617L107.629 193.717L78.7288 185.37L70.3818 214.27Z" stroke="white" stroke-miterlimit="10"/>
<path d="M83.1039 224.43L109.441 209.897L94.9083 183.559L68.5708 198.093L83.1039 224.43Z" stroke="white" stroke-miterlimit="10"/>
<path d="M31.3159 184.987L53.7302 205.049L73.792 182.635L51.3777 162.573L31.3159 184.987Z" stroke="white" stroke-miterlimit="10"/>
<path d="M38.3691 199.651L68.4043 197.988L66.7408 167.952L36.7057 169.616L38.3691 199.651Z" stroke="white" stroke-miterlimit="10"/>
<path d="M8.79885 141.641L20.291 169.441L48.0904 157.949L36.5983 130.149L8.79885 141.641Z" stroke="white" stroke-miterlimit="10"/>
<path d="M8.78721 157.92L36.5706 169.45L48.1015 141.667L20.3182 130.136L8.78721 157.92Z" stroke="white" stroke-miterlimit="10"/>
<path d="M7.32501 92.8177L5.61963 122.851L35.6524 124.556L37.3578 94.5231L7.32501 92.8177Z" stroke="white" stroke-miterlimit="10"/>
<path d="M0.248301 107.485L20.2788 129.927L42.7211 109.897L22.6906 87.4546L0.248301 107.485Z" stroke="white" stroke-miterlimit="10"/>
<path d="M27.1829 48.2119L12.613 74.5292L38.9303 89.099L53.5001 62.7818L27.1829 48.2119Z" stroke="white" stroke-miterlimit="10"/>
<path d="M14.4519 58.3524L22.7585 87.2639L51.6701 78.9573L43.3635 50.0458L14.4519 58.3524Z" stroke="white" stroke-miterlimit="10"/>
<path d="M64.431 16.6175L39.8867 34.0087L57.2779 58.553L81.8222 41.1618L64.431 16.6175Z" stroke="white" stroke-miterlimit="10"/>
<path d="M48.5541 20.2337L43.4961 49.8866L73.149 54.9446L78.207 25.2917L48.5541 20.2337Z" stroke="white" stroke-miterlimit="10"/>
<path d="M111.695 4.33457L82.0347 9.35117L87.0513 39.0111L116.711 33.9945L111.695 4.33457Z" stroke="white" stroke-miterlimit="10"/>
<path d="M95.8317 0.697205L78.4062 25.2172L102.926 42.6427L120.352 18.1227L95.8317 0.697205Z" stroke="white" stroke-miterlimit="10"/>
<path d="M159.613 13.7536L130.713 5.40664L122.366 34.3066L151.266 42.6536L159.613 13.7536Z" stroke="white" stroke-miterlimit="10"/>
<path d="M146.89 3.59719L120.552 18.1303L135.085 44.4678L161.423 29.9347L146.89 3.59719Z" stroke="white" stroke-miterlimit="10"/>
<path d="M198.683 43.053L176.268 22.9912L156.206 45.4055L178.621 65.4673L198.683 43.053Z" stroke="white" stroke-miterlimit="10"/>
<path d="M191.638 28.3874L161.603 30.0508L163.266 60.086L193.302 58.4225L191.638 28.3874Z" stroke="white" stroke-miterlimit="10"/>
<path d="M221.198 86.3859L209.706 58.5865L181.907 70.0787L193.399 97.8781L221.198 86.3859Z" stroke="white" stroke-miterlimit="10"/>
<path d="M221.211 70.1065L193.427 58.5755L181.896 86.3589L209.68 97.8898L221.211 70.1065Z" stroke="white" stroke-miterlimit="10"/>
<path d="M222.685 135.21L224.39 105.178L194.357 103.472L192.652 133.505L222.685 135.21Z" stroke="white" stroke-miterlimit="10"/>
<path d="M229.76 120.534L209.73 98.0917L187.288 118.122L207.318 140.564L229.76 120.534Z" stroke="white" stroke-miterlimit="10"/>
<path d="M202.811 179.81L217.381 153.492L191.064 138.923L176.494 165.24L202.811 179.81Z" stroke="white" stroke-miterlimit="10"/>
<path d="M215.541 169.673L207.234 140.761L178.322 149.068L186.629 177.979L215.541 169.673Z" stroke="white" stroke-miterlimit="10"/>
<path d="M165.562 211.414L190.106 194.023L172.715 169.478L148.171 186.87L165.562 211.414Z" stroke="white" stroke-miterlimit="10"/>
<path d="M181.447 207.803L186.505 178.15L156.852 173.092L151.794 202.745L181.447 207.803Z" stroke="white" stroke-miterlimit="10"/>
<path d="M118.312 223.688L147.972 218.672L142.956 189.012L113.296 194.028L118.312 223.688Z" stroke="white" stroke-miterlimit="10"/>
<path d="M134.171 227.316L151.596 202.796L127.076 185.37L109.651 209.89L134.171 227.316Z" stroke="white" stroke-miterlimit="10"/>
</svg>
