<svg width="284" height="284" viewBox="0 0 284 284" fill="none" xmlns="http://www.w3.org/2000/svg">
<path d="M90.7162 265.055L148.952 274.915L158.812 216.68L100.576 206.82L90.7162 265.055Z" stroke="white" stroke-width="1.5" stroke-miterlimit="10"/>
<path d="M117.786 282.036L165.937 247.829L131.731 199.679L83.5796 233.885L117.786 282.036Z" stroke="white" stroke-width="1.5" stroke-miterlimit="10"/>
<path d="M18.2589 192.933L52.4653 241.084L100.616 206.878L66.4098 158.727L18.2589 192.933Z" stroke="white" stroke-width="1.5" stroke-miterlimit="10"/>
<path d="M25.393 224.084L83.6284 233.944L93.4887 175.709L35.2532 165.849L25.393 224.084Z" stroke="white" stroke-width="1.5" stroke-miterlimit="10"/>
<path d="M18.0341 90.6924L8.17383 148.928L66.4093 158.788L76.2695 100.553L18.0341 90.6924Z" stroke="white" stroke-width="1.5" stroke-miterlimit="10"/>
<path d="M1.046 117.771L35.2524 165.922L83.4034 131.715L49.1969 83.5641L1.046 117.771Z" stroke="white" stroke-width="1.5" stroke-miterlimit="10"/>
<path d="M90.1773 18.2512L42.0264 52.4576L76.2328 100.609L124.384 66.4021L90.1773 18.2512Z" stroke="white" stroke-width="1.5" stroke-miterlimit="10"/>
<path d="M59.0228 25.3783L49.1626 83.6138L107.398 93.474L117.258 35.2386L59.0228 25.3783Z" stroke="white" stroke-width="1.5" stroke-miterlimit="10"/>
<path d="M192.403 18.0369L134.168 8.17664L124.308 66.4121L182.543 76.2723L192.403 18.0369Z" stroke="white" stroke-width="1.5" stroke-miterlimit="10"/>
<path d="M165.34 1.04576L117.189 35.2522L151.396 83.4031L199.547 49.1967L165.34 1.04576Z" stroke="white" stroke-width="1.5" stroke-miterlimit="10"/>
<path d="M264.837 90.172L230.63 42.0211L182.479 76.2276L216.686 124.378L264.837 90.172Z" stroke="white" stroke-width="1.5" stroke-miterlimit="10"/>
<path d="M257.713 59.0242L199.478 49.1639L189.618 107.399L247.853 117.26L257.713 59.0242Z" stroke="white" stroke-width="1.5" stroke-miterlimit="10"/>
<path d="M265.058 192.388L274.918 134.152L216.683 124.292L206.823 182.527L265.058 192.388Z" stroke="white" stroke-width="1.5" stroke-miterlimit="10"/>
<path d="M282.047 165.327L247.84 117.176L199.689 151.382L233.896 199.533L282.047 165.327Z" stroke="white" stroke-width="1.5" stroke-miterlimit="10"/>
<path d="M192.938 264.822L241.089 230.615L206.883 182.464L158.732 216.671L192.938 264.822Z" stroke="white" stroke-width="1.5" stroke-miterlimit="10"/>
<path d="M224.082 257.699L233.942 199.464L175.707 189.603L165.847 247.839L224.082 257.699Z" stroke="white" stroke-width="1.5" stroke-miterlimit="10"/>
</svg>
