<svg width="330" height="330" viewBox="0 0 330 330" fill="none" xmlns="http://www.w3.org/2000/svg">
<g clip-path="url(#clip0_3233_42927)">
<path d="M140.701 259.207L183.426 260.528L184.746 217.803L142.021 216.483L140.701 259.207Z" stroke="white" stroke-miterlimit="10"/>
<path d="M161.792 268.716L192.937 239.438L163.659 208.294L132.515 237.571L161.792 268.716Z" stroke="white" stroke-miterlimit="10"/>
<path d="M81.2056 214.433L110.483 245.577L141.627 216.3L112.35 185.156L81.2056 214.433Z" stroke="white" stroke-miterlimit="10"/>
<path d="M89.3911 236.069L132.116 237.389L133.436 194.664L90.7114 193.344L89.3911 236.069Z" stroke="white" stroke-miterlimit="10"/>
<path d="M70.7939 140.702L69.4736 183.427L112.198 184.747L113.519 142.022L70.7939 140.702Z" stroke="white" stroke-miterlimit="10"/>
<path d="M61.2798 161.795L90.5571 192.939L121.702 163.662L92.4243 132.517L61.2798 161.795Z" stroke="white" stroke-miterlimit="10"/>
<path d="M115.566 81.2073L84.4219 110.485L113.699 141.629L144.844 112.352L115.566 81.2073Z" stroke="white" stroke-miterlimit="10"/>
<path d="M93.9258 89.3957L92.6055 132.12L135.33 133.441L136.65 90.716L93.9258 89.3957Z" stroke="white" stroke-miterlimit="10"/>
<path d="M189.302 70.7929L146.578 69.4727L145.257 112.197L187.982 113.518L189.302 70.7929Z" stroke="white" stroke-miterlimit="10"/>
<path d="M168.205 61.2825L137.061 90.5598L166.338 121.704L197.482 92.427L168.205 61.2825Z" stroke="white" stroke-miterlimit="10"/>
<path d="M248.799 115.565L219.521 84.4204L188.377 113.698L217.654 144.842L248.799 115.565Z" stroke="white" stroke-miterlimit="10"/>
<path d="M240.605 93.927L197.88 92.6067L196.56 135.331L239.284 136.652L240.605 93.927Z" stroke="white" stroke-miterlimit="10"/>
<path d="M259.208 189.298L260.528 146.573L217.804 145.253L216.483 187.978L259.208 189.298Z" stroke="white" stroke-miterlimit="10"/>
<path d="M268.718 168.208L239.441 137.063L208.296 166.341L237.574 197.485L268.718 168.208Z" stroke="white" stroke-miterlimit="10"/>
<path d="M214.43 248.801L245.574 219.523L216.297 188.379L185.152 217.656L214.43 248.801Z" stroke="white" stroke-miterlimit="10"/>
<path d="M236.073 240.609L237.394 197.885L194.669 196.564L193.349 239.289L236.073 240.609Z" stroke="white" stroke-miterlimit="10"/>
<path d="M138.925 320.223L181.65 321.521L182.948 278.795L140.223 277.497L138.925 320.223Z" stroke="white" stroke-miterlimit="10"/>
<path d="M160.005 329.714L191.134 300.42L161.841 269.291L130.712 298.585L160.005 329.714Z" stroke="white" stroke-miterlimit="10"/>
<path d="M74.131 293.535L112.063 313.24L131.768 275.307L93.8353 255.603L74.131 293.535Z" stroke="white" stroke-miterlimit="10"/>
<path d="M89.0195 311.254L129.775 298.365L116.886 257.61L76.1302 270.499L89.0195 311.254Z" stroke="white" stroke-miterlimit="10"/>
<path d="M27.3827 241.393L53.0059 275.606L87.2197 249.983L61.5965 215.769L27.3827 241.393Z" stroke="white" stroke-miterlimit="10"/>
<path d="M33.1122 263.796L75.4233 269.871L81.4979 227.559L39.1867 221.485L33.1122 263.796Z" stroke="white" stroke-miterlimit="10"/>
<path d="M7.85366 174.105L16.0977 216.047L58.0402 207.803L49.7962 165.861L7.85366 174.105Z" stroke="white" stroke-miterlimit="10"/>
<path d="M3.28867 196.787L38.7759 220.615L62.6043 185.128L27.1171 161.299L3.28867 196.787Z" stroke="white" stroke-miterlimit="10"/>
<path d="M19.4672 105.014L8.69971 146.381L50.0663 157.149L60.8338 115.782L19.4672 105.014Z" stroke="white" stroke-miterlimit="10"/>
<path d="M5.50914 123.468L27.146 160.333L64.0104 138.696L42.3735 101.831L5.50914 123.468Z" stroke="white" stroke-miterlimit="10"/>
<path d="M59.9003 47.8206L32.2476 80.416L64.843 108.069L92.4957 75.4733L59.9003 47.8206Z" stroke="white" stroke-miterlimit="10"/>
<path d="M39.3282 58.3871L42.8232 100.989L85.4251 97.494L81.9301 54.8921L39.3282 58.3871Z" stroke="white" stroke-miterlimit="10"/>
<path d="M121.152 13.8105L82.0967 31.1829L99.469 70.2384L138.525 52.8661L121.152 13.8105Z" stroke="white" stroke-miterlimit="10"/>
<path d="M98.0199 14.4102L82.6875 54.3108L122.588 69.6432L137.92 29.7426L98.0199 14.4102Z" stroke="white" stroke-miterlimit="10"/>
<path d="M191.091 9.77911L148.366 8.4812L147.068 51.2065L189.793 52.5044L191.091 9.77911Z" stroke="white" stroke-miterlimit="10"/>
<path d="M170.004 0.279158L138.875 29.5728L168.168 60.7019L199.297 31.4083L170.004 0.279158Z" stroke="white" stroke-miterlimit="10"/>
<path d="M255.864 36.4575L217.931 16.7532L198.227 54.6857L236.159 74.39L255.864 36.4575Z" stroke="white" stroke-miterlimit="10"/>
<path d="M240.97 18.7492L200.215 31.6384L213.104 72.3938L253.859 59.5046L240.97 18.7492Z" stroke="white" stroke-miterlimit="10"/>
<path d="M302.61 88.6199L276.987 54.406L242.773 80.0292L268.396 114.243L302.61 88.6199Z" stroke="white" stroke-miterlimit="10"/>
<path d="M296.895 66.2208L254.584 60.1462L248.509 102.457L290.821 108.532L296.895 66.2208Z" stroke="white" stroke-miterlimit="10"/>
<path d="M322.144 155.899L313.9 113.957L271.957 122.201L280.201 164.143L322.144 155.899Z" stroke="white" stroke-miterlimit="10"/>
<path d="M326.714 133.217L291.227 109.388L267.398 144.876L302.885 168.704L326.714 133.217Z" stroke="white" stroke-miterlimit="10"/>
<path d="M310.552 225.002L321.32 183.635L279.953 172.868L269.186 214.234L310.552 225.002Z" stroke="white" stroke-miterlimit="10"/>
<path d="M324.518 206.526L302.881 169.662L266.016 191.299L287.653 228.163L324.518 206.526Z" stroke="white" stroke-miterlimit="10"/>
<path d="M270.091 282.176L297.744 249.58L265.149 221.927L237.496 254.523L270.091 282.176Z" stroke="white" stroke-miterlimit="10"/>
<path d="M290.668 271.609L287.173 229.007L244.571 232.502L248.066 275.104L290.668 271.609Z" stroke="white" stroke-miterlimit="10"/>
<path d="M208.834 316.196L247.89 298.823L230.517 259.768L191.462 277.14L208.834 316.196Z" stroke="white" stroke-miterlimit="10"/>
<path d="M231.975 315.598L247.307 275.698L207.407 260.365L192.074 300.266L231.975 315.598Z" stroke="white" stroke-miterlimit="10"/>
</g>
<defs>
<clipPath id="clip0_3233_42927">
<rect width="330" height="330" fill="white"/>
</clipPath>
</defs>
</svg>
