<svg width="321" height="321" viewBox="0 0 321 321" fill="none" xmlns="http://www.w3.org/2000/svg">
<rect x="153" y="22" width="16" height="16" fill="#92DBFF" fill-opacity="0.3"/>
<rect x="96" y="33" width="16" height="16" fill="#92DBFF" fill-opacity="0.3"/>
<rect x="210" y="33" width="16" height="16" fill="#92DBFF" fill-opacity="0.3"/>
<rect x="95" y="272" width="16" height="16" fill="#92DBFF" fill-opacity="0.3"/>
<rect x="210" y="271" width="16" height="16" fill="#92DBFF" fill-opacity="0.3"/>
<rect x="101" y="204" width="16" height="16" fill="#92DBFF" fill-opacity="0.3"/>
<rect x="204" y="204" width="16" height="16" fill="#92DBFF" fill-opacity="0.3"/>
<rect x="102" y="102" width="16" height="16" fill="#92DBFF" fill-opacity="0.3"/>
<rect x="50" y="70" width="16" height="16" fill="#92DBFF" fill-opacity="0.3"/>
<rect x="24" y="123" width="16" height="16" fill="#92DBFF" fill-opacity="0.3"/>
<rect x="24" y="182" width="16" height="16" fill="#92DBFF" fill-opacity="0.3"/>
<rect x="49" y="234" width="16" height="16" fill="#92DBFF" fill-opacity="0.3"/>
<rect x="255" y="235" width="16" height="16" fill="#92DBFF" fill-opacity="0.3"/>
<rect x="280" y="182" width="16" height="16" fill="#92DBFF" fill-opacity="0.3"/>
<rect x="281" y="125" width="16" height="16" fill="#92DBFF" fill-opacity="0.3"/>
<rect x="256" y="70" width="16" height="16" fill="#92DBFF" fill-opacity="0.3"/>
<rect x="204" y="102" width="16" height="16" fill="#92DBFF" fill-opacity="0.3"/>
<rect x="81" y="153" width="16" height="16" fill="#92DBFF" fill-opacity="0.3"/>
<rect x="224" y="153" width="16" height="16" fill="#92DBFF" fill-opacity="0.3"/>
<rect x="152" y="81" width="16" height="16" fill="#92DBFF" fill-opacity="0.3"/>
<rect x="152" y="226" width="16" height="16" fill="#92DBFF" fill-opacity="0.3"/>
<rect x="151" y="285" width="16" height="16" fill="#92DBFF" fill-opacity="0.3"/>
</svg>
