<svg width="86" height="129" viewBox="0 0 86 129" fill="none" xmlns="http://www.w3.org/2000/svg">
<path d="M51.3545 33.3774L53.0347 34.726C54.0848 35.5661 54.6596 36.4394 55.2786 37.6221C55.8866 38.2854 57.7547 38.8491 58.6169 39.3244C61.9441 41.1483 62.3973 47.449 61.0045 50.1903C60.1533 51.8705 58.6058 53.2191 57.1246 53.7939L54.5933 54.7887C53.8969 55.0651 53.3552 55.662 53.3221 56.4357C53.3 56.9663 54.2174 57.7512 54.8917 57.7401L58.3074 57.6848C59.9433 57.6627 62.1651 57.8396 63.0163 59.3982C63.3921 60.0725 62.8836 61.7858 62.1872 61.9848C59.5675 62.7475 57.7326 60.6141 56.6272 62.9575C56.4172 63.4107 56.594 64.4608 56.9256 64.7703C57.7768 65.0025 58.7606 65.2678 59.457 65.6104L61.7341 66.749C62.6847 67.2243 63.6353 67.7549 63.8122 69.1808C63.978 70.4852 64.1548 72.2096 64.0885 73.525C63.9448 76.2884 61.1592 79.1956 60.9824 79.1293C59.877 78.7424 60.5955 76.1779 58.6058 73.0054C57.7436 71.6348 56.0745 70.1978 54.4275 70.1315L50.6802 69.9878C48.9779 69.9214 46.6456 69.8441 45.2417 69.3356C45.0206 69.2582 44.6006 68.5065 44.4127 68.5618L43.4068 68.9045C42.1356 68.0754 40.4554 67.2243 39.4274 66.13C38.2336 64.8588 37.5482 62.8691 36.1112 61.819C35.4812 61.3658 33.5247 61.4542 33.0493 62.0843C31.9108 63.5655 31.8997 65.7873 31.3028 67.5338C30.6175 69.5456 28.252 70.8721 26.1407 71.0268C24.8695 71.1263 20.857 67.5117 21.4649 65.6547C21.9181 64.2619 24.0626 65.2125 25.6322 63.665C26.9366 62.3827 26.196 59.2213 24.7147 57.4638C25.3669 56.7232 26.2512 55.6951 26.2291 54.7335C26.207 53.6944 25.6875 52.4785 24.7037 52.0584C24.3168 51.8926 23.2667 52.169 22.9351 52.4343C22.6366 52.6775 22.5593 53.606 22.8798 53.6833C23.7089 53.4733 24.3942 53.2191 24.7258 53.4954C25.0906 53.7939 25.1348 54.8219 24.8806 55.2309C24.3721 56.082 23.7089 56.701 22.8024 56.6789C17.994 56.6126 18.8894 56.0268 15.6617 58.8455C14.0146 60.2714 12.4008 63.5986 12.0139 65.9531L11.1185 71.5574C11.0522 71.9885 10.5327 72.8839 10.5327 73.1713L11.2954 72.3975C11.0301 74.1993 10.9196 76.0674 10.4995 77.7807C10.0242 79.5493 6.94018 78.2671 5.93428 77.5044C2.18703 74.6746 3.81195 74.5641 2.0765 73.3813C1.88858 73.2486 1.59012 74.1993 1.73382 74.3982L4.34253 78.245L7.1281 79.2177C7.90187 79.483 9.10673 79.3504 10.4774 79.4388L10.599 85.1757C10.599 84.822 11.218 92.2612 11.1406 91.8744C12.644 99.811 12.246 96.8596 14.6889 101.834C14.9432 102.353 15.6174 103.326 15.9933 103.757L18.5799 106.686C22.1834 110.776 21.6086 110.124 26.4391 113.109C29.5674 114.535 34.011 115.519 36.9624 116.005C37.2166 116.049 37.5593 116.812 37.7251 116.745C37.9241 116.657 38.3331 116.436 38.5763 116.458L42.5225 116.944C44.8548 117.232 47.3751 118.503 47.2314 121.278C47.1983 122.051 45.7391 123.179 46.6345 124.229C47.3198 125.036 48.8121 124.406 49.7959 124.129C54.8807 122.692 52.5373 118.89 54.6928 118.702C60.9603 118.16 61.5019 117.055 66.7414 118.536C70.0355 119.465 72.4452 120.515 75.3413 122.571L76.4799 123.378C76.7231 123.555 76.303 124.351 76.1482 124.339C75.5624 124.03 74.866 123.643 74.4681 123.621C72.6884 123.488 71.3619 122.792 69.737 122.283L64.4643 120.625C63.1047 120.194 61.3361 120.382 59.8217 120.294C58.7937 120.227 57.4783 119.918 56.583 120.382C55.7871 120.791 56.0192 122.549 55.5992 123.146C53.51 126.053 52.2277 126.594 49.1106 127.733L42.3567 125.577L43.7716 122.007C43.5063 121.477 42.7104 120.161 42.0914 119.962C35.4701 117.873 40.1901 120.128 34.9174 118.945L30.6728 117.995C29.6448 117.762 28.462 117.166 27.3677 117.077C25.389 116.922 23.7199 116.292 21.9734 115.629C17.5408 113.949 16.5681 112.832 13.9704 110.699L10.9417 108.212C10.1458 105.15 8.97409 106.112 8.34402 102.243L9.42729 102.674C7.87975 101.137 7.33812 99.5568 7.16126 97.4123L6.74121 92.3497L6.50908 88.9561L6.19957 84.214C6.16641 83.6392 6.06693 82.567 5.74637 82.2465C4.87312 81.3953 1.77804 82.0143 0.860567 76.7748L0.0757452 72.2538C-0.0900623 71.2921 0.0536372 70.3636 0.153122 69.424C0.396306 66.9258 0.175231 64.3503 0.871623 61.8411C1.33588 60.1941 0.71687 57.8064 1.82225 56.281C2.36389 55.5404 2.61813 55.2309 2.57391 54.5013C2.41916 52.0142 4.38674 49.5824 6.98439 49.1513C7.8687 48.9965 9.0183 49.4939 9.7368 50.1793L7.20547 52.5227C4.81785 54.7335 5.91217 58.9339 4.25409 60.6031C4.18777 64.4056 3.18187 70.651 6.1222 73.5471C7.45971 74.0335 8.35507 72.0548 8.21137 70.7947C8.02345 69.0703 8.52088 67.4343 8.69774 65.8647C9.72575 56.7784 9.23938 57.2427 15.2416 50.6325L16.2143 50.9862C17.1208 50.334 18.5246 49.4497 19.6852 49.3834L24.8142 49.1071C25.6322 49.0628 26.417 49.1402 27.3013 49.0407C29.5453 48.7976 31.9108 49.2065 34.221 49.4166L40.9418 50.0245C43.5505 50.2567 46.8445 50.2346 49.1769 51.4394C51.8961 52.8433 54.0958 53.3296 57.1357 51.771C57.423 51.0304 57.8984 49.8145 58.241 48.7091C59.0148 46.1888 57.6773 43.4696 55.1681 42.8285C54.339 43.3259 53.5653 44.5308 52.9573 45.194C50.636 46.6421 47.1982 46.8742 44.8327 45.3156C43.5505 44.4755 42.9646 42.5742 42.2461 41.1815L36.9845 40.7393C35.9897 40.6619 34.3869 40.8609 33.4804 41.1815C32.8614 42.519 32.1319 43.4254 31.1149 44.1881C30.6507 43.0164 30.5512 43.6133 30.4517 44.575C27.2571 45.9899 22.5703 45.4261 20.3485 42.1321C19.6853 41.1483 19.9174 39.4018 17.6513 39.3134C16.0154 39.247 9.02935 38.418 7.42655 37.2021C7.23863 36.8263 8.1561 36.1409 8.57615 36.152L20.8127 36.5499C20.868 34.6486 22.2718 32.88 23.7973 31.6531C25.3227 30.4261 26.7929 30.3266 28.6278 30.9788C30.4627 31.6309 32.6182 32.7142 33.3146 34.7702L34.1547 37.2131C35.238 37.0915 36.1334 37.0031 37.0287 37.1247L40.6544 37.6332C41.8371 37.799 42.6772 37.2684 43.1857 36.1741C44.5453 33.2227 48.779 31.2772 51.3766 33.3553L51.3545 33.3774ZM33.4915 54.424C33.1046 55.0098 33.2483 56.7121 33.4804 57.4195C34.5527 58.6465 36.4429 59.0445 37.9794 59.5419C39.3721 59.9951 39.9911 62.0732 40.8976 62.8801L43.4289 65.1572L45.6728 65.5662C47.1098 65.8315 47.972 65.2346 49.0885 64.4277C50.1165 63.6871 51.3434 65.2015 52.1504 65.5552C55.4776 66.9922 59.258 68.4955 60.5181 71.7122L59.5896 71.1373C59.5012 71.0821 59.5896 71.6569 59.678 71.7011C60.3744 72.0217 61.2256 73.1934 61.4909 74.2103C63.5027 74.7299 60.8276 69.3245 60.4408 68.7718C57.5889 64.7482 51.045 64.7151 50.437 62.637C50.3044 62.2059 51.0781 59.7187 50.4923 57.2648C50.0612 55.463 47.8504 53.9818 46.1039 54.0039L43.2189 54.0371L40.4333 55.673C39.8806 57.5632 38.6094 57.9391 36.885 57.7512C35.5475 57.6075 34.2763 56.7121 34.5306 55.3635C34.619 54.8882 35.647 54.225 36.0228 54.424L37.3382 55.1535C37.6146 55.2419 37.9351 54.1808 37.6919 53.9155C37.4488 53.6502 36.7745 53.2633 36.2328 53.0864C35.5696 52.8654 34.0221 53.6391 33.5025 54.424H33.4915ZM44.4348 42.3642C46.7008 44.2323 50.216 44.3429 51.7303 42.3089C53.2447 40.275 52.2388 36.9478 51.2219 36.0193C50.6139 35.4556 49.2764 35.1571 48.3368 35.135C46.4134 35.0797 45.3744 36.5831 44.1253 38.0201L44.4348 42.3753V42.3642ZM22.8798 36.8262C21.9513 39.2139 23.2335 41.9221 25.588 42.3753C28.1746 42.8616 29.899 41.4136 30.4627 38.8602C30.6507 38.0201 30.6949 37.2684 30.5622 36.3399C30.2969 34.4497 29.1142 33.5764 27.0692 33.5654C25.0243 33.5543 23.6094 34.9803 22.8909 36.8262H22.8798Z" fill="black"/>
<path d="M65.2388 86.8891L65.7142 87.3092C65.8357 87.4086 65.5926 87.6297 65.3604 87.8508L62.0222 90.559C60.3752 91.8965 57.2469 92.2281 55.3125 91.9407L53.2675 92.626C51.3552 93.2672 45.3309 91.6423 43.2638 90.9459C42.1253 90.559 41.3405 89.9621 40.4783 89.3541C39.3065 88.5251 38.1348 87.6739 37.56 86.1927C36.9521 84.601 35.5704 81.4506 37.7259 81.119L36.9189 79.2951C36.6536 78.6982 36.0236 77.8139 35.6146 77.1286L32.8953 78.9746L30.9388 80.301C30.773 80.4116 30.364 80.8427 30.2756 80.9864C30.165 81.1632 30.4856 81.318 30.7288 81.539C29.546 84.2915 29.6676 87.7955 30.4966 90.5037C30.5519 90.7027 31.0162 91.1559 30.9498 91.2885L30.6182 91.9186L31.9005 93.3335C31.9005 93.3335 32.2321 93.1235 32.3537 93.2008L33.1275 93.6762L37.2837 96.307C38.9197 97.346 43.2638 98.6283 45.5962 99.1147C52.4385 100.541 49.5866 97.1802 54.5719 95.8648C57.2248 95.1684 59.6124 96.6275 60.8726 98.9599C61.6906 100.485 62.9949 100.563 64.4872 100.253C66.4216 99.8442 68.2565 99.811 70.1578 99.6452C70.6884 99.601 71.6059 99.3136 72.3907 99.2031C73.286 99.0704 74.3804 98.3188 75.1652 97.7992L76.5801 98.4625L75.6294 97.125C75.3973 96.8044 76.0937 95.8427 76.1048 95.4337L76.1932 91.5096L73.4076 89.9621C73.275 89.8847 72.9102 89.4315 72.8328 89.3099C72.7223 89.1551 73.1645 88.9451 73.5624 88.6356C72.258 88.0166 71.8269 86.458 72.4017 84.9657L73.4629 82.2465C74.2035 80.3452 76.4806 79.0851 78.0613 78.1345L78.3487 73.4919L78.5919 69.7336L79.2993 55.2309C79.3878 53.3628 80.3826 50.3451 78.9124 50.2678C76.2706 50.1241 72.1806 47.2169 73.695 44.7408C72.6449 42.5301 74.5462 39.1365 75.2868 37.4232C76.2816 35.124 75.2868 32.1505 75.1652 29.6744C75.0768 27.8174 75.1652 25.9604 74.6567 24.3023L73.7393 21.3067L72.7334 18.0127L73.2639 17.9684C73.3524 17.9684 73.474 17.8579 73.5624 17.8247C73.695 17.7695 72.866 17.5152 72.7776 17.4047L70.1468 14.2322C69.7488 13.7569 69.0082 12.7289 68.5439 12.4194C62.8844 8.57267 62.3538 10.7061 59.7561 9.54541C58.5181 8.99272 57.6117 9.61174 56.7716 10.4187L55.3788 11.7672C53.4002 13.6685 49.4098 13.8564 46.6463 11.8004C45.2425 10.7613 44.3029 9.70017 44.2366 7.62205C43.3191 7.10252 42.0147 7.50045 40.9094 7.59994C34.4097 8.2079 33.0832 6.39507 32.2984 9.12537C31.5136 11.8557 29.126 13.4585 26.5946 13.1048C25.9977 13.0163 25.1908 12.9721 24.5718 12.9168L22.3057 11.4025C21.3662 10.7724 21.0456 8.93745 20.6919 7.67731C17.9947 8.27422 15.2645 8.29633 12.5231 7.73259C10.2239 7.26832 7.4715 7.42307 5.90186 4.83648C10.5887 5.03545 15.1539 5.17915 19.5644 4.95807C20.2608 3.67583 20.9019 2.7473 21.8194 1.87405C24.616 -0.756764 28.7612 -0.635172 31.1599 2.34936C31.8231 3.1784 32.3537 3.90796 33.028 5.01334L43.7281 4.93597C45.6625 -0.159853 47.5638 1.34347 47.5306 1.36557L48.5476 0.846042C51.7421 -0.778872 56.23 2.3162 57.6228 6.14083C59.1592 6.29558 60.6294 6.18505 62.0664 6.45034C67.3059 7.42308 74.3914 10.8719 75.0325 16.3656C75.1431 17.272 75.0436 17.5484 75.6737 18.2006C76.5359 19.0959 76.5138 20.7982 76.348 21.8041C77.1107 22.5779 77.8181 27.3752 77.995 28.6022L78.7466 34.107C78.813 34.6045 78.7356 35.2235 78.5808 35.6656C79.0009 36.7379 80.2389 37.6111 81.488 37.9538C81.9412 38.0754 82.4055 38.9928 82.8366 39.3023C84.8373 40.7504 85.8985 43.2928 85.0252 46.0231C84.4283 47.8801 83.6214 49.8145 81.3111 50.2678C81.7864 52.169 81.5543 53.7165 81.4769 55.5846L81.2227 61.9074C81.0237 66.738 80.9353 71.5906 80.3273 76.3659C80.2831 76.6864 79.6088 77.3054 79.7304 77.5818C80.6037 79.4609 83.9088 79.5604 84.8041 82.3349C85.4563 84.3578 85.3458 86.3917 84.1299 88.0277L82.3944 90.36C81.6206 91.3991 79.9736 91.7528 78.5256 92.0402C79.9626 97.2797 76.3701 101.602 71.639 102.574C65.2609 103.879 66.9411 102.276 61.3479 103.171C60.7731 106.289 59.8446 108.101 56.9043 108.82C54.9809 109.295 52.2727 108.079 51.1342 106.432C50.4157 105.404 49.8519 103.459 48.7244 103.105L42.4458 101.801C40.4893 101.392 35.8135 100.032 35.095 98.2635L34.4318 98.4846C34.2549 98.5398 33.8349 97.7882 33.5807 97.6887C28.9491 95.9311 25.7656 88.7019 25.7324 83.8825C25.7103 81.2074 27.0921 78.7314 28.8607 76.5427C31.1709 73.6798 45.0214 72.5633 49.2218 78.3445C49.4208 78.6208 49.7856 79.3393 49.6861 79.6488C49.4982 80.2347 46.7568 82.1249 45.2314 81.3069C44.7782 81.0637 44.7893 79.8589 44.7119 79.4057C44.5682 78.6429 42.8659 77.9245 41.9263 78.2008C41.2189 78.4108 39.9256 79.7594 39.9587 80.5331C40.025 81.948 40.3014 83.9267 41.0862 85.0431C41.8158 86.0932 42.9875 87.4197 44.0708 88.0387C45.4304 88.8235 47.4201 89.5641 48.9013 89.6968L53.9639 90.1389C54.6603 90.1942 56.2852 89.8736 56.9816 89.6747L61.4916 88.3924C61.779 88.315 62.0111 88.0608 62.3648 87.7513C64.664 85.8058 66.5432 82.6223 66.6537 79.7041C66.8085 79.5162 67.2506 79.0298 67.3943 78.8751C67.5712 78.6761 66.9301 77.9466 66.9522 77.6481L67.2728 73.326L67.5049 63.0018L67.2728 53.6392L67.0738 44.8403C67.0738 44.6635 67.5712 44.1218 67.4496 44.0223C66.0126 42.9059 66.6316 41.6347 66.2558 39.6008L65.3383 34.7039C65.1394 33.6428 64.9736 32.1063 64.5425 31.1999L63.1386 28.2596C62.8733 27.7069 61.8895 26.7562 61.3811 26.2588C60.6515 25.5624 58.1975 25.5403 57.3906 26.1704C54.5608 29.5639 50.6257 32.5042 46.5136 29.2102C43.8165 27.0436 43.8607 26.0156 43.1643 23.009C39.6934 22.5337 40.5446 23.9375 37.4274 23.3185C32.221 22.2684 34.5645 26.3804 28.9933 28.8565C26.0862 30.1498 22.8142 27.4637 22.7921 27.4416L20.6587 24.3465C16.2925 24.8218 16.0714 24.8992 12.2136 24.446C10.6218 24.2581 9.20695 24.3576 7.68152 23.5948C12.291 21.3067 16.0051 21.992 20.8024 20.7319C22.2505 17.7695 24.6602 16.2772 27.6779 15.7687C29.6676 15.4261 30.9941 16.5536 32.5195 17.7363C35.1503 19.7702 33.238 20.2345 34.3323 21.1298C35.0066 21.6825 37.5269 21.0856 38.3449 21.0193C40.0472 20.8866 42.7553 21.8152 44.0708 20.146C44.6234 19.4497 45.1872 18.4438 45.9167 17.9132C49.465 15.3376 53.8755 16.9183 55.5999 19.6376L57.1806 22.1468L60.8615 23.0974C61.9669 24.1365 63.415 25.5514 64.3767 26.6236L67.0627 34.925C68.2234 38.5175 68.9198 42.2758 68.4555 46.1778C68.4334 46.3326 68.6545 46.8411 68.5329 46.9295L67.5712 47.6038L69.2403 47.9686L69.8372 57.2869C69.9809 59.564 70.0362 61.7195 70.0362 63.9966V68.7277C70.0362 70.6289 70.1246 72.4196 69.8704 74.2325L69.0856 79.9031L68.1349 79.8147C67.9802 79.8036 67.7149 80.301 67.8033 80.4337C67.8918 80.5663 68.5439 80.9864 68.555 81.1411C68.6434 82.357 67.2617 86.8228 65.1836 86.8891H65.2388ZM74.712 45.0835C74.6678 45.8241 75.7068 47.2058 76.0827 47.7696L80.659 47.9022L83.2124 45.7688C81.9965 45.0061 84.8594 42.309 81.1564 39.3134C78.0392 36.7931 76.5801 40.0761 75.0104 39.5787L74.712 45.0835ZM75.3642 82.1028C75.4084 84.0593 74.3804 86.0822 75.2426 87.7845C76.1048 89.4868 78.3487 89.8736 80.1947 89.0004C82.1733 88.0608 83.1792 84.3467 81.5764 82.4565C80.659 81.3732 78.4703 80.7321 77.3428 80.7984L75.3642 82.1028ZM52.14 102.972C52.9691 105.216 55.0362 106.366 56.8821 105.537C57.2138 105.382 57.6559 105.161 57.8328 105.283L58.3855 105.67C59.5572 103.337 59.8667 100.264 58.1865 98.0645C56.8932 97.4566 54.2403 97.6334 53.2012 98.7941C52.328 99.7668 51.7642 101.944 52.1511 102.983L52.14 102.972ZM47.7296 27.1431C49.1776 28.3369 52.0516 28.3369 53.1017 27.331C53.8644 26.6015 54.4835 25.7835 55.1246 25.0429C54.5277 23.8049 54.6935 22.9537 55.9426 22.2352L54.7045 22.0694C54.0634 21.981 54.4392 19.8365 53.566 19.6707C52.4938 19.4718 50.5041 18.897 49.4319 19.2838C46.3478 20.4113 45.2093 25.0871 47.7185 27.1542L47.7296 27.1431ZM47.1879 5.96397C46.2262 7.96472 47.9064 10.496 49.664 11.0487C51.93 11.7672 54.4061 10.3744 54.7598 8.15263C54.9588 6.9146 54.9146 5.68763 54.3508 4.96913C53.6323 4.06271 52.6375 3.65372 51.4879 3.53212C49.5866 3.33316 48.1275 4.0185 47.1879 5.96397ZM23.5217 23.0753L24.417 25.3524L23.7759 25.5956C23.6875 25.6287 23.7759 26.0598 23.8643 26.082L24.4834 26.2035C25.8651 26.4688 27.4347 26.7894 28.6285 26.4909C32.011 25.6398 30.3087 23.8159 32.3095 22.1247C31.7678 21.2956 31.2483 20.4003 30.8504 19.5602C29.5128 16.7636 28.8496 18.8306 26.6499 17.0731L26.3736 17.6258C26.3293 17.7142 26.252 17.7363 26.1856 17.6589L25.7988 17.2499L24.3949 19.6818C23.8864 20.555 23.798 21.9147 23.5327 23.0753H23.5217ZM23.389 7.40097C23.389 9.2359 24.0854 10.9824 26.0972 11.1593C27.7774 11.314 28.9823 10.8829 30.1098 9.60069C31.0383 8.53952 31.4473 7.00303 30.9609 5.41128C30.6735 4.47171 29.4686 3.34421 28.308 2.95733C26.8047 2.45991 25.9425 2.93522 24.9034 3.81953C23.6875 4.84753 23.389 5.79816 23.389 7.40097Z" fill="black"/>
<path d="M13.2418 96.3731C11.5284 92.9022 11.1747 82.5669 11.6279 78.4328L12.0369 74.6855C12.6338 69.2691 11.639 67.8653 14.5682 62.6147C15.5962 60.7908 16.5579 59.4423 18.5366 58.4143C19.0561 58.149 20.0178 57.6184 20.5373 57.6073C21.0568 57.5963 22.1401 58.4364 22.2285 58.6685C21.0237 59.1328 20.1504 59.4423 19.454 59.8955C18.9013 60.2603 19.2108 61.852 19.1003 62.5042L15.9278 67.2905C13.4186 71.0709 14.8004 73.2596 13.9271 75.6583L14.6124 76.3546C14.7672 76.5094 13.8829 76.9294 13.8718 76.9184C15.7178 80.732 14.2145 84.634 16.3258 88.6244C17.6744 87.6296 16.3811 86.5684 16.2705 85.5846L15.4967 78.886C15.4194 78.1675 15.342 76.4873 16.0273 76.1999C16.7127 75.9125 18.0281 76.5757 18.2934 77.1395C18.6581 77.8911 18.5918 79.085 18.5255 80.0135C18.3818 82.0253 18.6913 83.9155 18.9124 85.8609C19.5314 85.5404 19.9404 85.0761 19.8851 84.7334C19.4872 82.3127 19.3877 80.4114 19.4651 78.0459C19.4982 77.1616 19.045 75.393 18.227 75.1719L15.6183 74.4755C14.1703 71.3804 17.2875 66.7378 19.6751 64.6155C21.2226 67.1689 20.1725 68.8823 22.6817 70.5293C23.0355 70.7614 23.6103 71.5573 23.5439 71.9442C23.4776 72.3311 23.0576 72.8395 22.5933 73.3259C21.2005 74.7961 22.2064 75.5146 20.7363 77.04L20.8579 82.2684C20.9021 84.1476 21.289 86.4468 22.0738 88.2486L23.5329 91.5979C23.9087 92.449 24.2735 94.0408 24.782 94.704L28.9272 100.065C30.0657 101.535 34.3878 103.392 36.7312 105.393L39.4504 106.609C43.9051 108.599 38.2345 107.084 46.3812 109.494C47.0997 109.704 48.1056 110.246 48.7356 110.356L55.4785 111.594C57.2803 111.926 59.6458 110.478 61.5028 111.605L64.7195 110.268C64.8521 110.213 65.3385 110.975 65.3827 110.832C65.4269 110.688 65.7696 110.102 65.9022 110.047L70.567 108.057C73.0651 106.996 74.878 104.907 77.6083 103.569C80.7476 110.843 73.8278 111.384 76.9671 113.927C78.2383 114.955 80.228 118.249 80.7365 119.664C80.228 119.885 79.9406 119.995 80.1396 119.918C81.1234 120.758 81.466 121.288 81.5876 122.394L82.1735 127.28C82.1956 127.512 81.9635 128.197 81.864 128.363C81.7645 128.529 81.2118 128.142 81.046 128.009L76.7129 124.571L78.9237 123.676C76.116 120.415 76.4144 117.685 74.0047 115.032C73.2751 114.424 72.1587 113.739 72.1255 113.087L74.0489 110.279L74.8006 109.273C74.9885 109.019 74.6569 108.079 74.3363 108.101C71.8824 108.3 69.2516 111.793 64.7084 112.235C64.3768 112.667 63.7578 113.341 63.4151 113.241L61.8013 112.799L60.8728 113.772C60.6627 113.993 59.8005 113.451 59.48 113.484C53.124 114.291 55.3569 113.297 52.4718 113.319C48.9788 113.352 43.1203 111.307 39.7489 109.66C39.2183 109.395 38.6766 108.952 38.1571 108.82C35.4268 108.123 33.3266 106.399 31.2927 104.619L27.0038 100.872C25.7879 99.7998 24.9699 98.3186 25.9095 96.6495L24.9036 96.6053C24.4835 96.5832 24.2403 93.9634 21.7753 93.3776C20.7363 93.1344 19.2772 93.6428 18.7576 94.704C17.8623 96.539 18.835 99.1919 20.7031 100.043C21.4437 99.8109 21.0126 96.5942 19.4098 96.1521C19.5093 95.8094 20.0399 95.0246 20.3936 94.7372C22.3501 93.1786 24.4061 98.9266 24.992 99.833C25.8874 101.226 26.6832 102.397 27.468 103.779C27.4902 103.613 27.5896 102.95 27.5896 102.972C30.9611 106.288 33.4592 108.322 37.6928 110.091C40.0694 111.086 42.3355 112.556 44.8668 113.208C47.5639 113.905 50.858 114.391 53.5551 114.833C54.6937 115.021 61.2265 114.745 63.0614 114.59C65.2169 114.402 70.6001 111.55 70.1801 112.401L69.7711 113.23L72.9546 116.193C73.9273 117.099 74.6569 118.149 74.48 119.343L75.3533 119.553C75.5633 119.597 75.1985 120.493 74.9111 120.36C69.1963 117.762 66.9081 116.546 60.1874 116.801C58.3193 116.878 56.0864 117.696 54.3068 117.011C53.8646 116.867 52.8587 117.11 52.3171 117.221C52.4497 118.724 52.4276 119.741 51.8418 120.868C51.2559 121.996 50.0953 122.471 48.6361 122.681C49.0783 120.327 48.1719 118.37 46.5801 117.066C43.0208 114.159 41.2301 116.248 34.3104 114.137C32.8844 113.706 31.1821 113.672 29.8778 113.12L26.7274 111.771C24.8593 110.964 21.7643 108.455 20.1615 106.896C17.8512 104.641 15.9279 101.845 14.513 98.9929L13.2086 96.351L13.2418 96.3731Z" fill="black"/>
<path d="M20.4377 61.189C20.6256 60.7247 22.0073 60.5037 22.5158 60.2605C22.9469 60.0504 22.7037 59.0667 22.6595 57.8728C23.5217 58.0829 24.5718 58.9009 24.9918 59.6636C25.4893 60.581 25.5998 61.8964 24.8371 62.7918C24.2844 63.444 22.759 63.7093 21.8304 63.5324C21.1451 63.3998 20.106 61.9628 20.4377 61.1779V61.189Z" fill="black"/>
<path d="M42.0152 62.217C40.8324 61.4875 40.4124 59.7299 40.6113 58.2487C40.6998 57.5744 41.6946 57.0659 42.2805 56.9775L42.5347 56.2922C42.3026 56.9001 45.0218 53.5729 47.5974 56.0158C48.1501 56.5353 49.7087 57.298 49.5097 59.951C49.4655 60.5258 48.5922 61.2222 47.9622 61.6312L48.9238 62.4049C48.3933 63.0792 47.3542 64.1293 46.6578 64.1183L45.0218 64.0962L41.9931 62.2281L42.0152 62.217ZM42.5237 60.2715C42.3468 61.1669 43.5406 62.1728 44.1928 62.1507L44.5134 63.4108L44.7344 62.4381C44.7676 62.2944 45.3977 62.217 45.5966 62.1949C47.2879 61.9296 47.8627 60.0615 47.3542 58.6024L46.7241 56.7896C46.5473 57.0438 46.3594 57.4528 46.1714 57.4086L45.3866 57.2538L43.1869 56.9775L42.5347 60.2605L42.5237 60.2715Z" fill="black"/>
<path d="M45.6067 40.8278C45.5514 40.253 45.7062 39.026 45.8499 38.4623C46.1594 37.2463 47.7732 36.2183 49.0555 36.6826C50.2604 37.1248 51.5647 37.9096 51.3326 39.6782C51.1557 40.9936 50.5478 41.7674 48.956 42.4416C47.939 42.8727 45.7836 42.4416 45.6177 40.8278H45.6067Z" fill="black"/>
<path d="M28.3846 40.3193C27.1687 41.6126 25.1348 41.2589 24.2505 40.1204C23.1562 38.7055 23.5873 37.0032 24.8585 35.8204C25.9086 34.8477 27.2903 34.2729 28.5283 35.113C29.5563 35.8094 29.9874 37.2795 29.4679 38.6834C29.2579 39.2471 28.8489 39.8109 28.3736 40.3083L28.3846 40.3193Z" fill="black"/>
<path d="M76.4912 42.4861C75.629 40.9385 77.8729 39.6231 78.8125 39.8773C78.9673 39.9216 79.3652 40.4521 79.4868 40.5516C79.6415 40.6953 79.951 40.5295 80.3269 40.3969C82.0181 41.5796 82.4713 44.5531 80.5701 46.1007C79.8073 46.7197 77.7624 46.7749 77.0218 46.2665C75.6843 45.36 75.4853 43.503 76.4912 42.4861Z" fill="black"/>
<path d="M47.5422 23.0425L48.7913 21.2518C49.4435 20.3122 50.9579 20.1574 52.0854 20.5885C53.047 20.9644 53.7103 21.9813 53.7434 23.3852C53.7987 25.1869 52.008 27.0108 50.0404 26.8671C48.316 26.7345 47.0669 24.6674 47.5422 23.0425Z" fill="black"/>
<path d="M25.4238 20.6435C25.6781 20.1903 25.9986 19.107 26.5624 18.9523C28.2205 18.488 29.4253 19.4497 30.1659 20.9862C30.6634 22.0031 30.597 23.1859 29.7791 24.3355C29.2706 25.0429 27.8888 25.6177 26.7171 25.4519C25.8218 25.3303 24.8601 24.5013 24.6059 23.827C24.1637 22.6553 24.7606 21.7931 25.4238 20.6435Z" fill="black"/>
<path d="M76.0499 85.8282C75.3756 84.3138 77.0668 82.2136 78.6033 82.302C80.2946 82.4015 81.3557 84.347 80.9799 85.6513C80.5377 87.1657 79.145 88.3816 77.3764 87.9284C76.9674 87.3868 76.3594 86.5025 76.0609 85.8282H76.0499Z" fill="black"/>
<path d="M55.5772 104.52C53.9191 103.624 52.869 101.812 53.8307 100.142C54.4055 99.1365 56.6163 98.7165 57.5006 99.7003C58.1196 100.397 58.4291 102.099 58.0864 103.039C57.8322 103.735 56.4615 104.232 55.5772 104.52Z" fill="black"/>
<path d="M48.4039 6.38368C49.255 5.10144 49.7967 4.67034 51.1342 4.76982C52.6154 4.86931 54.2072 5.89732 53.7429 7.71015C53.5108 8.61656 52.5491 9.6114 51.8306 9.77721C50.7473 10.0314 49.4098 9.63352 48.6581 8.84869C47.9065 8.06387 47.8623 7.23483 48.4039 6.39474V6.38368Z" fill="black"/>
<path d="M25.8213 4.86955C25.9098 4.82533 26.6393 4.94692 26.6393 5.04641C26.6393 5.19011 26.6393 4.33896 26.6283 4.19526C27.4573 3.64257 29.0712 4.36107 29.6902 5.34486C30.4087 6.47236 30.265 7.86514 29.2038 8.81577C28.1426 9.7664 26.4846 10.4959 25.2134 9.57848C23.5 8.34045 24.6054 5.47751 25.8213 4.86955Z" fill="black"/>
<path d="M44.7656 60.8795C45.4066 60.8795 45.9263 60.3598 45.9263 59.7188C45.9263 59.0778 45.4066 58.5582 44.7656 58.5582C44.1246 58.5582 43.605 59.0778 43.605 59.7188C43.605 60.3598 44.1246 60.8795 44.7656 60.8795Z" fill="black"/>
</svg>
