<svg width="139" height="57" viewBox="0 0 139 57" fill="none" xmlns="http://www.w3.org/2000/svg">
<path d="M26.8121 54.7722C26.337 54.8488 25.6396 55.117 25.2641 55.071L23.6854 54.8794C23.7314 54.7108 23.8923 54.2587 24.0226 54.1207C24.1758 53.9675 24.5973 53.9215 24.7889 53.8602L25.425 52.8256C26.406 51.2393 21.8845 51.9137 20.7732 52.3428L18.3745 53.2778L17.5928 54.6649L17.7921 55.8604C16.5736 56.6191 15.3704 56.0673 14.2132 55.7761C13.3013 55.5462 12.9947 55.3546 12.5655 54.6112C11.8758 53.408 11.8988 51.8447 12.5655 50.8178C12.8951 50.3043 13.2016 49.6529 13.6461 49.1778C14.2975 48.4804 16.405 48.718 16.9338 48.3348C17.5545 47.8826 16.6042 48.2505 18.022 46.5798C19.0566 45.369 20.597 44.1274 22.3519 45.5989L22.2063 46.5339L22.7121 47.967C23.5857 48.6107 24.8809 48.741 25.9078 48.3501C26.904 47.9746 27.2106 46.9784 27.4022 46.0511C27.8313 43.9896 26.9654 44.8402 26.2297 43.5527C25.6473 43.5834 25.1491 43.4684 24.7506 42.8937L24.3751 43.2615L22.6815 42.3879C21.4859 41.7748 21.0644 41.6138 19.9992 40.6099C18.2289 38.9239 17.6235 37.3146 17.3323 34.9466C17.0027 32.3026 16.9261 34.8316 17.1024 31.6742C17.1254 31.3294 17.0794 30.7928 17.1407 30.4556L17.2327 29.9882C17.3016 29.6586 16.6425 30.1798 15.3321 29.3291C14.1979 28.6011 14.1136 27.6278 14.3435 26.2867C14.4125 25.9112 14.5887 24.9839 14.9489 24.9839C15.631 24.9839 16.1521 25.0299 16.7575 24.7617C17.1943 24.5701 17.4472 23.957 17.6542 23.3975C18.4129 21.3973 16.3743 20.1942 16.382 20.1712L16.2671 20.5467L15.4854 19.9796C14.4814 20.3168 13.9603 18.4852 13.1403 17.9794C12.9027 17.1058 12.7265 16.0175 12.3663 15.1669C11.9678 14.2243 10.8566 14.1783 10.0366 14.5614L9.8833 15.9945C9.799 16.7609 9.75303 17.6116 9.12461 18.1634C8.89471 18.3703 8.4502 17.7495 8.23562 17.5732C7.87543 17.282 7.58422 16.7685 7.3773 16.2857C6.73356 14.8067 6.48069 13.5346 7.16274 12.0325C7.36966 11.5727 7.47693 11.0362 7.90609 10.5534C8.64179 9.7334 9.53845 9.14331 10.711 9.44985C12.1211 9.8177 11.8835 8.72183 12.7878 9.51884C12.8951 9.6108 13.2093 9.16631 13.3625 9.17397L15.9145 9.31191L17.5238 8.03978C17.7461 7.11249 17.0181 5.88632 16.0141 5.78669C14.4355 5.63342 12.9334 5.40349 11.3854 5.52611L9.22424 5.69473C8.47322 5.75604 7.59189 6.23118 6.85618 5.74071C5.0859 7.22744 4.94795 6.54537 4.12029 9.02836C3.97468 9.46518 3.96704 9.70277 3.95171 10.1013L3.75245 14.6228C3.71413 15.4964 3.82143 16.439 3.71414 17.4276C3.61452 18.3089 3.75245 19.1137 3.85208 20.0026C4.08199 22.1484 4.05133 24.3708 4.99394 26.2714C5.34647 26.9764 6.64926 27.4516 7.18571 27.1757C8.27394 26.6239 8.23564 25.505 8.31228 24.4705L8.41191 23.0833L8.28927 21.8725C9.96759 21.8802 10.5424 23.114 10.8566 24.4474C11.1938 25.8882 11.5923 27.191 10.8412 28.5474C10.4504 29.2601 10.0596 30.0342 9.50012 30.4863L9.15525 30.1032C8.89469 31.0304 8.25861 31.2834 7.18571 31.3753L7.07079 33.7664C8.52686 33.5058 9.822 33.5595 11.0405 34.2799C12.1364 34.9313 13.2783 37.2303 12.3356 38.1116C12.4046 38.0503 12.4966 38.648 12.3816 38.625L7.93677 37.9736C7.2164 37.8664 6.27376 38.0426 5.90591 38.5484C5.08591 39.675 5.34647 43.683 5.4231 45.277C5.45376 45.8518 5.30815 46.212 5.99787 46.5185L6.56496 45.7675L7.66852 44.8785C9.00198 44.6256 11.2781 44.2348 11.8145 45.8595L12.0061 46.4342C12.0521 46.5722 11.531 46.5491 11.3854 46.6488L9.08631 48.2198L8.51916 47.4228L9.02498 47.1776C9.15526 47.1086 9.14761 46.7791 9.08631 46.4878C7.63023 47.1163 7.77581 47.2772 6.38105 48.1279C6.28142 48.1892 6.39637 48.5647 6.3274 48.6796L5.26982 50.4499C5.1472 50.6492 4.54944 50.8484 4.35785 50.7258C4.16627 50.6032 4.02069 50.243 3.9134 49.9288C3.08574 47.4841 3.07808 46.097 2.90948 43.7672L2.74085 41.4376C2.65656 40.2957 2.83282 37.6901 3.1317 37.2073C3.70647 36.2723 4.90965 37.146 7.8218 36.0731C8.48087 35.8279 9.68406 36.3029 10.1362 36.7781C10.4657 37.1229 10.6267 37.3145 11.0942 37.3682C10.9332 36.6631 10.4734 36.2647 9.86029 36.0578L8.43488 35.5673C7.97506 35.8278 7.42328 35.7435 6.94814 35.8355C6.25842 35.9734 4.0973 36.7168 3.73711 35.7589C3.44589 35.7129 3.00144 35.6516 2.76387 35.4753C2.51097 35.2837 2.3347 34.7397 2.31937 34.3641C2.28871 33.6668 2.54163 33.1686 3.10107 32.862L3.63748 32.5631C3.91337 32.4099 4.833 33.2605 4.74103 33.8276C4.67972 34.1878 4.35021 34.4867 3.89806 34.9312C4.11264 35.1075 4.84832 34.9082 5.02458 34.6323C5.30813 34.1879 5.36944 33.5057 5.12421 33.1379C4.71038 32.5095 4.46515 32.157 3.83674 32.1187C3.34627 32.088 2.75617 32.2029 2.34233 32.6628C1.37673 33.728 1.6603 35.46 2.89414 36.3029L2.21974 38.2649C2.06647 38.7017 2.45732 40.2191 2.08947 41.0314C2.51097 42.3802 2.43433 45.6832 2.76387 47.3692L3.23133 49.7909C3.30031 50.1587 3.53021 50.7718 3.66049 51.1167L4.9786 51.4308C5.89823 50.902 6.41938 50.0897 6.77957 49.0628L7.95974 47.7524C8.02871 47.6757 8.28163 47.5531 8.36593 47.5147C8.48088 47.4611 8.76443 47.9286 8.74144 48.0512C8.37359 49.7985 6.69527 49.9442 7.20872 54.6802C7.23938 54.9868 7.59954 55.4235 7.3773 55.7607L5.04759 55.1247C4.98629 55.1094 4.87134 54.6648 4.8177 54.6878L4.44981 54.8335C3.44589 54.5346 2.5799 53.6762 2.19672 52.6876C1.63728 51.2546 1.20048 51.3236 0.924594 49.2927C0.87095 48.8712 0.441796 48.1508 0.403478 47.6374C0.303852 46.1736 0.181242 44.7942 0.21956 43.3228L0.27321 41.2996L0.326861 38.7247C0.380506 36.0961 0.464781 33.5748 0.349827 30.9998L0.21956 27.988L0.11993 25.4668C0.219556 27.9881 0.234898 20.5774 0.135272 23.0681C0.265553 19.9107 -0.0563582 20.5927 0.188876 16.9678L0.296177 15.3508C0.311504 15.0826 0.150592 14.6458 0.127601 14.3545C-0.0946423 11.5497 -0.247914 6.79828 1.66031 4.72912C2.72555 4.31528 1.55302 4.69846 3.52255 3.5336C3.89807 3.31136 4.21993 3.2194 4.66442 3.10444L6.16649 2.71359C6.91752 2.51434 7.63019 2.31508 8.4272 2.27677C11.3777 2.13116 14.1596 2.16184 17.1177 2.591C18.3209 2.76726 19.8076 2.47605 20.7962 3.69455C21.4706 4.52988 20.8575 6.07024 21.44 6.74464C21.5319 6.85193 21.8768 6.48407 21.9304 6.35379L22.85 3.90911C23.6087 1.88593 24.1299 2.59098 26.3523 1.66369C27.042 1.37248 27.6628 1.25751 28.3295 1.08125C33.3031 -0.206225 32.9353 0.514151 37.3725 0.0773284C37.794 0.0390106 38.3534 0.276572 38.7059 0.307226C41.2043 0.491151 40.6449 0.736396 42.9976 1.75565C43.511 1.97789 44.2927 2.33044 44.6299 2.64465C44.6912 2.69829 44.6529 3.25006 44.7295 3.21175L45.174 3.01249C46.676 4.89006 46.4998 3.22704 48.3237 6.10088C48.3544 6.14686 48.5306 6.36913 48.5306 6.36913C48.5306 6.36913 48.4233 6.53005 48.3697 6.59903C48.7145 6.85959 48.9905 7.21213 49.1821 7.62596C49.343 7.97082 49.182 8.99771 48.6226 9.03603C46.6607 9.15099 44.4613 8.70653 42.852 7.62596L40.5606 6.09325C40.4686 6.03194 40.0854 5.95526 40.0777 6.04723C40.0088 7.57994 40.4303 8.08576 38.8592 10.0476C38.4071 10.6071 38.0852 11.2968 37.3265 11.6723C36.3686 12.1474 33.8779 11.9405 33.5024 10.7833C33.4488 10.6224 33.9239 10.4231 34.0772 10.2852C34.9431 9.51118 35.4949 8.42293 35.8168 7.29639L35.5639 6.00125C35.1807 5.59508 34.9431 5.26556 34.6979 4.77509C34.7286 4.74444 34.5446 4.95904 34.4833 5.03568C34.4067 5.1353 34.0542 4.84409 33.9162 4.84409C33.1422 4.84409 32.0386 4.86704 31.1803 4.7061C28.1072 4.10834 28.1303 5.54911 27.3409 4.77509C27.1723 5.13528 26.9117 5.4648 26.5056 5.76368L25.9844 7.02818C25.8465 7.37304 25.6396 7.97079 25.7775 8.26201C26.337 8.50724 27.3792 8.52257 27.7547 8.83677L29.1495 10.0246C30.9121 11.5267 31.4485 13.0594 32.0003 15.4197C32.1536 16.0865 32.5751 16.8376 32.5904 17.6959L32.6364 20.1175C33.2495 20.562 33.9852 22.7231 34.0158 21.9414L34.0312 21.635C36.4529 22.7768 36.9357 20.447 37.6637 21.2594C38.5067 22.1943 37.9626 23.2213 37.3955 23.9876C36.8284 24.754 36.3379 25.7196 35.288 25.9419C35.1961 25.9572 34.9278 26.0032 34.9048 25.9419L34.8052 25.643C34.5293 25.8806 34.2304 26.1488 33.9929 26.2101C33.7553 26.2714 33.2648 25.9036 33.0273 25.8499C31.7091 25.5664 30.5673 24.777 30.1074 23.3822C29.4637 21.4433 29.3027 22.5163 29.1725 20.3781C29.0575 18.3626 29.2874 15.5348 28.8813 13.8948C28.6437 12.9521 27.7241 12.1168 26.7585 12.0018C26.5132 12.316 26.7738 12.8142 27.134 13.1667C27.5172 13.5346 27.4942 14.3392 27.6474 14.8526C27.8007 15.3661 27.977 15.9716 27.9386 16.5233L27.6704 19.8646C27.5478 21.3437 27.1646 23.3132 27.2873 24.3248L27.4482 25.6123C29.5403 28.9843 29.2031 28.5245 32.874 30.0649C34.3147 29.3675 33.1116 30.2488 35.5792 29.7353C36.6521 29.5131 37.5718 29.2449 38.3458 28.4325C39.6333 27.0914 39.9858 25.3288 40.162 23.4972C40.369 21.3667 40.6678 20.4241 39.273 18.4699C38.8822 18.2094 38.4607 17.8338 38.2691 17.5272C37.9396 17.3969 37.9166 17.4506 38.2538 17.7802L36.0007 17.4736C35.9088 17.4276 35.7632 16.9142 35.7555 16.6537C35.7402 16.2552 36.085 15.8873 36.3686 15.7493C35.9854 14.8297 37.0123 14.4312 37.3571 13.9254C38.1235 12.8295 39.25 13.1054 41.3805 13.205C42.76 13.274 43.9862 13.3506 45.3426 13.6265C45.8407 13.7261 46.1856 14.4081 46.4921 14.6457C47.0976 15.1132 47.4807 15.3355 47.6187 16.1555C47.6953 16.6307 48.0555 17.328 48.0478 17.7802L48.0095 22.884C48.0019 24.2405 46.4232 29.7276 45.7258 31.3446C46.883 31.3063 48.0095 30.3484 48.454 29.2525L49.6648 26.2714C50.5615 24.0489 50.2013 23.5202 50.5538 20.769C50.6228 20.2325 50.7454 19.7881 50.6994 19.2363C50.6764 18.8991 50.845 18.5312 51.0519 18.2783C50.9753 17.2208 51.0366 15.9945 51.1975 14.845C51.3278 13.8947 51.0749 12.8602 51.1592 11.9252C51.3278 10.0246 51.4658 8.15472 50.9983 6.30014L50.6535 4.92838C50.4082 3.9551 49.1361 2.00857 49.4579 1.58707C49.9714 0.920344 54.1174 2.4607 54.4086 7.02818C54.4775 8.07809 54.4699 9.11265 54.3779 10.1702L54.1021 13.4349L53.7802 15.1592L53.6806 16.9219C53.6193 17.9335 53.328 18.9987 53.2207 19.9643L52.8452 23.2213L52.623 25.3441C52.5387 26.1411 52.3701 26.8998 52.2245 27.6814L51.8643 29.5821C51.7264 30.3331 51.7187 31.1838 51.7263 32.0651C53.2514 30.7853 54.2783 26.3633 54.6385 24.5471L55.014 22.6772C55.0983 22.2404 55.4585 21.474 55.5121 21.0372C55.6807 19.6041 55.811 18.2093 56.1022 16.6919C56.2402 15.9869 56.5161 15.1745 56.5314 14.5002L56.5774 12.5076L56.7843 7.97846C56.8456 6.69098 56.6617 5.44947 56.608 4.08536C56.5774 3.29601 56.0869 2.30741 55.9337 1.40311C56.0333 1.24217 56.5927 1.3495 56.746 1.53342L58.4933 3.73286C60.1256 0.920335 64.923 1.56407 66.1951 3.54127C66.0342 4.19268 65.1606 4.56049 64.6011 4.51451C64.5475 4.59881 64.1643 5.17362 64.0647 5.08166L63.6585 4.69081L63.4899 5.43415C63.4593 5.58742 63.0531 5.51081 62.8615 5.50314C62.8385 5.96296 62.509 6.3078 62.1565 6.78294C61.3595 7.85584 60.8 9.98633 60.5778 11.4424L60.3095 13.2127C60.2789 13.4196 60.095 13.8258 60.1256 14.0633C60.2865 15.3508 60.1103 16.4007 59.9034 17.6499C59.7961 18.3319 59.8114 19.2133 59.7348 19.995C59.5508 21.7652 59.3746 21.7422 59.1983 23.5891C59.1217 24.3938 59.137 25.1372 58.9301 25.8882L58.5163 27.3826L58.2634 28.6165C57.8955 30.4174 57.2977 32.2643 56.6157 33.8737C56.1559 34.9466 55.4278 35.8355 54.7917 36.7934C54.4316 37.3375 54.1174 37.805 53.5733 38.2342L51.6574 39.7363L50.2779 40.7709C49.9254 41.0314 48.9904 41.3992 48.9138 41.859C48.6226 43.5297 48.4387 45.438 49.0058 47.009C49.7721 49.1701 53.2667 50.1587 55.5045 50.3273L55.106 51.7297C53.0445 53.477 50.3929 54.0978 47.7796 53.4693L47.4041 52.818C47.3198 52.9176 47.1819 53.2241 47.0975 53.1781L46.5611 52.8256L44.6989 53.6533L43.534 54.1898C43.1125 54.3814 40.5989 54.8565 40.3 53.7682C40.2846 53.6993 40.1007 53.7223 40.0854 53.7912L39.9704 54.2127C39.3114 53.9138 38.7213 53.5536 38.1235 53.0019L39.6716 51.929L39.8018 52.2585C39.8325 52.3275 40.0624 52.2586 40.0471 52.1896L39.9245 51.6914C41.1047 51.3312 41.6718 50.3043 42.3232 49.3233C43.3501 47.7676 43.396 46.0434 43.0052 44.1811L42.9362 43.8363C42.9286 43.7903 42.8826 43.7673 42.8443 43.8056L42.599 44.0585C42.2389 44.0048 41.6717 43.9512 41.2426 43.9742L39.4493 44.0738C39.0125 44.0968 38.3151 44.4264 37.7863 44.4187C36.4758 44.3957 33.8703 44.365 32.7897 44.9321C32.4065 45.139 32.4372 46.2656 32.5981 46.6948C33.0809 47.9669 36.2919 48.0436 37.7557 47.6757C38.1772 47.5684 38.6216 47.5301 39.0355 47.5378L39.3574 47.2006C39.4723 47.0856 40.0241 47.2235 40.0624 47.4458C40.2693 48.649 37.2729 50.0974 36.7211 50.243C33.5177 51.109 35.196 50.6262 31.8087 50.8024C31.5865 51.2546 31.2263 51.6684 30.9581 51.7757C31.3336 52.1666 30.7665 52.4501 30.483 52.7719C29.502 53.8908 28.3908 54.527 26.8428 54.7799L26.8121 54.7722ZM37.725 2.92053C37.9626 2.62165 38.476 3.0508 38.7059 3.10444C39.411 3.24239 40.3996 3.25772 40.5529 4.208C40.8288 3.99342 41.0817 3.75583 41.2043 3.85546C42.5914 4.8977 41.6718 4.16968 43.5187 5.26557C44.5226 5.86333 45.6951 6.32315 46.2622 7.18914C46.3542 7.32708 46.3005 7.35769 46.7527 7.57994L47.3505 7.52633C47.4501 7.51867 47.3044 7.00521 47.2201 6.95157L45.3196 5.87098C44.6529 5.49546 44.1317 5.18891 43.5416 4.75975L42.3921 3.91678C41.7714 3.46463 38.3228 2.32275 37.9396 2.32275H35.2344L33.5101 2.36873L33.9009 2.08518C33.1116 2.27677 31.3413 2.57567 30.8355 2.06221C27.7011 3.23474 26.268 2.26144 23.4401 5.00499L23.6777 5.60277C23.4938 6.36913 23.2179 7.09714 23.5551 7.82518C24.4288 5.15826 23.5781 5.05099 25.8312 3.97043C27.7394 3.0508 28.1992 3.06613 30.2224 2.96651C31.5865 2.89753 32.3528 2.28444 33.7706 2.76725C35.5639 2.4607 36.951 2.70595 37.8247 4.40726C38.3075 5.34988 38.2998 6.7523 37.84 7.74856C37.2958 8.93641 36.1387 9.58017 35.1347 10.4998C36.4222 10.6914 37.3265 9.65677 37.7863 8.63751C37.8936 8.40761 38.2691 7.95546 38.3458 7.73322C38.7673 6.49172 38.591 4.89004 38.2845 3.71752C38.0852 3.55659 37.6024 3.1121 37.7327 2.95116L37.725 2.92053ZM46.1166 48.8406C46.8064 49.7832 47.726 50.3656 48.7835 50.6339C50.094 51.7144 49.9791 51.1013 51.5731 51.6838C52.1402 51.8907 52.7149 51.952 53.1211 51.6071L52.2781 50.7948C52.2015 50.8561 51.9793 51.109 51.8566 51.063L51.3891 50.8791L49.9714 50.7181C49.0901 50.6185 48.2701 50.0361 47.4501 49.6299L46.5764 48.2428C46.837 46.0357 46.8217 43.9205 46.5764 41.6828C46.5305 41.2689 46.5764 40.6176 46.8753 40.3954C47.1052 40.2268 47.7183 40.1731 47.9712 40.0275C48.569 39.675 49.297 39.3224 49.7798 38.9469L51.4275 37.6441L52.6919 36.5865C55.06 34.6093 55.9796 29.7583 56.0716 29.72L56.3935 29.5667C56.0563 29.1912 56.2938 28.6241 56.3475 28.149C56.5007 26.8002 56.608 25.5817 56.9682 24.2942C57.3284 23.0067 57.4434 21.6732 57.6349 20.3244L57.9721 17.9948C58.0488 17.4813 58.0028 16.9602 58.363 16.6383L58.248 16.2934C58.2174 16.1938 58.4243 15.8719 58.4243 15.757V14.4082L58.4933 12.8832C58.5469 11.703 58.6542 10.6301 59.0834 9.53418L60.1486 6.79829C61.4744 3.39567 65.0839 3.79414 64.218 3.41863C62.8692 2.8362 60.4935 4.6908 59.6964 6.31548C58.4396 8.8981 57.8342 12.3467 57.9108 15.2742C57.9338 16.1095 57.566 16.8758 57.4893 17.6269L57.2135 20.3551L56.8686 22.6772C56.5697 24.6544 55.8493 26.9534 55.7957 27.3979C55.5658 29.3368 55.3895 31.2297 54.5312 32.9693C54.1864 33.6667 53.7955 34.5097 53.3434 35.0768L52.1632 36.5329L51.757 36.2877C51.7417 36.6479 51.6497 37.1306 51.4275 37.2992L50.1323 38.2572C49.3277 38.8473 48.6456 38.855 47.9712 39.3531C47.4041 39.7746 46.6301 39.9738 45.9097 40.242C44.9824 40.5869 43.7716 41.1847 42.7983 40.5027C42.4228 38.6864 44.3463 37.4219 45.6415 36.6555C43.6106 36.4716 41.6871 39.8129 42.4764 40.7939C42.6144 40.9625 43.1431 41.131 43.3884 41.1003L45.9174 40.7709C46.5688 44.2578 46.8753 47.2159 44.7142 50.0438C43.2658 51.9443 40.4762 52.1052 41.1046 52.611C41.94 53.2854 45.5955 50.6261 46.109 48.8482L46.1166 48.8406ZM2.10477 22.1944L2.13545 19.8646C2.15844 18.2323 2.16611 16.6383 2.09714 15.006C2.0435 13.6112 1.90555 12.293 2.09714 10.86C2.18144 10.2316 2.11246 9.42689 2.37302 8.85979C2.5876 8.39997 2.64125 7.95548 2.66424 7.46501C2.72555 6.00127 5.09358 5.1506 6.44237 4.91303C9.41583 4.39957 7.90611 4.96667 10.8489 4.42255C12.5196 4.11601 14.2745 4.17735 15.9605 4.21567L16.7499 4.93605C17.1714 4.69848 17.6235 4.47624 17.8841 4.56054C18.819 4.89007 19.0106 6.89789 19.2635 7.87883C19.7769 6.89023 19.4398 5.66409 18.9493 4.60652C18.6964 4.07773 17.4472 3.91678 16.8188 3.8708L13.6001 3.66387C12.4276 3.58723 11.3087 3.85545 10.1362 3.9934L5.64533 4.52986C4.2429 4.69845 2.92479 5.25791 2.36535 6.70633C0.924598 10.4002 1.76758 13.4579 1.72926 16.3394L1.67561 19.7957L1.72926 22.9147C1.74459 23.8497 1.74458 25.0375 1.91318 25.8805C1.93617 26.0031 2.25037 26.3021 2.19672 26.4094L2.01281 26.7465C3.44589 27.8041 2.25041 28.992 5.06294 29.7737C6.08219 30.0572 7.03247 30.1645 8.07471 29.6203C9.66873 28.7927 10.6267 25.9725 10.55 25.6659C10.4964 25.4513 10.0826 25.1755 9.8833 25.1908L9.45414 26.9688C9.02498 28.7697 7.38499 30.0036 5.58405 29.3905C4.95564 29.1759 4.01301 28.9459 3.56086 28.2639C2.31936 26.4093 2.07411 24.5011 2.10477 22.1867V22.1944ZM15.7689 12.7069C16.1521 12.9904 16.2057 14.002 16.405 14.3929L17.2633 16.1248C17.4549 16.508 18.3209 16.7686 18.7347 16.9755C20.2521 17.7342 22.8194 17.328 23.739 15.5654C24.4517 14.2013 24.3751 12.1704 23.2639 10.9826C21.9917 9.61845 18.2826 9.44219 17.6082 10.4614L17.4243 10.1856C17.4243 10.1856 17.3246 10.2239 17.317 10.2699C17.3016 10.3158 17.271 10.5381 17.248 10.5764L16.313 12.1781C14.788 12.2241 9.25488 10.6147 8.5345 12.9138C8.15133 14.14 7.79115 15.5194 8.58816 16.646C8.7261 15.9793 8.70311 15.3891 8.64181 14.6994C8.54984 13.5499 9.33152 12.0708 10.6037 12.1321C12.2207 12.2011 13.6308 11.9788 15.7766 12.7145L15.7689 12.7069ZM40.4456 30.8082C39.3114 30.3791 37.7403 31.3753 37.5028 30.8695C37.4491 30.7546 37.4798 31.291 37.4415 31.337C35.7938 33.023 36.9587 32.9464 36.5525 34.9159L37.6101 34.8929C38.3764 34.8775 39.0891 34.4714 39.7406 34.2799C41.3269 33.8047 42.2159 32.9617 42.8903 31.475C43.0589 31.1148 43.5953 30.6473 43.7103 30.2028L44.2544 28.1413C44.3157 27.9191 44.5302 27.5052 44.5456 27.2983L44.8981 23.4972C45.082 21.474 45.1817 19.4892 44.8368 17.512L44.2774 16.7226C41.028 15.9333 41.2733 15.2359 37.1962 15.7416C38.4147 16.3624 39.5566 15.688 40.6755 16.1861C41.894 16.7302 42.3615 16.2168 43.4267 16.8222C45.5035 18.0024 44.446 24.754 44.1394 26.8385C44.0475 27.4745 43.465 28.264 43.534 28.9154C43.6029 29.5668 43.1815 29.789 43.0512 30.1185C42.783 30.8082 42.3768 31.544 41.9246 32.1724L41.4725 32.8084C41.3269 32.7394 41.0127 32.5708 41.0587 32.6704C41.5031 33.613 37.8246 34.6554 37.1656 34.663C36.928 33.6438 36.9663 32.4405 37.6254 31.7125C38.3228 30.9385 39.4723 30.9998 40.4379 30.8006L40.4456 30.8082ZM21.7772 19.4891L23.5244 18.2323C22.6355 18.0177 22.7427 18.6002 20.9725 19.0906C20.0911 19.3359 19.2635 18.5695 18.4205 19.2209C19.5624 19.3819 20.7272 19.4508 21.7695 19.4891H21.7772ZM24.8042 23.4972C25.0571 24.0643 24.2142 24.9533 23.4401 25.1372C22.214 25.4207 20.1141 24.9303 20.2061 23.7118C20.2521 23.1217 20.8652 22.93 21.6316 22.7998C21.1028 22.4013 20.2444 22.6235 19.9456 23.1063C19.5087 23.8267 19.7156 24.57 20.3517 24.9915C21.7235 25.9111 23.2639 25.7272 24.6893 25.0069C25.2334 24.731 25.5093 24.4168 25.3867 23.7041C25.3484 23.4742 25.1031 23.0297 24.9269 22.8611C24.7889 22.7308 24.3828 22.8228 24.1605 22.9684C24.1605 23.0297 24.7123 23.3439 24.7889 23.5048L24.8042 23.4972ZM25.0725 31.6435C24.9805 31.8198 24.9039 32.1264 24.8196 32.0651L24.4671 31.8121C23.4632 31.0994 22.4439 30.494 22.5818 29.0226L24.4211 28.6777C24.9192 28.5858 25.8925 27.8654 25.6779 27.1143C25.5399 26.6162 25.356 26.3404 24.8119 26.4017C25.0265 27.1834 24.9728 28.1796 24.0992 28.3329L22.2906 28.6471C22.1603 28.67 21.8001 28.8004 21.8231 28.9154L21.9074 29.3828C22.1757 30.8312 23.1949 31.4366 24.1605 32.249C24.7889 32.7854 25.3024 33.1686 26.1377 33.4675C26.6052 33.6361 26.9807 34.4408 27.8084 33.7664C25.9461 32.5785 25.8235 33.5288 25.0802 31.6359L25.0725 31.6435ZM19.8919 27.6432L20.3594 27.5282L20.3287 26.5242L19.2098 27.4056C19.3631 27.896 19.616 28.3865 20.0375 28.5398C20.4207 28.6777 21.0338 28.4785 21.3556 28.2026L20.4207 28.2256C20.2598 28.2256 20.0222 27.8194 19.8919 27.6432ZM34.7592 35.2378L34.2381 33.9656C34.0772 33.5824 34.1615 32.6092 33.7553 32.364C32.851 31.8198 31.8624 31.6512 30.7971 31.6819C31.3413 32.318 33.1499 31.6359 33.579 32.9693C33.8319 33.7433 33.9009 34.4177 33.2418 35.0768L34.7745 35.2378H34.7592ZM22.942 38.2495C22.7121 38.5254 22.2446 38.8856 22.0071 38.8013C21.3403 38.5637 20.7579 37.3988 21.1564 37.1613L22.9037 36.119L22.942 33.9886C22.942 33.7511 22.3673 33.3832 22.2063 33.5518C22.8424 34.5404 22.4056 36.395 21.2024 36.5559C20.2444 36.6862 20.3517 35.391 20.2674 34.8929L20.0988 33.866L19.8076 31.8581C19.7386 31.9271 19.4168 32.1493 19.4474 32.3026L19.5624 32.9157C20.1601 36.0808 19.6007 37.5981 22.7657 39.9738L23.9689 40.8782C24.3138 41.1387 25.1875 41.3379 25.7086 41.4835C25.7929 41.3456 25.8925 41.1387 25.8082 41.108C25.7162 41.085 25.3407 40.9777 25.2487 40.9241L22.8041 39.4451C22.9573 38.4335 23.808 37.851 24.674 37.6978C25.0648 37.9966 25.3944 38.2112 25.8465 38.2112C25.1798 37.0999 23.7237 37.2839 22.942 38.2418V38.2495ZM36.5525 42.4491L38.9818 42.227L40.3076 41.4989C40.6372 40.7019 40.4992 39.7592 40.0471 38.9852C39.5259 38.7629 36.974 38.786 37.1273 39.3071L37.1732 39.4757C37.2499 39.7439 38.5067 38.3798 39.549 39.3684C40.0318 39.8282 40.3843 40.6406 39.8938 41.3533C39.6715 41.6752 38.8745 41.7057 38.4684 41.6598L37.7403 42.0047C37.2422 41.8897 36.6061 42.1426 36.5448 42.4568L36.5525 42.4491ZM31.7398 42.112L33.4028 42.1963L32.5751 41.8131C32.3835 41.7288 32.1843 41.1616 32.3222 40.993L33.4641 39.606L32.9353 39.1845C32.2532 39.6059 31.326 39.6596 30.9198 38.8932L30.6439 39.5983C30.5366 39.8819 29.0345 39.629 28.9426 40.2038L32.5138 39.721C32.2379 40.0505 32.1306 40.1117 31.7858 40.3263L31.7244 42.112H31.7398ZM29.2032 48.1891C29.3947 47.9975 29.9082 48.488 30.1458 48.5646C30.6362 48.7256 31.5482 49.0169 32.0616 49.0322L33.7553 49.0705C33.2189 48.2505 32.3912 49.308 31.2876 48.1815L30.8431 48.3884L29.4867 47.4228L29.7703 46.986C29.8009 46.9324 29.6936 46.7638 29.7089 46.7024L29.9925 45.392L30.1381 44.7099C30.1611 44.595 29.8699 44.434 29.6553 44.365C29.3564 45.2233 29.3411 46.3346 28.9579 47.0396L28.2835 48.2964C28.1379 48.5647 27.7241 49.0091 27.4252 49.1471L25.1644 50.1664C24.7966 50.335 24.0072 49.7526 23.7237 50.5419C24.9652 50.4729 26.3293 50.0284 27.5401 49.5379C28.6667 50.2353 28.4598 52.0899 27.2796 52.9253C27.4252 53.1245 27.5631 53.2701 27.6857 53.3544C28.9579 52.1205 28.9886 50.5266 28.2835 49.0858L29.1878 48.1815L29.2032 48.1891ZM16.4203 51.3159C16.8418 51.2776 16.9797 51.3006 17.0104 51.2316L17.156 50.8485L19.0796 50.7488C20.2138 50.6875 21.279 50.5572 22.4516 50.5725C22.919 50.5725 23.3558 50.5725 23.5704 50.243C22.191 50.3503 20.9801 50.5035 19.685 50.2813C19.1025 50.1816 19.0413 49.4536 19.003 49.0398C18.7884 46.8633 20.8192 47.2313 20.4743 46.6335C20.0605 45.9055 18.5891 47.6144 18.4588 48.0436C18.2519 48.7256 18.4742 49.5073 18.5661 50.2123C17.5315 50.4729 16.2364 50.6108 15.4394 51.3695C14.4201 52.3428 15.1558 54.0824 14.4584 54.6419H15.3321C15.2784 53.7223 15.562 51.3849 16.4203 51.3083V51.3159Z" fill="black"/>
<path d="M100.413 52.841C100.114 53.7146 99.1254 53.9291 98.1828 54.1284C93.9679 55.0097 93.5924 53.0172 92.6957 52.6264C91.7991 52.2355 92.4658 53.7299 88.3045 53.5613C87.5918 53.5307 87.0094 53.3391 86.3963 53.0785L84.3884 52.2125C84.4421 52.0363 84.5264 51.7758 84.5187 51.7987C84.0053 51.7144 83.6911 51.6301 83.3998 51.3772C83.1776 51.1856 83.2159 50.4269 83.4995 50.312C84.1585 50.0361 84.672 49.9595 85.3157 49.8445C87.3312 49.492 86.2737 49.1548 87.8983 48.9939C88.5421 48.4957 89.2855 47.7293 89.8679 47.1239L89.9675 45.2617L90.0825 42.9857C90.1055 42.5258 89.684 41.4835 89.3161 41.1846C88.841 40.8015 88.1436 40.3724 87.5611 39.9892L87.3159 39.1002L87.0554 39.5523C87.0017 39.6443 86.7718 39.3607 86.6722 39.2918C84.8713 38.0196 84.5953 37.6824 83.3462 35.9121C82.5032 34.7166 81.9514 33.5364 81.4839 32.203C80.8019 30.2411 80.9628 30.0189 80.5873 28.7161C80.3651 27.9498 80.0432 27.2523 79.9359 26.44L79.7673 25.1449C79.6294 24.072 79.2769 22.9914 79.2539 21.8036C79.2385 20.9069 79.1159 19.9489 79.0086 19.0753L78.7404 16.8069L78.3956 12.3697C78.3496 11.8256 78.1196 10.8829 78.02 10.4078C78.0047 10.3312 78.204 10.0476 78.2346 10.0783C78.2653 10.1089 77.8821 9.83308 77.8361 9.73345C76.9165 7.54934 77.0467 6.10855 74.4411 4.75976C74.2112 4.54518 72.3873 4.39959 72.5023 3.57959C72.5406 3.3037 72.8625 3.01249 73.1154 2.81324C74.694 1.56408 76.8628 1.26518 78.6561 2.16948L79.07 3.04313L79.2385 2.568L79.8899 3.31139C80.7866 4.34597 80.7406 1.44146 82.9477 1.23454L82.0281 4.13135L81.7138 4.10071C81.6679 4.10071 81.5299 4.24634 81.5759 4.26933L81.9514 4.42256C82.3423 4.5835 81.5683 6.51473 81.6526 7.07417L81.8748 8.5226L82.1737 13.5116L82.7408 17.6652C82.7944 18.0561 82.9783 18.6309 83.055 19.037L83.6911 22.4089L84.8406 27.6662C85.1012 28.8464 86.0591 30.9844 87.0324 31.8887C87.2316 31.3906 87.2929 31.0228 87.132 30.632C86.6568 29.4518 86.6415 28.2869 86.4653 27.0377L86.0438 23.9953C85.8215 22.3936 85.561 20.9222 85.4613 19.2822C85.4383 18.9374 85.2008 18.2706 85.1472 17.8415L84.695 13.8717C84.5954 12.9828 84.5494 12.1245 84.5187 11.2048L84.4574 9.58784C84.4114 8.43065 84.0819 5.48016 84.9249 4.3996L86.0898 2.92054C86.289 2.65998 86.7258 2.03155 87.0171 1.80931L89.4158 1.16555C89.2548 2.28443 88.5727 3.11977 88.3275 4.04706L87.6148 6.69867C86.9787 9.07437 88.0593 12.0861 87.4309 14.5538C87.5995 15.0979 87.7297 15.803 87.791 16.554L88.1282 20.9606C88.1436 21.1905 87.86 21.7192 88.0056 21.8572C88.7413 22.5086 88.1283 23.5355 88.2969 24.0873C88.9406 26.1794 89.2701 27.0225 90.1974 28.9077C90.4197 29.3598 90.9101 29.812 90.8641 30.2335C91.9217 30.2718 91.4925 31.5516 92.918 31.0918C92.4811 30.2335 92.3202 29.4824 92.0827 28.5858L90.7185 23.4742L90.9714 23.3209C91.1937 23.183 89.9905 20.7996 90.9255 20.3245C91.0098 20.2785 90.7568 20.0716 90.7109 19.9489C90.3813 19.0906 90.6572 18.1403 90.7799 17.259C91.0098 15.5884 91.7531 14.1859 93.4315 13.6725C94.1365 13.4579 94.8415 13.113 95.7075 13.1437C97.1253 13.1897 98.7346 12.7069 100.152 13.0288C101.953 13.4426 103.003 15.7033 102.965 17.351L101.425 17.4047C100.949 17.42 100.574 17.3816 100.106 17.259L100.283 17.4506C100.605 17.7878 98.4281 18.6385 98.4971 20.4241C98.5814 22.5622 98.5354 27.0914 100.26 28.3789L101.685 29.4364L103.816 29.8503C104.789 29.9269 106.23 29.8809 107.111 29.3521C107.854 28.9 108.567 28.5628 109.195 28.0876C109.87 27.5818 110.59 26.5166 110.92 25.7579C111.494 24.4321 111.157 22.8918 111.104 21.5123L110.958 17.9258C110.874 15.8413 110.705 13.9101 112.023 11.9635C110.123 11.3811 109.586 14.0327 109.579 15.2665V20.1866C109.579 21.3361 108.72 22.4089 108.207 23.3745C107.801 24.1256 107.601 24.7234 106.758 25.2368C105.371 26.0798 103.317 26.3481 102.168 24.892L101.103 23.5509C100.919 23.3133 100.85 22.9838 100.842 22.6849L100.681 22.0794C100.635 21.8955 100.926 21.5583 101.064 21.3897L101.172 21.0678C101.202 20.9605 101.647 20.9606 101.746 21.0295L103.471 22.2557C103.647 21.8419 103.616 21.6196 103.762 21.6196C103.908 21.6196 104.321 21.8342 104.467 21.9338C104.559 21.5659 105.026 21.2978 105.662 21.2211L105.892 19.5811C106.36 16.1708 106.697 13.0824 108.942 10.2622C109.847 9.12032 111.058 8.2697 112.621 8.42297C113.073 8.17007 112.889 7.29644 112.721 6.75999C112.337 5.55681 112.353 5.66408 111.081 4.82876C110.782 4.6295 110.414 4.51453 110.008 4.47621C106.659 4.16201 107.096 4.94371 104.459 4.49923L103.034 5.7867C102.697 6.89792 103.011 8.13174 103.701 8.99006L103.264 9.14334L104.36 9.63382C104.758 9.81009 105.103 10.4998 104.804 10.929C104.613 11.2049 104.084 11.5114 103.724 11.2125C103.593 11.2738 103.172 11.703 102.973 11.6953L101.44 11.6493C100.037 10.3082 98.2135 7.98615 98.9416 5.98596L98.2289 5.71771C98.0909 5.66406 97.9223 5.96298 97.7537 6.09326C95.0484 7.36541 97.3782 7.41903 93.7303 8.22371C93.1862 8.34632 92.5884 8.39997 91.9677 8.4153C91.5232 8.73717 90.4427 9.4422 89.8372 8.54556C89.5844 8.16239 89.6533 6.11624 90.7799 5.79437C90.8795 5.76372 90.6726 5.55678 90.6342 5.48014L91.8757 4.33828C92.1823 4.05472 92.5042 4.05475 92.803 3.74054L94.2515 2.25381C94.1748 2.33045 97.5851 0.606111 98.5047 0.399195C100.145 0.0236808 100.788 -0.0759081 102.551 0.0543724L105.463 0.261257L107.693 0.422208C108.176 0.460526 108.759 0.452879 109.211 0.58316L113.472 1.79397C113.939 1.92425 114.598 2.31511 115.066 2.52969L115.602 3.79419L116.614 5.93231C116.729 6.17754 117.135 6.42277 117.426 6.40745C117.48 5.47249 117.472 4.23099 117.763 3.47996C118.698 2.43005 120.039 2.36877 121.266 2.35344C122.269 2.33811 123.212 2.14651 124.201 2.04688C127.235 1.72501 127.051 2.4454 129.128 2.06222C131.397 2.40708 130.868 1.85529 133.382 2.57567C134.838 2.9895 137.106 4.26166 137.482 5.64876C138.248 6.31549 138.593 8.13941 138.593 9.42689L138.623 17.6192C138.623 18.5158 138.646 19.3282 138.646 20.2018L138.631 22.5546L138.585 24.708L138.486 26.9074L138.279 29.2218C138.761 32.4405 138.033 32.0651 138.279 35.6056C138.363 36.8012 138.585 38.0273 138.417 39.1768C138.325 39.8129 138.355 40.1578 138.455 40.7862C138.662 42.066 138.608 43.5374 138.524 44.8785L138.401 46.6794C138.286 48.4114 137.773 49.1778 137.52 50.1741C137.121 51.7221 136.37 52.8256 135.374 53.9445C134.677 54.7262 132.523 55.6688 131.581 55.255C131.358 55.5846 131.228 55.7301 131.358 55.3622C131.458 54.8105 131.581 54.3277 131.565 53.8755L131.45 51.1473C131.427 50.6338 130.922 49.5993 130.6 49.2008L129.328 47.6374C129.688 47.4841 129.971 47.3615 129.672 47.4611C129.274 47.4305 128.845 47.3998 128.638 47.3155C128.408 47.2235 128.216 46.8174 128.109 46.5875C127.764 47.1009 126.722 46.5415 126.799 45.9897C126.86 45.5759 127.496 44.7482 127.925 44.6639C130.056 44.2424 131.772 44.2961 132.715 46.6718C133.719 44.6486 133.405 42.5871 133.366 40.5179C133.351 39.8052 133.313 39.2764 132.96 38.694C132.27 37.5521 130.753 37.4832 129.672 37.7744C128.592 38.0656 127.527 38.2878 126.369 38.5331C125.772 37.6518 126.285 35.7052 126.975 34.8009C127.734 33.8047 128.638 33.6974 129.757 33.5978L131.412 33.4445C131.834 33.728 131.565 31.4137 131.381 31.2068C131.213 31.0075 130.561 30.8925 130.309 30.7852C130.171 30.7239 130.017 30.2717 129.902 30.1721C129.787 30.0725 129.542 30.0955 129.289 30.0802C128.055 29.1835 127.151 27.5665 127.435 25.9802L127.619 24.9763L127.948 24.7694C128.048 24.708 127.856 24.3708 127.848 24.2328C127.833 23.0143 128.875 21.6809 130.263 21.451L130.132 23.5968C130.063 24.7387 129.987 25.6507 130.975 26.601C131.726 27.3213 133.213 26.9764 133.703 25.7886C133.949 25.1908 134.546 24.1869 134.6 23.5432C134.815 21.0909 134.83 18.7764 134.799 16.3241L134.738 10.2086L134.585 9.25827L134.569 8.40763C134.569 8.15473 134.409 7.557 134.232 7.38073L133.474 6.59904C132.385 5.48782 131.726 5.74071 130.331 5.58744C127.718 5.29623 125.128 5.03565 122.484 5.67173C121.917 5.80967 121.488 6.11625 121.35 6.66036L120.99 8.10111C121.641 8.16242 122.262 8.64523 122.706 9.15869C123.611 8.82149 124.737 9.08203 125.664 9.04371C126.891 8.98241 127.933 8.77549 129.151 9.28128C130.531 9.85605 131.527 11.0822 131.719 12.6073C131.811 13.3277 131.926 13.9714 131.772 14.7378C131.519 16.0023 130.73 17.489 129.757 17.7955C129.588 17.8492 129.174 17.4967 129.144 17.3127L128.753 14.9523C128.691 14.5614 128.048 13.8488 127.665 13.8028C127.197 13.7415 126.4 14.4389 126.224 14.914C125.994 15.5501 126.117 16.531 125.741 17.1058L124.277 19.3588L121.963 20.1789C120.967 20.6847 120.706 22.0565 120.921 23.1677C121.036 23.7655 121.748 24.4858 122.315 24.7924C122.622 24.961 123.388 24.8154 123.825 24.7924C124.247 25.3978 124.377 26.2484 124.461 27.0454C124.546 27.8424 124.277 28.3099 123.741 28.7774C123.135 29.3062 122.545 29.7277 121.595 29.2755C121.396 29.9959 121.534 30.701 121.626 31.498C121.833 33.3449 121.334 35.1152 120.951 36.9391C120.775 37.7821 119.894 39.0006 119.135 39.4067C118.836 40.5486 117.556 41.6445 116.353 42.0047C114.736 42.4952 115.142 43.1772 113.656 42.9626C113.111 43.3995 112.222 43.7366 111.548 43.9742C111.081 44.5949 111.234 47.2159 112.031 47.7983C112.828 48.3807 113.472 48.672 114.445 48.5417C115.089 48.4498 116.031 48.1202 116.307 47.1929C116.46 46.6948 116.376 45.9207 116.384 45.2157C117.127 44.8785 118.215 44.687 119.005 45.0088C120.591 45.6449 121.541 46.9017 121.848 48.5341C123.02 48.5571 124.07 48.649 125.097 49.1242C126.063 50.3963 126.147 50.6185 126.599 52.3198C126.845 53.2318 126.147 54.6342 125.427 55.1324C124.155 56.006 122.553 56.4198 121.135 55.8911C121.856 52.3505 115.801 51.2853 113.05 51.883C113.303 53.7913 113.931 52.7643 114.2 54.2357C114.414 54.2817 114.736 54.4197 114.966 54.6572C113.418 54.9178 110.751 54.8105 109.663 53.8143C109.28 53.4617 108.95 53.0326 108.46 52.841C107.502 51.6685 107.816 51.3772 106.574 50.289C106.291 50.4805 105.785 50.7948 105.494 50.7412L103.647 50.4269C102.122 50.1664 100.428 49.5916 99.3247 48.5187C98.8726 48.0742 98.4741 47.5225 98.75 46.9017C100.972 47.8443 103.386 48.1892 105.616 47.1853C106.046 46.9937 106.505 45.9744 106.429 45.5146C106.161 43.9129 102.704 44.48 100.704 44.1965L97.9989 43.8056C97.2785 43.706 96.5888 43.6676 95.8148 43.9742C95.5083 44.5336 95.1788 46.9171 95.6386 47.6834L97.2249 50.335C97.2939 50.4499 97.1023 50.9174 97.2173 50.971C97.861 51.2776 99.0335 51.155 99.1025 52.2279L100.467 52.818L100.413 52.841ZM102.183 10.2775L103.478 10.4615C102.996 9.74874 102.658 9.37322 102.137 8.92107C99.1101 6.33845 101.325 2.89754 102.084 2.72128C104.475 2.15417 106.459 2.69827 108.452 2.79789C110.245 2.88986 112.391 3.16577 113.862 4.35362C114.767 5.08166 114.79 6.66035 114.69 7.75624C114.721 7.77923 115.204 7.64127 115.472 7.54931C115.104 5.18127 115.089 3.61024 112.705 3.0508C111.533 2.77492 110.207 2.36873 109.119 2.41472C108.774 2.43004 108.199 2.11583 107.985 2.02387C107.693 2.1005 107.218 2.19247 106.896 2.16948L104.911 2.04688L103.639 2.06989L102.49 2.03921C102.099 2.03154 101.31 2.02388 100.919 2.13117L98.3515 2.81324C97.8686 2.94352 97.2709 3.31136 96.7728 3.52594C96.221 3.76351 95.8531 4.10836 95.3626 4.47621C94.6959 4.98201 92.029 6.36148 91.7148 6.66036L90.8795 7.43439L91.6688 7.67958C92.1056 7.19677 92.6115 6.71399 93.2475 6.31549L97.4318 3.70986C97.5468 3.74818 97.9223 3.84782 98.0066 3.87081C98.1675 3.91679 98.3591 3.83251 98.0296 3.50297C98.5124 3.34204 99.0642 3.19643 99.616 3.07382L101.057 2.74424C100.666 3.33434 100.474 3.50296 100.152 3.77885L99.9455 5.70241C99.6926 8.01681 101.317 8.53026 102.191 10.2929L102.183 10.2775ZM94.2668 50.1127C93.761 49.5379 93.1862 49.0704 92.9946 48.2734L92.5272 46.327C92.2053 44.9858 92.5502 43.3995 92.6728 41.997C92.7034 41.6598 92.6728 40.8551 93.0023 40.8168C94.1748 40.8551 95.2783 41.2306 96.3206 40.7018C96.8034 40.2037 96.221 38.2265 95.4086 37.8357L95.6692 37.7131C95.7382 37.6825 95.7535 37.4525 95.6769 37.4678C94.9565 37.6594 94.0675 36.3183 92.8567 36.2953C92.8873 37.077 93.6997 36.9544 94.1288 37.1766L93.3471 37.3989L94.2974 37.4832C95.3857 37.9353 95.6309 38.9086 95.8991 40.1884C94.7419 41.1694 91.9754 39.6367 90.5116 39.1309C88.9176 38.5791 87.883 37.5905 86.8867 36.4563C86.8638 36.4793 86.7028 36.7015 86.6569 36.6325L86.4039 36.2724L86.1127 35.8508C86.0591 35.7742 86.2354 35.5826 86.2507 35.5366C85.584 35.276 85.1778 34.9235 84.9019 34.3258L84.2275 32.8774C83.1623 30.586 83.1469 29.1452 82.7638 26.8692L82.4649 25.1065L81.8825 22.1177C81.7062 21.2134 81.1238 17.443 81.1008 16.6537C81.0778 16.0253 80.4494 12.4847 80.8479 11.8409L80.1658 9.49584L78.9703 6.14687C78.2499 4.13135 74.8703 2.83621 74.5561 2.9435C74.4105 2.99715 74.3722 3.54893 74.5867 3.57192C77.154 3.85547 78.1273 5.5721 79.1542 7.92482C79.5221 8.77547 79.7673 9.53416 79.8899 10.4615C79.9206 10.699 80.1122 11.1129 80.0279 11.3045L79.7827 11.8486C79.7443 11.9329 80.1428 12.1321 80.1888 12.2164C80.3038 13.0594 80.526 14.4925 80.5873 15.4658C80.6946 17.2361 80.9169 18.7994 81.1621 20.5467L81.6755 24.1639L82.1507 26.5396L83.0167 30.8236C83.1163 31.3294 83.4611 32.1033 83.6834 32.6628L84.3884 34.4331C84.603 34.9695 85.4077 35.8125 85.8599 36.234L86.9251 37.215C87.906 38.1193 88.9789 38.8243 90.1897 39.4603L91.8987 40.357C92.213 40.5256 92.1746 42.4185 91.914 42.7864L91.8757 45.5069L91.8374 46.5952C92.1823 47.4458 92.2283 48.5187 91.4696 49.2161C90.8795 49.7602 89.9905 50.1357 89.2778 50.3809C89.1015 50.2736 88.9559 50.1817 89.0096 50.2123C89.0479 50.2353 88.9789 50.5955 88.933 50.6032L87.4232 50.8944C86.9864 50.9787 86.312 51.0784 85.9441 51.1167C85.8369 51.132 85.5687 51.4845 85.6759 51.5152C86.3963 51.7221 88.3888 51.3389 88.6264 51.224L91.6765 49.8215C91.8604 49.7372 92.029 49.1931 92.2206 49.1854C92.4122 49.1778 92.872 49.3693 92.9946 49.5303L93.8836 50.7794C96.7957 52.9406 95.2784 51.7451 97.3552 52.5574C97.4472 52.5957 97.6541 52.2049 97.5698 52.1436C96.7268 51.5305 96.0064 52.1129 94.2438 50.1127H94.2668ZM135.075 27.965C134.5 28.808 132.96 29.3368 132.033 29.2525C130.577 29.1299 129.343 27.7888 129.013 26.509C128.852 25.8959 129.174 25.2905 128.523 24.846C128.117 25.9878 128.653 27.4209 129.205 28.2639C130.278 29.9192 130.945 29.0379 131.811 30.1644C132.033 29.4594 134.393 29.7659 135.466 28.3558C136.715 26.7082 136.938 24.7463 137.121 22.7001C137.198 21.8648 137.068 21.0142 137.052 20.1789L136.968 16.3625C136.968 16.1096 137.16 15.5884 137.083 15.3892C136.853 14.7761 137.298 13.4196 137.252 12.7682L137.091 10.3312C137.045 9.69511 137.075 8.9594 136.899 8.40763L136.547 7.30407C136.278 6.45342 136.018 5.68708 135.206 5.16595C134.079 4.44558 132.546 4.13905 131.121 3.97811L128.485 3.67155C126.308 3.41865 124.239 3.39569 122.001 3.6026C119.25 3.8555 120.108 3.90148 118.959 5.70241L119.02 7.38073C119.127 7.46503 119.457 7.49566 119.488 7.35005L119.626 6.691C119.748 6.11623 119.679 5.2349 120.223 4.95135C120.507 4.80574 120.959 4.47623 121.189 4.3996C123.12 3.74053 125.396 3.93977 127.427 4.14669L130.048 4.40727C132.516 4.6525 135.619 4.98966 136.094 7.77154L136.37 9.38091L136.616 10.8983C136.723 11.565 136.685 12.2011 136.286 12.6533L136.731 12.7835C136.777 12.7989 136.524 12.9521 136.524 13.0058L136.539 14.4619V18.148C136.524 18.968 136.554 19.8263 136.47 20.5927L136.317 22.0028C136.278 22.3324 136.34 22.6082 136.524 22.9837C136.524 24.4551 136.041 26.578 135.098 27.9498L135.075 27.965ZM129.596 13.4272C130.094 15.619 129.642 15.4581 129.833 16.4007C130.086 17.6116 130.914 13.7798 129.925 12.2394C129.335 11.3198 126.17 11.3658 125.182 11.4731C124.293 11.5727 123.388 12.0861 122.346 11.7949C121.419 11.5343 122.591 9.33491 117.395 9.64912C116.79 9.68744 115.656 10.2316 115.25 10.7067C114.2 11.9405 114.108 13.8641 114.744 15.3508C114.92 15.757 115.188 16.1708 115.388 16.7073C115.441 16.6153 115.449 16.1478 115.548 16.2091C115.633 16.2628 115.947 16.462 116.039 16.5003L117.832 17.1747L119.84 16.7532C120.3 16.6536 121.128 16.0559 121.449 15.6957C122.208 14.8374 122.407 13.7031 122.706 12.7069C122.928 11.9712 123.986 12.362 124.446 12.2471L126.078 11.8486C127.665 11.4654 129.243 11.9099 129.588 13.4272H129.596ZM111.625 32.9847L110.644 33.7587C109.946 34.3028 105.777 35.0232 105.141 34.6324C104.728 34.3718 104.957 33.4598 105.126 33.069C105.41 32.4022 105.8 32.2029 106.482 31.9884C106.751 31.9041 107.18 31.7202 107.54 31.6896L108.069 31.6435C108.176 31.6359 108.023 31.245 107.908 31.245C107.08 31.2297 105.984 31.8811 104.567 31.9118C104.996 32.249 104.413 32.8084 104.237 33.0843C104.268 33.5211 104.774 34.3641 103.999 34.571L103.141 34.8009C103.057 34.8239 102.842 34.7857 102.766 34.755C102.712 34.732 102.781 34.6323 102.827 34.6093L103.233 34.4024L102.176 34.5557L102.091 32.5325C101.984 30.0572 97.1099 30.1568 97.9529 30.6243C98.9645 31.1838 100.06 30.3637 101.432 32.226L101.662 34.4101C99.7156 34.3564 97.6311 33.3142 96.6731 31.8351C95.3857 29.8426 95.1251 29.9422 94.6653 27.214L94.3127 25.1065L94.1671 24.1486C93.8912 22.3323 93.853 20.516 94.1059 18.6921C94.1748 18.1787 94.6193 17.374 94.8415 16.8835C96.7804 16.1478 98.7116 15.6191 100.781 15.8643C100.965 15.8873 101.202 15.9869 101.21 15.8796V15.5654C101.218 15.4045 99.3937 15.4044 99.2404 15.4121L97.2249 15.5884C96.7727 15.6267 96.0064 16.1325 95.447 16.2475C94.7573 16.3931 93.9909 16.9142 93.8299 17.6882C93.5387 19.0523 93.4161 20.4778 93.5311 21.9109L93.6537 23.3669C93.738 24.3785 93.7993 25.2215 94.0905 26.2101C94.6346 28.057 94.1135 28.8847 95.5083 31.0688L97.2096 33.7203C100.045 34.1495 100.643 35.1841 104.153 35.0768C105.333 35.0385 106.574 35.2377 107.678 34.9618L109.602 34.479C109.671 34.4637 109.862 34.64 109.893 34.709C109.923 34.7779 110.1 34.3258 110.176 34.2874L113.035 32.8697C113.441 32.6704 113.908 32.3409 114.284 32.0803L116.399 30.609L116.614 28.6701C117.579 28.7161 119.442 28.3942 119.227 27.2063C119.112 26.5779 118.645 26.3174 117.932 26.3557L118.054 26.9688C118.315 27.0378 118.568 27.168 118.691 27.329C118.782 27.4439 118.461 27.6431 118.292 27.7734C117.257 28.5704 114.529 28.6854 113.702 27.5818C113.518 27.3366 113.817 26.7235 113.962 26.3403C113.579 25.8882 112.529 26.8155 112.836 27.2523C113.111 27.6432 113.303 27.9421 113.395 28.4249L115.809 28.8081C116.384 28.9 115.809 29.9345 115.533 30.2717C113.518 32.7471 112.054 32.6245 111.617 32.9693L111.625 32.9847ZM119.825 18.8454C118.116 18.8761 116.813 18.9144 115.686 17.8952L115.188 17.8415C115.119 17.8415 115.089 18.1633 115.142 18.194L116.368 18.8378C117.418 19.3895 118.943 19.4355 119.817 18.8378L119.825 18.8454ZM114.759 22.7998C114.2 22.5315 113.809 22.5546 113.571 22.7768C113.18 23.137 113.035 24.1945 113.656 24.823C113.878 25.0529 114.491 25.0835 114.805 25.1985C116.039 25.643 116.974 25.7273 118.07 24.9686C118.399 24.7387 118.859 24.5241 118.951 24.2328C119.074 23.8573 118.966 23.1677 118.767 22.9301L118.001 21.9875C117.871 22.2097 117.863 22.3016 117.74 22.3323L116.989 22.5162L118.024 23.0451C118.238 23.1523 118.576 23.7118 118.445 23.911C117.84 24.8613 116.445 25.3211 114.997 24.8383C114.253 24.5931 113.456 24.0029 113.847 23.1829L114.736 22.8074L114.759 22.7998ZM115.786 39.1845L115.411 39.4834C114.797 39.9585 114.177 40.1731 113.449 40.2804L113.824 40.4643C113.87 40.4873 113.893 40.5409 113.847 40.5563L113.548 40.6866C113.18 40.8475 112.874 41.0238 112.498 41.3533C113.18 41.338 113.771 41.131 114.299 40.8475L114.568 41.0774C114.568 41.0774 114.591 40.9165 114.598 40.8705L114.644 40.6482C115.663 39.8742 117.932 38.4718 118.292 37.3299C118.491 36.7092 119.005 34.6247 119.043 33.8737L119.15 31.9041C119.15 31.8198 118.836 31.5976 118.821 31.6819L118.767 32.0191L118.484 33.7357C118.338 34.6247 118.277 35.5903 117.825 36.3797C117.204 36.4103 116.491 35.9044 116.223 35.437C115.633 34.4101 116.79 33.2758 116.277 32.9463C115.679 33.5058 115.426 33.9809 115.464 34.5097C115.518 35.2148 115.801 35.8432 116.338 36.1958L117.595 37.0157C117.863 37.192 117.296 37.9047 117.097 38.1652L116.675 38.7093C116.299 39.1921 115.058 36.4869 113.357 37.5062C113.196 37.6058 112.751 37.4832 112.567 37.4219C112.468 37.3683 112.452 37.9354 112.498 38.1116C112.652 38.6251 113.426 37.4602 114.491 37.7054C114.882 37.7974 115.763 39.1845 115.771 39.1768L115.786 39.1845ZM135.52 46.6794L134.891 49.8061C134.838 50.059 134.577 50.427 134.386 50.5573C134.232 50.6645 133.581 50.5955 133.474 50.4346L132.286 48.649C131.765 47.8674 131.282 47.2312 130.845 46.4725C130.807 46.5108 130.584 46.7408 130.469 46.6871L130.04 46.4955C129.941 46.4496 129.665 46.3959 129.557 46.3882C129.481 46.3806 129.496 46.6488 129.557 46.7025L130.669 47.6987C131.443 48.3961 132.462 49.8752 132.968 50.8485C133.244 51.3773 134.853 51.4308 135.06 50.7794C136.003 47.8443 136.148 47.4994 136.278 44.5336L136.386 41.9281C136.424 41.0774 136.485 40.1961 136.478 39.3224V37.6671L135.757 36.1651C136.401 35.7129 136.769 35.1458 136.869 34.4024C136.976 33.5747 136.769 32.908 136.14 32.3179C135.688 31.8964 134.968 31.7662 134.171 32.0651C133.374 32.364 133.343 33.5288 133.489 34.4408C133.565 34.9082 134.539 35.1381 134.753 34.7702C134.416 34.2798 134.064 33.8736 134.14 33.4215C134.217 32.9693 134.585 32.3486 135.114 32.4329C136.087 32.5938 136.324 33.6591 136.217 34.3641C136.094 35.2148 135.566 35.7282 134.585 35.8508L133.167 36.0348C132.761 36.0884 132.109 35.5979 131.734 35.575C131.067 35.5366 130.125 35.598 129.389 35.6133C128.653 35.6286 128.109 36.0808 127.726 36.6325C127.511 36.7398 127.289 36.8088 127.335 36.9007L127.58 37.3682C127.626 37.4602 127.902 37.1843 127.994 37.1153L129.182 36.3106C130.125 35.6669 131.22 35.7819 131.887 36.5559C132.408 36.4026 132.899 36.5559 133.228 36.5329L134.378 36.4716C134.646 36.4563 135.129 36.4869 135.259 36.6555C135.566 37.0617 135.98 38.5254 135.957 39.2764L135.888 42.5795C135.88 43.0776 135.688 43.591 135.359 43.9588C135.397 43.9895 135.734 44.1658 135.734 44.3344V44.9628C135.719 45.5223 135.642 46.051 135.52 46.6794ZM105.233 39.0005C104.796 40.6176 106.551 40.4184 106.421 41.1694C106.26 42.0814 104.505 41.8438 103.984 41.8974C102.091 42.112 100.735 42.1579 98.9799 41.2077C98.7193 41.0697 98.497 40.3034 98.6197 40.0122C98.7116 39.7899 99.0335 39.6596 99.2481 39.4757C99.4933 38.6404 100.85 38.8473 101.455 39.4297C101.524 39.3761 101.723 39.0925 101.639 39.0236C101.057 38.5331 100.566 38.5407 100.068 38.4181C99.8305 38.3568 99.3937 38.0963 99.2634 38.2495L98.7576 38.832L98.1828 39.4987L98.1368 40.7785C98.0679 42.8784 104.98 42.4491 106.306 42.043L107.302 41.0391C106.85 40.6789 106.452 40.2037 106.528 39.7439C107.218 39.4757 107.847 39.8742 108.352 40.0735L109.18 40.4107C109.18 40.4107 109.349 39.8819 109.211 39.7669C109.096 39.6749 108.736 39.514 108.582 39.491L105.226 38.9852L105.233 39.0005ZM122.407 51.3619C123.503 52.1052 123.066 53.8449 123.327 54.6572C123.465 55.0941 124.392 53.569 123.381 50.9787L121.603 50.4576L120.055 50.1357C120.354 47.8826 120.154 47.5072 118.668 46.3423C118.599 46.2887 118.261 46.2886 118.185 46.3116C118.108 46.3346 118.062 46.4955 118.1 46.5721C118.139 46.6488 118.338 46.8327 118.461 46.8941C119.403 47.3615 120.231 48.7563 119.388 49.7832C118.959 50.3043 118.576 50.312 117.993 50.2737L115.165 50.0974C113.104 49.9671 110.192 49.2008 109.701 46.8098C109.64 46.5109 109.257 45.9591 109.28 45.6679C109.326 45.1774 109.379 44.4953 108.667 44.3804L108.889 46.7791C109.057 48.5953 106.482 48.4804 105.141 48.6796L105.685 49.0551C105.747 49.0091 105.571 49.1395 105.525 49.1778C105.479 49.2161 105.509 49.3158 105.571 49.3081L106.084 49.2774C106.345 49.331 106.314 49.2774 105.977 49.0245C107.188 48.8023 108.222 48.5877 109.433 48.0282L110.36 49.0551L109.816 50.197L110.061 51.8064C110.092 52.0057 110.828 53.4847 111.479 53.6763C111.548 53.6993 111.625 53.3085 111.586 53.2472L110.537 51.6454C110.115 51.0017 110.414 49.8521 111.035 49.5379C113.832 50.6645 113.962 50.4039 116.89 50.5189C119.61 50.6262 120.583 50.1127 122.415 51.3542L122.407 51.3619Z" fill="black"/>
<path d="M65.9879 47.0703C66.2331 47.8673 66.348 50.1817 66.1948 50.9634L65.8039 52.9712C65.7043 53.4847 65.4361 54.1054 65.2522 54.5346C65.1449 54.7875 65.0299 55.4619 64.7693 55.5922C64.2712 55.8374 63.911 55.0634 63.7271 54.8028C62.5852 54.8641 60.539 52.3735 59.8646 51.5075C58.6768 49.9902 57.9718 48.2964 58.1097 46.1813C56.7456 46.4265 55.3892 46.0663 54.4006 45.1084C53.9714 44.6946 53.5346 43.5221 53.6495 42.955L53.9561 41.4223C54.048 40.9624 54.6534 40.1884 54.937 39.7669C55.711 40.3187 56.2934 40.6406 57.0981 40.5946C59.7497 40.449 60.3321 36.5329 60.3705 34.3335C60.3935 32.7778 60.5084 31.36 60.6694 29.8426C60.7613 28.992 60.5774 27.9957 60.746 27.1374C60.9835 25.9419 61.0985 24.685 61.1445 23.4665L61.2518 20.9146C61.2978 19.903 61.4893 18.9604 61.6043 17.9718C61.6656 17.4583 61.6273 16.7303 61.6426 16.1709L61.7039 14.5538C61.7959 12.1321 62.5623 9.28897 64.4475 7.57233C65.1219 6.95158 65.8039 6.4611 66.8155 6.74465L66.5167 8.59922L66.348 10.4078C66.3097 10.8063 66.302 11.4731 66.3404 11.8256L66.5703 13.8181C66.6776 14.7607 66.348 15.6651 65.8269 16.4544L64.5241 16.554C64.3785 18.8608 63.6658 22.5316 64.7924 24.4935C65.5127 24.6314 66.4017 24.7693 67.1911 24.8383C67.5896 24.6391 68.0493 23.8881 68.3559 23.4359L69.2142 23.957C69.4288 24.0873 69.835 23.6658 70.2488 23.3363C70.4404 23.4742 70.7852 23.98 71.0458 24.4015C71.4596 24.5318 72.2413 24.6927 72.8007 24.6621C73.2989 24.6391 74.2645 23.9877 74.4408 23.5202C74.663 22.9378 74.6017 22.0717 74.5864 21.451L74.5097 19.2592C74.4714 18.2783 74.3871 17.1977 73.9579 16.37C73.5824 16.393 73.2606 16.4314 73.069 16.4007C72.8467 16.3701 72.5555 15.8259 72.4789 15.6114C71.9194 14.071 72.3716 12.5843 72.3716 11.0362C72.3716 10.2622 72.1953 7.52634 71.7662 6.75232C72.8391 5.63344 74.9849 8.17775 75.4523 8.86747C76.0271 9.71813 76.9007 12.2931 76.9237 12.592L77.3759 20.6157L77.4296 23.0604C77.4755 25.3212 77.9736 27.5512 78.1193 29.8886L78.2496 31.996L78.4641 35.5826C78.4871 35.9581 78.74 36.6479 78.8243 37.1077C78.9393 37.7361 79.2382 38.2649 79.4834 38.855C80.0888 40.3187 81.8744 41.0391 83.1389 40.1731C83.3228 40.0505 83.5297 39.629 83.7213 39.6444C84.4494 39.7057 84.7559 41.246 84.9015 41.8208C85.0931 42.6101 85.0701 43.1543 84.7866 43.844C84.434 44.7023 84.0969 45.2004 83.3611 45.6372C81.6445 46.6411 81.8591 45.8518 80.9548 46.1966C80.5409 46.3576 81.3533 49.7832 77.3376 53.0632L76.3183 53.8986C76.0195 54.1438 75.6899 54.4427 75.3834 54.6572L73.9656 55.6075C73.5365 54.8488 72.977 52.9636 72.7165 51.975C71.8735 48.7946 73.0077 47.3309 73.4139 45.3767L74.3948 40.5946C74.6553 39.3301 74.778 37.4832 74.4561 36.2494L73.9579 34.3794C73.705 33.4215 73.2453 32.5095 72.3103 32.0344L71.2604 32.8467L70.8619 33.4521C70.7623 33.6054 70.2411 33.23 70.1875 33.0307L69.7813 31.475C69.4288 30.1339 70.1185 28.9153 71.1684 28.2562L70.7699 27.7428C70.7163 27.6739 71.0152 27.4746 71.0152 27.4209L70.3178 27.5589C70.1645 27.5896 69.8809 27.2217 69.7583 27.1297L69.3292 26.7849C69.2372 26.7082 69.061 27.168 68.9537 27.2523L67.6508 28.2562C67.9267 28.716 68.4172 29.2525 68.785 29.6587C69.6127 30.5707 69.3368 31.9424 68.6241 32.7777C68.4249 33.0153 68.2026 33.5825 67.8501 33.5901L66.5779 32.134C63.934 33.1073 64.1716 38.4565 64.4015 40.6406C64.6314 42.8247 65.3441 44.9168 66.0108 47.0626L65.9879 47.0703ZM74.7243 51.6454C74.4637 52.4731 74.2338 53.4158 74.5404 54.2894C75.5443 53.6074 75.0692 52.7107 75.2454 51.8677L75.598 50.1434L76.1651 46.94C76.3183 46.0893 76.3643 45.1468 76.4256 44.3881C76.4869 43.6294 76.1804 42.7787 76.7322 42.1273C77.0847 42.0047 77.5598 42.3956 77.8664 42.6868C79.1922 43.9359 81.269 44.526 82.886 43.5374C83.1849 43.3535 84.3344 42.066 83.6064 41.3687C83.2462 42.0967 83.0776 42.8093 82.5028 43.1005C81.4989 43.6063 80.5256 43.6524 79.5907 43.0699C78.0503 42.1043 77.805 41.9358 76.6325 40.5027L76.6019 32.0191C76.6019 31.314 76.5482 30.6013 76.4639 29.9423C76.372 29.1376 76.5482 28.3558 76.5865 27.4822C76.6095 26.8844 76.2264 25.9802 76.303 25.3058C76.4256 24.2865 76.4026 23.4282 76.1114 22.4703C75.6976 21.0755 76.4563 21.8342 76.1114 19.3206C76.0041 18.5772 75.8585 17.8415 75.8126 17.0674C75.5903 13.3353 75.9352 12.6379 74.2568 8.8598C74.0423 8.6069 73.5518 8.29267 73.1303 8.10874C74.663 10.5074 75.2148 12.9368 75.3604 15.6344L75.4907 18.0254L75.621 20.5314L75.7819 23.8191C75.8049 24.3402 76.1498 24.9303 75.7129 25.505C75.4677 25.8269 74.8163 25.5664 74.4254 25.3441C74.3105 25.8959 74.0269 26.4017 73.3372 26.3864C72.3869 26.3634 71.5209 26.0109 70.7163 25.3518C70.5553 26.0415 71.1224 26.3174 71.6819 26.463C74.6783 27.26 73.9197 26.0261 76.0041 26.1411L76.0578 30.2105C75.3144 30.0189 74.9006 29.7276 74.2951 29.1299L73.1533 29.7813C72.1417 29.9422 71.3523 30.2641 70.9998 31.2297L72.134 31.5516C71.9731 31.2527 71.7355 31.0382 71.8275 30.9232C72.3563 30.2871 73.5441 29.4977 74.5021 30.1644C74.9925 30.5016 75.6286 30.8313 76.1191 31.1148L76.2187 34.3642C76.2647 35.7972 76.1804 37.123 76.1727 38.5791V40.0505L76.0731 43.1159C76.0424 44.0738 75.9275 44.9551 75.7972 45.8901L75.5749 47.4842L75.3604 49.0169C75.3067 49.4154 75.2454 49.9748 75.1458 50.2966L74.7166 51.6608L74.7243 51.6454ZM63.5432 49.2467C63.3823 48.1662 63.0604 47.2695 63.0067 46.2579C62.9071 44.5336 62.8458 44.9092 62.7692 43.5374L62.5699 40.0888L62.5393 38.4104C62.5163 37.4218 62.4549 36.3489 62.7078 35.4446L62.3706 34.6706C62.2863 34.4714 62.7538 34.0652 62.7309 33.843L62.5393 32.249C62.3707 30.8619 63.3362 30.6166 64.2712 30.3024C66.348 29.605 65.528 30.632 67.7888 31.475C67.7351 29.8733 65.6047 29.9882 64.6851 29.5207C64.1333 29.7966 63.4665 30.2335 62.7998 30.1108C62.6005 29.8809 62.6312 25.8269 63.1217 26.0875C65.2828 27.0531 67.1987 27.1987 68.4249 25.2752C67.8118 25.4974 67.4133 25.7733 66.9458 26.0721C65.4591 27.0224 63.0604 25.8116 62.8151 25.2904C62.6772 24.9992 62.8995 24.3632 62.9224 24.0566L63.229 19.0906C63.2826 18.24 63.4819 17.4353 63.4205 16.6077C63.2136 13.7491 64.1639 10.7373 65.6277 8.15472C64.0106 8.54556 63.2136 12.3007 63.137 13.2357L62.8994 15.9716L62.7998 17.466C62.6925 19.129 62.6695 20.6923 62.6159 22.3553L62.5469 24.5317L62.4549 28.5398C62.4243 29.743 62.455 30.9999 62.294 32.1724C62.2174 32.7318 62.2021 33.0613 62.2021 33.613L62.225 37.0616L62.2633 39.4374C62.2787 40.3341 62.0564 40.8781 61.4127 41.5065C60.8073 42.0966 60.1559 42.6561 59.4508 43.1236C59.2592 42.9856 59.129 42.8323 59.0753 42.909C58.2247 44.0202 56.3394 43.4071 55.9946 42.8553C55.7646 42.4875 55.6497 41.8438 55.2589 41.7135C55.006 42.1963 55.1209 42.8093 55.4045 43.2232C56.1708 44.3651 58.6921 44.1428 59.1596 43.8363L62.2021 41.8285C62.4933 43.4148 62.386 44.8785 62.5776 46.3576L63.0374 49.9365C62.8764 50.151 62.7615 50.2353 62.8381 50.2966C62.8918 50.3426 63.1983 50.6262 63.2137 50.6952L63.7425 53.5997L63.842 54.1361C63.865 54.2434 64.2635 54.1898 64.2865 54.0748L64.3555 53.6686L64.5318 52.6494C64.1563 52.3735 63.934 51.7988 63.842 51.1397L63.5662 49.2467H63.5432Z" fill="black"/>
<path d="M21.3481 16.8835L21.1488 16.5693C21.1028 16.4927 20.8499 16.9371 20.7656 16.9525C20.1449 17.0751 18.98 16.6996 18.3363 16.3471C17.7462 16.0252 17.5086 15.7033 17.1868 15.1669C16.2825 13.6802 16.6963 11.7566 18.137 10.814L18.3669 11.1512C18.4052 11.2048 18.5049 10.9289 18.5432 10.837C18.888 10.1089 19.8154 10.3082 20.4361 10.3542C20.9266 10.3849 21.5626 10.3082 21.7772 10.7144L21.9841 11.0975C22.0224 11.1665 22.1757 10.8676 22.2524 10.7603C23.0417 11.1129 23.8234 12.1015 23.8311 13.1284C23.8311 14.3392 23.011 16.7532 21.3557 16.8912L21.3481 16.8835ZM22.26 13.0058C22.1527 12.454 21.7925 11.5267 20.9265 11.4117C20.4744 11.3504 19.8306 11.3121 19.3478 11.3198C18.5585 11.3351 18.1064 12.4004 18.0297 13.0364C17.9224 13.9637 18.1064 14.5691 18.7654 15.0596C19.3402 15.4888 19.9686 15.4964 20.7963 15.3355C20.8346 15.4274 20.9036 15.7187 20.9572 15.6497C21.7925 14.6151 22.5129 14.2703 22.26 13.0058Z" fill="black"/>
<path d="M120.568 15.8182C119.166 16.7302 117.426 17.1518 116.284 16.1632C114.797 14.8757 114.33 12.998 115.433 11.4117C115.978 10.6223 117.127 10.2775 118.039 10.2162C118.637 10.1702 119.265 9.93264 119.763 10.3771C120.016 10.607 120.583 10.7527 120.813 10.9136C122.361 12.0708 122.154 14.7913 120.576 15.8182H120.568ZM118.805 15.3508C119.442 15.3508 120.354 14.5768 120.66 13.9177L120.583 12.1857C119.235 10.8676 118.867 10.8216 117.219 11.4807C116.844 11.634 116.315 12.4386 116.299 12.8755C116.261 14.025 117.219 15.3738 118.805 15.3508Z" fill="black"/>
<path d="M20.4439 15.0136C20.0991 15.0366 19.325 14.8833 18.9955 14.7148C18.4591 14.4389 18.4897 13.5192 18.574 12.9828C18.6583 12.477 19.2944 11.7949 19.9228 11.7336C20.6815 11.657 21.6394 12.2624 21.808 13.0364C21.9919 13.8564 21.3482 14.7761 20.4439 15.0213V15.0136Z" fill="black"/>
<path d="M118.982 11.5344C119.488 11.3964 120.446 12.9138 120.063 13.8181C119.802 14.4388 119.273 14.5921 118.522 14.822C118.193 14.9217 117.61 14.5844 117.288 14.2549C116.806 13.7721 116.79 12.4156 117.273 11.9482C117.442 11.7872 117.909 11.8332 118.139 11.7719L118.974 11.542L118.982 11.5344Z" fill="black"/>
</svg>
