<svg width="154" height="110" viewBox="0 0 154 110" fill="none" xmlns="http://www.w3.org/2000/svg">
<path d="M86.0014 29.8003C86.8911 30.323 86.1464 31.9733 85.4668 32.4188C83.8444 33.4548 83.0971 32.6134 82.5937 33.2472C81.7379 34.3229 81.5136 36.6843 82.8887 38.2113C85.2068 40.7848 86.2123 40.0447 89.7086 41.7393C90.8555 42.2993 92.4382 42.8485 92.9767 44.1039L94.1009 46.7754C94.34 47.3596 94.6321 47.6493 95.1356 48.1068C96.0048 48.8673 96.8331 50.1034 97.1314 51.3021C97.1833 51.5351 97.6738 55.3402 96.5667 54.5592C95.8424 54.0619 96.4411 53.7673 95.0103 51.4073C94.7037 50.9003 94.5889 50.2714 93.6811 50.5685L94.2113 52.7885C94.3623 53.415 94.2815 54.3844 93.8361 54.7961C92.5467 53.7363 91.9525 51.6479 90.3469 51.5732L87.009 51.4322C85.3672 51.3599 84.1081 52.3898 82.9433 53.468C80.3239 55.9164 78.89 59.2316 80.6637 62.6418C81.166 63.6268 81.486 64.8786 82.4748 65.522C83.0072 65.8684 83.7883 66.3983 84.3835 66.595C86.2282 67.254 88.1718 67.488 90.1033 67.5409L92.8908 67.6095C95.8786 67.6829 98.7531 68.2367 101.357 69.6453L103.923 71.02L108.022 73.3109C110.214 74.5288 112.371 75.5125 114.91 75.9432C115.167 75.9806 115.731 76.2522 115.903 76.1133C116.698 75.4783 115.937 75.5291 117.15 73.8111C118.081 72.4939 119.261 71.924 120.958 71.9927C122.089 72.0445 123.516 71.8946 124.268 73.0813C124.471 73.3951 123.711 74.0097 123.191 74.1171L118.082 75.2403C117.939 75.2681 117.791 75.7872 117.904 75.8343C120.241 77.0606 124.163 75.3255 126.113 73.7402C128.372 71.8978 130.003 69.8973 131.418 67.3838C131.645 66.9685 132.263 66.4179 132.429 65.9157C132.885 64.5757 133.633 63.5072 134.109 62.2022L135.684 58.0046C137.49 53.1732 138.425 46.7447 137.485 41.66C136.824 38.03 136.269 35.1569 134.696 31.7515C132.694 27.3743 132.314 26.8722 129.454 22.9888C128.754 22.0352 127.906 21.055 127.052 20.239L124.818 18.1146C122.08 15.5145 119.041 13.5893 115.71 11.92C112.925 10.5235 107.047 8.5696 103.957 8.04837C94.9627 6.5571 87.2801 6.99725 78.6729 9.9364C72.4307 12.0629 65.6997 16.4046 61.7393 21.6527L59.7175 24.3341C58.5973 25.8094 56.9027 28.76 56.0578 30.5444L54.6698 33.4563L53.044 37.1662C52.4611 38.5147 52.0447 39.9066 51.5716 41.266C51.0985 42.6254 50.4697 43.8314 50.1439 45.2173C49.7142 46.9558 49.6275 48.9259 48.75 50.4942C48.54 50.8902 47.864 51.6628 47.4814 51.9248C46.2851 52.805 44.4093 54.9492 45.7603 56.114C46.2045 56.5027 45.5839 54.5616 46.616 53.947C48.7683 52.6756 50.2522 55.2867 51.2942 56.7268C51.7542 57.3508 52.6222 57.5475 53.4697 57.9821L51.4477 59.5721C50.7561 60.1094 50.0632 60.9014 49.3631 61.3119C47.0321 62.6316 44.5789 61.5767 44.3796 60.4987C44.3458 60.2645 44.6572 59.7526 44.8673 59.6295L46.177 58.8145C45.2764 58.6746 43.8966 58.7121 43.4186 59.7262C43.0855 60.4578 43.3222 61.8243 43.6434 62.5486C43.9646 63.2729 44.5659 64.1059 44.2968 64.9787C44.1483 65.4797 42.194 67.5382 41.0761 67.4127C40.5088 67.3597 39.3679 66.8902 39.4656 66.1743C39.6273 65.054 41.2557 64.3814 40.8971 63.3686C40.6955 62.8 38.1434 62.4429 37.6473 64.0039C37.1791 65.4357 37.6995 66.9652 38.5097 68.2025L40.9414 71.9325C41.2456 72.4033 41.3592 73.287 40.7834 73.6528C40.2076 74.0187 38.9629 73.9017 38.4909 73.3693C37.9983 72.802 37.4405 72.0753 37.1821 71.4741L35.4397 67.4434C35.1161 66.6829 32.6302 64.3206 30.036 65.2396C29.1113 65.5559 28.218 66.0703 28.0696 67.117C27.9695 67.7966 28.1639 68.5294 28.6251 68.8987C29.1249 69.3019 29.8794 69.1606 30.3889 68.8901C31.899 68.08 29.8924 66.0858 31.1563 65.6741C31.7261 65.4905 32.1619 65.7524 32.535 66.1641C33.7508 67.4834 34.252 69.5417 32.8699 70.9072C31.6241 72.1362 29.7445 72.0434 28.2101 71.4001C26.264 70.5842 25.1266 69.0777 24.2537 67.1716C23.7985 66.62 21.9769 67.1236 21.6944 67.7972C20.852 69.8906 22.8334 73.9599 24.2158 75.5955L23.9056 75.8527C21.0782 74.9138 12.5704 68.7155 14.9652 65.3544C15.4311 64.7049 16.3691 64.5877 17.2009 64.7868C17.755 64.9136 18.4179 65.5787 18.8235 66.2064L19.1073 66.6422C19.3705 67.0429 20.0041 65.6365 19.1264 64.4764C17.9891 62.9699 16.1203 62.7673 14.2854 63.3445C14.686 61.99 14.931 60.755 14.3478 59.648C13.889 58.7692 13.0488 58.4434 12.1023 58.4338C11.4287 58.4242 10.609 58.679 10.8119 59.5385L13.1587 59.8184C14.0026 60.4714 13.5886 61.6267 12.938 62.234C11.2613 63.8192 8.97248 63.8629 6.92016 63.0905L3.46862 61.793C6.61432 58.782 4.54009 55.7738 7.38776 54.2923C8.14344 53.8963 9.09585 53.4507 9.84439 54.0373C10.5929 54.624 10.8248 55.3724 11.2824 56.5059C11.7206 55.9856 12.1672 55.3192 12.3277 54.7264C12.5932 53.7993 10.2161 53.0667 10.9572 51.9077C12.5737 51.8726 13.9438 50.5988 13.777 48.9184C12.7413 49.7515 12.0122 50.2731 10.892 50.9299C10.5309 49.8809 10.1614 48.9779 10.1323 47.9976C10.0924 46.3088 11.5107 45.2137 13.0281 44.785C15.1697 44.1691 19.9502 44.1228 22.3091 44.5837L20.3222 45.6076C19.8297 45.8588 18.9943 46.151 18.6153 46.4673L17.3055 47.5551C16.737 48.0296 15.9355 48.8289 15.6144 49.4687C14.638 51.4619 14.3364 53.7556 15.2094 55.6617C16.5919 58.6615 17.9586 59.7889 20.7257 61.4595C25.8819 64.5893 32.0447 64.2688 37.1304 61.1646C42.2161 58.0604 43.541 51.7514 42.3019 46.2683C41.9698 44.8354 42.2703 43.3421 43.8661 42.7262C44.8246 42.3712 46.0258 42.9276 46.7092 43.9006L45.6011 44.4657C45.3729 44.59 45.0204 45.0319 44.9661 45.3084C44.8636 45.9518 46.6648 46.7774 47.1597 46.5624C48.4876 46.0191 48.753 43.4549 47.6821 42.6716C47.2233 42.3384 46.6885 41.9558 46.3335 41.5429C46.6401 40.6858 46.9334 39.9023 47.281 39.1152L48.6255 36.097L50.7136 31.6833C52.4673 27.983 55.194 23.8722 57.9172 20.7984C58.7284 19.8712 59.618 19.0297 60.5052 18.1519C62.9411 15.6793 65.5135 13.616 68.5 11.7614L69.8978 10.9042L72.8155 9.38162C77.2095 7.08751 83.5122 5.59361 88.4919 4.98833C91.7212 4.59086 94.7742 4.27791 97.9974 4.60838L107.355 5.54793C107.611 5.56722 108.014 5.61306 108.233 5.63477C108.471 5.65527 108.348 4.89956 108.424 4.67622C109.006 2.76395 111.206 1.94405 113.161 2.61387C114.985 3.23783 116.829 3.87868 118.759 3.91351C119.068 3.91106 119.469 3.92069 119.672 3.96172C120.462 4.09082 118.431 6.08169 119.709 6.97852C120.721 7.6931 119.814 5.00715 120.284 4.95761C121.202 4.27786 122.637 4.23668 123.773 4.63375L128.185 6.15804C128.725 6.34028 129.299 6.77482 129.794 7.10555C131.031 7.91427 133.355 9.21421 132.982 10.9852C131.124 10.6727 129.461 10.0198 127.762 10.4425L123.215 11.5463C122.249 11.7745 121.036 11.328 120.031 11.2496C121.46 12.773 123.44 13.0046 125.36 12.6036L127.423 12.1748C128.023 12.9897 128.475 13.5051 129.117 14.1171C129.836 14.8148 130.378 15.5789 130.994 16.3563L133.535 19.5515L134.686 21.2572L135.802 22.9834C136.369 23.855 136.877 24.6577 137.339 25.5727L138.006 26.8559L138.823 28.4566C139.157 29.1073 139.444 29.8702 139.748 30.5957C141.786 35.5161 141.704 36.1946 142.809 41.3046C143.395 44.0847 143.256 46.9132 143.248 49.7876C143.245 53.0072 142.612 56.0688 141.914 59.2257L140.654 64.8755L139.978 67.558L139.559 69.1866C137 68.1752 136.204 67.9737 133.844 69.1316C133.227 69.4274 133.17 70.468 133.428 71.0692C133.599 71.4579 134.525 71.7053 134.627 71.3166C134.935 70.2047 135.695 69.0626 137.036 69.5369C137.576 69.7192 138.196 70.569 138.45 71.0977C138.852 71.9439 138.539 72.9834 137.632 73.2804C135.052 74.1438 136.56 76.8442 136.101 77.0567L135.096 77.524C135.582 79.0921 138.788 79.6966 140.616 79.3017C142.285 78.9539 144.059 78.5626 145.707 79.271C149.79 81.0356 149.239 81.7636 152.881 82.921L151.222 83.6865C148.187 85.0896 145.427 85.1466 142.087 84.4419C140.593 84.1233 142.369 83.4773 142.693 82.6189C142.833 82.264 142.615 81.4419 142.279 81.3188C138.464 80.0274 136.563 86.1566 135.164 82.9033L134.238 80.7461C133.698 79.4726 131.035 79.0865 129.839 79.6938C129.68 79.7771 129.871 80.4556 130.055 80.4797L132.149 80.7946L133.185 81.8713C133.322 82.0077 133.529 82.394 133.523 82.5763C133.517 82.7586 133.252 83.1401 133.097 83.2777C130.382 85.387 128.099 85.2484 126.959 86.9615C126.894 87.075 126.658 86.545 126.523 86.4267L123.5 83.9185C122.96 83.4634 122.685 82.6087 122.707 82.1162C122.742 81.2771 123.258 80.8425 123.857 80.2751C125.378 78.8094 126.595 81.2382 127.544 81.0111C127.795 80.958 127.744 80.1974 127.529 79.9753C126.492 78.8805 124.769 78.9591 123.562 79.9491C122.994 80.4236 122.308 80.7786 121.697 81.165L119.219 82.731C117.212 83.9927 115.133 84.7317 112.768 85.2715C111.694 85.5251 110.072 85.4879 109.001 84.9773L107.029 84.0359C105.789 83.4457 104.711 83.9178 103.923 84.9162C103.553 85.3774 103.16 86.0221 103.348 86.6643C103.419 86.9142 104.324 87.1085 104.415 86.8477L104.835 85.5101C104.972 85.1008 105.06 84.7857 105.248 84.6095C106.463 83.4553 109.909 87.1357 109.75 89.6564C108.13 89.0916 106.539 88.4157 105.005 89.1365C103.47 89.8574 102.669 92.0208 102.501 93.3234C102.441 93.7821 106.379 93.1009 107.68 94.0689C107.751 96.7562 103.695 98.3911 102.368 97.3156C102.041 97.0464 101.634 96.4006 101.234 96.4091C99.981 96.4382 100.307 98.0534 98.9708 99.2885C98.7994 99.4455 98.5122 100.047 98.6498 100.201L99.2595 100.888C100.321 102.072 101.094 100.038 102.864 101.757L103.591 100.926C107.939 100.4 109.815 100.984 113.573 97.8771C113.475 98.8658 112.7 99.245 111.991 99.7835C109.394 101.757 105.916 102.517 102.883 102.847C102.665 102.862 101.996 102.379 101.879 102.532L101.243 103.357L99.2475 102.071C98.8866 101.841 97.9401 101.558 97.485 101.552C94.7337 101.481 93.3756 101.026 91.5624 101.384C88.9415 100.54 87.1474 99.0047 83.9146 100.166L81.4978 101.019C79.6664 99.7406 77.7252 99.27 75.586 99.3764C75.0609 99.4115 74.3317 99.3874 73.9418 99.5407C73.1777 99.81 72.7201 100.041 71.9402 99.5289C73.5288 97.9859 73.8379 98.8019 74.3279 97.1504C75.4844 97.0368 76.6687 97.3397 77.8421 97.7525C78.4844 97.8369 79.1519 96.9375 79.5755 96.4727C81.5105 94.3973 82.8829 92.0685 83.1446 89.1772C83.2037 88.4275 82.9839 87.8601 82.7762 87.201L81.3802 82.6379C80.1473 78.6096 78.7566 78.2113 76.3962 75.5496L74.8231 73.7812C73.623 72.4244 73.2655 71.4297 72.4203 69.6673C71.5087 67.7274 71.6727 65.2791 72.2592 63.1665L73.653 58.1625C73.9922 56.9757 74.0608 55.2796 72.8149 54.5989C69.9344 53.6816 68.5403 55.6845 66.1574 57.0441C66.3794 56.0107 66.9841 55.261 67.5273 54.4062C69.0421 52.0315 71.3066 48.8973 74.606 49.823C75.4402 50.0583 76.1283 50.8308 76.5449 51.6215L75.479 52.5476C75.3064 52.6864 75.234 53.2369 75.3197 53.4313C75.7049 54.2968 77.8331 52.9361 77.6773 52.2371L77.1375 49.8722C77.5793 49.1334 80.0456 49.8418 80.6672 48.5271C81.2888 47.2124 81.5 46.016 80.4991 44.9187C79.4126 44.4456 78.0859 44.7343 76.9221 44.7392C75.6123 44.7357 74.3471 44.5837 72.9914 44.4378C72.3866 44.369 71.6767 44.089 71.1226 43.9623C66.3226 42.9004 63.5336 38.4485 64.8104 34.1434C65.2847 32.5294 68.5019 32.2236 69.3651 32.8936C70.1657 35.3501 68.3549 35.471 66.7675 36.7593C65.7042 39.0857 68.7538 41.4467 70.5756 42.3073C72.9611 43.4394 73.7941 43.6566 76.3884 43.829C78.3804 43.9689 80.1863 44.0484 82.0043 42.672C81.4525 42.0358 80.7149 41.6122 79.8855 41.1764C77.9261 40.1614 76.0487 38.7407 74.9548 36.7947C73.8609 34.8488 73.914 34.0086 74.2735 31.7656C74.3748 31.104 75.4009 30.1261 75.9863 29.9051C76.9086 29.5525 78.1822 29.5584 78.8426 30.1873C79.0757 30.681 78.6315 31.9293 78.1752 32.1781L76.2088 33.237C74.0083 35.6939 77.9694 38.9034 79.8685 40.3773C80.7124 41.0303 84.3329 42.1345 84.5537 41.083C84.7625 40.1233 82.295 40.7609 80.9619 36.5938C80.433 34.9375 80.6428 33.1774 81.466 31.6128C82.2892 30.0482 83.9973 28.6609 85.8722 29.7726L86.0014 29.8003ZM113.435 4.81459C113.421 4.32446 112.422 3.80907 111.95 3.8224C111.515 3.83331 110.665 4.18106 110.568 4.64223C110.412 5.30741 111.202 5.69123 111.791 5.79741C112.508 5.91324 113.455 5.64998 113.436 4.8327L113.435 4.81459ZM117.977 7.45796C117.717 7.11151 117.183 6.72887 116.841 6.78806C116.569 6.80619 116.119 7.14545 115.864 7.4171C115.287 8.03766 115.642 8.72332 116.14 9.09027C116.789 9.55619 117.377 9.37143 117.955 8.76898C118.279 8.43817 118.297 7.8913 117.978 7.47605L117.977 7.45796ZM85.3024 30.7746C85.0211 30.3751 84.2932 30.3691 83.8924 30.6323C83.5967 30.8339 83.1754 31.335 83.1585 31.6271C83.9397 32.157 84.9404 31.6173 85.3024 30.7746ZM77.3953 31.6663C77.5342 31.5661 77.5703 31.018 77.4206 30.9552C76.8411 30.7211 75.6219 31.2572 75.7221 31.9417C75.7572 32.194 76.4441 32.4028 76.6167 32.2639L77.3953 31.6663ZM68.5165 34.0779C68.7217 33.3367 66.9 33.5674 66.4981 34.0853C66.3303 34.2966 66.264 34.9376 66.3509 35.1501C67.1489 35.3879 68.2957 34.8566 68.5165 34.0779ZM88.6759 48.6108C89.6356 48.2739 90.2802 47.5761 90.4237 46.7298C90.5806 45.8099 90.2292 45.1786 89.4867 44.4097C88.9977 43.8966 87.6167 43.6433 86.8537 43.9306C86.2683 44.1516 85.4957 44.8398 85.1433 45.5545C84.7281 46.4189 85.2811 47.6188 85.8606 48.1258C86.6526 48.8187 87.628 48.99 88.6759 48.6108ZM134.429 73.5306C133.602 73.1311 132.314 73.1807 131.601 73.6649C131.357 73.8267 131.129 74.4967 131.11 74.7707C131.092 75.0448 131.509 75.5626 131.82 75.5964C132.995 75.7544 134.937 73.7877 134.429 73.5306ZM79.7689 98.5515C80.2977 99.1164 80.9134 99.621 81.3891 99.9348C82.4345 99.2466 83.2071 99.1041 84.3708 99.0991L84.4214 97.9499L87.3996 97.8784L89.0412 95.768L90.7311 93.8363C91.0691 93.45 91.6896 92.9357 91.7632 92.4033L92.189 89.2464C91.3294 88.3579 88.0263 86.8323 86.9894 87.9201C86.1903 88.7556 84.4957 91.979 85.1621 92.4256L86.9064 91.0359L90.7756 91.5052C89.7979 92.6618 88.0729 94.3412 87.1567 94.7843C85.9773 95.3723 84.8944 95.2264 84.0311 94.0108L82.4679 95.3884C81.4721 96.2733 80.3434 97.0762 79.7496 98.5346L79.7689 98.5515ZM91.4266 95.536C90.3221 96.4282 89.5689 97.679 89.027 98.8247C90.1425 99.1867 90.7787 99.4535 91.6938 99.8107C92.2733 100.045 95.7392 100.195 95.674 99.7633C95.587 99.278 94.4655 98.8254 94.952 98.7565C95.0425 98.7505 95.2779 98.7348 95.3866 98.7275L97.0876 98.8686C97.871 98.0705 98.425 97.1059 98.8474 96.0773C100.704 91.4608 99.126 92.8939 99.0207 90.2272C98.9771 89.3025 98.1671 89.1565 97.409 89.2435C96.6509 89.3305 95.9386 89.5599 95.5439 90.1865C94.3454 92.1217 92.8594 93.5669 93.101 94.7331C93.1795 95.0916 93.6962 95.7483 94.0584 95.7241C94.4749 95.6963 94.7272 95.6612 94.8877 95.6142C95.0483 95.5671 95.1206 95.0166 94.9709 94.9538L94.243 94.675C94.0377 94.5978 93.6804 94.4215 93.509 94.3057C93.3182 94.1729 95.159 92.3221 96.4786 93.5617L98.153 93.0316C98.3716 93.8537 97.931 94.3378 97.4204 94.863C96.6708 95.6224 96.0238 96.5569 94.8576 96.7984C92.9925 97.1958 92.4672 95.321 91.4242 95.4998L91.4266 95.536ZM86.9936 93.1582L85.167 93.0437C85.6162 93.7776 85.7671 93.8585 86.4311 94.2689L86.9923 93.1401L86.9936 93.1582Z" fill="black"/>
<path d="M140.068 76.5372C139.294 77.4801 138.317 77.5454 137.453 76.8754C136.839 76.389 136.719 74.8691 137.563 74.4308C137.774 74.3258 138.275 74.2014 138.477 74.2243C138.862 74.2714 139.412 75.4351 139.65 75.1827L140.16 74.6394C140.67 74.1142 141.7 74.5548 142.313 75.0231C142.75 74.4847 143.249 73.5056 143.996 73.5284C144.306 73.5441 144.895 73.9231 145.125 74.0897C145.375 74.2913 145.427 75.0699 145.212 75.3935C145.013 75.6796 144.235 76.0225 143.92 75.9344C143.605 75.8463 143.129 75.5325 142.654 75.2187L141.934 76.4308L140.066 76.501L140.068 76.5372Z" fill="black"/>
<path d="M149.104 72.9326C146.788 73.3783 148.188 74.7399 146.539 74.8318C145.851 74.8777 145.424 74.1969 145.62 73.3289C145.747 72.7748 147.001 72.7638 147.584 72.7794L147.968 71.7171C148.061 71.4744 148.672 71.6337 149.021 71.6832L150.67 68.0445L150.401 66.48C150.393 66.3532 150.547 65.9427 150.614 65.8474C150.714 65.7134 151.173 66.0465 151.242 66.2602C151.691 67.5398 151.515 71.4439 149.769 71.7241L149.087 72.9519L149.104 72.9326Z" fill="black"/>
<path d="M48.4296 67.4858C48.9088 67.8539 48.2221 69.5549 47.4689 69.9872C47.1188 70.1924 46.2315 69.9789 46.2459 69.6505C46.27 69.1942 46.3026 68.5918 46.2929 68.4469C45.6567 68.7258 45.105 69.181 44.6065 69.0688C44.1079 68.9565 43.6309 68.079 43.7492 67.6709C43.9845 66.8367 45.118 65.5606 45.7083 65.412C46.1743 65.3082 46.8926 65.7149 46.8323 66.1737C46.7225 66.9813 46.661 67.6948 46.6852 68.3298C47.3697 67.6838 47.8356 67.0343 48.4477 67.4846L48.4296 67.4858Z" fill="black"/>
<path d="M58.4433 72.001L59.0324 72.1072C59.1978 72.1325 58.9335 72.8049 58.7512 72.7989L55.5799 72.7014L54.917 71.7635C54.3557 71.801 53.5915 71.7974 53.111 71.684C52.8152 71.6128 52.9431 70.8039 53.1483 70.6084C53.4054 70.3729 54.0441 70.403 54.2686 70.77C54.6333 71.3277 55.1427 71.0573 55.5701 71.1924C56.5359 71.4917 57.4304 71.814 58.424 71.9841L58.4433 72.001Z" fill="black"/>
<path d="M49.2502 70.7957L48.0961 69.8542L49.5736 68.5551C49.7112 68.4368 50.3921 68.555 50.5261 68.6552C50.6794 68.7723 50.5528 70.6906 49.249 70.7776L49.2502 70.7957Z" fill="black"/>
<path d="M51.9909 69.3395C52.615 69.1524 52.5608 70.2473 52.1625 71.0924C52.0515 71.3362 51.2789 71.4788 51.0857 71.3098C50.8925 71.1408 50.8586 70.3609 50.9878 70.1159C51.1326 69.8334 51.671 69.4518 52.0102 69.3564L51.9909 69.3395Z" fill="black"/>
<path d="M88.8777 47.5424C88.2536 48.0024 87.6826 47.895 87.1007 47.3519C86.8097 47.0803 86.433 46.6143 86.4499 46.3222C86.4945 45.9009 86.8977 45.401 87.2828 45.1752C88.0022 44.7816 88.8473 44.9071 89.323 45.4938C89.8204 46.1335 89.5887 47.0221 88.8777 47.5424Z" fill="black"/>
</svg>
