<svg width="95" height="154" viewBox="0 0 95 154" fill="none" xmlns="http://www.w3.org/2000/svg">
<path d="M71.2014 100.171C70.6175 98.9279 69.6622 98.326 68.4527 97.9334C66.1065 97.1794 63.928 97.5147 61.9347 98.9383C60.6232 99.8804 59.205 101.13 58.4886 102.57C58.4416 102.679 58.0099 102.881 58.0069 102.828C57.7323 101.727 57.5117 100.64 57.1173 99.6171C56.3524 97.6754 54.6573 96.2113 52.5686 95.939C50.3729 95.6551 48.4051 96.9 47.4526 98.8675C46.8646 100.07 46.2788 101.627 46.953 102.901L48.7791 106.377C48.6636 106.845 48.1615 107.369 47.7692 107.639C45.6896 109.103 44.0705 110.878 43.0132 113.188C42.3665 114.607 42.1978 116.016 42.2137 117.557C42.2288 119.399 42.0456 121.182 41.8144 123.055C39.671 121.811 37.001 122.547 36.0448 124.762C35.4794 126.052 36.1106 127.505 36.8885 128.419C37.8551 129.534 39.2725 129.844 40.7268 129.549C40.6638 130.634 39.9432 131.685 38.8716 131.851C37.9757 131.99 36.8834 132.105 35.9303 131.857C33.8246 131.285 32.1468 129.182 32.1628 126.948C32.1871 123.916 33.8238 120.882 36.3931 119.302C37.5752 118.58 38.4365 118.142 38.8506 116.683C40.3748 111.334 37.9246 109.363 36.3718 103.815C35.7745 101.705 36.2834 99.7267 37.6984 98.1053L39.1635 96.4279C37.6112 95.6115 35.8688 95.1957 34.0834 94.9595C30.4959 94.5058 25.9831 94.299 25.0795 98.7093C24.8713 99.7312 24.176 100.603 23.295 101.007C20.1515 102.46 20.1816 97.9572 17.7781 96.8166L11.48 93.8573C9.67847 93.0195 7.77933 92.9669 5.64658 92.8566C6.94145 90.6749 9.45818 89.7358 11.9484 90.2158C11.8112 87.778 6.54354 87.3835 4.66507 87.3829C4.50462 86.7362 4.95669 86.2677 5.50607 85.9533C7.99393 84.5019 10.8559 84.6597 13.1558 86.4796C14.8065 87.7866 16.1886 89.3569 17.3893 91.1677C18.7648 93.2523 21.4939 94.1974 23.6166 92.5538C25.3145 91.2355 24.9018 87.998 28.0348 86.9888L29.8805 86.4064L29.1063 83.9867C28.6558 82.5944 28.6243 81.0899 28.4887 79.6266C28.4096 78.8514 28.3305 78.0761 28.4281 77.2909L29.2449 71.0247C29.5757 68.4011 31.9619 63.5707 33.2752 61.0866C34.1073 59.4981 35.172 57.9495 36.6002 56.8767C40.9161 53.5857 43.9598 52.5638 48.6942 48.5226C50.4351 47.0246 51.4212 45.3388 52.0752 43.1045C52.4462 41.8255 53.76 38.7212 53.2694 37.5615C53.2094 37.4408 52.7178 37.5216 52.5638 37.6189C50.3008 39.2881 47.3015 40.467 44.3768 40.4545C38.7757 40.4331 37.696 37.623 34.3579 40.0261C31.3268 42.2169 27.6363 43.0804 24.014 42.0084C23.4378 41.8459 22.9409 41.5194 22.6344 41.1114C24.611 38.4483 27.4954 40.8909 30.5242 37.0875C31.997 35.2325 33.7822 33.8915 35.9003 32.7976L34.6231 29.6266C33.9643 27.9979 32.8081 26.663 31.2852 25.7386C30.5881 25.3171 29.6108 25.5848 28.9286 25.4282C25.6785 24.672 25.6951 25.9115 22.2556 26.5127C24.0206 21.6641 30.0843 19.5152 34.4965 21.7123L38.9077 23.8918C40.5297 24.6865 41.7503 23.0761 43.288 22.6882C45.1582 22.2285 46.9434 22.1458 48.8709 22.0727C52.8226 18.6072 60.4786 17.0421 65.561 17.6066L70.0907 18.1136C72.2491 18.3642 74.4714 18.8062 76.4692 19.6684L82.9007 22.4784L85.7821 23.6098C86.8149 24.0125 88.477 26.1517 87.8781 27.1601C87.7321 27.3987 87.0511 27.5788 86.7595 27.4358L80.9207 24.4506C78.6586 23.302 76.4164 22.5067 73.9702 21.8647L72.5674 21.5007C72.1718 21.3989 70.1848 20.731 69.8417 21.2465C73.0023 21.6711 76.5236 22.8374 79.3138 24.2398L84.9308 27.0602C85.9155 27.5542 86.4701 28.9052 85.8672 29.8429C84.433 32.0679 80.764 28.9074 79.2881 27.8741C77.8122 26.8407 75.9343 26.2199 74.2417 25.4291C71.8756 24.3218 69.561 23.8142 66.9767 23.5521C63.7151 23.2218 60.5794 23.2388 57.3815 24.0391C56.1235 24.358 54.9235 24.7623 53.9997 25.6649L56.4603 27.1922C58.2964 28.3293 59.8432 29.6776 61.0291 31.5425L63.6143 35.5968C64.6068 37.1713 64.7624 39.3068 64.8315 41.1637C64.9321 43.2668 64.1523 45.1537 63.6611 47.1307C63.1982 48.982 62.4102 50.4086 61.2895 51.9072C58.0579 56.2004 54.4401 59.9306 50.0986 63.0813C47.5443 64.9263 45.8876 67.6069 45.4777 70.7134C45.0678 73.82 47.5936 75.8752 50.3229 75.881C55.2498 75.8872 52.3741 75.801 56.5523 74.7861L55.7481 76.8693C55.6247 77.1952 55.8715 77.8015 56.2641 77.8503C59.0477 78.1898 58.6014 75.9289 60.7058 76.1649L65.1286 76.6602C67.7502 76.9556 70.3174 76.5984 72.7005 75.4896C76.1373 73.8962 79.1121 71.3363 80.9263 67.9912C81.7143 66.5646 82.6465 63.6059 83.4235 63.2431C86.3169 67.4219 87.68 71.173 84.363 75.5242C82.4 78.1156 79.6885 79.686 76.7264 80.8983C75.5314 81.3909 74.6009 82.4888 74.7441 83.7744C74.8735 84.8127 75.7385 85.3842 76.4476 86.0177L81.7409 90.6462C82.8968 91.6621 84.2087 92.6161 85.0813 93.9492C88.8827 99.7781 89.5958 101.74 89.5569 108.92C89.5176 115.461 87.8005 122.735 84.2085 128.182L80.2557 134.147C77.8215 137.81 74.8029 140.851 71.3571 143.544L66.2477 147.535C64.5165 148.891 62.4688 149.662 60.3671 150.418C59.5715 149.506 58.9938 148.688 58.5848 147.718C58.5815 147.346 59.1534 146.8 59.3848 146.504C60.8282 144.757 62.2058 143.102 63.7249 141.439C64.6594 140.412 65.4163 139.377 66.2213 138.251L72.6803 129.275L77.2828 121.945C78.3885 120.181 79.3717 118.442 79.7136 116.332L77.3478 120.895C75.6523 124.145 72.243 128.431 69.6068 131.025C66.2978 134.259 62.7539 137.099 59.1414 139.978C58.0056 140.893 56.6516 141.394 55.4558 142.188C55.0977 142.439 54.6564 142.783 54.3531 142.747C53.9438 142.716 53.4959 142.316 53.2307 142.012C51.4262 139.863 49.7524 137.831 48.0803 135.515C48.504 135.172 48.8257 134.906 49.2554 134.669C52.8077 132.608 56.3522 130.725 59.6903 128.322C61.3942 127.11 62.7032 125.494 64.1988 124.046C67.2224 121.093 69.221 117.561 70.756 113.664C71.6102 111.525 72.3144 109.554 72.5031 107.239C72.7005 104.765 72.372 102.391 71.2671 100.079L71.2014 100.171ZM50.5732 23.9793L52.6413 22.9414C54.8821 21.8229 57.2535 20.821 59.8082 20.8722L69.0142 21.0273C67.3759 20.5702 65.7338 20.3614 64.0889 20.4185L59.0287 20.5616C57.7195 20.5999 56.5262 20.8088 55.3322 21.3191L51.1477 23.1673C50.8367 23.3088 50.5847 23.5534 50.5555 23.9803L50.5732 23.9793ZM57.9132 34.4292C56.2491 32.2546 53.675 31.2299 50.854 30.8571C51.0377 29.7126 50.7661 28.6646 49.8017 27.9037C47.6884 26.2506 44.4487 26.3089 42.3881 28.1084C41.0032 29.3205 40.932 31.203 41.5671 32.7267C42.855 35.7731 47.1093 35.4805 48.1295 34.7142C48.9622 34.0825 49.5741 33.3038 50.1996 32.4534C52.29 29.6066 55.9537 33.618 57.8956 34.4302L57.9132 34.4292ZM46.2025 88.6242C45.1078 88.0655 44.6761 87.0089 44.0865 85.9788L43.2031 84.4513C43.0655 84.211 43.171 83.5671 43.3367 83.3628C43.9632 82.5301 45.2995 83.2878 45.7717 83.4916L45.625 82.7732C45.6004 82.6506 46.1243 82.5147 46.2666 82.5245L50.1416 82.7316C50.3369 82.7384 50.9609 82.4906 51.0601 82.6799L51.4356 83.3676L52.4509 82.832C53.0612 83.9141 55.0146 83.0421 54.9603 85.2249C54.9468 85.6155 55.023 86.3378 55.2332 86.6095C55.3285 86.7281 55.8652 86.503 55.8219 86.3637L55.6301 85.7897C55.5661 85.5983 55.4913 85.2127 55.5166 85.034C55.5263 84.8917 55.9856 84.8659 56.1426 84.8216C55.2721 83.5238 53.7564 83.042 52.3094 82.521C47.3371 80.763 45.6827 82.5396 42.765 82.6507C41.1211 82.7255 39.8717 81.3073 39.1268 80.0379C38.0881 78.271 37.7364 76.4301 37.2364 74.4735C36.9175 73.2155 36.6575 72.0606 36.8666 70.7374C37.3217 67.8055 38.5418 65.2382 39.8668 62.6472C40.9673 60.4764 42.5149 59.007 44.2116 57.352C46.5467 55.0763 48.6875 52.8115 51.3812 50.9232C53.0007 49.7865 54.4936 48.6037 55.9225 47.2296C56.9817 46.2131 57.6334 44.8827 58.3057 43.6044C59.1692 41.9432 59.8569 40.3095 59.8232 38.4507C59.8036 37.1582 59.571 35.8599 58.4054 34.9863C58.4963 37.2318 59.971 36.6703 59.1757 40.1707C58.7325 42.0564 58.136 43.738 56.9467 45.2758C55.8397 46.7027 54.6531 47.9745 53.2102 49.1013C50.0704 51.5641 47.0533 54.0022 44.1601 56.7524C41.6866 59.0891 39.7414 61.6796 38.4129 64.8378C35.6785 71.3537 36.2234 71.5888 37.6224 77.553C38.6473 81.9079 41.4682 82.2807 42.4392 84.1045C43.3326 85.8086 44.1603 87.605 45.6511 88.9033C46.975 90.0692 48.8942 90.7941 50.6316 91.1216C53.8374 91.7209 56.9734 90.7646 59.729 89.0323C59.1016 87.3309 58.021 86.0804 56.5492 85.1177C56.9352 88.1972 58.5247 86.2115 58.7846 88.6247L57.9098 88.1954L57.7557 89.5509L55.9198 89.991C55.6754 90.0579 55.3156 90.5921 55.08 90.499L53.9569 90.066C53.9275 90.174 53.6121 90.8652 53.3667 90.9145C52.8938 91.012 51.9602 90.7987 51.545 90.6626C51.7154 90.2277 51.7781 90.0824 51.478 90.4183C49.6018 90.772 48.5733 89.5008 48.8873 89.4122L48.5046 89.5401C48.0003 89.7103 47.336 89.8717 46.9292 89.2566L47.5652 87.9626C47.4406 87.9519 46.9243 87.9101 46.6946 87.923C46.5003 87.934 46.3142 88.4052 46.2035 88.6418L46.2025 88.6242ZM80.7063 111.615C80.6742 111.989 80.3811 112.449 80.7709 112.764C81.2507 109.954 81.3253 107.186 80.9875 104.334C80.7604 102.504 80.2056 100.834 79.5095 99.1716C78.9344 97.7686 77.7668 96.8597 76.9729 95.6639C75.4607 93.3566 73.8936 89.7589 70.919 88.5441C67.2188 87.0334 67.6791 87.0252 63.1825 87.4202C62.8998 87.4361 62.7216 88.0486 62.8769 88.288C69.0421 97.3863 75.3676 94.8505 76.1356 95.587C77.3741 96.8109 78.4733 98.0781 79.2684 99.6105C80.2248 101.488 80.6444 103.591 80.6568 105.699L80.7063 111.615ZM55.4209 89.6292C55.4209 89.6292 55.466 89.4849 55.4393 89.3269C55.2998 89.0512 55.0786 88.5852 55.156 88.3859C55.2167 88.2053 55.4884 87.9951 55.7925 87.7299L54.2695 86.8055L54.1731 85.092L53.365 85.8463C53.2097 85.6069 52.9552 85.1782 52.7442 85.2078C52.5332 85.2374 52.1339 85.384 52.0376 85.2476L51.7468 84.8032L50.659 84.3683C50.1691 84.1655 49.8638 84.0941 49.462 83.5673L49.0512 84.1398C48.9689 84.2508 48.6014 83.7044 48.4424 83.7133C47.6014 83.8847 46.2554 84.5276 45.2194 85.0112C47.3494 85.3875 46.4942 86.2508 48.5313 87.1817L49.0816 88.1431L49.4934 87.5883C49.4934 87.5883 49.8468 87.5684 49.9557 87.6154C52.6858 88.5782 51.5546 87.6849 53.2345 88.565C55.0363 88.4636 54.0906 88.9775 55.4386 89.6282L55.4209 89.6292Z" fill="black"/>
<path d="M25.9489 49.9626C27.1422 51.0118 27.3466 52.7547 26.8786 54.1988C25.9708 56.9612 22.7713 59.6223 20.3058 60.8421C17.03 62.4619 11.9228 61.4558 9.79168 58.2265C8.39746 56.1253 8.25128 53.5285 8.89429 51.0999C10.196 46.2065 10.0607 46.3204 13.0097 42.0431C13.5342 41.287 14.2266 40.6809 14.9594 40.1612C17.3823 38.5008 19.8162 37.0347 22.0672 35.1536C23.5894 33.8628 24.7236 31.9737 25.5624 30.1898C26.1787 28.8614 25.8538 27.4975 25.9509 26.0743C26.9705 25.9283 27.9735 25.801 28.9717 25.9043C29.4349 25.9491 29.524 26.901 29.5302 27.326C29.5572 29.3801 29.5186 31.5265 28.5994 33.4567C26.9669 36.8802 24.1863 39.4291 20.8458 41.1589C18.1253 42.5703 15.8046 44.473 14.4033 47.281C13.3517 49.3781 12.5557 51.9216 12.8666 54.2965C13.1775 56.6713 15.9297 58.3417 18.1869 58.1437C19.6501 58.0082 20.8961 57.4773 22.0193 56.652C23.1924 55.7708 23.8096 54.1412 23.096 52.7991C22.8975 52.4204 22.0426 52.3445 21.6559 52.4017L19.1418 52.7559C18.7156 51.1672 19.7129 49.9947 21.0649 49.4578C22.6426 48.8373 24.5131 48.6966 25.9666 49.9616L25.9489 49.9626Z" fill="black"/>
<path d="M27.7834 17.0575L27.8763 20.5965L25.8229 21.5805C25.6159 21.6807 25.0319 21.6959 24.864 21.5459C24.1942 20.981 23.6691 17.0056 24.3076 15.1267C25.7795 10.7376 29.4028 7.73364 33.844 6.66844L38.1095 5.63085L39.1477 2.66614C41.8362 4.46412 42.326 5.92512 44.2064 8.47744C44.283 8.57945 44.4039 8.83846 44.4275 8.94346C44.4512 9.04845 44.2375 9.34402 44.1345 9.40299L37.2377 13.1228C37.117 13.1828 36.747 13.2213 36.637 13.1566C36.5074 13.0576 36.3805 12.6926 36.3716 12.5336L36.4217 9.96123C32.3097 9.0054 27.7208 13.4282 27.8207 17.0909L27.7834 17.0575ZM39.4228 9.75684C40.0383 9.98801 40.6417 9.68822 40.9457 9.42301C41.3331 9.0645 41.633 8.40966 41.3755 7.92796C40.8998 7.03324 39.3744 6.69381 38.6742 7.47751C38.0917 8.14827 38.5716 9.43261 39.4218 9.73918L39.4228 9.75684Z" fill="black"/>
<path d="M56.8897 143.118L56.3886 142.402L58.0723 141.775L58.1091 141.171C58.1179 141.011 58.7508 140.922 58.8304 141.077L59.5825 142.789L59.6622 141.686L60.4218 141.643L59.3378 140.96C59.7779 140.279 60.1427 139.834 60.7548 139.374C61.3669 138.914 62.3104 138.046 62.7988 137.593C62.8831 137.517 63.3621 137.526 63.4484 137.485C63.5701 137.443 63.5788 137.283 63.6709 137.03L66.4252 134.961C66.7561 135.173 67.1786 135.751 67.1975 136.087C66.7662 136.927 66.1397 137.759 65.4876 138.452L64.2085 138.081L65.0867 139.201L60.9435 143.669C60.7758 143.838 60.398 144.055 60.1997 143.995L59.0473 143.67L60.1179 144.744L58.1154 146.948C56.7584 146.138 55.8683 144.806 55.4608 143.234L56.9093 143.152L56.8897 143.118Z" fill="black"/>
<path d="M68.9462 133.773C68.6601 134.357 68.0134 134.517 67.5076 134.032L68.5111 133.284C68.5111 133.284 68.8291 133.266 68.9194 133.296C69.0097 133.327 68.9942 133.682 68.9462 133.773Z" fill="black"/>
<path d="M73.9082 95.0566C71.6478 93.6244 73.6631 95.4249 70.205 93.493C70.1438 93.0357 70.9572 92.6886 71.449 92.9268L72.3788 93.3883L72.7349 91.8443C72.2893 91.7985 71.7081 91.5477 71.5183 91.009C71.3698 90.5743 71.2507 90.0317 71.6881 89.6172C72.0341 90.4129 72.2672 91.0909 73.0898 91.2218C74.0909 91.3781 72.836 91.75 74.6278 92.7301L73.8915 95.0753L73.9082 95.0566Z" fill="black"/>
<path d="M68.7586 89.5161L65.4063 88.5175L66.0588 89.7212L65.4388 90.0397C65.2147 89.5207 65.0664 89.405 64.3605 89.1434C64.4163 88.8745 64.8241 88.249 65.1478 88.0181C66.0169 87.4021 67.0374 88.532 68.8995 88.8702C69.0605 88.8966 69.5589 88.6204 69.6365 88.7401L69.9863 89.2875L70.8143 88.8864L70.5366 90.2489C69.9181 89.9647 69.4065 89.6923 68.7576 89.4984L68.7586 89.5161Z" fill="black"/>
<path d="M69.6998 92.3872C69.6998 92.3872 69.7807 92.8788 69.7199 93.0595C69.6592 93.2401 69.1785 93.5153 69.0126 93.4006L67.2225 92.1368C66.9642 91.9564 66.9921 91.1928 67.0842 90.9396L68.577 92.2732C68.7822 92.4566 69.1365 92.4544 69.7165 92.3685L69.6998 92.3872Z" fill="black"/>
<path d="M71.0069 91.6934C69.8381 91.706 68.5393 91.3007 67.6611 90.1805C68.9643 90.0363 70.0894 90.5046 71.0069 91.6934Z" fill="black"/>
<path d="M46.0526 33.7148L46.2201 33.2269C46.3875 32.739 46.3795 33.8558 47.8299 32.2324C48.7134 31.2435 48.3018 29.2819 47.4076 29.1373C47.2643 29.1099 46.8472 29.2574 46.7529 29.1564L46.2599 28.5817L44.2194 29.7953L43.8373 32.1382L42.3069 31.7105C42.1813 31.6821 41.8071 31.331 41.8718 31.2211L42.1866 30.8312L43.2112 28.2571L43.8405 28.4166C44.0383 27.8384 44.2147 27.5095 44.4708 27.3356C44.9495 27.0251 45.628 27.4299 45.9783 27.357C46.9086 27.1983 47.5071 27.1292 48.2839 27.7057C48.6581 28.0568 49.9909 28.1235 49.975 29.0991C49.9849 29.2757 49.7269 29.4143 49.4895 29.6049L50.2043 30.0254C50.5046 31.2667 49.7868 32.0514 49.1652 32.9724C48.5437 33.8935 47.6539 34.4575 46.699 34.4935C46.4517 34.5075 45.976 34.8709 45.8277 34.7552C45.6057 34.5905 45.3249 34.3228 45.0253 34.0384L44.7951 34.6716C44.0912 34.4454 43.6218 33.9756 43.6104 33.1434L42.2517 32.6174C43.688 32.0049 45.0244 32.7625 46.0536 33.7324L46.0526 33.7148Z" fill="black"/>
<path d="M47.4818 31.4014C47.226 31.8943 46.5736 32.2677 46.1673 32.2906C45.6373 32.3204 44.8235 32.0296 44.6563 31.5782C44.3573 30.6736 45.0085 29.9635 45.7678 29.6018C46.2162 29.3816 46.8277 29.5421 47.2029 29.9108C47.5035 30.2129 47.7386 30.9262 47.4828 31.4191L47.4818 31.4014Z" fill="black"/>
<path d="M53.7975 87.2395C53.3991 88.6619 47.6237 86.4884 46.8206 84.8147C49.4448 84.5252 51.9442 85.4832 53.7975 87.2395Z" fill="black"/>
</svg>
