<svg width="140" height="58" viewBox="0 0 140 58" fill="none" xmlns="http://www.w3.org/2000/svg">
<path d="M87.886 54.0103C86.9363 54.2356 87.2904 53.5516 86.0028 53.125C85.8338 53.0687 85.6165 53.5114 85.4233 53.6401L83.1216 55.1451C83.0572 55.1853 82.7594 54.9599 82.7031 54.9117C83.025 55.1611 79.4196 57.3663 76.1763 54.3563C75.5405 53.7689 75.1059 53.4631 74.6874 52.6261C74.1884 51.6281 73.9711 50.8233 74.0677 49.6886C74.2126 48.0227 74.5667 47.4593 75.9107 46.7672C76.5465 46.6384 77.5444 46.6384 78.3573 46.6062L78.1882 45.568C78.1239 45.1415 77.8824 44.7552 77.6651 44.2482C77.2386 43.2824 77.0293 41.689 77.3352 40.6588L77.9629 38.5664C78.3492 37.2787 80.2002 34.7999 81.6408 34.5826L81.8581 34.9046C81.8822 34.9448 82.2444 34.639 81.8983 34.3573C80.3531 33.0938 76.7798 29.2067 75.5163 27.42C75.1542 26.905 74.9369 26.4462 74.3735 25.9794C73.6492 25.3839 73.279 24.3537 72.8042 23.5168C72.5708 23.1063 72.4742 22.5752 72.3133 22.1969C72.0638 21.5853 71.7016 20.9897 71.5568 20.3137L70.6474 16.1288C70.5347 15.6137 70.5186 15.2274 70.5508 14.6078L72.3052 16.2897C72.7318 16.7002 73.2549 17.2233 73.6814 17.5613L74.9208 18.5512L76.4016 19.7986C76.5143 19.8308 76.6913 19.9032 76.796 19.9435C76.9006 19.9837 76.9569 20.3861 77.0132 20.5149C78.5584 20.7563 79.661 21.8428 80.7072 22.3578L82.679 23.3236C85.9464 24.9251 92.087 27.1142 95.62 27.927L98.6541 28.6272C98.8955 28.6835 99.2657 28.764 99.491 28.7882L102.38 29.0296L104.432 29.0859C104.746 29.0055 105.229 28.8204 105.752 28.7399C105.978 28.7077 106.444 28.9894 106.565 29.1342C107.257 28.3616 108.802 28.5467 111.12 27.6695C111.241 27.6212 111.539 27.3073 111.643 27.3717L112.038 27.6373C112.183 26.5186 114.484 26.2933 115.08 24.7803L116.005 22.4061C116.689 20.6436 116.255 17.505 116.005 15.67C115.973 15.4045 115.852 12.3623 115.724 12.4992L116.07 12.1209C115.514 11.0908 116.472 8.66033 117.333 7.4451C117.518 7.18756 117.398 6.55982 117.148 6.47934L116.046 6.10912C115.313 6.56785 113.792 5.82745 112.754 6.93002C111.885 7.84748 112.022 9.15932 112.046 10.3263C112.094 12.2497 112.11 14.0202 111.845 15.9517C111.788 16.3622 111.37 17.0784 111.273 17.4969C111.048 18.4305 110.702 18.9697 109.961 19.7182C108.489 21.199 107.33 21.3277 105.358 21.4726C104.497 21.537 103.378 22.2452 102.461 21.6577C101.825 21.2472 101.447 21.6577 100.819 21.8267C99.1209 22.2774 97.125 22.2049 95.4349 21.9152C95.1613 21.6577 94.783 21.3599 94.4691 21.2392L95.0486 21.9152C93.262 21.8026 91.588 21.1105 90.2682 20.0803C90.3406 19.8067 90.3728 19.6779 90.2682 19.5974C90.0911 19.4606 89.6726 19.3399 89.6323 19.694C87.7491 18.2776 86.6064 16.1529 85.3428 14.0766C84.9726 13.4649 84.6829 12.6843 84.4656 12.1692C84.2322 11.6139 83.6689 10.9057 83.4435 10.0446C82.7997 7.5497 81.9064 8.18548 81.7373 7.42093C81.7293 7.36459 81.8017 7.05076 81.7937 7.05881C81.7937 7.05881 81.6005 6.97831 81.5844 6.98636C81.5683 6.99441 81.4316 7.18755 81.3672 7.28413L79.7898 6.64031C79.6449 6.34253 80.0554 5.61015 80.3531 5.46529L81.7696 4.76513L82.7273 4.28227C84.0713 3.5982 86.0833 3.47746 87.6043 3.904C88.224 4.08105 88.8839 4.36276 89.4634 4.5881C89.7692 4.70882 90.3808 5.23997 90.6625 5.08706C92.7469 3.92012 91.3788 3.73499 95.781 3.3004C96.8191 3.19578 97.5596 3.87985 98.2678 4.40296C98.7668 4.76512 98.9599 5.07098 99.2496 5.49752C99.5393 5.92405 100.449 6.63223 100.006 7.21973C98.139 6.80124 95.8615 8.62007 96.0063 10.4952C96.0868 11.5012 96.618 12.3946 97.2537 13.0947C98.5253 14.487 99.644 14.648 101.68 14.5272C102.324 14.487 103.378 13.6983 103.917 13.2718C105.463 10.3584 104.577 7.01853 105.092 4.29834C105.213 3.66255 105.881 2.92215 106.163 2.39904C106.67 1.45743 107.33 1.48962 108.175 1.28842C108.972 1.10332 109.8 0.789466 110.662 0.797514C111.523 0.805562 112.408 0.74925 113.277 0.620483L114.38 0.797514C117.044 0.668747 119.563 0.644602 122.218 1.047C123.047 1.17576 124.81 2.58414 124.592 4.05691L127.353 5.04683C127.948 5.25608 128.713 5.84356 128.592 6.39082L129.574 7.3083C130.983 6.93004 132.906 7.36461 134.411 7.89578C135.723 8.36256 136.93 9.46509 137.654 10.5355C138.451 11.7105 139.336 12.9016 139.715 14.3019C139.779 14.5434 139.682 15.0986 139.69 15.324C139.723 16.3541 139.795 17.6096 138.958 18.4546C138.234 18.2776 138.266 17.3199 137.992 16.8933C137.783 16.5714 137.316 15.823 136.994 15.6057L134.725 14.0202C134.17 13.6339 132.471 14.3985 131.506 14.2617C129.719 15.5252 129.196 17.7383 129.244 19.7906C129.284 21.4001 129.276 22.9937 130.677 24.0962C132.294 25.3678 133.397 26.2933 134.186 28.3697L135.288 31.2911C135.328 31.3876 136.029 31.3957 136.004 31.2911L135.916 30.8162C137.244 29.0135 137.356 27.9431 137.228 25.5287C138.177 24.9815 139.497 26.8566 139.706 28.0075C140.149 30.446 140.334 30.1402 138.451 32.9409L139.65 34.3814C139.972 37.1177 140.672 40.0391 138.145 41.7614C137.002 38.6308 137.244 39.5885 135.787 37.3753L135.626 37.7052C135.586 37.7937 135.264 37.6248 135.151 37.6248L134.379 37.6006C134.186 37.6006 134.065 38.0513 133.92 38.2203L132.463 39.9184C131.884 40.5864 131.063 41.2061 130.307 41.6245C130.041 41.7694 129.622 42.2845 129.357 42.4052C128.117 42.9766 124.15 44.5299 122.991 44.385C122.758 44.5218 122.259 44.8115 121.977 44.8679L120.029 45.2944C119.434 45.4232 118.79 45.7853 118.621 46.3004C118.122 47.8617 120.335 48.8355 121.703 49.3023C122.387 49.5357 123.401 49.3184 124.142 49.3747C125.478 49.4793 126.701 49.2459 127.433 48.0388L127.144 46.7672C128.641 45.9463 130.274 46.6062 131.143 48.0709L130.95 50.3002L131.739 50.421C131.932 50.4532 132.085 50.8555 132.19 51.1131L132.463 50.8314C132.576 50.7106 135.312 52.28 135.32 54.461C135.32 56.151 133.735 57.326 132.061 57.5272C131.683 56.2718 131.28 54.7748 130.258 53.9459C128.858 52.8111 127.369 52.2961 125.808 52.8756C125.8 53.3987 125.679 54.1874 125.872 54.4932L126.975 56.1994C125.711 57.5514 123.756 57.5595 122.395 56.4006L121.438 55.5797C120.158 54.4932 120.44 53.7125 119.925 53.3584C119.595 53.1331 119.056 53.3262 118.621 53.3745L114.178 53.8896C113.76 53.9379 113.253 53.8654 112.851 53.8654H110.468C108.971 53.8654 107.644 53.4067 106.235 52.9158C104.851 52.4329 102.139 50.1956 102.71 48.8677C104.553 49.8415 107.467 51.0084 109.124 49.8978C108.014 48.8677 106.766 47.6203 107.732 46.2924C106.847 46.0348 106.058 45.7692 105.31 45.6002L102.726 45.0289C102.38 44.9484 101.833 44.5782 101.543 44.377C100.288 44.2402 97.8171 43.371 97.1169 42.5581C95.95 42.8479 95.0164 41.9706 93.93 41.6085C92.0226 40.9808 89.5439 40.9244 87.6043 41.6728C86.3569 42.1557 86.1476 44.4816 86.4937 45.5198L87.6043 47.0489C88.224 47.902 89.3185 48.6424 90.2199 49.1574L92.0145 48.9482L92.5699 47.4673L91.757 45.2944C94.5174 44.7874 97.2698 46.3648 98.2517 48.9804C98.5977 49.9139 98.8392 50.8153 98.3322 51.7247C97.9781 52.3605 96.7065 54.1954 96.2639 53.6964L96.5697 54.0505C95.9983 54.6219 95.0727 54.7266 94.268 55.0243C93.4632 55.3221 92.3526 55.8452 91.4673 55.1048L91.1776 54.8634C91.1212 54.8151 91.1213 55.0887 91.0891 55.2738L88.8598 54.4369L88.6022 53.9942C88.5298 53.8654 88.1998 53.9298 87.894 53.9942L87.886 54.0103ZM87.717 10.0607C89.3427 13.4247 91.3305 16.4829 95.3222 17.6418L98.485 18.5593C100.94 19.2755 101.583 18.3581 103.716 18.5593C105.189 17.7223 105.567 17.9959 106.903 16.4265C108.143 14.9779 108.65 11.96 108.617 10.1733L108.577 7.63018C108.569 7.00245 108.851 6.08501 109.157 5.44117C109.406 4.91806 110.163 4.45127 110.678 4.1213C111.305 3.71086 111.998 3.69479 112.682 3.59016L115.925 3.08314C116.046 3.6465 116.126 3.85575 116.207 3.13948L117.229 3.26823C117.953 3.35676 118.983 3.05095 119.804 3.43725C120.279 3.66259 120.56 4.15352 120.44 4.64444C120.367 4.93416 119.796 5.22386 119.426 5.16752C119.128 5.11924 118.895 4.70075 118.613 4.21788C118.516 4.19373 118.098 4.49956 118.122 4.67661C118.138 4.82148 118.307 5.15142 118.42 5.25604C119.096 5.89987 120.456 6.02864 120.882 5.05484C121.027 4.73292 121.116 4.05693 121.172 3.62234C120.915 3.30042 120.263 2.6083 119.828 2.56806C118.243 2.4393 115.861 2.5117 114.323 2.64047C113.052 2.74509 115.048 2.053 112.641 2.87389C112.521 2.91413 112.4 2.54393 112.319 2.43126C112.158 2.59222 111.861 2.90608 111.7 2.97852L110.485 3.5016C107.507 4.78927 108.714 6.49543 107.563 7.33241C108.392 9.08686 108.038 12.129 107.458 13.5857L106.815 15.2033C106.477 16.0564 105.833 16.998 104.819 17.3118C100.642 18.6076 100.352 18.4466 96.4409 17.2796C96.2397 17.2233 96.0063 16.5714 95.8292 16.6277L95.0889 16.8451L93.3827 16.1288C91.9019 11.9358 91.7007 12.7406 92.6262 8.99834C92.8918 7.92796 93.608 7.67848 94.3162 7.23584C94.9601 6.83345 95.9017 6.34255 96.6019 6.45522C96.7709 6.47936 96.9721 6.07695 96.8111 5.98843C96.127 5.61017 94.7991 6.25401 94.0748 6.60008C93.0044 7.12319 92.5216 7.37265 92.0951 8.48326C91.7973 9.26391 91.4109 10.0848 91.4995 10.9701C91.5639 11.5978 91.5075 12.3785 91.6121 12.9257C91.7409 13.6259 92.1111 14.2778 92.0628 15.0906C91.3224 14.6882 91.0649 14.2778 90.8315 13.6661C90.6464 13.1832 90.0267 12.7567 89.6967 12.298C88.3205 10.3584 88.8356 10.3182 87.9101 8.83737C86.0672 5.89183 84.5702 6.55176 84.8036 6.82539C85.7774 7.96819 86.0752 6.68054 87.7089 10.0607H87.717ZM138.041 15.2838C138.419 14.986 138.668 13.8593 137.727 12.8292C136.882 11.9197 136.117 11.2357 134.91 11.0184C131.924 10.4792 130.894 10.3987 127.86 10.447C127.747 10.447 127.45 10.1251 127.353 10.1814L126.862 10.4631L126.355 9.38462C126.009 8.96613 125.848 8.6925 125.558 8.12915L125.438 8.59594C124.077 7.7831 122.5 8.20967 121.204 8.77302C120.432 9.11103 119.989 9.3605 119.651 10.2136C119.426 10.785 119.047 11.4529 119.241 12.0565L119.86 13.98L120.866 14.825L122.379 16.0403C124.432 16.4507 126.588 15.1469 127.248 13.1028L127.264 11.2759C129.381 10.7287 131.393 11.0023 133.485 11.3C138.274 11.968 137.204 15.9437 138.041 15.2838ZM127.256 18.5351C126.725 17.9717 125.438 20.4988 123.514 19.0261C123.49 18.8249 123.603 18.342 123.442 18.3661C123.281 18.3903 122.846 18.4949 122.717 18.6317C121.888 19.5572 119.804 20.0159 118.854 18.5995C118.701 18.7604 118.532 19.0582 118.597 19.2031C118.653 19.3238 118.878 19.5492 118.999 19.6135C121.333 20.9656 122.009 19.1226 123.659 19.9515C124.866 20.5632 126.951 19.6296 127.248 18.5271L127.256 18.5351ZM117.172 38.7354L117.712 38.6146C117.808 38.5905 117.639 38.341 117.543 38.3088L117.132 38.1801C116.778 38.0674 116.303 37.7294 116.231 37.4236C116.15 37.0856 116.263 36.5061 116.496 36.3693C117.43 35.8381 118.766 36.6349 118.903 37.4155C119.176 38.9768 116.979 39.9828 115.691 39.9587L114.814 38.7032C114.404 38.1157 113.406 37.8742 113.333 36.7556C112.738 36.5785 111.901 36.4659 111.136 36.5222L108.609 36.7073C107.33 36.8039 106.171 36.4417 104.65 36.3693L105.607 39.4436C102.767 39.0814 105.036 38.9527 103 38.84C102.59 38.8159 102.388 37.6811 102.742 37.496C102.509 37.3752 102.163 37.2545 102.139 37.1097L102.042 36.5785C102.018 36.4578 101.575 36.5463 101.567 36.6751C101.559 36.8039 101.559 37.1177 101.584 37.2465L101.728 38.0513C101.761 38.2122 101.35 38.5261 101.181 38.4617L99.314 37.7535C99.1209 36.7556 99.0565 35.8864 99.0645 34.816C96.2156 35.2184 93.8978 34.2768 90.582 33.6491C90.1394 33.5686 89.6243 33.2467 89.238 32.9892C89.1978 33.8261 86.5903 32.3614 86.1879 31.9993C85.6648 31.5325 85.2865 31.444 84.8117 31.0979L80.3853 27.8305C79.7898 27.3878 79.3552 26.921 78.8723 26.4301C78.2687 25.8104 77.4237 25.2712 77.3432 24.3135C76.4016 24.5308 74.3816 21.545 74.0033 20.9495C73.8906 20.7644 73.279 20.7563 73.2549 20.9253C73.2388 21.0541 73.2549 21.4082 73.3595 21.5209L77.7939 26.4864C78.2043 26.9532 78.5906 27.4522 78.8884 27.9109L79.0815 28.2006C79.3632 28.6272 79.0413 27.6695 79.3391 27.9029C81.9466 29.947 84.4012 31.9188 87.4112 33.6008L90.7912 35.492L92.264 36.2968L92.6584 36.5061C92.7228 36.5383 92.9401 36.3934 93.0205 36.4256L95.6924 37.2787L97.4952 37.8581L99.9659 38.7515C100.618 38.9849 101.616 38.7354 101.728 39.7414C101.897 39.5643 102.091 39.3068 102.123 39.3953L102.324 39.8701C102.573 39.2102 104.424 39.9989 105.752 40.1759L108.183 40.5139C108.931 40.6186 109.76 40.6588 110.509 40.7071L112.537 40.852C114.742 41.0049 116.794 40.4013 118.919 39.7414L120.029 38.5905C120.416 38.9607 124.77 39.0171 124.753 38.5422C124.351 38.0352 120.649 38.7112 119.997 37.6167C119.297 36.7073 118.75 35.5403 117.382 35.5403C116.794 35.5403 116.094 35.7255 115.788 36.1359C114.959 37.2224 116.174 37.8099 116.239 39.1217L116.577 38.671C116.649 38.5744 117.068 38.7836 117.18 38.7595L117.172 38.7354ZM122.621 22.9052C123.916 23.8789 125.88 24.2652 126.934 22.8971L124.794 23.3317L122.621 22.0681C119.337 24.0238 121.003 21.6899 118.862 22.6073C120.021 23.6375 121.373 23.6214 122.629 22.9052H122.621ZM92.1433 37.0856C90.1957 36.6188 88.3769 35.7737 86.5903 34.5907C86.1959 34.3331 86.0671 34.1722 85.874 33.6813L85.2302 34.5022C88.0067 36.7475 90.8074 36.9407 93.2378 38.5583C93.4471 38.51 93.9621 38.5503 94.2599 38.679L96.4248 39.6367C98.7023 40.6427 99.9015 40.1115 100.907 41.4716C101.35 41.0129 102.968 41.5521 104.175 41.7775L107.724 42.4293C110.42 42.9203 113.309 42.8479 116.118 42.711L118.114 42.6145C118.645 42.5903 119.208 42.5662 119.571 42.6145C120.045 42.2845 120.786 42.2764 121.462 42.2443L123.442 41.6648C124.649 41.3107 127.216 40.1196 128.037 39.5482L129.14 38.7837C129.453 37.9547 130.186 36.659 130.999 35.9427C131.9 33.5284 131.86 30.9611 130.194 28.7721C129.035 27.251 126.331 26.5509 124.311 27.1303C123.498 27.3637 122.894 28.1202 121.937 27.9994C122.009 28.1363 122.162 28.2972 122.09 28.4018L121.679 28.9652L121.108 30.3012C120.078 29.3998 117.752 29.5447 116.577 30.1402C116.021 28.7801 115.007 28.3455 113.663 28.6916C113.205 28.8123 112.609 29.1342 112.432 29.5125C112.223 29.947 112.368 30.6955 112.633 31.0496L113.551 32.297L114.533 31.6452L113.004 30.5426C113.181 29.9551 113.76 29.0859 114.38 29.1101C115.072 29.1423 115.732 29.7539 115.917 30.2207C116.174 30.8484 116.303 31.7337 115.917 32.1522C115.096 33.0536 114.364 33.2628 113.317 33.2869C112.609 33.303 111.402 34.0032 110.847 33.2869C110.605 32.466 110.372 31.7015 109.639 31.2991C109.535 31.1703 109.414 31.0094 109.454 31.0738C109.808 31.5566 104.304 30.438 102.412 31.2588C101.704 31.5647 101.986 32.4419 101.938 32.8362C101.825 33.5686 100.763 33.0696 100.384 32.8524C100.143 32.7719 99.3382 32.796 99.314 32.5144L99.0967 30.1483C98.1149 30.2529 98.9921 31.9912 98.0344 32.3132C97.6964 32.4258 96.9157 32.2407 96.9157 31.9268C96.9157 31.2749 96.8996 30.285 96.4972 29.8102C94.8474 29.0537 93.439 29.3917 91.9019 28.8525L90.6223 28.4099L87.4594 27.8546C87.1214 27.7983 86.6144 27.4603 86.3569 27.2752C85.3348 27.42 82.2444 25.7622 82.4939 26.575C82.5341 26.7038 82.7273 27.1464 82.856 27.1866L84.7151 27.8546L84.6587 28.2489C84.6507 28.3133 84.6346 28.4984 84.6346 28.4421C84.6346 28.3857 85.0773 28.1765 85.1336 28.2087L87.1777 29.2066C87.4916 29.3595 88.0308 29.5044 88.4091 29.6573L91.4431 30.8564C92.0709 31.1059 92.7711 31.452 93.3988 31.6291C94.3404 31.8946 95.3786 32.1442 96.1351 32.7156C96.4972 32.627 97.133 32.5224 97.5354 32.6833C99.7647 33.5847 102.533 33.971 104.939 34.0998L106.477 34.1802C109.1 34.317 113.961 34.4136 116.046 33.1823L117.607 30.599C117.864 30.1724 119.096 30.1402 119.385 30.4943C119.788 30.9692 120.166 31.1301 120.665 31.3876C121.277 31.7015 120.931 32.7477 120.239 32.9248C118.822 33.2789 118.347 31.452 118.243 32.3292L118.146 33.134C119.675 33.303 120.214 34.5505 121.068 33.3513C121.164 33.2145 121.599 32.9731 121.703 33.1018C122.363 33.8825 122.057 34.7275 123.643 35.2184C125.969 35.9347 125.904 36.1681 128.311 34.1802C129.083 33.5444 129.413 32.4982 129.027 31.6129C128.641 30.7277 128.093 29.9873 127.297 29.6573C126.5 29.3273 125.615 29.432 124.713 29.7942L123.53 30.2609C124.118 31.1703 122.693 31.8222 124.053 32.8604C124.818 33.4399 126.025 33.7939 126.709 32.8201C125.631 32.9972 124.319 32.8443 124.214 31.7981C124.094 30.5909 125.325 30.1161 126.283 30.1966C126.918 30.2529 127.297 30.3253 127.683 30.7599C128.069 31.1945 128.464 31.7176 128.423 32.2165C128.327 33.5927 126.476 35.1943 125.067 34.977C123.731 34.7758 123.031 33.9308 122.412 32.9328C121.832 31.9993 121.695 31.2347 121.969 30.2046C122.323 28.8767 123.12 28.2328 124.472 27.9029C125.301 27.7017 126.194 27.4119 127.063 27.597L127.618 28.3858C128.866 28.1524 129.55 29.0054 130.081 29.9149C131.361 32.1119 131.288 34.3653 129.727 36.4095C128.979 37.3914 128.303 38.7434 127.087 39.2746L125.864 39.8058C125.776 39.7655 125.55 39.516 125.51 39.6206C125.478 39.6931 125.341 40.1679 125.277 40.2082C124.601 40.6186 121.059 41.874 120.335 41.4797C120.037 41.6004 119.369 41.9948 118.943 42.0269C114.5 42.2925 113.462 42.5903 108.915 41.9465L107.66 41.7695C106.227 41.5683 104.103 41.3429 102.686 40.8842L99.3382 39.8058L97.7608 39.3229C95.8293 38.7354 93.9863 38.0674 92.1513 37.0936L92.1433 37.0856ZM97.0284 50.2922C96.8835 49.9944 96.8433 49.6161 96.8031 49.1413C96.7065 48.0066 94.3806 46.1717 94.775 47.3949C94.9681 48.0066 96.4409 49.2862 95.8695 50.4692C95.4993 51.2418 94.3726 51.9017 93.4793 52.1351C92.0789 52.4973 90.6867 51.8857 89.3266 51.4511C87.9665 51.0165 86.6949 50.5014 85.5843 49.5437C84.5541 48.6504 82.3088 46.5258 81.842 45.3266L81.0292 43.2502C80.3773 41.5924 79.8622 39.9023 80.8521 38.3008L81.7535 37.7133C82.2283 36.6912 83.2423 36.4981 84.2644 36.8844C84.7151 37.0534 85.2382 37.2867 85.3992 37.6569C85.5601 38.0271 85.544 38.5261 85.3106 38.9205L83.9345 37.9547C83.5964 37.9949 83.5401 39.009 83.8701 39.2585C84.3207 39.5965 84.9726 39.7575 85.4152 39.6287C85.7613 39.5241 86.4454 38.9527 86.4535 38.5664C86.4615 38.0513 86.1154 37.1338 85.6808 36.8683C84.1356 35.9106 81.8742 35.8784 80.7716 37.0695C79.2506 38.7193 79.5001 40.5542 79.8542 42.8157C80.2888 45.5681 79.8541 44.3045 80.1761 45.8497C80.4336 47.073 80.329 48.4814 80.0392 49.7047C79.7093 51.097 78.4055 51.604 77.142 51.2016C76.7718 51.0809 76.3292 50.928 76.1682 50.7107C76.0072 50.4934 76.0073 49.7771 76.0877 49.592L77.1018 49.2298C76.7155 48.7309 76.289 48.6504 75.8946 48.8114C75.4037 49.0126 75.1703 49.4471 75.1864 49.9944C75.2266 51.3625 76.5947 52.2398 78.0273 52.0144C78.486 51.942 79.323 51.9581 79.6047 51.6925C80.9326 50.437 80.4819 50.3968 81.0694 48.9804C80.836 47.9583 80.7394 46.8879 81.0131 45.6485C82.4778 48.2158 84.7553 49.8495 87.2421 51.3384C87.3307 51.5959 87.4755 51.9903 87.5882 52.1673C87.7009 52.3444 88.3689 51.9983 88.5701 52.0466L90.59 52.5134C94.0104 53.3021 95.2981 52.8675 97.0204 50.3002L97.0284 50.2922ZM131.868 52.1834L130.17 51.1211C130.065 51.0567 129.502 51.274 129.486 51.1533C129.284 50.0749 130.532 49.0206 128.415 47.1776C128.134 48.3043 129.341 48.8355 129.059 49.3103L128.649 50.0105C128.633 50.2198 128.608 50.4853 128.52 50.6704C128.391 50.928 127.844 50.944 127.602 50.936L124.745 50.8394L123.08 50.7831C120.85 50.7106 118.524 51.0084 116.319 50.429L113.76 49.7449C113.639 49.7127 113.237 49.5518 113.221 49.431L113.181 48.8999C112.464 48.7389 112.118 48.087 112.271 47.5237C112.464 46.8074 113.1 46.3889 113.849 46.7511C114.42 47.0327 114.637 47.8295 114.927 48.6021C115.386 48.2722 115.45 47.3144 115.193 46.8637C114.855 46.2843 114.187 46.0429 113.519 46.0831L112.207 46.1475C111.732 46.7028 111.313 47.4512 111.402 48.1192C111.587 49.5276 113.084 50.3646 114.436 50.606L116.987 51.0567C119.772 51.5557 119.868 51.0567 122.492 51.4832C122.09 53.4952 122.444 54.4127 123.586 55.7326C123.707 55.8694 124.206 55.7487 124.407 55.6521L123.458 54.2196C122.886 53.3665 123.216 52.5536 123.409 51.8696C123.627 51.105 127.337 51.443 128.182 51.7247C128.624 51.8776 128.818 51.9581 129.421 51.9983C131.216 52.1271 132.753 54.0184 132.681 55.7487C132.665 56.1028 132.657 56.3201 132.681 56.4891C132.697 56.6259 133.276 56.4649 133.341 56.3362C133.791 55.4992 133.461 53.1572 131.9 52.1754L131.868 52.1834Z" fill="black"/>
<path d="M45.5054 54.3242C44.7328 54.0747 44.2177 53.9298 43.5819 53.3423C41.9321 51.8052 40.8457 49.6886 42.246 47.6283C45.3766 43.8378 44.6201 45.9302 46.109 44.9484C46.6482 44.5943 47.6542 44.5219 48.3302 44.8357C48.5314 45.391 47.8312 46.1234 47.461 46.4775C47.4932 47.0489 47.952 48.1434 48.5234 48.3607C50.1329 48.9804 52.3703 47.0086 52.9417 46.3004C54.012 44.9645 53.996 43.2342 53.2636 41.9626C53.6338 41.689 53.7062 41.6004 53.2797 41.7292C51.1309 40.5381 49.9478 40.4577 47.6059 40.6508L47.0747 40.353C46.9621 40.2887 46.7045 40.6267 46.608 40.7554C46.2136 41.2866 45.5295 41.3027 45.0628 41.528C42.5116 42.7674 42.3909 42.711 39.7833 43.4917L37.1597 44.2804C36.6607 44.4333 36.1135 44.5782 35.5501 44.715L33.2967 45.2542C33.1357 45.2944 32.6126 45.3588 32.6207 45.5198L32.6851 46.3729L32.7334 46.9845C32.7414 47.1455 32.339 47.1052 31.9769 47.1857L32.6126 47.403C32.3792 47.7893 31.7757 48.1514 31.4135 48.1756L31.1238 49.3667C31.8964 49.3103 33.1519 49.6001 33.8923 49.3345L37.5782 48.0146C37.6587 49.1333 36.87 49.8737 36.1376 50.6785C35.2202 51.6764 33.9969 52.3927 32.5643 51.8052L31.8722 52.7227C30.995 52.8112 30.0454 52.8353 29.1199 52.8514L27.293 52.8756C26.4962 52.8836 25.7397 52.8434 24.9269 52.7227L22.6815 52.3846C21.748 52.2398 20.8305 52.1754 20.1384 51.8615C19.9452 52.787 19.5509 53.9218 18.8427 54.4369L17.3538 55.5233C16.9514 55.8131 15.8891 55.9579 15.4384 55.8453C14.1347 55.5233 13.4023 55.5555 13.2655 55.0807C13.0884 54.4932 15.3177 53.0365 14.022 51.6845C13.0401 50.6624 9.10469 51.7891 8.33209 55.5555C8.27576 55.8291 7.71238 56.2155 7.50313 56.1269C6.82711 55.8452 5.31412 54.8473 4.95196 53.8413C4.67833 53.0848 4.67834 52.0949 5.31413 51.4109C5.86943 50.8153 6.56958 50.091 7.25365 49.6967L9.34614 48.4814C9.05641 47.7651 8.83103 47.1374 9.05637 46.5982C9.51511 45.4796 12.0583 44.7874 13.0482 45.5037L12.5411 46.397L13.1528 47.4271C13.3862 47.5881 14.0783 48.0227 14.4083 48.0307L17.1365 48.1192L16.5087 48.417C16.9997 48.4412 19.6233 47.8215 20.3154 47.3547L20.8708 47.6042C21.0237 47.0972 21.1766 46.7511 21.5709 46.2843C21.8204 45.9866 21.6594 45.3427 21.4019 45.0128L20.7822 44.2241C19.9291 44.1677 19.1807 43.9666 18.3759 43.6285C17.2492 43.1537 16.7743 43.6929 14.3036 42.6869L12.3158 41.8741C9.62782 40.7795 7.53535 38.9607 5.91772 36.6027C5.14512 35.975 3.95402 36.7154 3.39066 37.2063C2.82731 37.6972 2.80316 37.9306 2.57782 38.494L1.87765 40.2645C0.477316 39.3712 -0.0860437 37.5524 0.0105312 35.8623C0.107106 34.1722 0.0105331 32.9329 1.77303 32.0476C1.45111 31.4601 1.03265 30.8082 0.646348 30.2126C-0.488408 28.4904 0.517557 24.3538 2.83536 24.4906C2.59392 26.1082 3.26996 29.5527 4.71053 29.9068C5.43484 29.8263 5.3624 28.8365 5.5475 28.3295C5.88551 27.412 6.42472 26.1404 7.06051 25.4805L8.54135 23.9433C9.2898 23.1627 10.4809 22.6315 10.7786 21.4243C11.173 19.8148 10.9315 18.173 10.8189 16.5151C10.7384 15.2999 9.86118 13.9559 8.56546 13.4972C7.10879 12.9821 6.17526 13.1913 4.82322 13.634C2.81929 14.2939 3.74478 14.7848 1.99033 15.823C2.17544 15.8632 2.46513 15.9195 2.46513 15.9195L1.65234 16.8612L1.08897 16.7566C0.928015 16.7244 0.83946 16.2576 0.758981 16.0645C-0.00557048 14.149 0.565863 12.8131 1.596 11.2277L2.54564 9.76293C2.76294 9.42491 2.86756 8.97423 3.24581 8.65231C5.31412 6.89787 6.60179 6.40694 9.2898 6.1816L11.1408 6.02063C11.2535 6.01258 11.6156 5.86772 11.7042 5.81943C11.7927 5.77114 11.6076 5.56193 11.5351 5.40097C13.3701 2.95441 16.0339 4.24206 16.2754 1.81964C16.388 0.660743 17.6113 0.765354 18.3195 0.499773C18.8346 0.306623 19.3819 0.0490841 20.0016 0.0410362L23.2931 0.016918L25.6995 0.000806437C27.301 -0.00724147 28.8784 0.0410656 30.4558 0.322742L32.4114 0.676803C34.8902 1.12749 35.3248 3.38898 35.6065 5.23195L35.7674 6.24599C35.8881 6.9864 35.3409 8.25795 35.5018 9.03859L35.8237 10.5838C36.1617 12.2256 37.039 13.9639 38.8015 14.0605C41.3527 14.2053 42.3909 13.8834 43.8475 12.0566C45.103 10.4792 44.5396 8.87767 43.2278 7.56586C42.0528 6.38282 39.6384 7.21175 40.3467 6.25405L40.733 5.73091L41.5619 4.60419C42.7369 3.0107 44.2097 3.04291 45.8434 3.11534C46.954 3.16363 47.7105 3.26826 48.6199 3.92819L49.8352 4.81344L51.4769 4.4835C51.4125 3.66261 52.5312 3.71091 53.1348 3.59019C55.9113 3.03489 58.7281 3.96844 60.6355 6.00457C60.4343 7.2359 59.0017 6.22989 57.7865 8.2982C57.4002 8.95008 57.1105 9.61803 56.7644 10.3343L55.7101 12.5072C54.8651 14.2617 55.3641 12.9016 54.0442 15.3482C50.9297 21.1507 45.3042 22.4303 39.0348 21.529C36.8458 21.2151 33.7957 21.3117 31.8481 20.1769C31.7354 20.1125 31.6147 19.7745 31.5503 19.7101C31.4618 19.6297 31.2284 19.6538 31.0513 19.6538C29.6268 18.6639 28.8623 17.1992 28.6048 15.5091C28.4599 14.5514 28.0656 13.4247 28.4438 12.5234L28.9025 11.4288C28.4841 11.7669 28.315 11.8554 28.3875 11.5093C28.4116 9.98825 28.8301 7.16343 27.6954 6.22183C26.3916 5.13536 24.3635 5.10317 22.931 6.02868C24.3877 8.49134 24.6854 9.32834 24.5969 12.3785L24.5245 14.8653L23.9853 17.8189L24.0819 20.2976C24.1221 21.2956 24.943 22.2372 24.613 23.3156L25.3454 23.6617C25.6834 25.3115 29.0554 26.9774 30.3431 27.3556L33.353 28.2248C33.6106 28.249 34.1337 28.249 34.4234 28.257L35.4857 28.2892C36.878 28.3295 39.4453 28.4984 40.7491 28.257L42.6645 27.9029L43.3968 28.1604C43.9924 27.8305 44.5477 27.5488 45.1754 27.3798L49.2959 26.2692C49.5776 26.1968 53.0865 25.07 53.2073 25.0217L54.7685 24.3779C55.4768 24.0882 56.2252 23.7502 56.9173 23.4202L58.7683 22.5269C59.3236 22.2613 60.1043 21.9474 60.555 21.6577L62.3175 20.5149L63.7983 19.4928L65.2791 18.4305C66.0517 17.8752 67.2186 16.3944 67.8705 16.7243L67.6049 16.4588C67.6049 16.4588 67.5808 16.33 67.6291 16.3219C67.6854 16.3139 67.9832 16.33 68.0234 16.2898L69.794 14.5917C69.8664 14.9055 69.8584 15.4528 69.7538 15.9035L69.295 17.9557L68.6995 20.4184C68.4822 21.3197 68.0717 21.8992 67.6371 22.704C67.2026 23.5088 66.9209 24.4503 66.2851 25.239L63.8546 28.2329L63.1062 29.0537L62.5991 29.931L60.1043 32.3856C60.0399 32.45 59.6053 32.5224 59.5248 32.5627C59.4202 32.611 59.4926 32.8282 59.5168 33.0696L58.2935 33.9228L59.0983 34.808C59.2915 34.0676 60.9332 36.1279 61.07 36.2969C61.4805 36.7636 61.7219 37.1821 61.9392 37.8018C62.905 40.4496 63.3315 41.6649 62.3094 44.6345C62.1002 45.2542 61.8427 45.7451 61.8024 46.3568L64.5146 46.5097L64.6272 47.0409C64.6514 47.1616 64.5709 47.234 64.9331 47.0247C65.5688 47.3869 65.77 48.1836 65.9712 48.9401C66.2449 49.9381 66.2851 50.7509 65.762 51.7247C64.8204 53.4953 63.9834 54.3001 62.1806 55.2256C62.1002 55.2658 61.8024 54.7588 61.7944 54.8473C61.6093 56.0384 58.7522 55.6602 57.545 54.791C56.7724 54.2357 55.4446 54.2115 54.7203 53.2699C54.5593 53.0607 54.342 52.8434 54.1971 52.7307C54.0523 52.6181 53.4487 52.8032 53.336 52.9722C52.7163 53.8735 51.1953 53.8977 50.3905 54.1793C48.129 54.9519 47.7668 55.0324 45.5295 54.3081L45.5054 54.3242ZM51.9115 9.68242L51.5091 10.5918C51.2516 11.1793 50.8895 11.9037 50.4951 12.3866L48.9982 14.2376C48.9096 14.3502 48.5797 14.5032 48.4911 14.3985C48.0807 13.9157 48.7085 14.0122 48.8211 11.799C48.9097 9.97215 48.7889 7.72679 47.115 6.58399C46.6804 6.28622 46.109 6.03671 45.61 5.65846C45.1835 5.3285 44.2016 5.36071 43.7831 5.578C43.6705 5.64239 43.7831 6.15748 43.9119 6.15748H44.3465C44.942 6.17357 45.441 6.39082 45.9802 6.66445C47.0828 7.2278 47.5254 7.94407 47.8795 9.07882C48.0083 9.48927 48.2015 9.98022 48.2336 10.4711C48.4107 13.7547 48.1049 11.4288 47.6542 13.6903C47.2598 15.7184 47.3081 15.8793 45.0547 16.6439C42.1092 17.6418 39.2522 18.1488 36.2584 17.1911C34.3912 16.5956 33.6106 14.978 32.9587 13.2396L32.4356 11.8393C31.9688 10.5999 33.2001 8.48331 32.3068 5.19172C31.8803 3.63042 30.0776 2.43933 28.5646 2.27032C27.2125 2.11741 26.1823 2.02084 24.9027 1.72307C24.5084 1.63454 23.8726 1.70698 23.4943 1.72307C22.6252 1.34482 20.2752 1.98061 19.9211 2.27838C19.6394 2.51982 19.5348 3.2119 19.5267 3.5982C19.5267 4.45932 20.0096 4.71688 20.742 4.82955C21.5709 4.95832 22.3757 4.42714 22.5286 3.75917C22.5769 3.52578 22.1101 3.18779 21.9733 3.33265C21.8124 3.50971 21.7077 3.71892 21.6031 4.05694C21.5226 4.32252 20.8949 4.41104 20.5971 4.25008C20.0337 3.93621 20.2511 2.74514 20.3557 2.71295L21.0558 2.46346C21.8043 2.19788 22.5366 2.39105 23.3092 2.37495C24.0818 2.35885 24.7498 2.31056 25.4741 2.41518L28.8301 2.9222C29.8683 3.07511 31.0433 4.14545 31.4457 5.10315C32.8701 8.52352 30.8501 10.5757 32.9184 15.1792C33.6347 16.7807 35.6306 17.6257 37.3448 17.9718C41.1997 18.7364 37.7472 18.6559 41.8194 18.0201C42.8013 17.8672 43.6061 17.6096 44.6443 17.3602L44.1936 17.9155C46.3826 16.3783 46.4711 17.0141 48.7809 15.316C49.8835 14.5031 51.1872 12.5314 51.8954 11.2759L53.0704 9.19956C53.5372 8.37063 54.0201 7.46927 55.2595 6.89787C56.6437 6.26209 53.8672 5.27219 51.9357 9.6583L51.9115 9.68242ZM9.96579 10.1492L11.503 10.2458C12.0019 10.278 12.686 10.2378 13.1528 10.4148C13.0804 11.6864 13.0321 12.8694 13.8288 13.8432L15.0923 14.6963C16.2271 15.4608 17.7884 15.5091 18.8668 14.5917L19.1163 15.0906C19.2128 14.7204 19.229 14.1571 19.4624 14.0846L20.3476 13.8191C20.3074 13.7788 20.0659 13.5857 20.1223 13.5052C20.1625 13.4488 21.3778 11.5737 21.1202 11.6139C21.3778 9.77096 20.0981 8.27407 18.6334 7.71072C18.4242 7.63024 18.1425 7.18761 17.9654 7.21175C17.8125 7.2359 17.4343 7.42096 17.2492 7.37267C15.8247 7.00247 14.0863 7.79118 13.5391 9.4571C13.1125 9.89974 11.9858 9.46514 11.4707 9.49733C10.7062 9.54562 10.0624 9.56173 9.49905 9.41687C7.16515 9.93194 5.08071 9.56173 2.86753 11.5254C1.6201 12.636 1.89376 14.1893 1.88571 14.1893C3.18947 14.318 2.04666 11.968 5.29801 10.8574C6.85126 10.3263 8.36425 10.0365 9.95774 10.1331L9.96579 10.1492ZM22.2147 18.5512L21.7238 17.9879C21.3456 17.5533 19.9291 19.8067 18.0056 18.2052C17.7723 18.012 17.394 17.7947 17.1285 17.6579C16.4846 18.7605 15.3498 19.018 14.3841 18.2937L13.2976 17.4728C13.0482 18.5191 13.9576 18.7927 14.6175 19.0985C15.4786 19.4928 16.2351 19.5492 17.0158 18.7685L18.9312 19.3641C19.8567 19.6538 21.2329 18.8007 22.1986 18.5593L22.2147 18.5512ZM24.6935 35.5967C24.2026 34.1481 21.4824 34.6551 20.9593 34.969C20.8627 35.5806 20.6696 36.1037 20.4684 36.5786C17.8769 38.0674 16.5007 36.7475 14.9314 37.6489L17.2331 37.7455C17.4343 37.7536 17.9413 38.0031 18.07 38.0433L20.2913 37.5282C21.7801 40.2806 28.7818 39.9345 31.3733 39.7897L33.4013 39.677C33.852 39.6529 34.6326 39.17 35.0753 39.3471C34.8017 39.6448 34.6407 39.8138 34.5683 39.9748L35.8237 39.0734C37.2482 38.8963 38.5198 38.5101 39.8879 38.1318L42.0206 37.5363L43.429 37.1419L45.6502 36.4337L48.4348 35.5243C49.5776 35.1541 50.648 34.3412 51.7747 33.9067C52.2012 33.7457 52.4668 33.7618 52.7646 33.3996C53.1267 32.965 53.6257 32.7799 54.0764 32.4902L54.9053 31.951L56.1608 31.0738C60.2894 28.2007 61.907 27.2591 65.1986 23.219L66.768 21.3036C66.9209 21.1185 66.6472 20.4908 66.4621 20.4988C65.8988 21.2312 65.4723 21.8106 64.917 22.4142L63.1223 24.386L62.5026 24.4986C62.4141 24.5147 62.6957 24.7642 62.7842 24.8608C60.9896 26.7682 60.4182 27.2913 58.2211 28.8204C57.5129 29.3113 56.7483 29.762 56.0884 30.277C55.9355 30.3978 54.181 32.0959 54.173 31.0255C53.5291 32.8926 51.5172 32.7317 50.5192 32.957C49.6501 33.1502 48.7407 33.4882 47.7749 33.6572L41.1997 34.7839C41.1675 35.5725 41.1273 35.9911 40.9744 36.6832C40.7249 37.8662 40.0811 37.158 38.6324 37.7535C38.1818 37.1902 39.1717 36.4337 38.721 36.0071C38.6325 35.9267 38.2784 35.8784 38.214 35.983C38.1496 36.0877 38.0691 36.3049 38.053 36.4417C37.876 37.8662 36.8136 38.6388 35.4213 38.4698C35.3248 37.9708 35.2685 37.9628 35.2041 38.3894L34.7051 38.6952C34.6326 38.7435 34.5683 38.333 34.6085 38.2364L35.5179 36.321C36.3066 34.6632 32.7495 36.7878 29.7154 35.7979C27.4942 35.0736 27.1803 36.1359 25.458 37.9226C25.1361 38.2606 24.6774 39.2424 24.106 39.0251L22.1503 38.2767C21.7962 38.1399 21.3053 37.6087 21.257 37.2626C21.1363 36.3774 21.9089 35.2748 22.939 35.2345C23.2368 35.2265 23.8645 35.4599 23.9048 35.7496C23.9531 36.0876 23.8646 37.0051 23.5748 37.1017L22.3435 37.5202C22.5769 37.665 23.0437 37.8582 23.3656 37.8904C23.7277 37.9226 25.0476 36.7073 24.6774 35.5967H24.6935ZM17.6838 22.0843C19.1002 23.1144 21.6514 22.0923 21.6514 21.9233V21.5209C19.9935 21.6416 18.9795 22.6074 18.0459 21.537C17.9333 21.4083 17.4987 21.191 17.386 21.2956L16.887 21.7865C15.4947 23.1466 13.4827 21.6094 13.3459 22.2694C14.7624 23.0661 16.3317 22.9132 17.6838 22.0843ZM16.5087 31.4923C16.8307 30.9611 16.5892 29.7539 16.219 29.3676L15.2292 28.3295C15.0119 28.4904 14.6256 28.587 14.2715 28.5226C12.8067 28.2651 11.5512 29.2067 11.181 30.6392C10.8994 31.7176 11.3822 33.3192 12.6296 33.8584C13.3942 34.1883 14.4324 34.6229 15.205 34.6551C15.7362 34.4941 16.8387 34.132 17.2331 33.7296L18.7702 32.1522C19.0438 32.5385 19.1485 32.8282 19.3095 32.8202L19.9693 32.788C21.6996 32.6995 22.2549 31.7739 22.1342 31.5808C21.7077 30.8726 21.088 32.1924 20.1223 32.2407C19.6313 32.2649 19.1968 31.3635 19.2451 30.945C19.3577 29.8908 20.8063 29.1423 21.9974 29.4079C23.5426 29.762 23.0759 31.9993 25.0235 32.6672L26.3192 33.118C27.5827 33.5526 29.1279 33.4801 30.496 33.5284L33.345 33.625L36.0572 33.3513C38.9222 33.0616 41.8758 32.8765 44.7006 31.8222C44.8938 31.7498 45.3927 31.8062 45.6422 31.8464C46.0204 31.2669 46.7689 31.0657 47.5576 31.0094L48.4509 30.945C48.7809 30.6714 49.2718 30.3656 49.7144 30.1724L51.4206 29.424C51.8552 29.2308 52.6278 29.102 53.0221 28.9089L57.199 26.8567C57.3519 26.7842 57.5531 26.5831 57.6336 26.4704C57.6899 26.3819 57.4243 26.076 57.3438 26.0921L55.3963 26.7118C54.2937 27.0659 52.7324 27.5247 51.6379 27.7339L48.7246 28.3053L47.131 28.6594C45.9721 28.9169 44.9179 29.0618 43.6785 29.2791L43.3163 31.3796C43.2439 31.7739 42.2621 31.8786 41.9402 31.6452C41.063 31.0014 42.5679 29.6493 41.1997 29.8344C40.4352 29.939 41.5378 31.5647 40.902 32.12C40.2662 32.6753 38.7854 32.7558 38.4635 32.5707C38.0208 32.3051 38.5359 30.6473 37.0631 30.4461L34.021 30.0437C33.852 30.0195 33.4657 30.0839 33.345 30.108C33.2726 30.1241 33.3933 30.3334 33.4576 30.3736L33.7232 30.5507C32.5885 30.5909 31.5583 30.6151 30.4316 30.7519C29.6429 30.8485 29.5062 31.9752 29.3211 32.8443C28.6692 32.7638 25.7719 32.7558 25.7317 32.0476C25.7317 32.12 25.4339 32.3454 25.3776 32.3051C24.4601 31.6452 23.5748 30.5507 24.4199 29.263C24.8705 28.5789 25.4098 28.2892 26.3353 28.5145C26.7859 28.6272 27.2205 29.4481 27.0757 29.8908C27.0435 29.9873 26.5525 29.8585 26.5767 29.9551L26.6894 30.4058L25.7317 30.8082C26.2628 31.3313 27.3895 31.0496 27.7356 30.4621C28.0092 29.9793 27.7758 28.8445 27.5907 28.3134C26.0938 27.3476 24.3957 27.9271 23.3897 29.2791C22.3515 28.8767 20.9673 28.5306 19.9291 29.0699C19.7199 29.1825 19.2451 29.4642 19.1404 29.3032C18.7461 28.5467 18.0862 27.5327 17.5308 26.913L16.9836 26.3094C16.887 26.1968 16.4122 26.4623 16.2432 26.4141C15.0602 26.068 13.3862 25.6495 12.1307 26.2773C9.65193 27.5166 9.08054 28.764 8.47695 31.1784C7.96188 33.2467 9.86924 36.0233 11.1489 37.4719C12.0583 38.494 12.9596 39.0573 14.1588 39.5724C15.8166 40.2886 17.3699 40.8198 19.1807 41.1578L21.0961 41.5119C22.5125 41.7775 26.3835 41.9787 27.7839 41.9143L31.9607 41.7211C32.4919 41.697 33.0311 41.3027 33.4174 41.858C33.5784 41.6246 33.7876 41.3027 34.021 41.3027L34.8821 41.3188L34.2947 41.7292C34.8741 41.6004 35.1155 41.4556 35.5904 41.1739C36.1779 40.8198 37.208 40.9003 37.9001 40.7474L39.1797 40.4657C39.5902 40.3771 39.9121 40.2806 40.3145 40.1599L42.7691 39.4195L44.6684 38.7837L46.8896 37.9547C47.7185 37.6489 48.6039 36.9568 49.4408 36.8683C50.0525 36.8039 50.1249 36.7234 50.6077 36.4981L52.3622 35.6611C52.9658 35.3714 53.5533 35.0334 54.1086 34.9046L54.672 34.3091C54.8088 34.1642 54.9054 33.633 54.7685 33.5687L51.9196 35.2426C51.2757 35.6208 50.5997 35.8542 49.7869 36.2003L49.7386 35.814C48.797 36.6751 46.7367 37.3189 45.5939 37.6972L42.3586 38.7917L40.3467 39.4597L38.8739 39.7736C36.5481 40.2725 33.0231 41.1819 30.5926 41.2785L27.8161 41.3831C25.5385 41.4717 21.9813 41.2785 19.8487 40.683L17.2975 39.9748C15.5672 39.4999 15.1487 39.2505 13.6518 38.5664C12.348 37.9628 11.7364 37.1741 11.0121 36.0635C10.4246 35.1621 9.33807 33.9791 9.33003 32.7316C9.33003 32.4741 9.02421 31.9269 9.13688 31.7739L9.55534 31.2106C9.24147 29.3435 10.6499 27.4683 12.3882 27.082C12.7584 27.0016 13.2574 26.6957 13.7725 26.583C14.3197 26.4704 14.867 26.7521 15.2855 26.8245C16.4927 27.0418 17.217 27.6132 17.8769 28.6594C18.8587 30.2127 18.3276 31.3313 17.1285 32.8202C16.219 33.9469 14.9153 34.3493 13.5391 33.5445C12.5975 32.9892 11.0845 31.4762 12.0583 30.2529C12.179 30.2529 12.3802 30.2931 12.4043 30.2288L12.525 29.7861C12.686 29.1825 15.1889 28.6272 15.8166 30.0276C16.1466 30.768 15.9052 31.8383 15.036 31.8625L13.4506 31.9108C14.191 33.0053 15.7925 32.6673 16.5007 31.5084L16.5087 31.4923ZM46.2136 52.1915C47.3645 52.3605 48.6843 52.3283 49.7466 51.9903L52.5231 51.097C52.8129 51.0004 53.1429 50.928 53.3441 50.936C53.5452 50.7187 53.9637 50.2681 54.3259 50.0186C55.6538 49.1092 58.3418 46.9684 59.0903 45.4152C59.2995 46.8638 59.2915 48.3848 59.2432 49.8254C59.5731 50.4692 60.4423 51.5235 61.1103 51.6925C62.0841 51.942 63.243 51.7408 64.2168 51.3867C64.6916 51.0084 65.4722 48.9482 64.1443 48.401C63.9029 48.3044 63.4683 48.4653 63.2832 48.7551L64.3053 49.8496C63.9512 50.6222 63.3073 50.936 62.4704 51.0889C61.9472 51.1855 61.062 50.8636 60.7642 50.3646C60.0479 49.1736 59.895 50.1312 59.8065 47.741C59.7582 46.397 60.0077 44.1838 60.2169 42.8398L60.6033 40.3611C60.6999 39.7334 60.4101 38.6066 60.1043 37.9628C59.4041 36.482 57.2553 35.4358 56.193 35.8221L54.0201 36.6188C53.8913 37.0695 53.7626 38.0674 53.9074 38.5181L54.2535 39.5563L55.5733 39.178C55.8792 39.0895 56.2896 38.84 56.4022 38.6147C56.4988 38.4135 56.3218 37.7696 56.1608 37.7535C55.7906 38.0352 55.356 38.4537 55.0985 38.5342C54.5915 38.502 54.4144 37.7374 54.688 37.3592C54.9456 37.0051 55.348 36.8281 55.7584 36.9407L55.8308 36.5303C55.8308 36.5303 57.1748 36.0313 58.5108 37.2626C58.8408 37.5684 59.3639 38.0192 59.5329 38.3491C60.2733 39.7334 59.7904 41.1337 59.3558 42.4214C58.6235 44.5943 57.2956 46.3568 55.5894 48.0388L54.5432 49.0689C53.8028 49.8013 52.7485 50.1393 51.7908 50.6302C50.6641 51.2096 49.2074 51.4753 47.9681 51.6765C45.4732 52.0788 44.0648 50.0025 44.1372 48.7711C44.1936 47.8778 45.6341 47.1213 45.441 46.8477L45.0547 46.3004C45.0145 46.2521 45.2156 45.9624 45.272 45.9946C44.3706 45.5761 45.4491 46.6867 43.9441 47.2903C43.2681 47.91 43.1876 49.5679 43.6946 50.3888C44.2258 51.2499 45.2318 52.0708 46.2056 52.2076L46.2136 52.1915ZM6.48108 54.5495C6.46499 54.7507 7.0042 55.0324 7.1893 54.9358C7.36636 54.8473 7.41464 54.5415 7.38244 54.1632C7.32611 53.4792 7.83311 52.2881 8.37232 51.9903C8.42866 51.9581 8.74251 51.934 8.80689 51.9179C8.13087 52.0708 8.99202 50.2037 13.3057 50.1473C14.9636 50.1312 16.9433 49.6725 17.0077 51.5235C17.048 52.6261 16.8307 53.5033 15.8005 54.0828C15.8891 54.3242 15.9374 54.4529 16.0178 54.5576C16.0983 54.6622 16.5892 54.453 16.6778 54.3403L18.1988 52.3846L17.7723 51.443C18.2471 51.3626 18.2632 51.427 18.2793 51.3143C18.3034 51.1694 18.3839 50.7348 18.3759 50.759L18.1103 51.2016C18.07 51.274 17.8286 51.097 17.8125 51.0085C17.7964 50.9199 17.8366 50.6302 17.9091 50.5176C18.3115 49.8818 19.5911 50.1232 20.4442 50.2439C20.9351 50.3163 21.8767 50.0668 22.4401 50.0347L24.6855 49.914C24.7337 49.914 27.2446 49.1977 28.0655 48.4734C29.0152 47.6364 29.0635 46.5177 28.4277 45.5922C28.3955 45.3991 28.4357 45.1576 28.3231 45.1415L27.7517 45.0932C26.7296 45.0047 25.619 44.9162 24.9752 45.9383C24.774 46.2602 24.9349 46.9845 25.2408 47.5076C25.4983 47.073 25.5949 46.7994 25.6995 46.3487C25.8283 45.8014 26.6089 45.552 27.1642 45.7371C27.5183 45.8578 27.9771 46.397 27.9127 46.9684C27.8724 47.3225 27.5988 47.6605 27.2125 48.0549C26.4479 48.8436 25.289 48.8838 24.2831 49.1575C22.7218 49.584 21.1363 49.6564 19.4221 49.6323L15.9132 49.584C15.4545 49.584 14.7865 49.3345 14.368 49.1735C14.3358 49.2057 13.9012 49.584 13.7403 49.584L11.8007 49.6484C11.5674 49.1333 11.2937 48.4814 11.1327 47.9342C11.004 47.4915 11.7202 46.727 11.9858 46.3568C11.8571 46.2924 11.3178 46.1878 11.2213 46.3246L10.835 46.8638C9.74047 48.409 11.1891 49.0367 10.5372 49.7047C10.2958 49.9461 9.56343 49.5679 8.23552 50.8475L7.82507 50.6785C7.7285 50.6382 7.72847 51.089 7.74456 51.2258L6.78691 52.5295C6.60985 52.9802 6.55349 53.9299 6.5052 54.5254L6.48108 54.5495Z" fill="black"/>
<path d="M109.703 32.3373C109.921 32.5143 110.09 33.1582 110.001 33.3915C109.897 33.6571 109.309 33.6652 108.931 33.6652C106.846 33.6813 104.722 33.8101 102.774 32.957C102.42 32.8041 102.766 31.5888 103.185 31.5566C104.746 31.444 106.146 31.5888 107.683 31.6934C108.408 31.7417 109.043 31.8061 109.711 32.3373H109.703Z" fill="black"/>
<path d="M95.9815 31.8464L93.3901 30.9128C92.9716 30.7599 92.1829 30.6955 91.7644 30.4863L89.2373 29.2147C89.4546 28.9491 89.7765 28.8847 90.0663 28.9572L92.4404 29.5688C92.883 29.6815 93.4464 30.0276 93.7442 30.2368C94.219 30.0115 94.8467 30.0034 95.3618 30.1724C95.8769 30.3414 96.0619 30.8887 95.9895 31.8464H95.9815Z" fill="black"/>
<path d="M114.685 39.7494C113.961 40.8681 106.879 39.8379 106.831 39.7494L106.436 39.0331C106.163 38.5261 105.905 37.834 105.68 37.1902H110.983H112.335L114.693 39.7575L114.685 39.7494Z" fill="black"/>
<path d="M98.5897 37.2062C98.8472 38.011 93.6242 35.8381 93.5437 35.7978C92.9079 35.484 92.417 35.2667 91.7812 35.0574L90.3486 34.5906C91.242 33.9871 91.9019 34.647 92.6503 34.7597L96.8272 35.3874C97.7286 35.5242 98.6541 35.9025 98.5897 37.2143V37.2062Z" fill="black"/>
<path d="M122.403 15.163L121.164 14.141C120.818 13.8513 120.327 12.9901 120.11 12.5555C119.514 11.3403 120.576 10.1411 121.526 9.52949C122.476 8.91785 123.691 8.45108 124.777 9.03053C126.29 9.83532 126.765 11.5898 126.379 13.2316C126.105 14.3744 124.97 14.8411 123.948 15.2516C123.425 15.4608 122.918 15.5815 122.411 15.163H122.403ZM124.89 13.0465C125.035 12.2578 125.027 11.5254 124.938 10.8333L123.361 9.96411C122.347 10.1492 121.349 10.6079 121.228 11.6783C121.067 13.0465 122.508 13.7949 123.787 13.7064C124.214 13.6742 124.801 13.6018 124.898 13.0465H124.89Z" fill="black"/>
<path d="M37.1273 32.6834L35.2199 32.8604C34.1013 32.9651 32.9746 33.3272 31.9284 32.9731C31.3731 32.788 30.9707 32.7558 30.3268 32.7719C30.2464 32.4902 30.5119 31.4359 30.9384 31.2669C32.0088 30.8404 33.208 31.0013 34.3186 30.9772C35.2602 30.9531 36.3869 30.9209 37.3527 31.0818C37.6424 31.4118 37.4733 32.4661 37.1273 32.6914V32.6834Z" fill="black"/>
<path d="M48.4025 29.7459C46.8734 30.4943 47.2677 30.7116 44.3705 31.2347C44.2417 31.0657 44.2417 30.4058 44.3705 30.1643C44.7407 29.5205 47.6863 29.3274 47.477 29.3837L49.6178 28.7801L51.3561 28.4743C51.678 28.7479 49.1832 29.762 49.2234 29.3354L48.4025 29.7378V29.7459Z" fill="black"/>
<path d="M34.3353 36.4176C34.794 36.659 33.5949 39.2022 32.8304 39.2263L27.7199 39.3792C26.9151 39.4034 26.3116 39.3953 25.4424 39.2424C25.9414 38.5101 26.1908 38.1157 26.6173 37.6328L27.7924 36.321C28.8547 35.9911 30.0377 36.5625 30.9793 36.5222L33.1603 36.4337C33.3615 36.4257 33.7156 36.7717 33.8444 36.9407C33.8444 36.8522 34.1824 36.3291 34.3434 36.4176H34.3353Z" fill="black"/>
<path d="M45.5861 35.7737C43.6707 36.2647 44.065 36.3371 41.7794 36.8844C41.7311 36.4337 41.7633 35.7576 41.9726 35.4437C42.222 35.0735 43.0912 35.2023 43.5097 35.1057L45.2319 34.6872L48.4189 34.1561L49.8514 33.9147C49.4169 34.4136 48.9501 34.4619 48.3948 34.6712C47.4854 35.0172 46.5116 35.5403 45.578 35.7737H45.5861Z" fill="black"/>
<path d="M19.6959 12.8292L18.207 14.2697C16.8469 15.5896 14.4165 13.7306 13.7163 12.3383L14.1911 10.0688C14.3682 9.22372 14.7786 8.69254 15.511 8.23381C16.0743 7.8797 16.5331 7.96824 17.1367 8.04872C19.6959 8.39478 20.879 10.7045 20.3639 11.7749C20.2432 12.0244 19.9212 12.6119 19.704 12.8211L19.6959 12.8292ZM17.201 12.9901C17.8609 12.7729 18.537 12.3946 18.8509 12.0807C19.2211 11.461 19.3257 10.6643 18.8911 10.1975C17.9495 9.19151 16.3158 9.05469 15.4707 10.1975L15.2454 12.0002C15.6156 12.467 16.525 13.2155 17.201 12.9901Z" fill="black"/>
<path d="M123.965 12.9418C123.055 13.3683 122.033 12.6762 122.041 11.7668C122.041 11.3483 122.725 10.6964 123.2 10.6884C123.594 10.6884 124.117 11.1391 124.278 11.4369C124.447 11.7668 124.319 12.7728 123.973 12.9418H123.965Z" fill="black"/>
<path d="M18.1265 10.5838C18.2633 10.8413 18.4404 11.2679 18.3358 11.4127C18.0058 11.8473 17.3861 12.5072 16.6698 12.298C16.2916 12.1934 15.9295 11.7105 15.8892 11.3966C15.8248 10.8896 16.1628 10.4309 16.6216 10.1814C17.1688 9.88365 17.7966 9.95607 18.1265 10.5758V10.5838Z" fill="black"/>
</svg>
