<svg width="111" height="111" viewBox="0 0 111 111" fill="none" xmlns="http://www.w3.org/2000/svg">
<path d="M110.54 55.27C110.54 85.8023 85.7893 110.54 55.27 110.54C24.7507 110.54 0 85.7893 0 55.27C0 24.7506 24.7507 0 55.27 0C85.7893 0 110.54 24.7506 110.54 55.27ZM109.137 55.27C109.137 25.5172 85.0098 1.3902 55.257 1.3902C25.5042 1.3902 1.3772 25.5172 1.3772 55.27C1.3772 85.0227 25.5042 109.15 55.257 109.15C85.0098 109.15 109.137 85.0227 109.137 55.27Z" fill="black"/>
<path d="M38.1333 61.8182C38.2242 62.4288 38.653 63.9099 38.2502 64.5076L36.6132 66.9892C37.3408 67.4569 38.1073 67.1322 38.7829 66.5865C40.303 65.3652 41.1735 63.7671 40.8357 61.8442C42.174 60.6359 43.3692 60.4539 43.772 58.5051C44.3177 55.8546 43.6551 54.8282 42.1869 53.0353C41.966 52.7754 41.2385 52.5806 40.9916 52.3987C39.1987 51.0215 36.4443 50.9435 34.1706 51.1384C29.987 51.5022 23.4388 53.1783 19.6839 49.5404L17.5402 47.4615C17.0465 45.3437 16.8256 43.135 17.917 41.1731L20.0218 39.0554C20.7104 39.0164 21.2041 39.0164 21.425 38.2758L23.5557 38.2498C23.6726 38.2498 23.7376 38.7175 23.7896 38.8604L24.1923 37.7821C22.8671 37.6392 21.4639 37.4573 20.2426 37.7821L18.2808 38.3149L17.3193 39.0684C17.0725 39.2633 16.8126 39.5621 16.5918 39.8869C14.7858 42.5114 14.552 43.6418 14.9287 46.6171C15.2276 49.0077 16.189 50.6967 18.2028 51.944C19.4371 52.7105 20.8533 53.4771 22.3084 53.7499C22.7372 53.8279 23.3608 54.4514 23.9585 54.4384C24.1664 54.4384 24.6731 54.7372 24.6731 54.9321C24.6731 55.127 24.1534 55.2959 23.9975 55.4258L21.7498 57.2968C21.1391 57.8036 20.5545 58.8689 19.8789 59.5705C19.3722 60.0902 18.9824 61.0127 18.6576 61.6883C17.1245 64.8974 16.6827 67.9897 17.852 71.7575C18.3587 73.3685 18.1508 71.8613 19.1253 74.2519C19.8009 75.928 22.6722 78.2667 24.1923 79.2411C24.5951 79.501 27.4015 80.8003 27.6743 80.8782L29.4673 81.4368L31.637 82.0474C33.365 82.5281 34.9241 83.8925 34.8202 85.7504C34.7552 87.0626 33.6249 88.024 32.6504 88.2709C31.3642 88.5957 29.8181 88.3617 29.1425 87.0755C29.5193 86.6597 30.1299 86.9716 30.5846 87.4133C31.0004 87.8291 31.8709 87.3874 32.2997 87.0106L33.2351 86.5948C33.6119 85.6333 33.339 84.633 32.6504 83.8794C31.9618 83.1258 31.0524 83.0869 29.974 83.1259C26.8818 83.2168 27.1157 83.5675 24.8939 85.9322C22.7112 91.0512 26.2452 92.6103 23.9585 97.3266C22.5163 96.3911 20.2167 94.3773 18.4887 92.6103L16.5788 90.6484C15.9421 89.9988 15.3185 89.3102 14.7598 88.5827L12.681 85.9063L11.4207 84.2042L10.5632 82.7491L9.67976 81.2549L7.91277 77.8119C6.95132 75.9409 6.44464 74.174 6.06786 73.4594C5.48319 72.3421 5.19735 71.2117 4.92451 69.9255L4.41779 67.6128C4.31385 67.1191 3.59927 66.7034 3.78117 65.9109C3.96306 65.1183 3.39138 64.3648 3.3654 63.6502L3.15755 59.1677C3.15755 58.9988 2.78076 58.5442 2.78076 58.3103L2.80673 51.762L3.19653 52.4507C3.28748 50.5408 3.17051 48.8518 3.40438 47.0848C3.5343 46.0974 3.85912 45.097 3.8981 44.0186L3.92411 43.3559C3.92411 43.213 4.15795 43.239 4.46977 43.161C4.54772 42.6024 4.57372 41.7579 4.72963 41.2382L5.24932 39.4712L5.85997 37.4573L6.54857 36.1321L7.13325 34.3261C7.23719 33.9883 7.52303 33.3517 7.70492 33.0398C9.16008 30.6492 8.58839 30.9351 10.0046 28.7134C10.5762 27.8039 11.0959 27.0244 11.5767 26.3228C11.9404 25.7901 12.5511 25.1794 12.9799 24.5298L13.9283 23.0876L15.2665 21.4766C15.7602 20.8789 16.202 20.2553 16.7606 19.6966L18.9824 17.4749C19.5411 16.9162 19.9698 16.3315 20.6974 15.9028C21.321 15.526 23.127 13.785 23.6726 13.4082L25.9073 11.8881C26.6869 11.3554 27.5314 10.9137 28.3889 10.4719L28.0511 10.29L30.1949 9.30265C30.8705 8.99083 34.1965 6.97694 34.5084 7.53561L34.6773 7.82149C34.7422 7.92543 34.3525 8.06836 34.1835 8.15931C33.326 11.4724 33.482 10.355 32.4686 12.4208C30.6366 16.1756 30.6106 20.7879 31.1173 24.9845C30.3768 25.3353 30.2469 24.257 29.8311 24.0491C29.0905 23.6723 24.4782 21.1647 24.6731 22.7238C24.7121 22.9967 24.9329 23.2955 25.1408 23.6333L26.2452 25.4263C27.6094 27.635 27.2976 27.8429 27.5054 30.4804C27.6094 31.7796 27.9082 35.3005 28.5058 36.1191L29.4673 37.4443C29.6752 37.7301 30.1689 38.4058 30.4937 38.6397C32.1827 39.8999 34.7942 40.1468 36.6651 38.9385C37.1718 38.6137 37.4057 37.4443 37.1978 36.9506C36.938 36.3529 36.1324 35.9502 35.3399 35.5215C36.1584 35.0277 37.8734 34.9888 38.64 36.0152C39.1597 36.7038 39.1597 38.3279 38.8478 39.1464C38.2892 40.6146 36.6132 41.485 35.132 41.2252C34.6773 41.1472 33.7808 41.0303 33.5859 41.3681C33.1052 42.2775 34.3135 42.7583 34.7812 43.187C35.5088 43.8627 36.1064 44.5382 37.1588 44.7981L40.42 45.6036L45.3701 45.7855C48.2674 45.8895 50.697 49.1895 51.8013 51.2423C52.2821 52.8144 52.7368 54.5423 53.0356 56.2184L53.5034 58.8299C54.0101 61.6362 53.2175 61.5584 53.0876 63.8321C52.9577 66.1058 52.477 65.5341 52.2431 68.1715C52.1912 68.7562 53.2825 69.3668 53.6333 69.7696C54.8026 71.0948 57.8169 72.0173 59.311 71.1339C60.7921 70.2634 58.5185 69.4447 60.6362 64.6895C61.5067 62.7406 63.0268 57.0109 61.7926 55.6078C61.4418 55.205 60.7791 55.0622 60.0905 54.8803C59.6878 54.6074 58.9732 53.8668 58.6744 53.3601C58.3755 52.8534 58.4015 51.5021 58.6744 51.0084C59.246 50.021 60.3504 48.7737 61.5587 49.6183C61.1429 50.1899 60.6362 50.7617 60.4543 51.1644C59.9736 52.2558 60.5063 52.9054 61.1949 53.3991C62.2733 54.1657 63.4036 54.0877 64.43 53.2302C64.9367 52.8014 65.2875 52.3206 65.6123 51.684C66.6647 49.6442 65.9891 48.2801 65.6123 46.9289C65.1186 45.2009 64.56 43.7716 63.2607 42.4724L62.1693 41.3811C60.7402 39.9519 59.0122 39.2503 57.1413 38.6137C56.3097 38.3278 55.4003 37.2494 54.3869 37.912C54.0231 38.3408 54.6597 38.9904 55.2184 39.3412C55.9979 39.8219 56.1668 41.8488 55.4263 42.3165C53.2825 43.6807 51.0998 42.3034 49.2938 41.277L45.9937 39.4192C43.6161 38.081 42.031 36.0281 40.2251 34.1052C38.4191 32.1824 37.2238 30.4284 36.4962 27.8039C36.2364 26.8685 35.6387 26.0889 35.6127 24.9065C35.5608 22.8148 35.2359 21.1648 35.4048 19.3718L35.6647 16.5135C35.7427 15.565 35.9635 14.8114 36.2104 13.9929C36.808 11.9661 37.3537 10.0302 38.3801 8.15931C38.627 7.71756 39.1857 7.17184 39.3935 6.82104C40.394 5.22297 41.5503 4.48237 43.3562 4.19654L46.7343 3.65088C48.0205 3.443 49.1899 3.20911 50.5281 3.30005C51.8663 3.391 52.1132 2.48159 57.596 2.87136C57.9728 2.89735 58.6224 3.27412 59.2201 3.43003V8.35415L57.4011 10.355C56.6476 11.1866 54.8936 11.0956 53.7762 11.6413L52.0872 10.9526C51.8013 10.0562 52.0482 9.28959 52.386 8.49704L53.0356 7.01596C51.6454 6.65217 48.93 9.64043 50.1253 10.9787C50.6061 11.3294 51.4635 11.9531 52.1392 12.2779C53.0097 12.7066 54.9585 12.5767 55.92 12.3168C56.2318 12.2389 56.8165 11.7582 57.1023 11.6413C60.3764 10.316 60.9351 6.58716 60.1035 3.39101C60.7662 3.28707 61.7536 3.27408 62.5072 3.39101L65.5994 3.88473C66.5218 4.02765 67.5872 4.27452 68.4837 4.54736L70.4066 5.13204L73.5378 6.09347C73.9925 6.23639 74.4992 6.49624 74.941 6.66514L78.0331 7.91245C79.8911 8.66601 82.7104 10.5369 84.0487 11.3165C85.1011 12.083 86.2834 12.8755 87.3098 13.72L90.6099 16.4485C91.1426 16.8903 93.871 19.6446 94.4816 20.3332L96.3395 22.438C96.2746 22.7109 95.7549 22.9577 95.586 22.8408L94.7025 22.2172C93.897 21.6455 92.7796 21.3077 91.8052 20.9179C90.0382 20.2293 88.2712 19.8265 86.3613 19.9045C84.6333 19.9824 82.9053 20.0214 81.3202 20.684C80.7486 20.9308 80.034 21.2817 79.5663 20.9179C79.7742 18.995 79.956 17.1371 79.3064 15.3052C78.9816 14.3827 78.2151 13.1613 77.4485 12.6416L76.0973 11.7192C74.3303 10.5239 71.9397 10.1861 69.8999 10.394C67.8601 10.6019 66.223 11.2775 64.6899 12.4728C64.2222 12.8366 63.8714 13.0835 63.5855 13.6811C62.689 15.604 62.3642 18.0076 63.8454 19.7746C64.1702 20.1644 64.7808 20.697 65.1706 21.0998C65.5084 21.4376 66.8206 21.5026 66.9895 21.0478C67.2234 20.4242 67.1065 19.3068 67.4703 18.7741C68.9384 16.6304 71.446 15.8509 73.5637 16.8513C73.9795 17.0462 74.863 17.6308 75.0839 18.0205C76.8638 21.1128 75.3177 23.8932 72.9271 26.0889C72.6933 26.2968 72.3295 26.9204 72.1346 27.1932L70.9523 28.8303L69.3672 32.6631C68.2109 35.4435 68.1849 41.7968 69.3152 44.7721L70.5495 48.0072C70.7444 48.5139 72.4074 51.1125 72.9661 51.8141L74.2394 53.4381C74.5772 53.8799 74.9929 54.2696 75.3957 54.6593L78.332 57.5046L80.2549 59.3106C80.8785 59.8952 81.3722 60.3631 82.1777 60.7399C82.4376 60.9737 82.8923 61.4804 83.1652 61.6883L85.0751 63.1565C85.7507 63.6762 86.2574 64.3517 86.7901 65.0143C88.5701 67.1711 89.0378 68.1974 90.1941 70.8479C90.5449 71.6404 90.7658 72.407 90.8568 73.3165C91.3635 78.3706 90.8567 81.4498 88.8819 85.9842L87.4657 89.2453C85.7377 90.6355 87.5696 89.7649 84.9971 92.2855L83.1132 94.1565C81.6451 95.6116 82.1518 94.9359 80.138 96.495C79.4494 97.0277 78.306 97.3526 77.5135 97.8203C76.526 98.405 75.5256 98.8077 74.5512 99.3015C73.3689 99.9121 72.0956 100.159 70.8223 100.614L68.4317 101.458C65.7813 102.394 56.1148 102.42 53.1396 102.017L48.6832 101.419C48.1894 101.354 47.3319 100.796 46.8252 100.679L44.5905 100.172C44.1618 100.068 43.3173 99.7563 42.9405 99.5354C41.0826 98.483 42.1999 99.3404 39.9262 98.288C39.5495 98.1191 38.8349 97.1057 38.4061 97.9632C38.1333 98.5219 39.2376 98.9377 39.6014 99.1716C42.1739 100.848 43.2393 100.51 44.0708 101.159C44.7594 101.705 46.0327 101.952 46.9552 102.355L48.943 103.212C50.5411 103.901 52.477 104.122 54.3219 104.421L57.648 104.966C60.7791 105.486 64.3911 106.032 67.5872 105.122L69.757 104.511C70.6924 104.252 71.459 104.369 72.6673 104.226C72.1996 105.005 71.381 105.213 70.4716 105.395L66.5738 106.162C65.9372 106.291 65.0667 106.759 64.469 106.824C58.2066 107.539 51.8663 108.162 45.8768 106.694L42.3038 105.811C41.1085 105.512 39.7963 105.239 38.679 104.836L35.7167 103.745L30.2858 101.302C29.6622 100.497 26.2192 99.2495 25.8554 98.314C25.5176 97.4695 27.1416 97.5604 27.7263 96.0013C29.0645 92.4414 27.9472 94.1174 29.2724 93.4028L33.5599 91.0643L34.8982 90.1807C37.5486 88.4137 36.1844 88.7906 38.1982 87.6733C39.2246 86.0102 40.6538 84.7759 42.5897 84.0743C44.6815 83.3208 47.0201 85.4256 47.0591 86.2181C47.1111 87.2965 46.4355 87.8941 45.2142 88.6217C45.513 87.4004 46.2796 86.283 45.2921 85.3606C44.4866 84.607 42.4987 84.6329 41.7711 85.4644L40.9786 86.361C40.7318 86.6468 40.4589 87.4264 40.355 87.8031C39.7053 90.1028 40.7967 92.1686 42.031 93.9746L43.3692 95.9495C43.759 96.5211 44.2267 97.4565 45.0843 97.0278C45.2142 95.8585 45.0453 94.5592 45.2791 93.4548C45.8898 90.6095 46.7863 90.4796 47.4619 89.2453C47.8646 88.5047 48.4363 88.05 49.034 87.4653L50.5671 85.9712L51.7884 84.763C52.5939 83.9704 52.8797 82.5802 53.4124 81.5018C54.0101 80.3065 53.6333 79.0852 53.2955 77.695C54.9326 76.7595 57.2582 78.6564 57.8299 79.6178C59.5709 82.5411 58.9212 82.8011 60.8961 83.7885C62.2083 84.4511 63.5985 84.776 64.7808 83.4767C65.1706 83.061 65.4694 82.5022 65.4175 81.7876C65.3785 81.2679 64.6379 80.8781 64.0143 80.5663L62.4422 79.7867C62.3123 79.7218 62.1694 79.293 62.1434 79.1501C62.1174 78.9682 62.741 78.8124 62.9099 78.9163C63.8584 79.501 65.8982 79.6178 66.1191 78.1627C66.236 77.3182 64.7029 76.9673 64.0923 77.0063L61.8965 77.1752L61.6886 76.5516C61.6367 76.4087 62.0524 76.2528 62.2343 76.2008L64.4171 75.5642C64.6249 75.4992 64.8458 75.2004 64.8458 74.9016C64.8458 74.6937 64.469 74.252 64.2741 74.122C62.702 73.0956 61.5717 75.6292 58.6094 74.2909L57.1802 72.6409C56.1798 72.6149 55.1144 72.485 54.4388 71.9004L53.2045 70.8219L51.6195 69.3667L50.3722 70.666C50.0864 70.9648 49.4887 71.7445 49.1119 71.9524L45.9677 73.7324C44.9933 74.278 43.9929 74.8626 42.9924 75.1355C39.7703 76.032 36.4183 76.0059 33.417 74.7717C30.0649 73.3815 31.4811 73.9271 28.8696 71.6534C28.298 71.1597 27.9602 70.2373 27.5314 69.5747C26.8688 68.5742 26.57 67.7038 26.3361 66.5345C25.9334 64.5856 26.1152 63.7541 27.4145 62.117C29.922 58.9728 31.4032 60.1031 34.3914 59.2976L36.5482 60.1291C37.3537 60.4409 37.6525 60.9997 37.8085 62.0001L38.1592 61.7013L38.1333 61.8182ZM65.0537 72.7579C65.7423 71.9654 62.884 71.1727 63.8974 68.7171C64.3781 67.5608 65.2875 66.5474 66.0151 64.9753C66.4958 63.9359 66.275 62.0651 65.8852 61.0127C65.7813 60.7398 65.3525 60.2072 65.1446 59.8953C64.9887 59.6485 64.1572 59.7914 64.1312 60.0903C64.0403 60.8568 63.8584 61.5324 63.6635 62.13L63.0918 63.8191C62.5331 65.4951 60.3634 66.5215 61.3248 69.2629C61.4678 69.6786 61.7666 70.6531 61.5717 71.0688C61.4288 71.3807 61 71.7315 60.6493 71.8874C60.3244 72.0823 59.8827 72.485 59.4669 72.8878C59.5969 73.4205 60.1425 74.1611 60.5843 74.0572C61.2079 73.9143 61.6496 73.6933 62.2083 73.4594C65.0667 72.2771 64.2871 73.6802 65.0667 72.7708L65.0537 72.7579Z" fill="black"/>
<path d="M107.46 58.9858L107.136 63.4683L106.486 66.8723L105.927 68.5094C105.888 68.6263 104.706 73.9013 104.355 73.4076C104.056 74.5639 103.68 75.7071 103.147 76.7336L101.185 80.4884C100.821 81.177 100.457 82.0995 100.029 82.6322C98.6905 84.2952 99.2362 84.1132 97.794 85.9322L95.9881 88.2319L94.6888 89.8949L93.2596 91.3501L90.7911 93.8057L89.5048 94.936C88.9332 95.4297 88.2705 95.9365 87.8808 96.4172C87.556 96.69 87.0232 96.9499 86.3217 97.2357C87.2051 95.8845 88.5174 94.897 89.5698 93.4419C89.9206 92.9611 90.5052 92.2207 90.7521 91.7529L92.8179 87.8032C93.2726 86.9327 93.5195 85.9322 93.8573 85.0358C95.6893 80.1636 96.157 73.0047 94.0002 68.2364L93.0907 66.2357C92.7009 65.3782 90.7911 62.7406 89.9466 61.9091L88.4654 60.4539C87.465 59.4665 86.4256 58.739 85.3472 57.8685L83.3594 56.2444C82.7877 55.7767 82.0861 55.309 81.5924 54.8023L79.5656 52.7625C76.4344 49.6053 74.1477 45.2658 73.8619 40.7055C73.641 37.0935 73.7709 34.9368 75.4989 31.8186C75.9277 31.039 76.3824 30.4414 77.058 29.8308L77.6037 29.0772L79.7345 27.4271C82.4369 25.3353 87.2701 24.7377 90.3493 26.011C91.8824 26.6476 93.4935 27.8559 94.4809 29.1551C96.6507 32.0005 97.4172 34.417 96.3908 38.3798C96.2349 38.9904 95.8841 39.4971 95.6632 39.9908C94.6628 42.1346 92.8699 43.2909 90.4143 42.7712C89.5957 42.6023 88.7773 42.1865 88.2965 41.446C88.1796 41.2771 87.7379 40.8095 87.6859 40.6016C87.3481 39.0555 87.5819 37.7562 88.5694 36.5089C89.4529 35.3916 91.0639 35.7163 92.3112 35.8073C92.5711 35.8333 92.9089 35.0797 92.7919 34.8588L92.2592 33.9363C90.5442 30.9871 87.2831 29.5969 84.3208 30.9221L82.7358 31.6237C82.294 31.8186 81.3585 32.4032 81.0857 32.806C80.4231 33.7934 79.5396 35.1966 79.2148 36.3919C78.76 38.0419 78.812 42.2776 79.7605 43.6418C80.1113 44.1615 80.6569 45.2918 81.0857 45.6945L82.9566 47.4615C83.3464 47.8383 84.3858 48.228 84.9314 48.4489L86.8154 49.1896C87.2311 49.3585 87.9717 49.3714 88.5694 49.4494C90.5832 49.7222 92.3502 49.5534 94.2471 48.8518L95.7672 48.293C96.4818 48.0332 97.1184 47.4615 97.742 47.0198C99.8988 45.4867 102.069 41.7578 102.367 39.1593C102.549 37.5612 102.614 36.0671 102.38 34.521L101.939 31.4678C102.484 32.0525 102.692 32.897 103.03 33.6506C103.225 34.0793 103.524 34.5861 103.706 35.0798L104.316 36.7427C104.524 37.3014 104.849 37.8601 105.018 38.4448L105.564 40.4327C106.2 42.7193 105.823 42.9921 106.525 43.3948C106.85 47.0067 107.356 45.9804 107.291 49.7742C107.278 50.6057 107.59 51.4372 107.681 52.2038C107.902 53.8798 107.746 55.5429 107.811 57.2969C107.824 57.8166 107.525 58.4011 107.473 58.9988L107.46 58.9858Z" fill="black"/>
<path d="M40.6535 56.4783C40.8614 56.8811 40.5365 57.9593 40.1468 58.1802C39.0424 58.8039 37.3144 59.1027 36.314 57.5436C35.8982 56.894 35.3266 55.8807 36.1061 55.2181C37.1455 54.3476 38.7046 54.5554 39.8999 55.0491L40.6535 56.4913V56.4783ZM38.8995 57.2058C39.2633 56.6731 38.6916 55.3609 37.9251 55.5169C37.4183 55.6078 37.2105 56.829 37.6002 57.1928C37.8341 57.4007 38.6526 57.3617 38.8995 57.2058Z" fill="black"/>
<path d="M24.3091 70.5621C23.4256 71.5366 21.3858 72.0433 20.7362 70.7441L19.9956 69.2629L21.1779 68.0157C22.1913 66.9503 24.0622 68.1065 24.7768 69.3928C24.9068 69.6396 24.5949 70.2243 24.2961 70.5491L24.3091 70.5621ZM23.2437 69.172C22.9579 68.8862 21.7885 68.7952 21.6326 69.172C21.5677 69.3409 21.5677 69.9646 21.6197 70.1465C21.6716 70.4063 22.698 70.3672 23.3087 70.1853C23.5036 70.1203 23.3866 69.3149 23.2437 69.172Z" fill="black"/>
</svg>
