<svg width="278" height="277" viewBox="0 0 278 277" fill="none" xmlns="http://www.w3.org/2000/svg">
<g clip-path="url(#clip0_3226_21997)">
<mask id="mask0_3226_21997" style="mask-type:luminance" maskUnits="userSpaceOnUse" x="0" y="91" width="278" height="96">
<path d="M278 91.7814H0V186.029H278V91.7814Z" fill="white"/>
</mask>
<g mask="url(#mask0_3226_21997)">
<path d="M-45.6468 93.2905L-90.9629 138.595L-45.6468 183.9L-0.330766 138.595L-45.6468 93.2905Z" stroke="black" stroke-width="1.5" stroke-miterlimit="10"/>
<path d="M60.4816 102.364C61.747 102.534 61.7044 102.08 62.8916 102.016C63.0977 102.84 63.1759 103.643 63.6735 104.254L65.5716 106.6L65.6 100.381C65.6 100.175 65.9128 99.8906 66.0763 99.8835C66.3607 99.8693 66.4958 100.111 66.4958 100.445C65.991 101.547 65.728 102.506 65.5858 103.188C65.3797 104.169 64.4626 108.497 66.6095 110.224C66.9223 110.48 67.2351 110.615 67.4341 110.693C67.4341 106.955 67.4341 103.217 67.427 99.4784C67.427 99.1657 67.2991 98.9241 66.9721 98.9241H65.6925L65.6569 98.1565L67.4412 98.1849V95.5411L64.8607 95.5269L64.8181 96.6071C64.811 96.8132 64.7256 97.0975 64.5835 97.2041C64.4413 97.3107 63.9508 97.2894 63.9437 97.0904L63.8726 95.6121C63.5029 95.5766 63.1333 95.5269 62.7778 95.5269H53.8206C53.451 95.5269 53.0884 95.5269 52.7188 95.5269C52.996 95.8182 53.3372 96.1096 53.7424 96.3726C55.6263 97.6021 57.7163 97.4031 58.5694 97.2681C59.9982 96.9767 61.4271 96.6782 62.8631 96.3868C62.8987 96.4508 62.984 96.6213 62.9698 96.8417C62.9698 96.998 62.9129 97.1544 62.8205 97.2823L58.5694 97.2681C57.7589 97.2681 56.9983 97.2752 56.1452 97.3889C57.1049 97.8935 57.7305 98.2986 58.3845 98.9667C59.1381 99.7343 60.567 99.4642 60.8726 99.9688C61.0859 100.317 60.3821 101.319 60.4888 102.378L60.4816 102.364Z" fill="black"/>
<path d="M33.0555 102.463C33.2262 101.198 32.7712 101.241 32.7072 100.054C33.5318 99.8479 34.3351 99.7698 34.9465 99.2723L37.2924 97.3747L31.0722 97.3462C30.866 97.3462 30.5816 97.0335 30.5745 96.8701C30.5603 96.5858 30.802 96.4507 31.1361 96.4507C32.238 96.9553 33.1977 97.2183 33.8802 97.3605C34.8612 97.5666 39.1905 98.4834 40.918 96.337C41.1739 96.0243 41.309 95.7116 41.3872 95.5126C37.6479 95.5126 33.9086 95.5126 30.1693 95.5197C29.8565 95.5197 29.6148 95.6476 29.6148 95.9746V97.2538L28.8471 97.2894L28.8755 95.5055H26.231L26.2168 98.0854L27.2973 98.128C27.5035 98.1351 27.7879 98.2204 27.8945 98.3625C28.0011 98.5047 27.9798 98.9951 27.7808 99.0022L26.3021 99.0733C26.2666 99.4428 26.2168 99.8124 26.2168 100.168V109.123C26.2168 109.492 26.2168 109.855 26.2168 110.224C26.5083 109.947 26.7997 109.606 27.0628 109.201C28.2926 107.318 28.0935 105.228 27.9585 104.375C27.667 102.947 27.3684 101.518 27.077 100.082C27.141 100.047 27.3116 99.9617 27.5319 99.9759C27.6883 99.9759 27.8447 100.033 27.9727 100.125L27.9585 104.375C27.9585 105.185 27.9656 105.946 28.0793 106.799C28.5841 105.839 28.9893 105.214 29.6575 104.56C30.4253 103.807 30.1551 102.378 30.6598 102.072C31.0082 101.859 32.0105 102.563 33.0698 102.456L33.0555 102.463Z" fill="black"/>
<path d="M60.4816 174.38C61.747 174.21 61.7044 174.665 62.8916 174.729C63.0977 173.904 63.1759 173.101 63.6735 172.49L65.5716 170.144L65.6 176.363C65.6 176.569 65.9128 176.854 66.0763 176.861C66.3607 176.875 66.4958 176.633 66.4958 176.299C65.991 175.198 65.728 174.238 65.5858 173.556C65.3797 172.575 64.4626 168.247 66.6095 166.52C66.9223 166.264 67.2351 166.129 67.4341 166.051C67.4341 169.789 67.4341 173.527 67.427 177.266C67.427 177.579 67.2991 177.82 66.9721 177.82H65.6925L65.6569 178.588L67.4412 178.559V181.203L64.8607 181.217L64.8181 180.137C64.811 179.931 64.7256 179.647 64.5835 179.54C64.4413 179.433 63.9508 179.455 63.9437 179.654L63.8726 181.132C63.5029 181.168 63.1333 181.217 62.7778 181.217H53.8206C53.451 181.217 53.0884 181.217 52.7188 181.217C52.996 180.926 53.3372 180.635 53.7424 180.372C55.6263 179.142 57.7163 179.341 58.5694 179.476C59.9982 179.768 61.4271 180.066 62.8631 180.357C62.8987 180.293 62.984 180.123 62.9698 179.903C62.9698 179.746 62.9129 179.59 62.8205 179.462L58.5694 179.476C57.7589 179.476 56.9983 179.469 56.1452 179.355C57.1049 178.851 57.7305 178.446 58.3845 177.778C59.1381 177.01 60.567 177.28 60.8726 176.775C61.0859 176.427 60.3821 175.425 60.4888 174.366L60.4816 174.38Z" fill="black"/>
<path d="M33.3893 174.38C32.1239 174.21 32.1666 174.665 30.9794 174.729C30.7732 173.904 30.695 173.101 30.1974 172.49L28.2993 170.144L28.2709 176.363C28.2709 176.569 27.9581 176.854 27.7946 176.861C27.5102 176.875 27.3752 176.633 27.3752 176.299C27.8799 175.198 28.1429 174.238 28.2851 173.556C28.4913 172.575 29.4083 168.247 27.2614 166.52C26.9486 166.264 26.6358 166.129 26.4368 166.051C26.4368 169.789 26.4368 173.527 26.4439 177.266C26.4439 177.579 26.5719 177.82 26.8989 177.82H28.1785L28.214 178.588L26.4297 178.559V181.203L29.0102 181.217L29.0529 180.137C29.06 179.931 29.1453 179.647 29.2875 179.54C29.4296 179.433 29.9201 179.455 29.9273 179.654L29.9983 181.132C30.368 181.168 30.7377 181.217 31.0931 181.217H40.0503C40.42 181.217 40.7825 181.217 41.1522 181.217C40.8749 180.926 40.5337 180.635 40.1285 180.372C38.2447 179.142 36.1546 179.341 35.3016 179.476C33.8727 179.768 32.4438 180.066 31.0078 180.357C30.9723 180.293 30.887 180.123 30.9012 179.903C30.9012 179.746 30.958 179.59 31.0505 179.462L35.3016 179.476C36.112 179.476 36.8726 179.469 37.7257 179.355C36.766 178.851 36.1404 178.446 35.4864 177.778C34.7329 177.01 33.304 177.28 32.9983 176.775C32.785 176.427 33.4888 175.425 33.3822 174.366L33.3893 174.38Z" fill="black"/>
<path d="M46.7403 105.989C47.6502 105.299 47.3374 105.036 48.0412 104.247C48.6952 104.638 49.2497 105.093 49.9464 105.164L52.6265 105.448L48.7166 101.504C48.5886 101.369 48.6028 100.999 48.7024 100.886C48.873 100.694 49.1147 100.765 49.3208 100.978C49.6976 101.994 50.1383 102.762 50.4796 103.288C50.9701 104.041 53.1241 107.353 55.5695 107.083C55.925 107.04 56.2093 106.934 56.3871 106.856C54.0269 104.496 51.6596 102.144 49.2995 99.784C49.1004 99.585 48.873 99.514 48.6668 99.7201L47.8493 100.523L47.3446 100.068L48.4891 98.9596L46.8185 97.2894L45.1763 98.9099L45.8304 99.6135C45.9583 99.7485 46.0792 99.983 46.0578 100.139C46.0365 100.296 45.7095 100.594 45.5816 100.473L44.6005 99.585C44.3446 99.7911 44.0816 99.9972 43.8541 100.218L38.2025 105.868C37.9679 106.102 37.7405 106.33 37.5059 106.564C37.8684 106.564 38.2665 106.543 38.6859 106.451C40.6551 106.038 41.8423 104.596 42.2972 103.97C43.0152 102.883 43.7332 101.795 44.4512 100.701C44.5152 100.722 44.6716 100.772 44.8067 100.921C44.9062 101.028 44.9702 101.156 44.9915 101.298L42.2972 103.97C41.7783 104.482 41.3162 104.965 40.8399 105.576C41.7641 105.285 42.411 105.15 43.2498 105.157C44.2095 105.164 44.9418 104.098 45.4536 104.219C45.809 104.304 45.9939 105.377 46.7332 105.981L46.7403 105.989Z" fill="black"/>
<path d="M17.4943 138.333C16.5986 137.16 16.2645 137.565 15.2479 136.656C15.7526 135.817 16.3427 135.099 16.4351 134.19L16.7976 130.721L11.6935 135.774C11.5228 135.945 11.0394 135.924 10.8973 135.789C10.6556 135.568 10.7409 135.256 11.0181 134.986C12.3261 134.495 13.3214 133.927 14.0038 133.486C14.9778 132.853 19.2573 130.075 18.909 126.905C18.8592 126.443 18.717 126.073 18.6175 125.853C15.5678 128.909 12.5181 131.958 9.46837 135.014C9.21245 135.27 9.12004 135.568 9.38306 135.838L10.421 136.89L9.83803 137.537L8.40915 136.059L6.24805 138.219L8.33806 140.337L9.248 139.491C9.42572 139.328 9.72429 139.165 9.93045 139.2C10.1295 139.229 10.5134 139.648 10.357 139.818L9.20534 141.083C9.47548 141.41 9.73851 141.759 10.0229 142.05L17.3308 149.356C17.6294 149.655 17.9279 149.953 18.2265 150.259C18.2336 149.797 18.1981 149.278 18.0843 148.731C17.5512 146.186 15.6815 144.651 14.8782 144.061C13.4707 143.137 12.0631 142.206 10.6556 141.282C10.6769 141.197 10.748 140.998 10.9399 140.82C11.075 140.7 11.2456 140.607 11.4233 140.586L14.8782 144.068C15.5394 144.737 16.1649 145.341 16.954 145.952C16.5773 144.758 16.4066 143.919 16.4138 142.839C16.4209 141.595 15.0417 140.657 15.2052 139.989C15.319 139.527 16.7052 139.285 17.4801 138.34L17.4943 138.333Z" fill="black"/>
<path d="M76.5197 138.333C77.4155 137.16 77.7496 137.565 78.7661 136.656C78.2614 135.817 77.6714 135.099 77.579 134.19L77.2164 130.721L82.3206 135.774C82.4912 135.945 82.9746 135.924 83.1168 135.789C83.3585 135.568 83.2732 135.256 82.9959 134.986C81.6879 134.495 80.6927 133.927 80.0102 133.486C79.0363 132.853 74.7567 130.075 75.1051 126.905C75.1548 126.443 75.297 126.073 75.3965 125.853C78.4462 128.909 81.496 131.958 84.5457 135.014C84.8016 135.27 84.894 135.568 84.631 135.838L83.5931 136.89L84.176 137.537L85.6049 136.059L87.766 138.219L85.676 140.337L84.766 139.491C84.5883 139.328 84.2897 139.165 84.0836 139.2C83.8845 139.229 83.5007 139.648 83.6571 139.818L84.8087 141.083C84.5386 141.41 84.2755 141.759 83.9912 142.05L76.6832 149.356C76.3847 149.655 76.0861 149.953 75.7875 150.259C75.7804 149.797 75.816 149.278 75.9297 148.731C76.4629 146.186 78.3325 144.651 79.1358 144.061C80.5434 143.137 81.9509 142.206 83.3585 141.282C83.3372 141.197 83.2661 140.998 83.0741 140.82C82.9391 140.7 82.7684 140.607 82.5907 140.586L79.1358 144.068C78.4747 144.737 77.8491 145.341 77.06 145.952C77.4368 144.758 77.6074 143.919 77.6003 142.839C77.5932 141.595 78.9723 140.657 78.8088 139.989C78.6951 139.527 77.3088 139.285 76.534 138.34L76.5197 138.333Z" fill="black"/>
<path d="M47.1673 171.381C46.2573 172.07 46.5701 172.333 45.8663 173.122C45.2123 172.731 44.6578 172.277 43.9612 172.206L41.2811 171.921L45.191 175.866C45.319 176.001 45.3047 176.37 45.2052 176.484C45.0346 176.676 44.7929 176.605 44.5867 176.392C44.21 175.375 43.7692 174.608 43.428 174.082C42.9375 173.328 40.7835 170.017 38.338 170.287C37.9826 170.329 37.6982 170.436 37.5205 170.514C39.8807 172.874 42.2479 175.226 44.6081 177.586C44.8071 177.785 45.0346 177.856 45.2408 177.65L46.0583 176.846L46.563 177.301L45.4185 178.41L47.0891 180.08L48.7312 178.46L48.0772 177.756C47.9492 177.621 47.8284 177.387 47.8497 177.23C47.871 177.074 48.1981 176.775 48.326 176.896L49.307 177.785C49.563 177.579 49.826 177.372 50.0535 177.152L55.705 171.502C55.9396 171.267 56.1671 171.04 56.4017 170.805C56.0391 170.805 55.6411 170.827 55.2216 170.919C53.2525 171.331 52.0653 172.774 51.6103 173.4C50.8923 174.487 50.1743 175.574 49.4563 176.669C49.3923 176.647 49.2359 176.598 49.1009 176.448C49.0014 176.342 48.9374 176.214 48.916 176.072L51.6103 173.4C52.1293 172.888 52.5913 172.405 53.0676 171.793C52.1435 172.085 51.4966 172.22 50.6577 172.213C49.698 172.206 48.9658 173.272 48.454 173.151C48.0985 173.065 47.9137 171.992 47.1744 171.388L47.1673 171.381Z" fill="black"/>
<path d="M152.947 102.364C154.213 102.534 154.17 102.08 155.357 102.016C155.564 102.84 155.642 103.643 156.139 104.254L158.037 106.6L158.066 100.381C158.066 100.175 158.379 99.8906 158.542 99.8835C158.827 99.8693 158.962 100.111 158.962 100.445C158.457 101.547 158.194 102.506 158.052 103.188C157.845 104.169 156.928 108.497 159.075 110.224C159.388 110.48 159.701 110.615 159.9 110.693C159.9 106.955 159.9 103.217 159.893 99.4784C159.893 99.1657 159.765 98.9241 159.438 98.9241H158.158L158.123 98.1565L159.907 98.1849V95.5411L157.327 95.5269L157.284 96.6071C157.277 96.8132 157.191 97.0975 157.049 97.2041C156.907 97.3107 156.417 97.2894 156.41 97.0904L156.338 95.6121C155.969 95.5766 155.599 95.5269 155.244 95.5269H146.286C145.917 95.5269 145.554 95.5269 145.185 95.5269C145.462 95.8182 145.803 96.1096 146.208 96.3726C148.092 97.6021 150.182 97.4031 151.035 97.2681C152.464 96.9767 153.893 96.6782 155.329 96.3868C155.364 96.4508 155.45 96.6213 155.436 96.8417C155.436 96.998 155.379 97.1544 155.286 97.2823L151.035 97.2681C150.225 97.2681 149.464 97.2752 148.611 97.3889C149.571 97.8935 150.196 98.2986 150.85 98.9667C151.604 99.7343 153.033 99.4642 153.338 99.9688C153.552 100.317 152.848 101.319 152.955 102.378L152.947 102.364Z" fill="black"/>
<path d="M125.521 102.463C125.692 101.198 125.237 101.241 125.173 100.054C125.998 99.8479 126.801 99.7698 127.412 99.2723L129.758 97.3747L123.538 97.3462C123.332 97.3462 123.047 97.0335 123.04 96.8701C123.026 96.5858 123.268 96.4507 123.602 96.4507C124.704 96.9553 125.664 97.2183 126.346 97.3605C127.327 97.5666 131.656 98.4834 133.384 96.337C133.64 96.0243 133.775 95.7116 133.853 95.5126C130.114 95.5126 126.374 95.5126 122.635 95.5197C122.322 95.5197 122.081 95.6476 122.081 95.9746V97.2538L121.313 97.2894L121.341 95.5055H118.697L118.683 98.0854L119.763 98.128C119.969 98.1351 120.254 98.2204 120.36 98.3625C120.467 98.5047 120.446 98.9951 120.247 99.0022L118.768 99.0733C118.732 99.4428 118.683 99.8124 118.683 100.168V109.123C118.683 109.492 118.683 109.855 118.683 110.224C118.974 109.947 119.266 109.606 119.529 109.201C120.758 107.318 120.559 105.228 120.424 104.375C120.133 102.947 119.834 101.518 119.543 100.082C119.607 100.047 119.777 99.9617 119.998 99.9759C120.154 99.9759 120.311 100.033 120.439 100.125L120.424 104.375C120.424 105.185 120.431 105.946 120.545 106.799C121.05 105.839 121.455 105.214 122.123 104.56C122.891 103.807 122.621 102.378 123.126 102.072C123.474 101.859 124.476 102.563 125.536 102.456L125.521 102.463Z" fill="black"/>
<path d="M152.947 174.38C154.213 174.21 154.17 174.665 155.357 174.729C155.564 173.904 155.642 173.101 156.139 172.49L158.037 170.144L158.066 176.363C158.066 176.569 158.379 176.854 158.542 176.861C158.827 176.875 158.962 176.633 158.962 176.299C158.457 175.198 158.194 174.238 158.052 173.556C157.845 172.575 156.928 168.247 159.075 166.52C159.388 166.264 159.701 166.129 159.9 166.051C159.9 169.789 159.9 173.527 159.893 177.266C159.893 177.579 159.765 177.82 159.438 177.82H158.158L158.123 178.588L159.907 178.559V181.203L157.327 181.217L157.284 180.137C157.277 179.931 157.191 179.647 157.049 179.54C156.907 179.433 156.417 179.455 156.41 179.654L156.338 181.132C155.969 181.168 155.599 181.217 155.244 181.217H146.286C145.917 181.217 145.554 181.217 145.185 181.217C145.462 180.926 145.803 180.635 146.208 180.372C148.092 179.142 150.182 179.341 151.035 179.476C152.464 179.768 153.893 180.066 155.329 180.357C155.364 180.293 155.45 180.123 155.436 179.903C155.436 179.746 155.379 179.59 155.286 179.462L151.035 179.476C150.225 179.476 149.464 179.469 148.611 179.355C149.571 178.851 150.196 178.446 150.85 177.778C151.604 177.01 153.033 177.28 153.338 176.775C153.552 176.427 152.848 175.425 152.955 174.366L152.947 174.38Z" fill="black"/>
<path d="M125.855 174.38C124.59 174.21 124.632 174.665 123.445 174.729C123.239 173.904 123.161 173.101 122.663 172.49L120.765 170.144L120.737 176.363C120.737 176.569 120.424 176.854 120.26 176.861C119.976 176.875 119.841 176.633 119.841 176.299C120.346 175.198 120.609 174.238 120.751 173.556C120.957 172.575 121.874 168.247 119.727 166.52C119.414 166.264 119.102 166.129 118.903 166.051C118.903 169.789 118.903 173.527 118.91 177.266C118.91 177.579 119.038 177.82 119.365 177.82H120.644L120.68 178.588L118.896 178.559V181.203L121.476 181.217L121.519 180.137C121.526 179.931 121.611 179.647 121.753 179.54C121.895 179.433 122.386 179.455 122.393 179.654L122.464 181.132C122.834 181.168 123.203 181.217 123.559 181.217H132.516C132.886 181.217 133.248 181.217 133.618 181.217C133.341 180.926 133 180.635 132.594 180.372C130.71 179.142 128.62 179.341 127.767 179.476C126.339 179.768 124.91 180.066 123.474 180.357C123.438 180.293 123.353 180.123 123.367 179.903C123.367 179.746 123.424 179.59 123.516 179.462L127.767 179.476C128.578 179.476 129.338 179.469 130.192 179.355C129.232 178.851 128.606 178.446 127.952 177.778C127.199 177.01 125.77 177.28 125.464 176.775C125.251 176.427 125.955 175.425 125.848 174.366L125.855 174.38Z" fill="black"/>
<path d="M139.206 105.989C140.116 105.299 139.803 105.036 140.507 104.247C141.161 104.638 141.716 105.093 142.412 105.164L145.092 105.448L141.182 101.504C141.054 101.369 141.069 100.999 141.168 100.886C141.339 100.694 141.58 100.765 141.787 100.978C142.163 101.994 142.604 102.762 142.945 103.288C143.436 104.041 145.59 107.353 148.035 107.083C148.391 107.04 148.675 106.934 148.853 106.856C146.493 104.496 144.125 102.144 141.765 99.784C141.566 99.585 141.339 99.514 141.133 99.7201L140.315 100.523L139.81 100.068L140.955 98.9596L139.284 97.2894L137.642 98.9099L138.296 99.6135C138.424 99.7485 138.545 99.983 138.524 100.139C138.502 100.296 138.175 100.594 138.047 100.473L137.066 99.585C136.81 99.7911 136.547 99.9972 136.32 100.218L130.668 105.868C130.434 106.102 130.206 106.33 129.972 106.564C130.334 106.564 130.732 106.543 131.152 106.451C133.121 106.038 134.308 104.596 134.763 103.97C135.481 102.883 136.199 101.795 136.917 100.701C136.981 100.722 137.137 100.772 137.273 100.921C137.372 101.028 137.436 101.156 137.457 101.298L134.763 103.97C134.244 104.482 133.782 104.965 133.306 105.576C134.23 105.285 134.877 105.15 135.716 105.157C136.675 105.164 137.408 104.098 137.919 104.219C138.275 104.304 138.46 105.377 139.199 105.981L139.206 105.989Z" fill="black"/>
<path d="M109.96 138.333C109.064 137.16 108.73 137.565 107.714 136.656C108.218 135.817 108.808 135.099 108.901 134.19L109.263 130.721L104.159 135.774C103.989 135.945 103.505 135.924 103.363 135.789C103.121 135.568 103.207 135.256 103.484 134.986C104.792 134.495 105.787 133.927 106.47 133.486C107.444 132.853 111.723 130.075 111.375 126.905C111.325 126.443 111.183 126.073 111.083 125.853C108.034 128.909 104.984 131.958 101.934 135.014C101.678 135.27 101.586 135.568 101.849 135.838L102.887 136.89L102.304 137.537L100.875 136.059L98.7139 138.219L100.804 140.337L101.714 139.491C101.892 139.328 102.19 139.165 102.396 139.2C102.595 139.229 102.979 139.648 102.823 139.818L101.671 141.083C101.941 141.41 102.204 141.759 102.489 142.05L109.797 149.356C110.095 149.655 110.394 149.953 110.692 150.259C110.699 149.797 110.664 149.278 110.55 148.731C110.017 146.186 108.147 144.651 107.344 144.061C105.936 143.137 104.529 142.206 103.121 141.282C103.143 141.197 103.214 140.998 103.406 140.82C103.541 140.7 103.711 140.607 103.889 140.586L107.344 144.068C108.005 144.737 108.631 145.341 109.42 145.952C109.043 144.758 108.872 143.919 108.88 142.839C108.887 141.595 107.508 140.657 107.671 139.989C107.785 139.527 109.171 139.285 109.946 138.34L109.96 138.333Z" fill="black"/>
<path d="M168.986 138.333C169.881 137.16 170.215 137.565 171.232 136.656C170.727 135.817 170.137 135.099 170.045 134.19L169.682 130.721L174.786 135.774C174.957 135.945 175.44 135.924 175.583 135.789C175.824 135.568 175.739 135.256 175.462 134.986C174.154 134.495 173.158 133.927 172.476 133.486C171.502 132.853 167.223 130.075 167.571 126.905C167.621 126.443 167.763 126.073 167.862 125.853C170.912 128.909 173.962 131.958 177.011 135.014C177.267 135.27 177.36 135.568 177.097 135.838L176.059 136.89L176.642 137.537L178.071 136.059L180.232 138.219L178.142 140.337L177.232 139.491C177.054 139.328 176.756 139.165 176.549 139.2C176.35 139.229 175.966 139.648 176.123 139.818L177.275 141.083C177.004 141.41 176.741 141.759 176.457 142.05L169.149 149.356C168.85 149.655 168.552 149.953 168.253 150.259C168.246 149.797 168.282 149.278 168.396 148.731C168.929 146.186 170.798 144.651 171.602 144.061C173.009 143.137 174.417 142.206 175.824 141.282C175.803 141.197 175.732 140.998 175.54 140.82C175.405 140.7 175.234 140.607 175.057 140.586L171.602 144.068C170.94 144.737 170.315 145.341 169.526 145.952C169.903 144.758 170.073 143.919 170.066 142.839C170.059 141.595 171.438 140.657 171.275 139.989C171.161 139.527 169.775 139.285 169 138.34L168.986 138.333Z" fill="black"/>
<path d="M139.633 171.381C138.723 172.07 139.036 172.333 138.332 173.122C137.678 172.731 137.124 172.277 136.427 172.206L133.747 171.921L137.657 175.866C137.785 176.001 137.771 176.37 137.671 176.484C137.5 176.676 137.259 176.605 137.053 176.392C136.676 175.375 136.235 174.608 135.894 174.082C135.403 173.328 133.249 170.017 130.804 170.287C130.448 170.329 130.164 170.436 129.986 170.514C132.346 172.874 134.714 175.226 137.074 177.586C137.273 177.785 137.5 177.856 137.707 177.65L138.524 176.846L139.029 177.301L137.884 178.41L139.555 180.08L141.197 178.46L140.543 177.756C140.415 177.621 140.294 177.387 140.316 177.23C140.337 177.074 140.664 176.775 140.792 176.896L141.773 177.785C142.029 177.579 142.292 177.372 142.519 177.152L148.171 171.502C148.405 171.267 148.633 171.04 148.868 170.805C148.505 170.805 148.107 170.827 147.687 170.919C145.718 171.331 144.531 172.774 144.076 173.4C143.358 174.487 142.64 175.574 141.922 176.669C141.858 176.647 141.702 176.598 141.567 176.448C141.467 176.342 141.403 176.214 141.382 176.072L144.076 173.4C144.595 172.888 145.057 172.405 145.533 171.793C144.609 172.085 143.962 172.22 143.124 172.213C142.164 172.206 141.432 173.272 140.92 173.151C140.564 173.065 140.38 171.992 139.64 171.388L139.633 171.381Z" fill="black"/>
<path d="M245.412 102.364C246.678 102.534 246.635 102.08 247.822 102.016C248.028 102.84 248.107 103.643 248.604 104.254L250.502 106.6L250.531 100.381C250.531 100.175 250.844 99.8906 251.007 99.8835C251.291 99.8693 251.426 100.111 251.426 100.445C250.922 101.547 250.659 102.506 250.516 103.188C250.31 104.169 249.393 108.497 251.54 110.224C251.853 110.48 252.166 110.615 252.365 110.693C252.365 106.955 252.365 103.217 252.358 99.4784C252.358 99.1657 252.23 98.9241 251.903 98.9241H250.623L250.588 98.1565L252.372 98.1849V95.5411L249.791 95.5269L249.749 96.6071C249.742 96.8132 249.656 97.0975 249.514 97.2041C249.372 97.3107 248.881 97.2894 248.874 97.0904L248.803 95.6121C248.434 95.5766 248.064 95.5269 247.709 95.5269H238.751C238.382 95.5269 238.019 95.5269 237.649 95.5269C237.927 95.8182 238.268 96.1096 238.673 96.3726C240.557 97.6021 242.647 97.4031 243.5 97.2681C244.929 96.9767 246.358 96.6782 247.794 96.3868C247.829 96.4508 247.915 96.6213 247.9 96.8417C247.9 96.998 247.844 97.1544 247.751 97.2823L243.5 97.2681C242.69 97.2681 241.929 97.2752 241.076 97.3889C242.036 97.8935 242.661 98.2986 243.315 98.9667C244.069 99.7343 245.498 99.4642 245.803 99.9688C246.017 100.317 245.313 101.319 245.419 102.378L245.412 102.364Z" fill="black"/>
<path d="M217.986 102.463C218.157 101.198 217.702 101.241 217.638 100.054C218.463 99.8479 219.266 99.7698 219.877 99.2723L222.223 97.3747L216.003 97.3462C215.797 97.3462 215.512 97.0335 215.505 96.8701C215.491 96.5858 215.733 96.4507 216.067 96.4507C217.169 96.9553 218.128 97.2183 218.811 97.3605C219.792 97.5666 224.121 98.4834 225.849 96.337C226.105 96.0243 226.24 95.7116 226.318 95.5126C222.579 95.5126 218.839 95.5126 215.1 95.5197C214.787 95.5197 214.546 95.6476 214.546 95.9746V97.2538L213.778 97.2894L213.806 95.5055H211.162L211.147 98.0854L212.228 98.128C212.434 98.1351 212.719 98.2204 212.825 98.3625C212.932 98.5047 212.91 98.9951 212.711 99.0022L211.233 99.0733C211.197 99.4428 211.147 99.8124 211.147 100.168V109.123C211.147 109.492 211.147 109.855 211.147 110.224C211.439 109.947 211.73 109.606 211.993 109.201C213.223 107.318 213.024 105.228 212.889 104.375C212.598 102.947 212.299 101.518 212.008 100.082C212.072 100.047 212.242 99.9617 212.463 99.9759C212.619 99.9759 212.775 100.033 212.903 100.125L212.889 104.375C212.889 105.185 212.896 105.946 213.01 106.799C213.515 105.839 213.92 105.214 214.588 104.56C215.356 103.807 215.086 102.378 215.591 102.072C215.939 101.859 216.941 102.563 218 102.456L217.986 102.463Z" fill="black"/>
<path d="M245.412 174.38C246.678 174.21 246.635 174.665 247.822 174.729C248.028 173.904 248.107 173.101 248.604 172.49L250.502 170.144L250.531 176.363C250.531 176.569 250.844 176.854 251.007 176.861C251.291 176.875 251.426 176.633 251.426 176.299C250.922 175.198 250.659 174.238 250.516 173.556C250.31 172.575 249.393 168.247 251.54 166.52C251.853 166.264 252.166 166.129 252.365 166.051C252.365 169.789 252.365 173.527 252.358 177.266C252.358 177.579 252.23 177.82 251.903 177.82H250.623L250.588 178.588L252.372 178.559V181.203L249.791 181.217L249.749 180.137C249.742 179.931 249.656 179.647 249.514 179.54C249.372 179.433 248.881 179.455 248.874 179.654L248.803 181.132C248.434 181.168 248.064 181.217 247.709 181.217H238.751C238.382 181.217 238.019 181.217 237.649 181.217C237.927 180.926 238.268 180.635 238.673 180.372C240.557 179.142 242.647 179.341 243.5 179.476C244.929 179.768 246.358 180.066 247.794 180.357C247.829 180.293 247.915 180.123 247.9 179.903C247.9 179.746 247.844 179.59 247.751 179.462L243.5 179.476C242.69 179.476 241.929 179.469 241.076 179.355C242.036 178.851 242.661 178.446 243.315 177.778C244.069 177.01 245.498 177.28 245.803 176.775C246.017 176.427 245.313 175.425 245.419 174.366L245.412 174.38Z" fill="black"/>
<path d="M218.321 174.38C217.056 174.21 217.098 174.665 215.911 174.729C215.705 173.904 215.627 173.101 215.129 172.49L213.231 170.144L213.203 176.363C213.203 176.569 212.89 176.854 212.726 176.861C212.442 176.875 212.307 176.633 212.307 176.299C212.812 175.198 213.075 174.238 213.217 173.556C213.423 172.575 214.34 168.247 212.193 166.52C211.88 166.264 211.567 166.129 211.368 166.051C211.368 169.789 211.368 173.527 211.376 177.266C211.376 177.579 211.504 177.82 211.831 177.82H213.11L213.146 178.588L211.361 178.559V181.203L213.942 181.217L213.985 180.137C213.992 179.931 214.077 179.647 214.219 179.54C214.361 179.433 214.852 179.455 214.859 179.654L214.93 181.132C215.3 181.168 215.669 181.217 216.025 181.217H224.982C225.352 181.217 225.714 181.217 226.084 181.217C225.807 180.926 225.465 180.635 225.06 180.372C223.176 179.142 221.086 179.341 220.233 179.476C218.804 179.768 217.375 180.066 215.939 180.357C215.904 180.293 215.819 180.123 215.833 179.903C215.833 179.746 215.89 179.59 215.982 179.462L220.233 179.476C221.044 179.476 221.804 179.469 222.657 179.355C221.698 178.851 221.072 178.446 220.418 177.778C219.664 177.01 218.236 177.28 217.93 176.775C217.717 176.427 218.42 175.425 218.314 174.366L218.321 174.38Z" fill="black"/>
<path d="M231.671 105.989C232.581 105.299 232.268 105.036 232.972 104.247C233.626 104.638 234.18 105.093 234.877 105.164L237.557 105.448L233.647 101.504C233.519 101.369 233.533 100.999 233.633 100.886C233.804 100.694 234.045 100.765 234.251 100.978C234.628 101.994 235.069 102.762 235.41 103.288C235.901 104.041 238.055 107.353 240.5 107.083C240.856 107.04 241.14 106.934 241.318 106.856C238.958 104.496 236.59 102.144 234.23 99.784C234.031 99.585 233.804 99.514 233.597 99.7201L232.78 100.523L232.275 100.068L233.42 98.9596L231.749 97.2894L230.107 98.9099L230.761 99.6135C230.889 99.7485 231.01 99.983 230.989 100.139C230.967 100.296 230.64 100.594 230.512 100.473L229.531 99.585C229.275 99.7911 229.012 99.9972 228.785 100.218L223.133 105.868C222.899 106.102 222.671 106.33 222.437 106.564C222.799 106.564 223.197 106.543 223.617 106.451C225.586 106.038 226.773 104.596 227.228 103.97C227.946 102.883 228.664 101.795 229.382 100.701C229.446 100.722 229.602 100.772 229.737 100.921C229.837 101.028 229.901 101.156 229.922 101.298L227.228 103.97C226.709 104.482 226.247 104.965 225.771 105.576C226.695 105.285 227.342 105.15 228.181 105.157C229.14 105.164 229.872 104.098 230.384 104.219C230.74 104.304 230.925 105.377 231.664 105.981L231.671 105.989Z" fill="black"/>
<path d="M202.425 138.333C201.529 137.16 201.195 137.565 200.179 136.656C200.683 135.817 201.273 135.099 201.366 134.19L201.728 130.721L196.624 135.774C196.454 135.945 195.97 135.924 195.828 135.789C195.586 135.568 195.672 135.256 195.949 134.986C197.257 134.495 198.252 133.927 198.935 133.486C199.908 132.853 204.188 130.075 203.84 126.905C203.79 126.443 203.648 126.073 203.548 125.853C200.498 128.909 197.449 131.958 194.399 135.014C194.143 135.27 194.051 135.568 194.314 135.838L195.352 136.89L194.769 137.537L193.34 136.059L191.179 138.219L193.269 140.337L194.179 139.491C194.356 139.328 194.655 139.165 194.861 139.2C195.06 139.229 195.444 139.648 195.288 139.818L194.136 141.083C194.406 141.41 194.669 141.759 194.954 142.05L202.261 149.356C202.56 149.655 202.859 149.953 203.157 150.259C203.164 149.797 203.129 149.278 203.015 148.731C202.482 146.186 200.612 144.651 199.809 144.061C198.401 143.137 196.994 142.206 195.586 141.282C195.608 141.197 195.679 140.998 195.871 140.82C196.006 140.7 196.176 140.607 196.354 140.586L199.809 144.068C200.47 144.737 201.096 145.341 201.885 145.952C201.508 144.758 201.337 143.919 201.344 142.839C201.352 141.595 199.972 140.657 200.136 139.989C200.25 139.527 201.636 139.285 202.411 138.34L202.425 138.333Z" fill="black"/>
<path d="M261.45 138.333C262.346 137.16 262.68 137.565 263.697 136.656C263.192 135.817 262.602 135.099 262.51 134.19L262.147 130.721L267.251 135.774C267.422 135.945 267.905 135.924 268.047 135.789C268.289 135.568 268.204 135.256 267.927 134.986C266.619 134.495 265.623 133.927 264.941 133.486C263.967 132.853 259.687 130.075 260.036 126.905C260.085 126.443 260.228 126.073 260.327 125.853C263.377 128.909 266.427 131.958 269.476 135.014C269.732 135.27 269.825 135.568 269.562 135.838L268.524 136.89L269.107 137.537L270.536 136.059L272.697 138.219L270.607 140.337L269.697 139.491C269.519 139.328 269.22 139.165 269.014 139.2C268.815 139.229 268.431 139.648 268.588 139.818L269.739 141.083C269.469 141.41 269.206 141.759 268.922 142.05L261.614 149.356C261.315 149.655 261.017 149.953 260.718 150.259C260.711 149.797 260.747 149.278 260.86 148.731C261.394 146.186 263.263 144.651 264.066 144.061C265.474 143.137 266.882 142.206 268.289 141.282C268.268 141.197 268.197 140.998 268.005 140.82C267.87 140.7 267.699 140.607 267.521 140.586L264.066 144.068C263.405 144.737 262.78 145.341 261.991 145.952C262.367 144.758 262.538 143.919 262.531 142.839C262.524 141.595 263.903 140.657 263.739 139.989C263.626 139.527 262.239 139.285 261.465 138.34L261.45 138.333Z" fill="black"/>
<path d="M232.09 171.381C231.18 172.07 231.493 172.333 230.789 173.122C230.135 172.731 229.581 172.277 228.884 172.206L226.204 171.921L230.114 175.866C230.242 176.001 230.228 176.37 230.128 176.484C229.957 176.676 229.716 176.605 229.51 176.392C229.133 175.375 228.692 174.608 228.351 174.082C227.86 173.328 225.706 170.017 223.261 170.287C222.905 170.329 222.621 170.436 222.443 170.514C224.804 172.874 227.171 175.226 229.531 177.586C229.73 177.785 229.957 177.856 230.164 177.65L230.981 176.846L231.486 177.301L230.341 178.41L232.012 180.08L233.654 178.46L233 177.756C232.872 177.621 232.751 177.387 232.773 177.23C232.794 177.074 233.121 176.775 233.249 176.896L234.23 177.785C234.486 177.579 234.749 177.372 234.976 177.152L240.628 171.502C240.862 171.267 241.09 171.04 241.325 170.805C240.962 170.805 240.564 170.827 240.144 170.919C238.175 171.331 236.988 172.774 236.533 173.4C235.815 174.487 235.097 175.574 234.379 176.669C234.315 176.647 234.159 176.598 234.024 176.448C233.924 176.342 233.86 176.214 233.839 176.072L236.533 173.4C237.052 172.888 237.514 172.405 237.99 171.793C237.066 172.085 236.419 172.22 235.581 172.213C234.621 172.206 233.889 173.272 233.377 173.151C233.021 173.065 232.837 171.992 232.097 171.388L232.09 171.381Z" fill="black"/>
<path d="M324.216 93.2881L278.9 138.593L324.216 183.898L369.533 138.593L324.216 93.2881Z" stroke="black" stroke-width="1.5" stroke-miterlimit="10"/>
</g>
<mask id="mask1_3226_21997" style="mask-type:luminance" maskUnits="userSpaceOnUse" x="46" y="0" width="186" height="95">
<path d="M231.764 0H46.1865V94.2475H231.764V0Z" fill="white"/>
</mask>
<g mask="url(#mask1_3226_21997)">
<path d="M0.548476 1.49951L-44.7676 46.8043L0.548481 92.1091L45.8645 46.8043L0.548476 1.49951Z" stroke="black" stroke-width="1.5" stroke-miterlimit="10"/>
<path d="M106.669 10.5753C107.935 10.7459 107.892 10.291 109.079 10.2271C109.285 11.0515 109.363 11.8546 109.861 12.4658L111.759 14.8112L111.788 8.59244C111.788 8.38634 112.1 8.10205 112.264 8.09495C112.548 8.08073 112.683 8.32237 112.683 8.65641C112.179 9.75801 111.916 10.7175 111.773 11.3998C111.567 12.3805 110.65 16.7088 112.797 18.4358C113.11 18.6917 113.423 18.8267 113.622 18.9049C113.622 15.1665 113.622 11.4282 113.615 7.68984C113.615 7.37713 113.487 7.13548 113.16 7.13548H111.88L111.844 6.36792L113.629 6.39634V3.7525L111.048 3.73828L111.006 4.81856C110.998 5.02467 110.913 5.30895 110.771 5.41556C110.629 5.52217 110.138 5.50085 110.131 5.30185L110.06 3.82357C109.69 3.78803 109.321 3.73828 108.965 3.73828H100.008C99.6385 3.73828 99.2759 3.73828 98.9062 3.73828C99.1835 4.02967 99.5247 4.32106 99.9299 4.58403C101.814 5.81356 103.904 5.61456 104.757 5.47953C106.186 5.18813 107.615 4.88963 109.051 4.59824C109.086 4.66221 109.171 4.83278 109.157 5.0531C109.157 5.20946 109.1 5.36581 109.008 5.49374L104.757 5.47953C103.946 5.47953 103.186 5.48663 102.333 5.60035C103.292 6.10495 103.918 6.51006 104.572 7.17813C105.326 7.9457 106.754 7.67563 107.06 8.18023C107.273 8.52848 106.57 9.53058 106.676 10.5895L106.669 10.5753Z" fill="black"/>
<path d="M79.243 10.682C79.4137 9.41692 78.9587 9.45957 78.8947 8.27268C79.7193 8.06657 80.5226 7.98839 81.134 7.49089L83.4799 5.59329L77.2597 5.56487C77.0535 5.56487 76.7692 5.25215 76.762 5.08869C76.7478 4.8044 76.9895 4.66937 77.3236 4.66937C78.4255 5.17397 79.3852 5.43694 80.0677 5.57908C81.0487 5.78519 85.378 6.702 87.1055 4.55565C87.3614 4.24294 87.4965 3.93023 87.5747 3.73123C83.8354 3.73123 80.0961 3.73123 76.3568 3.73834C76.044 3.73834 75.8023 3.86626 75.8023 4.19319V5.47247L75.0346 5.50801L75.063 3.72412H72.4185L72.4043 6.30401L73.4849 6.34665C73.691 6.35376 73.9754 6.43904 74.082 6.58118C74.1886 6.72333 74.1673 7.21372 73.9683 7.22082L72.4896 7.2919C72.4541 7.66147 72.4043 8.03104 72.4043 8.38639V17.3414C72.4043 17.7109 72.4043 18.0734 72.4043 18.443C72.6958 18.1658 72.9872 17.8246 73.2503 17.4195C74.4801 15.5362 74.281 13.4467 74.146 12.5938C73.8545 11.1653 73.5559 9.73674 73.2645 8.30111C73.3285 8.26557 73.4991 8.18029 73.7194 8.1945C73.8758 8.1945 74.0322 8.25136 74.1602 8.34375L74.146 12.5938C74.146 13.404 74.1531 14.1645 74.2668 15.0173C74.7716 14.0579 75.1768 13.4324 75.845 12.7786C76.6128 12.0252 76.3426 10.5967 76.8473 10.2911C77.1957 10.0779 78.198 10.7815 79.2573 10.6749L79.243 10.682Z" fill="black"/>
<path d="M106.669 82.599C107.935 82.4284 107.892 82.8832 109.079 82.9472C109.285 82.1228 109.363 81.3197 109.861 80.7085L111.759 78.3631L111.788 84.5818C111.788 84.7879 112.1 85.0722 112.264 85.0793C112.548 85.0936 112.683 84.8519 112.683 84.5179C112.179 83.4163 111.916 82.4568 111.773 81.7745C111.567 80.7937 110.65 76.4655 112.797 74.7385C113.11 74.4826 113.423 74.3476 113.622 74.2694C113.622 78.0078 113.622 81.7461 113.615 85.4844C113.615 85.7972 113.487 86.0388 113.16 86.0388H111.88L111.844 86.8064L113.629 86.7779V89.4218L111.048 89.436L111.006 88.3557C110.998 88.1496 110.913 87.8653 110.771 87.7587C110.629 87.6521 110.138 87.6734 110.131 87.8724L110.06 89.3507C109.69 89.3863 109.321 89.436 108.965 89.436H100.008C99.6385 89.436 99.2759 89.436 98.9062 89.436C99.1835 89.1446 99.5247 88.8532 99.9299 88.5903C101.814 87.3607 103.904 87.5597 104.757 87.6948C106.186 87.9862 107.615 88.2846 109.051 88.576C109.086 88.5121 109.171 88.3415 109.157 88.1212C109.157 87.9648 109.1 87.8085 109.008 87.6805L104.757 87.6948C103.946 87.6948 103.186 87.6877 102.333 87.5739C103.292 87.0693 103.918 86.6642 104.572 85.9962C105.326 85.2286 106.754 85.4987 107.06 84.9941C107.273 84.6458 106.57 83.6437 106.676 82.5847L106.669 82.599Z" fill="black"/>
<path d="M79.5768 82.599C78.3114 82.4284 78.3541 82.8832 77.1669 82.9472C76.9607 82.1228 76.8825 81.3197 76.3849 80.7085L74.4868 78.3631L74.4584 84.5818C74.4584 84.7879 74.1456 85.0722 73.9821 85.0793C73.6977 85.0936 73.5627 84.8519 73.5627 84.5179C74.0674 83.4163 74.3304 82.4568 74.4726 81.7745C74.6788 80.7937 75.5958 76.4655 73.4489 74.7385C73.1361 74.4826 72.8233 74.3476 72.6243 74.2694C72.6243 78.0078 72.6243 81.7461 72.6314 85.4844C72.6314 85.7972 72.7594 86.0388 73.0864 86.0388H74.366L74.4015 86.8064L72.6172 86.7779V89.4218L75.1977 89.436L75.2404 88.3557C75.2475 88.1496 75.3328 87.8653 75.475 87.7587C75.6171 87.6521 76.1076 87.6734 76.1148 87.8724L76.1858 89.3507C76.5555 89.3863 76.9252 89.436 77.2806 89.436H86.2378C86.6075 89.436 86.97 89.436 87.3397 89.436C87.0624 89.1446 86.7212 88.8532 86.316 88.5903C84.4321 87.3607 82.3421 87.5597 81.4891 87.6948C80.0602 87.9862 78.6313 88.2846 77.1953 88.576C77.1598 88.5121 77.0745 88.3415 77.0887 88.1212C77.0887 87.9648 77.1455 87.8085 77.238 87.6805L81.4891 87.6948C82.2995 87.6948 83.0601 87.6877 83.9132 87.5739C82.9535 87.0693 82.3279 86.6642 81.6739 85.9962C80.9204 85.2286 79.4915 85.4987 79.1858 84.9941C78.9725 84.6458 79.6763 83.6437 79.5697 82.5847L79.5768 82.599Z" fill="black"/>
<path d="M92.9346 14.2C93.8446 13.5106 93.5318 13.2476 94.2356 12.4587C94.8896 12.8496 95.4441 13.3045 96.1407 13.3755L98.8208 13.6598L94.9109 9.71538C94.7829 9.58034 94.7972 9.21077 94.8967 9.09706C95.0673 8.90516 95.309 8.97624 95.5152 9.18945C95.8919 10.2058 96.3327 10.9733 96.6739 11.4993C97.1644 12.2526 99.3184 15.5645 101.764 15.2945C102.119 15.2518 102.404 15.1452 102.581 15.067C100.221 12.7075 97.854 10.355 95.4938 7.99545C95.2948 7.79645 95.0673 7.72538 94.8611 7.93149L94.0436 8.73459L93.5389 8.27974L94.6834 7.17103L93.0128 5.50085L91.3707 7.12128L92.0247 7.82488C92.1527 7.95992 92.2735 8.19445 92.2522 8.35081C92.2309 8.50717 91.9039 8.80567 91.7759 8.68484L90.7949 7.79645C90.5389 8.00256 90.2759 8.20867 90.0484 8.42899L84.3969 14.0791C84.1623 14.3137 83.9348 14.5411 83.7002 14.7756C84.0627 14.7756 84.4608 14.7543 84.8803 14.6619C86.8494 14.2497 88.0366 12.807 88.4916 12.1815C89.2096 11.0942 89.9276 10.0068 90.6456 8.91227C90.7096 8.93359 90.8659 8.98334 91.001 9.13259C91.1005 9.2392 91.1645 9.36713 91.1859 9.50927L88.4916 12.1815C87.9726 12.6933 87.5106 13.1765 87.0343 13.7878C87.9584 13.4964 88.6053 13.3613 89.4442 13.3684C90.4039 13.3755 91.1361 12.3095 91.6479 12.4303C92.0034 12.5156 92.1882 13.5888 92.9275 14.1929L92.9346 14.2Z" fill="black"/>
<path d="M63.6886 46.5446C62.7929 45.3719 62.4588 45.777 61.4422 44.8673C61.947 44.0286 62.537 43.3108 62.6294 42.4011L62.992 38.9328L57.8878 43.986C57.7172 44.1566 57.2338 44.1352 57.0916 44.0002C56.8499 43.7799 56.9352 43.4672 57.2124 43.1971C58.5205 42.7067 59.5157 42.1381 60.1982 41.6975C61.1721 41.065 65.4516 38.2861 65.1033 35.1163C65.0535 34.6543 64.9114 34.2848 64.8118 34.0645C61.7621 37.1205 58.7124 40.1695 55.6627 43.2255C55.4068 43.4814 55.3144 43.7799 55.5774 44.05L56.6153 45.1018L56.0324 45.7486L54.6035 44.2703L52.4424 46.4308L54.5324 48.5488L55.4423 47.703C55.6201 47.5396 55.9186 47.3761 56.1248 47.4116C56.3238 47.4401 56.7077 47.8594 56.5513 48.0299L55.3997 49.295C55.6698 49.6219 55.9328 49.9702 56.2172 50.2616L63.5251 57.5677C63.8237 57.8662 64.1223 58.1647 64.4209 58.4703C64.428 58.0083 64.3924 57.4895 64.2787 56.9423C63.7455 54.3979 61.8759 52.8628 61.0726 52.2729C59.665 51.349 58.2575 50.4179 56.8499 49.494C56.8712 49.4087 56.9423 49.2097 57.1343 49.032C57.2693 48.9112 57.4399 48.8188 57.6177 48.7975L61.0726 52.28C61.7337 52.9481 62.3593 53.5522 63.1484 54.1634C62.7716 52.9694 62.601 52.1308 62.6081 51.0505C62.6152 49.8067 61.2361 48.8686 61.3996 48.2005C61.5133 47.7386 62.8996 47.4969 63.6744 46.5517L63.6886 46.5446Z" fill="black"/>
<path d="M122.714 46.5446C123.61 45.3719 123.944 45.777 124.96 44.8673C124.456 44.0286 123.866 43.3108 123.773 42.4011L123.411 38.9328L128.515 43.986C128.686 44.1566 129.169 44.1352 129.311 44.0002C129.553 43.7799 129.468 43.4672 129.19 43.1971C127.882 42.7067 126.887 42.1381 126.205 41.6975C125.231 41.065 120.951 38.2861 121.299 35.1163C121.349 34.6543 121.491 34.2848 121.591 34.0645C124.641 37.1205 127.69 40.1695 130.74 43.2255C130.996 43.4814 131.088 43.7799 130.825 44.05L129.787 45.1018L130.37 45.7486L131.799 44.2703L133.96 46.4308L131.87 48.5488L130.96 47.703C130.783 47.5396 130.484 47.3761 130.278 47.4116C130.079 47.4401 129.695 47.8594 129.851 48.0299L131.003 49.295C130.733 49.6219 130.47 49.9702 130.186 50.2616L122.878 57.5677C122.579 57.8662 122.28 58.1647 121.982 58.4703C121.975 58.0083 122.01 57.4895 122.124 56.9423C122.657 54.3979 124.527 52.8628 125.33 52.2729C126.738 51.349 128.145 50.4179 129.553 49.494C129.531 49.4087 129.46 49.2097 129.268 49.032C129.133 48.9112 128.963 48.8188 128.785 48.7975L125.33 52.28C124.669 52.9481 124.043 53.5522 123.254 54.1634C123.631 52.9694 123.802 52.1308 123.795 51.0505C123.788 49.8067 125.167 48.8686 125.003 48.2005C124.889 47.7386 123.503 47.4969 122.728 46.5517L122.714 46.5446Z" fill="black"/>
<path d="M93.3538 79.5997C92.4439 80.2891 92.7566 80.5521 92.0529 81.341C91.3988 80.9501 90.8443 80.4952 90.1477 80.4242L87.4676 80.1399L91.3775 84.0843C91.5055 84.2194 91.4913 84.5889 91.3917 84.7027C91.2211 84.8945 90.9794 84.8235 90.7733 84.6103C90.3965 83.5939 89.9557 82.8264 89.6145 82.3004C89.124 81.5471 86.97 78.2352 84.5246 78.5052C84.1691 78.5479 83.8848 78.6545 83.707 78.7327C86.0672 81.0922 88.4344 83.4447 90.7946 85.8043C90.9936 86.0033 91.2211 86.0743 91.4273 85.8682L92.2448 85.0651L92.7495 85.52L91.605 86.6287L93.2756 88.2989L94.9177 86.6784L94.2637 85.9748C94.1358 85.8398 94.0149 85.6053 94.0362 85.4489C94.0576 85.2925 94.3846 84.994 94.5125 85.1149L95.4936 86.0033C95.7495 85.7971 96.0125 85.591 96.24 85.3707L101.892 79.7206C102.126 79.486 102.354 79.2586 102.588 79.0241C102.226 79.0241 101.828 79.0454 101.408 79.1378C99.439 79.55 98.2518 80.9927 97.7968 81.6182C97.0788 82.7055 96.3608 83.7929 95.6428 84.8874C95.5789 84.8661 95.4225 84.8164 95.2874 84.6671C95.1879 84.5605 95.1239 84.4326 95.1026 84.2904L97.7968 81.6182C98.3158 81.1064 98.7779 80.6232 99.2542 80.012C98.33 80.3033 97.6831 80.4384 96.8442 80.4313C95.8845 80.4242 95.1523 81.4902 94.6405 81.3694C94.2851 81.2841 94.1002 80.211 93.3609 79.6068L93.3538 79.5997Z" fill="black"/>
<path d="M199.134 10.5753C200.399 10.7459 200.357 10.291 201.544 10.2271C201.75 11.0515 201.828 11.8546 202.326 12.4658L204.224 14.8112L204.252 8.59244C204.252 8.38634 204.565 8.10205 204.729 8.09495C205.013 8.08073 205.148 8.32237 205.148 8.65641C204.643 9.75801 204.38 10.7175 204.238 11.3998C204.032 12.3805 203.115 16.7088 205.262 18.4358C205.575 18.6917 205.887 18.8267 206.086 18.9049C206.086 15.1665 206.086 11.4282 206.079 7.68984C206.079 7.37713 205.951 7.13548 205.624 7.13548H204.345L204.309 6.36792L206.094 6.39634V3.7525L203.513 3.73828L203.47 4.81856C203.463 5.02467 203.378 5.30895 203.236 5.41556C203.094 5.52217 202.603 5.50085 202.596 5.30185L202.525 3.82357C202.155 3.78803 201.786 3.73828 201.43 3.73828H192.473C192.103 3.73828 191.741 3.73828 191.371 3.73828C191.648 4.02967 191.99 4.32106 192.395 4.58403C194.279 5.81356 196.369 5.61456 197.222 5.47953C198.651 5.18813 200.079 4.88963 201.515 4.59824C201.551 4.66221 201.636 4.83278 201.622 5.0531C201.622 5.20946 201.565 5.36581 201.473 5.49374L197.222 5.47953C196.411 5.47953 195.651 5.48663 194.798 5.60035C195.757 6.10495 196.383 6.51006 197.037 7.17813C197.79 7.9457 199.219 7.67563 199.525 8.18023C199.738 8.52848 199.034 9.53058 199.141 10.5895L199.134 10.5753Z" fill="black"/>
<path d="M171.708 10.682C171.878 9.41692 171.424 9.45957 171.36 8.27268C172.184 8.06657 172.987 7.98839 173.599 7.49089L175.945 5.59329L169.725 5.56487C169.518 5.56487 169.234 5.25215 169.227 5.08869C169.213 4.8044 169.454 4.66937 169.788 4.66937C170.89 5.17397 171.85 5.43694 172.533 5.57908C173.514 5.78519 177.843 6.702 179.57 4.55565C179.826 4.24294 179.961 3.93023 180.039 3.73123C176.3 3.73123 172.561 3.73123 168.822 3.73834C168.509 3.73834 168.267 3.86626 168.267 4.19319V5.47247L167.499 5.50801L167.528 3.72412H164.883L164.869 6.30401L165.95 6.34665C166.156 6.35376 166.44 6.43904 166.547 6.58118C166.653 6.72333 166.632 7.21372 166.433 7.22082L164.954 7.2919C164.919 7.66147 164.869 8.03104 164.869 8.38639V17.3414C164.869 17.7109 164.869 18.0734 164.869 18.443C165.161 18.1658 165.452 17.8246 165.715 17.4195C166.945 15.5362 166.746 13.4467 166.611 12.5938C166.319 11.1653 166.021 9.73674 165.729 8.30111C165.793 8.26557 165.964 8.18029 166.184 8.1945C166.341 8.1945 166.497 8.25136 166.625 8.34375L166.611 12.5938C166.611 13.404 166.618 14.1645 166.732 15.0173C167.236 14.0579 167.642 13.4324 168.31 12.7786C169.078 12.0252 168.807 10.5967 169.312 10.2911C169.661 10.0779 170.663 10.7815 171.722 10.6749L171.708 10.682Z" fill="black"/>
<path d="M199.134 82.599C200.399 82.4284 200.357 82.8832 201.544 82.9472C201.75 82.1228 201.828 81.3197 202.326 80.7085L204.224 78.3631L204.252 84.5818C204.252 84.7879 204.565 85.0722 204.729 85.0793C205.013 85.0936 205.148 84.8519 205.148 84.5179C204.643 83.4163 204.38 82.4568 204.238 81.7745C204.032 80.7937 203.115 76.4655 205.262 74.7385C205.575 74.4826 205.887 74.3476 206.086 74.2694C206.086 78.0078 206.086 81.7461 206.079 85.4844C206.079 85.7972 205.951 86.0388 205.624 86.0388H204.345L204.309 86.8064L206.094 86.7779V89.4218L203.513 89.436L203.47 88.3557C203.463 88.1496 203.378 87.8653 203.236 87.7587C203.094 87.6521 202.603 87.6734 202.596 87.8724L202.525 89.3507C202.155 89.3863 201.786 89.436 201.43 89.436H192.473C192.103 89.436 191.741 89.436 191.371 89.436C191.648 89.1446 191.99 88.8532 192.395 88.5903C194.279 87.3607 196.369 87.5597 197.222 87.6948C198.651 87.9862 200.079 88.2846 201.515 88.576C201.551 88.5121 201.636 88.3415 201.622 88.1212C201.622 87.9648 201.565 87.8085 201.473 87.6805L197.222 87.6948C196.411 87.6948 195.651 87.6877 194.798 87.5739C195.757 87.0693 196.383 86.6642 197.037 85.9962C197.79 85.2286 199.219 85.4987 199.525 84.9941C199.738 84.6458 199.034 83.6437 199.141 82.5847L199.134 82.599Z" fill="black"/>
<path d="M172.042 82.599C170.776 82.4284 170.819 82.8832 169.632 82.9472C169.426 82.1228 169.347 81.3197 168.85 80.7085L166.952 78.3631L166.923 84.5818C166.923 84.7879 166.61 85.0722 166.447 85.0793C166.163 85.0936 166.028 84.8519 166.028 84.5179C166.532 83.4163 166.795 82.4568 166.937 81.7745C167.144 80.7937 168.061 76.4655 165.914 74.7385C165.601 74.4826 165.288 74.3476 165.089 74.2694C165.089 78.0078 165.089 81.7461 165.096 85.4844C165.096 85.7972 165.224 86.0388 165.551 86.0388H166.831L166.866 86.8064L165.082 86.7779V89.4218L167.663 89.436L167.705 88.3557C167.712 88.1496 167.798 87.8653 167.94 87.7587C168.082 87.6521 168.572 87.6734 168.58 87.8724L168.651 89.3507C169.02 89.3863 169.39 89.436 169.745 89.436H178.703C179.072 89.436 179.435 89.436 179.805 89.436C179.527 89.1446 179.186 88.8532 178.781 88.5903C176.897 87.3607 174.807 87.5597 173.954 87.6948C172.525 87.9862 171.096 88.2846 169.66 88.576C169.625 88.5121 169.539 88.3415 169.554 88.1212C169.554 87.9648 169.61 87.8085 169.703 87.6805L173.954 87.6948C174.764 87.6948 175.525 87.6877 176.378 87.5739C175.418 87.0693 174.793 86.6642 174.139 85.9962C173.385 85.2286 171.956 85.4987 171.651 84.9941C171.437 84.6458 172.141 83.6437 172.035 82.5847L172.042 82.599Z" fill="black"/>
<path d="M185.399 14.2C186.309 13.5106 185.997 13.2476 186.7 12.4587C187.354 12.8496 187.909 13.3045 188.606 13.3755L191.286 13.6598L187.376 9.71538C187.248 9.58034 187.262 9.21077 187.362 9.09706C187.532 8.90516 187.774 8.97624 187.98 9.18945C188.357 10.2058 188.798 10.9733 189.139 11.4993C189.629 12.2526 191.783 15.5645 194.229 15.2945C194.584 15.2518 194.869 15.1452 195.046 15.067C192.686 12.7075 190.319 10.355 187.959 7.99545C187.76 7.79645 187.532 7.72538 187.326 7.93149L186.508 8.73459L186.004 8.27974L187.148 7.17103L185.478 5.50085L183.836 7.12128L184.49 7.82488C184.617 7.95992 184.738 8.19445 184.717 8.35081C184.696 8.50717 184.369 8.80567 184.241 8.68484L183.26 7.79645C183.004 8.00256 182.741 8.20867 182.513 8.42899L176.862 14.0791C176.627 14.3137 176.4 14.5411 176.165 14.7756C176.528 14.7756 176.926 14.7543 177.345 14.6619C179.314 14.2497 180.501 12.807 180.956 12.1815C181.674 11.0942 182.392 10.0068 183.11 8.91227C183.174 8.93359 183.331 8.98334 183.466 9.13259C183.565 9.2392 183.629 9.36713 183.651 9.50927L180.956 12.1815C180.437 12.6933 179.975 13.1765 179.499 13.7878C180.423 13.4964 181.07 13.3613 181.909 13.3684C182.869 13.3755 183.601 12.3095 184.113 12.4303C184.468 12.5156 184.653 13.5888 185.392 14.1929L185.399 14.2Z" fill="black"/>
<path d="M156.147 46.5446C155.251 45.3719 154.917 45.777 153.9 44.8673C154.405 44.0286 154.995 43.3108 155.087 42.4011L155.45 38.9328L150.346 43.986C150.175 44.1566 149.692 44.1352 149.55 44.0002C149.308 43.7799 149.393 43.4672 149.67 43.1971C150.978 42.7067 151.974 42.1381 152.656 41.6975C153.63 41.065 157.91 38.2861 157.561 35.1163C157.512 34.6543 157.369 34.2848 157.27 34.0645C154.22 37.1205 151.17 40.1695 148.121 43.2255C147.865 43.4814 147.772 43.7799 148.035 44.05L149.073 45.1018L148.49 45.7486L147.061 44.2703L144.9 46.4308L146.99 48.5488L147.9 47.703C148.078 47.5396 148.377 47.3761 148.583 47.4116C148.782 47.4401 149.166 47.8594 149.009 48.0299L147.858 49.295C148.128 49.6219 148.391 49.9702 148.675 50.2616L155.983 57.5677C156.282 57.8662 156.58 58.1647 156.879 58.4703C156.886 58.0083 156.85 57.4895 156.737 56.9423C156.204 54.3979 154.334 52.8628 153.531 52.2729C152.123 51.349 150.715 50.4179 149.308 49.494C149.329 49.4087 149.4 49.2097 149.592 49.032C149.727 48.9112 149.898 48.8188 150.076 48.7975L153.531 52.28C154.192 52.9481 154.817 53.5522 155.606 54.1634C155.23 52.9694 155.059 52.1308 155.066 51.0505C155.073 49.8067 153.694 48.8686 153.858 48.2005C153.971 47.7386 155.358 47.4969 156.132 46.5517L156.147 46.5446Z" fill="black"/>
<path d="M215.179 46.5446C216.075 45.3719 216.409 45.777 217.425 44.8673C216.921 44.0286 216.331 43.3108 216.238 42.4011L215.876 38.9328L220.98 43.986C221.15 44.1566 221.634 44.1352 221.776 44.0002C222.018 43.7799 221.932 43.4672 221.655 43.1971C220.347 42.7067 219.352 42.1381 218.669 41.6975C217.695 41.065 213.416 38.2861 213.764 35.1163C213.814 34.6543 213.956 34.2848 214.056 34.0645C217.105 37.1205 220.155 40.1695 223.205 43.2255C223.461 43.4814 223.553 43.7799 223.29 44.05L222.252 45.1018L222.835 45.7486L224.264 44.2703L226.425 46.4308L224.335 48.5488L223.425 47.703C223.247 47.5396 222.949 47.3761 222.743 47.4116C222.544 47.4401 222.16 47.8594 222.316 48.0299L223.468 49.295C223.198 49.6219 222.935 49.9702 222.65 50.2616L215.342 57.5677C215.044 57.8662 214.745 58.1647 214.447 58.4703C214.44 58.0083 214.475 57.4895 214.589 56.9423C215.122 54.3979 216.992 52.8628 217.795 52.2729C219.203 51.349 220.61 50.4179 222.018 49.494C221.996 49.4087 221.925 49.2097 221.733 49.032C221.598 48.9112 221.428 48.8188 221.25 48.7975L217.795 52.28C217.134 52.9481 216.508 53.5522 215.719 54.1634C216.096 52.9694 216.267 52.1308 216.259 51.0505C216.252 49.8067 217.631 48.8686 217.468 48.2005C217.354 47.7386 215.968 47.4969 215.193 46.5517L215.179 46.5446Z" fill="black"/>
<path d="M185.82 79.5997C184.91 80.2891 185.222 80.5521 184.519 81.341C183.865 80.9501 183.31 80.4952 182.613 80.4242L179.933 80.1399L183.843 84.0843C183.971 84.2194 183.957 84.5889 183.858 84.7027C183.687 84.8945 183.445 84.8235 183.239 84.6103C182.862 83.5939 182.422 82.8264 182.08 82.3004C181.59 81.5471 179.436 78.2352 176.99 78.5052C176.635 78.5479 176.351 78.6545 176.173 78.7327C178.533 81.0922 180.9 83.4447 183.26 85.8043C183.459 86.0033 183.687 86.0743 183.893 85.8682L184.711 85.0651L185.215 85.52L184.071 86.6287L185.741 88.2989L187.384 86.6784L186.73 85.9748C186.602 85.8398 186.481 85.6053 186.502 85.4489C186.523 85.2925 186.85 84.994 186.978 85.1149L187.959 86.0033C188.215 85.7971 188.478 85.591 188.706 85.3707L194.357 79.7206C194.592 79.486 194.819 79.2586 195.054 79.0241C194.691 79.0241 194.293 79.0454 193.874 79.1378C191.905 79.55 190.718 80.9927 190.263 81.6182C189.545 82.7055 188.827 83.7929 188.109 84.8874C188.045 84.8661 187.888 84.8164 187.753 84.6671C187.654 84.5605 187.59 84.4326 187.568 84.2904L190.263 81.6182C190.782 81.1064 191.244 80.6232 191.72 80.012C190.796 80.3033 190.149 80.4384 189.31 80.4313C188.35 80.4242 187.618 81.4902 187.106 81.3694C186.751 81.2841 186.566 80.211 185.827 79.6068L185.82 79.5997Z" fill="black"/>
<path d="M277.939 1.50452L232.623 46.8093L277.939 92.1141L323.255 46.8093L277.939 1.50452Z" stroke="black" stroke-width="1.5" stroke-miterlimit="10"/>
</g>
<mask id="mask2_3226_21997" style="mask-type:luminance" maskUnits="userSpaceOnUse" x="46" y="182" width="186" height="95">
<path d="M231.792 182.752H46.2148V277H231.792V182.752Z" fill="white"/>
</mask>
<g mask="url(#mask2_3226_21997)">
<path d="M0.567036 184.255L-44.749 229.56L0.567031 274.865L45.8831 229.56L0.567036 184.255Z" stroke="black" stroke-width="1.5" stroke-miterlimit="10"/>
<path d="M106.69 193.335C107.955 193.506 107.912 193.051 109.1 192.987C109.306 193.811 109.384 194.614 109.882 195.225L111.78 197.571L111.808 191.352C111.808 191.146 112.121 190.862 112.284 190.855C112.569 190.84 112.704 191.082 112.704 191.416C112.199 192.518 111.936 193.477 111.794 194.159C111.588 195.14 110.671 199.468 112.818 201.195C113.13 201.451 113.443 201.586 113.642 201.665C113.642 197.926 113.642 194.188 113.635 190.449C113.635 190.137 113.507 189.895 113.18 189.895H111.9L111.865 189.128L113.649 189.156V186.512L111.069 186.498L111.026 187.578C111.019 187.784 110.934 188.069 110.791 188.175C110.649 188.282 110.159 188.26 110.152 188.061L110.081 186.583C109.711 186.548 109.341 186.498 108.986 186.498H100.029C99.659 186.498 99.2964 186.498 98.9268 186.498C99.204 186.789 99.5452 187.081 99.9504 187.344C101.834 188.573 103.924 188.374 104.777 188.239C106.206 187.948 107.635 187.649 109.071 187.358C109.107 187.422 109.192 187.592 109.178 187.813C109.178 187.969 109.121 188.125 109.028 188.253L104.777 188.239C103.967 188.239 103.206 188.246 102.353 188.36C103.313 188.865 103.939 189.27 104.593 189.938C105.346 190.705 106.775 190.435 107.081 190.94C107.294 191.288 106.59 192.29 106.697 193.349L106.69 193.335Z" fill="black"/>
<path d="M79.2704 193.434C79.441 192.169 78.986 192.212 78.922 191.025C79.7467 190.819 80.55 190.741 81.1613 190.243L83.5073 188.346L77.287 188.317C77.0809 188.317 76.7965 188.005 76.7894 187.841C76.7752 187.557 77.0169 187.422 77.351 187.422C78.4529 187.926 79.4126 188.189 80.095 188.332C81.076 188.538 85.4054 189.454 87.1328 187.308C87.3887 186.995 87.5238 186.683 87.602 186.484C83.8627 186.484 80.1235 186.484 76.3842 186.491C76.0714 186.491 75.8297 186.619 75.8297 186.946V188.225L75.0619 188.26L75.0904 186.477H72.4459L72.4316 189.056L73.5122 189.099C73.7184 189.106 74.0027 189.191 74.1093 189.334C74.216 189.476 74.1946 189.966 73.9956 189.973L72.5169 190.044C72.4814 190.414 72.4316 190.783 72.4316 191.139V200.094C72.4316 200.463 72.4316 200.826 72.4316 201.195C72.7231 200.918 73.0146 200.577 73.2776 200.172C74.5074 198.289 74.3084 196.199 74.1733 195.346C73.8819 193.918 73.5833 192.489 73.2918 191.054C73.3558 191.018 73.5264 190.933 73.7468 190.947C73.9032 190.947 74.0596 191.004 74.1875 191.096L74.1733 195.346C74.1733 196.156 74.1804 196.917 74.2942 197.77C74.7989 196.81 75.2041 196.185 75.8723 195.531C76.6401 194.778 76.37 193.349 76.8747 193.044C77.223 192.83 78.2254 193.534 79.2846 193.427L79.2704 193.434Z" fill="black"/>
<path d="M106.69 265.351C107.955 265.181 107.912 265.636 109.1 265.7C109.306 264.875 109.384 264.072 109.882 263.461L111.78 261.116L111.808 267.334C111.808 267.54 112.121 267.825 112.284 267.832C112.569 267.846 112.704 267.604 112.704 267.27C112.199 266.169 111.936 265.209 111.794 264.527C111.588 263.546 110.671 259.218 112.818 257.491C113.13 257.235 113.443 257.1 113.642 257.022C113.642 260.76 113.642 264.499 113.635 268.237C113.635 268.55 113.507 268.791 113.18 268.791H111.9L111.865 269.559L113.649 269.53V272.174L111.069 272.188L111.026 271.108C111.019 270.902 110.934 270.618 110.791 270.511C110.649 270.405 110.159 270.426 110.152 270.625L110.081 272.103C109.711 272.139 109.341 272.188 108.986 272.188H100.029C99.659 272.188 99.2964 272.188 98.9268 272.188C99.204 271.897 99.5452 271.606 99.9504 271.343C101.834 270.113 103.924 270.312 104.777 270.447C106.206 270.739 107.635 271.037 109.071 271.328C109.107 271.265 109.192 271.094 109.178 270.874C109.178 270.717 109.121 270.561 109.028 270.433L104.777 270.447C103.967 270.447 103.206 270.44 102.353 270.326C103.313 269.822 103.939 269.417 104.593 268.749C105.346 267.981 106.775 268.251 107.081 267.746C107.294 267.398 106.59 266.396 106.697 265.337L106.69 265.351Z" fill="black"/>
<path d="M79.6041 265.351C78.3387 265.181 78.3814 265.636 77.1942 265.7C76.9881 264.875 76.9099 264.072 76.4122 263.461L74.5142 261.116L74.4857 267.334C74.4857 267.54 74.1729 267.825 74.0094 267.832C73.7251 267.846 73.59 267.604 73.59 267.27C74.0947 266.169 74.3578 265.209 74.5 264.527C74.7061 263.546 75.6232 259.218 73.4763 257.491C73.1635 257.235 72.8507 257.1 72.6516 257.022C72.6516 260.76 72.6516 264.499 72.6587 268.237C72.6587 268.55 72.7867 268.791 73.1137 268.791H74.3933L74.4289 269.559L72.6445 269.53V272.174L75.2251 272.188L75.2677 271.108C75.2748 270.902 75.3601 270.618 75.5023 270.511C75.6445 270.405 76.135 270.426 76.1421 270.625L76.2132 272.103C76.5829 272.139 76.9525 272.188 77.308 272.188H86.2651C86.6348 272.188 86.9974 272.188 87.367 272.188C87.0898 271.897 86.7486 271.606 86.3433 271.343C84.4595 270.113 82.3695 270.312 81.5164 270.447C80.0875 270.739 78.6586 271.037 77.2226 271.328C77.1871 271.265 77.1018 271.094 77.116 270.874C77.116 270.717 77.1729 270.561 77.2653 270.433L81.5164 270.447C82.3268 270.447 83.0875 270.44 83.9405 270.326C82.9808 269.822 82.3553 269.417 81.7012 268.749C80.9477 267.981 79.5188 268.251 79.2131 267.746C78.9999 267.398 79.7037 266.396 79.597 265.337L79.6041 265.351Z" fill="black"/>
<path d="M92.9551 196.96C93.8651 196.27 93.5523 196.007 94.2561 195.218C94.9101 195.609 95.4646 196.064 96.1613 196.135L98.8413 196.419L94.9314 192.475C94.8035 192.34 94.8177 191.97 94.9172 191.857C95.0878 191.665 95.3295 191.736 95.5357 191.949C95.9124 192.965 96.3532 193.733 96.6944 194.259C97.1849 195.012 99.3389 198.324 101.784 198.054C102.14 198.011 102.424 197.905 102.602 197.827C100.242 195.467 97.8745 193.115 95.5143 190.755C95.3153 190.556 95.0878 190.485 94.8817 190.691L94.0641 191.494L93.5594 191.039L94.7039 189.931L93.0333 188.26L91.3912 189.881L92.0452 190.585C92.1732 190.72 92.294 190.954 92.2727 191.11C92.2514 191.267 91.9244 191.565 91.7964 191.444L90.8154 190.556C90.5595 190.762 90.2964 190.968 90.0689 191.189L84.4174 196.839C84.1828 197.073 83.9553 197.301 83.7207 197.535C84.0833 197.535 84.4814 197.514 84.9008 197.422C86.8699 197.009 88.0571 195.567 88.5121 194.941C89.2301 193.854 89.9481 192.766 90.6661 191.672C90.7301 191.693 90.8865 191.743 91.0215 191.892C91.121 191.999 91.185 192.127 91.2064 192.269L88.5121 194.941C87.9931 195.453 87.5311 195.936 87.0548 196.547C87.9789 196.256 88.6258 196.121 89.4647 196.128C90.4244 196.135 91.1566 195.069 91.6684 195.19C92.0239 195.275 92.2087 196.348 92.948 196.952L92.9551 196.96Z" fill="black"/>
<path d="M63.7091 229.304C62.8134 228.131 62.4793 228.537 61.4627 227.627C61.9675 226.788 62.5575 226.07 62.6499 225.161L63.0125 221.692L57.9083 226.746C57.7377 226.916 57.2543 226.895 57.1121 226.76C56.8704 226.539 56.9557 226.227 57.233 225.957C58.541 225.466 59.5362 224.898 60.2187 224.457C61.1926 223.825 65.4721 221.046 65.1238 217.876C65.074 217.414 64.9319 217.044 64.8323 216.824C61.7826 219.88 58.7329 222.929 55.6832 225.985C55.4273 226.241 55.3349 226.539 55.5979 226.809L56.6358 227.861L56.0529 228.508L54.624 227.03L52.4629 229.19L54.5529 231.308L55.4628 230.463C55.6406 230.299 55.9391 230.136 56.1453 230.171C56.3443 230.2 56.7282 230.619 56.5718 230.789L55.4202 232.055C55.6903 232.381 55.9534 232.73 56.2377 233.021L63.5456 240.327C63.8442 240.626 64.1428 240.924 64.4414 241.23C64.4485 240.768 64.4129 240.249 64.2992 239.702C63.766 237.157 61.8964 235.622 61.0931 235.032C59.6855 234.109 58.278 233.177 56.8704 232.254C56.8917 232.168 56.9628 231.969 57.1548 231.792C57.2898 231.671 57.4604 231.578 57.6382 231.557L61.0931 235.04C61.7542 235.708 62.3798 236.312 63.1689 236.923C62.7921 235.729 62.6215 234.89 62.6286 233.81C62.6357 232.566 61.2566 231.628 61.4201 230.96C61.5338 230.498 62.9201 230.256 63.6949 229.311L63.7091 229.304Z" fill="black"/>
<path d="M122.735 229.304C123.63 228.131 123.964 228.537 124.981 227.627C124.476 226.788 123.886 226.07 123.794 225.161L123.431 221.692L128.535 226.746C128.706 226.916 129.189 226.895 129.332 226.76C129.573 226.539 129.488 226.227 129.211 225.957C127.903 225.466 126.907 224.898 126.225 224.457C125.251 223.825 120.972 221.046 121.32 217.876C121.37 217.414 121.512 217.044 121.611 216.824C124.661 219.88 127.711 222.929 130.761 225.985C131.016 226.241 131.109 226.539 130.846 226.809L129.808 227.861L130.391 228.508L131.82 227.03L133.981 229.19L131.891 231.308L130.981 230.463C130.803 230.299 130.505 230.136 130.298 230.171C130.099 230.2 129.716 230.619 129.872 230.789L131.024 232.055C130.753 232.381 130.49 232.73 130.206 233.021L122.898 240.327C122.6 240.626 122.301 240.924 122.002 241.23C121.995 240.768 122.031 240.249 122.145 239.702C122.678 237.157 124.547 235.622 125.351 235.032C126.758 234.109 128.166 233.177 129.573 232.254C129.552 232.168 129.481 231.969 129.289 231.792C129.154 231.671 128.983 231.578 128.806 231.557L125.351 235.04C124.69 235.708 124.064 236.312 123.275 236.923C123.652 235.729 123.822 234.89 123.815 233.81C123.808 232.566 125.187 231.628 125.024 230.96C124.91 230.498 123.524 230.256 122.749 229.311L122.735 229.304Z" fill="black"/>
<path d="M93.3743 262.352C92.4644 263.042 92.7772 263.305 92.0734 264.093C91.4194 263.703 90.8649 263.248 90.1682 263.177L87.4881 262.892L91.398 266.837C91.526 266.972 91.5118 267.341 91.4122 267.455C91.2416 267.647 90.9999 267.576 90.7938 267.363C90.417 266.346 89.9762 265.579 89.635 265.053C89.1445 264.3 86.9905 260.988 84.5451 261.258C84.1896 261.3 83.9053 261.407 83.7275 261.485C86.0877 263.845 88.4549 266.197 90.8151 268.557C91.0141 268.756 91.2416 268.827 91.4478 268.621L92.2653 267.818L92.77 268.272L91.6255 269.381L93.2961 271.051L94.9383 269.431L94.2842 268.727C94.1563 268.592 94.0354 268.358 94.0567 268.201C94.0781 268.045 94.4051 267.746 94.533 267.867L95.5141 268.756C95.77 268.55 96.033 268.343 96.2605 268.123L101.912 262.473C102.147 262.238 102.374 262.011 102.609 261.776C102.246 261.776 101.848 261.798 101.429 261.89C99.4595 262.302 98.2723 263.745 97.8174 264.371C97.0994 265.458 96.3814 266.545 95.6634 267.64C95.5994 267.619 95.443 267.569 95.3079 267.42C95.2084 267.313 95.1444 267.185 95.1231 267.043L97.8174 264.371C98.3363 263.859 98.7984 263.376 99.2747 262.764C98.3505 263.056 97.7036 263.191 96.8648 263.184C95.9051 263.177 95.1728 264.243 94.661 264.122C94.3056 264.037 94.1207 262.963 93.3814 262.359L93.3743 262.352Z" fill="black"/>
<path d="M199.155 193.335C200.421 193.506 200.378 193.051 201.565 192.987C201.772 193.811 201.85 194.614 202.347 195.225L204.245 197.571L204.274 191.352C204.274 191.146 204.587 190.862 204.75 190.855C205.035 190.84 205.17 191.082 205.17 191.416C204.665 192.518 204.402 193.477 204.26 194.159C204.053 195.14 203.136 199.468 205.283 201.195C205.596 201.451 205.909 201.586 206.108 201.665C206.108 197.926 206.108 194.188 206.101 190.449C206.101 190.137 205.973 189.895 205.646 189.895H204.366L204.331 189.128L206.115 189.156V186.512L203.535 186.498L203.492 187.578C203.485 187.784 203.399 188.069 203.257 188.175C203.115 188.282 202.625 188.26 202.617 188.061L202.546 186.583C202.177 186.548 201.807 186.498 201.452 186.498H192.494C192.125 186.498 191.762 186.498 191.393 186.498C191.67 186.789 192.011 187.081 192.416 187.344C194.3 188.573 196.39 188.374 197.243 188.239C198.672 187.948 200.101 187.649 201.537 187.358C201.572 187.422 201.658 187.592 201.644 187.813C201.644 187.969 201.587 188.125 201.494 188.253L197.243 188.239C196.433 188.239 195.672 188.246 194.819 188.36C195.779 188.865 196.404 189.27 197.058 189.938C197.812 190.705 199.241 190.435 199.546 190.94C199.76 191.288 199.056 192.29 199.163 193.349L199.155 193.335Z" fill="black"/>
<path d="M171.729 193.434C171.9 192.169 171.445 192.212 171.381 191.025C172.206 190.819 173.009 190.741 173.62 190.243L175.966 188.346L169.746 188.317C169.54 188.317 169.255 188.005 169.248 187.841C169.234 187.557 169.476 187.422 169.81 187.422C170.912 187.926 171.872 188.189 172.554 188.332C173.535 188.538 177.864 189.454 179.592 187.308C179.848 186.995 179.983 186.683 180.061 186.484C176.322 186.484 172.582 186.484 168.843 186.491C168.53 186.491 168.289 186.619 168.289 186.946V188.225L167.521 188.26L167.549 186.477H164.905L164.891 189.056L165.971 189.099C166.177 189.106 166.462 189.191 166.568 189.334C166.675 189.476 166.654 189.966 166.455 189.973L164.976 190.044C164.94 190.414 164.891 190.783 164.891 191.139V200.094C164.891 200.463 164.891 200.826 164.891 201.195C165.182 200.918 165.474 200.577 165.737 200.172C166.966 198.289 166.767 196.199 166.632 195.346C166.341 193.918 166.042 192.489 165.751 191.054C165.815 191.018 165.985 190.933 166.206 190.947C166.362 190.947 166.519 191.004 166.647 191.096L166.632 195.346C166.632 196.156 166.639 196.917 166.753 197.77C167.258 196.81 167.663 196.185 168.331 195.531C169.099 194.778 168.829 193.349 169.334 193.044C169.682 192.83 170.684 193.534 171.744 193.427L171.729 193.434Z" fill="black"/>
<path d="M199.155 265.351C200.421 265.181 200.378 265.636 201.565 265.7C201.772 264.875 201.85 264.072 202.347 263.461L204.245 261.116L204.274 267.334C204.274 267.54 204.587 267.825 204.75 267.832C205.035 267.846 205.17 267.604 205.17 267.27C204.665 266.169 204.402 265.209 204.26 264.527C204.053 263.546 203.136 259.218 205.283 257.491C205.596 257.235 205.909 257.1 206.108 257.022C206.108 260.76 206.108 264.499 206.101 268.237C206.101 268.55 205.973 268.791 205.646 268.791H204.366L204.331 269.559L206.115 269.53V272.174L203.535 272.188L203.492 271.108C203.485 270.902 203.399 270.618 203.257 270.511C203.115 270.405 202.625 270.426 202.617 270.625L202.546 272.103C202.177 272.139 201.807 272.188 201.452 272.188H192.494C192.125 272.188 191.762 272.188 191.393 272.188C191.67 271.897 192.011 271.606 192.416 271.343C194.3 270.113 196.39 270.312 197.243 270.447C198.672 270.739 200.101 271.037 201.537 271.328C201.572 271.265 201.658 271.094 201.644 270.874C201.644 270.717 201.587 270.561 201.494 270.433L197.243 270.447C196.433 270.447 195.672 270.44 194.819 270.326C195.779 269.822 196.404 269.417 197.058 268.749C197.812 267.981 199.241 268.251 199.546 267.746C199.76 267.398 199.056 266.396 199.163 265.337L199.155 265.351Z" fill="black"/>
<path d="M172.063 265.351C170.798 265.181 170.84 265.636 169.653 265.7C169.447 264.875 169.369 264.072 168.871 263.461L166.973 261.116L166.945 267.334C166.945 267.54 166.632 267.825 166.468 267.832C166.184 267.846 166.049 267.604 166.049 267.27C166.554 266.169 166.817 265.209 166.959 264.527C167.165 263.546 168.082 259.218 165.935 257.491C165.622 257.235 165.31 257.1 165.111 257.022C165.111 260.76 165.111 264.499 165.118 268.237C165.118 268.55 165.246 268.791 165.573 268.791H166.852L166.888 269.559L165.104 269.53V272.174L167.684 272.188L167.727 271.108C167.734 270.902 167.819 270.618 167.961 270.511C168.103 270.405 168.594 270.426 168.601 270.625L168.672 272.103C169.042 272.139 169.411 272.188 169.767 272.188H178.724C179.094 272.188 179.456 272.188 179.826 272.188C179.549 271.897 179.208 271.606 178.802 271.343C176.918 270.113 174.828 270.312 173.975 270.447C172.547 270.739 171.118 271.037 169.682 271.328C169.646 271.265 169.561 271.094 169.575 270.874C169.575 270.717 169.632 270.561 169.724 270.433L173.975 270.447C174.786 270.447 175.546 270.44 176.4 270.326C175.44 269.822 174.814 269.417 174.16 268.749C173.407 267.981 171.978 268.251 171.672 267.746C171.459 267.398 172.163 266.396 172.056 265.337L172.063 265.351Z" fill="black"/>
<path d="M185.421 196.96C186.331 196.27 186.018 196.007 186.722 195.218C187.376 195.609 187.93 196.064 188.627 196.135L191.307 196.419L187.397 192.475C187.269 192.34 187.283 191.97 187.383 191.857C187.554 191.665 187.795 191.736 188.001 191.949C188.378 192.965 188.819 193.733 189.16 194.259C189.651 195.012 191.805 198.324 194.25 198.054C194.606 198.011 194.89 197.905 195.068 197.827C192.708 195.467 190.34 193.115 187.98 190.755C187.781 190.556 187.554 190.485 187.347 190.691L186.53 191.494L186.025 191.039L187.17 189.931L185.499 188.26L183.857 189.881L184.511 190.585C184.639 190.72 184.76 190.954 184.739 191.11C184.717 191.267 184.39 191.565 184.262 191.444L183.281 190.556C183.025 190.762 182.762 190.968 182.535 191.189L176.883 196.839C176.649 197.073 176.421 197.301 176.187 197.535C176.549 197.535 176.947 197.514 177.367 197.422C179.336 197.009 180.523 195.567 180.978 194.941C181.696 193.854 182.414 192.766 183.132 191.672C183.196 191.693 183.352 191.743 183.487 191.892C183.587 191.999 183.651 192.127 183.672 192.269L180.978 194.941C180.459 195.453 179.997 195.936 179.521 196.547C180.445 196.256 181.092 196.121 181.931 196.128C182.89 196.135 183.622 195.069 184.134 195.19C184.49 195.275 184.675 196.348 185.414 196.952L185.421 196.96Z" fill="black"/>
<path d="M156.175 229.304C155.279 228.131 154.945 228.537 153.929 227.627C154.433 226.788 155.023 226.07 155.116 225.161L155.478 221.692L150.374 226.746C150.204 226.916 149.72 226.895 149.578 226.76C149.336 226.539 149.422 226.227 149.699 225.957C151.007 225.466 152.002 224.898 152.685 224.457C153.658 223.825 157.938 221.046 157.59 217.876C157.54 217.414 157.398 217.044 157.298 216.824C154.248 219.88 151.199 222.929 148.149 225.985C147.893 226.241 147.801 226.539 148.064 226.809L149.102 227.861L148.519 228.508L147.09 227.03L144.929 229.19L147.019 231.308L147.929 230.463C148.106 230.299 148.405 230.136 148.611 230.171C148.81 230.2 149.194 230.619 149.038 230.789L147.886 232.055C148.156 232.381 148.419 232.73 148.704 233.021L156.011 240.327C156.31 240.626 156.609 240.924 156.907 241.23C156.914 240.768 156.879 240.249 156.765 239.702C156.232 237.157 154.362 235.622 153.559 235.032C152.151 234.109 150.744 233.177 149.336 232.254C149.358 232.168 149.429 231.969 149.621 231.792C149.756 231.671 149.926 231.578 150.104 231.557L153.559 235.04C154.22 235.708 154.846 236.312 155.635 236.923C155.258 235.729 155.087 234.89 155.094 233.81C155.102 232.566 153.722 231.628 153.886 230.96C154 230.498 155.386 230.256 156.161 229.311L156.175 229.304Z" fill="black"/>
<path d="M215.2 229.304C216.096 228.131 216.43 228.537 217.447 227.627C216.942 226.788 216.352 226.07 216.26 225.161L215.897 221.692L221.001 226.746C221.172 226.916 221.655 226.895 221.797 226.76C222.039 226.539 221.954 226.227 221.677 225.957C220.369 225.466 219.373 224.898 218.691 224.457C217.717 223.825 213.437 221.046 213.786 217.876C213.835 217.414 213.978 217.044 214.077 216.824C217.127 219.88 220.177 222.929 223.226 225.985C223.482 226.241 223.575 226.539 223.312 226.809L222.274 227.861L222.857 228.508L224.286 227.03L226.447 229.19L224.357 231.308L223.447 230.463C223.269 230.299 222.97 230.136 222.764 230.171C222.565 230.2 222.181 230.619 222.338 230.789L223.489 232.055C223.219 232.381 222.956 232.73 222.672 233.021L215.364 240.327C215.065 240.626 214.767 240.924 214.468 241.23C214.461 240.768 214.497 240.249 214.61 239.702C215.144 237.157 217.013 235.622 217.816 235.032C219.224 234.109 220.632 233.177 222.039 232.254C222.018 232.168 221.947 231.969 221.755 231.792C221.62 231.671 221.449 231.578 221.271 231.557L217.816 235.04C217.155 235.708 216.53 236.312 215.741 236.923C216.117 235.729 216.288 234.89 216.281 233.81C216.274 232.566 217.653 231.628 217.489 230.96C217.376 230.498 215.989 230.256 215.215 229.311L215.2 229.304Z" fill="black"/>
<path d="M185.84 262.352C184.93 263.042 185.243 263.305 184.539 264.093C183.885 263.703 183.331 263.248 182.634 263.177L179.954 262.892L183.864 266.837C183.992 266.972 183.978 267.341 183.878 267.455C183.707 267.647 183.466 267.576 183.26 267.363C182.883 266.346 182.442 265.579 182.101 265.053C181.61 264.3 179.456 260.988 177.011 261.258C176.655 261.3 176.371 261.407 176.193 261.485C178.554 263.845 180.921 266.197 183.281 268.557C183.48 268.756 183.707 268.827 183.914 268.621L184.731 267.818L185.236 268.272L184.091 269.381L185.762 271.051L187.404 269.431L186.75 268.727C186.622 268.592 186.501 268.358 186.523 268.201C186.544 268.045 186.871 267.746 186.999 267.867L187.98 268.756C188.236 268.55 188.499 268.343 188.726 268.123L194.378 262.473C194.612 262.238 194.84 262.011 195.075 261.776C194.712 261.776 194.314 261.798 193.894 261.89C191.925 262.302 190.738 263.745 190.283 264.371C189.565 265.458 188.847 266.545 188.129 267.64C188.065 267.619 187.909 267.569 187.774 267.42C187.674 267.313 187.61 267.185 187.589 267.043L190.283 264.371C190.802 263.859 191.264 263.376 191.74 262.764C190.816 263.056 190.169 263.191 189.331 263.184C188.371 263.177 187.639 264.243 187.127 264.122C186.771 264.037 186.587 262.963 185.847 262.359L185.84 262.352Z" fill="black"/>
<path d="M277.958 184.26L232.642 229.565L277.958 274.87L323.274 229.565L277.958 184.26Z" stroke="black" stroke-width="1.5" stroke-miterlimit="10"/>
</g>
</g>
<defs>
<clipPath id="clip0_3226_21997">
<rect width="278" height="277" fill="white"/>
</clipPath>
</defs>
</svg>
