<svg width="36" height="40" viewBox="0 0 36 40" fill="none" xmlns="http://www.w3.org/2000/svg">
<path d="M32.6904 3.53998L32.6104 3.77997L32.7304 4C32.9604 4.41 33.4404 4.65997 34.0304 4.65997C34.6804 4.65997 35.2404 4.34999 35.4804 3.85999C35.7604 3.29999 35.7704 2.30999 35.5104 1.73999C35.0004 0.63999 33.9804 0 32.7204 0C32.4104 0 32.0904 0.0399951 31.7704 0.119995C30.4404 0.449995 30.1404 1.41 30.0204 2C28.7104 1.21 27.1904 0.779968 25.6904 0.779968C24.4304 0.779968 23.2404 1.07002 22.1504 1.65002C20.6504 2.44002 19.8504 3.42999 19.1404 4.29999C18.4704 5.11999 17.9504 5.76001 17.0004 6.01001C16.8004 6.06001 16.6004 6.09003 16.4004 6.09003C15.8104 6.09003 15.2404 5.84999 14.8104 5.42999C14.1804 4.80999 14.1204 3.78001 14.6904 3.20001C14.8404 3.05001 15.0504 2.96002 15.2504 2.96002H15.2704C15.1904 3.21002 15.1304 3.45002 15.0904 3.65002C15.0304 4.01002 15.1204 4.35001 15.3404 4.64001C15.6704 5.07001 16.2204 5.27 16.6304 5.31C16.6904 5.31 16.7404 5.31 16.8004 5.31C17.5704 5.31 18.2104 4.77999 18.4704 3.92999C18.7404 3.06999 18.3504 2.12997 17.3804 1.27997C16.7604 0.749968 16.0204 0.460022 15.2304 0.460022C14.0904 0.460022 13.0004 1.07003 12.3304 2.09003C12.2904 2.15003 12.2304 2.17999 12.2004 2.17999C11.0704 1.27999 10.0104 0.840027 8.97038 0.840027C8.20038 0.840027 7.44038 1.09002 6.72039 1.58002C6.42038 1.78002 6.12038 1.89001 5.84038 1.89001C5.54038 1.89001 5.29038 1.77001 5.07038 1.51001C4.56038 0.93001 4.01039 0.640015 3.40039 0.640015C2.87039 0.640015 2.41038 0.849988 1.95038 1.04999C1.55038 1.22999 1.18038 1.39998 0.710383 1.41998C0.560383 1.44998 0.350384 1.54002 0.180384 1.83002C0.0703841 2.02002 -0.0796207 2.44001 0.0503792 2.76001C0.190379 3.12001 0.59038 3.40997 0.91038 3.52997C1.14038 3.60997 1.37038 3.65002 1.60038 3.65002C2.21038 3.65002 2.69039 3.35 3.08039 3.12C3.12039 3.09 3.16038 3.08002 3.18038 3.08002C3.21038 3.08002 3.40038 3.10999 3.75038 3.60999C4.17038 4.21999 4.85038 4.41998 5.45038 4.59998C5.48038 4.67998 5.52038 4.76998 5.55038 4.84998C5.67038 5.14998 5.79038 5.46999 5.96038 5.73999C6.40038 6.44999 7.50038 6.98999 8.53038 6.98999C9.31038 6.98999 9.93038 6.66998 10.2804 6.09998C10.5404 5.66998 10.5504 4.89001 10.1104 4.39001C10.0104 4.27001 9.81038 4.13 9.48038 4.13C9.22038 4.13 8.94038 4.22002 8.61038 4.33002C8.49038 4.33002 8.35038 4.24999 8.24038 4.10999C8.13038 3.97999 8.08038 3.83002 8.10038 3.71002C8.17038 3.34002 8.53038 3.17999 8.86038 3.17999C8.95038 3.17999 9.04038 3.19002 9.13038 3.21002C10.2604 3.51002 11.2404 4.39001 11.8204 5.64001C12.4704 7.05001 13.4104 7.97999 14.6004 8.42999C15.0804 8.60999 15.5804 8.70001 16.1004 8.70001C16.8204 8.70001 17.5904 8.51998 18.3804 8.16998C18.4004 8.26998 18.4104 8.37002 18.4204 8.46002C18.5504 9.37002 18.7604 10.9 19.8604 12.19C20.9004 13.42 22.4204 13.99 23.6204 14.36C24.3504 14.58 25.2004 14.99 25.0804 15.62C25.0104 15.74 24.6404 15.98 24.4304 16.11L24.0904 16.32L24.1804 16.71C24.3804 17.59 25.2504 17.98 26.0204 17.98C26.2504 17.98 26.4604 17.95 26.6604 17.88C27.6504 17.57 28.2704 16.6 28.1704 15.52C28.1204 14.99 27.9404 14.46 27.7404 13.94C28.5704 13.46 29.3704 12.91 29.8204 11.93C30.3704 10.72 30.3804 9.31001 29.8204 8.07001C29.2804 6.85001 28.2404 5.91997 26.9904 5.52997C26.7404 5.44997 26.4804 5.40997 26.2004 5.40997C25.0004 5.40997 23.7704 6.21998 23.3504 7.28998C23.1104 7.90998 23.1204 8.58 23.3904 9.12C23.6204 9.59999 24.0304 9.94002 24.5304 10.08C24.7504 10.14 24.9704 10.18 25.1904 10.18C26.0404 10.18 26.7504 9.7 27.0704 8.94C27.2104 9.34 27.2704 10.03 26.9504 10.59C26.6004 11.19 26.0304 11.56 25.3604 11.64C25.2204 11.66 25.0804 11.66 24.9404 11.66C23.4504 11.66 22.1204 10.7 21.4704 9.15002C20.8504 7.66002 21.0104 6.29 21.9504 5.06C22.7604 4 24.0004 3.41998 25.4604 3.41998C27.1704 3.41998 28.9104 4.2 30.1204 5.5C31.5204 7.01 32.2104 8.61001 32.1704 10.26C32.1404 11.57 31.5704 12.89 30.6804 13.72L29.3704 14.94L30.8104 16.56C31.3604 17.18 32.0104 18.17 32.0404 19.42C32.0604 20.17 31.7304 20.69 31.0104 21.07C30.8404 21.16 30.6604 21.2 30.4804 21.2C30.1704 21.2 29.8804 21.08 29.6504 20.94C30.1404 20.86 30.3204 20.74 30.3904 20.69C30.8804 20.35 30.9304 19.48 30.9304 19.47C30.9804 18.6 30.4904 17.93 29.6604 17.71C29.4504 17.66 29.2404 17.63 29.0304 17.63C27.7304 17.63 26.6404 18.66 26.5104 20.02C26.3504 21.6 27.3004 23.14 28.8404 23.88C28.8304 23.93 28.8104 23.99 28.7804 24.05C27.5904 26.4 28.2504 28.65 30.4504 29.79C31.4704 30.32 31.9104 30.82 31.8704 31.42C31.8604 31.57 31.7704 31.77 31.6704 32.01C31.3904 32.65 31.0004 33.53 31.2904 35.08C31.3804 35.55 31.9104 36.06 32.2204 36.32C32.5004 36.55 32.4804 36.64 32.3104 37.1C32.1604 37.51 31.9504 38.07 32.2604 38.71C32.5304 39.28 33.0804 39.67 33.6604 39.71L34.3904 39.76L34.2604 39.04C34.1304 38.32 34.2604 38.18 34.4704 37.94C34.7204 37.66 35.0604 37.28 35.0304 36.43C35.0204 36.01 34.7104 35.59 34.1204 35.18C33.4904 34.74 33.3504 34.02 33.7804 33.39C34.6204 32.15 34.6404 30.86 33.8504 29.78C33.9704 29.65 34.1004 29.52 34.2404 29.39C34.7904 28.87 35.4804 28.22 35.3904 27.01C35.2904 25.66 34.0504 24.44 32.7904 24.44C32.6304 24.44 32.4804 24.46 32.3304 24.5C31.8104 24.63 31.2004 25.33 31.2204 25.95L31.2404 26.38L32.4104 26.67C32.4604 26.79 32.4904 26.95 32.4604 27.13C32.4504 27.21 32.4004 27.42 32.2504 27.51C32.1404 27.58 32.0004 27.62 31.8404 27.62C31.6604 27.62 31.4604 27.57 31.2904 27.47C30.8604 27.23 30.7504 26.76 30.7304 26.42C30.6904 25.46 31.2704 24.34 32.1204 23.76C34.7904 21.93 35.4504 18.99 33.7604 16.43L32.9204 15.15C35.6304 12.27 34.9204 8.24003 33.4404 5.59003L33.3004 5.34998C32.9104 4.66998 32.0004 3.06997 32.4304 2.52997C32.4404 2.52997 32.4904 2.5 32.5804 2.5C32.7604 2.5 32.9204 2.56998 32.9604 2.59998C33.0304 2.67998 33.0204 2.76998 32.8404 3.16998C32.7804 3.29998 32.7304 3.41997 32.6904 3.52997V3.53998Z" fill="black"/>
</svg>
