<svg width="38" height="35" viewBox="0 0 38 35" fill="none" xmlns="http://www.w3.org/2000/svg">
<path d="M28.0207 19.21L26.5407 18.84C26.1907 18.75 25.8307 18.86 25.5407 19.08C24.2007 20.11 22.5207 20.19 20.9507 19.43L20.3607 19.36C19.9207 19.31 19.5507 19.01 19.4107 18.59L19.0407 17.47C18.2807 15.2 18.4707 14.95 19.4707 13.01C19.6407 12.68 19.6607 12.28 19.4707 11.96C18.3007 9.94002 18.6407 7.27004 20.7307 6.10004C22.0207 5.38004 23.2807 5.89004 24.0707 6.92004C24.4107 7.37004 24.7107 7.87003 24.7707 8.34003C24.8407 8.88003 24.4407 9.57004 23.9207 9.79004C23.7607 9.86004 23.2007 9.85002 23.1207 9.71002C22.7207 8.98002 23.1707 8.48004 22.6907 8.42004C22.5007 8.40004 22.1207 8.67 22.0607 8.88C21.8507 9.67 22.3307 10.42 23.0207 10.72C24.4807 11.35 26.0107 9.71002 26.1707 8.33002C26.2507 7.67002 25.5607 7.00002 25.2307 6.40002C25.5407 5.95002 25.9207 5.33002 25.7507 4.77002C25.5907 4.25002 24.9507 3.92003 24.3107 3.84003C23.3807 3.73003 22.6307 4.04001 21.9907 4.57001C21.6007 4.89001 21.0707 4.96001 20.6407 4.70001C19.3107 3.89001 18.9307 3.66003 17.6207 4.41003C17.1707 4.67003 16.5907 4.55999 16.2407 4.17999C15.8907 3.79999 15.5207 3.43003 15.1207 3.16003C14.2007 2.54003 12.8307 2.28999 11.9007 2.92999C11.0607 3.50999 10.8407 4.81005 11.1707 5.74005C11.2507 5.96005 11.6807 6.32001 11.8907 6.39001C12.1307 6.47001 12.6307 6.23001 12.8207 6.01001L12.4107 5.47003C11.7707 4.63003 12.5507 3.37004 13.5707 3.67004H13.5907C14.7907 4.06004 15.6007 5.39003 15.5607 6.59003C15.5207 7.83003 14.8407 9.05005 13.5607 9.55005C11.9807 10.16 9.93068 10.03 8.59068 8.85004C7.77068 8.13004 7.39066 7.03005 7.07066 5.99005C6.94066 5.58005 6.60068 5.27002 6.18068 5.21002C2.64068 4.75002 -0.0493142 2.23005 0.000685751 1.24005C0.0106858 1.00005 0.230682 0.65001 1.34068 0.26001L16.1407 0.0500488C22.8107 0.0300488 29.4907 0.02 36.1607 0C36.7807 0 37.2907 0.500005 37.3007 1.13L37.3707 11.09C37.3707 12.39 37.3307 13.59 37.4207 14.92L37.4407 33.45C37.4407 34.49 36.1406 34.99 35.4606 34.21C34.5006 33.11 33.6207 31.66 33.4107 30.61C33.3307 30.23 33.1007 29.91 32.7307 29.78L31.6207 29.4C30.3307 28.95 29.1307 27.42 28.9207 26.02C28.7107 24.54 30.2707 21.66 32.5607 22.19C33.5107 22.41 34.3007 23.1 34.5407 24.13C34.6207 24.46 34.3207 25.07 34.0407 25.18C33.6107 25.34 33.0807 25.09 32.7307 24.69C32.6107 24.72 32.3206 24.89 32.2106 25.02C32.1006 25.15 32.1607 25.67 32.3007 25.81C32.6607 26.16 33.6807 26.47 34.3207 26.16C34.7807 25.94 35.3407 25.25 35.4307 24.58C35.6207 23.2 35.0307 21.73 33.8907 20.98L33.4207 20.67C33.0407 20.42 35.4807 18.69 33.7207 17.08C33.6007 16.97 33.3507 16.61 33.4007 16.48C33.6707 15.83 35.2407 13.94 33.7507 12.26C33.5007 11.98 32.9407 11.65 32.6507 11.73C32.5006 11.77 32.3507 11.8701 32.2007 11.9901C31.8407 12.2901 31.3506 12.33 30.9606 12.1C30.7606 11.98 30.5606 11.88 30.4007 11.86C29.4007 11.71 28.5407 12.28 28.1307 12.92C27.5907 13.75 27.5107 14.83 28.1007 15.61C28.4507 16.06 29.3207 16.32 29.6407 15.94C29.7207 15.84 29.8407 15.46 29.8507 15.34C29.8907 14.96 28.8007 15.29 28.5107 14.97C28.4007 14.84 28.4007 14.27 28.4807 14.11C28.7307 13.64 29.5507 13.38 30.1107 13.38C31.7007 13.37 32.7607 16.19 31.8807 17.7C31.1207 19 29.3807 19.49 28.0107 19.15L28.0207 19.21Z" fill="black"/>
</svg>
