<svg width="38" height="37" viewBox="0 0 38 37" fill="none" xmlns="http://www.w3.org/2000/svg">
<path d="M35.72 23.6865C34.67 24.3965 33.61 25.2565 32.4 24.6965C31.54 24.2965 30.77 23.0965 30.64 22.1465C33.03 19.1265 32.44 20.5865 34.82 17.2465C36.07 15.4965 36.15 13.7465 36.03 11.6265C35.95 10.1465 36.15 8.66647 35.19 7.32647C34.66 6.58647 34.1 5.47649 33.94 4.65649C34.66 4.32649 35.36 4.06648 35.72 3.77648C36.17 3.41648 36.19 2.14649 35.84 1.71649C35.27 1.01649 34.17 0.886501 33.35 1.1065L32.34 3.20648L29.08 1.83648C23.93 -0.323519 18.37 1.71647 15.31 6.38647C14.34 6.38647 13.23 5.89647 12.6 5.01647C11.67 3.72647 13.33 1.92649 13.37 1.09649L11.34 0.716486C10.62 0.586486 9.74999 0.776442 9.23999 1.29644C8.81999 1.72644 8.44001 2.60649 8.51001 3.40649C8.88001 7.23649 12.46 10.2265 16.34 9.7265C18.93 9.3865 19.76 5.22649 23.02 5.28649L27.01 5.3565C27.43 5.3565 28.08 5.96646 28.26 6.31646C28.44 6.66646 28.46 7.73646 28.08 7.87646C26.46 8.45646 24.83 7.93644 23.17 7.29644C22.72 8.58644 22.43 10.0165 21.86 11.2665C20.76 13.6665 14.9 13.1965 13.38 12.7665C11.11 12.1165 9.37 10.5465 7.84 8.83648C5.74 6.48648 5.03002 3.51647 5.30002 0.326472C3.47002 -0.0635283 1.94002 -0.0435283 0.0500183 0.0764717L0 4.11645L1.82001 4.32647L2.84 7.2265C3.19 8.2265 3.81002 9.2465 4.36002 10.1665C6.39002 13.5365 9.56999 15.7165 13.43 16.5565C15.55 17.0165 17.66 16.9165 19.91 16.9465C19.97 18.3365 19.82 19.7765 19.99 21.1565C20.65 26.4365 23.87 31.3164 28.66 33.7864C29.88 34.4164 31.28 34.5765 32.61 35.0665L32.76 36.7465C34.02 37.0265 35.54 37.0965 37 36.8265L37.05 32.9665C37.08 30.8165 34.07 31.9165 32.08 31.4765C30.31 31.0865 28.97 29.7465 27.7 28.5565C24.53 25.6065 23.38 23.1065 24.08 18.6065C24.28 17.3065 25.01 16.1265 25.55 14.8765L28.7 14.7465C29.01 14.7365 29.62 14.3665 29.71 14.0965C30.01 13.2165 27.82 11.7665 29.52 9.14648C29.71 8.84648 30.7 8.71649 30.99 8.96649C32.32 10.1265 32.85 14.5665 30.1 17.1465L27.5 19.5865C27.3 23.4265 27.32 24.9165 30.52 27.4365C31.84 28.4765 33.9 29.1465 35.37 28.0765C36.65 27.1465 36.59 25.0065 35.69 23.7165L35.72 23.6865Z" fill="black"/>
</svg>
