<svg width="36" height="37" viewBox="0 0 36 37" fill="none" xmlns="http://www.w3.org/2000/svg">
<path d="M18.66 16.46C21.71 16.87 21.6 15.78 24.45 15.62C24.95 17.61 25.14 19.53 26.33 21.01L30.9 26.66L30.97 11.69C30.97 11.19 31.72 10.51 32.12 10.49C32.8 10.45 33.13 11.04 33.13 11.85C31.92 14.5 31.29 16.81 30.94 18.45C30.44 20.81 28.23 31.23 33.41 35.38C34.17 35.99 34.91 36.32 35.39 36.51C35.39 27.52 35.37 18.52 35.37 9.52997C35.37 8.76997 35.07 8.20001 34.28 8.20001L31.2 8.16998L31.11 6.34998L35.4 6.41998V0.0499878L29.2 0.0100098L29.1 2.60999C29.08 3.10999 28.87 3.78999 28.53 4.04999C28.19 4.29999 27.01 4.25996 26.99 3.76996L26.82 0.209961C25.94 0.129961 25.04 0 24.19 0H2.65C1.77 0 0.88 0 0 0C0.67 0.7 1.48 1.39998 2.46 2.03998C6.99 4.99998 12.02 4.52001 14.07 4.20001C17.51 3.49001 20.95 2.78001 24.4 2.07001C24.49 2.23001 24.68 2.62998 24.66 3.16998C24.64 3.54998 24.52 3.92998 24.3 4.22998L14.08 4.19C12.12 4.19 10.31 4.20998 8.25 4.47998C10.56 5.68998 12.06 6.66996 13.63 8.26996C15.45 10.11 18.87 9.47 19.62 10.69C20.14 11.54 18.45 13.93 18.7 16.48L18.66 16.46Z" fill="black"/>
</svg>
