<svg width="204" height="206" viewBox="0 0 204 206" fill="none" xmlns="http://www.w3.org/2000/svg">
<path d="M102.208 15.441L102.319 15.6647L102.559 15.7287C103.006 15.8566 103.501 15.6967 103.9 15.2971C104.348 14.8495 104.523 14.2581 104.348 13.7466C104.156 13.1712 103.485 12.4838 102.91 12.276C101.792 11.8764 100.675 12.1322 99.7964 12.9953C99.5888 13.2031 99.3971 13.4589 99.2215 13.7306C98.5348 14.8655 98.982 15.7287 99.3013 16.2242C97.8641 16.5759 96.5227 17.3271 95.5007 18.3501C94.6384 19.2133 94.0156 20.2363 93.6643 21.3712C93.1852 22.9536 93.3129 24.1685 93.4247 25.2554C93.5365 26.2784 93.6164 27.0776 93.1373 27.8928C93.0415 28.0687 92.9137 28.2125 92.786 28.3564C92.3708 28.772 91.8278 28.9958 91.237 28.9958C90.3746 28.9958 89.6401 28.3404 89.6241 27.5412C89.6241 27.3334 89.7039 27.1256 89.8477 26.9817C89.8477 26.9817 89.8477 26.9817 89.8636 26.9817C89.9754 27.2055 90.1032 27.4133 90.215 27.5732C90.4225 27.8609 90.71 28.0367 91.0613 28.0847C91.5883 28.1486 92.0993 27.9088 92.4027 27.6531C92.4506 27.6211 92.4825 27.5731 92.5305 27.5412C93.0574 27.0137 93.1373 26.2145 92.7381 25.4472C92.3229 24.664 91.4126 24.2963 90.167 24.3763C89.3846 24.4402 88.6819 24.7439 88.139 25.2874C87.3565 26.0706 87.0211 27.2375 87.2607 28.3884C87.2607 28.4683 87.2607 28.5162 87.2287 28.5482C85.8394 28.708 84.8174 29.1396 84.0988 29.8429C83.5718 30.3704 83.2205 31.0578 83.0608 31.889C82.9969 32.2246 82.8692 32.5123 82.6776 32.7042C82.47 32.912 82.2145 32.9919 81.8951 32.9759C81.1445 32.9279 80.5696 33.1038 80.1545 33.5353C79.7872 33.903 79.6115 34.3665 79.4518 34.8141C79.3081 35.2137 79.1644 35.5814 78.861 35.917C78.7811 36.0449 78.7013 36.2527 78.7811 36.5564C78.845 36.7642 79.0207 37.1478 79.3241 37.2917C79.6594 37.4515 80.1385 37.3716 80.4419 37.2278C80.6495 37.1318 80.8411 37.004 81.0008 36.8441C81.416 36.4285 81.5438 35.901 81.6555 35.4695C81.6555 35.4215 81.6875 35.3895 81.7035 35.3736C81.7194 35.3576 81.8791 35.2457 82.454 35.3416C83.1566 35.4695 83.7635 35.1498 84.2904 34.8621C84.3703 34.894 84.4501 34.926 84.53 34.9739C84.8174 35.1018 85.1208 35.2297 85.4242 35.3096C86.2227 35.5014 87.3405 35.1018 88.0432 34.4145C88.5701 33.887 88.7937 33.2316 88.634 32.6082C88.5222 32.1287 87.9952 31.6012 87.3405 31.5533C87.1808 31.5533 86.9573 31.5693 86.7337 31.809C86.558 31.9849 86.4303 32.2406 86.2706 32.5443C86.1908 32.6242 86.0311 32.6722 85.8714 32.6562C85.7117 32.6562 85.568 32.5763 85.5041 32.4804C85.2965 32.1767 85.4402 31.825 85.6638 31.6012C85.7276 31.5373 85.7915 31.4893 85.8714 31.4414C86.8455 30.8659 88.123 30.802 89.3846 31.2656C90.7898 31.7771 92.0833 31.7771 93.2012 31.2656C93.6483 31.0578 94.0635 30.77 94.4148 30.4184C94.9098 29.9229 95.3091 29.2675 95.6125 28.4843C95.6923 28.5322 95.7722 28.5962 95.836 28.6601C96.5547 29.2036 97.7364 30.0987 99.3812 30.2266C100.946 30.3544 102.367 29.7151 103.437 29.1396C104.092 28.788 104.954 28.4843 105.306 28.9958C105.338 29.1236 105.242 29.5392 105.194 29.779L105.114 30.1626L105.449 30.3704C106.184 30.834 107.046 30.5143 107.589 29.9868C107.749 29.827 107.877 29.6671 107.957 29.4753C108.42 28.5802 108.18 27.4932 107.382 26.8219C106.982 26.4862 106.503 26.2624 106.008 26.0386C106.248 25.1435 106.424 24.2164 106.056 23.2414C105.609 22.0265 104.635 21.0675 103.421 20.5879C102.208 20.1244 100.866 20.1883 99.7325 20.7798C99.5089 20.8917 99.3013 21.0515 99.1097 21.2433C98.2793 22.0745 97.9919 23.4651 98.439 24.4882C98.6945 25.0796 99.1576 25.5271 99.7165 25.719C100.196 25.8788 100.707 25.8468 101.154 25.5911C101.345 25.4792 101.521 25.3513 101.665 25.2075C102.256 24.616 102.399 23.8008 102.096 23.0655C102.463 23.2414 102.974 23.6729 103.134 24.2804C103.31 24.9357 103.182 25.5751 102.767 26.0866C102.687 26.1985 102.591 26.2944 102.495 26.3903C101.473 27.4133 99.9082 27.6691 98.4071 27.0457C96.9699 26.4542 96.1395 25.3993 95.9319 23.9127C95.7562 22.634 96.2193 21.3712 97.2094 20.3802C98.3751 19.2133 100.1 18.5419 101.824 18.6219C103.821 18.7018 105.386 19.3252 106.487 20.4761C107.366 21.3872 107.877 22.6979 107.829 23.8807L107.765 25.6071L109.857 25.7349C110.655 25.7829 111.789 26.0227 112.667 26.8538C113.194 27.3654 113.322 27.9408 113.083 28.6921C113.035 28.8679 112.939 29.0117 112.811 29.1396C112.604 29.3474 112.316 29.4753 112.061 29.5233C112.348 29.1236 112.38 28.9158 112.396 28.8519C112.508 28.2924 111.933 27.6531 111.933 27.6371C111.374 27.0137 110.575 26.8858 109.857 27.3014C109.681 27.3973 109.522 27.5252 109.378 27.6691C108.484 28.5642 108.452 30.0028 109.282 31.0418C110.256 32.2246 111.965 32.6402 113.514 32.0967C113.546 32.1447 113.562 32.1927 113.594 32.2566C114.392 34.6862 116.388 35.7732 118.672 35.0539C119.742 34.7182 120.38 34.7661 120.764 35.1977C120.86 35.3096 120.939 35.5014 121.035 35.7412C121.275 36.3806 121.626 37.2437 122.888 38.1069C123.271 38.3786 123.989 38.3626 124.373 38.3147C124.724 38.2827 124.772 38.3626 124.964 38.7942C125.139 39.1779 125.379 39.7053 126.034 39.9291C126.608 40.1369 127.247 40.025 127.678 39.6574L128.221 39.1938L127.63 38.7942C127.056 38.3946 127.04 38.2028 127.024 37.8831C127.008 37.5155 126.976 37.02 126.369 36.4605C126.065 36.1888 125.57 36.1088 124.884 36.2207C124.149 36.3486 123.558 35.949 123.431 35.2297C123.159 33.8071 122.281 32.896 121.003 32.7042C121.003 32.5283 121.003 32.3525 121.003 32.1767C121.019 31.4414 121.051 30.5303 120.157 29.763C119.167 28.9158 117.474 28.9158 116.612 29.779C116.5 29.8909 116.404 30.0028 116.34 30.1307C116.085 30.5782 116.133 31.4734 116.58 31.889L116.883 32.1767L117.889 31.5693C118.001 31.6172 118.129 31.7131 118.241 31.841C118.289 31.9049 118.4 32.0808 118.368 32.2406C118.336 32.3685 118.273 32.4964 118.161 32.5923C118.033 32.7201 117.873 32.816 117.682 32.864C117.219 32.9919 116.819 32.7521 116.58 32.5283C115.893 31.9049 115.526 30.7381 115.702 29.763C116.276 26.678 114.711 24.2164 111.805 23.609L110.352 23.3053C110.24 19.469 106.982 17.1992 104.156 16.384L103.9 16.3041C103.166 16.0963 101.457 15.6328 101.361 14.9614C101.361 14.9614 101.377 14.8975 101.441 14.8336C101.569 14.7057 101.729 14.6417 101.761 14.6417C101.856 14.6417 101.92 14.7217 102.064 15.1213C102.112 15.2491 102.16 15.377 102.208 15.4729V15.441Z" fill="black"/>
<path d="M188.346 101.869L188.043 101.725L187.947 101.405C187.771 100.782 187.995 100.079 188.554 99.5351C189.177 98.9117 190.007 98.6719 190.71 98.9117C191.508 99.1834 192.482 100.127 192.77 100.926C193.329 102.476 192.961 104.059 191.764 105.274C191.46 105.577 191.125 105.833 190.742 106.073C189.145 107.032 187.947 106.408 187.26 105.945C186.765 107.959 185.711 109.829 184.29 111.268C183.076 112.482 181.655 113.346 180.074 113.825C177.871 114.497 176.162 114.321 174.645 114.177C173.224 114.033 172.106 113.921 170.956 114.592C170.716 114.736 170.493 114.896 170.301 115.088C169.726 115.663 169.423 116.431 169.407 117.246C169.407 118.445 170.333 119.484 171.435 119.5C171.722 119.5 172.01 119.388 172.202 119.196C172.202 119.196 172.202 119.196 172.218 119.18C171.898 119.02 171.611 118.844 171.387 118.684C170.988 118.397 170.732 117.981 170.669 117.502C170.573 116.766 170.908 116.047 171.259 115.615C171.307 115.552 171.355 115.504 171.419 115.44C172.154 114.704 173.271 114.592 174.341 115.152C175.427 115.727 175.954 116.99 175.827 118.732C175.747 119.835 175.3 120.826 174.549 121.578C173.447 122.681 171.834 123.128 170.221 122.792C170.126 122.776 170.03 122.792 169.998 122.824C169.774 124.775 169.183 126.213 168.177 127.204C167.443 127.939 166.469 128.435 165.319 128.659C164.84 128.755 164.441 128.93 164.185 129.202C163.898 129.49 163.77 129.842 163.802 130.305C163.866 131.36 163.626 132.159 163.035 132.751C162.524 133.262 161.886 133.502 161.263 133.742C160.704 133.95 160.193 134.157 159.73 134.573C159.554 134.685 159.267 134.813 158.835 134.685C158.548 134.605 158.005 134.349 157.813 133.918C157.606 133.438 157.718 132.767 157.909 132.351C158.053 132.047 158.229 131.792 158.452 131.568C159.043 130.976 159.778 130.801 160.384 130.657C160.448 130.657 160.496 130.625 160.512 130.593C160.544 130.561 160.704 130.353 160.544 129.538C160.368 128.563 160.816 127.716 161.215 126.964C161.167 126.853 161.119 126.741 161.071 126.629C160.895 126.229 160.704 125.814 160.608 125.382C160.353 124.279 160.879 122.697 161.87 121.722C162.62 120.97 163.514 120.683 164.409 120.906C165.063 121.066 165.83 121.801 165.894 122.713C165.894 122.936 165.862 123.256 165.542 123.56C165.287 123.815 164.936 123.991 164.504 124.199C164.393 124.311 164.329 124.535 164.361 124.759C164.377 124.982 164.473 125.19 164.616 125.27C165.031 125.558 165.526 125.366 165.846 125.046C165.926 124.966 166.006 124.87 166.069 124.759C166.868 123.384 166.948 121.61 166.309 119.851C165.59 117.885 165.59 116.079 166.309 114.513C166.596 113.889 166.996 113.314 167.491 112.818C168.177 112.131 169.088 111.555 170.189 111.14C170.11 111.028 170.03 110.916 169.95 110.82C169.199 109.829 167.938 108.151 167.762 105.865C167.586 103.691 168.481 101.677 169.279 100.174C169.774 99.2634 170.189 98.0645 169.471 97.569C169.295 97.5211 168.704 97.6489 168.385 97.7289L167.858 97.8407L167.571 97.3772C166.916 96.3382 167.379 95.1394 168.113 94.3881C168.337 94.1643 168.561 94.0045 168.816 93.8606C170.062 93.2053 171.579 93.5409 172.521 94.6758C172.984 95.2353 173.319 95.9066 173.623 96.594C174.884 96.2583 176.178 96.0185 177.535 96.53C179.228 97.1694 180.585 98.5121 181.24 100.222C181.895 101.917 181.783 103.787 180.969 105.369C180.809 105.689 180.585 105.977 180.33 106.233C179.18 107.383 177.232 107.783 175.811 107.16C174.98 106.792 174.357 106.137 174.102 105.369C173.878 104.682 173.926 103.979 174.278 103.355C174.421 103.084 174.613 102.844 174.82 102.636C175.635 101.821 176.785 101.597 177.807 102.029C177.551 101.501 176.96 100.782 176.114 100.558C175.204 100.318 174.309 100.494 173.575 101.086C173.431 101.213 173.287 101.325 173.16 101.469C171.722 102.908 171.371 105.098 172.249 107.192C173.08 109.206 174.549 110.373 176.625 110.644C178.413 110.884 180.17 110.245 181.559 108.854C183.188 107.224 184.114 104.794 184.019 102.38C183.907 99.5831 183.045 97.3932 181.432 95.8587C180.154 94.6439 178.334 93.9086 176.689 93.9725L174.262 94.0684L174.086 91.1433C174.022 90.0244 173.703 88.4419 172.537 87.2271C171.834 86.4918 171.02 86.3 169.966 86.6357C169.726 86.7156 169.503 86.8435 169.327 87.0193C169.04 87.307 168.864 87.7066 168.784 88.0583C169.327 87.6587 169.631 87.6107 169.726 87.5947C170.525 87.4509 171.403 88.2341 171.419 88.2501C172.297 89.0333 172.473 90.1522 171.898 91.1593C171.754 91.415 171.579 91.6388 171.371 91.8466C170.126 93.0934 168.097 93.1413 166.66 91.9745C164.999 90.6158 164.425 88.2341 165.191 86.0442C165.127 86.0123 165.047 85.9643 164.984 85.9483C161.598 84.8454 160.065 82.0481 161.071 78.8352C161.55 77.3487 161.486 76.4376 160.864 75.9261C160.704 75.7822 160.432 75.6863 160.097 75.5584C159.219 75.2068 158.005 74.7432 156.791 72.969C156.424 72.4255 156.44 71.4345 156.488 70.891C156.536 70.3955 156.424 70.3475 155.833 70.0598C155.306 69.82 154.572 69.4684 154.236 68.5573C153.949 67.758 154.093 66.8629 154.62 66.2555L155.274 65.5042L155.833 66.3194C156.392 67.1346 156.664 67.1506 157.095 67.1666C157.606 67.1986 158.292 67.2305 159.075 68.0777C159.458 68.4933 159.57 69.1806 159.394 70.1397C159.203 71.1627 159.778 71.9779 160.784 72.1857C162.78 72.5693 164.025 73.8001 164.313 75.5744C164.552 75.5744 164.808 75.5744 165.063 75.5744C166.085 75.5425 167.379 75.5105 168.449 76.7573C169.631 78.1479 169.631 80.5136 168.433 81.7124C168.289 81.8563 168.113 82.0002 167.938 82.0961C167.315 82.4637 166.053 82.3838 165.495 81.7604L165.095 81.3288L165.942 79.9382C165.878 79.7783 165.75 79.5865 165.558 79.4427C165.463 79.3787 165.223 79.2189 165 79.2668C164.824 79.3148 164.648 79.4107 164.504 79.5546C164.329 79.7304 164.201 79.9701 164.121 80.2259C163.946 80.8813 164.281 81.4247 164.6 81.7764C165.479 82.7355 167.107 83.247 168.465 82.9912C172.76 82.192 176.226 84.3818 177.056 88.4579L177.471 90.4879C182.821 90.6478 185.999 95.1873 187.133 99.1515L187.228 99.5191C187.516 100.542 188.171 102.94 189.097 103.068C189.113 103.068 189.177 103.036 189.272 102.94C189.448 102.764 189.544 102.556 189.544 102.492C189.544 102.348 189.448 102.268 188.889 102.061C188.714 101.997 188.538 101.933 188.394 101.853L188.346 101.869Z" fill="black"/>
<path d="M12.3832 101.869L12.6866 101.725L12.7824 101.405C12.9581 100.782 12.7345 100.079 12.1756 99.5351C11.5528 98.9117 10.7224 98.6719 10.0198 98.9117C9.22131 99.1834 8.2472 100.127 7.95975 100.926C7.40084 102.476 7.76813 104.059 8.9658 105.274C9.26922 105.577 9.60457 105.833 9.98782 106.073C11.5847 107.032 12.7824 106.408 13.4691 105.945C13.9641 107.959 15.0181 109.829 16.4393 111.268C17.653 112.482 19.0742 113.346 20.6551 113.825C22.8589 114.497 24.5676 114.321 26.0846 114.177C27.5059 114.033 28.6237 113.921 29.7735 114.592C30.013 114.736 30.2366 114.896 30.4282 115.088C31.0031 115.663 31.3065 116.431 31.3225 117.246C31.3225 118.445 30.3963 119.484 29.2944 119.5C29.0069 119.5 28.7195 119.388 28.5279 119.196C28.5279 119.196 28.5279 119.196 28.5119 119.18C28.8313 119.02 29.1187 118.844 29.3423 118.684C29.7415 118.397 29.997 117.981 30.0609 117.502C30.1567 116.766 29.8214 116.047 29.47 115.615C29.4221 115.552 29.3742 115.504 29.3104 115.44C28.5758 114.704 27.4579 114.592 26.388 115.152C25.3021 115.727 24.7752 116.99 24.9029 118.732C24.9827 119.835 25.4299 120.826 26.1804 121.578C27.2823 122.681 28.8952 123.128 30.508 122.792C30.6038 122.776 30.6997 122.792 30.7316 122.824C30.9552 124.775 31.546 126.213 32.5521 127.204C33.2866 127.939 34.2608 128.435 35.4105 128.659C35.8896 128.755 36.2888 128.93 36.5443 129.202C36.8318 129.49 36.9595 129.842 36.9276 130.305C36.8637 131.36 37.1032 132.159 37.6941 132.751C38.2051 133.262 38.8439 133.502 39.4667 133.742C40.0256 133.95 40.5366 134.157 40.9997 134.573C41.1754 134.685 41.4628 134.813 41.894 134.685C42.1814 134.605 42.7243 134.349 42.916 133.918C43.1236 133.438 43.0118 132.767 42.8202 132.351C42.6764 132.047 42.5008 131.792 42.2772 131.568C41.6864 130.976 40.9518 130.801 40.345 130.657C40.2811 130.657 40.2332 130.625 40.2172 130.593C40.1853 130.561 40.0256 130.353 40.1853 129.538C40.3609 128.563 39.9138 127.716 39.5146 126.964C39.5625 126.853 39.6104 126.741 39.6583 126.629C39.834 126.229 40.0256 125.814 40.1214 125.382C40.3769 124.279 39.8499 122.697 38.8598 121.722C38.1093 120.97 37.215 120.683 36.3208 120.906C35.666 121.066 34.8995 121.801 34.8356 122.713C34.8356 122.936 34.8676 123.256 35.187 123.56C35.4425 123.815 35.7938 123.991 36.225 124.199C36.3367 124.311 36.4006 124.535 36.3687 124.759C36.3527 124.982 36.2569 125.19 36.1132 125.27C35.698 125.558 35.2029 125.366 34.8836 125.046C34.8037 124.966 34.7239 124.87 34.66 124.759C33.8615 123.384 33.7817 121.61 34.4204 119.851C35.1391 117.885 35.1391 116.079 34.4204 114.513C34.133 113.889 33.7338 113.314 33.2387 112.818C32.5521 112.131 31.6418 111.555 30.54 111.14C30.6198 111.028 30.6997 110.916 30.7795 110.82C31.5301 109.829 32.7916 108.151 32.9673 105.865C33.1429 103.691 32.2487 101.677 31.4502 100.174C30.9552 99.2634 30.54 98.0645 31.2586 97.569C31.4342 97.5211 32.0251 97.6489 32.3445 97.7289L32.8715 97.8407L33.1589 97.3772C33.8136 96.3382 33.3505 95.1394 32.6159 94.3881C32.3924 94.1643 32.1688 94.0045 31.9133 93.8606C30.6677 93.2053 29.1507 93.5409 28.2085 94.6758C27.7454 95.2353 27.41 95.9066 27.1066 96.594C25.8451 96.2583 24.5516 96.0185 23.1942 96.53C21.5015 97.1694 20.1441 98.5121 19.4894 100.222C18.8347 101.917 18.9465 103.787 19.7609 105.369C19.9206 105.689 20.1441 105.977 20.3996 106.233C21.5494 107.383 23.4976 107.783 24.9189 107.16C25.7493 106.792 26.3721 106.137 26.6276 105.369C26.8511 104.682 26.8032 103.979 26.4519 103.355C26.3082 103.084 26.1165 102.844 25.909 102.636C25.0945 101.821 23.9448 101.597 22.9227 102.029C23.1782 101.501 23.7691 100.782 24.6155 100.558C25.5257 100.318 26.42 100.494 27.1545 101.086C27.2983 101.213 27.442 101.325 27.5697 101.469C29.0069 102.908 29.3583 105.098 28.48 107.192C27.6496 109.206 26.1804 110.373 24.1045 110.644C22.3159 110.884 20.5593 110.245 19.17 108.854C17.5412 107.224 16.615 104.794 16.7108 102.38C16.8226 99.5831 17.6849 97.3932 19.2978 95.8587C20.5753 94.6439 22.3958 93.9086 24.0406 93.9725L26.4679 94.0684L26.6435 91.1433C26.7074 90.0244 27.0268 88.4419 28.1925 87.2271C28.8952 86.4918 29.7096 86.3 30.7635 86.6357C31.0031 86.7156 31.2266 86.8435 31.4023 87.0193C31.6897 87.307 31.8654 87.7066 31.9452 88.0583C31.4023 87.6587 31.0989 87.6107 31.0031 87.5947C30.2046 87.4509 29.3263 88.2341 29.3104 88.2501C28.4321 89.0333 28.2564 90.1522 28.8313 91.1593C28.975 91.415 29.1507 91.6388 29.3583 91.8466C30.6038 93.0934 32.6319 93.1413 34.0691 91.9745C35.7299 90.6158 36.3048 88.2341 35.5383 86.0442C35.6022 86.0123 35.682 85.9643 35.7459 85.9483C39.1313 84.8454 40.6643 82.0481 39.6583 78.8352C39.1792 77.3487 39.2431 76.4376 39.8659 75.9261C40.0256 75.7822 40.2971 75.6863 40.6324 75.5584C41.5107 75.2068 42.7243 74.7432 43.938 72.969C44.3053 72.4255 44.2893 71.4345 44.2414 70.891C44.1935 70.3955 44.3053 70.3475 44.8961 70.0598C45.4231 69.82 46.1577 69.4684 46.493 68.5573C46.7805 67.758 46.6368 66.8629 46.1098 66.2555L45.4551 65.5042L44.8961 66.3194C44.3372 67.1346 44.0657 67.1506 43.6346 67.1666C43.1236 67.1986 42.4369 67.2305 41.6544 68.0777C41.2712 68.4933 41.1594 69.1806 41.335 70.1397C41.5267 71.1627 40.9518 71.9779 39.9457 72.1857C37.9496 72.5693 36.704 73.8001 36.4166 75.5744C36.177 75.5744 35.9215 75.5744 35.666 75.5744C34.644 75.5425 33.3505 75.5105 32.2806 76.7573C31.0989 78.1479 31.0989 80.5136 32.2966 81.7124C32.4403 81.8563 32.6159 82.0002 32.7916 82.0961C33.4144 82.4637 34.676 82.3838 35.2349 81.7604L35.6341 81.3288L34.7877 79.9382C34.8516 79.7783 34.9794 79.5865 35.171 79.4427C35.2668 79.3787 35.5063 79.2189 35.7299 79.2668C35.9056 79.3148 36.0812 79.4107 36.225 79.5546C36.4006 79.7304 36.5284 79.9701 36.6082 80.2259C36.7839 80.8813 36.4485 81.4247 36.1291 81.7764C35.2508 82.7355 33.622 83.247 32.2646 82.9912C27.969 82.192 24.5037 84.3818 23.6733 88.4579L23.2581 90.4879C17.9085 90.6478 14.7306 95.1873 13.5968 99.1515L13.501 99.5191C13.2136 100.542 12.5588 102.94 11.6326 103.068C11.6167 103.068 11.5528 103.036 11.457 102.94C11.2813 102.764 11.1855 102.556 11.1855 102.492C11.1855 102.348 11.2813 102.268 11.8402 102.061C12.0159 101.997 12.1915 101.933 12.3353 101.853L12.3832 101.869Z" fill="black"/>
<path d="M102.208 192.053L102.319 191.829L102.559 191.765C103.006 191.637 103.501 191.797 103.9 192.197C104.348 192.644 104.523 193.236 104.348 193.747C104.156 194.323 103.485 195.01 102.91 195.218C101.792 195.618 100.675 195.362 99.7964 194.499C99.5888 194.291 99.3971 194.035 99.2215 193.763C98.5348 192.628 98.982 191.765 99.3013 191.27C97.8641 190.918 96.5227 190.167 95.5007 189.144C94.6384 188.281 94.0156 187.258 93.6643 186.123C93.1852 184.54 93.3129 183.326 93.4247 182.239C93.5365 181.216 93.6164 180.416 93.1373 179.601C93.0415 179.425 92.9137 179.281 92.786 179.138C92.3708 178.722 91.8278 178.498 91.237 178.498C90.3746 178.498 89.6401 179.154 89.6241 179.953C89.6241 180.161 89.7039 180.368 89.8477 180.512C89.8477 180.512 89.8477 180.512 89.8636 180.512C89.9754 180.288 90.1032 180.081 90.215 179.921C90.4225 179.633 90.71 179.457 91.0613 179.409C91.5883 179.345 92.0993 179.585 92.4027 179.841C92.4506 179.873 92.4825 179.921 92.5305 179.953C93.0574 180.48 93.1373 181.28 92.7381 182.047C92.3229 182.83 91.4126 183.198 90.167 183.118C89.3846 183.054 88.6819 182.75 88.139 182.207C87.3565 181.423 87.0211 180.257 87.2607 179.106C87.2607 179.026 87.2607 178.978 87.2287 178.946C85.8394 178.786 84.8174 178.354 84.0988 177.651C83.5718 177.124 83.2205 176.436 83.0608 175.605C82.9969 175.269 82.8692 174.982 82.6776 174.79C82.47 174.582 82.2145 174.502 81.8951 174.518C81.1445 174.566 80.5696 174.39 80.1545 173.959C79.7872 173.591 79.6115 173.127 79.4518 172.68C79.3081 172.28 79.1644 171.913 78.861 171.577C78.7811 171.449 78.7013 171.241 78.7811 170.938C78.845 170.73 79.0207 170.346 79.3241 170.202C79.6594 170.042 80.1385 170.122 80.4419 170.266C80.6495 170.362 80.8411 170.49 81.0008 170.65C81.416 171.065 81.5438 171.593 81.6555 172.025C81.6555 172.072 81.6875 172.104 81.7035 172.12C81.7194 172.136 81.8791 172.248 82.454 172.152C83.1566 172.025 83.7635 172.344 84.2904 172.632C84.3703 172.6 84.4501 172.568 84.53 172.52C84.8174 172.392 85.1208 172.264 85.4242 172.184C86.2227 171.993 87.3405 172.392 88.0432 173.079C88.5701 173.607 88.7937 174.262 88.634 174.886C88.5222 175.365 87.9952 175.893 87.3405 175.941C87.1808 175.941 86.9573 175.925 86.7337 175.685C86.558 175.509 86.4303 175.253 86.2706 174.95C86.1908 174.87 86.0311 174.822 85.8714 174.838C85.7117 174.838 85.568 174.918 85.5041 175.014C85.2965 175.317 85.4402 175.669 85.6638 175.893C85.7276 175.957 85.7915 176.005 85.8714 176.053C86.8455 176.628 88.123 176.692 89.3846 176.228C90.7898 175.717 92.0833 175.717 93.2012 176.228C93.6483 176.436 94.0635 176.724 94.4148 177.076C94.9098 177.571 95.3091 178.226 95.6125 179.01C95.6923 178.962 95.7722 178.898 95.836 178.834C96.5547 178.29 97.7364 177.395 99.3812 177.267C100.946 177.14 102.367 177.779 103.437 178.354C104.092 178.706 104.954 179.01 105.306 178.498C105.338 178.37 105.242 177.955 105.194 177.715L105.114 177.331L105.449 177.124C106.184 176.66 107.046 176.98 107.589 177.507C107.749 177.667 107.877 177.827 107.957 178.019C108.42 178.914 108.18 180.001 107.382 180.672C106.982 181.008 106.503 181.232 106.008 181.455C106.248 182.35 106.424 183.278 106.056 184.253C105.609 185.467 104.635 186.427 103.421 186.906C102.208 187.37 100.866 187.306 99.7325 186.714C99.5089 186.602 99.3013 186.442 99.1097 186.251C98.2793 185.419 97.9919 184.029 98.439 183.006C98.6945 182.414 99.1576 181.967 99.7165 181.775C100.196 181.615 100.707 181.647 101.154 181.903C101.345 182.015 101.521 182.143 101.665 182.287C102.256 182.878 102.399 183.693 102.096 184.428C102.463 184.253 102.974 183.821 103.134 183.214C103.31 182.558 103.182 181.919 102.767 181.407C102.687 181.295 102.591 181.2 102.495 181.104C101.473 180.081 99.9082 179.825 98.4071 180.448C96.9699 181.04 96.1395 182.095 95.9319 183.581C95.7562 184.86 96.2193 186.123 97.2094 187.114C98.3751 188.281 100.1 188.952 101.824 188.872C103.821 188.792 105.386 188.169 106.487 187.018C107.366 186.107 107.877 184.796 107.829 183.613L107.765 181.887L109.857 181.759C110.655 181.711 111.789 181.471 112.667 180.64C113.194 180.129 113.322 179.553 113.083 178.802C113.035 178.626 112.939 178.482 112.811 178.354C112.604 178.147 112.316 178.019 112.061 177.971C112.348 178.37 112.38 178.578 112.396 178.642C112.508 179.202 111.933 179.841 111.933 179.857C111.374 180.48 110.575 180.608 109.857 180.193C109.681 180.097 109.522 179.969 109.378 179.825C108.484 178.93 108.452 177.491 109.282 176.452C110.256 175.269 111.965 174.854 113.514 175.397C113.546 175.349 113.562 175.301 113.594 175.237C114.392 172.808 116.388 171.721 118.672 172.44C119.742 172.776 120.38 172.728 120.764 172.296C120.86 172.184 120.939 171.993 121.035 171.753C121.275 171.113 121.626 170.25 122.888 169.387C123.271 169.115 123.989 169.131 124.373 169.179C124.724 169.211 124.772 169.131 124.964 168.7C125.139 168.316 125.379 167.789 126.034 167.565C126.608 167.357 127.247 167.469 127.678 167.837L128.221 168.3L127.63 168.7C127.056 169.099 127.04 169.291 127.024 169.611C127.008 169.979 126.976 170.474 126.369 171.033C126.065 171.305 125.57 171.385 124.884 171.273C124.149 171.145 123.558 171.545 123.431 172.264C123.159 173.687 122.281 174.598 121.003 174.79C121.003 174.966 121.003 175.141 121.003 175.317C121.019 176.053 121.051 176.964 120.157 177.731C119.167 178.578 117.474 178.578 116.612 177.715C116.5 177.603 116.404 177.491 116.34 177.363C116.085 176.916 116.133 176.021 116.58 175.605L116.883 175.317L117.889 175.925C118.001 175.877 118.129 175.781 118.241 175.653C118.289 175.589 118.4 175.413 118.368 175.253C118.336 175.126 118.273 174.998 118.161 174.902C118.033 174.774 117.873 174.678 117.682 174.63C117.219 174.502 116.819 174.742 116.58 174.966C115.893 175.589 115.526 176.756 115.702 177.731C116.276 180.816 114.711 183.278 111.805 183.885L110.352 184.189C110.24 188.025 106.982 190.295 104.156 191.11L103.9 191.19C103.166 191.398 101.457 191.861 101.361 192.533C101.361 192.533 101.377 192.596 101.441 192.66C101.569 192.788 101.729 192.852 101.761 192.852C101.856 192.852 101.92 192.772 102.064 192.373C102.112 192.245 102.16 192.117 102.208 192.021V192.053Z" fill="black"/>
<path d="M145.645 7.25693L145.565 7.51268L145.693 7.73646C145.932 8.16804 146.443 8.43978 147.05 8.43978C147.737 8.43978 148.312 8.12009 148.583 7.5926C148.871 7.00118 148.887 5.96219 148.615 5.35478C148.072 4.18792 147.002 3.51657 145.677 3.51657C145.342 3.51657 145.006 3.56452 144.671 3.64445C143.266 3.9961 142.946 5.00312 142.819 5.62652C141.445 4.79533 139.832 4.33178 138.267 4.33178C136.942 4.33178 135.68 4.63548 134.547 5.24289C132.966 6.07408 132.119 7.11307 131.369 8.04017C130.666 8.90333 130.123 9.57467 129.117 9.84641C128.91 9.89436 128.702 9.92633 128.494 9.92633C127.872 9.92633 127.281 9.67058 126.818 9.22302C126.147 8.56765 126.099 7.48071 126.69 6.8733C126.849 6.71346 127.073 6.61755 127.281 6.61755C127.281 6.61755 127.297 6.61755 127.313 6.61755C127.233 6.88929 127.169 7.12905 127.121 7.35284C127.057 7.73646 127.153 8.08812 127.376 8.39182C127.728 8.83939 128.303 9.04719 128.734 9.09514C128.798 9.09514 128.862 9.09514 128.909 9.09514C129.724 9.09514 130.395 8.53569 130.666 7.64056C130.954 6.72944 130.538 5.73841 129.516 4.85926C128.862 4.29981 128.079 3.9961 127.249 3.9961C126.051 3.9961 124.901 4.63548 124.199 5.70644C124.151 5.77038 124.087 5.80235 124.055 5.80235C122.857 4.85926 121.755 4.39572 120.654 4.39572C119.839 4.39572 119.041 4.65147 118.29 5.17895C117.971 5.38675 117.651 5.49864 117.364 5.49864C117.045 5.49864 116.789 5.37077 116.549 5.09903C116.007 4.47564 115.432 4.18792 114.793 4.18792C114.234 4.18792 113.739 4.4117 113.276 4.6195C112.861 4.81131 112.461 4.98714 111.982 5.00312C111.823 5.03509 111.599 5.131 111.423 5.4347C111.312 5.6425 111.152 6.07408 111.28 6.42574C111.423 6.80937 111.855 7.11307 112.19 7.24095C112.429 7.32087 112.669 7.36882 112.909 7.36882C113.547 7.36882 114.058 7.06512 114.458 6.80937C114.505 6.7774 114.537 6.76141 114.569 6.76141C114.601 6.76141 114.809 6.79338 115.16 7.32087C115.607 7.96024 116.31 8.16804 116.949 8.35986C116.981 8.43978 117.013 8.53569 117.06 8.63159C117.188 8.95128 117.316 9.28695 117.492 9.57467C117.955 10.3259 119.12 10.9014 120.19 10.9014C121.005 10.9014 121.66 10.5657 122.027 9.9583C122.298 9.51074 122.314 8.67954 121.851 8.15206C121.739 8.02418 121.532 7.88032 121.196 7.88032C120.925 7.88032 120.622 7.97623 120.27 8.08812C120.142 8.08812 119.999 7.99221 119.871 7.86434C119.759 7.73646 119.695 7.56063 119.727 7.44874C119.791 7.06512 120.174 6.88929 120.526 6.88929C120.622 6.88929 120.717 6.88929 120.813 6.92126C121.995 7.24095 123.033 8.16804 123.64 9.47877C124.326 10.9653 125.316 11.9564 126.562 12.4199C127.073 12.6117 127.6 12.7076 128.143 12.7076C128.909 12.7076 129.708 12.5158 130.538 12.1482C130.554 12.2441 130.57 12.356 130.586 12.4519C130.714 13.4109 130.954 15.0254 132.103 16.384C133.205 17.6788 134.802 18.2862 136.064 18.6698C136.83 18.9096 137.724 19.3252 137.597 19.9965C137.533 20.1244 137.134 20.3802 136.91 20.508L136.559 20.7318L136.654 21.1474C136.862 22.0745 137.772 22.4901 138.587 22.4901C138.826 22.4901 139.05 22.4581 139.257 22.3942C140.295 22.0585 140.95 21.0355 140.854 19.9006C140.806 19.3412 140.615 18.7817 140.407 18.2382C141.286 17.7267 142.116 17.1513 142.595 16.1283C143.186 14.8495 143.186 13.363 142.595 12.0682C142.02 10.7735 140.934 9.79846 139.609 9.38286C139.353 9.30294 139.066 9.25498 138.778 9.25498C137.517 9.25498 136.223 10.1022 135.776 11.2371C135.521 11.8924 135.537 12.5957 135.824 13.1712C136.064 13.6667 136.495 14.0343 137.022 14.1782C137.245 14.2421 137.485 14.2741 137.724 14.2741C138.619 14.2741 139.369 13.7626 139.705 12.9634C139.848 13.395 139.912 14.1143 139.577 14.7057C139.21 15.3451 138.619 15.7287 137.9 15.8086C137.756 15.8246 137.613 15.8406 137.469 15.8406C135.904 15.8406 134.499 14.8336 133.828 13.2031C133.173 11.6367 133.349 10.1821 134.339 8.90333C135.185 7.78442 136.495 7.17701 138.028 7.17701C139.816 7.17701 141.653 7.99221 142.93 9.36688C144.399 10.9493 145.134 12.6437 145.086 14.37C145.054 15.7447 144.447 17.1513 143.521 18.0145L142.148 19.2932L143.665 21.0035C144.24 21.6589 144.926 22.6979 144.958 24.0086C144.974 24.7919 144.623 25.3513 143.872 25.7349C143.697 25.8308 143.505 25.8788 143.314 25.8788C142.994 25.8788 142.691 25.7509 142.435 25.6071C142.946 25.5271 143.138 25.3993 143.218 25.3513C143.729 24.9997 143.793 24.0726 143.793 24.0566C143.841 23.1455 143.33 22.4262 142.467 22.2024C142.244 22.1384 142.036 22.1225 141.812 22.1225C140.439 22.1225 139.305 23.2094 139.162 24.648C139.002 26.3104 139.992 27.9248 141.605 28.708C141.605 28.772 141.573 28.8199 141.541 28.8839C140.295 31.3615 140.982 33.7272 143.298 34.942C144.383 35.5014 144.831 36.0289 144.783 36.6523C144.783 36.8122 144.687 37.02 144.575 37.2757C144.272 37.9471 143.872 38.8741 144.176 40.5046C144.272 41.0001 144.831 41.5435 145.15 41.8153C145.437 42.055 145.421 42.151 145.246 42.6305C145.086 43.0621 144.879 43.6535 145.198 44.3248C145.485 44.9163 146.06 45.3319 146.667 45.3798L147.434 45.4278L147.29 44.6605C147.146 43.9092 147.29 43.7494 147.513 43.4936C147.769 43.2059 148.136 42.8063 148.104 41.9112C148.104 41.4636 147.769 41.032 147.146 40.6005C146.475 40.1369 146.348 39.3857 146.795 38.7143C147.673 37.4036 147.705 36.0449 146.875 34.91C147.002 34.7661 147.146 34.6383 147.29 34.5104C147.865 33.9669 148.599 33.2796 148.504 32.0008C148.392 30.5782 147.082 29.2835 145.773 29.2835C145.613 29.2835 145.437 29.2995 145.294 29.3474C144.751 29.4913 144.112 30.2266 144.128 30.8819V31.3295L145.374 31.6332C145.421 31.7611 145.453 31.9369 145.437 32.1127C145.437 32.1927 145.374 32.4164 145.214 32.5123C145.086 32.5923 144.942 32.6242 144.783 32.6242C144.591 32.6242 144.383 32.5603 144.208 32.4644C143.745 32.2086 143.633 31.7131 143.617 31.3615C143.569 30.3544 144.192 29.1716 145.07 28.5642C147.881 26.6461 148.567 23.5451 146.795 20.8437L145.917 19.501C148.759 16.464 148.024 12.2281 146.459 9.43081L146.316 9.17506C145.901 8.45576 144.958 6.7774 145.406 6.20196C145.406 6.20196 145.469 6.16999 145.565 6.16999C145.757 6.16999 145.932 6.23393 145.964 6.26589C146.044 6.34582 146.028 6.44172 145.837 6.85732C145.773 6.98519 145.709 7.12905 145.677 7.24095L145.645 7.25693Z" fill="black"/>
<path d="M58.1818 7.25693L58.2617 7.51268L58.1339 7.73646C57.8944 8.16804 57.3834 8.43978 56.7766 8.43978C56.0899 8.43978 55.515 8.12009 55.2435 7.5926C54.9561 7.00118 54.9401 5.96219 55.2116 5.35478C55.7545 4.18792 56.8245 3.51657 58.1499 3.51657C58.4852 3.51657 58.8206 3.56452 59.1559 3.64445C60.5612 3.9961 60.8806 5.00312 61.0083 5.62652C62.3817 4.79533 63.9946 4.33178 65.5595 4.33178C66.885 4.33178 68.1465 4.63548 69.2803 5.24289C70.8612 6.07408 71.7076 7.11307 72.4581 8.04017C73.1608 8.90333 73.7037 9.57467 74.7098 9.84641C74.9174 9.89436 75.125 9.92633 75.3326 9.92633C75.9554 9.92633 76.5462 9.67058 77.0093 9.22302C77.68 8.56765 77.7279 7.48071 77.1371 6.8733C76.9774 6.71346 76.7538 6.61755 76.5462 6.61755C76.5462 6.61755 76.5303 6.61755 76.5143 6.61755C76.5941 6.88929 76.658 7.12905 76.7059 7.35284C76.7698 7.73646 76.674 8.08812 76.4504 8.39182C76.0991 8.83939 75.5242 9.04719 75.093 9.09514C75.0292 9.09514 74.9653 9.09514 74.9174 9.09514C74.103 9.09514 73.4323 8.53569 73.1608 7.64056C72.8733 6.72944 73.2885 5.73841 74.3106 4.85926C74.9653 4.29981 75.7478 3.9961 76.5782 3.9961C77.7758 3.9961 78.9256 4.63548 79.6282 5.70644C79.6762 5.77038 79.74 5.80235 79.772 5.80235C80.9696 4.85926 82.0715 4.39572 83.1734 4.39572C83.9878 4.39572 84.7862 4.65147 85.5368 5.17895C85.8562 5.38675 86.1755 5.49864 86.463 5.49864C86.7824 5.49864 87.0379 5.37077 87.2774 5.09903C87.8204 4.47564 88.3952 4.18792 89.034 4.18792C89.5929 4.18792 90.088 4.4117 90.5511 4.6195C90.9663 4.81131 91.3655 4.98714 91.8446 5.00312C92.0042 5.03509 92.2278 5.131 92.4035 5.4347C92.5153 5.6425 92.6749 6.07408 92.5472 6.42574C92.4035 6.80937 91.9723 7.11307 91.637 7.24095C91.3974 7.32087 91.1579 7.36882 90.9184 7.36882C90.2796 7.36882 89.7686 7.06512 89.3694 6.80937C89.3214 6.7774 89.2895 6.76141 89.2576 6.76141C89.2256 6.76141 89.018 6.79338 88.6667 7.32087C88.2196 7.96024 87.517 8.16804 86.8782 8.35986C86.8463 8.43978 86.8143 8.53569 86.7664 8.63159C86.6387 8.95128 86.5109 9.28695 86.3352 9.57467C85.8721 10.3259 84.7064 10.9014 83.6365 10.9014C82.8221 10.9014 82.1673 10.5657 81.8 9.9583C81.5286 9.51074 81.5126 8.67954 81.9757 8.15206C82.0875 8.02418 82.2951 7.88032 82.6304 7.88032C82.9019 7.88032 83.2053 7.97623 83.5566 8.08812C83.6844 8.08812 83.8281 7.99221 83.9559 7.86434C84.0676 7.73646 84.1315 7.56063 84.0996 7.44874C84.0357 7.06512 83.6524 6.88929 83.3011 6.88929C83.2053 6.88929 83.1095 6.88929 83.0137 6.92126C81.832 7.24095 80.794 8.16804 80.1872 9.47877C79.5005 10.9653 78.5104 11.9564 77.2648 12.4199C76.7538 12.6117 76.2268 12.7076 75.6839 12.7076C74.9174 12.7076 74.1189 12.5158 73.2885 12.1482C73.2726 12.2441 73.2566 12.356 73.2406 12.4519C73.1129 13.4109 72.8733 15.0254 71.7236 16.384C70.6217 17.6788 69.0248 18.2862 67.7633 18.6698C66.9967 18.9096 66.1025 19.3252 66.2302 19.9965C66.2941 20.1244 66.6933 20.3802 66.9169 20.508L67.2682 20.7318L67.1724 21.1474C66.9648 22.0745 66.0546 22.4901 65.2401 22.4901C65.0006 22.4901 64.777 22.4581 64.5694 22.3942C63.5315 22.0585 62.8767 21.0355 62.9725 19.9006C63.0204 19.3412 63.2121 18.7817 63.4197 18.2382C62.5414 17.7267 61.711 17.1513 61.2319 16.1283C60.6411 14.8495 60.6411 13.363 61.2319 12.0682C61.8068 10.7735 62.8927 9.79846 64.2181 9.38286C64.4736 9.30294 64.7611 9.25498 65.0485 9.25498C66.3101 9.25498 67.6036 10.1022 68.0507 11.2371C68.3062 11.8924 68.2902 12.5957 68.0028 13.1712C67.7633 13.6667 67.3321 14.0343 66.8051 14.1782C66.5815 14.2421 66.342 14.2741 66.1025 14.2741C65.2082 14.2741 64.4577 13.7626 64.1223 12.9634C63.9786 13.395 63.9147 14.1143 64.2501 14.7057C64.6173 15.3451 65.2082 15.7287 65.9268 15.8086C66.0705 15.8246 66.2143 15.8406 66.358 15.8406C67.9229 15.8406 69.3282 14.8336 69.9989 13.2031C70.6536 11.6367 70.478 10.1821 69.4879 8.90333C68.6415 7.78442 67.3321 7.17701 65.7991 7.17701C64.0105 7.17701 62.1741 7.99221 60.8966 9.36688C59.4274 10.9493 58.6928 12.6437 58.7407 14.37C58.7727 15.7447 59.3795 17.1513 60.3057 18.0145L61.679 19.2932L60.162 21.0035C59.5871 21.6589 58.9004 22.6979 58.8685 24.0086C58.8525 24.7919 59.2038 25.3513 59.9544 25.7349C60.1301 25.8308 60.3217 25.8788 60.5133 25.8788C60.8327 25.8788 61.1361 25.7509 61.3916 25.6071C60.8806 25.5271 60.689 25.3993 60.6091 25.3513C60.0981 24.9997 60.0342 24.0726 60.0342 24.0566C59.9863 23.1455 60.4973 22.4262 61.3597 22.2024C61.5832 22.1384 61.7908 22.1225 62.0144 22.1225C63.3877 22.1225 64.5215 23.2094 64.6653 24.648C64.825 26.3104 63.8349 27.9248 62.222 28.708C62.222 28.772 62.2539 28.8199 62.2859 28.8839C63.5315 31.3615 62.8448 33.7272 60.5293 34.942C59.4434 35.5014 58.9963 36.0289 59.0442 36.6523C59.0442 36.8122 59.14 37.02 59.2518 37.2757C59.5552 37.9471 59.9544 38.8741 59.651 40.5046C59.5552 41.0001 58.9963 41.5435 58.6769 41.8153C58.3894 42.055 58.4054 42.151 58.5811 42.6305C58.7407 43.0621 58.9483 43.6535 58.629 44.3248C58.3415 44.9163 57.7666 45.3319 57.1598 45.3798L56.3933 45.4278L56.537 44.6605C56.6807 43.9092 56.537 43.7494 56.3134 43.4936C56.0579 43.2059 55.6907 42.8063 55.7226 41.9112C55.7226 41.4636 56.0579 41.032 56.6807 40.6005C57.3514 40.1369 57.4792 39.3857 57.0321 38.7143C56.1538 37.4036 56.1218 36.0449 56.9522 34.91C56.8245 34.7661 56.6807 34.6383 56.537 34.5104C55.9621 33.9669 55.2276 33.2796 55.3234 32.0008C55.4352 30.5782 56.7446 29.2835 58.0541 29.2835C58.2138 29.2835 58.3894 29.2995 58.5331 29.3474C59.0761 29.4913 59.7149 30.2266 59.6989 30.8819V31.3295L58.4533 31.6332C58.4054 31.7611 58.3735 31.9369 58.3894 32.1127C58.3894 32.1927 58.4533 32.4164 58.613 32.5123C58.7407 32.5923 58.8845 32.6242 59.0442 32.6242C59.2358 32.6242 59.4434 32.5603 59.619 32.4644C60.0821 32.2086 60.1939 31.7131 60.2099 31.3615C60.2578 30.3544 59.635 29.1716 58.7567 28.5642C55.9462 26.6461 55.2595 23.5451 57.0321 20.8437L57.9104 19.501C55.0679 16.464 55.8024 12.2281 57.3674 9.43081L57.5111 9.17506C57.9263 8.45576 58.8685 6.7774 58.4214 6.20196C58.4214 6.20196 58.3575 6.16999 58.2617 6.16999C58.07 6.16999 57.8944 6.23393 57.8624 6.26589C57.7826 6.34582 57.7986 6.44172 57.9902 6.85732C58.0541 6.98519 58.118 7.12905 58.1499 7.24095L58.1818 7.25693Z" fill="black"/>
<path d="M145.645 195.953L145.565 195.697L145.693 195.474C145.932 195.042 146.443 194.77 147.05 194.77C147.737 194.77 148.312 195.09 148.583 195.618C148.871 196.209 148.887 197.248 148.615 197.855C148.072 199.022 147.002 199.694 145.677 199.694C145.342 199.694 145.006 199.646 144.671 199.566C143.266 199.214 142.946 198.207 142.819 197.584C141.445 198.415 139.832 198.878 138.267 198.878C136.942 198.878 135.68 198.575 134.547 197.967C132.966 197.136 132.119 196.097 131.369 195.17C130.666 194.307 130.123 193.635 129.117 193.364C128.91 193.316 128.702 193.284 128.494 193.284C127.872 193.284 127.281 193.54 126.818 193.987C126.147 194.643 126.099 195.729 126.69 196.337C126.849 196.497 127.073 196.593 127.281 196.593C127.281 196.593 127.297 196.593 127.313 196.593C127.233 196.321 127.169 196.081 127.121 195.857C127.057 195.474 127.153 195.122 127.376 194.818C127.728 194.371 128.303 194.163 128.734 194.115C128.798 194.115 128.862 194.115 128.909 194.115C129.724 194.115 130.395 194.674 130.666 195.57C130.954 196.481 130.538 197.472 129.516 198.351C128.862 198.91 128.079 199.214 127.249 199.214C126.051 199.214 124.901 198.575 124.199 197.504C124.151 197.44 124.087 197.408 124.055 197.408C122.857 198.351 121.755 198.814 120.654 198.814C119.839 198.814 119.041 198.559 118.29 198.031C117.971 197.823 117.651 197.712 117.364 197.712C117.045 197.712 116.789 197.839 116.549 198.111C116.007 198.735 115.432 199.022 114.793 199.022C114.234 199.022 113.739 198.798 113.276 198.591C112.861 198.399 112.461 198.223 111.982 198.207C111.823 198.175 111.599 198.079 111.423 197.775C111.312 197.568 111.152 197.136 111.28 196.784C111.423 196.401 111.855 196.097 112.19 195.969C112.429 195.889 112.669 195.841 112.909 195.841C113.547 195.841 114.058 196.145 114.458 196.401C114.505 196.433 114.537 196.449 114.569 196.449C114.601 196.449 114.809 196.417 115.16 195.889C115.607 195.25 116.31 195.042 116.949 194.85C116.981 194.77 117.013 194.674 117.06 194.579C117.188 194.259 117.316 193.923 117.492 193.635C117.955 192.884 119.12 192.309 120.19 192.309C121.005 192.309 121.66 192.644 122.027 193.252C122.298 193.699 122.314 194.531 121.851 195.058C121.739 195.186 121.532 195.33 121.196 195.33C120.925 195.33 120.622 195.234 120.27 195.122C120.142 195.122 119.999 195.218 119.871 195.346C119.759 195.474 119.695 195.65 119.727 195.761C119.791 196.145 120.174 196.321 120.526 196.321C120.622 196.321 120.717 196.321 120.813 196.289C121.995 195.969 123.033 195.042 123.64 193.731C124.326 192.245 125.316 191.254 126.562 190.79C127.073 190.598 127.6 190.503 128.143 190.503C128.909 190.503 129.708 190.694 130.538 191.062C130.554 190.966 130.57 190.854 130.586 190.758C130.714 189.799 130.954 188.185 132.103 186.826C133.205 185.531 134.802 184.924 136.064 184.54C136.83 184.301 137.724 183.885 137.597 183.214C137.533 183.086 137.134 182.83 136.91 182.702L136.559 182.478L136.654 182.063C136.862 181.136 137.772 180.72 138.587 180.72C138.826 180.72 139.05 180.752 139.257 180.816C140.295 181.152 140.95 182.175 140.854 183.31C140.806 183.869 140.615 184.428 140.407 184.972C141.286 185.483 142.116 186.059 142.595 187.082C143.186 188.361 143.186 189.847 142.595 191.142C142.02 192.437 140.934 193.412 139.609 193.827C139.353 193.907 139.066 193.955 138.778 193.955C137.517 193.955 136.223 193.108 135.776 191.973C135.521 191.318 135.537 190.614 135.824 190.039C136.064 189.543 136.495 189.176 137.022 189.032C137.245 188.968 137.485 188.936 137.724 188.936C138.619 188.936 139.369 189.448 139.705 190.247C139.848 189.815 139.912 189.096 139.577 188.504C139.21 187.865 138.619 187.481 137.9 187.402C137.756 187.386 137.613 187.37 137.469 187.37C135.904 187.37 134.499 188.377 133.828 190.007C133.173 191.574 133.349 193.028 134.339 194.307C135.185 195.426 136.495 196.033 138.028 196.033C139.816 196.033 141.653 195.218 142.93 193.843C144.399 192.261 145.134 190.566 145.086 188.84C145.054 187.465 144.447 186.059 143.521 185.196L142.148 183.917L143.665 182.207C144.24 181.551 144.926 180.512 144.958 179.202C144.974 178.418 144.623 177.859 143.872 177.475C143.697 177.379 143.505 177.331 143.314 177.331C142.994 177.331 142.691 177.459 142.435 177.603C142.946 177.683 143.138 177.811 143.218 177.859C143.729 178.211 143.793 179.138 143.793 179.154C143.841 180.065 143.33 180.784 142.467 181.008C142.244 181.072 142.036 181.088 141.812 181.088C140.439 181.088 139.305 180.001 139.162 178.562C139.002 176.9 139.992 175.285 141.605 174.502C141.605 174.438 141.573 174.39 141.541 174.326C140.295 171.849 140.982 169.483 143.298 168.268C144.383 167.709 144.831 167.181 144.783 166.558C144.783 166.398 144.687 166.19 144.575 165.934C144.272 165.263 143.872 164.336 144.176 162.706C144.272 162.21 144.831 161.667 145.15 161.395C145.437 161.155 145.421 161.059 145.246 160.58C145.086 160.148 144.879 159.557 145.198 158.885C145.485 158.294 146.06 157.878 146.667 157.83L147.434 157.782L147.29 158.55C147.146 159.301 147.29 159.461 147.513 159.717C147.769 160.004 148.136 160.404 148.104 161.299C148.104 161.747 147.769 162.178 147.146 162.61C146.475 163.073 146.348 163.825 146.795 164.496C147.673 165.807 147.705 167.165 146.875 168.3C147.002 168.444 147.146 168.572 147.29 168.7C147.865 169.243 148.599 169.931 148.504 171.209C148.392 172.632 147.082 173.927 145.773 173.927C145.613 173.927 145.437 173.911 145.294 173.863C144.751 173.719 144.112 172.984 144.128 172.328V171.881L145.374 171.577C145.421 171.449 145.453 171.273 145.437 171.097C145.437 171.018 145.374 170.794 145.214 170.698C145.086 170.618 144.942 170.586 144.783 170.586C144.591 170.586 144.383 170.65 144.208 170.746C143.745 171.002 143.633 171.497 143.617 171.849C143.569 172.856 144.192 174.039 145.07 174.646C147.881 176.564 148.567 179.665 146.795 182.366L145.917 183.709C148.759 186.746 148.024 190.982 146.459 193.779L146.316 194.035C145.901 194.754 144.958 196.433 145.406 197.008C145.406 197.008 145.469 197.04 145.565 197.04C145.757 197.04 145.932 196.976 145.964 196.944C146.044 196.864 146.028 196.768 145.837 196.353C145.773 196.225 145.709 196.081 145.677 195.969L145.645 195.953Z" fill="black"/>
<path d="M58.1818 195.953L58.2617 195.697L58.1339 195.474C57.8944 195.042 57.3834 194.77 56.7766 194.77C56.0899 194.77 55.515 195.09 55.2435 195.618C54.9561 196.209 54.9401 197.248 55.2116 197.855C55.7545 199.022 56.8245 199.694 58.1499 199.694C58.4852 199.694 58.8206 199.646 59.1559 199.566C60.5612 199.214 60.8806 198.207 61.0083 197.584C62.3817 198.415 63.9946 198.878 65.5595 198.878C66.885 198.878 68.1465 198.575 69.2803 197.967C70.8612 197.136 71.7076 196.097 72.4581 195.17C73.1608 194.307 73.7037 193.635 74.7098 193.364C74.9174 193.316 75.125 193.284 75.3326 193.284C75.9554 193.284 76.5462 193.54 77.0093 193.987C77.68 194.643 77.7279 195.729 77.1371 196.337C76.9774 196.497 76.7538 196.593 76.5462 196.593C76.5462 196.593 76.5303 196.593 76.5143 196.593C76.5941 196.321 76.658 196.081 76.7059 195.857C76.7698 195.474 76.674 195.122 76.4504 194.818C76.0991 194.371 75.5242 194.163 75.093 194.115C75.0292 194.115 74.9653 194.115 74.9174 194.115C74.103 194.115 73.4323 194.674 73.1608 195.57C72.8733 196.481 73.2885 197.472 74.3106 198.351C74.9653 198.91 75.7478 199.214 76.5782 199.214C77.7758 199.214 78.9256 198.575 79.6282 197.504C79.6762 197.44 79.74 197.408 79.772 197.408C80.9696 198.351 82.0715 198.814 83.1734 198.814C83.9878 198.814 84.7862 198.559 85.5368 198.031C85.8562 197.823 86.1755 197.712 86.463 197.712C86.7824 197.712 87.0379 197.839 87.2774 198.111C87.8204 198.735 88.3952 199.022 89.034 199.022C89.5929 199.022 90.088 198.798 90.5511 198.591C90.9663 198.399 91.3655 198.223 91.8446 198.207C92.0042 198.175 92.2278 198.079 92.4035 197.775C92.5153 197.568 92.6749 197.136 92.5472 196.784C92.4035 196.401 91.9723 196.097 91.637 195.969C91.3974 195.889 91.1579 195.841 90.9184 195.841C90.2796 195.841 89.7686 196.145 89.3694 196.401C89.3214 196.433 89.2895 196.449 89.2576 196.449C89.2256 196.449 89.018 196.417 88.6667 195.889C88.2196 195.25 87.517 195.042 86.8782 194.85C86.8463 194.77 86.8143 194.674 86.7664 194.579C86.6387 194.259 86.5109 193.923 86.3352 193.635C85.8721 192.884 84.7064 192.309 83.6365 192.309C82.8221 192.309 82.1673 192.644 81.8 193.252C81.5286 193.699 81.5126 194.531 81.9757 195.058C82.0875 195.186 82.2951 195.33 82.6304 195.33C82.9019 195.33 83.2053 195.234 83.5566 195.122C83.6844 195.122 83.8281 195.218 83.9559 195.346C84.0676 195.474 84.1315 195.65 84.0996 195.761C84.0357 196.145 83.6524 196.321 83.3011 196.321C83.2053 196.321 83.1095 196.321 83.0137 196.289C81.832 195.969 80.794 195.042 80.1872 193.731C79.5005 192.245 78.5104 191.254 77.2648 190.79C76.7538 190.598 76.2268 190.503 75.6839 190.503C74.9174 190.503 74.1189 190.694 73.2885 191.062C73.2726 190.966 73.2566 190.854 73.2406 190.758C73.1129 189.799 72.8733 188.185 71.7236 186.826C70.6217 185.531 69.0248 184.924 67.7633 184.54C66.9967 184.301 66.1025 183.885 66.2302 183.214C66.2941 183.086 66.6933 182.83 66.9169 182.702L67.2682 182.478L67.1724 182.063C66.9648 181.136 66.0546 180.72 65.2401 180.72C65.0006 180.72 64.777 180.752 64.5694 180.816C63.5315 181.152 62.8767 182.175 62.9725 183.31C63.0204 183.869 63.2121 184.428 63.4197 184.972C62.5414 185.483 61.711 186.059 61.2319 187.082C60.6411 188.361 60.6411 189.847 61.2319 191.142C61.8068 192.437 62.8927 193.412 64.2181 193.827C64.4736 193.907 64.7611 193.955 65.0485 193.955C66.3101 193.955 67.6036 193.108 68.0507 191.973C68.3062 191.318 68.2902 190.614 68.0028 190.039C67.7633 189.543 67.3321 189.176 66.8051 189.032C66.5815 188.968 66.342 188.936 66.1025 188.936C65.2082 188.936 64.4577 189.448 64.1223 190.247C63.9786 189.815 63.9147 189.096 64.2501 188.504C64.6173 187.865 65.2082 187.481 65.9268 187.402C66.0705 187.386 66.2143 187.37 66.358 187.37C67.9229 187.37 69.3282 188.377 69.9989 190.007C70.6536 191.574 70.478 193.028 69.4879 194.307C68.6415 195.426 67.3321 196.033 65.7991 196.033C64.0105 196.033 62.1741 195.218 60.8966 193.843C59.4274 192.261 58.6928 190.566 58.7407 188.84C58.7727 187.465 59.3795 186.059 60.3057 185.196L61.679 183.917L60.162 182.207C59.5871 181.551 58.9004 180.512 58.8685 179.202C58.8525 178.418 59.2038 177.859 59.9544 177.475C60.1301 177.379 60.3217 177.331 60.5133 177.331C60.8327 177.331 61.1361 177.459 61.3916 177.603C60.8806 177.683 60.689 177.811 60.6091 177.859C60.0981 178.211 60.0342 179.138 60.0342 179.154C59.9863 180.065 60.4973 180.784 61.3597 181.008C61.5832 181.072 61.7908 181.088 62.0144 181.088C63.3877 181.088 64.5215 180.001 64.6653 178.562C64.825 176.9 63.8349 175.285 62.222 174.502C62.222 174.438 62.2539 174.39 62.2859 174.326C63.5315 171.849 62.8448 169.483 60.5293 168.268C59.4434 167.709 58.9963 167.181 59.0442 166.558C59.0442 166.398 59.14 166.19 59.2518 165.934C59.5552 165.263 59.9544 164.336 59.651 162.706C59.5552 162.21 58.9963 161.667 58.6769 161.395C58.3894 161.155 58.4054 161.059 58.5811 160.58C58.7407 160.148 58.9483 159.557 58.629 158.885C58.3415 158.294 57.7666 157.878 57.1598 157.83L56.3933 157.782L56.537 158.55C56.6807 159.301 56.537 159.461 56.3134 159.717C56.0579 160.004 55.6907 160.404 55.7226 161.299C55.7226 161.747 56.0579 162.178 56.6807 162.61C57.3514 163.073 57.4792 163.825 57.0321 164.496C56.1538 165.807 56.1218 167.165 56.9522 168.3C56.8245 168.444 56.6807 168.572 56.537 168.7C55.9621 169.243 55.2276 169.931 55.3234 171.209C55.4352 172.632 56.7446 173.927 58.0541 173.927C58.2138 173.927 58.3894 173.911 58.5331 173.863C59.0761 173.719 59.7149 172.984 59.6989 172.328V171.881L58.4533 171.577C58.4054 171.449 58.3735 171.273 58.3894 171.097C58.3894 171.018 58.4533 170.794 58.613 170.698C58.7407 170.618 58.8845 170.586 59.0442 170.586C59.2358 170.586 59.4434 170.65 59.619 170.746C60.0821 171.002 60.1939 171.497 60.2099 171.849C60.2578 172.856 59.635 174.039 58.7567 174.646C55.9462 176.564 55.2595 179.665 57.0321 182.366L57.9104 183.709C55.0679 186.746 55.8024 190.982 57.3674 193.779L57.5111 194.035C57.9263 194.754 58.8685 196.433 58.4214 197.008C58.4214 197.008 58.3575 197.04 58.2617 197.04C58.07 197.04 57.8944 196.976 57.8624 196.944C57.7826 196.864 57.7986 196.768 57.9902 196.353C58.0541 196.225 58.118 196.081 58.1499 195.969L58.1818 195.953Z" fill="black"/>
</svg>
