<svg width="204" height="206" viewBox="0 0 204 206" fill="none" xmlns="http://www.w3.org/2000/svg">
<path d="M107.813 25.3833L106.775 26.0067C106.535 26.1506 106.392 26.4223 106.344 26.694C106.168 28.0367 105.274 29.0118 103.964 29.4753L103.597 29.779C103.326 30.0028 102.942 30.0348 102.639 29.8749L101.809 29.4593C100.1 28.6122 100.084 28.3564 99.557 26.71C99.4612 26.4383 99.2536 26.1985 98.9661 26.1186C97.1776 25.6391 95.8681 23.9447 96.3791 22.1225C96.6985 20.9876 97.6886 20.572 98.7266 20.6999C99.1737 20.7638 99.6209 20.8757 99.9243 21.1155C100.26 21.3872 100.435 21.9946 100.26 22.4102C100.212 22.5381 99.8923 22.8578 99.7646 22.8098C99.1258 22.618 99.0939 22.0905 98.8064 22.3303C98.6947 22.4262 98.6308 22.7938 98.7106 22.9537C99.03 23.5131 99.7167 23.673 100.292 23.4492C101.473 22.9856 101.409 21.1954 100.723 20.3322C100.387 19.9166 99.6368 19.9326 99.1099 19.7728C99.03 19.3412 98.8863 18.7817 98.4871 18.558C98.1038 18.3502 97.5609 18.526 97.1616 18.8457C96.5867 19.3092 96.3312 19.9006 96.2674 20.556C96.2354 20.9556 95.964 21.2913 95.5807 21.3872C94.383 21.6749 94.0317 21.7548 93.7283 22.9217C93.6165 23.3213 93.2332 23.5771 92.8181 23.5611C92.4029 23.5451 91.9877 23.5451 91.6204 23.625C90.758 23.8009 89.8478 24.4242 89.6881 25.3034C89.5444 26.1026 90.1512 26.9498 90.8539 27.3014C91.0136 27.3814 91.4607 27.3494 91.6204 27.2535C91.796 27.1576 91.9557 26.742 91.9238 26.5182L91.3968 26.4383C90.5664 26.3264 90.2949 25.1755 91.0455 24.7759C91.0455 24.7759 91.0455 24.7759 91.0615 24.7759C91.9557 24.3124 93.1534 24.6161 93.8081 25.3194C94.4788 26.0387 94.7823 27.1096 94.3511 28.1167C93.8081 29.3475 92.5785 30.4344 91.1732 30.5143C90.3109 30.5623 89.4805 30.1627 88.714 29.7631C88.4106 29.6032 88.0433 29.6192 87.7718 29.827C85.5202 31.5533 82.5979 31.6492 82.0709 31.0738C81.9431 30.9299 81.8633 30.6102 82.2625 29.7631L90.4546 21.3233C94.1914 17.5669 97.9282 13.7946 101.681 10.0382C102.032 9.68659 102.607 9.68659 102.958 10.0382L108.595 15.6008C109.33 16.3361 109.985 17.0234 110.783 17.7268L121.195 28.1326C121.786 28.7241 121.339 29.7311 120.508 29.6671C119.343 29.5872 118.033 29.2675 117.331 28.804C117.075 28.6282 116.756 28.5802 116.484 28.7241L115.654 29.1237C114.68 29.6032 113.147 29.4114 112.236 28.74C111.278 28.0207 110.544 25.5272 112.125 24.5361C112.779 24.1205 113.61 24.0726 114.328 24.5202C114.552 24.664 114.728 25.1755 114.632 25.3993C114.472 25.735 114.041 25.8948 113.626 25.8628C113.578 25.9428 113.498 26.1985 113.514 26.3424C113.514 26.4703 113.849 26.742 114.009 26.742C114.408 26.742 115.159 26.3424 115.334 25.7989C115.478 25.4153 115.398 24.712 115.063 24.2804C114.392 23.4012 113.242 22.9057 112.173 23.1295L111.741 23.2254C111.39 23.3053 111.789 20.9556 109.889 21.0355C109.761 21.0355 109.41 20.9876 109.378 20.8757C109.17 20.3642 108.979 18.4141 107.206 18.3022C106.903 18.2862 106.408 18.4141 106.296 18.6219C106.232 18.7338 106.2 18.8776 106.184 19.0215C106.152 19.3891 105.897 19.6929 105.545 19.7728C105.37 19.8207 105.194 19.8847 105.098 19.9486C104.459 20.4281 104.3 21.2274 104.412 21.8188C104.571 22.586 105.13 23.2414 105.913 23.3533C106.36 23.4172 106.999 23.0656 106.967 22.666C106.967 22.5701 106.807 22.2823 106.743 22.2184C106.551 21.9786 106.12 22.7778 105.785 22.7619C105.641 22.7619 105.322 22.4262 105.29 22.2983C105.162 21.8987 105.482 21.2913 105.801 20.9716C106.679 20.0765 108.867 21.0675 109.218 22.4102C109.522 23.5771 108.819 24.8239 107.861 25.3993L107.813 25.3833Z" fill="black"/>
<path d="M167.553 111.523L166.563 109.877C166.323 109.493 165.908 109.27 165.461 109.206C163.353 108.934 161.788 107.511 161.07 105.433L160.607 104.842C160.255 104.41 160.191 103.803 160.447 103.307L161.118 101.981C162.459 99.2794 162.858 99.2315 165.461 98.4003C165.908 98.2564 166.276 97.9207 166.403 97.4732C167.17 94.628 169.837 92.55 172.727 93.3812C174.516 93.8927 175.186 95.4591 174.963 97.0896C174.867 97.7929 174.675 98.5122 174.308 98.9757C173.893 99.5192 172.919 99.7749 172.264 99.5032C172.072 99.4233 171.561 98.9118 171.625 98.72C171.913 97.7129 172.759 97.665 172.392 97.1855C172.248 96.9936 171.657 96.8977 171.418 97.0416C170.523 97.5531 170.284 98.64 170.635 99.5352C171.37 101.405 174.196 101.293 175.554 100.207C176.208 99.679 176.192 98.4802 176.432 97.649C177.103 97.5211 177.997 97.2974 178.348 96.658C178.667 96.0506 178.396 95.1874 177.885 94.548C177.166 93.6209 176.224 93.2213 175.17 93.1414C174.547 93.0775 174.005 92.6779 173.861 92.0545C173.398 90.1523 173.27 89.6088 171.434 89.1133C170.795 88.9375 170.38 88.3301 170.412 87.6747C170.443 87.0194 170.443 86.364 170.316 85.7726C170.044 84.3979 169.054 82.9593 167.665 82.7036C166.403 82.4798 165.046 83.4388 164.519 84.5578C164.391 84.8135 164.455 85.5328 164.583 85.7886C164.727 86.0763 165.381 86.3001 165.749 86.2681L165.86 85.4209C166.036 84.0942 167.856 83.6786 168.479 84.8455C168.479 84.8455 168.479 84.8615 168.479 84.8774C169.198 86.2841 168.735 88.2022 167.633 89.2252C166.499 90.2802 164.806 90.7757 163.225 90.0724C161.277 89.2092 159.569 87.2591 159.441 85.0213C159.361 83.6466 160 82.3359 160.622 81.1211C160.878 80.6416 160.846 80.0661 160.527 79.6345C157.78 76.07 157.636 71.4345 158.562 70.6033C158.786 70.3955 159.297 70.2837 160.622 70.923C165.078 75.2548 169.517 79.5866 173.973 83.9184C179.929 89.8486 185.87 95.7788 191.826 101.693C192.385 102.253 192.385 103.148 191.826 103.707L183.027 112.642C181.877 113.809 180.775 114.832 179.674 116.095L163.209 132.607C162.283 133.534 160.686 132.831 160.766 131.52C160.894 129.682 161.405 127.604 162.14 126.501C162.411 126.101 162.491 125.59 162.267 125.158L161.629 123.832C160.878 122.281 161.165 119.851 162.235 118.429C163.369 116.91 167.298 115.743 168.878 118.253C169.533 119.292 169.613 120.619 168.91 121.754C168.687 122.121 167.872 122.393 167.537 122.233C167.01 121.993 166.771 121.29 166.802 120.635C166.675 120.555 166.26 120.443 166.052 120.459C165.844 120.475 165.429 120.986 165.429 121.242C165.429 121.865 166.068 123.048 166.914 123.352C167.521 123.56 168.623 123.448 169.31 122.92C170.699 121.865 171.481 120.027 171.146 118.349L171.002 117.662C170.891 117.102 174.595 117.725 174.452 114.736C174.452 114.529 174.547 113.985 174.707 113.921C175.522 113.585 178.604 113.298 178.763 110.485C178.795 110.021 178.588 109.222 178.252 109.03C178.077 108.934 177.853 108.886 177.614 108.854C177.039 108.806 176.56 108.407 176.416 107.847C176.336 107.559 176.256 107.288 176.128 107.128C175.378 106.105 174.1 105.849 173.174 106.041C171.945 106.297 170.923 107.192 170.747 108.423C170.651 109.126 171.194 110.149 171.833 110.085C171.992 110.085 172.44 109.829 172.551 109.733C172.919 109.43 171.657 108.758 171.689 108.215C171.689 107.991 172.216 107.495 172.424 107.431C173.062 107.24 174.02 107.735 174.532 108.231C175.953 109.637 174.388 113.09 172.264 113.649C170.427 114.129 168.447 113.01 167.521 111.492L167.553 111.523Z" fill="black"/>
<path d="M35.0261 111.412L36.0162 109.765C36.2557 109.382 36.6709 109.158 37.1181 109.094C39.226 108.822 40.7909 107.399 41.5095 105.321L41.9726 104.73C42.324 104.298 42.3878 103.691 42.1323 103.196L41.4616 101.869C40.1202 99.1675 39.721 99.1195 37.1181 98.2883C36.6709 98.1445 36.3036 97.8088 36.1759 97.3612C35.4094 94.516 32.7425 92.438 29.8521 93.2692C28.0636 93.7807 27.3929 95.3472 27.6165 96.9776C27.7123 97.6809 27.9039 98.4002 28.2712 98.8638C28.6864 99.4072 29.6605 99.663 30.3152 99.3913C30.5069 99.3113 31.0179 98.7998 30.954 98.608C30.6666 97.601 29.8202 97.5531 30.1875 97.0735C30.3312 96.8817 30.9221 96.7858 31.1616 96.9297C32.0559 97.4412 32.2954 98.5281 31.9441 99.4232C31.2095 101.293 28.383 101.182 27.0256 100.095C26.3709 99.5671 26.3869 98.3683 26.1473 97.5371C25.4766 97.4092 24.5824 97.1854 24.231 96.546C23.9117 95.9386 24.1831 95.0755 24.6941 94.4361C25.4127 93.509 26.3549 93.1094 27.4089 93.0295C28.0317 92.9655 28.5746 92.5659 28.7183 91.9425C29.1814 90.0404 29.3092 89.4969 31.1456 89.0014C31.7844 88.8256 32.1996 88.2181 32.1677 87.5628C32.1357 86.9074 32.1357 86.2521 32.2635 85.6606C32.5349 84.286 33.525 82.8474 34.9143 82.5916C36.1759 82.3678 37.5332 83.3269 38.0602 84.4458C38.188 84.7016 38.1241 85.4209 37.9964 85.6766C37.8526 85.9643 37.1979 86.1881 36.8306 86.1562L36.7188 85.309C36.5432 83.9823 34.7227 83.5667 34.0999 84.7335C34.0999 84.7335 34.0999 84.7495 34.0999 84.7655C33.3813 86.1721 33.8444 88.0903 34.9463 89.1133C36.0801 90.1682 37.7728 90.6638 39.3537 89.9604C41.3019 89.0973 43.0106 87.1472 43.1384 84.9094C43.2182 83.5347 42.5795 82.224 41.9567 81.0092C41.7012 80.5296 41.7331 79.9542 42.0525 79.5226C44.7992 75.9581 44.9429 71.3226 44.0167 70.4914C43.7931 70.2836 43.2821 70.1717 41.9567 70.8111C37.5013 75.1429 33.0619 79.4747 28.6066 83.8064C22.6501 89.7367 16.7096 95.6669 10.7532 101.581C10.1943 102.141 10.1943 103.036 10.7532 103.595L19.5521 112.53C20.7019 113.697 21.8037 114.72 22.9056 115.983L39.3697 132.495C40.2959 133.422 41.8928 132.719 41.813 131.408C41.6852 129.57 41.1742 127.492 40.4396 126.389C40.1681 125.989 40.0883 125.478 40.3119 125.046L40.9506 123.72C41.7012 122.169 41.4137 119.739 40.3438 118.317C39.21 116.798 35.2816 115.631 33.7007 118.141C33.0459 119.18 32.9661 120.507 33.6687 121.642C33.8923 122.009 34.7067 122.281 35.0421 122.121C35.5691 121.881 35.8086 121.178 35.7767 120.523C35.9044 120.443 36.3196 120.331 36.5272 120.347C36.7348 120.363 37.15 120.874 37.15 121.13C37.15 121.753 36.5112 122.936 35.6649 123.24C35.058 123.448 33.9562 123.336 33.2695 122.808C31.8802 121.754 31.0977 119.915 31.4331 118.237L31.5768 117.55C31.6886 116.99 27.9838 117.614 28.1275 114.624C28.1275 114.417 28.0317 113.873 27.872 113.809C27.0576 113.474 23.9755 113.186 23.8158 110.373C23.7839 109.909 23.9915 109.11 24.3269 108.918C24.5025 108.822 24.7261 108.774 24.9656 108.742C25.5405 108.694 26.0196 108.295 26.1633 107.735C26.2431 107.447 26.323 107.176 26.4507 107.016C27.2013 105.993 28.4788 105.737 29.405 105.929C30.6346 106.185 31.6566 107.08 31.8323 108.311C31.9281 109.014 31.3852 110.037 30.7464 109.973C30.5867 109.973 30.1396 109.717 30.0278 109.621C29.6605 109.318 30.9221 108.646 30.8901 108.103C30.8901 107.879 30.3632 107.383 30.1556 107.32C29.5168 107.128 28.5586 107.623 28.0476 108.119C26.6264 109.525 28.1914 112.978 30.3152 113.537C32.1517 114.017 34.1318 112.898 35.058 111.38L35.0261 111.412Z" fill="black"/>
<path d="M107.813 179.425L106.775 178.802C106.535 178.658 106.392 178.386 106.344 178.115C106.168 176.772 105.274 175.797 103.964 175.333L103.597 175.03C103.326 174.806 102.942 174.774 102.639 174.934L101.809 175.349C100.1 176.196 100.084 176.452 99.557 178.099C99.4612 178.37 99.2536 178.61 98.9661 178.69C97.1776 179.17 95.8681 180.864 96.3791 182.686C96.6985 183.821 97.6886 184.237 98.7266 184.109C99.1737 184.045 99.6209 183.933 99.9243 183.693C100.26 183.421 100.435 182.814 100.26 182.398C100.212 182.271 99.8923 181.951 99.7646 181.999C99.1258 182.191 99.0939 182.718 98.8064 182.478C98.6947 182.382 98.6308 182.015 98.7106 181.855C99.03 181.296 99.7167 181.136 100.292 181.359C101.473 181.823 101.409 183.613 100.723 184.476C100.387 184.892 99.6368 184.876 99.1099 185.036C99.03 185.467 98.8863 186.027 98.4871 186.251C98.1038 186.458 97.5609 186.283 97.1616 185.963C96.5867 185.499 96.3312 184.908 96.2674 184.253C96.2354 183.853 95.964 183.517 95.5807 183.421C94.383 183.134 94.0317 183.054 93.7283 181.887C93.6165 181.487 93.2332 181.232 92.8181 181.248C92.4029 181.264 91.9877 181.264 91.6204 181.184C90.758 181.008 89.8478 180.384 89.6881 179.505C89.5444 178.706 90.1512 177.859 90.8539 177.507C91.0136 177.427 91.4607 177.459 91.6204 177.555C91.796 177.651 91.9557 178.067 91.9238 178.29L91.3968 178.37C90.5664 178.482 90.2949 179.633 91.0455 180.033C91.0455 180.033 91.0455 180.033 91.0615 180.033C91.9557 180.496 93.1534 180.193 93.8081 179.489C94.4788 178.77 94.7823 177.699 94.3511 176.692C93.8081 175.461 92.5785 174.374 91.1732 174.294C90.3109 174.246 89.4805 174.646 88.714 175.046C88.4106 175.205 88.0433 175.189 87.7718 174.982C85.5202 173.255 82.5979 173.159 82.0709 173.735C81.9431 173.879 81.8633 174.198 82.2625 175.046L90.4546 183.485C94.1914 187.242 97.9282 191.014 101.681 194.77C102.032 195.122 102.607 195.122 102.958 194.77L108.595 189.208C109.33 188.473 109.985 187.785 110.783 187.082L121.195 176.676C121.786 176.085 121.339 175.078 120.508 175.142C119.343 175.221 118.033 175.541 117.331 176.005C117.075 176.18 116.756 176.228 116.484 176.085L115.654 175.685C114.68 175.205 113.147 175.397 112.236 176.069C111.278 176.788 110.544 179.281 112.125 180.273C112.779 180.688 113.61 180.736 114.328 180.288C114.552 180.145 114.728 179.633 114.632 179.409C114.472 179.074 114.041 178.914 113.626 178.946C113.578 178.866 113.498 178.61 113.514 178.466C113.514 178.338 113.849 178.067 114.009 178.067C114.408 178.067 115.159 178.466 115.334 179.01C115.478 179.393 115.398 180.097 115.063 180.528C114.392 181.407 113.242 181.903 112.173 181.679L111.741 181.583C111.39 181.503 111.789 183.853 109.889 183.773C109.761 183.773 109.41 183.821 109.378 183.933C109.17 184.444 108.979 186.395 107.206 186.506C106.903 186.522 106.408 186.395 106.296 186.187C106.232 186.075 106.2 185.931 106.184 185.787C106.152 185.42 105.897 185.116 105.545 185.036C105.37 184.988 105.194 184.924 105.098 184.86C104.459 184.381 104.3 183.581 104.412 182.99C104.571 182.223 105.13 181.567 105.913 181.455C106.36 181.391 106.999 181.743 106.967 182.143C106.967 182.239 106.807 182.526 106.743 182.59C106.551 182.83 106.12 182.031 105.785 182.047C105.641 182.047 105.322 182.382 105.29 182.51C105.162 182.91 105.482 183.517 105.801 183.837C106.679 184.732 108.867 183.741 109.218 182.398C109.522 181.232 108.819 179.985 107.861 179.409L107.813 179.425Z" fill="black"/>
<path d="M139.624 24.3603L138.315 24.0406C138.011 23.9607 137.692 24.0566 137.436 24.2484C136.255 25.1595 134.77 25.2235 133.38 24.5521L132.853 24.4882C132.47 24.4402 132.135 24.1845 132.023 23.8008L131.688 22.8098C131.017 20.7958 131.192 20.588 132.071 18.8776C132.214 18.5899 132.23 18.2383 132.071 17.9505C131.033 16.1603 131.336 13.7946 133.173 12.7716C134.306 12.1322 135.424 12.5798 136.127 13.5069C136.43 13.9065 136.686 14.354 136.734 14.7696C136.798 15.2492 136.446 15.8566 135.983 16.0484C135.839 16.1123 135.344 16.1123 135.281 15.9685C134.929 15.3291 135.328 14.8815 134.897 14.8336C134.738 14.8176 134.386 15.0574 134.338 15.2492C134.147 15.9525 134.578 16.6078 135.185 16.8796C136.478 17.439 137.82 15.9845 137.963 14.7696C138.027 14.1942 137.42 13.5868 137.133 13.0593C137.404 12.6597 137.74 12.1162 137.596 11.6207C137.452 11.1572 136.893 10.8694 136.319 10.8055C135.504 10.7096 134.833 10.9813 134.274 11.4449C133.939 11.7326 133.46 11.7965 133.077 11.5568C131.895 10.8375 131.56 10.6297 130.41 11.301C130.011 11.5248 129.5 11.4289 129.196 11.0932C128.877 10.7575 128.558 10.4379 128.206 10.1981C127.392 9.65461 126.178 9.43083 125.364 9.99029C124.629 10.5018 124.438 11.6527 124.725 12.4839C124.789 12.6757 125.172 12.9954 125.364 13.0593C125.571 13.1232 126.018 12.9154 126.178 12.7236L125.811 12.2441C125.252 11.4928 125.939 10.3899 126.833 10.6616C126.833 10.6616 126.833 10.6616 126.849 10.6616C127.903 10.9973 128.621 12.1802 128.59 13.2511C128.558 14.3381 127.951 15.425 126.817 15.8726C125.428 16.416 123.607 16.3041 122.425 15.2492C121.707 14.6098 121.372 13.6347 121.084 12.7236C120.972 12.372 120.669 12.0842 120.302 12.0363C117.172 11.6367 114.808 9.39886 114.84 8.5357C114.84 8.32791 115.048 8.00822 116.022 7.67254L129.085 7.49671C134.977 7.49671 140.87 7.46475 146.762 7.44876C147.321 7.44876 147.768 7.89633 147.768 8.4398L147.832 17.2472C147.832 18.3981 147.8 19.4531 147.88 20.6359V37.02C147.896 37.9471 146.762 38.3787 146.155 37.6913C145.309 36.7163 144.527 35.4375 144.351 34.5104C144.287 34.1747 144.079 33.887 143.744 33.7751L142.77 33.4395C141.62 33.0399 140.566 31.6972 140.391 30.4504C140.199 29.1396 141.572 26.5981 143.6 27.0617C144.447 27.2535 145.133 27.8609 145.357 28.788C145.421 29.0757 145.165 29.6192 144.91 29.7151C144.527 29.8589 144.064 29.6352 143.744 29.2835C143.632 29.2995 143.377 29.4593 143.281 29.5712C143.185 29.6831 143.233 30.1467 143.361 30.2745C143.68 30.5782 144.575 30.85 145.149 30.5782C145.565 30.3864 146.044 29.779 146.124 29.1716C146.283 27.9568 145.772 26.6461 144.766 25.9907L144.351 25.719C144.016 25.4952 146.171 23.9767 144.622 22.5541C144.511 22.4581 144.287 22.1385 144.335 22.0266C144.575 21.4511 145.964 19.7728 144.638 18.3022C144.415 18.0624 143.92 17.7587 143.664 17.8386C143.537 17.8706 143.393 17.9665 143.265 18.0624C142.946 18.3182 142.515 18.3661 142.163 18.1583C141.988 18.0464 141.812 17.9665 141.668 17.9505C140.79 17.8227 140.023 18.3182 139.656 18.8776C139.177 19.6129 139.097 20.572 139.64 21.2593C139.943 21.6589 140.71 21.8987 140.997 21.547C141.077 21.4671 141.173 21.1155 141.173 21.0196C141.205 20.6839 140.247 20.9716 139.991 20.6999C139.896 20.588 139.896 20.0765 139.959 19.9326C140.183 19.517 140.902 19.2932 141.397 19.2772C142.802 19.2772 143.744 21.7708 142.962 23.0975C142.291 24.2484 140.758 24.68 139.544 24.3763L139.624 24.3603Z" fill="black"/>
<path d="M73.9275 15.5848L73.6081 16.8956C73.5282 17.1993 73.6241 17.519 73.8157 17.7747C74.7259 18.9576 74.7898 20.4441 74.1191 21.8348L74.0552 22.3622C74.0073 22.7459 73.7518 23.0815 73.3686 23.1934L72.3785 23.5291C70.3664 24.2005 70.1588 24.0246 68.4501 23.1455C68.1626 23.0016 67.8113 22.9856 67.5239 23.1455C65.7354 24.1845 63.3719 23.8808 62.3499 22.0426C61.7112 20.9077 62.1583 19.7888 63.0845 19.0854C63.4837 18.7817 63.9309 18.526 64.346 18.478C64.8251 18.4141 65.4319 18.7657 65.6236 19.2293C65.6874 19.3732 65.6874 19.8687 65.5437 19.9326C64.905 20.2843 64.4578 19.8847 64.4099 20.3162C64.394 20.4761 64.6335 20.8277 64.8251 20.8757C65.5278 21.0675 66.1825 20.6359 66.454 20.0285C67.0129 18.7338 65.5597 17.3911 64.346 17.2472C63.7712 17.1833 63.1643 17.7907 62.6374 18.0784C62.2381 17.8067 61.6952 17.471 61.2001 17.6149C60.737 17.7587 60.4496 18.3182 60.3857 18.8936C60.2899 19.7088 60.5614 20.3802 61.0245 20.9396C61.3119 21.2753 61.3758 21.7548 61.1363 22.1385C60.4177 23.3213 60.2101 23.657 60.8808 24.8079C61.1043 25.2075 61.0085 25.719 60.6732 26.0227C60.3378 26.3424 60.0184 26.6621 59.7789 27.0137C59.236 27.8289 59.0124 29.0437 59.5713 29.859C60.0823 30.5942 61.2321 30.786 62.0625 30.4983C62.2541 30.4344 62.5735 30.0508 62.6374 29.859C62.7012 29.6512 62.4936 29.2036 62.302 29.0437L61.8229 29.4114C61.0724 29.9708 59.9705 29.2835 60.242 28.3884C60.242 28.3884 60.242 28.3884 60.242 28.3724C60.5774 27.3174 61.7591 26.5981 62.829 26.6301C63.9149 26.6621 65.0008 27.2695 65.4479 28.4044C65.9909 29.795 65.8791 31.6172 64.8251 32.8001C64.1864 33.5194 63.2122 33.8551 62.302 34.1428C61.9507 34.2547 61.6633 34.5584 61.6153 34.926C61.2161 38.059 58.9804 40.4247 58.1181 40.3927C57.9105 40.3927 57.5911 40.1849 57.2558 39.2098C57.1919 34.8461 57.128 30.4823 57.0801 26.1346C57.0801 20.2363 57.0482 14.3381 57.0322 8.4398C57.0322 7.88035 57.4794 7.43278 58.0223 7.43278L66.8212 7.36885C67.971 7.36885 69.025 7.40081 70.2067 7.32089H86.5749C87.5011 7.30491 87.9323 8.4398 87.2456 9.04721C86.2715 9.89439 84.994 10.6776 84.0678 10.8535C83.7325 10.9174 83.445 11.1252 83.3332 11.4609L82.9979 12.4359C82.5987 13.5868 81.2573 14.6418 80.0117 14.8176C78.7022 15.0094 76.1631 13.6347 76.6262 11.6047C76.8179 10.7575 77.4247 10.0702 78.3509 9.84643C78.6383 9.7825 79.1813 10.0382 79.2771 10.294C79.4208 10.6776 79.1973 11.1412 78.8459 11.4609C78.8619 11.5728 79.0216 11.8285 79.1334 11.9244C79.2452 12.0203 79.7083 11.9724 79.836 11.8445C80.1394 11.5248 80.4109 10.6297 80.1394 10.0542C79.9478 9.63864 79.341 9.1591 78.7341 9.07918C77.5205 8.91934 76.211 9.43084 75.5563 10.4379L75.2848 10.8535C75.0613 11.1891 73.5442 9.03123 72.123 10.5817C72.0272 10.6936 71.7078 10.9174 71.596 10.8694C71.0211 10.6297 69.3444 9.23902 67.8752 10.5657C67.6357 10.7895 67.3323 11.285 67.4121 11.5408C67.444 11.6687 67.5399 11.8125 67.6357 11.9404C67.8912 12.2601 67.9391 12.6917 67.7315 13.0433C67.6197 13.2191 67.5399 13.395 67.5239 13.5388C67.3961 14.418 67.8912 15.1852 68.4501 15.5529C69.1847 16.0324 70.1428 16.1123 70.8295 15.5689C71.2287 15.2652 71.4682 14.4979 71.1169 14.2102C71.0371 14.1303 70.6858 14.0344 70.5899 14.0344C70.2546 14.0024 70.542 14.9615 70.2706 15.2172C70.1588 15.3131 69.6478 15.3131 69.504 15.2492C69.0889 15.0254 68.8653 14.3061 68.8493 13.8106C68.8493 12.4039 71.3405 11.4609 72.6659 12.2441C73.8157 12.9154 74.2468 14.45 73.9434 15.6648L73.9275 15.5848Z" fill="black"/>
<path d="M137.947 182.59L136.638 182.91C136.334 182.99 136.015 182.894 135.76 182.702C134.578 181.791 133.093 181.727 131.703 182.398L131.176 182.462C130.793 182.51 130.458 182.766 130.346 183.15L130.011 184.141C129.34 186.155 129.516 186.363 130.394 188.073C130.538 188.361 130.554 188.712 130.394 189C129.356 190.79 129.659 193.156 131.496 194.179C132.63 194.818 133.747 194.371 134.45 193.444C134.754 193.044 135.009 192.596 135.057 192.181C135.121 191.701 134.77 191.094 134.306 190.902C134.163 190.838 133.668 190.838 133.604 190.982C133.252 191.621 133.652 192.069 133.221 192.117C133.061 192.133 132.71 191.893 132.662 191.701C132.47 190.998 132.901 190.343 133.508 190.071C134.801 189.511 136.143 190.966 136.287 192.181C136.35 192.756 135.744 193.364 135.456 193.891C135.728 194.291 136.063 194.834 135.919 195.33C135.776 195.793 135.217 196.081 134.642 196.145C133.827 196.241 133.157 195.969 132.598 195.506C132.262 195.218 131.783 195.154 131.4 195.394C130.218 196.113 129.883 196.321 128.733 195.65C128.334 195.426 127.823 195.522 127.52 195.857C127.2 196.193 126.881 196.513 126.529 196.752C125.715 197.296 124.501 197.52 123.687 196.96C122.952 196.449 122.761 195.298 123.048 194.467C123.112 194.275 123.495 193.955 123.687 193.891C123.895 193.827 124.342 194.035 124.501 194.227L124.134 194.706C123.575 195.458 124.262 196.561 125.156 196.289C125.156 196.289 125.156 196.289 125.172 196.289C126.226 195.953 126.945 194.77 126.913 193.699C126.881 192.612 126.274 191.526 125.14 191.078C123.751 190.534 121.93 190.646 120.749 191.701C120.03 192.341 119.695 193.316 119.407 194.227C119.296 194.579 118.992 194.866 118.625 194.914C115.495 195.314 113.131 197.552 113.163 198.415C113.163 198.623 113.371 198.942 114.345 199.278L127.408 199.454C133.3 199.454 139.193 199.486 145.086 199.502C145.644 199.502 146.092 199.054 146.092 198.511L146.155 189.703C146.155 188.552 146.124 187.497 146.203 186.315V169.931C146.219 169.003 145.086 168.572 144.479 169.259C143.632 170.234 142.85 171.513 142.674 172.44C142.61 172.776 142.403 173.063 142.067 173.175L141.093 173.511C139.943 173.911 138.89 175.253 138.714 176.5C138.522 177.811 139.896 180.352 141.924 179.889C142.77 179.697 143.457 179.09 143.68 178.163C143.744 177.875 143.489 177.331 143.233 177.235C142.85 177.092 142.387 177.315 142.067 177.667C141.956 177.651 141.7 177.491 141.604 177.379C141.508 177.267 141.556 176.804 141.684 176.676C142.003 176.372 142.898 176.101 143.473 176.372C143.888 176.564 144.367 177.172 144.447 177.779C144.606 178.994 144.095 180.304 143.089 180.96L142.674 181.232C142.339 181.455 144.495 182.974 142.946 184.396C142.834 184.492 142.61 184.812 142.658 184.924C142.898 185.499 144.287 187.178 142.962 188.648C142.738 188.888 142.243 189.192 141.988 189.112C141.86 189.08 141.716 188.984 141.588 188.888C141.269 188.632 140.838 188.584 140.486 188.792C140.311 188.904 140.135 188.984 139.991 189C139.113 189.128 138.347 188.632 137.979 188.073C137.5 187.338 137.42 186.379 137.963 185.691C138.267 185.292 139.033 185.052 139.321 185.403C139.401 185.483 139.496 185.835 139.496 185.931C139.528 186.267 138.57 185.979 138.315 186.251C138.219 186.363 138.219 186.874 138.283 187.018C138.506 187.434 139.225 187.657 139.72 187.673C141.125 187.673 142.067 185.18 141.285 183.853C140.614 182.702 139.081 182.271 137.868 182.574L137.947 182.59Z" fill="black"/>
<path d="M73.9275 190.998L73.6081 189.687C73.5282 189.384 73.6241 189.064 73.8157 188.808C74.7259 187.625 74.7898 186.139 74.1191 184.748L74.0552 184.221C74.0073 183.837 73.7518 183.501 73.3686 183.39L72.3785 183.054C70.3664 182.382 70.1588 182.558 68.4501 183.437C68.1626 183.581 67.8113 183.597 67.5239 183.437C65.7354 182.398 63.3719 182.702 62.3499 184.54C61.7112 185.675 62.1583 186.794 63.0845 187.498C63.4837 187.801 63.9309 188.057 64.346 188.105C64.8251 188.169 65.4319 187.817 65.6236 187.354C65.6874 187.21 65.6874 186.714 65.5437 186.65C64.905 186.299 64.4578 186.698 64.4099 186.267C64.394 186.107 64.6335 185.755 64.8251 185.707C65.5278 185.515 66.1825 185.947 66.454 186.554C67.0129 187.849 65.5597 189.192 64.346 189.336C63.7712 189.4 63.1643 188.792 62.6374 188.505C62.2381 188.776 61.6952 189.112 61.2001 188.968C60.737 188.824 60.4496 188.265 60.3857 187.689C60.2899 186.874 60.5614 186.203 61.0245 185.643C61.3119 185.308 61.3758 184.828 61.1363 184.444C60.4177 183.262 60.2101 182.926 60.8808 181.775C61.1043 181.375 61.0085 180.864 60.6732 180.56C60.3378 180.241 60.0184 179.921 59.7789 179.569C59.236 178.754 59.0124 177.539 59.5713 176.724C60.0823 175.989 61.2321 175.797 62.0625 176.085C62.2541 176.149 62.5735 176.532 62.6374 176.724C62.7012 176.932 62.4936 177.379 62.302 177.539L61.8229 177.172C61.0724 176.612 59.9705 177.299 60.242 178.195C60.242 178.195 60.242 178.195 60.242 178.211C60.5774 179.266 61.7591 179.985 62.829 179.953C63.9149 179.921 65.0008 179.313 65.4479 178.179C65.9909 176.788 65.8791 174.966 64.8251 173.783C64.1864 173.064 63.2122 172.728 62.302 172.44C61.9507 172.328 61.6633 172.025 61.6153 171.657C61.2161 168.524 58.9804 166.158 58.1181 166.19C57.9105 166.19 57.5911 166.398 57.2558 167.373L57.0801 180.448C57.0801 186.347 57.0482 192.245 57.0322 198.143C57.0322 198.703 57.4794 199.15 58.0223 199.15L66.8212 199.214C67.971 199.214 69.025 199.182 70.2067 199.262H86.5749C87.5011 199.278 87.9323 198.143 87.2456 197.536C86.2715 196.689 84.994 195.905 84.0678 195.729C83.7325 195.666 83.445 195.458 83.3332 195.122L82.9979 194.147C82.5987 192.996 81.2573 191.941 80.0117 191.765C78.7022 191.574 76.1631 192.948 76.6262 194.978C76.8179 195.825 77.4247 196.513 78.3509 196.737C78.6383 196.8 79.1813 196.545 79.2771 196.289C79.4208 195.905 79.1973 195.442 78.8459 195.122C78.8619 195.01 79.0216 194.754 79.1334 194.659C79.2452 194.563 79.7083 194.611 79.836 194.738C80.1394 195.058 80.4109 195.953 80.1394 196.529C79.9478 196.944 79.341 197.424 78.7341 197.504C77.5205 197.664 76.211 197.152 75.5563 196.145L75.2848 195.729C75.0613 195.394 73.5442 197.552 72.123 196.001C72.0272 195.889 71.7078 195.666 71.596 195.714C71.0211 195.953 69.3444 197.344 67.8752 196.017C67.6357 195.793 67.3323 195.298 67.4121 195.042C67.444 194.914 67.5399 194.77 67.6357 194.643C67.8912 194.323 67.9391 193.891 67.7315 193.54C67.6197 193.364 67.5399 193.188 67.5239 193.044C67.3961 192.165 67.8912 191.398 68.4501 191.03C69.1847 190.551 70.1428 190.471 70.8295 191.014C71.2287 191.318 71.4682 192.085 71.1169 192.373C71.0371 192.453 70.6858 192.549 70.5899 192.549C70.2546 192.581 70.542 191.622 70.2706 191.366C70.1588 191.27 69.6478 191.27 69.504 191.334C69.0889 191.558 68.8653 192.277 68.8493 192.772C68.8493 194.179 71.3405 195.122 72.6659 194.339C73.8157 193.668 74.2468 192.133 73.9434 190.918L73.9275 190.998Z" fill="black"/>
</svg>
