<svg width="204" height="206" viewBox="0 0 204 206" fill="none" xmlns="http://www.w3.org/2000/svg">
<path d="M174.562 85.2131C173.141 85.4849 171.592 85.6447 171.065 87.0833C170.698 88.1063 171.033 89.6888 171.704 90.5679C176.063 91.0794 174.418 90.3761 179.033 91.1433C181.445 91.543 182.914 92.9016 184.543 94.7079C185.676 95.9706 187.034 96.9936 187.337 98.8638C187.513 99.8868 187.96 101.23 188.487 102.029C189.333 101.709 190.116 101.357 190.627 101.293C191.282 101.214 192.32 102.221 192.383 102.86C192.479 103.883 191.697 104.874 190.866 105.354L188.359 104.474L186.842 108.215C184.431 114.113 178.315 116.958 172.071 115.663C171.288 116.447 170.793 117.741 170.985 118.956C171.272 120.747 174.067 120.858 174.77 121.498L173.444 123.448C172.981 124.135 172.119 124.695 171.288 124.679C170.602 124.679 169.58 124.279 169.005 123.56C166.21 120.171 166.689 114.864 170.218 112.147C172.582 110.325 176.606 113.01 179.177 110.341L182.339 107.064C182.674 106.712 182.706 105.705 182.578 105.29C182.451 104.874 181.588 103.979 181.173 104.171C179.385 105.018 178.506 106.744 177.676 108.598C176.271 107.911 174.881 107 173.412 106.456C170.586 105.417 166.242 110.516 165.364 112.099C164.054 114.449 163.911 117.134 164.07 119.755C164.278 123.336 166.098 126.309 168.877 128.675C167.711 130.465 166.466 131.68 164.853 133.118L161.563 129.906L162.857 128.259L161.34 125.094C160.813 123.991 160.493 122.681 160.19 121.498C159.12 117.134 159.918 112.818 162.346 109.03C163.687 106.952 165.46 105.322 167.248 103.483C166.178 102.316 164.885 101.277 163.927 100.015C160.206 95.2194 158.864 88.6817 160.733 82.8155C161.212 81.3289 162.202 80.0661 162.889 78.5956L161.659 77.125C162.458 75.8782 163.623 74.5994 165.013 73.6404L168.174 76.7094C169.931 78.4197 166.609 79.9702 165.364 81.9203C164.246 83.6626 164.246 85.8205 164.182 87.8186C164.007 92.7578 165.092 95.6989 169.292 98.7679C170.506 99.6471 172.039 100.031 173.492 100.59L176.143 98.1445C176.398 97.9048 177.181 97.7129 177.484 97.8568C178.427 98.3204 177.836 101.261 181.333 102.013C181.732 102.093 182.642 101.405 182.658 100.974C182.802 98.9597 179.64 94.9476 175.345 95.0915L171.272 95.2194C168.015 92.2782 166.833 91.0634 167.376 86.4439C167.6 84.5418 168.717 82.3359 170.777 82.0002C172.566 81.7125 174.243 83.4868 174.562 85.2611V85.2131Z" fill="black"/>
<path d="M147.016 25.5273C146.106 26.1347 145.18 26.8859 144.142 26.4064C143.391 26.0547 142.737 25.0158 142.609 24.1846C144.685 21.5631 144.174 22.8259 146.234 19.9327C147.32 18.4142 147.384 16.8957 147.288 15.0575C147.224 13.7787 147.4 12.484 146.569 11.3171C146.106 10.6777 145.627 9.70267 145.483 8.99935C146.106 8.71163 146.713 8.48785 147.032 8.2321C147.416 7.92839 147.448 6.80948 147.144 6.44184C146.649 5.83443 145.691 5.72254 144.988 5.91435L144.11 7.73658L141.283 6.55373C136.812 4.66757 132.005 6.44184 129.339 10.5019C128.492 10.5019 127.534 10.0703 126.991 9.31904C126.193 8.20013 127.63 6.63365 127.662 5.91435L125.905 5.57868C125.282 5.46679 124.516 5.62664 124.085 6.0742C123.718 6.44184 123.382 7.20909 123.462 7.91241C123.781 11.2372 126.895 13.8426 130.249 13.3951C132.485 13.1074 133.219 9.49487 136.046 9.54282L139.511 9.60676C139.878 9.60676 140.437 10.1342 140.597 10.438C140.756 10.7417 140.772 11.6688 140.437 11.7966C139.032 12.3081 137.611 11.8446 136.173 11.3011C135.79 12.42 135.535 13.6668 135.04 14.7537C134.081 16.8317 129.003 16.4321 127.678 16.0645C125.714 15.505 124.197 14.1463 122.871 12.6438C121.051 10.5978 120.444 8.0243 120.667 5.25899C119.071 4.92332 117.745 4.9393 116.116 5.03521L116.068 8.5358L117.649 8.72762L118.544 11.2372C118.847 12.1003 119.39 12.9955 119.869 13.7947C121.626 16.7198 124.388 18.606 127.726 19.3413C129.562 19.7409 131.399 19.661 133.347 19.677C133.395 20.8758 133.267 22.1386 133.411 23.3374C133.986 27.9249 136.78 32.1608 140.932 34.3027C141.986 34.8462 143.2 34.99 144.365 35.4056L144.493 36.8602C145.595 37.1 146.905 37.1639 148.166 36.9242L148.214 33.5674C148.246 31.6973 145.627 32.6563 143.902 32.2727C142.369 31.937 141.204 30.7702 140.102 29.7312C137.355 27.1737 136.349 24.9998 136.972 21.0836C137.147 19.9487 137.77 18.9257 138.249 17.8387L140.98 17.7269C141.252 17.7269 141.779 17.4072 141.858 17.1674C142.114 16.4001 140.214 15.1374 141.699 12.8676C141.874 12.6118 142.721 12.4999 142.976 12.7077C144.126 13.7148 144.589 17.567 142.21 19.8048L139.958 21.9148C139.782 25.2395 139.798 26.5343 142.577 28.7241C143.711 29.6193 145.499 30.2107 146.793 29.2836C147.911 28.4684 147.847 26.6142 147.064 25.4953L147.016 25.5273Z" fill="black"/>
<path d="M147.016 180.736C146.106 180.129 145.18 179.378 144.142 179.857C143.391 180.209 142.737 181.248 142.609 182.079C144.685 184.7 144.174 183.438 146.234 186.331C147.32 187.849 147.384 189.368 147.288 191.206C147.224 192.485 147.4 193.78 146.569 194.946C146.106 195.586 145.627 196.561 145.483 197.264C146.106 197.552 146.713 197.776 147.032 198.031C147.416 198.335 147.448 199.454 147.144 199.822C146.649 200.429 145.691 200.541 144.988 200.349L144.11 198.527L141.283 199.71C136.812 201.596 132.005 199.822 129.339 195.762C128.492 195.762 127.534 196.193 126.991 196.944C126.193 198.063 127.63 199.63 127.662 200.349L125.905 200.685C125.282 200.797 124.516 200.637 124.085 200.189C123.718 199.822 123.382 199.054 123.462 198.351C123.781 195.026 126.895 192.421 130.249 192.868C132.485 193.156 133.219 196.769 136.046 196.721L139.511 196.657C139.878 196.657 140.437 196.129 140.597 195.826C140.756 195.522 140.772 194.595 140.437 194.467C139.032 193.955 137.611 194.419 136.173 194.962C135.79 193.843 135.535 192.597 135.04 191.51C134.081 189.432 129.003 189.831 127.678 190.199C125.714 190.758 124.197 192.117 122.871 193.62C121.051 195.666 120.444 198.239 120.667 201.004C119.071 201.34 117.745 201.324 116.116 201.228L116.068 197.728L117.649 197.536L118.544 195.026C118.847 194.163 119.39 193.268 119.869 192.469C121.626 189.544 124.388 187.657 127.726 186.922C129.562 186.523 131.399 186.603 133.347 186.587C133.395 185.388 133.267 184.125 133.411 182.926C133.986 178.339 136.78 174.103 140.932 171.961C141.986 171.417 143.2 171.273 144.365 170.858L144.493 169.403C145.595 169.163 146.905 169.1 148.166 169.339L148.214 172.696C148.246 174.566 145.627 173.607 143.902 173.991C142.369 174.326 141.204 175.493 140.102 176.532C137.355 179.09 136.349 181.264 136.972 185.18C137.147 186.315 137.77 187.338 138.249 188.425L140.98 188.537C141.252 188.537 141.779 188.856 141.858 189.096C142.114 189.863 140.214 191.126 141.699 193.396C141.874 193.652 142.721 193.764 142.976 193.556C144.126 192.549 144.589 188.696 142.21 186.459L139.958 184.349C139.782 181.024 139.798 179.729 142.577 177.539C143.711 176.644 145.499 176.053 146.793 176.98C147.911 177.795 147.847 179.649 147.064 180.768L147.016 180.736Z" fill="black"/>
<path d="M56.2321 179.969C57.1424 179.361 58.0686 178.61 59.1066 179.09C59.8571 179.441 60.5119 180.48 60.6396 181.312C58.5636 183.933 59.0746 182.67 57.0146 185.563C55.9287 187.082 55.8649 188.6 55.9607 190.439C56.0246 191.717 55.8489 193.012 56.6793 194.179C57.1424 194.818 57.6215 195.793 57.7652 196.497C57.1424 196.784 56.5356 197.008 56.2162 197.264C55.8329 197.568 55.801 198.687 56.1044 199.054C56.5994 199.662 57.5576 199.774 58.2602 199.582L59.1385 197.76L61.965 198.942C66.4364 200.829 71.243 199.054 73.9099 194.994C74.7562 194.994 75.7144 195.426 76.2573 196.177C77.0558 197.296 75.6186 198.862 75.5866 199.582L77.3432 199.917C77.966 200.029 78.7325 199.869 79.1637 199.422C79.531 199.054 79.8663 198.287 79.7865 197.584C79.4671 194.259 76.3531 191.653 72.9996 192.101C70.764 192.389 70.0294 196.001 67.2029 195.953L63.7376 195.889C63.3703 195.889 62.8114 195.362 62.6517 195.058C62.492 194.754 62.476 193.827 62.8114 193.699C64.2167 193.188 65.6379 193.651 67.0751 194.195C67.4584 193.076 67.7139 191.829 68.2089 190.742C69.1671 188.664 74.2452 189.064 75.5707 189.432C77.5348 189.991 79.0519 191.35 80.3773 192.852C82.1978 194.898 82.8046 197.472 82.5811 200.237C84.178 200.573 85.5034 200.557 87.1322 200.461L87.1801 196.96L85.5992 196.768L84.7049 194.259C84.4015 193.396 83.8586 192.501 83.3795 191.701C81.6229 188.776 78.8603 186.89 75.5227 186.155C73.6863 185.755 71.8499 185.835 69.9016 185.819C69.8537 184.62 69.9815 183.358 69.8378 182.159C69.2629 177.571 66.4683 173.335 62.3164 171.193C61.2624 170.65 60.0487 170.506 58.883 170.09L58.7553 168.636C57.6534 168.396 56.3439 168.332 55.0824 168.572L55.0345 171.929C55.0025 173.799 57.6215 172.84 59.3461 173.223C60.8791 173.559 62.0449 174.726 63.1467 175.765C65.8934 178.322 66.8995 180.496 66.2767 184.412C66.101 185.547 65.4782 186.57 64.9992 187.657L62.2684 187.769C61.997 187.769 61.47 188.089 61.3901 188.329C61.1346 189.096 63.035 190.359 61.5498 192.628C61.3742 192.884 60.5278 192.996 60.2723 192.788C59.1225 191.781 58.6594 187.929 61.0388 185.691L63.2905 183.581C63.4661 180.257 63.4502 178.962 60.6715 176.772C59.5377 175.877 57.7492 175.285 56.4557 176.212C55.3379 177.028 55.4018 178.882 56.1842 180.001L56.2321 179.969Z" fill="black"/>
<path d="M56.2321 25.5273C57.1424 26.1347 58.0686 26.8859 59.1066 26.4064C59.8571 26.0547 60.5119 25.0158 60.6396 24.1846C58.5636 21.5631 59.0746 22.8259 57.0146 19.9327C55.9287 18.4142 55.8649 16.8957 55.9607 15.0575C56.0246 13.7787 55.8489 12.484 56.6793 11.3171C57.1424 10.6777 57.6215 9.70267 57.7652 8.99935C57.1424 8.71163 56.5356 8.48785 56.2162 8.2321C55.8329 7.92839 55.801 6.80948 56.1044 6.44184C56.5994 5.83443 57.5576 5.72254 58.2602 5.91435L59.1385 7.73658L61.965 6.55373C66.4364 4.66757 71.243 6.44184 73.9099 10.5019C74.7562 10.5019 75.7144 10.0703 76.2573 9.31904C77.0558 8.20013 75.6186 6.63365 75.5866 5.91435L77.3432 5.57868C77.966 5.46679 78.7325 5.62664 79.1637 6.0742C79.531 6.44184 79.8663 7.20909 79.7865 7.91241C79.4671 11.2372 76.3531 13.8426 72.9996 13.3951C70.764 13.1074 70.0294 9.49487 67.2029 9.54282L63.7376 9.60676C63.3703 9.60676 62.8114 10.1342 62.6517 10.438C62.492 10.7417 62.476 11.6688 62.8114 11.7966C64.2167 12.3081 65.6379 11.8446 67.0751 11.3011C67.4584 12.42 67.7139 13.6668 68.2089 14.7537C69.1671 16.8317 74.2452 16.4321 75.5707 16.0645C77.5348 15.505 79.0519 14.1463 80.3773 12.6438C82.1978 10.5978 82.8046 8.0243 82.5811 5.25899C84.178 4.92332 85.5034 4.9393 87.1322 5.03521L87.1801 8.5358L85.5992 8.72762L84.7049 11.2372C84.4015 12.1003 83.8586 12.9955 83.3795 13.7947C81.6229 16.7198 78.8603 18.606 75.5227 19.3413C73.6863 19.7409 71.8499 19.661 69.9016 19.677C69.8537 20.8758 69.9815 22.1386 69.8378 23.3374C69.2629 27.9249 66.4683 32.1608 62.3164 34.3027C61.2624 34.8462 60.0487 34.99 58.883 35.4056L58.7553 36.8602C57.6534 37.1 56.3439 37.1639 55.0824 36.9242L55.0345 33.5674C55.0025 31.6973 57.6215 32.6563 59.3461 32.2727C60.8791 31.937 62.0449 30.7702 63.1467 29.7312C65.8934 27.1737 66.8995 24.9998 66.2767 21.0836C66.101 19.9487 65.4782 18.9257 64.9992 17.8387L62.2684 17.7269C61.997 17.7269 61.47 17.4072 61.3901 17.1674C61.1346 16.4001 63.035 15.1374 61.5498 12.8676C61.3742 12.6118 60.5278 12.4999 60.2723 12.7077C59.1225 13.7148 58.6594 17.567 61.0388 19.8048L63.2905 21.9148C63.4661 25.2395 63.4502 26.5343 60.6715 28.7241C59.5377 29.6193 57.7492 30.2107 56.4557 29.2836C55.3379 28.4684 55.4018 26.6142 56.1842 25.4953L56.2321 25.5273Z" fill="black"/>
<path d="M114.982 22.0906C114.79 23.1136 114.678 24.2165 113.656 24.5841C112.922 24.8559 111.804 24.6001 111.165 24.1366C110.798 21.0196 111.309 22.2024 110.75 18.8937C110.462 17.1674 109.504 16.1124 108.211 14.9455C107.317 14.1303 106.582 13.1712 105.257 12.9475C104.522 12.8196 103.564 12.4999 103.005 12.1323C103.228 11.5248 103.484 10.9654 103.532 10.5977C103.58 10.1342 102.861 9.38293 102.414 9.33498C101.679 9.25505 100.977 9.83049 100.625 10.4219L101.248 12.2122L98.5814 13.2991C94.3656 15.0254 92.3376 19.4052 93.2638 23.8648C92.7048 24.4243 91.7786 24.7759 90.9163 24.6321C89.6388 24.4243 89.5589 22.4262 89.0958 21.9307L87.7065 22.8898C87.2115 23.2255 86.8282 23.8488 86.8282 24.4403C86.8282 24.9358 87.1157 25.6551 87.6267 26.0867C90.054 28.0847 93.8386 27.7491 95.7709 25.2235C97.0644 23.5451 95.1481 20.652 97.0644 18.8138L99.4118 16.5599C99.6514 16.3202 100.37 16.2882 100.689 16.3841C101.009 16.48 101.616 17.0874 101.488 17.3911C100.881 18.6699 99.6514 19.2933 98.3259 19.8847C98.821 20.8917 99.4757 21.8828 99.859 22.9377C100.61 24.9518 96.9686 28.0687 95.8348 28.6921C94.158 29.6352 92.2417 29.7311 90.3734 29.6192C87.8183 29.4754 85.6944 28.1646 84.0017 26.1826C82.7242 27.0138 81.8459 27.9089 80.8398 29.0598L83.1394 31.4095L84.3051 30.4824L86.5568 31.5693C87.3392 31.937 88.2814 32.1767 89.1278 32.3845C92.2417 33.1518 95.3238 32.5764 98.0385 30.834C99.5236 29.875 100.689 28.5962 101.999 27.3175C102.829 28.0847 103.58 28.9958 104.474 29.6992C107.891 32.3686 112.57 33.3276 116.754 31.9849C117.824 31.6493 118.718 30.93 119.772 30.4344L120.826 31.3136C121.721 30.7541 122.631 29.9069 123.317 28.9159L121.13 26.6621C119.916 25.3993 118.814 27.781 117.409 28.6761C116.163 29.4754 114.614 29.4754 113.193 29.5233C109.664 29.6512 107.572 28.868 105.368 25.8629C104.73 24.9997 104.474 23.8968 104.059 22.8578L105.799 20.9716C105.975 20.7958 106.119 20.2204 106.007 20.0126C105.672 19.3412 103.58 19.7568 103.053 17.2633C102.989 16.9755 103.484 16.3362 103.787 16.3042C105.225 16.2083 108.083 18.4621 107.987 21.5311L107.891 24.4403C109.983 26.774 110.862 27.6212 114.151 27.2216C115.509 27.0617 117.09 26.2625 117.313 24.7919C117.521 23.5132 116.243 22.3143 114.982 22.0906Z" fill="black"/>
<path d="M89.1278 183.406C89.3195 182.383 89.4312 181.28 90.4533 180.912C91.1878 180.64 92.3057 180.896 92.9444 181.36C93.3117 184.477 92.8007 183.294 93.3596 186.602C93.6471 188.329 94.6052 189.384 95.8987 190.551C96.793 191.366 97.5275 192.325 98.853 192.549C99.5876 192.677 100.546 192.996 101.105 193.364C100.881 193.971 100.626 194.531 100.578 194.898C100.53 195.362 101.248 196.113 101.695 196.161C102.43 196.241 103.133 195.666 103.484 195.074L102.861 193.284L105.528 192.197C109.744 190.471 111.772 186.091 110.846 181.631C111.405 181.072 112.331 180.72 113.193 180.864C114.471 181.072 114.551 183.07 115.014 183.565L116.403 182.606C116.898 182.271 117.281 181.647 117.281 181.056C117.281 180.56 116.994 179.841 116.483 179.409C114.055 177.411 110.271 177.747 108.339 180.273C107.045 181.951 108.961 184.844 107.045 186.682L104.698 188.936C104.458 189.176 103.739 189.208 103.42 189.112C103.101 189.016 102.494 188.409 102.622 188.105C103.228 186.826 104.458 186.203 105.784 185.611C105.288 184.604 104.634 183.613 104.251 182.558C103.5 180.544 107.141 177.427 108.275 176.804C109.951 175.861 111.868 175.765 113.736 175.877C116.291 176.021 118.415 177.331 120.108 179.314C121.385 178.482 122.264 177.587 123.27 176.436L120.97 174.087L119.804 175.014L117.553 173.927C116.77 173.559 115.828 173.319 114.982 173.112C111.868 172.344 108.786 172.92 106.071 174.662C104.586 175.621 103.42 176.9 102.111 178.179C101.28 177.411 100.53 176.5 99.6355 175.797C96.2181 173.128 91.5392 172.169 87.3553 173.511C86.2853 173.847 85.3911 174.566 84.3371 175.062L83.2832 174.183C82.3889 174.742 81.4787 175.589 80.792 176.58L82.9797 178.834C84.1934 180.097 85.2953 177.715 86.7005 176.82C87.9461 176.021 89.4951 176.021 90.9164 175.973C94.4455 175.845 96.5375 176.628 98.7412 179.633C99.38 180.496 99.6355 181.599 100.051 182.638L98.31 184.524C98.1344 184.7 97.9906 185.276 98.1024 185.484C98.4378 186.155 100.53 185.739 101.057 188.233C101.121 188.521 100.626 189.16 100.322 189.192C98.8849 189.288 96.0265 187.034 96.1223 183.965L96.2181 181.056C94.1261 178.722 93.2478 177.875 89.9582 178.275C88.6009 178.434 87.0199 179.234 86.7963 180.704C86.5887 181.983 87.8663 183.182 89.1278 183.406Z" fill="black"/>
<path d="M29.0042 121.418C30.4255 121.146 31.9745 120.986 32.5015 119.548C32.8687 118.525 32.5334 116.942 31.8627 116.063C27.5031 115.552 29.148 116.255 24.5329 115.488C22.1216 115.088 20.6524 113.729 19.0236 111.923C17.8898 110.66 16.5324 109.637 16.229 107.767C16.0533 106.744 15.6062 105.401 15.0792 104.602C14.2329 104.922 13.4504 105.274 12.9394 105.338C12.2846 105.417 11.2467 104.41 11.1828 103.771C11.087 102.748 11.8695 101.757 12.6998 101.277L15.207 102.157L16.724 98.4163C19.1354 92.518 25.2515 89.6728 31.4954 90.9675C32.2779 90.1843 32.7729 88.8895 32.5813 87.6747C32.2939 85.8845 29.4993 85.7726 28.7966 85.1332L30.1221 83.1831C30.5852 82.4958 31.4475 81.9363 32.2779 81.9523C32.9646 81.9523 33.9866 82.3519 34.5615 83.0712C37.356 86.4599 36.877 91.7667 33.3478 94.4841C30.9844 96.3063 26.9602 93.6209 24.3892 96.2903L21.2273 99.5671C20.892 99.9188 20.86 100.926 20.9878 101.341C21.1155 101.757 21.9779 102.652 22.393 102.46C24.1816 101.613 25.0599 99.8868 25.8903 98.0326C27.2955 98.72 28.6849 99.6311 30.154 100.175C32.9805 101.214 37.3241 96.1145 38.2024 94.532C39.5119 92.1823 39.6556 89.4969 39.4959 86.8755C39.2883 83.295 37.4678 80.3219 34.6892 77.9562C35.8549 76.1659 37.1005 74.9511 38.7134 73.5125L42.003 76.7254L40.7095 78.3718L42.2266 81.5367C42.7536 82.6396 43.073 83.9503 43.3764 85.1332C44.4463 89.4969 43.6478 93.8127 41.2205 97.6011C39.8791 99.679 38.1066 101.309 36.3181 103.148C37.388 104.315 38.6815 105.354 39.6396 106.616C43.3604 111.412 44.7018 117.949 42.8334 123.816C42.3543 125.302 41.3643 126.565 40.6776 128.035L41.9072 129.506C41.1088 130.753 39.943 132.032 38.5537 132.991L35.3918 129.922C33.6353 128.211 36.9568 126.661 38.2024 124.711C39.3202 122.968 39.3202 120.81 39.3841 118.812C39.5598 113.873 38.4739 110.932 34.274 107.863C33.0604 106.984 31.5273 106.6 30.0742 106.041L27.4233 108.486C27.1678 108.726 26.3853 108.918 26.0819 108.774C25.1397 108.311 25.7306 105.369 22.2334 104.618C21.8341 104.538 20.9239 105.226 20.9079 105.657C20.7642 107.671 23.9261 111.683 28.2217 111.539L32.2939 111.412C35.5515 114.353 36.7332 115.568 36.1903 120.187C35.9667 122.089 34.8489 124.295 32.7889 124.631C31.0004 124.918 29.3236 123.144 29.0042 121.37V121.418Z" fill="black"/>
</svg>
