<svg width="204" height="206" viewBox="0 0 204 206" fill="none" xmlns="http://www.w3.org/2000/svg">
<path d="M134.288 14.1462C133.586 16.0963 133.714 16.8955 131.893 17.8866L130.488 18.6538C130.28 18.7657 130.152 19.1334 130.264 19.3412L130.951 20.6039C130.456 21.2753 130.041 21.6589 129.37 21.531C127.789 21.2273 128.524 19.517 128.124 18.51L127.086 18.0304C126.096 17.5669 125.505 16.9435 125.218 15.8566C125.01 15.0573 124.643 14.1143 124.994 13.2671C126.048 10.8055 125.985 10.31 124.212 8.29592C123.781 7.81638 123.972 7.11307 121.242 7.56063C120.619 7.65654 120.028 8.43978 120.076 9.0312C120.108 9.47876 120.587 9.89436 120.906 9.91034C121.992 9.97428 122.391 8.83939 122.982 9.57467C123.11 9.73451 123.254 10.1022 123.302 10.3739C123.461 11.2371 122.998 12.0682 122.152 12.3719C121.657 12.5638 120.539 12.5797 120.044 12.3719C119.421 11.7645 118.719 11.0452 118.335 10.294C118.064 9.7505 118.096 8.40781 118.335 7.84835C118.639 7.177 119.485 6.47369 120.14 6.13802C121.05 5.67447 122.152 5.6425 123.174 5.70644C123.717 5.73841 124.228 6.09006 124.659 6.31384C125.458 6.71346 125.889 7.32086 126.272 8.05615L126.751 8.96726L127.262 10.9333C127.917 10.9653 128.54 10.9014 129.114 10.9813C130.759 11.2051 131.478 12.9794 130.887 14.37C130.6 15.0413 130.216 15.3291 129.418 15.3291C129.146 15.3291 128.635 15.1373 128.476 14.8655C128.076 14.2102 129.546 13.2191 128.172 13.1072C127.597 13.0593 127.294 13.395 127.102 13.8585C126.543 15.1532 127.597 16.0324 128.731 16.7357C129.067 16.9435 130.009 16.9275 130.376 16.7837C131.35 16.384 132.244 15.441 132.516 14.4659C132.787 13.4909 132.037 12.6597 131.941 11.8285C131.845 10.9973 131.717 10.7415 131.095 10.3579C129.721 9.5427 129.098 7.97623 128.188 6.76141C127.821 6.28188 126.879 6.28188 126.831 5.4347H140.884L142.209 6.29786L143.167 5.41872L146.457 5.48265V8.85537C146.233 9.07915 145.706 9.49475 145.658 9.7505C145.579 10.23 146.201 10.8055 146.473 11.1891V25.3353C144.86 23.1934 142.704 22.7299 141.57 21.1474C141.187 20.6199 141.139 20.3322 140.468 20.2203C139.367 20.0285 138.185 19.3092 136.971 19.7887C136.317 20.0445 135.374 21.1154 135.167 21.7868C134.847 22.7778 135.63 23.625 136.141 24.2644C136.812 25.0796 137.993 24.8398 138.456 24.3603C138.664 24.1365 138.792 23.577 138.696 23.3213L137.051 23.4651C136.748 23.1614 136.716 22.3303 136.859 21.8507C136.971 21.4671 137.482 20.9396 137.929 20.8437C138.856 20.6199 139.446 20.9876 140.069 21.4991C141.65 22.8098 140.74 23.609 141.219 24.9037C142.544 24.7439 143.455 25.2714 144.461 25.8948C145.339 26.4383 145.722 27.1416 146.106 28.0847C146.585 29.2515 146.76 30.3704 145.994 31.5053C145.642 32.0328 145.451 33.1038 144.557 33.1997C143.582 33.2956 142.113 33.2796 141.091 33.2636C141.171 33.2636 139.239 32.5603 139.399 30.5942C139.494 29.4114 140.564 28.4203 141.794 28.5642C142.017 28.5962 142.449 28.9478 142.512 29.1556C142.672 29.6831 141.363 30.8659 142.129 31.5213C142.928 32.2086 143.966 31.6492 144.365 30.818C144.684 30.1626 144.844 29.4433 144.365 28.756C142.64 26.3423 141.858 26.0227 139.047 26.9018C137.61 27.3494 135.981 26.8538 134.72 26.0866C133.714 25.4632 134.161 23.7049 132.468 23.8807C131.558 23.9766 130.775 23.6729 130.536 22.7778C130.376 22.1704 130.807 21.1474 131.59 21.0675C132.005 21.4032 132.819 22.0425 133.362 21.579C133.905 20.0924 134.927 18.5419 136.588 18.1423L137.834 17.8546C137.067 16.4 137.61 15.1532 138.504 14.0183C139.143 13.2031 139.654 12.7236 140.82 12.7396C141.89 12.7396 143.487 12.9634 143.55 14.4819L143.646 16.7197C143.646 17.0554 144.764 16.9275 144.796 16.5439C144.908 15.1053 144.844 13.6827 144.541 12.324C144.157 10.6137 142.225 11.2051 141.155 10.9813L140.963 8.90332C139.303 7.27291 137.45 6.64952 135.231 7.11307C134.959 7.177 134.752 7.8963 134.895 8.13607C135.454 9.07915 136.348 7.51268 138.217 8.80742C138.856 9.239 139.367 10.3419 139.414 11.1891C139.335 12.4998 138.52 13.363 137.434 14.0663C136.508 14.6737 135.31 14.402 134.336 14.1622L134.288 14.1462ZM143.407 8.7275C144.237 8.42379 145.451 7.65654 145.451 6.72944C145.451 6.58558 144.908 6.58558 144.796 6.6655L143.678 7.62457C143.391 7.86434 143.295 8.35985 143.423 8.7275H143.407ZM139.287 15.425C138.488 17.3751 140.452 18.6378 142.017 18.9895C143.79 20.0445 143.008 21.2593 144.796 20.7957V18.446L142.896 18.3501C142.241 16.6398 140.548 18.5739 140.229 16.4959C140.053 15.3291 141.363 15.5369 141.874 15.0094C141.97 14.9135 141.602 14.5139 141.395 14.4819C140.676 14.386 139.51 14.8495 139.287 15.409V15.425ZM131.206 7.52866C130.903 9.36687 133.139 8.15206 133.538 10.8854C133.714 12.0523 134.512 12.8195 135.662 12.8515C136.317 12.8515 136.668 12.6117 137.067 12.1002C137.418 11.6367 137.578 10.6936 137.259 10.3419C137.115 10.214 136.524 10.3259 136.492 10.5178L136.332 11.4289C136.269 11.8285 135.598 11.9883 135.167 11.8445C134.768 11.7166 134.512 11.1891 134.384 10.7096L133.985 9.04718C133.857 8.91931 133.41 8.77545 133.426 8.6156L133.538 7.48071L131.222 7.54465L131.206 7.52866Z" fill="black"/>
<path d="M99.1273 22.8897C99.9896 24.7439 100.644 25.2074 100.053 27.1735L99.6063 28.6921C99.5425 28.9158 99.7022 29.2515 99.9417 29.3314L101.299 29.731C101.427 30.5462 101.395 31.1057 100.836 31.4733C99.5265 32.3525 98.8398 30.6581 97.8498 30.2425L96.7958 30.6262C95.7897 31.0098 94.9274 30.9778 93.9693 30.4024C93.2666 29.9868 92.3404 29.5872 92.0211 28.756C91.0469 26.3104 90.6477 25.9907 87.9969 25.8308C87.3741 25.7989 87.0068 25.1755 85.4099 27.3973C85.0426 27.9088 85.1703 28.8519 85.6175 29.2355C85.9528 29.5232 86.5756 29.4913 86.8151 29.2835C87.6136 28.5642 87.1026 27.5092 88.0288 27.6051C88.2364 27.6211 88.5877 27.7809 88.7953 27.9408C89.4979 28.4363 89.7694 29.3314 89.3862 30.1466C89.1626 30.6262 88.3961 31.4094 87.901 31.6172C87.0387 31.6172 86.0486 31.6172 85.2661 31.3615C84.6913 31.1856 83.781 30.2106 83.5734 29.6511C83.302 28.9638 83.4137 27.8928 83.6373 27.1895C83.9567 26.2305 84.6913 25.4312 85.4578 24.7599C85.857 24.4082 86.4638 24.2963 86.9269 24.1365C87.7573 23.8648 88.4919 23.9766 89.2744 24.2164L90.2485 24.5201L91.9891 25.5431C92.4682 25.1115 92.8674 24.632 93.3145 24.2804C94.624 23.2893 96.3646 24.0246 96.9235 25.4152C97.195 26.0866 97.1311 26.5501 96.5563 27.1096C96.3646 27.2854 95.8856 27.5252 95.5821 27.4453C94.8316 27.2694 95.167 25.5431 94.1449 26.4382C93.7138 26.8059 93.7297 27.2535 93.9214 27.717C94.4483 29.0117 95.7738 28.8999 97.0673 28.5802C97.4505 28.4843 98.0893 27.8289 98.249 27.4613C98.6482 26.5022 98.6322 25.2234 98.1212 24.3443C97.6102 23.4651 96.5084 23.4172 95.8856 22.9057C95.2628 22.3942 94.9753 22.2983 94.2727 22.4741C92.7397 22.8577 91.2226 22.2024 89.7375 21.9946C89.1466 21.9147 88.4919 22.586 87.8531 22.0265L97.6581 12.1961L99.1912 11.8764L99.2391 10.5977L101.587 8.32788L103.934 10.6936C103.934 11.0133 103.854 11.6686 104.014 11.8764C104.301 12.276 105.132 12.2281 105.595 12.308L115.464 22.1864C112.829 21.8347 111.008 23.0016 109.108 22.6979C108.485 22.602 108.246 22.4421 107.687 22.8258C106.776 23.4651 105.451 23.7848 104.94 24.9677C104.669 25.6071 104.748 27.0137 105.068 27.6211C105.531 28.5322 106.665 28.5802 107.479 28.6601C108.501 28.756 109.172 27.765 109.156 27.1096C109.156 26.8059 108.852 26.3264 108.597 26.2145L107.559 27.4613C107.128 27.4613 106.537 26.9018 106.297 26.4702C106.106 26.1345 106.106 25.3993 106.345 25.0156C106.84 24.2164 107.511 24.0566 108.294 23.9766C110.306 23.7848 110.226 24.9837 111.487 25.5591C112.302 24.5201 113.308 24.2484 114.442 23.9926C115.432 23.7688 116.198 23.9926 117.124 24.3763C118.274 24.8558 119.168 25.5112 119.44 26.8379C119.568 27.4453 120.174 28.3404 119.616 29.0277C119.009 29.779 117.955 30.786 117.236 31.5053C117.284 31.4574 115.448 32.3045 114.186 30.818C113.42 29.9229 113.467 28.4843 114.442 27.733C114.617 27.5891 115.176 27.5412 115.352 27.6531C115.831 27.9088 115.751 29.6511 116.725 29.5712C117.763 29.4913 118.098 28.3724 117.795 27.5252C117.556 26.8538 117.172 26.2304 116.358 26.0866C113.467 25.5911 112.701 25.9267 111.344 28.5162C110.657 29.827 109.172 30.6262 107.735 30.9778C106.601 31.2496 105.675 29.6991 104.621 31.0098C104.046 31.7131 103.295 32.0488 102.497 31.5852C101.954 31.2815 101.555 30.2585 102.034 29.6511C102.561 29.6032 103.583 29.4753 103.631 28.756C102.976 27.3334 102.593 25.5431 103.487 24.1045L104.158 23.0176C102.609 22.538 102.113 21.2913 101.938 19.8686C101.826 18.8616 101.842 18.1583 102.672 17.3591C103.439 16.6238 104.7 15.6488 105.802 16.6558L107.431 18.1583C107.671 18.3821 108.357 17.5349 108.102 17.2312C107.176 16.1443 106.154 15.2012 104.988 14.4499C103.535 13.5228 102.593 15.2811 101.698 15.8725L100.101 14.5618C97.8018 14.5938 96.0772 15.441 94.8476 17.3271C94.6879 17.5669 95.0552 18.2063 95.3266 18.2702C96.3646 18.526 95.9015 16.8156 98.1212 16.416C98.8718 16.2721 100.006 16.6877 100.612 17.2312C101.475 18.2063 101.507 19.3891 101.235 20.6359C100.996 21.7069 99.9896 22.3462 99.1432 22.8737L99.1273 22.8897ZM101.714 12.7236C102.082 11.9244 102.385 10.5497 101.746 9.89436C101.65 9.79845 101.267 10.1661 101.251 10.31L101.139 11.7645C101.107 12.1322 101.379 12.5478 101.73 12.7236H101.714ZM103.503 20.2842C104.301 22.2024 106.553 21.7069 107.894 20.8757C109.874 20.3801 110.178 21.7708 111.104 20.1883L109.459 18.5579L108.07 19.8207C106.409 19.0854 106.585 21.6269 104.908 20.3961C103.966 19.7088 105.036 18.9256 105.02 18.2063C105.02 18.0624 104.477 18.0464 104.317 18.1743C103.742 18.6059 103.263 19.7408 103.487 20.3002L103.503 20.2842ZM92.3724 20.4121C93.4423 21.8987 94.1449 19.501 96.3487 21.1154C97.2908 21.8028 98.3767 21.7868 99.2071 21.0035C99.6702 20.556 99.7341 20.1404 99.6543 19.501C99.5744 18.9256 99.0315 18.1583 98.5524 18.1423C98.3608 18.1423 98.0254 18.6378 98.1372 18.7977L98.6642 19.549C98.8877 19.8686 98.5524 20.4441 98.1372 20.6519C97.7699 20.8437 97.227 20.6519 96.7958 20.3961L95.3586 19.517C95.1829 19.517 94.7677 19.7248 94.6719 19.6129L93.9533 18.7338L92.3883 20.3961L92.3724 20.4121Z" fill="black"/>
<path d="M171.13 98.4482C168.352 99.7429 167.665 100.702 164.743 99.8388L162.475 99.1675C162.14 99.0715 161.629 99.3113 161.533 99.663L160.926 101.709C159.713 101.901 158.882 101.869 158.323 101.022C156.998 99.0556 159.537 98.0326 160.16 96.562L159.569 94.9795C159.01 93.461 159.058 92.1822 159.904 90.7596C160.527 89.7047 161.118 88.33 162.363 87.8345C166.02 86.3799 166.483 85.7725 166.723 81.8243C166.787 80.8813 167.697 80.3538 164.392 77.9561C163.625 77.3966 162.22 77.6044 161.645 78.2758C161.214 78.7873 161.278 79.7144 161.581 80.066C162.667 81.2649 164.232 80.4976 164.088 81.8723C164.056 82.176 163.817 82.7035 163.593 83.0232C162.859 84.0781 161.517 84.4778 160.303 83.9023C159.585 83.5666 158.403 82.4317 158.116 81.6805C158.116 80.3857 158.116 78.9152 158.499 77.7323C158.77 76.8851 160.224 75.5265 161.054 75.1908C162.076 74.7912 163.673 74.951 164.727 75.3027C166.164 75.7662 167.346 76.8851 168.352 78.02C168.879 78.6274 169.039 79.5226 169.278 80.2099C169.693 81.4567 169.534 82.5436 169.15 83.7105L168.687 85.1651L167.17 87.7546C167.825 88.4579 168.528 89.0653 169.055 89.7526C170.54 91.7187 169.422 94.3082 167.362 95.1554C166.372 95.555 165.669 95.4591 164.823 94.6119C164.551 94.3401 164.216 93.6049 164.328 93.1573C164.599 92.0544 167.154 92.5499 165.829 90.9994C165.27 90.344 164.615 90.376 163.928 90.6637C161.996 91.447 162.172 93.445 162.635 95.3632C162.779 95.9386 163.753 96.8977 164.296 97.1214C165.733 97.7129 167.649 97.6809 168.959 96.9296C170.268 96.1784 170.348 94.532 171.099 93.5729C171.849 92.6138 172.009 92.2142 171.737 91.1433C171.162 88.8575 172.137 86.5877 172.44 84.3499C172.568 83.4547 171.562 82.4957 172.392 81.5366L187.068 96.1943L187.547 98.4961L189.463 98.576L192.848 102.077L189.335 105.593C188.856 105.593 187.882 105.481 187.563 105.705C186.972 106.121 187.036 107.367 186.908 108.071L172.168 122.84C172.695 118.908 170.955 116.175 171.402 113.346C171.546 112.403 171.801 112.051 171.21 111.22C170.252 109.861 169.773 107.879 168.001 107.112C167.058 106.696 164.95 106.824 164.04 107.304C162.683 108.007 162.603 109.701 162.491 110.9C162.348 112.435 163.833 113.442 164.807 113.41C165.254 113.41 165.972 112.946 166.132 112.562L164.28 110.996C164.28 110.357 165.11 109.461 165.765 109.094C166.276 108.822 167.362 108.806 167.937 109.158C169.134 109.893 169.374 110.9 169.486 112.067C169.773 115.088 167.985 114.96 167.138 116.83C168.687 118.045 169.086 119.548 169.486 121.242C169.821 122.729 169.486 123.863 168.911 125.238C168.176 126.964 167.218 128.291 165.238 128.691C164.328 128.867 163.002 129.794 161.964 128.946C160.83 128.035 159.329 126.469 158.275 125.398C158.355 125.478 157.078 122.729 159.297 120.826C160.623 119.691 162.779 119.755 163.912 121.194C164.12 121.466 164.184 122.281 164.04 122.569C163.657 123.288 161.054 123.16 161.182 124.631C161.31 126.181 162.97 126.693 164.232 126.245C165.238 125.893 166.164 125.302 166.372 124.087C167.106 119.771 166.611 118.621 162.747 116.59C160.783 115.552 159.601 113.33 159.074 111.204C158.659 109.509 160.974 108.119 159.01 106.552C157.956 105.705 157.461 104.57 158.148 103.371C158.611 102.556 160.128 101.949 161.022 102.668C161.102 103.451 161.278 104.97 162.348 105.05C164.471 104.059 167.138 103.515 169.294 104.842L170.907 105.849C171.626 103.531 173.494 102.78 175.602 102.54C177.119 102.364 178.157 102.412 179.355 103.643C180.456 104.778 181.91 106.68 180.393 108.327L178.157 110.756C177.822 111.108 179.099 112.147 179.53 111.763C181.143 110.389 182.564 108.838 183.666 107.096C185.055 104.922 182.421 103.499 181.526 102.173L183.491 99.7908C183.443 96.3542 182.181 93.7647 179.371 91.9265C179.019 91.7027 178.045 92.2462 177.949 92.6458C177.566 94.2123 180.121 93.509 180.728 96.8177C180.935 97.9366 180.329 99.631 179.498 100.542C178.045 101.821 176.288 101.869 174.42 101.469C172.823 101.118 171.865 99.599 171.083 98.3363L171.13 98.4482ZM186.301 102.316C187.483 102.86 189.559 103.323 190.517 102.364C190.661 102.22 190.102 101.645 189.894 101.629L187.722 101.453C187.179 101.405 186.557 101.805 186.301 102.332V102.316ZM174.995 105.002C172.137 106.201 172.871 109.557 174.117 111.571C174.867 114.528 172.775 114.976 175.139 116.367L177.566 113.889L175.682 111.827C176.784 109.35 172.983 109.605 174.819 107.096C175.841 105.689 177.023 107.272 178.093 107.272C178.301 107.272 178.333 106.472 178.141 106.233C177.502 105.385 175.809 104.65 174.979 104.986L174.995 105.002ZM174.803 88.33C172.584 89.9284 176.177 90.9834 173.749 94.2762C172.711 95.6828 172.743 97.3133 173.925 98.5441C174.596 99.2474 175.219 99.3433 176.177 99.2154C177.023 99.1035 178.189 98.2883 178.205 97.569C178.205 97.2813 177.454 96.7858 177.215 96.9456L176.081 97.7289C175.602 98.0645 174.739 97.553 174.436 96.9296C174.165 96.3702 174.436 95.555 174.803 94.9316L176.113 92.7737C176.113 92.5179 175.793 91.8785 175.969 91.7347L177.279 90.6637L174.787 88.314L174.803 88.33Z" fill="black"/>
<path d="M27.9351 102.332C26.0667 102.732 24.3261 102.684 22.857 101.405C22.0266 100.494 21.4357 98.7998 21.6273 97.6809C22.2342 94.3721 24.7892 95.0754 24.4059 93.509C24.3101 93.1253 23.336 92.5659 22.9847 92.7897C20.1742 94.6279 18.9126 97.2174 18.8647 100.654L20.8289 103.036C19.9506 104.378 17.2997 105.785 18.689 107.959C19.7909 109.701 21.2121 111.252 22.825 112.626C23.2721 113.01 24.5337 111.971 24.1983 111.619L21.9627 109.19C20.4456 107.543 21.8988 105.641 23.0007 104.506C24.1983 103.275 25.2363 103.228 26.7534 103.403C28.8613 103.643 30.7297 104.41 31.4483 106.712L33.0612 105.705C35.217 104.378 37.8838 104.922 40.0077 105.913C41.0776 105.833 41.2533 104.314 41.3331 103.531C42.2434 102.812 43.7604 103.419 44.2076 104.235C44.8783 105.417 44.3992 106.552 43.3452 107.415C41.381 108.998 43.6965 110.373 43.2813 112.067C42.7703 114.193 41.5727 116.415 39.6085 117.454C35.744 119.484 35.2649 120.619 35.9835 124.95C36.1911 126.165 37.1173 126.741 38.1233 127.108C39.3849 127.556 41.0616 127.044 41.1734 125.494C41.2852 123.943 38.6823 124.151 38.315 123.432C38.1713 123.144 38.2351 122.329 38.4427 122.057C39.5765 120.619 41.7164 120.555 43.0578 121.69C45.2775 123.592 44 126.341 44.0798 126.261C43.0258 127.332 41.5248 128.899 40.391 129.81C39.353 130.657 38.0275 129.73 37.1173 129.554C35.1371 129.154 34.163 127.812 33.4444 126.101C32.8695 124.727 32.5342 123.576 32.8695 122.105C33.2528 120.395 33.652 118.892 35.217 117.693C34.3706 115.823 32.5661 115.935 32.8695 112.93C32.9813 111.763 33.2209 110.756 34.4185 110.021C34.9934 109.669 36.0793 109.685 36.5903 109.957C37.245 110.309 38.0754 111.22 38.0754 111.859L36.223 113.426C36.3827 113.809 37.1013 114.257 37.5485 114.273C38.5226 114.289 40.0237 113.298 39.864 111.763C39.7522 110.548 39.6723 108.87 38.315 108.167C37.4047 107.703 35.2968 107.559 34.3547 107.975C32.5821 108.742 32.103 110.724 31.1449 112.083C30.57 112.898 30.8095 113.266 30.9533 114.209C31.4004 117.038 29.6598 119.771 30.1867 123.704L15.4473 108.934C15.3196 108.247 15.3834 107 14.7926 106.568C14.4732 106.344 13.4991 106.456 13.02 106.456L9.50684 102.94L12.8923 99.4392L14.8086 99.3593L15.2876 97.0575L29.9632 82.3998C30.7936 83.3429 29.8035 84.3179 29.9153 85.213C30.2187 87.4509 31.1928 89.7207 30.6179 92.0064C30.3464 93.0614 30.5061 93.477 31.2567 94.4361C32.0072 95.3951 32.1509 97.0735 33.3965 97.7928C34.6421 98.5121 36.6223 98.576 38.0595 97.9846C38.6024 97.7608 39.5925 96.8018 39.7203 96.2263C40.1834 94.3082 40.359 92.2942 38.4268 91.5269C37.7401 91.2552 37.0854 91.2232 36.5264 91.8626C35.201 93.4131 37.772 92.9016 38.0275 94.0205C38.1393 94.468 37.804 95.2033 37.5325 95.4751C36.6861 96.3222 35.9995 96.4181 34.9934 96.0185C32.9334 95.1873 31.8156 92.5819 33.3007 90.6158C33.8277 89.9285 34.5303 89.337 35.185 88.6177L33.668 86.0283L33.2049 84.5737C32.8376 83.4068 32.6619 82.3199 33.0771 81.0731C33.3007 80.3698 33.4764 79.4906 34.0033 78.8832C34.9934 77.7483 36.1911 76.6294 37.6283 76.1659C38.6823 75.8302 40.2792 75.6703 41.3012 76.054C42.1475 76.3896 43.5848 77.7483 43.8562 78.5955C44.2395 79.7624 44.2555 81.2489 44.2395 82.5436C43.952 83.2949 42.7703 84.4298 42.0517 84.7655C40.8381 85.3249 39.4967 84.9413 38.7621 83.8863C38.5385 83.5666 38.299 83.0392 38.2671 82.7355C38.1233 81.3608 39.7043 82.1281 40.7742 80.9292C41.0936 80.5776 41.1575 79.6505 40.7103 79.139C40.1354 78.4676 38.7142 78.2758 37.9637 78.8193C34.6421 81.2169 35.5683 81.7444 35.6322 82.6875C35.8717 86.6357 36.3348 87.2431 39.9917 88.6977C41.2373 89.1932 41.8282 90.5678 42.451 91.6228C43.2973 93.0454 43.3452 94.3242 42.7863 95.8427L42.1954 97.4252C42.8182 98.8957 45.3573 99.9027 44.0319 101.885C43.473 102.716 42.6426 102.748 41.4289 102.572L40.8221 100.526C40.7263 100.19 40.2153 99.9347 39.8799 100.031L37.6123 100.702C34.69 101.565 33.9874 100.606 31.2247 99.3113C30.4422 100.574 29.4841 102.093 27.8872 102.444L27.9351 102.332ZM14.6808 102.189L12.509 102.364C12.3014 102.38 11.7425 102.956 11.8862 103.1C12.8444 104.075 14.9203 103.595 16.102 103.052C15.8465 102.524 15.2238 102.125 14.6808 102.173V102.189ZM24.2303 106.984C24.0546 107.224 24.0706 108.023 24.2782 108.023C25.3481 108.023 26.5298 106.44 27.5518 107.847C29.3883 110.357 25.5877 110.101 26.6895 112.578L24.8052 114.64L27.2325 117.118C29.5959 115.743 27.5039 115.28 28.2545 112.323C29.516 110.309 30.2506 106.952 27.3762 105.753C26.5458 105.401 24.8531 106.137 24.2143 107L24.2303 106.984ZM25.1086 91.431L26.418 92.502C26.5937 92.6458 26.2743 93.2852 26.2743 93.5409L27.5838 95.6988C27.967 96.3382 28.2385 97.1374 27.9511 97.6969C27.6477 98.3203 26.7853 98.8318 26.3063 98.4961L25.1725 97.7129C24.9329 97.553 24.1983 98.0486 24.1824 98.3363C24.1983 99.0556 25.3641 99.8708 26.2104 99.9827C27.1686 100.111 27.7914 100.015 28.4621 99.3113C29.6438 98.0805 29.6757 96.4501 28.6377 95.0435C26.2104 91.7667 29.8035 90.7117 27.5838 89.0973L25.0926 91.447L25.1086 91.431Z" fill="black"/>
<path d="M101.713 183.581C101.984 184.828 101.952 186.011 101.09 186.986C100.483 187.545 99.3493 187.945 98.5988 187.801C96.395 187.402 96.8581 185.675 95.8042 185.947C95.5487 186.011 95.1654 186.666 95.3251 186.89C96.5547 188.776 98.2794 189.623 100.579 189.655L102.176 188.345C103.07 188.936 104.012 190.71 105.465 189.767C106.631 189.016 107.669 188.073 108.579 186.986C108.835 186.682 108.148 185.835 107.909 186.059L106.28 187.561C105.178 188.568 103.916 187.609 103.15 186.858C102.336 186.059 102.304 185.356 102.415 184.349C102.575 182.926 103.086 181.679 104.635 181.2L103.964 180.113C103.07 178.674 103.437 176.884 104.108 175.461C104.06 174.742 103.038 174.63 102.511 174.566C102.032 173.959 102.431 172.952 102.974 172.632C103.773 172.184 104.523 172.504 105.098 173.207C106.152 174.518 107.078 172.968 108.212 173.239C109.633 173.591 111.118 174.374 111.821 175.701C113.178 178.29 113.945 178.61 116.835 178.131C117.65 177.987 118.033 177.363 118.273 176.692C118.576 175.845 118.225 174.726 117.203 174.646C116.181 174.566 116.308 176.308 115.829 176.564C115.638 176.66 115.095 176.612 114.919 176.484C113.961 175.733 113.913 174.278 114.664 173.399C115.925 171.913 117.762 172.776 117.714 172.712C118.432 173.415 119.47 174.422 120.093 175.189C120.652 175.877 120.045 176.772 119.917 177.379C119.646 178.706 118.752 179.361 117.602 179.841C116.676 180.225 115.909 180.448 114.919 180.225C113.785 179.969 112.779 179.697 111.965 178.658C110.719 179.233 110.799 180.432 108.771 180.241C107.989 180.161 107.318 180.001 106.823 179.202C106.583 178.818 106.599 178.083 106.775 177.747C107.014 177.315 107.621 176.756 108.036 176.756L109.074 178.003C109.33 177.891 109.633 177.411 109.633 177.108C109.633 176.452 108.979 175.445 107.957 175.557C107.142 175.637 106.024 175.685 105.545 176.596C105.226 177.203 105.146 178.61 105.418 179.249C105.929 180.432 107.254 180.752 108.164 181.391C108.707 181.775 108.963 181.615 109.585 181.519C111.47 181.216 113.306 182.382 115.941 182.031L106.072 191.909C105.609 191.989 104.779 191.957 104.491 192.341C104.332 192.549 104.411 193.204 104.411 193.524L102.064 195.889L99.7166 193.619L99.6687 192.341L98.1357 192.021L88.3307 182.191C88.9694 181.631 89.6082 182.302 90.215 182.223C91.7161 182.015 93.2332 181.359 94.7502 181.743C95.4529 181.919 95.7403 181.823 96.3631 181.311C96.9859 180.8 98.1197 180.72 98.5988 179.873C99.0778 179.026 99.1098 177.715 98.7265 176.756C98.5828 176.388 97.9281 175.733 97.5448 175.637C96.2513 175.317 94.9259 175.205 94.3989 176.5C94.2073 176.964 94.1913 177.395 94.6225 177.779C95.6605 178.674 95.3251 176.948 96.0597 176.772C96.3631 176.708 96.8422 176.932 97.0338 177.108C97.6087 177.667 97.6726 178.131 97.4011 178.802C96.8422 180.193 95.1015 180.928 93.7921 179.937C93.329 179.585 92.9298 179.122 92.4667 178.674L90.726 179.697L89.7519 180.001C88.9694 180.256 88.2508 180.368 87.4045 180.081C86.9414 179.921 86.3345 179.825 85.9353 179.457C85.1688 178.786 84.4342 178.003 84.1148 177.028C83.8913 176.324 83.7795 175.253 84.051 174.566C84.2745 174.007 85.1848 173.032 85.7437 172.856C86.5262 172.6 87.5162 172.584 88.3786 172.6C88.8736 172.792 89.6401 173.591 89.8637 174.071C90.247 174.886 89.9755 175.781 89.2728 176.276C89.0493 176.436 88.698 176.596 88.5063 176.612C87.5801 176.708 88.1071 175.653 87.2927 174.934C87.0531 174.726 86.4304 174.678 86.095 174.982C85.6479 175.365 85.5201 176.308 85.8874 176.82C87.5003 179.042 87.8516 178.418 88.4744 178.386C91.1253 178.226 91.5245 177.923 92.4986 175.461C92.8339 174.63 93.7442 174.23 94.4468 173.815C95.405 173.255 96.2513 173.223 97.2733 173.591L98.3273 173.975C99.3174 173.559 99.9881 171.865 101.313 172.744C101.872 173.111 101.888 173.671 101.777 174.486L100.419 174.886C100.196 174.95 100.02 175.285 100.084 175.525L100.531 177.044C101.106 179.01 100.467 179.473 99.6048 181.327C100.451 181.855 101.473 182.494 101.697 183.565L101.713 183.581ZM101.617 192.469L101.729 193.923C101.729 194.067 102.128 194.435 102.224 194.339C102.878 193.699 102.559 192.309 102.192 191.51C101.84 191.685 101.569 192.101 101.601 192.469H101.617ZM104.827 186.075C104.986 186.187 105.529 186.171 105.529 186.043C105.529 185.324 104.475 184.54 105.418 183.853C107.094 182.622 106.919 185.164 108.579 184.428L109.969 185.691L111.614 184.061C110.687 182.478 110.384 183.869 108.404 183.373C107.062 182.526 104.811 182.031 104.012 183.965C103.789 184.524 104.268 185.659 104.843 186.091L104.827 186.075ZM94.4149 185.483L95.1335 184.604C95.2293 184.476 95.6605 184.7 95.8201 184.7L97.2574 183.821C97.6885 183.565 98.2155 183.389 98.5988 183.565C99.014 183.773 99.3493 184.348 99.1257 184.668L98.5988 185.419C98.487 185.579 98.8223 186.075 99.014 186.075C99.493 186.075 100.036 185.292 100.116 184.716C100.196 184.077 100.132 183.661 99.6687 183.214C98.8383 182.414 97.7524 182.398 96.8102 183.102C94.6225 184.716 93.9039 182.318 92.8339 183.805L94.3989 185.467L94.4149 185.483Z" fill="black"/>
<path d="M64.2972 17.6628C66.2454 18.3661 67.0439 18.2382 68.034 20.0605L68.8005 21.4671C68.9123 21.6749 69.2796 21.8028 69.4872 21.6909L70.7487 21.0035C71.4194 21.4991 71.8027 21.9147 71.6749 22.586C71.3715 24.1685 69.6628 23.4332 68.6568 23.8328L68.1777 24.8718C67.7146 25.8628 67.0918 26.4542 66.0059 26.742C65.2075 26.9498 64.2653 27.3174 63.4189 26.9657C60.9597 25.9108 60.4646 25.9747 58.4526 27.749C57.9735 28.1806 57.2708 27.9887 57.718 30.7221C57.8138 31.3455 58.5963 31.9369 59.1871 31.889C59.6343 31.857 60.0495 31.3774 60.0654 31.0578C60.1293 29.9708 58.9955 29.5712 59.7301 28.9798C59.8898 28.8519 60.2571 28.708 60.5285 28.6601C61.3909 28.5003 62.2212 28.9638 62.5247 29.811C62.7163 30.3065 62.7323 31.4254 62.5247 31.9209C61.9178 32.5443 61.1992 33.2476 60.4487 33.6313C59.9057 33.903 58.5643 33.871 58.0054 33.6313C57.3347 33.3276 56.6321 32.4804 56.2967 31.825C55.8336 30.9139 55.8017 29.811 55.8656 28.788C55.8975 28.2445 56.2488 27.733 56.4724 27.3014C56.8716 26.5022 57.4784 26.0706 58.213 25.687L59.1233 25.2075L61.0874 24.696C61.1194 24.0406 61.0555 23.4172 61.1353 22.8418C61.3589 21.1954 63.1315 20.4761 64.5208 21.0675C65.1915 21.3552 65.4789 21.7388 65.4789 22.5381C65.4789 22.8098 65.2873 23.3213 65.0158 23.4811C64.3611 23.8807 63.371 22.4102 63.2592 23.7848C63.2113 24.3603 63.5467 24.664 64.0098 24.8558C65.3033 25.4153 66.1816 24.3603 66.8842 23.2254C67.0918 22.8897 67.0758 21.9466 66.9321 21.579C66.5329 20.6039 65.5907 19.7088 64.6166 19.4371C63.6425 19.1653 62.8121 19.9166 61.9817 20.0125C61.1513 20.1084 60.8958 20.2363 60.5126 20.8597C59.6981 22.2344 58.1332 22.8577 56.9195 23.7689C56.4405 24.1365 56.4405 25.0796 55.5941 25.1275V11.0612L56.4564 9.73452L55.5781 8.77545L55.642 5.48266H59.0115C59.235 5.70644 59.6502 6.23393 59.9057 6.28188C60.3848 6.3618 60.9597 5.73841 61.3429 5.46667H75.4755C73.3357 7.0811 72.8726 9.239 71.2917 10.3739C70.7647 10.7575 70.4772 10.8055 70.3655 11.4768C70.1738 12.5797 69.4552 13.7626 69.9343 14.9774C70.1898 15.6328 71.2597 16.5759 71.9304 16.7837C72.9205 17.1033 73.7669 16.3201 74.4056 15.8086C75.22 15.1373 74.9805 13.9544 74.5014 13.4909C74.2779 13.2831 73.719 13.1552 73.4634 13.2511L73.6072 14.8975C73.3038 15.2012 72.4734 15.2332 71.9943 15.0893C71.611 14.9774 71.0841 14.4659 70.9882 14.0183C70.7647 13.0913 71.132 12.4998 71.643 11.8764C72.9524 10.294 73.7509 11.2051 75.0444 10.7256C74.8847 9.39884 75.4117 8.48773 76.0345 7.48071C76.5774 6.60157 77.28 6.21794 78.2222 5.83431C79.388 5.35478 80.5058 5.17895 81.6396 5.94621C82.1666 6.29786 83.2365 6.48968 83.3323 7.3848C83.4281 8.35986 83.4122 9.83042 83.3962 10.8534C83.3962 10.7735 82.6936 12.7076 80.7294 12.5478C79.5476 12.4519 78.5576 11.3809 78.7013 10.1501C78.7332 9.92633 79.0846 9.49475 79.2921 9.43081C79.8191 9.27097 81.0008 10.5817 81.6556 9.81444C82.3422 9.01522 81.7833 7.97623 80.9529 7.57662C80.2982 7.25693 79.5796 7.09708 78.8929 7.57662C76.4816 9.30294 76.1622 10.0862 77.0405 12.8994C77.4876 14.338 76.9926 15.9684 76.2261 17.2312C75.6033 18.2382 73.8467 17.7907 74.0224 19.485C74.1182 20.3961 73.8148 21.1794 72.9205 21.4191C72.3137 21.579 71.2917 21.1474 71.2118 20.3642C71.5472 19.9486 72.1859 19.1334 71.7228 18.5899C70.2377 18.0464 68.6887 17.0234 68.2895 15.361L68.002 14.1143C66.5489 14.8815 65.3033 14.338 64.1695 13.4429C63.355 12.8035 62.876 12.292 62.8919 11.1252C62.8919 10.0542 63.1155 8.45576 64.6326 8.39182L66.8682 8.29592C67.2036 8.29592 67.0758 7.17701 66.6926 7.14504C65.2554 7.03315 63.8341 7.09709 62.4767 7.40079C60.7681 7.78442 61.3589 9.71853 61.1353 10.7895L59.0594 10.9813C57.4305 12.6437 56.8077 14.4979 57.2708 16.7197C57.3347 16.9915 58.0533 17.1993 58.2929 17.0554C59.235 16.4959 57.6701 15.6008 58.9636 13.7306C59.3947 13.0913 60.4966 12.5797 61.3429 12.5318C62.6524 12.6117 63.5147 13.4269 64.2174 14.5139C64.8242 15.441 64.5527 16.6398 64.3132 17.6148L64.2972 17.6628ZM58.8837 8.5197C58.5803 7.68851 57.8138 6.47369 56.8876 6.47369C56.7439 6.47369 56.7439 7.01716 56.8237 7.12905L57.7819 8.24796C58.0214 8.53568 58.5164 8.63159 58.8837 8.50372V8.5197ZM65.5747 12.6597C67.523 13.4589 68.7845 11.4928 69.1358 9.92633C70.1898 8.15206 71.4034 8.9353 70.9403 7.14504H68.5929L68.4971 9.04719C66.7884 9.70255 68.7206 11.3969 66.6447 11.7166C65.4789 11.8924 65.6865 10.5817 65.1595 10.0702C65.0637 9.97428 64.6645 10.3419 64.6326 10.5497C64.5368 11.269 64.9999 12.4359 65.5588 12.6597H65.5747ZM57.686 20.7318C59.5225 21.0355 58.3088 18.7977 61.0395 18.3981C62.2053 18.2223 62.9718 17.423 63.0037 16.2722C63.0037 15.6168 62.7642 15.2651 62.2532 14.8655C61.7901 14.5139 60.8479 14.354 60.4966 14.6737C60.3688 14.8176 60.4806 15.409 60.6723 15.441L61.5825 15.6008C61.9817 15.6647 62.1414 16.3361 61.9977 16.7677C61.8699 17.1673 61.3429 17.423 60.8639 17.5509L59.2031 17.9505C59.0753 18.0784 58.9316 18.526 58.7719 18.51L57.6381 18.3981L57.702 20.7158L57.686 20.7318Z" fill="black"/>
<path d="M138.457 191.126C139.543 191.829 140.357 192.692 140.437 194.003C140.389 194.834 139.862 195.937 139.24 196.385C137.371 197.68 136.477 196.113 135.918 197.056C135.774 197.296 135.982 198.015 136.253 198.079C138.489 198.543 140.326 197.919 141.986 196.289L142.178 194.211C143.248 194.003 145.18 194.579 145.563 192.868C145.867 191.494 145.931 190.087 145.819 188.648C145.787 188.249 144.685 188.137 144.669 188.473L144.573 190.71C144.509 192.229 142.913 192.437 141.843 192.453C140.677 192.453 140.166 191.989 139.527 191.174C138.633 190.039 138.106 188.792 138.856 187.338L137.611 187.05C135.934 186.65 134.928 185.116 134.385 183.613C133.842 183.134 133.028 183.773 132.612 184.125C131.83 184.029 131.399 183.022 131.559 182.414C131.798 181.519 132.581 181.216 133.491 181.312C135.183 181.503 134.736 179.729 135.742 179.106C137.004 178.338 138.649 177.843 140.07 178.29C142.897 179.17 143.679 178.85 145.388 176.436C145.867 175.749 145.707 175.03 145.388 174.374C144.988 173.543 143.95 173 143.152 173.671C142.354 174.342 143.695 175.509 143.535 176.037C143.471 176.244 143.056 176.596 142.817 176.628C141.587 176.772 140.517 175.781 140.421 174.598C140.262 172.616 142.194 171.929 142.114 171.929C143.136 171.929 144.605 171.897 145.579 171.993C146.474 172.088 146.665 173.159 147.017 173.687C147.767 174.822 147.607 175.941 147.128 177.108C146.745 178.051 146.362 178.754 145.484 179.297C144.477 179.921 143.567 180.464 142.242 180.289C141.763 181.599 142.673 182.398 141.092 183.693C140.485 184.189 139.878 184.572 138.952 184.349C138.505 184.253 137.994 183.709 137.882 183.342C137.739 182.862 137.77 182.015 138.074 181.727L139.719 181.871C139.83 181.615 139.703 181.056 139.479 180.832C139.016 180.352 137.834 180.113 137.164 180.928C136.637 181.567 135.87 182.414 136.19 183.405C136.397 184.061 137.339 185.132 137.994 185.404C139.208 185.883 140.389 185.164 141.491 184.972C142.162 184.86 142.226 184.572 142.593 184.045C143.727 182.478 145.883 181.999 147.512 179.857V194.003C147.224 194.387 146.601 194.962 146.681 195.442C146.729 195.697 147.24 196.113 147.48 196.337V199.71L144.19 199.774L143.232 198.894L141.906 199.758H127.854C127.902 198.894 128.844 198.91 129.211 198.415C130.137 197.2 130.76 195.634 132.117 194.818C132.756 194.435 132.884 194.163 132.964 193.348C133.044 192.533 133.794 191.653 133.539 190.71C133.283 189.767 132.357 188.792 131.399 188.393C131.032 188.233 130.105 188.233 129.754 188.441C128.604 189.144 127.566 190.007 128.125 191.318C128.317 191.781 128.62 192.117 129.195 192.069C130.568 191.973 129.099 190.982 129.499 190.311C129.658 190.039 130.169 189.863 130.441 189.847C131.255 189.847 131.638 190.135 131.91 190.806C132.501 192.197 131.798 193.971 130.137 194.195C129.562 194.275 128.94 194.227 128.285 194.243L127.774 196.209L127.295 197.12C126.912 197.855 126.48 198.463 125.682 198.862C125.235 199.086 124.74 199.438 124.197 199.47C123.175 199.534 122.073 199.502 121.163 199.038C120.492 198.703 119.646 197.999 119.358 197.328C119.119 196.768 119.071 195.426 119.358 194.882C119.741 194.131 120.444 193.428 121.067 192.804C121.562 192.581 122.68 192.597 123.175 192.804C124.021 193.124 124.484 193.939 124.325 194.802C124.277 195.074 124.133 195.442 124.005 195.602C123.414 196.321 123.031 195.202 121.929 195.266C121.61 195.282 121.131 195.697 121.099 196.145C121.051 196.736 121.642 197.52 122.265 197.616C125.011 198.063 124.82 197.36 125.235 196.88C127.007 194.866 127.071 194.355 126.017 191.909C125.666 191.078 126.017 190.135 126.241 189.32C126.512 188.233 127.103 187.593 128.109 187.146L129.147 186.666C129.546 185.659 128.828 183.965 130.393 183.645C131.063 183.517 131.479 183.901 131.974 184.572L131.287 185.835C131.175 186.043 131.287 186.411 131.511 186.522L132.916 187.29C134.736 188.281 134.609 189.08 135.311 191.03C136.285 190.806 137.483 190.535 138.409 191.126H138.457ZM144.749 197.568L145.867 198.527C145.979 198.623 146.522 198.607 146.522 198.463C146.522 197.536 145.308 196.768 144.477 196.465C144.35 196.832 144.462 197.328 144.733 197.568H144.749ZM142.465 190.678C142.657 190.646 143.04 190.247 142.944 190.151C142.433 189.639 141.108 189.831 141.3 188.664C141.619 186.586 143.312 188.52 143.966 186.81L145.851 186.714V184.365C144.078 183.901 144.861 185.116 143.088 186.171C141.523 186.538 139.559 187.785 140.357 189.735C140.581 190.295 141.747 190.758 142.465 190.662V190.678ZM134.609 197.712L134.497 196.577C134.481 196.417 134.944 196.273 135.056 196.145L135.455 194.483C135.567 193.987 135.838 193.476 136.237 193.348C136.685 193.204 137.339 193.364 137.403 193.763L137.563 194.674C137.595 194.866 138.186 194.978 138.329 194.85C138.665 194.499 138.505 193.556 138.138 193.092C137.739 192.581 137.387 192.325 136.732 192.341C135.583 192.373 134.784 193.14 134.609 194.307C134.193 197.04 131.974 195.825 132.277 197.664L134.593 197.728L134.609 197.712Z" fill="black"/>
<path d="M65.2711 191.158C64.5684 192.245 63.7061 193.06 62.3967 193.14C61.5663 193.092 60.4644 192.564 60.0173 191.941C58.7238 190.071 60.2887 189.176 59.3466 188.616C59.107 188.472 58.3884 188.68 58.3246 188.952C57.8615 191.19 58.4842 193.028 60.1131 194.69L62.1891 194.882C62.3967 195.953 61.8218 197.887 63.5305 198.271C64.9038 198.575 66.3091 198.639 67.7463 198.527C68.1455 198.495 68.2573 197.392 67.9219 197.376L65.6863 197.28C64.1692 197.216 63.9616 195.617 63.9457 194.547C63.9457 193.38 64.4088 192.868 65.2232 192.229C66.357 191.334 67.6026 190.806 69.0558 191.557L69.3432 190.311C69.7424 188.632 71.2754 187.625 72.7765 187.082C73.2556 186.538 72.6168 185.723 72.2655 185.308C72.3613 184.524 73.3674 184.093 73.9742 184.253C74.8685 184.492 75.1719 185.276 75.0761 186.187C74.8844 187.881 76.657 187.433 77.2798 188.44C78.0463 189.703 78.5414 191.35 78.0942 192.772C77.2159 195.602 77.5353 196.385 79.9466 198.095C80.6333 198.575 81.3519 198.415 82.0066 198.095C82.837 197.695 83.38 196.656 82.7093 195.857C82.0386 195.058 80.8728 196.401 80.3459 196.241C80.1383 196.177 79.7869 195.761 79.755 195.522C79.6113 194.291 80.6014 193.22 81.7831 193.124C83.7632 192.964 84.4499 194.898 84.4499 194.818C84.4499 195.841 84.4818 197.312 84.386 198.287C84.2902 199.182 83.2203 199.374 82.6933 199.725C81.5595 200.477 80.4417 200.317 79.2759 199.837C78.3338 199.454 77.6311 199.07 77.0882 198.191C76.4654 197.184 75.9224 196.273 76.0981 194.946C74.7886 194.467 73.9902 195.378 72.6967 193.795C72.2017 193.188 71.8184 192.58 72.042 191.653C72.1378 191.206 72.6807 190.694 73.048 190.582C73.5271 190.439 74.3734 190.47 74.6609 190.774L74.5172 192.421C74.7727 192.532 75.3316 192.405 75.5551 192.181C76.0342 191.717 76.2738 190.534 75.4593 189.863C74.8206 189.336 73.9742 188.568 72.9841 188.888C72.3294 189.096 71.2595 190.039 70.988 190.694C70.5089 191.909 71.2275 193.092 71.4192 194.195C71.531 194.866 71.8184 194.93 72.3454 195.298C73.9103 196.433 74.3894 198.591 76.5293 200.221H62.3967C62.0134 199.933 61.4385 199.31 60.9594 199.39C60.7039 199.438 60.2887 199.949 60.0652 200.189H56.6957L56.6318 196.896L57.5101 195.937L56.6478 194.61V180.544C57.5101 180.592 57.4942 181.535 57.9892 181.903C59.2029 182.83 60.7678 183.453 61.5822 184.812C61.9655 185.451 62.237 185.579 63.0514 185.659C63.8658 185.739 64.7441 186.49 65.6863 186.235C66.6285 185.979 67.6026 185.052 68.0018 184.093C68.1615 183.725 68.1615 182.798 67.9539 182.446C67.2512 181.295 66.3889 180.256 65.0795 180.816C64.6164 181.008 64.281 181.311 64.3289 181.887C64.4247 183.262 65.4148 181.791 66.0855 182.191C66.357 182.35 66.5326 182.862 66.5486 183.134C66.5486 183.949 66.2612 184.332 65.5905 184.604C64.2012 185.196 62.4286 184.492 62.205 182.83C62.1252 182.254 62.1731 181.631 62.1571 180.976L60.1929 180.464L59.2827 179.985C58.5481 179.601 57.9413 179.169 57.5421 178.37C57.3185 177.923 56.9672 177.427 56.9353 176.884C56.8714 175.861 56.9033 174.758 57.3664 173.847C57.7018 173.175 58.4044 172.328 59.0751 172.04C59.634 171.801 60.9754 171.753 61.5184 172.04C62.2689 172.424 62.9715 173.127 63.5943 173.751C63.8179 174.246 63.8019 175.365 63.5943 175.861C63.275 176.708 62.4605 177.171 61.5982 177.012C61.3267 176.964 60.9594 176.82 60.7998 176.692C60.0811 176.1 61.199 175.717 61.1351 174.614C61.1191 174.294 60.7039 173.815 60.2568 173.783C59.666 173.735 58.8835 174.326 58.7877 174.95C58.3405 177.699 59.0432 177.507 59.5222 177.923C61.5343 179.697 62.0453 179.761 64.4886 178.706C65.319 178.354 66.2612 178.706 67.0756 178.93C68.1615 179.201 68.8002 179.793 69.2474 180.8L69.7264 181.839C70.7325 182.239 72.4252 181.519 72.7446 183.086C72.8723 183.757 72.4891 184.173 71.8184 184.668L70.5568 183.981C70.3492 183.869 69.982 183.981 69.8702 184.205L69.1037 185.611C68.1136 187.433 67.3151 187.306 65.3669 188.009C65.5905 188.984 65.8619 190.183 65.2711 191.11V191.158ZM58.8515 197.456L57.8934 198.575C57.7976 198.687 57.8135 199.23 57.9573 199.23C58.8835 199.23 59.65 198.015 59.9534 197.184C59.5861 197.056 59.0911 197.168 58.8515 197.44V197.456ZM65.7182 195.17C65.7502 195.362 66.1494 195.745 66.2452 195.649C66.7562 195.138 66.5646 193.811 67.7303 194.003C69.8063 194.323 67.874 196.017 69.5827 196.672L69.6785 198.559H72.026C72.4891 196.784 71.2754 197.568 70.2215 195.793C69.8542 194.227 68.6086 192.261 66.6604 193.06C66.1015 193.284 65.6384 194.451 65.7342 195.17H65.7182ZM58.6918 187.306L59.8256 187.194C59.9853 187.178 60.1291 187.641 60.2568 187.753L61.9176 188.153C62.4126 188.265 62.9236 188.536 63.0514 188.936C63.1951 189.384 63.0354 190.039 62.6362 190.103L61.726 190.263C61.5343 190.295 61.4226 190.886 61.5503 191.03C61.9016 191.366 62.8438 191.206 63.3069 190.838C63.8179 190.439 64.0734 190.087 64.0574 189.432C64.0255 188.281 63.259 187.481 62.0933 187.306C59.3625 186.89 60.5762 184.668 58.7397 184.972L58.6759 187.29L58.6918 187.306Z" fill="black"/>
</svg>
