<svg width="206" height="208" viewBox="0 0 206 208" fill="none" xmlns="http://www.w3.org/2000/svg">
<path d="M102.856 1.63445L1.06055 103.528L102.856 205.422L204.652 103.528L102.856 1.63445Z" stroke="white" stroke-width="1.5" stroke-miterlimit="10"/>
<path d="M154.209 0.75H51.5283V206.294H154.209V0.75Z" stroke="white" stroke-width="1.5" stroke-miterlimit="10"/>
<path d="M133.546 22.0413C136.388 22.4249 136.292 21.4019 138.959 21.258C139.422 23.1122 139.598 24.9185 140.716 26.2931L144.979 31.568L145.043 17.5816C145.043 17.1181 145.746 16.4787 146.113 16.4627C146.752 16.4307 147.055 16.9742 147.055 17.7255C145.922 20.2031 145.331 22.361 145.011 23.8955C144.548 26.1013 142.488 35.8358 147.311 39.7201C148.014 40.2955 148.716 40.5992 149.163 40.775C149.163 32.3672 149.163 23.9594 149.147 15.5516C149.147 14.8483 148.86 14.3048 148.125 14.3048H145.251L145.171 12.5785L149.179 12.6424V6.69621L143.383 6.66425L143.287 9.09388C143.271 9.55743 143.079 10.1968 142.76 10.4366C142.44 10.6763 141.339 10.6284 141.323 10.1808L141.163 6.85606C140.332 6.77614 139.502 6.66425 138.704 6.66425H118.583C117.752 6.66425 116.938 6.66425 116.107 6.66425C116.73 7.31961 117.497 7.97497 118.407 8.56639C122.639 11.3317 127.334 10.8841 129.25 10.5804C132.46 9.92507 135.67 9.25372 138.895 8.59836C138.975 8.74222 139.167 9.12585 139.135 9.62137C139.135 9.97302 139.007 10.3247 138.799 10.6124L129.25 10.5804C127.429 10.5804 125.721 10.5964 123.804 10.8522C125.96 11.9871 127.366 12.8982 128.835 14.4007C130.527 16.127 133.737 15.5196 134.424 16.6545C134.903 17.4378 133.322 19.6916 133.562 22.0732L133.546 22.0413Z" fill="black"/>
<path d="M71.9355 22.2651C72.3187 19.4198 71.2967 19.5157 71.153 16.8463C73.0054 16.3828 74.8099 16.2069 76.1832 15.088L81.453 10.8202L67.4801 10.7563C67.017 10.7563 66.3782 10.0529 66.3623 9.6853C66.3303 9.04592 66.8733 8.74222 67.6238 8.74222C70.099 9.87711 72.2548 10.4685 73.7879 10.7882C75.9916 11.2518 85.7167 13.3138 89.5972 8.48647C90.1721 7.78315 90.4755 7.07984 90.6512 6.63227C82.2514 6.63227 73.8517 6.63227 65.452 6.64826C64.7494 6.64826 64.2064 6.93598 64.2064 7.67126V10.5485L62.4818 10.6284L62.5457 6.61629H56.6052L56.5732 12.4186L59.0005 12.5145C59.4636 12.5305 60.1024 12.7223 60.3419 13.042C60.5815 13.3617 60.5336 14.4646 60.0864 14.4806L56.7649 14.6405C56.685 15.4717 56.5732 16.3029 56.5732 17.1021V37.2425C56.5732 38.0737 56.5732 38.8889 56.5732 39.7201C57.228 39.0967 57.8827 38.3294 58.4736 37.4183C61.2362 33.1824 60.7891 28.483 60.4857 26.5649C59.8309 23.352 59.1602 20.1391 58.5055 16.9103C58.6492 16.8303 59.0325 16.6385 59.5275 16.6705C59.8788 16.6705 60.2302 16.7984 60.5176 17.0062L60.4857 26.5649C60.4857 28.3871 60.5016 30.0974 60.7571 32.0156C61.8909 29.8577 62.8012 28.451 64.3023 26.9805C66.0269 25.2861 65.4201 22.0732 66.5539 21.3859C67.3364 20.9064 69.588 22.4888 71.9674 22.2491L71.9355 22.2651Z" fill="black"/>
<path d="M133.546 184.012C136.388 183.628 136.292 184.651 138.959 184.795C139.422 182.941 139.598 181.134 140.716 179.76L144.979 174.485L145.043 188.471C145.043 188.935 145.746 189.574 146.113 189.59C146.752 189.622 147.055 189.079 147.055 188.327C145.922 185.85 145.331 183.692 145.011 182.157C144.548 179.952 142.488 170.217 147.311 166.333C148.014 165.757 148.716 165.454 149.163 165.278C149.163 173.686 149.163 182.093 149.147 190.501C149.147 191.205 148.86 191.748 148.125 191.748H145.251L145.171 193.474L149.179 193.41V199.357L143.383 199.389L143.287 196.959C143.271 196.495 143.079 195.856 142.76 195.616C142.44 195.377 141.339 195.424 141.323 195.872L141.163 199.197C140.332 199.277 139.502 199.389 138.704 199.389H118.583C117.752 199.389 116.938 199.389 116.107 199.389C116.73 198.733 117.497 198.078 118.407 197.486C122.639 194.721 127.334 195.169 129.25 195.472C132.46 196.128 135.67 196.799 138.895 197.454C138.975 197.311 139.167 196.927 139.135 196.431C139.135 196.08 139.007 195.728 138.799 195.44L129.25 195.472C127.429 195.472 125.721 195.456 123.804 195.201C125.96 194.066 127.366 193.155 128.835 191.652C130.527 189.926 133.737 190.533 134.424 189.398C134.903 188.615 133.322 186.361 133.562 183.98L133.546 184.012Z" fill="black"/>
<path d="M72.6874 184.012C69.8449 183.628 69.9407 184.651 67.2739 184.795C66.8108 182.941 66.6351 181.134 65.5173 179.76L61.2536 174.485L61.1897 188.471C61.1897 188.935 60.4871 189.574 60.1198 189.59C59.481 189.622 59.1776 189.079 59.1776 188.327C60.3114 185.85 60.9023 183.692 61.2216 182.157C61.6847 179.952 63.7447 170.217 58.9221 166.333C58.2194 165.757 57.5168 165.454 57.0697 165.278C57.0697 173.686 57.0697 182.093 57.0856 190.501C57.0856 191.205 57.3731 191.748 58.1077 191.748H60.9821L61.0619 193.474L57.0537 193.41V199.357L62.8505 199.389L62.9463 196.959C62.9623 196.495 63.1539 195.856 63.4733 195.616C63.7926 195.377 64.8945 195.424 64.9105 195.872L65.0702 199.197C65.9006 199.277 66.7309 199.389 67.5294 199.389H87.6504C88.4808 199.389 89.2952 199.389 90.1256 199.389C89.5028 198.733 88.7363 198.078 87.826 197.486C83.5943 194.721 78.8994 195.169 76.9831 195.472C73.7733 196.128 70.5635 196.799 67.3378 197.454C67.2579 197.311 67.0663 196.927 67.0982 196.431C67.0982 196.08 67.226 195.728 67.4336 195.44L76.9831 195.472C78.8035 195.472 80.5122 195.456 82.4285 195.201C80.2727 194.066 78.8674 193.155 77.3983 191.652C75.7055 189.926 72.4958 190.533 71.8091 189.398C71.33 188.615 72.911 186.361 72.6714 183.98L72.6874 184.012Z" fill="black"/>
<path d="M102.694 30.1933C104.738 28.6428 104.035 28.0514 105.616 26.2771C107.085 27.1563 108.331 28.1793 109.896 28.3391L115.916 28.9785L107.133 20.1072C106.846 19.8034 106.878 18.9723 107.101 18.7165C107.485 18.2849 108.028 18.4448 108.491 18.9243C109.337 21.2101 110.327 22.9364 111.094 24.1192C112.196 25.8136 117.034 33.2623 122.528 32.6549C123.326 32.559 123.965 32.3193 124.364 32.1434C119.062 26.8366 113.745 21.5458 108.443 16.2389C107.996 15.7914 107.485 15.6315 107.022 16.0951L105.185 17.9013L104.051 16.8783L106.622 14.3847L102.87 10.6284L99.1808 14.2728L100.65 15.8553C100.937 16.159 101.209 16.6865 101.161 17.0381C101.113 17.3898 100.378 18.0611 100.091 17.7894L97.8873 15.7914C97.3124 16.2549 96.7216 16.7185 96.2105 17.214L83.5152 29.9216C82.9882 30.4491 82.4772 30.9606 81.9502 31.4881C82.7646 31.4881 83.6589 31.4401 84.6011 31.2323C89.0245 30.3052 91.6913 27.0604 92.7133 25.6538C94.3262 23.2081 95.9391 20.7625 97.5519 18.3009C97.6957 18.3489 98.047 18.4608 98.3504 18.7964C98.574 19.0362 98.7177 19.3239 98.7656 19.6436L92.7133 25.6538C91.5476 26.8046 90.5096 27.8916 89.4397 29.2662C91.5156 28.6109 92.9688 28.3072 94.8532 28.3232C97.009 28.3391 98.6538 25.9415 99.8036 26.2132C100.602 26.405 101.017 28.8187 102.678 30.1773L102.694 30.1933Z" fill="black"/>
<path d="M36.9818 102.939C34.9697 100.301 34.2191 101.212 31.9356 99.1662C33.0694 97.28 34.3948 95.6656 34.6024 93.6196L35.4168 85.8192L23.951 97.1841C23.5678 97.5677 22.4819 97.5198 22.1625 97.2161C21.6196 96.7206 21.8112 96.0172 22.434 95.4098C25.3723 94.3069 27.6079 93.0282 29.141 92.0371C31.3287 90.6145 40.9421 84.3646 40.1596 77.2355C40.0478 76.1965 39.7284 75.3653 39.5049 74.8698C32.6542 81.7431 25.8034 88.6005 18.9527 95.4738C18.3778 96.0492 18.1702 96.7206 18.7611 97.328L21.0926 99.6937L19.7831 101.148L16.5733 97.8235L11.7188 102.683L16.4136 107.446L18.4577 105.544C18.8569 105.176 19.5276 104.809 19.9907 104.889C20.4378 104.953 21.3002 105.896 20.9489 106.279L18.3619 109.124C18.9687 109.86 19.5595 110.643 20.1983 111.298L36.6145 127.73C37.2852 128.402 37.9559 129.073 38.6266 129.76C38.6425 128.721 38.5627 127.555 38.3072 126.324C37.1095 120.601 32.9097 117.149 31.1052 115.822C27.9433 113.744 24.7814 111.65 21.6196 109.572C21.6675 109.38 21.8272 108.933 22.2583 108.533C22.5617 108.261 22.945 108.054 23.3442 108.006L31.1052 115.838C32.5903 117.34 33.9956 118.699 35.7681 120.074C34.9218 117.388 34.5385 115.502 34.5545 113.073C34.5704 110.275 31.4724 108.165 31.8397 106.663C32.0952 105.624 35.2092 105.08 36.9498 102.954L36.9818 102.939Z" fill="black"/>
<path d="M169.586 102.939C171.598 100.301 172.349 101.212 174.633 99.1662C173.499 97.28 172.173 95.6656 171.966 93.6196L171.151 85.8192L182.617 97.1841C183 97.5677 184.086 97.5198 184.406 97.2161C184.949 96.7206 184.757 96.0172 184.134 95.4098C181.196 94.3069 178.96 93.0282 177.427 92.0371C175.239 90.6145 165.626 84.3646 166.408 77.2355C166.52 76.1965 166.84 75.3653 167.063 74.8698C173.914 81.7431 180.765 88.6005 187.615 95.4738C188.19 96.0492 188.398 96.7206 187.807 97.328L185.475 99.6937L186.785 101.148L189.995 97.8235L194.849 102.683L190.154 107.446L188.11 105.544C187.711 105.176 187.04 104.809 186.577 104.889C186.13 104.953 185.268 105.896 185.619 106.279L188.206 109.124C187.599 109.86 187.009 110.643 186.37 111.298L169.954 127.73C169.283 128.402 168.612 129.073 167.941 129.76C167.926 128.721 168.005 127.555 168.261 126.324C169.459 120.601 173.658 117.149 175.463 115.822C178.625 113.744 181.787 111.65 184.949 109.572C184.901 109.38 184.741 108.933 184.31 108.533C184.006 108.261 183.623 108.054 183.224 108.006L175.463 115.838C173.978 117.34 172.573 118.699 170.8 120.074C171.646 117.388 172.03 115.502 172.014 113.073C171.998 110.275 175.096 108.165 174.728 106.663C174.473 105.624 171.359 105.08 169.618 102.954L169.586 102.939Z" fill="black"/>
<path d="M103.636 177.266C101.592 178.817 102.294 179.408 100.713 181.182C99.2443 180.303 97.9987 179.28 96.4338 179.12L90.4134 178.481L99.1964 187.352C99.4839 187.656 99.4519 188.487 99.2284 188.743C98.8451 189.175 98.3021 189.015 97.839 188.535C96.9927 186.249 96.0026 184.523 95.2361 183.34C94.1342 181.646 89.2956 174.197 83.8023 174.805C83.0038 174.9 82.365 175.14 81.9658 175.316C87.2675 180.623 92.5852 185.914 97.887 191.221C98.3341 191.668 98.8451 191.828 99.3082 191.364L101.145 189.558L102.278 190.581L99.7074 193.075L103.46 196.831L107.149 193.187L105.68 191.604C105.392 191.3 105.121 190.773 105.169 190.421C105.217 190.07 105.951 189.398 106.239 189.67L108.442 191.668C109.017 191.205 109.608 190.741 110.119 190.246L122.815 177.538C123.342 177.01 123.853 176.499 124.38 175.971C123.565 175.971 122.671 176.019 121.729 176.227C117.305 177.154 114.638 180.399 113.616 181.806C112.004 184.251 110.391 186.697 108.778 189.159C108.634 189.111 108.283 188.999 107.979 188.663C107.756 188.423 107.612 188.136 107.564 187.816L113.616 181.806C114.782 180.655 115.82 179.568 116.89 178.193C114.814 178.849 113.361 179.152 111.477 179.136C109.321 179.12 107.676 181.518 106.526 181.246C105.728 181.054 105.313 178.641 103.652 177.282L103.636 177.266Z" fill="black"/>
</svg>
