<svg width="204" height="206" viewBox="0 0 204 206" fill="none" xmlns="http://www.w3.org/2000/svg">
<path d="M145.594 21.563C145.594 19.3571 148.261 20.1244 147.239 15.2971C146.967 15.1532 146.44 15.4409 146.153 15.6807C145.29 16.416 143.837 17.1193 142.671 16.9115C141.649 16.7357 140.739 16.5918 139.717 16.5598C138.36 16.5119 137.386 17.2152 137.21 18.5898C137.018 20.1723 137.258 21.9306 138.504 23.0495C139.286 23.7688 140.548 23.4971 141.106 22.6339C141.57 21.9146 141.458 20.8437 140.707 20.2203C139.989 19.6288 139.078 19.7407 138.056 20.3961C137.913 19.7567 137.977 18.7657 138.456 18.2542C139.158 17.5029 140.404 17.9185 141.075 18.5259C141.761 19.1493 142.224 19.9485 142.24 20.8916L142.32 24.3762C142.352 25.5271 143.023 26.7579 143.901 27.3493C144.955 28.0526 145.881 28.676 147.175 28.9158C145.274 25.2554 147.302 24.6799 145.626 21.547L145.594 21.563Z" fill="black"/>
<path d="M136.876 5.48271C136.413 5.17901 133.937 5.06712 132.979 5.78642C132.245 6.32989 131.686 7.04919 130.776 7.19305C127.726 5.53067 126.719 7.33691 123.286 5.78642C124.101 8.29597 125.33 10.4059 127.997 10.4858L131.335 10.5658C132.915 10.5977 134.592 12.1163 134.289 13.7147C134.081 14.8016 132.5 14.9935 131.654 14.7377C132.5 13.7946 132.564 12.6917 131.83 11.9085C131.111 11.1572 129.977 11.1572 129.259 11.9244C128.636 12.5958 128.54 13.8266 129.338 14.4979C130.76 15.6648 132.772 15.9365 134.496 15.2652C135.279 14.9615 135.63 14.0983 135.614 13.2991C135.566 10.0702 134.768 10.1821 135.502 8.3759C136.189 6.68155 137.307 5.78642 136.86 5.4987L136.876 5.48271Z" fill="black"/>
<path d="M141.635 26.7101C141.46 26.3105 141.188 25.9428 140.869 25.5752C140.613 29.6672 140.054 32.928 143.663 35.6134C144.063 35.9171 144.478 36.4286 144.526 36.9241C144.845 39.8973 144.558 42.6466 146.506 44.9963V30.898C146.506 29.8271 143.12 30.1467 141.651 26.7261L141.635 26.7101Z" fill="black"/>
<path d="M122.008 6.28192H107.381C108.626 7.38485 110.08 7.83241 111.677 7.9443L114.599 8.13612C115.397 8.18407 116.132 8.43982 116.611 9.11117C118.128 11.2211 120.507 12.3081 123.238 12.1162L126.719 11.8605L124.979 10.8854C123.254 9.92637 122.248 8.27998 122.008 6.29791V6.28192Z" fill="black"/>
<path d="M143.232 14.8017C143.599 14.8976 144.701 14.7217 144.701 14.2582L144.733 7.22504H137.786C137.004 8.98332 137.227 11.9884 138.617 13.395C139.83 14.6418 141.491 14.9455 143.248 14.7857L143.232 14.8017Z" fill="black"/>
<path d="M111.915 21.4191C110.366 19.8526 112.777 18.5099 108.657 15.8245C108.37 15.9204 108.194 16.4799 108.162 16.8635C108.067 17.9984 107.54 19.5169 106.566 20.2043C105.719 20.7957 104.969 21.3551 104.218 22.0425C103.228 22.9536 103.036 24.1524 103.883 25.2553C104.857 26.5181 106.278 27.5731 107.939 27.4932C108.993 27.4452 109.695 26.3583 109.488 25.3513C109.312 24.5201 108.482 23.8327 107.508 23.9286C106.582 24.0086 106.023 24.7438 105.751 25.9267C105.192 25.575 104.553 24.8238 104.522 24.1364C104.49 23.1134 105.671 22.522 106.566 22.49C107.492 22.4581 108.386 22.6818 109.057 23.3372L111.564 25.7509C112.394 26.5501 113.736 26.9337 114.774 26.7259C116.019 26.4861 117.121 26.2624 118.191 25.5271C114.263 24.2803 115.285 22.4261 111.899 21.4031L111.915 21.4191Z" fill="black"/>
<path d="M94.3986 16.2242C93.8556 16.3361 92.0352 18.0144 91.8595 19.1973C91.7318 20.1084 91.8276 21.0035 91.3006 21.7548C87.9631 22.7458 88.5379 24.7279 85.0088 26.0546C87.3562 27.2534 89.7197 27.8768 91.6519 26.0546L94.0632 23.7529C95.213 22.6499 97.4646 22.538 98.3749 23.8967C98.9977 24.8238 98.0236 26.0546 97.2251 26.4862C97.1612 25.2234 96.4266 24.3922 95.3567 24.3603C94.3187 24.3283 93.5203 25.1275 93.5522 26.1985C93.5842 27.1096 94.3986 28.0527 95.4366 27.9568C97.273 27.7809 98.8859 26.5501 99.6205 24.8398C99.9558 24.0725 99.6045 23.2094 99.0296 22.6499C96.7141 20.4121 96.235 21.0515 95.4685 19.2612C94.7499 17.5829 94.9256 16.1443 94.3986 16.2562V16.2242Z" fill="black"/>
<path d="M112.763 27.8769C112.348 27.7171 111.901 27.6371 111.422 27.6212C114.121 30.7062 116.037 33.4075 120.476 32.7522C120.971 32.6722 121.626 32.7522 122.009 33.0719C124.341 34.942 126.065 37.0999 129.116 37.3717L119.167 27.3974C118.416 26.6301 116.245 29.2676 112.779 27.8929L112.763 27.8769Z" fill="black"/>
<path d="M84.4329 27.3014L74.085 37.6593C75.7457 37.5634 77.0871 36.8601 78.3008 35.7891L80.5045 33.855C81.0954 33.3275 81.798 32.9918 82.6124 33.1197C85.1834 33.5513 87.6267 32.6242 89.4152 30.5462L91.6988 27.8928L89.7825 28.4363C87.8822 28.9798 86.0138 28.5162 84.4329 27.2854V27.3014Z" fill="black"/>
<path d="M105.465 18.3023C105.8 18.1105 106.439 17.2153 106.12 16.8797L101.169 11.8925L96.2666 16.8317C96.9533 18.622 99.2209 20.5881 101.201 20.604C102.942 20.62 104.331 19.661 105.465 18.3023Z" fill="black"/>
<path d="M112.269 179.345C110.72 180.912 113.131 182.255 109.011 184.94C108.724 184.844 108.548 184.285 108.516 183.901C108.42 182.766 107.893 181.248 106.919 180.56C106.073 179.969 105.322 179.409 104.572 178.722C103.582 177.811 103.39 176.612 104.236 175.509C105.21 174.246 106.632 173.191 108.292 173.271C109.346 173.319 110.049 174.406 109.841 175.413C109.666 176.244 108.835 176.932 107.861 176.836C106.935 176.756 106.376 176.021 106.105 174.838C105.546 175.189 104.907 175.941 104.875 176.628C104.843 177.651 106.025 178.243 106.919 178.274C107.845 178.306 108.74 178.083 109.41 177.427L111.917 175.014C112.748 174.214 114.089 173.831 115.127 174.039C116.373 174.278 117.475 174.502 118.545 175.237C114.616 176.484 115.638 178.338 112.253 179.361L112.269 179.345Z" fill="black"/>
<path d="M94.7501 184.524C94.2072 184.413 92.3867 182.734 92.2111 181.551C92.0833 180.64 92.1791 179.745 91.6521 178.994C88.3146 178.003 88.8895 176.021 85.3604 174.694C87.7078 173.495 90.0712 172.872 92.0035 174.694L94.4148 176.996C95.5646 178.099 97.8162 178.211 98.7264 176.852C99.3492 175.925 98.3751 174.694 97.5767 174.262C97.5128 175.525 96.7782 176.356 95.7083 176.388C94.6703 176.42 93.8718 175.621 93.9038 174.55C93.9357 173.639 94.7501 172.696 95.7881 172.792C97.6246 172.968 99.2374 174.198 99.972 175.909C100.307 176.676 99.956 177.539 99.3812 178.099C97.0657 180.336 96.5866 179.697 95.8201 181.487C95.1015 183.166 95.2771 184.604 94.7501 184.492V184.524Z" fill="black"/>
<path d="M113.115 172.888C112.7 173.048 112.253 173.127 111.773 173.143C114.472 170.058 116.388 167.357 120.828 168.012C121.323 168.092 121.978 168.012 122.361 167.693C124.692 165.823 126.417 163.665 129.467 163.393L119.518 173.367C118.768 174.134 116.596 171.497 113.131 172.872L113.115 172.888Z" fill="black"/>
<path d="M84.8011 173.447L74.4531 163.089C76.1139 163.185 77.4553 163.888 78.6689 164.959L80.8727 166.893C81.4635 167.421 82.1662 167.757 82.9806 167.629C85.5516 167.197 87.9949 168.124 89.7834 170.202L92.067 172.856L90.1507 172.312C88.2504 171.769 86.382 172.232 84.8011 173.463V173.447Z" fill="black"/>
<path d="M105.831 182.446C106.166 182.638 106.805 183.533 106.486 183.869L101.535 188.856L96.6328 183.917C97.3195 182.127 99.5871 180.161 101.567 180.145C103.308 180.129 104.697 181.088 105.831 182.446Z" fill="black"/>
<path d="M23.7987 115.168C21.9304 113.314 20.3335 116.207 17.1396 111.268C17.2514 110.916 17.9221 110.724 18.3693 110.676C19.7266 110.564 21.5311 109.925 22.3456 108.758C23.0642 107.751 23.7189 106.856 24.5493 105.961C25.6511 104.778 27.0724 104.554 28.3818 105.561C29.8829 106.728 31.1445 108.406 31.0487 110.404C30.9848 111.667 29.7073 112.498 28.5096 112.259C27.5195 112.051 26.7051 111.06 26.8169 109.893C26.9127 108.79 27.775 108.119 29.1963 107.799C28.7811 107.128 27.8868 106.36 27.0564 106.328C25.8268 106.281 25.1242 107.703 25.0922 108.774C25.0443 109.877 25.3318 110.948 26.0983 111.747L28.9727 114.752C29.9149 115.743 30.378 117.358 30.1384 118.589C29.851 120.075 29.5795 121.386 28.7012 122.665C27.2321 117.981 25.0124 119.196 23.7987 115.152V115.168Z" fill="black"/>
<path d="M17.6191 94.2602C17.7469 93.6048 19.759 91.431 21.1483 91.2392C22.2342 91.0793 23.3041 91.2072 24.1824 90.5678C25.3482 86.5877 27.7275 87.275 29.3085 83.0551C30.7297 85.8524 31.4803 88.6816 29.2925 90.9834L26.5458 93.8606C25.2364 95.2353 25.0926 97.9206 26.7215 99.0076C27.8234 99.7429 29.3085 98.576 29.8035 97.6329C28.2865 97.553 27.3123 96.6739 27.2804 95.3951C27.2485 94.1483 28.2066 93.2052 29.4682 93.2372C30.5541 93.2692 31.6879 94.2442 31.5601 95.475C31.3525 97.6649 29.8834 99.583 27.8553 100.478C26.9451 100.878 25.9071 100.446 25.2523 99.7748C22.5855 97.0255 23.3361 96.4341 21.2122 95.523C19.216 94.6758 17.5074 94.8676 17.6351 94.2442L17.6191 94.2602Z" fill="black"/>
<path d="M31.4804 116.175C31.2888 115.679 31.1929 115.152 31.177 114.56C34.8498 117.789 38.0596 120.075 37.2771 125.382C37.1973 125.973 37.2771 126.757 37.6444 127.204C39.8801 129.985 42.4351 132.047 42.7705 135.676L30.8895 123.799C29.9793 122.888 33.1252 120.315 31.4644 116.175H31.4804Z" fill="black"/>
<path d="M30.8089 82.3679L43.153 70.0119C43.0412 71.994 42.1949 73.5924 40.9333 75.047L38.6338 77.6684C38.011 78.3877 37.5958 79.2189 37.7555 80.194C38.2665 83.263 37.1646 86.1882 34.6894 88.3141L31.5275 91.0314L32.1663 88.7457C32.8051 86.4759 32.2621 84.2381 30.793 82.3679H30.8089Z" fill="black"/>
<path d="M20.0941 107.479C19.8706 107.879 18.8006 108.646 18.4014 108.263L12.4609 102.364L18.3375 96.5141C20.4614 97.3293 22.8089 100.047 22.8248 102.412C22.8408 104.49 21.707 106.153 20.0941 107.511V107.479Z" fill="black"/>
<path d="M178.859 114.481C180.727 112.626 182.324 115.52 185.518 110.58C185.406 110.229 184.735 110.037 184.288 109.989C182.931 109.877 181.126 109.238 180.312 108.071C179.593 107.064 178.938 106.169 178.108 105.274C177.006 104.091 175.585 103.867 174.275 104.874C172.774 106.041 171.513 107.719 171.609 109.717C171.673 110.98 172.95 111.811 174.148 111.571C175.138 111.364 175.952 110.373 175.84 109.206C175.745 108.103 174.882 107.431 173.461 107.112C173.876 106.44 174.771 105.673 175.601 105.641C176.831 105.593 177.533 107.016 177.565 108.087C177.613 109.19 177.326 110.261 176.559 111.06L173.685 114.065C172.742 115.056 172.279 116.67 172.519 117.901C172.806 119.388 173.078 120.699 173.956 121.977C175.425 117.294 177.645 118.509 178.859 114.465V114.481Z" fill="black"/>
<path d="M185.039 93.5729C184.911 92.9175 182.899 90.7436 181.51 90.5518C180.424 90.392 179.354 90.5199 178.475 89.8805C177.31 85.9004 174.93 86.5877 173.349 82.3678C171.928 85.1651 171.178 87.9943 173.365 90.2961L176.112 93.1733C177.422 94.5479 177.565 97.2333 175.936 98.3203C174.835 99.0556 173.349 97.8887 172.854 96.9456C174.371 96.8657 175.346 95.9865 175.377 94.7078C175.409 93.461 174.451 92.5179 173.19 92.5499C172.104 92.5819 170.97 93.5569 171.098 94.7877C171.305 96.9776 172.775 98.8957 174.803 99.7908C175.713 100.19 176.751 99.7589 177.406 99.0875C180.072 96.3382 179.322 95.7468 181.446 94.8357C183.442 93.9885 185.151 94.1803 185.023 93.5569L185.039 93.5729Z" fill="black"/>
<path d="M171.178 115.488C171.369 114.992 171.465 114.465 171.481 113.873C167.808 117.102 164.599 119.388 165.381 124.695C165.461 125.286 165.381 126.069 165.014 126.517C162.778 129.298 160.223 131.36 159.888 134.989L171.769 123.112C172.679 122.201 169.533 119.628 171.194 115.488H171.178Z" fill="black"/>
<path d="M171.849 81.6806L159.505 69.3246C159.617 71.3067 160.463 72.9051 161.725 74.3597L164.024 76.9811C164.647 77.7004 165.062 78.5316 164.902 79.5067C164.391 82.5757 165.493 85.5008 167.968 87.6268L171.13 90.3441L170.492 88.0583C169.853 85.7886 170.396 83.5507 171.865 81.6806H171.849Z" fill="black"/>
<path d="M182.563 106.792C182.786 107.192 183.856 107.959 184.256 107.575L190.196 101.677L184.32 95.8267C182.196 96.6419 179.848 99.3592 179.832 101.725C179.816 103.803 180.95 105.465 182.563 106.824V106.792Z" fill="black"/>
<path d="M62.9716 16.5598C61.9496 16.6078 61.0393 16.7357 60.0173 16.9115C58.8356 17.1193 57.3984 16.416 56.5361 15.6807C56.2486 15.4409 55.7216 15.1532 55.4502 15.2971C54.4281 20.1084 57.079 19.3571 57.095 21.563C55.4182 24.6959 57.4463 25.2713 55.546 28.9318C56.8235 28.692 57.7657 28.0686 58.8196 27.3653C59.6979 26.7739 60.3686 25.5431 60.4006 24.3922L60.4804 20.9076C60.4964 19.9645 60.9595 19.1653 61.6461 18.5419C62.3009 17.9345 63.5624 17.5029 64.2651 18.2702C64.7441 18.7817 64.808 19.7727 64.6643 20.4121C63.6423 19.7567 62.732 19.6448 62.0134 20.2362C61.2469 20.8596 61.1511 21.9306 61.6142 22.6499C62.1731 23.5131 63.4347 23.7688 64.2172 23.0655C65.4628 21.9466 65.7023 20.2043 65.5107 18.6058C65.335 17.2312 64.3609 16.5119 63.0035 16.5758L62.9716 16.5598Z" fill="black"/>
<path d="M71.3392 10.5498L74.6767 10.4699C77.3435 10.4059 78.5731 8.27998 79.3875 5.77043C75.9542 7.3369 74.9641 5.51467 71.8981 7.17706C70.9878 7.0332 70.4289 6.32988 69.6943 5.77043C68.7522 5.05113 66.277 5.16302 65.7979 5.46672C65.3508 5.77043 66.4846 6.66555 67.1553 8.34392C67.8898 10.1502 67.0914 10.0383 67.0435 13.2671C67.0435 14.0663 67.3948 14.9295 68.1613 15.2332C69.886 15.9046 71.8981 15.6488 73.3193 14.466C74.1178 13.8106 74.0219 12.5638 73.3992 11.8925C72.6805 11.1252 71.5467 11.1252 70.8281 11.8765C70.0936 12.6437 70.1574 13.7626 71.0038 14.7057C70.1415 14.9615 68.5765 14.7857 68.3689 13.6827C68.0655 12.0683 69.7422 10.5658 71.3232 10.5338L71.3392 10.5498Z" fill="black"/>
<path d="M61.0385 26.71C59.5694 30.1466 56.168 29.8109 56.168 30.8819V44.9802C58.1162 42.6305 57.8287 39.8971 58.1481 36.908C58.196 36.4285 58.6112 35.901 59.0105 35.5973C62.6195 32.9119 62.0605 29.6511 61.805 25.5591C61.4697 25.9267 61.2142 26.2944 61.0385 26.694V26.71Z" fill="black"/>
<path d="M80.664 6.28191C80.4244 8.26398 79.4184 9.91038 77.6938 10.8694L75.9531 11.8445L79.4344 12.1002C82.1651 12.308 84.5445 11.2211 86.0615 9.09518C86.5406 8.42383 87.2752 8.16808 88.0736 8.12012L90.996 7.92831C92.6088 7.81642 94.046 7.36886 95.2916 6.26593H80.664V6.28191Z" fill="black"/>
<path d="M59.4422 14.8016C61.1987 14.9615 62.8595 14.6418 64.0732 13.411C65.4625 12.0043 65.686 8.99926 64.9036 7.25696H57.957L57.989 14.2741C57.989 14.7377 59.0749 14.9135 59.4581 14.8176L59.4422 14.8016Z" fill="black"/>
<path d="M146.841 184.684C146.841 186.89 149.508 186.123 148.486 190.95C148.214 191.094 147.687 190.806 147.4 190.566C146.537 189.831 145.084 189.128 143.919 189.336C142.896 189.511 141.986 189.655 140.964 189.687C139.607 189.735 138.633 189.032 138.457 187.657C138.265 186.075 138.505 184.317 139.751 183.198C140.533 182.478 141.795 182.75 142.354 183.613C142.817 184.333 142.705 185.403 141.954 186.027C141.236 186.618 140.325 186.506 139.303 185.851C139.16 186.49 139.224 187.481 139.703 187.993C140.405 188.744 141.651 188.329 142.322 187.721C143.008 187.098 143.471 186.299 143.487 185.356L143.567 181.871C143.599 180.72 144.27 179.489 145.148 178.898C146.202 178.195 147.128 177.571 148.422 177.331C146.521 180.992 148.55 181.567 146.873 184.7L146.841 184.684Z" fill="black"/>
<path d="M138.106 200.749C137.643 201.052 135.168 201.164 134.21 200.445C133.475 199.901 132.916 199.182 132.006 199.038C128.956 200.701 127.95 198.894 124.517 200.445C125.331 197.935 126.561 195.825 129.227 195.745L132.565 195.666C134.146 195.634 135.823 194.115 135.519 192.517C135.312 191.43 133.731 191.238 132.884 191.494C133.731 192.437 133.795 193.54 133.06 194.323C132.341 195.074 131.208 195.074 130.489 194.307C129.866 193.636 129.77 192.405 130.569 191.733C131.99 190.567 134.002 190.295 135.727 190.966C136.509 191.27 136.861 192.133 136.845 192.932C136.797 196.161 135.998 196.049 136.733 197.855C137.42 199.55 138.537 200.445 138.09 200.733L138.106 200.749Z" fill="black"/>
<path d="M142.88 179.521C142.705 179.921 142.433 180.288 142.114 180.656C141.858 176.564 141.299 173.303 144.908 170.618C145.308 170.314 145.723 169.803 145.771 169.307C146.09 166.334 145.803 163.585 147.751 161.235V175.333C147.751 176.404 144.366 176.085 142.896 179.505L142.88 179.521Z" fill="black"/>
<path d="M123.255 199.965H108.627C109.873 198.862 111.326 198.415 112.923 198.303L115.845 198.111C116.643 198.063 117.378 197.807 117.857 197.136C119.374 195.026 121.754 193.939 124.484 194.131L127.965 194.387L126.225 195.362C124.5 196.321 123.494 197.967 123.255 199.949V199.965Z" fill="black"/>
<path d="M144.476 191.446C144.843 191.35 145.945 191.526 145.945 191.989L145.977 199.022H139.03C138.248 197.264 138.472 194.259 139.861 192.852C141.075 191.606 142.735 191.302 144.492 191.462L144.476 191.446Z" fill="black"/>
<path d="M63.8329 189.687C62.8109 189.639 61.9007 189.511 60.8786 189.336C59.6969 189.128 58.2597 189.831 57.3974 190.566C57.1099 190.806 56.583 191.094 56.3115 190.95C55.2895 186.139 57.9403 186.89 57.9563 184.684C56.2796 181.551 58.3076 180.976 56.4073 177.315C57.6848 177.555 58.627 178.179 59.681 178.882C60.5593 179.473 61.23 180.704 61.2619 181.855L61.3417 185.34C61.3577 186.283 61.8208 187.082 62.5075 187.705C63.1622 188.313 64.4238 188.744 65.1264 187.977C65.6055 187.465 65.6694 186.474 65.5256 185.835C64.5036 186.49 63.5934 186.602 62.8748 186.011C62.1083 185.388 62.0124 184.317 62.4755 183.597C63.0345 182.734 64.296 182.478 65.0785 183.182C66.3241 184.301 66.5636 186.043 66.372 187.641C66.1963 189.016 65.2222 189.735 63.8649 189.671L63.8329 189.687Z" fill="black"/>
<path d="M72.1995 195.682L75.537 195.761C78.2039 195.825 79.4335 197.951 80.2479 200.461C76.8146 198.894 75.8245 200.717 72.7584 199.054C71.8482 199.198 71.2893 199.901 70.5547 200.461C69.6125 201.18 67.1373 201.068 66.6582 200.765C66.2111 200.461 67.3449 199.566 68.0156 197.887C68.7502 196.081 67.9517 196.193 67.9038 192.964C67.9038 192.165 68.2551 191.302 69.0217 190.998C70.7463 190.327 72.7584 190.583 74.1797 191.765C74.9781 192.421 74.8823 193.668 74.2595 194.339C73.5409 195.106 72.4071 195.106 71.6885 194.355C70.9539 193.588 71.0178 192.469 71.8641 191.526C71.0018 191.27 69.4369 191.446 69.2293 192.549C68.9258 194.163 70.6026 195.666 72.1835 195.698L72.1995 195.682Z" fill="black"/>
<path d="M61.9174 179.521C60.4483 176.085 57.0469 176.42 57.0469 175.349V161.251C58.9951 163.601 58.7077 166.334 59.027 169.323C59.0749 169.803 59.4901 170.33 59.8894 170.634C63.4984 173.319 62.9394 176.58 62.6839 180.672C62.3486 180.304 62.0931 179.937 61.9174 179.537V179.521Z" fill="black"/>
<path d="M81.5273 199.965C81.2877 197.983 80.2817 196.337 78.557 195.378L76.8164 194.403L80.2977 194.147C83.0284 193.939 85.4078 195.026 86.9248 197.152C87.4039 197.823 88.1385 198.079 88.9369 198.127L91.8592 198.319C93.4721 198.431 94.9093 198.878 96.1549 199.981H81.5273V199.965Z" fill="black"/>
<path d="M60.3035 191.446C62.0601 191.286 63.7209 191.605 64.9345 192.836C66.3238 194.243 66.5474 197.248 65.7649 198.99H58.8184L58.8503 191.973C58.8503 191.51 59.9362 191.334 60.3194 191.43L60.3035 191.446Z" fill="black"/>
</svg>
